<?plantuml 1.2026.2?>
<svg xmlns="http://www.w3.org/2000/svg" contentStyleType="text/css" data-diagram-type="CLASS" height="503px"
     preserveAspectRatio="none" style="width:560px;height:503px;background:#1E1E1E;" version="1.1" viewBox="0 0 560 503"
     width="560px" zoomAndPan="magnify"><defs/><g><rect fill="#1E1E1E" height="503" style="stroke:none;stroke-width:1;" width="560" x="0" y="0"/><!--class Mapper--><g class="entity" data-qualified-name="Mapper" data-source-line="17" id="ent0002"><rect fill="#2D2D2D" height="65.1514" rx="2.5" ry="2.5" style="stroke:#8A8A8A;stroke-width:0.5;" width="270.3301" x="7" y="10"/><ellipse cx="72.4951" cy="26" fill="#B4A7E5" rx="11" ry="11" style="stroke:#181818;stroke-width:1;"/><path d="M73.4482,22.6406 L73.4482,29.2969 L75.167,29.2969 Q75.7764,29.2969 76.042,29.5313 Q76.3076,29.7656 76.3076,30.1563 Q76.3076,30.5313 76.042,30.7656 Q75.7764,31 75.167,31 L70.0264,31 Q69.417,31 69.1514,30.7656 Q68.8857,30.5313 68.8857,30.1406 Q68.8857,29.7656 69.1514,29.5313 Q69.417,29.2969 70.0264,29.2969 L71.7451,29.2969 L71.7451,22.6406 L70.0264,22.6406 Q69.417,22.6406 69.1514,22.4063 Q68.8857,22.1719 68.8857,21.7813 Q68.8857,21.4063 69.1514,21.1719 Q69.417,20.9375 70.0264,20.9375 L75.167,20.9375 Q75.7764,20.9375 76.042,21.1719 Q76.3076,21.4063 76.3076,21.7813 Q76.3076,22.1719 76.042,22.4063 Q75.7764,22.6406 75.167,22.6406 L73.4482,22.6406 Z " fill="#000000"/><text fill="#E0E0E0" font-family="sans-serif" font-size="14" font-style="italic" lengthAdjust="spacing" textLength="47.4688" x="92.9951" y="31.4995">Mapper</text><rect fill="#2D2D2D" height="16.7012" style="stroke:#8A8A8A;stroke-width:1;stroke-dasharray:2,2;" width="81.3711" x="198.959" y="7"/><text fill="#000000" font-family="sans-serif" font-size="12" font-style="italic" lengthAdjust="spacing" textLength="79.3711" x="199.959" y="20.0645">Source, Target</text><line style="stroke:#8A8A8A;stroke-width:0.5;" x1="8" x2="276.3301" y1="42" y2="42"/><line style="stroke:#8A8A8A;stroke-width:0.5;" x1="8" x2="276.3301" y1="50" y2="50"/><g data-visibility-modifier="PUBLIC_METHOD"><ellipse cx="18" cy="64.0757" fill="#84BE84" rx="3" ry="3" style="stroke:#038048;stroke-width:1;"/></g><text fill="#FFFFFF" font-family="sans-serif" font-size="14" lengthAdjust="spacing" textLength="244.3301" x="27" y="68.0752">void map(Source source, Target target)</text></g><!--class ToEntityMapper--><g class="entity" data-qualified-name="ToEntityMapper" data-source-line="17" id="ent0003"><rect fill="#2D2D2D" height="65.1514" rx="2.5" ry="2.5" style="stroke:#8A8A8A;stroke-width:0.5;" width="229.082" x="312.5" y="10"/><ellipse cx="336.3022" cy="26" fill="#B4A7E5" rx="11" ry="11" style="stroke:#181818;stroke-width:1;"/><path d="M337.2554,22.6406 L337.2554,29.2969 L338.9741,29.2969 Q339.5835,29.2969 339.8491,29.5313 Q340.1147,29.7656 340.1147,30.1563 Q340.1147,30.5313 339.8491,30.7656 Q339.5835,31 338.9741,31 L333.8335,31 Q333.2241,31 332.9585,30.7656 Q332.6929,30.5313 332.6929,30.1406 Q332.6929,29.7656 332.9585,29.5313 Q333.2241,29.2969 333.8335,29.2969 L335.5522,29.2969 L335.5522,22.6406 L333.8335,22.6406 Q333.2241,22.6406 332.9585,22.4063 Q332.6929,22.1719 332.6929,21.7813 Q332.6929,21.4063 332.9585,21.1719 Q333.2241,20.9375 333.8335,20.9375 L338.9741,20.9375 Q339.5835,20.9375 339.8491,21.1719 Q340.1147,21.4063 340.1147,21.7813 Q340.1147,22.1719 339.8491,22.4063 Q339.5835,22.6406 338.9741,22.6406 L337.2554,22.6406 Z " fill="#000000"/><text fill="#E0E0E0" font-family="sans-serif" font-size="14" font-style="italic" lengthAdjust="spacing" textLength="98.8203" x="352.2583" y="31.4995">ToEntityMapper</text><rect fill="#2D2D2D" height="16.7012" style="stroke:#8A8A8A;stroke-width:1;stroke-dasharray:2,2;" width="76.7012" x="467.8809" y="7"/><text fill="#000000" font-family="sans-serif" font-size="12" font-style="italic" lengthAdjust="spacing" textLength="74.7012" x="468.8809" y="20.0645">Source, Entity</text><line style="stroke:#8A8A8A;stroke-width:0.5;" x1="313.5" x2="540.582" y1="42" y2="42"/><line style="stroke:#8A8A8A;stroke-width:0.5;" x1="313.5" x2="540.582" y1="50" y2="50"/><text fill="#FFFFFF" font-family="sans-serif" font-size="14" lengthAdjust="spacing" textLength="217.082" x="318.5" y="68.0752">Entity mapToEntity(Source source)</text></g><!--class CustomerRecipeRequestBodyToRecipeMapper--><g class="entity" data-qualified-name="CustomerRecipeRequestBodyToRecipeMapper" data-source-line="20" id="ent0004"><rect fill="#2D2D2D" height="82.3027" rx="2.5" ry="2.5" style="stroke:#8A8A8A;stroke-width:0.5;" width="538.791" x="14.5" y="135"/><ellipse cx="131.7944" cy="151" fill="#B4A7E5" rx="11" ry="11" style="stroke:#181818;stroke-width:1;"/><path d="M132.7476,147.6406 L132.7476,154.2969 L134.4663,154.2969 Q135.0757,154.2969 135.3413,154.5313 Q135.6069,154.7656 135.6069,155.1563 Q135.6069,155.5313 135.3413,155.7656 Q135.0757,156 134.4663,156 L129.3257,156 Q128.7163,156 128.4507,155.7656 Q128.1851,155.5313 128.1851,155.1406 Q128.1851,154.7656 128.4507,154.5313 Q128.7163,154.2969 129.3257,154.2969 L131.0444,154.2969 L131.0444,147.6406 L129.3257,147.6406 Q128.7163,147.6406 128.4507,147.4063 Q128.1851,147.1719 128.1851,146.7813 Q128.1851,146.4063 128.4507,146.1719 Q128.7163,145.9375 129.3257,145.9375 L134.4663,145.9375 Q135.0757,145.9375 135.3413,146.1719 Q135.6069,146.4063 135.6069,146.7813 Q135.6069,147.1719 135.3413,147.4063 Q135.0757,147.6406 134.4663,147.6406 L132.7476,147.6406 Z " fill="#000000"/><text fill="#E0E0E0" font-family="sans-serif" font-size="14" font-style="italic" lengthAdjust="spacing" textLength="295.7021" x="152.2944" y="156.4995">CustomerRecipeRequestBodyToRecipeMapper</text><line style="stroke:#8A8A8A;stroke-width:0.5;" x1="15.5" x2="552.291" y1="167" y2="167"/><line style="stroke:#8A8A8A;stroke-width:0.5;" x1="15.5" x2="552.291" y1="175" y2="175"/><g data-visibility-modifier="PUBLIC_METHOD"><ellipse cx="25.5" cy="189.0757" fill="#84BE84" rx="3" ry="3" style="stroke:#038048;stroke-width:1;"/></g><text fill="#FFFFFF" font-family="sans-serif" font-size="14" lengthAdjust="spacing" textLength="391.4053" x="34.5" y="193.0752">void map(CustomerRecipeRequestBody source, Recipe target)</text><g data-visibility-modifier="PUBLIC_METHOD"><ellipse cx="25.5" cy="206.2271" fill="#84BE84" rx="3" ry="3" style="stroke:#038048;stroke-width:1;"/></g><text fill="#FFFFFF" font-family="sans-serif" font-size="14" lengthAdjust="spacing" textLength="512.791" x="34.5" y="210.2266">Recipe mapToEntity(CustomerRecipeRequestBody customerRecipeRequestBody)</text></g><!--class DefaultCustomerRecipeRequestBodyToRecipeMapper--><g class="entity" data-qualified-name="DefaultCustomerRecipeRequestBodyToRecipeMapper" data-source-line="25" id="ent0007"><rect fill="#2D2D2D" height="219.5137" rx="2.5" ry="2.5" style="stroke:#8A8A8A;stroke-width:0.5;" width="538.7979" x="14.5" y="277"/><ellipse cx="109.6187" cy="293" fill="#ADD1B2" rx="11" ry="11" style="stroke:#181818;stroke-width:1;"/><path d="M112.3843,288.875 Q112.5405,288.6563 112.728,288.5469 Q112.9155,288.4375 113.1343,288.4375 Q113.5093,288.4375 113.7437,288.7031 Q113.978,288.9531 113.978,289.5625 L113.978,291.0156 Q113.978,291.625 113.7437,291.8906 Q113.5093,292.1563 113.1343,292.1563 Q112.7905,292.1563 112.5874,291.9531 Q112.3843,291.7656 112.2749,291.25 Q112.228,290.8906 112.0405,290.7031 Q111.7124,290.3281 111.103,290.1094 Q110.4937,289.8906 109.8687,289.8906 Q109.103,289.8906 108.4624,290.2188 Q107.8374,290.5469 107.3374,291.2969 Q106.853,292.0469 106.853,293.0781 L106.853,294.1719 Q106.853,295.4063 107.7437,296.2344 Q108.6343,297.0469 110.228,297.0469 Q111.1655,297.0469 111.8218,296.7969 Q112.2124,296.6406 112.6343,296.2031 Q112.8999,295.9375 113.0405,295.8594 Q113.1968,295.7813 113.3999,295.7813 Q113.728,295.7813 113.978,296.0469 Q114.2437,296.2969 114.2437,296.6406 Q114.2437,296.9844 113.8999,297.3906 Q113.3999,297.9688 112.603,298.2969 Q111.5249,298.75 110.228,298.75 Q108.7124,298.75 107.5093,298.125 Q106.5249,297.625 105.8374,296.5625 Q105.1499,295.4844 105.1499,294.2031 L105.1499,293.0469 Q105.1499,291.7188 105.7593,290.5781 Q106.3843,289.4219 107.478,288.8125 Q108.5718,288.1875 109.8062,288.1875 Q110.5405,288.1875 111.1812,288.3594 Q111.8374,288.5156 112.3843,288.875 Z " fill="#000000"/><text fill="#E0E0E0" font-family="sans-serif" font-size="14" lengthAdjust="spacing" textLength="340.0605" x="130.1187" y="298.4995">DefaultCustomerRecipeRequestBodyToRecipeMapper</text><line style="stroke:#8A8A8A;stroke-width:0.5;" x1="15.5" x2="552.2979" y1="309" y2="309"/><line style="stroke:#8A8A8A;stroke-width:0.5;" x1="15.5" x2="552.2979" y1="317" y2="317"/><g data-visibility-modifier="PUBLIC_METHOD"><ellipse cx="25.5" cy="331.0757" fill="#84BE84" rx="3" ry="3" style="stroke:#038048;stroke-width:1;"/></g><text fill="#FFFFFF" font-family="sans-serif" font-size="14" lengthAdjust="spacing" textLength="406.1914" x="34.5" y="335.0752">Recipe mapToEntity(CustomerRecipeRequestBody requestBody)</text><g data-visibility-modifier="PUBLIC_METHOD"><ellipse cx="25.5" cy="348.2271" fill="#84BE84" rx="3" ry="3" style="stroke:#038048;stroke-width:1;"/></g><text fill="#FFFFFF" font-family="sans-serif" font-size="14" lengthAdjust="spacing" textLength="430.3223" x="34.5" y="352.2266">void map(CustomerRecipeRequestBody requestBody, Recipe recipe)</text><g data-visibility-modifier="PRIVATE_METHOD"><rect fill="#F24D5C" height="6" style="stroke:#C82930;stroke-width:1;" width="6" x="22.5" y="362.3784"/></g><text fill="#FFFFFF" font-family="sans-serif" font-size="14" lengthAdjust="spacing" textLength="467.667" x="34.5" y="369.3779">void mapName(CustomerRecipeRequestBody requestBody, Recipe recipe)</text><g data-visibility-modifier="PRIVATE_METHOD"><rect fill="#F24D5C" height="6" style="stroke:#C82930;stroke-width:1;" width="6" x="22.5" y="379.5298"/></g><text fill="#FFFFFF" font-family="sans-serif" font-size="14" lengthAdjust="spacing" textLength="500.3496" x="34.5" y="386.5293">void mapDescription(CustomerRecipeRequestBody requestBody, Recipe recipe)</text><g data-visibility-modifier="PRIVATE_METHOD"><rect fill="#F24D5C" height="6" style="stroke:#C82930;stroke-width:1;" width="6" x="22.5" y="396.6812"/></g><text fill="#FFFFFF" font-family="sans-serif" font-size="14" lengthAdjust="spacing" textLength="483.2188" x="34.5" y="403.6807">void mapDifficulty(CustomerRecipeRequestBody requestBody, Recipe recipe)</text><g data-visibility-modifier="PRIVATE_METHOD"><rect fill="#F24D5C" height="6" style="stroke:#C82930;stroke-width:1;" width="6" x="22.5" y="413.8325"/></g><text fill="#FFFFFF" font-family="sans-serif" font-size="14" lengthAdjust="spacing" textLength="498.0254" x="34.5" y="420.832">void mapCategories(CustomerRecipeRequestBody requestBody, Recipe recipe)</text><g data-visibility-modifier="PRIVATE_METHOD"><rect fill="#F24D5C" height="6" style="stroke:#C82930;stroke-width:1;" width="6" x="22.5" y="430.9839"/></g><text fill="#FFFFFF" font-family="sans-serif" font-size="14" lengthAdjust="spacing" textLength="499.5908" x="34.5" y="437.9834">void mapIngredients(CustomerRecipeRequestBody requestBody, Recipe recipe)</text><g data-visibility-modifier="PRIVATE_METHOD"><rect fill="#F24D5C" height="6" style="stroke:#C82930;stroke-width:1;" width="6" x="22.5" y="448.1353"/></g><text fill="#FFFFFF" font-family="sans-serif" font-size="14" lengthAdjust="spacing" textLength="484.791" x="34.5" y="455.1348">void mapServings(CustomerRecipeRequestBody requestBody, Recipe recipe)</text><g data-visibility-modifier="PRIVATE_METHOD"><rect fill="#F24D5C" height="6" style="stroke:#C82930;stroke-width:1;" width="6" x="22.5" y="465.2866"/></g><text fill="#FFFFFF" font-family="sans-serif" font-size="14" lengthAdjust="spacing" textLength="512.7979" x="34.5" y="472.2861">void mapCookingTime(CustomerRecipeRequestBody requestBody, Recipe recipe)</text><g data-visibility-modifier="PRIVATE_METHOD"><rect fill="#F24D5C" height="6" style="stroke:#C82930;stroke-width:1;" width="6" x="22.5" y="482.438"/></g><text fill="#FFFFFF" font-family="sans-serif" font-size="14" lengthAdjust="spacing" textLength="501.9082" x="34.5" y="489.4375">void mapInstructions(CustomerRecipeRequestBody requestBody, Recipe recipe)</text></g><!--reverse link Mapper to CustomerRecipeRequestBodyToRecipeMapper--><g class="link" data-entity-1="ent0002" data-entity-2="ent0004" data-link-type="extension" data-source-line="21" id="lnk5"><path d="M145.75,93.16 C145.75,111.07 145.75,115.45 145.75,134.58" fill="none" id="Mapper-backto-CustomerRecipeRequestBodyToRecipeMapper" style="stroke:#B0C4DE;stroke-width:1;"/><polygon fill="none" points="145.75,75.16,139.75,93.16,151.75,93.16,145.75,75.16" style="stroke:#B0C4DE;stroke-width:1;"/></g><!--reverse link ToEntityMapper to CustomerRecipeRequestBodyToRecipeMapper--><g class="link" data-entity-1="ent0003" data-entity-2="ent0004" data-link-type="extension" data-source-line="21" id="lnk6"><path d="M427,93.16 C427,111.07 427,115.45 427,134.58" fill="none" id="ToEntityMapper-backto-CustomerRecipeRequestBodyToRecipeMapper" style="stroke:#B0C4DE;stroke-width:1;"/><polygon fill="none" points="427,75.16,421,93.16,433,93.16,427,75.16" style="stroke:#B0C4DE;stroke-width:1;"/></g><!--reverse link CustomerRecipeRequestBodyToRecipeMapper to DefaultCustomerRecipeRequestBodyToRecipeMapper--><g class="link" data-entity-1="ent0004" data-entity-2="ent0007" data-link-type="extension" data-source-line="26" id="lnk8"><path d="M284,235.18 C284,252.45 284,255.44 284,276.69" fill="none" id="CustomerRecipeRequestBodyToRecipeMapper-backto-DefaultCustomerRecipeRequestBodyToRecipeMapper" style="stroke:#B0C4DE;stroke-width:1;stroke-dasharray:7,7;"/><polygon fill="none" points="284,217.18,278,235.18,290,235.18,284,217.18" style="stroke:#B0C4DE;stroke-width:1;"/></g><?plantuml-src hPJ1Rjim38RlVWeElQnODtJ33hicJWhqq1swl80gqIvHMLGfgbrGzDrdnLvcfEWQ53O16-1FVf9-6aft5A8Hqu6dWBgD22nworNQ2pV6thN2ERYQFGkSV5sNc5GuR4pski7Vkl3KXWw3WkrVA9EgXGW_ZeZbUVrzDKMaM-FuaK8BZV499ye51nsxBdRFHBFUfFHcmK9Lw2OhlbbvXVtHtSkompfugW2MXxvyMvKe2ej36RC_5YNwx0IxFYzHFLVL1mhMPuTmPM94-H9pv_ybDxmEIhgTYXKLNnjZ4UgSb3kKQxGKyHhlCoPTijjkU4WDVT3F1ODBunfd1zZTOG0-mGEJWyx4Zwzo8N4MYsSmAA16MjJJiNzCzeI_2_o7P5zJJeijWykhuRywzfZKHO_btqj7E_FqdgtBTBD7MpVfslidkyy0-Ro7_3GTpW9QOR92KOd3F3ng6hBzHBQpu6gZsB8Gfbbmbw4LT5JcFmll5yf3Vo7D0wkP-okatT1CexqCIINRCjhtRl3v3m00?></g></svg>