<?plantuml 1.2026.2?>
<svg xmlns="http://www.w3.org/2000/svg" contentStyleType="text/css" data-diagram-type="CLASS" height="520px"
     preserveAspectRatio="none" style="width:574px;height:520px;background:#1E1E1E;" version="1.1" viewBox="0 0 574 520"
     width="574px" zoomAndPan="magnify"><defs/><g><rect fill="#1E1E1E" height="520" style="stroke:none;stroke-width:1;" width="574" x="0" y="0"/><!--class Mapper--><g class="entity" data-qualified-name="Mapper" data-source-line="17" id="ent0002"><rect fill="#2D2D2D" height="65.1514" rx="2.5" ry="2.5" style="stroke:#8A8A8A;stroke-width:0.5;" width="270.3301" x="9.5" y="10"/><ellipse cx="74.9951" cy="26" fill="#B4A7E5" rx="11" ry="11" style="stroke:#181818;stroke-width:1;"/><path d="M75.9482,22.6406 L75.9482,29.2969 L77.667,29.2969 Q78.2764,29.2969 78.542,29.5313 Q78.8076,29.7656 78.8076,30.1563 Q78.8076,30.5313 78.542,30.7656 Q78.2764,31 77.667,31 L72.5264,31 Q71.917,31 71.6514,30.7656 Q71.3857,30.5313 71.3857,30.1406 Q71.3857,29.7656 71.6514,29.5313 Q71.917,29.2969 72.5264,29.2969 L74.2451,29.2969 L74.2451,22.6406 L72.5264,22.6406 Q71.917,22.6406 71.6514,22.4063 Q71.3857,22.1719 71.3857,21.7813 Q71.3857,21.4063 71.6514,21.1719 Q71.917,20.9375 72.5264,20.9375 L77.667,20.9375 Q78.2764,20.9375 78.542,21.1719 Q78.8076,21.4063 78.8076,21.7813 Q78.8076,22.1719 78.542,22.4063 Q78.2764,22.6406 77.667,22.6406 L75.9482,22.6406 Z " fill="#000000"/><text fill="#E0E0E0" font-family="sans-serif" font-size="14" font-style="italic" lengthAdjust="spacing" textLength="47.4688" x="95.4951" y="31.4995">Mapper</text><rect fill="#2D2D2D" height="16.7012" style="stroke:#8A8A8A;stroke-width:1;stroke-dasharray:2,2;" width="81.3711" x="201.459" y="7"/><text fill="#000000" font-family="sans-serif" font-size="12" font-style="italic" lengthAdjust="spacing" textLength="79.3711" x="202.459" y="20.0645">Source, Target</text><line style="stroke:#8A8A8A;stroke-width:0.5;" x1="10.5" x2="278.8301" y1="42" y2="42"/><line style="stroke:#8A8A8A;stroke-width:0.5;" x1="10.5" x2="278.8301" y1="50" y2="50"/><g data-visibility-modifier="PUBLIC_METHOD"><ellipse cx="20.5" cy="64.0757" fill="#84BE84" rx="3" ry="3" style="stroke:#038048;stroke-width:1;"/></g><text fill="#FFFFFF" font-family="sans-serif" font-size="14" lengthAdjust="spacing" textLength="244.3301" x="29.5" y="68.0752">void map(Source source, Target target)</text></g><!--class ToDTOMapper--><g class="entity" data-qualified-name="ToDTOMapper" data-source-line="17" id="ent0003"><rect fill="#2D2D2D" height="65.1514" rx="2.5" ry="2.5" style="stroke:#8A8A8A;stroke-width:0.5;" width="232.1582" x="314.5" y="10"/><ellipse cx="344.2511" cy="26" fill="#B4A7E5" rx="11" ry="11" style="stroke:#181818;stroke-width:1;"/><path d="M345.2042,22.6406 L345.2042,29.2969 L346.923,29.2969 Q347.5324,29.2969 347.798,29.5313 Q348.0636,29.7656 348.0636,30.1563 Q348.0636,30.5313 347.798,30.7656 Q347.5324,31 346.923,31 L341.7824,31 Q341.173,31 340.9074,30.7656 Q340.6417,30.5313 340.6417,30.1406 Q340.6417,29.7656 340.9074,29.5313 Q341.173,29.2969 341.7824,29.2969 L343.5011,29.2969 L343.5011,22.6406 L341.7824,22.6406 Q341.173,22.6406 340.9074,22.4063 Q340.6417,22.1719 340.6417,21.7813 Q340.6417,21.4063 340.9074,21.1719 Q341.173,20.9375 341.7824,20.9375 L346.923,20.9375 Q347.5324,20.9375 347.798,21.1719 Q348.0636,21.4063 348.0636,21.7813 Q348.0636,22.1719 347.798,22.4063 Q347.5324,22.6406 346.923,22.6406 L345.2042,22.6406 Z " fill="#000000"/><text fill="#E0E0E0" font-family="sans-serif" font-size="14" font-style="italic" lengthAdjust="spacing" textLength="93.3584" x="361.5292" y="31.4995">ToDTOMapper</text><rect fill="#2D2D2D" height="16.7012" style="stroke:#8A8A8A;stroke-width:1;stroke-dasharray:2,2;" width="72.0195" x="477.6387" y="7"/><text fill="#000000" font-family="sans-serif" font-size="12" font-style="italic" lengthAdjust="spacing" textLength="70.0195" x="478.6387" y="20.0645">Source, DTO</text><line style="stroke:#8A8A8A;stroke-width:0.5;" x1="315.5" x2="545.6582" y1="42" y2="42"/><line style="stroke:#8A8A8A;stroke-width:0.5;" x1="315.5" x2="545.6582" y1="50" y2="50"/><g data-visibility-modifier="PUBLIC_METHOD"><ellipse cx="325.5" cy="64.0757" fill="#84BE84" rx="3" ry="3" style="stroke:#038048;stroke-width:1;"/></g><text fill="#FFFFFF" font-family="sans-serif" font-size="14" lengthAdjust="spacing" textLength="206.1582" x="334.5" y="68.0752">DTO mapToDTO(Source source)</text></g><!--class RecipeToCustomerRecipeResponseBodyMapper--><g class="entity" data-qualified-name="RecipeToCustomerRecipeResponseBodyMapper" data-source-line="20" id="ent0004"><rect fill="#2D2D2D" height="82.3027" rx="2.5" ry="2.5" style="stroke:#8A8A8A;stroke-width:0.5;" width="428.3018" x="73.5" y="135"/><ellipse cx="130.1016" cy="151" fill="#B4A7E5" rx="11" ry="11" style="stroke:#181818;stroke-width:1;"/><path d="M131.0547,147.6406 L131.0547,154.2969 L132.7734,154.2969 Q133.3828,154.2969 133.6484,154.5313 Q133.9141,154.7656 133.9141,155.1563 Q133.9141,155.5313 133.6484,155.7656 Q133.3828,156 132.7734,156 L127.6328,156 Q127.0234,156 126.7578,155.7656 Q126.4922,155.5313 126.4922,155.1406 Q126.4922,154.7656 126.7578,154.5313 Q127.0234,154.2969 127.6328,154.2969 L129.3516,154.2969 L129.3516,147.6406 L127.6328,147.6406 Q127.0234,147.6406 126.7578,147.4063 Q126.4922,147.1719 126.4922,146.7813 Q126.4922,146.4063 126.7578,146.1719 Q127.0234,145.9375 127.6328,145.9375 L132.7734,145.9375 Q133.3828,145.9375 133.6484,146.1719 Q133.9141,146.4063 133.9141,146.7813 Q133.9141,147.1719 133.6484,147.4063 Q133.3828,147.6406 132.7734,147.6406 L131.0547,147.6406 Z " fill="#000000"/><text fill="#E0E0E0" font-family="sans-serif" font-size="14" font-style="italic" lengthAdjust="spacing" textLength="306.5986" x="150.6016" y="156.4995">RecipeToCustomerRecipeResponseBodyMapper</text><line style="stroke:#8A8A8A;stroke-width:0.5;" x1="74.5" x2="500.8018" y1="167" y2="167"/><line style="stroke:#8A8A8A;stroke-width:0.5;" x1="74.5" x2="500.8018" y1="175" y2="175"/><g data-visibility-modifier="PUBLIC_METHOD"><ellipse cx="84.5" cy="189.0757" fill="#84BE84" rx="3" ry="3" style="stroke:#038048;stroke-width:1;"/></g><text fill="#FFFFFF" font-family="sans-serif" font-size="14" lengthAdjust="spacing" textLength="402.3018" x="93.5" y="193.0752">void map(Recipe source, CustomerRecipeResponseBody target)</text><g data-visibility-modifier="PUBLIC_METHOD"><ellipse cx="84.5" cy="206.2271" fill="#84BE84" rx="3" ry="3" style="stroke:#038048;stroke-width:1;"/></g><text fill="#FFFFFF" font-family="sans-serif" font-size="14" lengthAdjust="spacing" textLength="371.1504" x="93.5" y="210.2266">CustomerRecipeResponseBody mapToDTO(Recipe recipe)</text></g><!--class DefaultRecipeToCustomerRecipeResponseBodyMapper--><g class="entity" data-qualified-name="DefaultRecipeToCustomerRecipeResponseBodyMapper" data-source-line="25" id="ent0007"><rect fill="#2D2D2D" height="236.665" rx="2.5" ry="2.5" style="stroke:#8A8A8A;stroke-width:0.5;" width="560.5908" x="7" y="277"/><ellipse cx="107.5669" cy="293" fill="#ADD1B2" rx="11" ry="11" style="stroke:#181818;stroke-width:1;"/><path d="M110.3325,288.875 Q110.4888,288.6563 110.6763,288.5469 Q110.8638,288.4375 111.0825,288.4375 Q111.4575,288.4375 111.6919,288.7031 Q111.9263,288.9531 111.9263,289.5625 L111.9263,291.0156 Q111.9263,291.625 111.6919,291.8906 Q111.4575,292.1563 111.0825,292.1563 Q110.7388,292.1563 110.5356,291.9531 Q110.3325,291.7656 110.2231,291.25 Q110.1763,290.8906 109.9888,290.7031 Q109.6606,290.3281 109.0513,290.1094 Q108.4419,289.8906 107.8169,289.8906 Q107.0513,289.8906 106.4106,290.2188 Q105.7856,290.5469 105.2856,291.2969 Q104.8013,292.0469 104.8013,293.0781 L104.8013,294.1719 Q104.8013,295.4063 105.6919,296.2344 Q106.5825,297.0469 108.1763,297.0469 Q109.1138,297.0469 109.77,296.7969 Q110.1606,296.6406 110.5825,296.2031 Q110.8481,295.9375 110.9888,295.8594 Q111.145,295.7813 111.3481,295.7813 Q111.6763,295.7813 111.9263,296.0469 Q112.1919,296.2969 112.1919,296.6406 Q112.1919,296.9844 111.8481,297.3906 Q111.3481,297.9688 110.5513,298.2969 Q109.4731,298.75 108.1763,298.75 Q106.6606,298.75 105.4575,298.125 Q104.4731,297.625 103.7856,296.5625 Q103.0981,295.4844 103.0981,294.2031 L103.0981,293.0469 Q103.0981,291.7188 103.7075,290.5781 Q104.3325,289.4219 105.4263,288.8125 Q106.52,288.1875 107.7544,288.1875 Q108.4888,288.1875 109.1294,288.3594 Q109.7856,288.5156 110.3325,288.875 Z " fill="#000000"/><text fill="#E0E0E0" font-family="sans-serif" font-size="14" lengthAdjust="spacing" textLength="350.957" x="128.0669" y="298.4995">DefaultRecipeToCustomerRecipeResponseBodyMapper</text><line style="stroke:#8A8A8A;stroke-width:0.5;" x1="8" x2="566.5908" y1="309" y2="309"/><line style="stroke:#8A8A8A;stroke-width:0.5;" x1="8" x2="566.5908" y1="317" y2="317"/><g data-visibility-modifier="PUBLIC_METHOD"><ellipse cx="18" cy="331.0757" fill="#84BE84" rx="3" ry="3" style="stroke:#038048;stroke-width:1;"/></g><text fill="#FFFFFF" font-family="sans-serif" font-size="14" lengthAdjust="spacing" textLength="371.1504" x="27" y="335.0752">CustomerRecipeResponseBody mapToDTO(Recipe recipe)</text><g data-visibility-modifier="PUBLIC_METHOD"><ellipse cx="18" cy="348.2271" fill="#84BE84" rx="3" ry="3" style="stroke:#038048;stroke-width:1;"/></g><text fill="#FFFFFF" font-family="sans-serif" font-size="14" lengthAdjust="spacing" textLength="452.1152" x="27" y="352.2266">void map(Recipe recipe, CustomerRecipeResponseBody responseBody)</text><g data-visibility-modifier="PRIVATE_METHOD"><rect fill="#F24D5C" height="6" style="stroke:#C82930;stroke-width:1;" width="6" x="15" y="362.3784"/></g><text fill="#FFFFFF" font-family="sans-serif" font-size="14" lengthAdjust="spacing" textLength="463.791" x="27" y="369.3779">void mapId(Recipe recipe, CustomerRecipeResponseBody responseBody)</text><g data-visibility-modifier="PRIVATE_METHOD"><rect fill="#F24D5C" height="6" style="stroke:#C82930;stroke-width:1;" width="6" x="15" y="379.5298"/></g><text fill="#FFFFFF" font-family="sans-serif" font-size="14" lengthAdjust="spacing" textLength="489.46" x="27" y="386.5293">void mapName(Recipe recipe, CustomerRecipeResponseBody responseBody)</text><g data-visibility-modifier="PRIVATE_METHOD"><rect fill="#F24D5C" height="6" style="stroke:#C82930;stroke-width:1;" width="6" x="15" y="396.6812"/></g><text fill="#FFFFFF" font-family="sans-serif" font-size="14" lengthAdjust="spacing" textLength="505.0117" x="27" y="403.6807">void mapDifficulty(Recipe recipe, CustomerRecipeResponseBody responseBody)</text><g data-visibility-modifier="PRIVATE_METHOD"><rect fill="#F24D5C" height="6" style="stroke:#C82930;stroke-width:1;" width="6" x="15" y="413.8325"/></g><text fill="#FFFFFF" font-family="sans-serif" font-size="14" lengthAdjust="spacing" textLength="519.8184" x="27" y="420.832">void mapCategories(Recipe recipe, CustomerRecipeResponseBody responseBody)</text><g data-visibility-modifier="PRIVATE_METHOD"><rect fill="#F24D5C" height="6" style="stroke:#C82930;stroke-width:1;" width="6" x="15" y="430.9839"/></g><text fill="#FFFFFF" font-family="sans-serif" font-size="14" lengthAdjust="spacing" textLength="521.3838" x="27" y="437.9834">void mapIngredients(Recipe recipe, CustomerRecipeResponseBody responseBody)</text><g data-visibility-modifier="PRIVATE_METHOD"><rect fill="#F24D5C" height="6" style="stroke:#C82930;stroke-width:1;" width="6" x="15" y="448.1353"/></g><text fill="#FFFFFF" font-family="sans-serif" font-size="14" lengthAdjust="spacing" textLength="506.584" x="27" y="455.1348">void mapServings(Recipe recipe, CustomerRecipeResponseBody responseBody)</text><g data-visibility-modifier="PRIVATE_METHOD"><rect fill="#F24D5C" height="6" style="stroke:#C82930;stroke-width:1;" width="6" x="15" y="465.2866"/></g><text fill="#FFFFFF" font-family="sans-serif" font-size="14" lengthAdjust="spacing" textLength="534.5908" x="27" y="472.2861">void mapCookingTime(Recipe recipe, CustomerRecipeResponseBody responseBody)</text><g data-visibility-modifier="PRIVATE_METHOD"><rect fill="#F24D5C" height="6" style="stroke:#C82930;stroke-width:1;" width="6" x="15" y="482.438"/></g><text fill="#FFFFFF" font-family="sans-serif" font-size="14" lengthAdjust="spacing" textLength="522.1426" x="27" y="489.4375">void mapDescription(Recipe recipe, CustomerRecipeResponseBody responseBody)</text><g data-visibility-modifier="PRIVATE_METHOD"><rect fill="#F24D5C" height="6" style="stroke:#C82930;stroke-width:1;" width="6" x="15" y="499.5894"/></g><text fill="#FFFFFF" font-family="sans-serif" font-size="14" lengthAdjust="spacing" textLength="523.7012" x="27" y="506.5889">void mapInstructions(Recipe recipe, CustomerRecipeResponseBody responseBody)</text></g><!--reverse link Mapper to RecipeToCustomerRecipeResponseBodyMapper--><g class="link" data-entity-1="ent0002" data-entity-2="ent0004" data-link-type="extension" data-source-line="21" id="lnk5"><path d="M176.5,93.16 C176.5,111.07 176.5,115.45 176.5,134.58" fill="none" id="Mapper-backto-RecipeToCustomerRecipeResponseBodyMapper" style="stroke:#B0C4DE;stroke-width:1;"/><polygon fill="none" points="176.5,75.16,170.5,93.16,182.5,93.16,176.5,75.16" style="stroke:#B0C4DE;stroke-width:1;"/></g><!--reverse link ToDTOMapper to RecipeToCustomerRecipeResponseBodyMapper--><g class="link" data-entity-1="ent0003" data-entity-2="ent0004" data-link-type="extension" data-source-line="21" id="lnk6"><path d="M408,93.16 C408,111.07 408,115.45 408,134.58" fill="none" id="ToDTOMapper-backto-RecipeToCustomerRecipeResponseBodyMapper" style="stroke:#B0C4DE;stroke-width:1;"/><polygon fill="none" points="408,75.16,402,93.16,414,93.16,408,75.16" style="stroke:#B0C4DE;stroke-width:1;"/></g><!--reverse link RecipeToCustomerRecipeResponseBodyMapper to DefaultRecipeToCustomerRecipeResponseBodyMapper--><g class="link" data-entity-1="ent0004" data-entity-2="ent0007" data-link-type="extension" data-source-line="26" id="lnk8"><path d="M287.5,235.03 C287.5,252.28 287.5,255.31 287.5,276.81" fill="none" id="RecipeToCustomerRecipeResponseBodyMapper-backto-DefaultRecipeToCustomerRecipeResponseBodyMapper" style="stroke:#B0C4DE;stroke-width:1;stroke-dasharray:7,7;"/><polygon fill="none" points="287.5,217.03,281.5,235.03,293.5,235.03,287.5,217.03" style="stroke:#B0C4DE;stroke-width:1;"/></g><?plantuml-src hPJ1JkGm38RlVGgZlIo2HIpYm7Mc1Oa3YmHzWP2u7MlIE79IO8Huzssc1Q9X5n1gBRLA_ETB_JjAM9FpIbG7bXp6ZKTWYIikmclYJkbrAzmxKx9bWH-_prDa2eEDwcsiyJ4kBBMkGnT13o-KJBKGuOS9iJmkJwiS4LRAy0Ev5Xfb0sQP2tPnMdMnVRASjYg4JmMB68Nk-eYVAgzmADsyb-tguAa0MExwSbAbI1aMWpBDdYrI3BCPzlmuHV5S57lajEqDmfNo7kN8zvrzcwovgg_pJ479r4PfX1lKvB7ciW-HEvHnV8F1imkuPBCP5yBG5NGcJ3iSvj1j7G07SCzae5F-vqY1mBreF8J_mo4gQJ7kJu0FX0Dsk-KBMxQV_LJzQ6Or7fyl5qITjvZEMFYw2K_V_yz_EpHcFtH8ii68-VMAkJGpWVwe3cT2LTGqf8TER6O2bYfYoq8OvdBDjOA6Kkjd8jwYt0-tpbouadcuATgQvciA1Yta8x6RpSGGfTU9-Fsod_y2?></g></svg>