<svg xmlns="http://www.w3.org/2000/svg" contentStyleType="text/css" data-diagram-type="CLASS" height="1020px"
     preserveAspectRatio="none" style="width:1797px;height:1020px;background:#1E1E1E;" version="1.1"
     viewBox="0 0 1797 1020" width="1797px" zoomAndPan="magnify"><defs/><g><rect fill="#1E1E1E" height="1020" style="stroke:none;stroke-width:1;" width="1797" x="0" y="0"/><!--class JpaRepository--><g class="entity" data-entity="JpaRepository" data-source-line="17" data-uid="ent0002" id="entity_JpaRepository"><rect fill="#2D2D2D" height="48" rx="2.5" ry="2.5" style="stroke:#8A8A8A;stroke-width:0.5;" width="151.4873" x="272.5" y="389"/><ellipse cx="287.5" cy="405" fill="#B4A7E5" rx="11" ry="11" style="stroke:#181818;stroke-width:1;"/><path d="M288.4531,401.6406 L288.4531,408.2969 L290.1719,408.2969 Q290.7813,408.2969 291.0469,408.5313 Q291.3125,408.7656 291.3125,409.1563 Q291.3125,409.5313 291.0469,409.7656 Q290.7813,410 290.1719,410 L285.0313,410 Q284.4219,410 284.1563,409.7656 Q283.8906,409.5313 283.8906,409.1406 Q283.8906,408.7656 284.1563,408.5313 Q284.4219,408.2969 285.0313,408.2969 L286.75,408.2969 L286.75,401.6406 L285.0313,401.6406 Q284.4219,401.6406 284.1563,401.4063 Q283.8906,401.1719 283.8906,400.7813 Q283.8906,400.4063 284.1563,400.1719 Q284.4219,399.9375 285.0313,399.9375 L290.1719,399.9375 Q290.7813,399.9375 291.0469,400.1719 Q291.3125,400.4063 291.3125,400.7813 Q291.3125,401.1719 291.0469,401.4063 Q290.7813,401.6406 290.1719,401.6406 L288.4531,401.6406 Z " fill="#000000"/><text fill="#E0E0E0" font-family="sans-serif" font-size="14" font-style="italic" lengthAdjust="spacing" textLength="89.4893" x="301.5" y="410.4995">JpaRepository</text><rect fill="#2D2D2D" height="16.7012" style="stroke:#8A8A8A;stroke-width:1;stroke-dasharray:2,2;" width="27.998" x="398.9893" y="386"/><text fill="#000000" font-family="sans-serif" font-size="12" font-style="italic" lengthAdjust="spacing" textLength="25.998" x="399.9893" y="399.0645">T, ID</text><line style="stroke:#8A8A8A;stroke-width:0.5;" x1="273.5" x2="422.9873" y1="421" y2="421"/><line style="stroke:#8A8A8A;stroke-width:0.5;" x1="273.5" x2="422.9873" y1="429" y2="429"/></g><!--class RecipeRepositoryV3--><g class="entity" data-entity="RecipeRepositoryV3" data-source-line="19" data-uid="ent0003" id="entity_RecipeRepositoryV3"><rect fill="#2D2D2D" height="116.6055" rx="2.5" ry="2.5" style="stroke:#8A8A8A;stroke-width:0.5;" width="466.4941" x="7" y="617"/><ellipse cx="172.187" cy="633" fill="#B4A7E5" rx="11" ry="11" style="stroke:#181818;stroke-width:1;"/><path d="M173.1401,629.6406 L173.1401,636.2969 L174.8589,636.2969 Q175.4683,636.2969 175.7339,636.5313 Q175.9995,636.7656 175.9995,637.1563 Q175.9995,637.5313 175.7339,637.7656 Q175.4683,638 174.8589,638 L169.7183,638 Q169.1089,638 168.8433,637.7656 Q168.5776,637.5313 168.5776,637.1406 Q168.5776,636.7656 168.8433,636.5313 Q169.1089,636.2969 169.7183,636.2969 L171.437,636.2969 L171.437,629.6406 L169.7183,629.6406 Q169.1089,629.6406 168.8433,629.4063 Q168.5776,629.1719 168.5776,628.7813 Q168.5776,628.4063 168.8433,628.1719 Q169.1089,627.9375 169.7183,627.9375 L174.8589,627.9375 Q175.4683,627.9375 175.7339,628.1719 Q175.9995,628.4063 175.9995,628.7813 Q175.9995,629.1719 175.7339,629.4063 Q175.4683,629.6406 174.8589,629.6406 L173.1401,629.6406 Z " fill="#000000"/><text fill="#E0E0E0" font-family="sans-serif" font-size="14" font-style="italic" lengthAdjust="spacing" textLength="127.6201" x="192.687" y="638.4995">RecipeRepositoryV3</text><line style="stroke:#8A8A8A;stroke-width:0.5;" x1="8" x2="472.4941" y1="649" y2="649"/><line style="stroke:#8A8A8A;stroke-width:0.5;" x1="8" x2="472.4941" y1="657" y2="657"/><ellipse cx="18" cy="671.0757" fill="#84BE84" rx="3" ry="3" style="stroke:#038048;stroke-width:1;"/><text fill="#FFFFFF" font-family="sans-serif" font-size="14" lengthAdjust="spacing" textLength="440.4941" x="27" y="675.0752">Page&lt;Recipe&gt; findByUsername(String username, Pageable pageable)</text><ellipse cx="18" cy="688.2271" fill="#84BE84" rx="3" ry="3" style="stroke:#038048;stroke-width:1;"/><text fill="#FFFFFF" font-family="sans-serif" font-size="14" lengthAdjust="spacing" textLength="402.3701" x="27" y="692.2266">Page&lt;Recipe&gt; searchRecipes(String query, Pageable pageable)</text><ellipse cx="18" cy="705.3784" fill="#84BE84" rx="3" ry="3" style="stroke:#038048;stroke-width:1;"/><text fill="#FFFFFF" font-family="sans-serif" font-size="14" lengthAdjust="spacing" textLength="228.0195" x="27" y="709.3779">Optional&lt;String&gt; findOwner(Long id)</text><ellipse cx="18" cy="722.5298" fill="#84BE84" rx="3" ry="3" style="stroke:#038048;stroke-width:1;"/><text fill="#FFFFFF" font-family="sans-serif" font-size="14" lengthAdjust="spacing" textLength="266.9434" x="27" y="726.5293">Optional&lt;byte[]&gt; findRecipeImage(Long id)</text></g><!--class CustomerRepositoryV1--><g class="entity" data-entity="CustomerRepositoryV1" data-source-line="19" data-uid="ent0005" id="entity_CustomerRepositoryV1"><rect fill="#2D2D2D" height="99.4541" rx="2.5" ry="2.5" style="stroke:#8A8A8A;stroke-width:0.5;" width="446.9775" x="508.5" y="626"/><ellipse cx="655.377" cy="642" fill="#B4A7E5" rx="11" ry="11" style="stroke:#181818;stroke-width:1;"/><path d="M656.3301,638.6406 L656.3301,645.2969 L658.0488,645.2969 Q658.6582,645.2969 658.9238,645.5313 Q659.1895,645.7656 659.1895,646.1563 Q659.1895,646.5313 658.9238,646.7656 Q658.6582,647 658.0488,647 L652.9082,647 Q652.2988,647 652.0332,646.7656 Q651.7676,646.5313 651.7676,646.1406 Q651.7676,645.7656 652.0332,645.5313 Q652.2988,645.2969 652.9082,645.2969 L654.627,645.2969 L654.627,638.6406 L652.9082,638.6406 Q652.2988,638.6406 652.0332,638.4063 Q651.7676,638.1719 651.7676,637.7813 Q651.7676,637.4063 652.0332,637.1719 Q652.2988,636.9375 652.9082,636.9375 L658.0488,636.9375 Q658.6582,636.9375 658.9238,637.1719 Q659.1895,637.4063 659.1895,637.7813 Q659.1895,638.1719 658.9238,638.4063 Q658.6582,638.6406 658.0488,638.6406 L656.3301,638.6406 Z " fill="#000000"/><text fill="#E0E0E0" font-family="sans-serif" font-size="14" font-style="italic" lengthAdjust="spacing" textLength="144.7236" x="675.877" y="647.4995">CustomerRepositoryV1</text><line style="stroke:#8A8A8A;stroke-width:0.5;" x1="509.5" x2="954.4775" y1="658" y2="658"/><line style="stroke:#8A8A8A;stroke-width:0.5;" x1="509.5" x2="954.4775" y1="666" y2="666"/><ellipse cx="519.5" cy="680.0757" fill="#84BE84" rx="3" ry="3" style="stroke:#038048;stroke-width:1;"/><text fill="#FFFFFF" font-family="sans-serif" font-size="14" lengthAdjust="spacing" textLength="420.9775" x="528.5" y="684.0752">Optional&lt;Customer&gt; findByUsernameIgnoreCase(String username)</text><ellipse cx="519.5" cy="697.2271" fill="#84BE84" rx="3" ry="3" style="stroke:#038048;stroke-width:1;"/><text fill="#FFFFFF" font-family="sans-serif" font-size="14" lengthAdjust="spacing" textLength="410.1289" x="528.5" y="701.2266">Page&lt;Customer&gt; findCustomer(String query, Pageable pageable)</text><ellipse cx="519.5" cy="714.3784" fill="#84BE84" rx="3" ry="3" style="stroke:#038048;stroke-width:1;"/><text fill="#FFFFFF" font-family="sans-serif" font-size="14" lengthAdjust="spacing" textLength="260.6748" x="528.5" y="718.3779">void deleteByUsername(String username)</text></g><!--class Mapper--><g class="entity" data-entity="Mapper" data-source-line="17" data-uid="ent0007" id="entity_Mapper"><rect fill="#2D2D2D" height="65.1514" rx="2.5" ry="2.5" style="stroke:#8A8A8A;stroke-width:0.5;" width="270.3301" x="1252" y="380.5"/><ellipse cx="1317.4951" cy="396.5" fill="#B4A7E5" rx="11" ry="11" style="stroke:#181818;stroke-width:1;"/><path d="M1318.4482,393.1406 L1318.4482,399.7969 L1320.167,399.7969 Q1320.7764,399.7969 1321.042,400.0313 Q1321.3076,400.2656 1321.3076,400.6563 Q1321.3076,401.0313 1321.042,401.2656 Q1320.7764,401.5 1320.167,401.5 L1315.0264,401.5 Q1314.417,401.5 1314.1514,401.2656 Q1313.8857,401.0313 1313.8857,400.6406 Q1313.8857,400.2656 1314.1514,400.0313 Q1314.417,399.7969 1315.0264,399.7969 L1316.7451,399.7969 L1316.7451,393.1406 L1315.0264,393.1406 Q1314.417,393.1406 1314.1514,392.9063 Q1313.8857,392.6719 1313.8857,392.2813 Q1313.8857,391.9063 1314.1514,391.6719 Q1314.417,391.4375 1315.0264,391.4375 L1320.167,391.4375 Q1320.7764,391.4375 1321.042,391.6719 Q1321.3076,391.9063 1321.3076,392.2813 Q1321.3076,392.6719 1321.042,392.9063 Q1320.7764,393.1406 1320.167,393.1406 L1318.4482,393.1406 Z " fill="#000000"/><text fill="#E0E0E0" font-family="sans-serif" font-size="14" font-style="italic" lengthAdjust="spacing" textLength="47.4688" x="1337.9951" y="401.9995">Mapper</text><rect fill="#2D2D2D" height="16.7012" style="stroke:#8A8A8A;stroke-width:1;stroke-dasharray:2,2;" width="81.3711" x="1443.959" y="377.5"/><text fill="#000000" font-family="sans-serif" font-size="12" font-style="italic" lengthAdjust="spacing" textLength="79.3711" x="1444.959" y="390.5645">Source, Target</text><line style="stroke:#8A8A8A;stroke-width:0.5;" x1="1253" x2="1521.3301" y1="412.5" y2="412.5"/><line style="stroke:#8A8A8A;stroke-width:0.5;" x1="1253" x2="1521.3301" y1="420.5" y2="420.5"/><ellipse cx="1263" cy="434.5757" fill="#84BE84" rx="3" ry="3" style="stroke:#038048;stroke-width:1;"/><text fill="#FFFFFF" font-family="sans-serif" font-size="14" lengthAdjust="spacing" textLength="244.3301" x="1272" y="438.5752">void map(Source source, Target target)</text></g><!--class ToEntityMapper--><g class="entity" data-entity="ToEntityMapper" data-source-line="17" data-uid="ent0008" id="entity_ToEntityMapper"><rect fill="#2D2D2D" height="65.1514" rx="2.5" ry="2.5" style="stroke:#8A8A8A;stroke-width:0.5;" width="229.082" x="1557.5" y="380.5"/><ellipse cx="1581.3022" cy="396.5" fill="#B4A7E5" rx="11" ry="11" style="stroke:#181818;stroke-width:1;"/><path d="M1582.2554,393.1406 L1582.2554,399.7969 L1583.9741,399.7969 Q1584.5835,399.7969 1584.8491,400.0313 Q1585.1147,400.2656 1585.1147,400.6563 Q1585.1147,401.0313 1584.8491,401.2656 Q1584.5835,401.5 1583.9741,401.5 L1578.8335,401.5 Q1578.2241,401.5 1577.9585,401.2656 Q1577.6929,401.0313 1577.6929,400.6406 Q1577.6929,400.2656 1577.9585,400.0313 Q1578.2241,399.7969 1578.8335,399.7969 L1580.5522,399.7969 L1580.5522,393.1406 L1578.8335,393.1406 Q1578.2241,393.1406 1577.9585,392.9063 Q1577.6929,392.6719 1577.6929,392.2813 Q1577.6929,391.9063 1577.9585,391.6719 Q1578.2241,391.4375 1578.8335,391.4375 L1583.9741,391.4375 Q1584.5835,391.4375 1584.8491,391.6719 Q1585.1147,391.9063 1585.1147,392.2813 Q1585.1147,392.6719 1584.8491,392.9063 Q1584.5835,393.1406 1583.9741,393.1406 L1582.2554,393.1406 Z " fill="#000000"/><text fill="#E0E0E0" font-family="sans-serif" font-size="14" font-style="italic" lengthAdjust="spacing" textLength="98.8203" x="1597.2583" y="401.9995">ToEntityMapper</text><rect fill="#2D2D2D" height="16.7012" style="stroke:#8A8A8A;stroke-width:1;stroke-dasharray:2,2;" width="76.7012" x="1712.8809" y="377.5"/><text fill="#000000" font-family="sans-serif" font-size="12" font-style="italic" lengthAdjust="spacing" textLength="74.7012" x="1713.8809" y="390.5645">Source, Entity</text><line style="stroke:#8A8A8A;stroke-width:0.5;" x1="1558.5" x2="1785.582" y1="412.5" y2="412.5"/><line style="stroke:#8A8A8A;stroke-width:0.5;" x1="1558.5" x2="1785.582" y1="420.5" y2="420.5"/><text fill="#FFFFFF" font-family="sans-serif" font-size="14" lengthAdjust="spacing" textLength="217.082" x="1563.5" y="438.5752">Entity mapToEntity(Source source)</text></g><!--class CustomerRecipeRequestBodyToRecipeMapper--><g class="entity" data-entity="CustomerRecipeRequestBodyToRecipeMapper" data-source-line="20" data-uid="ent0009" id="entity_CustomerRecipeRequestBodyToRecipeMapper"><rect fill="#2D2D2D" height="82.3027" rx="2.5" ry="2.5" style="stroke:#8A8A8A;stroke-width:0.5;" width="538.791" x="1182.5" y="634.5"/><ellipse cx="1299.7944" cy="650.5" fill="#B4A7E5" rx="11" ry="11" style="stroke:#181818;stroke-width:1;"/><path d="M1300.7476,647.1406 L1300.7476,653.7969 L1302.4663,653.7969 Q1303.0757,653.7969 1303.3413,654.0313 Q1303.6069,654.2656 1303.6069,654.6563 Q1303.6069,655.0313 1303.3413,655.2656 Q1303.0757,655.5 1302.4663,655.5 L1297.3257,655.5 Q1296.7163,655.5 1296.4507,655.2656 Q1296.1851,655.0313 1296.1851,654.6406 Q1296.1851,654.2656 1296.4507,654.0313 Q1296.7163,653.7969 1297.3257,653.7969 L1299.0444,653.7969 L1299.0444,647.1406 L1297.3257,647.1406 Q1296.7163,647.1406 1296.4507,646.9063 Q1296.1851,646.6719 1296.1851,646.2813 Q1296.1851,645.9063 1296.4507,645.6719 Q1296.7163,645.4375 1297.3257,645.4375 L1302.4663,645.4375 Q1303.0757,645.4375 1303.3413,645.6719 Q1303.6069,645.9063 1303.6069,646.2813 Q1303.6069,646.6719 1303.3413,646.9063 Q1303.0757,647.1406 1302.4663,647.1406 L1300.7476,647.1406 Z " fill="#000000"/><text fill="#E0E0E0" font-family="sans-serif" font-size="14" font-style="italic" lengthAdjust="spacing" textLength="295.7021" x="1320.2944" y="655.9995">CustomerRecipeRequestBodyToRecipeMapper</text><line style="stroke:#8A8A8A;stroke-width:0.5;" x1="1183.5" x2="1720.291" y1="666.5" y2="666.5"/><line style="stroke:#8A8A8A;stroke-width:0.5;" x1="1183.5" x2="1720.291" y1="674.5" y2="674.5"/><ellipse cx="1193.5" cy="688.5757" fill="#84BE84" rx="3" ry="3" style="stroke:#038048;stroke-width:1;"/><text fill="#FFFFFF" font-family="sans-serif" font-size="14" lengthAdjust="spacing" textLength="391.4053" x="1202.5" y="692.5752">void map(CustomerRecipeRequestBody source, Recipe target)</text><ellipse cx="1193.5" cy="705.7271" fill="#84BE84" rx="3" ry="3" style="stroke:#038048;stroke-width:1;"/><text fill="#FFFFFF" font-family="sans-serif" font-size="14" lengthAdjust="spacing" textLength="512.791" x="1202.5" y="709.7266">Recipe mapToEntity(CustomerRecipeRequestBody customerRecipeRequestBody)</text></g><!--class DefaultCustomerRecipeRequestBodyToRecipeMapper--><g class="entity" data-entity="DefaultCustomerRecipeRequestBodyToRecipeMapper" data-source-line="25" data-uid="ent0012" id="entity_DefaultCustomerRecipeRequestBodyToRecipeMapper"><rect fill="#2D2D2D" height="219.5137" rx="2.5" ry="2.5" style="stroke:#8A8A8A;stroke-width:0.5;" width="538.7979" x="1182.5" y="794"/><ellipse cx="1277.6187" cy="810" fill="#ADD1B2" rx="11" ry="11" style="stroke:#181818;stroke-width:1;"/><path d="M1280.3843,805.875 Q1280.5405,805.6563 1280.728,805.5469 Q1280.9155,805.4375 1281.1343,805.4375 Q1281.5093,805.4375 1281.7437,805.7031 Q1281.978,805.9531 1281.978,806.5625 L1281.978,808.0156 Q1281.978,808.625 1281.7437,808.8906 Q1281.5093,809.1563 1281.1343,809.1563 Q1280.7905,809.1563 1280.5874,808.9531 Q1280.3843,808.7656 1280.2749,808.25 Q1280.228,807.8906 1280.0405,807.7031 Q1279.7124,807.3281 1279.103,807.1094 Q1278.4937,806.8906 1277.8687,806.8906 Q1277.103,806.8906 1276.4624,807.2188 Q1275.8374,807.5469 1275.3374,808.2969 Q1274.853,809.0469 1274.853,810.0781 L1274.853,811.1719 Q1274.853,812.4063 1275.7437,813.2344 Q1276.6343,814.0469 1278.228,814.0469 Q1279.1655,814.0469 1279.8218,813.7969 Q1280.2124,813.6406 1280.6343,813.2031 Q1280.8999,812.9375 1281.0405,812.8594 Q1281.1968,812.7813 1281.3999,812.7813 Q1281.728,812.7813 1281.978,813.0469 Q1282.2437,813.2969 1282.2437,813.6406 Q1282.2437,813.9844 1281.8999,814.3906 Q1281.3999,814.9688 1280.603,815.2969 Q1279.5249,815.75 1278.228,815.75 Q1276.7124,815.75 1275.5093,815.125 Q1274.5249,814.625 1273.8374,813.5625 Q1273.1499,812.4844 1273.1499,811.2031 L1273.1499,810.0469 Q1273.1499,808.7188 1273.7593,807.5781 Q1274.3843,806.4219 1275.478,805.8125 Q1276.5718,805.1875 1277.8062,805.1875 Q1278.5405,805.1875 1279.1812,805.3594 Q1279.8374,805.5156 1280.3843,805.875 Z " fill="#000000"/><text fill="#E0E0E0" font-family="sans-serif" font-size="14" lengthAdjust="spacing" textLength="340.0605" x="1298.1187" y="815.4995">DefaultCustomerRecipeRequestBodyToRecipeMapper</text><line style="stroke:#8A8A8A;stroke-width:0.5;" x1="1183.5" x2="1720.2979" y1="826" y2="826"/><line style="stroke:#8A8A8A;stroke-width:0.5;" x1="1183.5" x2="1720.2979" y1="834" y2="834"/><ellipse cx="1193.5" cy="848.0757" fill="#84BE84" rx="3" ry="3" style="stroke:#038048;stroke-width:1;"/><text fill="#FFFFFF" font-family="sans-serif" font-size="14" lengthAdjust="spacing" textLength="406.1914" x="1202.5" y="852.0752">Recipe mapToEntity(CustomerRecipeRequestBody requestBody)</text><ellipse cx="1193.5" cy="865.2271" fill="#84BE84" rx="3" ry="3" style="stroke:#038048;stroke-width:1;"/><text fill="#FFFFFF" font-family="sans-serif" font-size="14" lengthAdjust="spacing" textLength="430.3223" x="1202.5" y="869.2266">void map(CustomerRecipeRequestBody requestBody, Recipe recipe)</text><rect fill="#F24D5C" height="6" style="stroke:#C82930;stroke-width:1;" width="6" x="1190.5" y="879.3784"/><text fill="#FFFFFF" font-family="sans-serif" font-size="14" lengthAdjust="spacing" textLength="467.667" x="1202.5" y="886.3779">void mapName(CustomerRecipeRequestBody requestBody, Recipe recipe)</text><rect fill="#F24D5C" height="6" style="stroke:#C82930;stroke-width:1;" width="6" x="1190.5" y="896.5298"/><text fill="#FFFFFF" font-family="sans-serif" font-size="14" lengthAdjust="spacing" textLength="500.3496" x="1202.5" y="903.5293">void mapDescription(CustomerRecipeRequestBody requestBody, Recipe recipe)</text><rect fill="#F24D5C" height="6" style="stroke:#C82930;stroke-width:1;" width="6" x="1190.5" y="913.6812"/><text fill="#FFFFFF" font-family="sans-serif" font-size="14" lengthAdjust="spacing" textLength="483.2188" x="1202.5" y="920.6807">void mapDifficulty(CustomerRecipeRequestBody requestBody, Recipe recipe)</text><rect fill="#F24D5C" height="6" style="stroke:#C82930;stroke-width:1;" width="6" x="1190.5" y="930.8325"/><text fill="#FFFFFF" font-family="sans-serif" font-size="14" lengthAdjust="spacing" textLength="498.0254" x="1202.5" y="937.832">void mapCategories(CustomerRecipeRequestBody requestBody, Recipe recipe)</text><rect fill="#F24D5C" height="6" style="stroke:#C82930;stroke-width:1;" width="6" x="1190.5" y="947.9839"/><text fill="#FFFFFF" font-family="sans-serif" font-size="14" lengthAdjust="spacing" textLength="499.5908" x="1202.5" y="954.9834">void mapIngredients(CustomerRecipeRequestBody requestBody, Recipe recipe)</text><rect fill="#F24D5C" height="6" style="stroke:#C82930;stroke-width:1;" width="6" x="1190.5" y="965.1353"/><text fill="#FFFFFF" font-family="sans-serif" font-size="14" lengthAdjust="spacing" textLength="484.791" x="1202.5" y="972.1348">void mapServings(CustomerRecipeRequestBody requestBody, Recipe recipe)</text><rect fill="#F24D5C" height="6" style="stroke:#C82930;stroke-width:1;" width="6" x="1190.5" y="982.2866"/><text fill="#FFFFFF" font-family="sans-serif" font-size="14" lengthAdjust="spacing" textLength="512.7979" x="1202.5" y="989.2861">void mapCookingTime(CustomerRecipeRequestBody requestBody, Recipe recipe)</text><rect fill="#F24D5C" height="6" style="stroke:#C82930;stroke-width:1;" width="6" x="1190.5" y="999.438"/><text fill="#FFFFFF" font-family="sans-serif" font-size="14" lengthAdjust="spacing" textLength="501.9082" x="1202.5" y="1006.4375">void mapInstructions(CustomerRecipeRequestBody requestBody, Recipe recipe)</text></g><!--class RecipeServiceV3--><g class="entity" data-entity="RecipeServiceV3" data-source-line="21" data-uid="ent0014" id="entity_RecipeServiceV3"><rect fill="#2D2D2D" height="202.3623" rx="2.5" ry="2.5" style="stroke:#8A8A8A;stroke-width:0.5;" width="586.3145" x="503" y="7"/><ellipse cx="738.2144" cy="23" fill="#B4A7E5" rx="11" ry="11" style="stroke:#181818;stroke-width:1;"/><path d="M739.1675,19.6406 L739.1675,26.2969 L740.8862,26.2969 Q741.4956,26.2969 741.7612,26.5313 Q742.0269,26.7656 742.0269,27.1563 Q742.0269,27.5313 741.7612,27.7656 Q741.4956,28 740.8862,28 L735.7456,28 Q735.1362,28 734.8706,27.7656 Q734.605,27.5313 734.605,27.1406 Q734.605,26.7656 734.8706,26.5313 Q735.1362,26.2969 735.7456,26.2969 L737.4644,26.2969 L737.4644,19.6406 L735.7456,19.6406 Q735.1362,19.6406 734.8706,19.4063 Q734.605,19.1719 734.605,18.7813 Q734.605,18.4063 734.8706,18.1719 Q735.1362,17.9375 735.7456,17.9375 L740.8862,17.9375 Q741.4956,17.9375 741.7612,18.1719 Q742.0269,18.4063 742.0269,18.7813 Q742.0269,19.1719 741.7612,19.4063 Q741.4956,19.6406 740.8862,19.6406 L739.1675,19.6406 Z " fill="#000000"/><text fill="#E0E0E0" font-family="sans-serif" font-size="14" font-style="italic" lengthAdjust="spacing" textLength="107.3857" x="758.7144" y="28.4995">RecipeServiceV3</text><line style="stroke:#8A8A8A;stroke-width:0.5;" x1="504" x2="1088.3145" y1="39" y2="39"/><line style="stroke:#8A8A8A;stroke-width:0.5;" x1="504" x2="1088.3145" y1="47" y2="47"/><ellipse cx="514" cy="61.0757" fill="#84BE84" rx="3" ry="3" style="stroke:#038048;stroke-width:1;"/><text fill="#FFFFFF" font-family="sans-serif" font-size="14" lengthAdjust="spacing" textLength="508.1563" x="523" y="65.0752">Long createRecipe(String username, CustomerRecipeRequestBody requestBody)</text><ellipse cx="514" cy="78.2271" fill="#84BE84" rx="3" ry="3" style="stroke:#038048;stroke-width:1;"/><text fill="#FFFFFF" font-family="sans-serif" font-size="14" lengthAdjust="spacing" textLength="165.7646" x="523" y="82.2266">Recipe getRecipe(Long id)</text><ellipse cx="514" cy="95.3784" fill="#84BE84" rx="3" ry="3" style="stroke:#038048;stroke-width:1;"/><text fill="#FFFFFF" font-family="sans-serif" font-size="14" lengthAdjust="spacing" textLength="195.3369" x="523" y="99.3779">byte[] getRecipeImage(Long id)</text><ellipse cx="514" cy="112.5298" fill="#84BE84" rx="3" ry="3" style="stroke:#038048;stroke-width:1;"/><text fill="#FFFFFF" font-family="sans-serif" font-size="14" lengthAdjust="spacing" textLength="467.7285" x="523" y="116.5293">Page&lt;Recipe&gt; getCustomerRecipes(String username, Pageable pageable)</text><ellipse cx="514" cy="129.6812" fill="#84BE84" rx="3" ry="3" style="stroke:#038048;stroke-width:1;"/><text fill="#FFFFFF" font-family="sans-serif" font-size="14" lengthAdjust="spacing" textLength="402.3701" x="523" y="133.6807">Page&lt;Recipe&gt; searchRecipes(String query, Pageable pageable)</text><ellipse cx="514" cy="146.8325" fill="#84BE84" rx="3" ry="3" style="stroke:#038048;stroke-width:1;"/><text fill="#FFFFFF" font-family="sans-serif" font-size="14" lengthAdjust="spacing" textLength="560.3145" x="523" y="150.832">void updateRecipe(String username, Long id, CustomerRecipeRequestBody requestBody)</text><ellipse cx="514" cy="163.9839" fill="#84BE84" rx="3" ry="3" style="stroke:#038048;stroke-width:1;"/><text fill="#FFFFFF" font-family="sans-serif" font-size="14" lengthAdjust="spacing" textLength="403.0947" x="523" y="167.9834">void updateImage(String username, Long id, MultipartFile image)</text><ellipse cx="514" cy="181.1353" fill="#84BE84" rx="3" ry="3" style="stroke:#038048;stroke-width:1;"/><text fill="#FFFFFF" font-family="sans-serif" font-size="14" lengthAdjust="spacing" textLength="322.1641" x="523" y="185.1348">void restoreDefaultImage(String username, Long id)</text><ellipse cx="514" cy="198.2866" fill="#84BE84" rx="3" ry="3" style="stroke:#038048;stroke-width:1;"/><text fill="#FFFFFF" font-family="sans-serif" font-size="14" lengthAdjust="spacing" textLength="277.0469" x="523" y="202.2861">void deleteRecipe(String username, Long id)</text></g><!--class DefaultRecipeServiceV3--><g class="entity" data-entity="DefaultRecipeServiceV3" data-source-line="33" data-uid="ent0015" id="entity_DefaultRecipeServiceV3"><rect fill="#2D2D2D" height="288.1191" rx="2.5" ry="2.5" style="stroke:#8A8A8A;stroke-width:0.5;" width="586.3145" x="503" y="269"/><ellipse cx="716.0352" cy="285" fill="#ADD1B2" rx="11" ry="11" style="stroke:#181818;stroke-width:1;"/><path d="M718.8008,280.875 Q718.957,280.6563 719.1445,280.5469 Q719.332,280.4375 719.5508,280.4375 Q719.9258,280.4375 720.1602,280.7031 Q720.3945,280.9531 720.3945,281.5625 L720.3945,283.0156 Q720.3945,283.625 720.1602,283.8906 Q719.9258,284.1563 719.5508,284.1563 Q719.207,284.1563 719.0039,283.9531 Q718.8008,283.7656 718.6914,283.25 Q718.6445,282.8906 718.457,282.7031 Q718.1289,282.3281 717.5195,282.1094 Q716.9102,281.8906 716.2852,281.8906 Q715.5195,281.8906 714.8789,282.2188 Q714.2539,282.5469 713.7539,283.2969 Q713.2695,284.0469 713.2695,285.0781 L713.2695,286.1719 Q713.2695,287.4063 714.1602,288.2344 Q715.0508,289.0469 716.6445,289.0469 Q717.582,289.0469 718.2383,288.7969 Q718.6289,288.6406 719.0508,288.2031 Q719.3164,287.9375 719.457,287.8594 Q719.6133,287.7813 719.8164,287.7813 Q720.1445,287.7813 720.3945,288.0469 Q720.6602,288.2969 720.6602,288.6406 Q720.6602,288.9844 720.3164,289.3906 Q719.8164,289.9688 719.0195,290.2969 Q717.9414,290.75 716.6445,290.75 Q715.1289,290.75 713.9258,290.125 Q712.9414,289.625 712.2539,288.5625 Q711.5664,287.4844 711.5664,286.2031 L711.5664,285.0469 Q711.5664,283.7188 712.1758,282.5781 Q712.8008,281.4219 713.8945,280.8125 Q714.9883,280.1875 716.2227,280.1875 Q716.957,280.1875 717.5977,280.3594 Q718.2539,280.5156 718.8008,280.875 Z " fill="#000000"/><text fill="#E0E0E0" font-family="sans-serif" font-size="14" lengthAdjust="spacing" textLength="151.7441" x="736.5352" y="290.4995">DefaultRecipeServiceV3</text><line style="stroke:#8A8A8A;stroke-width:0.5;" x1="504" x2="1088.3145" y1="301" y2="301"/><rect fill="none" height="6" style="stroke:#C82930;stroke-width:1;" width="6" x="511" y="312.0757"/><text fill="#FFFFFF" font-family="sans-serif" font-size="14" lengthAdjust="spacing" textLength="236.5576" x="523" y="319.0752">RecipeRepositoryV3 recipeRepository</text><rect fill="none" height="6" style="stroke:#C82930;stroke-width:1;" width="6" x="511" y="329.2271"/><text fill="#FFFFFF" font-family="sans-serif" font-size="14" lengthAdjust="spacing" textLength="273.1025" x="523" y="336.2266">CustomerRepositoryV1 customerRepository</text><rect fill="none" height="6" style="stroke:#C82930;stroke-width:1;" width="6" x="511" y="346.3784"/><text fill="#FFFFFF" font-family="sans-serif" font-size="14" lengthAdjust="spacing" textLength="532.2666" x="523" y="353.3779">CustomerRecipeRequestBodyToRecipeMapper customerRecipeRequestBodyMapper</text><rect fill="none" height="6" style="stroke:#C82930;stroke-width:1;" width="6" x="511" y="363.5298"/><text fill="#FFFFFF" font-family="sans-serif" font-size="14" lengthAdjust="spacing" textLength="248.2266" x="523" y="370.5293">ClassPathResource classPathResource</text><line style="stroke:#8A8A8A;stroke-width:0.5;" x1="504" x2="1088.3145" y1="377.6055" y2="377.6055"/><ellipse cx="514" cy="391.6812" fill="#84BE84" rx="3" ry="3" style="stroke:#038048;stroke-width:1;"/><text fill="#FFFFFF" font-family="sans-serif" font-size="14" lengthAdjust="spacing" textLength="508.1563" x="523" y="395.6807">Long createRecipe(String username, CustomerRecipeRequestBody requestBody)</text><ellipse cx="514" cy="408.8325" fill="#84BE84" rx="3" ry="3" style="stroke:#038048;stroke-width:1;"/><text fill="#FFFFFF" font-family="sans-serif" font-size="14" lengthAdjust="spacing" textLength="165.7646" x="523" y="412.832">Recipe getRecipe(Long id)</text><ellipse cx="514" cy="425.9839" fill="#84BE84" rx="3" ry="3" style="stroke:#038048;stroke-width:1;"/><text fill="#FFFFFF" font-family="sans-serif" font-size="14" lengthAdjust="spacing" textLength="195.3369" x="523" y="429.9834">byte[] getRecipeImage(Long id)</text><ellipse cx="514" cy="443.1353" fill="#84BE84" rx="3" ry="3" style="stroke:#038048;stroke-width:1;"/><text fill="#FFFFFF" font-family="sans-serif" font-size="14" lengthAdjust="spacing" textLength="467.7285" x="523" y="447.1348">Page&lt;Recipe&gt; getCustomerRecipes(String username, Pageable pageable)</text><ellipse cx="514" cy="460.2866" fill="#84BE84" rx="3" ry="3" style="stroke:#038048;stroke-width:1;"/><text fill="#FFFFFF" font-family="sans-serif" font-size="14" lengthAdjust="spacing" textLength="402.3701" x="523" y="464.2861">Page&lt;Recipe&gt; searchRecipes(String query, Pageable pageable)</text><ellipse cx="514" cy="477.438" fill="#84BE84" rx="3" ry="3" style="stroke:#038048;stroke-width:1;"/><text fill="#FFFFFF" font-family="sans-serif" font-size="14" lengthAdjust="spacing" textLength="560.3145" x="523" y="481.4375">void updateRecipe(String username, Long id, CustomerRecipeRequestBody requestBody)</text><ellipse cx="514" cy="494.5894" fill="#84BE84" rx="3" ry="3" style="stroke:#038048;stroke-width:1;"/><text fill="#FFFFFF" font-family="sans-serif" font-size="14" lengthAdjust="spacing" textLength="403.0947" x="523" y="498.5889">void updateImage(String username, Long id, MultipartFile image)</text><ellipse cx="514" cy="511.7407" fill="#84BE84" rx="3" ry="3" style="stroke:#038048;stroke-width:1;"/><text fill="#FFFFFF" font-family="sans-serif" font-size="14" lengthAdjust="spacing" textLength="322.1641" x="523" y="515.7402">void restoreDefaultImage(String username, Long id)</text><ellipse cx="514" cy="528.8921" fill="#84BE84" rx="3" ry="3" style="stroke:#038048;stroke-width:1;"/><text fill="#FFFFFF" font-family="sans-serif" font-size="14" lengthAdjust="spacing" textLength="277.0469" x="523" y="532.8916">void deleteRecipe(String username, Long id)</text><rect fill="#F24D5C" height="6" style="stroke:#C82930;stroke-width:1;" width="6" x="511" y="543.0435"/><text fill="#FFFFFF" font-family="sans-serif" font-size="14" lengthAdjust="spacing" textLength="340.0537" x="523" y="550.043">Recipe findCustomerRecipe(String username, Long id)</text></g><!--class ClassPathResource--><g class="entity" data-entity="ClassPathResource" data-source-line="54" data-uid="ent0020" id="entity_ClassPathResource"><rect fill="#2D2D2D" height="48" rx="2.5" ry="2.5" style="stroke:#8A8A8A;stroke-width:0.5;" width="155.7236" x="991" y="651.5"/><ellipse cx="1006" cy="667.5" fill="#ADD1B2" rx="11" ry="11" style="stroke:#181818;stroke-width:1;"/><path d="M1008.7656,663.375 Q1008.9219,663.1563 1009.1094,663.0469 Q1009.2969,662.9375 1009.5156,662.9375 Q1009.8906,662.9375 1010.125,663.2031 Q1010.3594,663.4531 1010.3594,664.0625 L1010.3594,665.5156 Q1010.3594,666.125 1010.125,666.3906 Q1009.8906,666.6563 1009.5156,666.6563 Q1009.1719,666.6563 1008.9688,666.4531 Q1008.7656,666.2656 1008.6563,665.75 Q1008.6094,665.3906 1008.4219,665.2031 Q1008.0938,664.8281 1007.4844,664.6094 Q1006.875,664.3906 1006.25,664.3906 Q1005.4844,664.3906 1004.8438,664.7188 Q1004.2188,665.0469 1003.7188,665.7969 Q1003.2344,666.5469 1003.2344,667.5781 L1003.2344,668.6719 Q1003.2344,669.9063 1004.125,670.7344 Q1005.0156,671.5469 1006.6094,671.5469 Q1007.5469,671.5469 1008.2031,671.2969 Q1008.5938,671.1406 1009.0156,670.7031 Q1009.2813,670.4375 1009.4219,670.3594 Q1009.5781,670.2813 1009.7813,670.2813 Q1010.1094,670.2813 1010.3594,670.5469 Q1010.625,670.7969 1010.625,671.1406 Q1010.625,671.4844 1010.2813,671.8906 Q1009.7813,672.4688 1008.9844,672.7969 Q1007.9063,673.25 1006.6094,673.25 Q1005.0938,673.25 1003.8906,672.625 Q1002.9063,672.125 1002.2188,671.0625 Q1001.5313,669.9844 1001.5313,668.7031 L1001.5313,667.5469 Q1001.5313,666.2188 1002.1406,665.0781 Q1002.7656,663.9219 1003.8594,663.3125 Q1004.9531,662.6875 1006.1875,662.6875 Q1006.9219,662.6875 1007.5625,662.8594 Q1008.2188,663.0156 1008.7656,663.375 Z " fill="#000000"/><text fill="#E0E0E0" font-family="sans-serif" font-size="14" lengthAdjust="spacing" textLength="123.7236" x="1020" y="672.9995">ClassPathResource</text><line style="stroke:#8A8A8A;stroke-width:0.5;" x1="992" x2="1145.7236" y1="683.5" y2="683.5"/><line style="stroke:#8A8A8A;stroke-width:0.5;" x1="992" x2="1145.7236" y1="691.5" y2="691.5"/></g><!--reverse link JpaRepository to RecipeRepositoryV3--><g class="link" data-entity-1="JpaRepository" data-entity-2="RecipeRepositoryV3" data-source-line="20" data-uid="lnk4" id="link_JpaRepository_RecipeRepositoryV3"><path d="M348,455.22 C348,495.78 348,560.5 348,616.98" fill="none" id="JpaRepository-backto-RecipeRepositoryV3" style="stroke:#B0C4DE;stroke-width:1;"/><polygon fill="none" points="348,437.22,342,455.22,354,455.22,348,437.22" style="stroke:#B0C4DE;stroke-width:1;"/></g><!--reverse link JpaRepository to CustomerRepositoryV1--><g class="link" data-entity-1="JpaRepository" data-entity-2="CustomerRepositoryV1" data-source-line="20" data-uid="lnk6" id="link_JpaRepository_CustomerRepositoryV1"><path d="M441.74,413 C474.72,413 488,413 488,413 C488,413 488,676 488,676 C488,676 495.71,676 508.38,676" fill="none" id="JpaRepository-backto-CustomerRepositoryV1" style="stroke:#B0C4DE;stroke-width:1;"/><polygon fill="none" points="423.74,413,441.74,419,441.74,407,423.74,413" style="stroke:#B0C4DE;stroke-width:1;"/></g><!--reverse link Mapper to CustomerRecipeRequestBodyToRecipeMapper--><g class="link" data-entity-1="Mapper" data-entity-2="CustomerRecipeRequestBodyToRecipeMapper" data-source-line="21" data-uid="lnk10" id="link_Mapper_CustomerRecipeRequestBodyToRecipeMapper"><path d="M1387,463.72 C1387,511.41 1387,582 1387,634.15" fill="none" id="Mapper-backto-CustomerRecipeRequestBodyToRecipeMapper" style="stroke:#B0C4DE;stroke-width:1;"/><polygon fill="none" points="1387,445.72,1381,463.72,1393,463.72,1387,445.72" style="stroke:#B0C4DE;stroke-width:1;"/></g><!--reverse link ToEntityMapper to CustomerRecipeRequestBodyToRecipeMapper--><g class="link" data-entity-1="ToEntityMapper" data-entity-2="CustomerRecipeRequestBodyToRecipeMapper" data-source-line="21" data-uid="lnk11" id="link_ToEntityMapper_CustomerRecipeRequestBodyToRecipeMapper"><path d="M1639.5,463.72 C1639.5,511.41 1639.5,582 1639.5,634.15" fill="none" id="ToEntityMapper-backto-CustomerRecipeRequestBodyToRecipeMapper" style="stroke:#B0C4DE;stroke-width:1;"/><polygon fill="none" points="1639.5,445.72,1633.5,463.72,1645.5,463.72,1639.5,445.72" style="stroke:#B0C4DE;stroke-width:1;"/></g><!--reverse link CustomerRecipeRequestBodyToRecipeMapper to DefaultCustomerRecipeRequestBodyToRecipeMapper--><g class="link" data-entity-1="CustomerRecipeRequestBodyToRecipeMapper" data-entity-2="DefaultCustomerRecipeRequestBodyToRecipeMapper" data-source-line="26" data-uid="lnk13" id="link_CustomerRecipeRequestBodyToRecipeMapper_DefaultCustomerRecipeRequestBodyToRecipeMapper"><path d="M1452,734.62 C1452,756.33 1452,766.13 1452,793.62" fill="none" id="CustomerRecipeRequestBodyToRecipeMapper-backto-DefaultCustomerRecipeRequestBodyToRecipeMapper" style="stroke:#B0C4DE;stroke-width:1;stroke-dasharray:7,7;"/><polygon fill="none" points="1452,716.62,1446,734.62,1458,734.62,1452,716.62" style="stroke:#B0C4DE;stroke-width:1;"/></g><!--reverse link RecipeServiceV3 to DefaultRecipeServiceV3--><g class="link" data-entity-1="RecipeServiceV3" data-entity-2="DefaultRecipeServiceV3" data-source-line="34" data-uid="lnk16" id="link_RecipeServiceV3_DefaultRecipeServiceV3"><path d="M796,227.14 C796,246.3 796,248.68 796,268.87" fill="none" id="RecipeServiceV3-backto-DefaultRecipeServiceV3" style="stroke:#B0C4DE;stroke-width:1;stroke-dasharray:7,7;"/><polygon fill="none" points="796,209.14,790,227.14,802,227.14,796,209.14" style="stroke:#B0C4DE;stroke-width:1;"/></g><!--link DefaultRecipeServiceV3 to RecipeRepositoryV3--><g class="link" data-entity-1="DefaultRecipeServiceV3" data-entity-2="RecipeRepositoryV3" data-source-line="51" data-uid="lnk17" id="link_DefaultRecipeServiceV3_RecipeRepositoryV3"><path codeLine="51" d="M502.97,497 C470.15,497 448.25,497 448.25,497 C448.25,497 448.25,558.56 448.25,610.56" fill="none" id="DefaultRecipeServiceV3-to-RecipeRepositoryV3" style="stroke:#B0C4DE;stroke-width:1;"/><polygon fill="#B0C4DE" points="448.25,616.56,452.25,607.56,448.25,611.56,444.25,607.56,448.25,616.56" style="stroke:#B0C4DE;stroke-width:1;"/></g><!--link DefaultRecipeServiceV3 to CustomerRepositoryV1--><g class="link" data-entity-1="DefaultRecipeServiceV3" data-entity-2="CustomerRepositoryV1" data-source-line="52" data-uid="lnk18" id="link_DefaultRecipeServiceV3_CustomerRepositoryV1"><path codeLine="52" d="M732,557.3 C732,581.97 732,600.01 732,619.9" fill="none" id="DefaultRecipeServiceV3-to-CustomerRepositoryV1" style="stroke:#B0C4DE;stroke-width:1;"/><polygon fill="#B0C4DE" points="732,625.9,736,616.9,732,620.9,728,616.9,732,625.9" style="stroke:#B0C4DE;stroke-width:1;"/></g><!--link DefaultRecipeServiceV3 to CustomerRecipeRequestBodyToRecipeMapper--><g class="link" data-entity-1="DefaultRecipeServiceV3" data-entity-2="CustomerRecipeRequestBodyToRecipeMapper" data-source-line="53" data-uid="lnk19" id="link_DefaultRecipeServiceV3_CustomerRecipeRequestBodyToRecipeMapper"><path codeLine="53" d="M1056.33,557.03 C1056.33,603.38 1056.33,643 1056.33,643 C1056.33,643 1106.41,643 1176.34,643" fill="none" id="DefaultRecipeServiceV3-to-CustomerRecipeRequestBodyToRecipeMapper" style="stroke:#B0C4DE;stroke-width:1;"/><polygon fill="#B0C4DE" points="1182.34,643,1173.34,639,1177.34,643,1173.34,647,1182.34,643" style="stroke:#B0C4DE;stroke-width:1;"/></g><!--link DefaultRecipeServiceV3 to ClassPathResource--><g class="link" data-entity-1="DefaultRecipeServiceV3" data-entity-2="ClassPathResource" data-source-line="54" data-uid="lnk21" id="link_DefaultRecipeServiceV3_ClassPathResource"><path codeLine="54" d="M1023.67,557.3 C1023.67,593.76 1023.67,622.86 1023.67,645.2" fill="none" id="DefaultRecipeServiceV3-to-ClassPathResource" style="stroke:#B0C4DE;stroke-width:1;"/><polygon fill="#B0C4DE" points="1023.67,651.2,1027.67,642.2,1023.67,646.2,1019.67,642.2,1023.67,651.2" style="stroke:#B0C4DE;stroke-width:1;"/></g><!--SRC=[xPLDQnin48Rl-ojKUcbeN9AcXnvAm1yn56e8ISWbz21BuxM8TgMEfAHBwN-lPArhxQUJUommoyoZLpFQUMtpA4fDaHP4YX9ifO4ej5kLcV-9DMMFEIfNyhcI2idxywkm4eB3XZffx-2tdKgHbmMKbZ3_1PXGKqJrN4lCpkPV5gc4sLAkdaMPamsL1fBCKfMsthNSVP8SazIOey3KMXHhP-4ekGBVEkzYROxyoGYPjU_byoAia5780UlersbOFfh8Nfs5bVtDidUYPD9n83V0X8ORqCe8gx2wl_YaNI4FmDmPgmh013aVHABMBmV6pXIlxbGChQZMW75N9iBxsL2sF_iMy4amkB_OTKV8H_93-VV14AY5Y7ouzJVfOyu0bhI0q-4Z2HwUJsgz294SR2stEq3mVNvTMNZuUSX_BsZUWQvzx5lCNmQqMO7fbXWsqBK4ekk7NYK35Dcs9U8xm6f4uKa9Jfpc8nTKL__Acqg4uoKCwwwyyuIVJRiKla8Hw8OAUcc5i8WU7LThREGWuMXV9s68eoVg4zh390ej8VmYc84vc_JClg-w6Qh9FXCGrWbsw54_908jBkRtQg7BQshza1ZbqFk6jIFPct7UZFDIuwIpJpR2_uqq6Xstt83P9fFB7ZUDqNsEUXa_wgbHYRPj_W40]--></g></svg>