<?plantuml 1.2026.2?>
<svg xmlns="http://www.w3.org/2000/svg" contentStyleType="text/css" data-diagram-type="CLASS" height="748px"
     preserveAspectRatio="none" style="width:839px;height:748px;background:#1E1E1E;" version="1.1" viewBox="0 0 839 748"
     width="839px" zoomAndPan="magnify"><defs/><g><rect fill="#1E1E1E" height="748" style="stroke:none;stroke-width:1;" width="839" x="0" y="0"/><!--class Mapper--><g class="entity" data-qualified-name="Mapper" data-source-line="17" id="ent0002"><rect fill="#2D2D2D" height="65.1514" rx="2.5" ry="2.5" style="stroke:#8A8A8A;stroke-width:0.5;" width="270.3301" x="46.5" y="10"/><ellipse cx="111.9951" cy="26" fill="#B4A7E5" rx="11" ry="11" style="stroke:#181818;stroke-width:1;"/><path d="M112.9482,22.6406 L112.9482,29.2969 L114.667,29.2969 Q115.2764,29.2969 115.542,29.5313 Q115.8076,29.7656 115.8076,30.1563 Q115.8076,30.5313 115.542,30.7656 Q115.2764,31 114.667,31 L109.5264,31 Q108.917,31 108.6514,30.7656 Q108.3857,30.5313 108.3857,30.1406 Q108.3857,29.7656 108.6514,29.5313 Q108.917,29.2969 109.5264,29.2969 L111.2451,29.2969 L111.2451,22.6406 L109.5264,22.6406 Q108.917,22.6406 108.6514,22.4063 Q108.3857,22.1719 108.3857,21.7813 Q108.3857,21.4063 108.6514,21.1719 Q108.917,20.9375 109.5264,20.9375 L114.667,20.9375 Q115.2764,20.9375 115.542,21.1719 Q115.8076,21.4063 115.8076,21.7813 Q115.8076,22.1719 115.542,22.4063 Q115.2764,22.6406 114.667,22.6406 L112.9482,22.6406 Z " fill="#000000"/><text fill="#E0E0E0" font-family="sans-serif" font-size="14" font-style="italic" lengthAdjust="spacing" textLength="47.4688" x="132.4951" y="31.4995">Mapper</text><rect fill="#2D2D2D" height="16.7012" style="stroke:#8A8A8A;stroke-width:1;stroke-dasharray:2,2;" width="81.3711" x="238.459" y="7"/><text fill="#000000" font-family="sans-serif" font-size="12" font-style="italic" lengthAdjust="spacing" textLength="79.3711" x="239.459" y="20.0645">Source, Target</text><line style="stroke:#8A8A8A;stroke-width:0.5;" x1="47.5" x2="315.8301" y1="42" y2="42"/><line style="stroke:#8A8A8A;stroke-width:0.5;" x1="47.5" x2="315.8301" y1="50" y2="50"/><g data-visibility-modifier="PUBLIC_METHOD"><ellipse cx="57.5" cy="64.0757" fill="#84BE84" rx="3" ry="3" style="stroke:#038048;stroke-width:1;"/></g><text fill="#FFFFFF" font-family="sans-serif" font-size="14" lengthAdjust="spacing" textLength="244.3301" x="66.5" y="68.0752">void map(Source source, Target target)</text></g><!--class ToDTOMapper--><g class="entity" data-qualified-name="ToDTOMapper" data-source-line="17" id="ent0003"><rect fill="#2D2D2D" height="65.1514" rx="2.5" ry="2.5" style="stroke:#8A8A8A;stroke-width:0.5;" width="232.1582" x="351.5" y="10"/><ellipse cx="381.2511" cy="26" fill="#B4A7E5" rx="11" ry="11" style="stroke:#181818;stroke-width:1;"/><path d="M382.2042,22.6406 L382.2042,29.2969 L383.923,29.2969 Q384.5324,29.2969 384.798,29.5313 Q385.0636,29.7656 385.0636,30.1563 Q385.0636,30.5313 384.798,30.7656 Q384.5324,31 383.923,31 L378.7824,31 Q378.173,31 377.9074,30.7656 Q377.6417,30.5313 377.6417,30.1406 Q377.6417,29.7656 377.9074,29.5313 Q378.173,29.2969 378.7824,29.2969 L380.5011,29.2969 L380.5011,22.6406 L378.7824,22.6406 Q378.173,22.6406 377.9074,22.4063 Q377.6417,22.1719 377.6417,21.7813 Q377.6417,21.4063 377.9074,21.1719 Q378.173,20.9375 378.7824,20.9375 L383.923,20.9375 Q384.5324,20.9375 384.798,21.1719 Q385.0636,21.4063 385.0636,21.7813 Q385.0636,22.1719 384.798,22.4063 Q384.5324,22.6406 383.923,22.6406 L382.2042,22.6406 Z " fill="#000000"/><text fill="#E0E0E0" font-family="sans-serif" font-size="14" font-style="italic" lengthAdjust="spacing" textLength="93.3584" x="398.5292" y="31.4995">ToDTOMapper</text><rect fill="#2D2D2D" height="16.7012" style="stroke:#8A8A8A;stroke-width:1;stroke-dasharray:2,2;" width="72.0195" x="514.6387" y="7"/><text fill="#000000" font-family="sans-serif" font-size="12" font-style="italic" lengthAdjust="spacing" textLength="70.0195" x="515.6387" y="20.0645">Source, DTO</text><line style="stroke:#8A8A8A;stroke-width:0.5;" x1="352.5" x2="582.6582" y1="42" y2="42"/><line style="stroke:#8A8A8A;stroke-width:0.5;" x1="352.5" x2="582.6582" y1="50" y2="50"/><g data-visibility-modifier="PUBLIC_METHOD"><ellipse cx="362.5" cy="64.0757" fill="#84BE84" rx="3" ry="3" style="stroke:#038048;stroke-width:1;"/></g><text fill="#FFFFFF" font-family="sans-serif" font-size="14" lengthAdjust="spacing" textLength="206.1582" x="371.5" y="68.0752">DTO mapToDTO(Source source)</text></g><!--class JpaRepository--><g class="entity" data-qualified-name="JpaRepository" data-source-line="17" id="ent0004"><rect fill="#2D2D2D" height="48" rx="2.5" ry="2.5" style="stroke:#8A8A8A;stroke-width:0.5;" width="151.4873" x="677" y="397"/><ellipse cx="692" cy="413" fill="#B4A7E5" rx="11" ry="11" style="stroke:#181818;stroke-width:1;"/><path d="M692.9531,409.6406 L692.9531,416.2969 L694.6719,416.2969 Q695.2813,416.2969 695.5469,416.5313 Q695.8125,416.7656 695.8125,417.1563 Q695.8125,417.5313 695.5469,417.7656 Q695.2813,418 694.6719,418 L689.5313,418 Q688.9219,418 688.6563,417.7656 Q688.3906,417.5313 688.3906,417.1406 Q688.3906,416.7656 688.6563,416.5313 Q688.9219,416.2969 689.5313,416.2969 L691.25,416.2969 L691.25,409.6406 L689.5313,409.6406 Q688.9219,409.6406 688.6563,409.4063 Q688.3906,409.1719 688.3906,408.7813 Q688.3906,408.4063 688.6563,408.1719 Q688.9219,407.9375 689.5313,407.9375 L694.6719,407.9375 Q695.2813,407.9375 695.5469,408.1719 Q695.8125,408.4063 695.8125,408.7813 Q695.8125,409.1719 695.5469,409.4063 Q695.2813,409.6406 694.6719,409.6406 L692.9531,409.6406 Z " fill="#000000"/><text fill="#E0E0E0" font-family="sans-serif" font-size="14" font-style="italic" lengthAdjust="spacing" textLength="89.4893" x="706" y="418.4995">JpaRepository</text><rect fill="#2D2D2D" height="16.7012" style="stroke:#8A8A8A;stroke-width:1;stroke-dasharray:2,2;" width="27.998" x="803.4893" y="394"/><text fill="#000000" font-family="sans-serif" font-size="12" font-style="italic" lengthAdjust="spacing" textLength="25.998" x="804.4893" y="407.0645">T, ID</text><line style="stroke:#8A8A8A;stroke-width:0.5;" x1="678" x2="827.4873" y1="429" y2="429"/><line style="stroke:#8A8A8A;stroke-width:0.5;" x1="678" x2="827.4873" y1="437" y2="437"/></g><!--class RecipeRepositoryV3--><g class="entity" data-qualified-name="RecipeRepositoryV3" data-source-line="19" id="ent0005"><rect fill="#2D2D2D" height="116.6055" rx="2.5" ry="2.5" style="stroke:#8A8A8A;stroke-width:0.5;" width="466.4941" x="305.5" y="625"/><ellipse cx="470.687" cy="641" fill="#B4A7E5" rx="11" ry="11" style="stroke:#181818;stroke-width:1;"/><path d="M471.6401,637.6406 L471.6401,644.2969 L473.3589,644.2969 Q473.9683,644.2969 474.2339,644.5313 Q474.4995,644.7656 474.4995,645.1563 Q474.4995,645.5313 474.2339,645.7656 Q473.9683,646 473.3589,646 L468.2183,646 Q467.6089,646 467.3433,645.7656 Q467.0776,645.5313 467.0776,645.1406 Q467.0776,644.7656 467.3433,644.5313 Q467.6089,644.2969 468.2183,644.2969 L469.937,644.2969 L469.937,637.6406 L468.2183,637.6406 Q467.6089,637.6406 467.3433,637.4063 Q467.0776,637.1719 467.0776,636.7813 Q467.0776,636.4063 467.3433,636.1719 Q467.6089,635.9375 468.2183,635.9375 L473.3589,635.9375 Q473.9683,635.9375 474.2339,636.1719 Q474.4995,636.4063 474.4995,636.7813 Q474.4995,637.1719 474.2339,637.4063 Q473.9683,637.6406 473.3589,637.6406 L471.6401,637.6406 Z " fill="#000000"/><text fill="#E0E0E0" font-family="sans-serif" font-size="14" font-style="italic" lengthAdjust="spacing" textLength="127.6201" x="491.187" y="646.4995">RecipeRepositoryV3</text><line style="stroke:#8A8A8A;stroke-width:0.5;" x1="306.5" x2="770.9941" y1="657" y2="657"/><line style="stroke:#8A8A8A;stroke-width:0.5;" x1="306.5" x2="770.9941" y1="665" y2="665"/><g data-visibility-modifier="PUBLIC_METHOD"><ellipse cx="316.5" cy="679.0757" fill="#84BE84" rx="3" ry="3" style="stroke:#038048;stroke-width:1;"/></g><text fill="#FFFFFF" font-family="sans-serif" font-size="14" lengthAdjust="spacing" textLength="440.4941" x="325.5" y="683.0752">Page&lt;Recipe&gt; findByUsername(String username, Pageable pageable)</text><g data-visibility-modifier="PUBLIC_METHOD"><ellipse cx="316.5" cy="696.2271" fill="#84BE84" rx="3" ry="3" style="stroke:#038048;stroke-width:1;"/></g><text fill="#FFFFFF" font-family="sans-serif" font-size="14" lengthAdjust="spacing" textLength="402.3701" x="325.5" y="700.2266">Page&lt;Recipe&gt; searchRecipes(String query, Pageable pageable)</text><g data-visibility-modifier="PUBLIC_METHOD"><ellipse cx="316.5" cy="713.3784" fill="#84BE84" rx="3" ry="3" style="stroke:#038048;stroke-width:1;"/></g><text fill="#FFFFFF" font-family="sans-serif" font-size="14" lengthAdjust="spacing" textLength="228.0195" x="325.5" y="717.3779">Optional&lt;String&gt; findOwner(Long id)</text><g data-visibility-modifier="PUBLIC_METHOD"><ellipse cx="316.5" cy="730.5298" fill="#84BE84" rx="3" ry="3" style="stroke:#038048;stroke-width:1;"/></g><text fill="#FFFFFF" font-family="sans-serif" font-size="14" lengthAdjust="spacing" textLength="266.9434" x="325.5" y="734.5293">Optional&lt;byte[]&gt; findRecipeImage(Long id)</text></g><!--class RecipeToSearchRecipeResponseBodyMapper--><g class="entity" data-qualified-name="RecipeToSearchRecipeResponseBodyMapper" data-source-line="21" id="ent0007"><rect fill="#2D2D2D" height="82.3027" rx="2.5" ry="2.5" style="stroke:#8A8A8A;stroke-width:0.5;" width="411.9775" x="118.5" y="135"/><ellipse cx="175.1016" cy="151" fill="#B4A7E5" rx="11" ry="11" style="stroke:#181818;stroke-width:1;"/><path d="M176.0547,147.6406 L176.0547,154.2969 L177.7734,154.2969 Q178.3828,154.2969 178.6484,154.5313 Q178.9141,154.7656 178.9141,155.1563 Q178.9141,155.5313 178.6484,155.7656 Q178.3828,156 177.7734,156 L172.6328,156 Q172.0234,156 171.7578,155.7656 Q171.4922,155.5313 171.4922,155.1406 Q171.4922,154.7656 171.7578,154.5313 Q172.0234,154.2969 172.6328,154.2969 L174.3516,154.2969 L174.3516,147.6406 L172.6328,147.6406 Q172.0234,147.6406 171.7578,147.4063 Q171.4922,147.1719 171.4922,146.7813 Q171.4922,146.4063 171.7578,146.1719 Q172.0234,145.9375 172.6328,145.9375 L177.7734,145.9375 Q178.3828,145.9375 178.6484,146.1719 Q178.9141,146.4063 178.9141,146.7813 Q178.9141,147.1719 178.6484,147.4063 Q178.3828,147.6406 177.7734,147.6406 L176.0547,147.6406 Z " fill="#000000"/><text fill="#E0E0E0" font-family="sans-serif" font-size="14" font-style="italic" lengthAdjust="spacing" textLength="290.2744" x="195.6016" y="156.4995">RecipeToSearchRecipeResponseBodyMapper</text><line style="stroke:#8A8A8A;stroke-width:0.5;" x1="119.5" x2="529.4775" y1="167" y2="167"/><line style="stroke:#8A8A8A;stroke-width:0.5;" x1="119.5" x2="529.4775" y1="175" y2="175"/><g data-visibility-modifier="PUBLIC_METHOD"><ellipse cx="129.5" cy="189.0757" fill="#84BE84" rx="3" ry="3" style="stroke:#038048;stroke-width:1;"/></g><text fill="#FFFFFF" font-family="sans-serif" font-size="14" lengthAdjust="spacing" textLength="385.9775" x="138.5" y="193.0752">void map(Recipe source, SearchRecipeResponseBody target)</text><g data-visibility-modifier="PUBLIC_METHOD"><ellipse cx="129.5" cy="206.2271" fill="#84BE84" rx="3" ry="3" style="stroke:#038048;stroke-width:1;"/></g><text fill="#FFFFFF" font-family="sans-serif" font-size="14" lengthAdjust="spacing" textLength="354.8262" x="138.5" y="210.2266">SearchRecipeResponseBody mapToDTO(Recipe recipe)</text></g><!--class DefaultRecipeToSearchRecipeResponseBodyMapper--><g class="entity" data-qualified-name="DefaultRecipeToSearchRecipeResponseBodyMapper" data-source-line="26" id="ent0010"><rect fill="#2D2D2D" height="288.1191" rx="2.5" ry="2.5" style="stroke:#8A8A8A;stroke-width:0.5;" width="635.3145" x="7" y="277"/><ellipse cx="153.0908" cy="293" fill="#ADD1B2" rx="11" ry="11" style="stroke:#181818;stroke-width:1;"/><path d="M155.8564,288.875 Q156.0127,288.6563 156.2002,288.5469 Q156.3877,288.4375 156.6064,288.4375 Q156.9814,288.4375 157.2158,288.7031 Q157.4502,288.9531 157.4502,289.5625 L157.4502,291.0156 Q157.4502,291.625 157.2158,291.8906 Q156.9814,292.1563 156.6064,292.1563 Q156.2627,292.1563 156.0596,291.9531 Q155.8564,291.7656 155.7471,291.25 Q155.7002,290.8906 155.5127,290.7031 Q155.1846,290.3281 154.5752,290.1094 Q153.9658,289.8906 153.3408,289.8906 Q152.5752,289.8906 151.9346,290.2188 Q151.3096,290.5469 150.8096,291.2969 Q150.3252,292.0469 150.3252,293.0781 L150.3252,294.1719 Q150.3252,295.4063 151.2158,296.2344 Q152.1064,297.0469 153.7002,297.0469 Q154.6377,297.0469 155.2939,296.7969 Q155.6846,296.6406 156.1064,296.2031 Q156.3721,295.9375 156.5127,295.8594 Q156.6689,295.7813 156.8721,295.7813 Q157.2002,295.7813 157.4502,296.0469 Q157.7158,296.2969 157.7158,296.6406 Q157.7158,296.9844 157.3721,297.3906 Q156.8721,297.9688 156.0752,298.2969 Q154.9971,298.75 153.7002,298.75 Q152.1846,298.75 150.9814,298.125 Q149.9971,297.625 149.3096,296.5625 Q148.6221,295.4844 148.6221,294.2031 L148.6221,293.0469 Q148.6221,291.7188 149.2314,290.5781 Q149.8564,289.4219 150.9502,288.8125 Q152.0439,288.1875 153.2783,288.1875 Q154.0127,288.1875 154.6533,288.3594 Q155.3096,288.5156 155.8564,288.875 Z " fill="#000000"/><text fill="#E0E0E0" font-family="sans-serif" font-size="14" lengthAdjust="spacing" textLength="334.6328" x="173.5908" y="298.4995">DefaultRecipeToSearchRecipeResponseBodyMapper</text><line style="stroke:#8A8A8A;stroke-width:0.5;" x1="8" x2="641.3145" y1="309" y2="309"/><g data-visibility-modifier="PRIVATE_FIELD"><rect fill="none" height="6" style="stroke:#C82930;stroke-width:1;" width="6" x="15" y="320.0757"/></g><text fill="#FFFFFF" font-family="sans-serif" font-size="14" lengthAdjust="spacing" textLength="192.9785" x="27" y="327.0752">RecipeRepositoryV3 repository</text><line style="stroke:#8A8A8A;stroke-width:0.5;" x1="8" x2="641.3145" y1="334.1514" y2="334.1514"/><g data-visibility-modifier="PUBLIC_METHOD"><ellipse cx="18" cy="348.2271" fill="#84BE84" rx="3" ry="3" style="stroke:#038048;stroke-width:1;"/></g><text fill="#FFFFFF" font-family="sans-serif" font-size="14" lengthAdjust="spacing" textLength="354.8262" x="27" y="352.2266">SearchRecipeResponseBody mapToDTO(Recipe recipe)</text><g data-visibility-modifier="PUBLIC_METHOD"><ellipse cx="18" cy="365.3784" fill="#84BE84" rx="3" ry="3" style="stroke:#038048;stroke-width:1;"/></g><text fill="#FFFFFF" font-family="sans-serif" font-size="14" lengthAdjust="spacing" textLength="526.8389" x="27" y="369.3779">void map(Recipe recipe, SearchRecipeResponseBody searchRecipeResponseBody)</text><g data-visibility-modifier="PRIVATE_METHOD"><rect fill="#F24D5C" height="6" style="stroke:#C82930;stroke-width:1;" width="6" x="15" y="379.5298"/></g><text fill="#FFFFFF" font-family="sans-serif" font-size="14" lengthAdjust="spacing" textLength="568.0732" x="27" y="386.5293">void mapOwner(Recipe recipe, SearchRecipeResponseBody searchRecipeResponseBody)</text><g data-visibility-modifier="PRIVATE_METHOD"><rect fill="#F24D5C" height="6" style="stroke:#C82930;stroke-width:1;" width="6" x="15" y="396.6812"/></g><text fill="#FFFFFF" font-family="sans-serif" font-size="14" lengthAdjust="spacing" textLength="538.5146" x="27" y="403.6807">void mapId(Recipe recipe, SearchRecipeResponseBody searchRecipeResponseBody)</text><g data-visibility-modifier="PRIVATE_METHOD"><rect fill="#F24D5C" height="6" style="stroke:#C82930;stroke-width:1;" width="6" x="15" y="413.8325"/></g><text fill="#FFFFFF" font-family="sans-serif" font-size="14" lengthAdjust="spacing" textLength="564.1836" x="27" y="420.832">void mapName(Recipe recipe, SearchRecipeResponseBody searchRecipeResponseBody)</text><g data-visibility-modifier="PRIVATE_METHOD"><rect fill="#F24D5C" height="6" style="stroke:#C82930;stroke-width:1;" width="6" x="15" y="430.9839"/></g><text fill="#FFFFFF" font-family="sans-serif" font-size="14" lengthAdjust="spacing" textLength="596.8662" x="27" y="437.9834">void mapDescription(Recipe recipe, SearchRecipeResponseBody searchRecipeResponseBody)</text><g data-visibility-modifier="PRIVATE_METHOD"><rect fill="#F24D5C" height="6" style="stroke:#C82930;stroke-width:1;" width="6" x="15" y="448.1353"/></g><text fill="#FFFFFF" font-family="sans-serif" font-size="14" lengthAdjust="spacing" textLength="579.7354" x="27" y="455.1348">void mapDifficulty(Recipe recipe, SearchRecipeResponseBody searchRecipeResponseBody)</text><g data-visibility-modifier="PRIVATE_METHOD"><rect fill="#F24D5C" height="6" style="stroke:#C82930;stroke-width:1;" width="6" x="15" y="465.2866"/></g><text fill="#FFFFFF" font-family="sans-serif" font-size="14" lengthAdjust="spacing" textLength="594.542" x="27" y="472.2861">void mapCategories(Recipe recipe, SearchRecipeResponseBody searchRecipeResponseBody)</text><g data-visibility-modifier="PRIVATE_METHOD"><rect fill="#F24D5C" height="6" style="stroke:#C82930;stroke-width:1;" width="6" x="15" y="482.438"/></g><text fill="#FFFFFF" font-family="sans-serif" font-size="14" lengthAdjust="spacing" textLength="596.1074" x="27" y="489.4375">void mapIngredients(Recipe recipe, SearchRecipeResponseBody searchRecipeResponseBody)</text><g data-visibility-modifier="PRIVATE_METHOD"><rect fill="#F24D5C" height="6" style="stroke:#C82930;stroke-width:1;" width="6" x="15" y="499.5894"/></g><text fill="#FFFFFF" font-family="sans-serif" font-size="14" lengthAdjust="spacing" textLength="498.873" x="27" y="506.5889">IngredientResponseBody mapToIngredientResponseBody(Ingredient ingredient)</text><g data-visibility-modifier="PRIVATE_METHOD"><rect fill="#F24D5C" height="6" style="stroke:#C82930;stroke-width:1;" width="6" x="15" y="516.7407"/></g><text fill="#FFFFFF" font-family="sans-serif" font-size="14" lengthAdjust="spacing" textLength="581.3076" x="27" y="523.7402">void mapServings(Recipe recipe, SearchRecipeResponseBody searchRecipeResponseBody)</text><g data-visibility-modifier="PRIVATE_METHOD"><rect fill="#F24D5C" height="6" style="stroke:#C82930;stroke-width:1;" width="6" x="15" y="533.8921"/></g><text fill="#FFFFFF" font-family="sans-serif" font-size="14" lengthAdjust="spacing" textLength="609.3145" x="27" y="540.8916">void mapCookingTime(Recipe recipe, SearchRecipeResponseBody searchRecipeResponseBody)</text><g data-visibility-modifier="PRIVATE_METHOD"><rect fill="#F24D5C" height="6" style="stroke:#C82930;stroke-width:1;" width="6" x="15" y="551.0435"/></g><text fill="#FFFFFF" font-family="sans-serif" font-size="14" lengthAdjust="spacing" textLength="598.4248" x="27" y="558.043">void mapInstructions(Recipe recipe, SearchRecipeResponseBody searchRecipeResponseBody)</text></g><!--reverse link JpaRepository to RecipeRepositoryV3--><g class="link" data-entity-1="ent0004" data-entity-2="ent0005" data-link-type="extension" data-source-line="20" id="lnk6"><path d="M724.25,463.22 C724.25,503.78 724.25,568.5 724.25,624.98" fill="none" id="JpaRepository-backto-RecipeRepositoryV3" style="stroke:#B0C4DE;stroke-width:1;"/><polygon fill="none" points="724.25,445.22,718.25,463.22,730.25,463.22,724.25,445.22" style="stroke:#B0C4DE;stroke-width:1;"/></g><!--reverse link Mapper to RecipeToSearchRecipeResponseBodyMapper--><g class="link" data-entity-1="ent0002" data-entity-2="ent0007" data-link-type="extension" data-source-line="22" id="lnk8"><path d="M217.5,93.16 C217.5,111.07 217.5,115.45 217.5,134.58" fill="none" id="Mapper-backto-RecipeToSearchRecipeResponseBodyMapper" style="stroke:#B0C4DE;stroke-width:1;"/><polygon fill="none" points="217.5,75.16,211.5,93.16,223.5,93.16,217.5,75.16" style="stroke:#B0C4DE;stroke-width:1;"/></g><!--reverse link ToDTOMapper to RecipeToSearchRecipeResponseBodyMapper--><g class="link" data-entity-1="ent0003" data-entity-2="ent0007" data-link-type="extension" data-source-line="22" id="lnk9"><path d="M441,93.16 C441,111.07 441,115.45 441,134.58" fill="none" id="ToDTOMapper-backto-RecipeToSearchRecipeResponseBodyMapper" style="stroke:#B0C4DE;stroke-width:1;"/><polygon fill="none" points="441,75.16,435,93.16,447,93.16,441,75.16" style="stroke:#B0C4DE;stroke-width:1;"/></g><!--reverse link RecipeToSearchRecipeResponseBodyMapper to DefaultRecipeToSearchRecipeResponseBodyMapper--><g class="link" data-entity-1="ent0007" data-entity-2="ent0010" data-link-type="extension" data-source-line="27" id="lnk11"><path d="M324.5,235.01 C324.5,252.1 324.5,255.07 324.5,276.99" fill="none" id="RecipeToSearchRecipeResponseBodyMapper-backto-DefaultRecipeToSearchRecipeResponseBodyMapper" style="stroke:#B0C4DE;stroke-width:1;stroke-dasharray:7,7;"/><polygon fill="none" points="324.5,217.01,318.5,235.01,330.5,235.01,324.5,217.01" style="stroke:#B0C4DE;stroke-width:1;"/></g><!--link DefaultRecipeToSearchRecipeResponseBodyMapper to RecipeRepositoryV3--><g class="link" data-entity-1="ent0010" data-entity-2="ent0005" data-link-type="dependency" data-source-line="44" id="lnk12"><path codeLine="44" d="M473.75,565.3 C473.75,586.39 473.75,601.02 473.75,619" fill="none" id="DefaultRecipeToSearchRecipeResponseBodyMapper-to-RecipeRepositoryV3" style="stroke:#B0C4DE;stroke-width:1;"/><polygon fill="#B0C4DE" points="473.75,625,477.75,616,473.75,620,469.75,616,473.75,625" style="stroke:#B0C4DE;stroke-width:1;"/></g><?plantuml-src jLHDRzim3BtxLsZOfS6QeViux3GWYLkWXwv0Q-okIhH3r1O5IcuM3FllasAxCL9dxGhL1FoXz_HCFX5qzsYiPDc86WtuhGL1xDUKkKVWJghxYgarUaKriNZ_wJp6YA6Xb6tj2_Zb5pLMfW7ZXGetu15hmKoRNc9vjlgQZoNSMchQeAb4AMi78-I2ZEztNUok4QPgwTopX8NtZ7UjXsUPLn1ArqzfXppnEnDYUUZBvpn6H8WrSB_wRH4Zh8vapyzYP7-ox1qQLRSQn9Mq5lYZRPjwlrXGNbnF8ZUWqC8DM7BeYRS_ltI43AFhfLG3fQ1RaApMmmPdoJXOajvskY8S6XZj-WHEn__SbId41_50g4KZxKcd8XorhE1K79CMNd85VjPlFqeBahlV3RgyUyoYCPtFUTTPBom56rj3R3xtqkAx0kSJTePSXe_ijMLCczUX_p3F7G5cVRA3uFN602TNlTJ99N_81fABvk0Ke_L89hqsbYMgq7ZRvD8hwQ4YHd3fJyvK31fZ_oVJtci-xVXfx6I_BF3nzJ3NM-27WAOtOKKKPdLLu1kqtALndbiLMov5uc7A_Tzycy-_Jqoglm00?></g></svg>