<?plantuml 1.2026.2?>
<svg xmlns="http://www.w3.org/2000/svg" contentStyleType="text/css" data-diagram-type="CLASS" height="918px"
     preserveAspectRatio="none" style="width:1617px;height:918px;background:#1E1E1E;" version="1.1"
     viewBox="0 0 1617 918" width="1617.3px" zoomAndPan="magnify"><defs/><g><rect fill="#1E1E1E" height="918" style="stroke:none;stroke-width:0.9;" width="1617.3" x="0" y="0"/><!--class JpaRepository--><g class="entity" data-qualified-name="JpaRepository" data-source-line="17" id="ent0002"><rect fill="#2D2D2D" height="43.2" rx="2.25" ry="2.25" style="stroke:#8A8A8A;stroke-width:0.45;" width="136.3386" x="245.25" y="350.1"/><ellipse cx="258.75" cy="364.5" fill="#B4A7E5" rx="9.9" ry="9.9" style="stroke:#181818;stroke-width:0.9;"/><path d="M259.6078,361.4766 L259.6078,367.4672 L261.1547,367.4672 Q261.7031,367.4672 261.9422,367.6781 Q262.1813,367.8891 262.1813,368.2406 Q262.1813,368.5781 261.9422,368.7891 Q261.7031,369 261.1547,369 L256.5281,369 Q255.9797,369 255.7406,368.7891 Q255.5016,368.5781 255.5016,368.2266 Q255.5016,367.8891 255.7406,367.6781 Q255.9797,367.4672 256.5281,367.4672 L258.075,367.4672 L258.075,361.4766 L256.5281,361.4766 Q255.9797,361.4766 255.7406,361.2656 Q255.5016,361.0547 255.5016,360.7031 Q255.5016,360.3656 255.7406,360.1547 Q255.9797,359.9438 256.5281,359.9438 L261.1547,359.9438 Q261.7031,359.9438 261.9422,360.1547 Q262.1813,360.3656 262.1813,360.7031 Q262.1813,361.0547 261.9422,361.2656 Q261.7031,361.4766 261.1547,361.4766 L259.6078,361.4766 Z " fill="#000000"/><text fill="#E0E0E0" font-family="sans-serif" font-size="12.6" font-style="italic" lengthAdjust="spacing" textLength="80.5403" x="271.35" y="369.4496">JpaRepository</text><rect fill="#2D2D2D" height="15.0311" style="stroke:#8A8A8A;stroke-width:0.9;stroke-dasharray:1.8,1.8;" width="25.1982" x="359.0903" y="347.4"/><text fill="#000000" font-family="sans-serif" font-size="10.8" font-style="italic" lengthAdjust="spacing" textLength="23.3982" x="359.9903" y="359.158">T, ID</text><line style="stroke:#8A8A8A;stroke-width:0.45;" x1="246.15" x2="380.6886" y1="378.9" y2="378.9"/><line style="stroke:#8A8A8A;stroke-width:0.45;" x1="246.15" x2="380.6886" y1="386.1" y2="386.1"/></g><!--class RecipeRepositoryV3--><g class="entity" data-qualified-name="RecipeRepositoryV3" data-source-line="19" id="ent0003"><rect fill="#2D2D2D" height="104.9449" rx="2.25" ry="2.25" style="stroke:#8A8A8A;stroke-width:0.45;" width="419.8447" x="6.3" y="555.3"/><ellipse cx="154.9683" cy="569.7" fill="#B4A7E5" rx="9.9" ry="9.9" style="stroke:#181818;stroke-width:0.9;"/><path d="M155.8261,566.6766 L155.8261,572.6672 L157.373,572.6672 Q157.9214,572.6672 158.1605,572.8781 Q158.3996,573.0891 158.3996,573.4406 Q158.3996,573.7781 158.1605,573.9891 Q157.9214,574.2 157.373,574.2 L152.7464,574.2 Q152.198,574.2 151.9589,573.9891 Q151.7199,573.7781 151.7199,573.4266 Q151.7199,573.0891 151.9589,572.8781 Q152.198,572.6672 152.7464,572.6672 L154.2933,572.6672 L154.2933,566.6766 L152.7464,566.6766 Q152.198,566.6766 151.9589,566.4656 Q151.7199,566.2547 151.7199,565.9031 Q151.7199,565.5656 151.9589,565.3547 Q152.198,565.1438 152.7464,565.1438 L157.373,565.1438 Q157.9214,565.1438 158.1605,565.3547 Q158.3996,565.5656 158.3996,565.9031 Q158.3996,566.2547 158.1605,566.4656 Q157.9214,566.6766 157.373,566.6766 L155.8261,566.6766 Z " fill="#000000"/><text fill="#E0E0E0" font-family="sans-serif" font-size="12.6" font-style="italic" lengthAdjust="spacing" textLength="114.8581" x="173.4183" y="574.6496">RecipeRepositoryV3</text><line style="stroke:#8A8A8A;stroke-width:0.45;" x1="7.2" x2="425.2447" y1="584.1" y2="584.1"/><line style="stroke:#8A8A8A;stroke-width:0.45;" x1="7.2" x2="425.2447" y1="591.3" y2="591.3"/><g data-visibility-modifier="PUBLIC_METHOD"><ellipse cx="16.2" cy="603.9681" fill="#84BE84" rx="2.7" ry="2.7" style="stroke:#038048;stroke-width:0.9;"/></g><text fill="#FFFFFF" font-family="sans-serif" font-size="12.6" lengthAdjust="spacing" textLength="396.4447" x="24.3" y="607.5677">Page&lt;Recipe&gt; findByUsername(String username, Pageable pageable)</text><g data-visibility-modifier="PUBLIC_METHOD"><ellipse cx="16.2" cy="619.4043" fill="#84BE84" rx="2.7" ry="2.7" style="stroke:#038048;stroke-width:0.9;"/></g><text fill="#FFFFFF" font-family="sans-serif" font-size="12.6" lengthAdjust="spacing" textLength="362.1331" x="24.3" y="623.0039">Page&lt;Recipe&gt; searchRecipes(String query, Pageable pageable)</text><g data-visibility-modifier="PUBLIC_METHOD"><ellipse cx="16.2" cy="634.8406" fill="#84BE84" rx="2.7" ry="2.7" style="stroke:#038048;stroke-width:0.9;"/></g><text fill="#FFFFFF" font-family="sans-serif" font-size="12.6" lengthAdjust="spacing" textLength="205.2176" x="24.3" y="638.4401">Optional&lt;String&gt; findOwner(Long id)</text><g data-visibility-modifier="PUBLIC_METHOD"><ellipse cx="16.2" cy="650.2768" fill="#84BE84" rx="2.7" ry="2.7" style="stroke:#038048;stroke-width:0.9;"/></g><text fill="#FFFFFF" font-family="sans-serif" font-size="12.6" lengthAdjust="spacing" textLength="240.249" x="24.3" y="653.8764">Optional&lt;byte[]&gt; findRecipeImage(Long id)</text></g><!--class CustomerRepositoryV1--><g class="entity" data-qualified-name="CustomerRepositoryV1" data-source-line="19" id="ent0005"><rect fill="#2D2D2D" height="89.5087" rx="2.25" ry="2.25" style="stroke:#8A8A8A;stroke-width:0.45;" width="402.2798" x="457.65" y="563.4"/><ellipse cx="589.8393" cy="577.8" fill="#B4A7E5" rx="9.9" ry="9.9" style="stroke:#181818;stroke-width:0.9;"/><path d="M590.6971,574.7766 L590.6971,580.7672 L592.2439,580.7672 Q592.7924,580.7672 593.0314,580.9781 Q593.2705,581.1891 593.2705,581.5406 Q593.2705,581.8781 593.0314,582.0891 Q592.7924,582.3 592.2439,582.3 L587.6174,582.3 Q587.0689,582.3 586.8299,582.0891 Q586.5908,581.8781 586.5908,581.5266 Q586.5908,581.1891 586.8299,580.9781 Q587.0689,580.7672 587.6174,580.7672 L589.1643,580.7672 L589.1643,574.7766 L587.6174,574.7766 Q587.0689,574.7766 586.8299,574.5656 Q586.5908,574.3547 586.5908,574.0031 Q586.5908,573.6656 586.8299,573.4547 Q587.0689,573.2438 587.6174,573.2438 L592.2439,573.2438 Q592.7924,573.2438 593.0314,573.4547 Q593.2705,573.6656 593.2705,574.0031 Q593.2705,574.3547 593.0314,574.5656 Q592.7924,574.7766 592.2439,574.7766 L590.6971,574.7766 Z " fill="#000000"/><text fill="#E0E0E0" font-family="sans-serif" font-size="12.6" font-style="italic" lengthAdjust="spacing" textLength="130.2513" x="608.2893" y="582.7496">CustomerRepositoryV1</text><line style="stroke:#8A8A8A;stroke-width:0.45;" x1="458.55" x2="859.0298" y1="592.2" y2="592.2"/><line style="stroke:#8A8A8A;stroke-width:0.45;" x1="458.55" x2="859.0298" y1="599.4" y2="599.4"/><g data-visibility-modifier="PUBLIC_METHOD"><ellipse cx="467.55" cy="612.0681" fill="#84BE84" rx="2.7" ry="2.7" style="stroke:#038048;stroke-width:0.9;"/></g><text fill="#FFFFFF" font-family="sans-serif" font-size="12.6" lengthAdjust="spacing" textLength="378.8798" x="475.65" y="615.6677">Optional&lt;Customer&gt; findByUsernameIgnoreCase(String username)</text><g data-visibility-modifier="PUBLIC_METHOD"><ellipse cx="467.55" cy="627.5043" fill="#84BE84" rx="2.7" ry="2.7" style="stroke:#038048;stroke-width:0.9;"/></g><text fill="#FFFFFF" font-family="sans-serif" font-size="12.6" lengthAdjust="spacing" textLength="369.116" x="475.65" y="631.1039">Page&lt;Customer&gt; findCustomer(String query, Pageable pageable)</text><g data-visibility-modifier="PUBLIC_METHOD"><ellipse cx="467.55" cy="642.9406" fill="#84BE84" rx="2.7" ry="2.7" style="stroke:#038048;stroke-width:0.9;"/></g><text fill="#FFFFFF" font-family="sans-serif" font-size="12.6" lengthAdjust="spacing" textLength="234.6073" x="475.65" y="646.5401">void deleteByUsername(String username)</text></g><!--class Mapper--><g class="entity" data-qualified-name="Mapper" data-source-line="17" id="ent0007"><rect fill="#2D2D2D" height="58.6362" rx="2.25" ry="2.25" style="stroke:#8A8A8A;stroke-width:0.45;" width="243.2971" x="1126.8" y="342.45"/><ellipse cx="1185.7456" cy="356.85" fill="#B4A7E5" rx="9.9" ry="9.9" style="stroke:#181818;stroke-width:0.9;"/><path d="M1186.6034,353.8266 L1186.6034,359.8172 L1188.1503,359.8172 Q1188.6987,359.8172 1188.9378,360.0281 Q1189.1769,360.2391 1189.1769,360.5906 Q1189.1769,360.9281 1188.9378,361.1391 Q1188.6987,361.35 1188.1503,361.35 L1183.5237,361.35 Q1182.9753,361.35 1182.7362,361.1391 Q1182.4972,360.9281 1182.4972,360.5766 Q1182.4972,360.2391 1182.7362,360.0281 Q1182.9753,359.8172 1183.5237,359.8172 L1185.0706,359.8172 L1185.0706,353.8266 L1183.5237,353.8266 Q1182.9753,353.8266 1182.7362,353.6156 Q1182.4972,353.4047 1182.4972,353.0531 Q1182.4972,352.7156 1182.7362,352.5047 Q1182.9753,352.2938 1183.5237,352.2938 L1188.1503,352.2938 Q1188.6987,352.2938 1188.9378,352.5047 Q1189.1769,352.7156 1189.1769,353.0531 Q1189.1769,353.4047 1188.9378,353.6156 Q1188.6987,353.8266 1188.1503,353.8266 L1186.6034,353.8266 Z " fill="#000000"/><text fill="#E0E0E0" font-family="sans-serif" font-size="12.6" font-style="italic" lengthAdjust="spacing" textLength="42.7219" x="1204.1956" y="361.7996">Mapper</text><rect fill="#2D2D2D" height="15.0311" style="stroke:#8A8A8A;stroke-width:0.9;stroke-dasharray:1.8,1.8;" width="73.234" x="1299.5631" y="339.75"/><text fill="#000000" font-family="sans-serif" font-size="10.8" font-style="italic" lengthAdjust="spacing" textLength="71.434" x="1300.4631" y="351.508">Source, Target</text><line style="stroke:#8A8A8A;stroke-width:0.45;" x1="1127.7" x2="1369.1971" y1="371.25" y2="371.25"/><line style="stroke:#8A8A8A;stroke-width:0.45;" x1="1127.7" x2="1369.1971" y1="378.45" y2="378.45"/><g data-visibility-modifier="PUBLIC_METHOD"><ellipse cx="1136.7" cy="391.1181" fill="#84BE84" rx="2.7" ry="2.7" style="stroke:#038048;stroke-width:0.9;"/></g><text fill="#FFFFFF" font-family="sans-serif" font-size="12.6" lengthAdjust="spacing" textLength="219.8971" x="1144.8" y="394.7177">void map(Source source, Target target)</text></g><!--class ToEntityMapper--><g class="entity" data-qualified-name="ToEntityMapper" data-source-line="17" id="ent0008"><rect fill="#2D2D2D" height="58.6362" rx="2.25" ry="2.25" style="stroke:#8A8A8A;stroke-width:0.45;" width="206.1738" x="1401.75" y="342.45"/><ellipse cx="1423.172" cy="356.85" fill="#B4A7E5" rx="9.9" ry="9.9" style="stroke:#181818;stroke-width:0.9;"/><path d="M1424.0298,353.8266 L1424.0298,359.8172 L1425.5767,359.8172 Q1426.1251,359.8172 1426.3642,360.0281 Q1426.6033,360.2391 1426.6033,360.5906 Q1426.6033,360.9281 1426.3642,361.1391 Q1426.1251,361.35 1425.5767,361.35 L1420.9501,361.35 Q1420.4017,361.35 1420.1626,361.1391 Q1419.9236,360.9281 1419.9236,360.5766 Q1419.9236,360.2391 1420.1626,360.0281 Q1420.4017,359.8172 1420.9501,359.8172 L1422.497,359.8172 L1422.497,353.8266 L1420.9501,353.8266 Q1420.4017,353.8266 1420.1626,353.6156 Q1419.9236,353.4047 1419.9236,353.0531 Q1419.9236,352.7156 1420.1626,352.5047 Q1420.4017,352.2938 1420.9501,352.2938 L1425.5767,352.2938 Q1426.1251,352.2938 1426.3642,352.5047 Q1426.6033,352.7156 1426.6033,353.0531 Q1426.6033,353.4047 1426.3642,353.6156 Q1426.1251,353.8266 1425.5767,353.8266 L1424.0298,353.8266 Z " fill="#000000"/><text fill="#E0E0E0" font-family="sans-serif" font-size="12.6" font-style="italic" lengthAdjust="spacing" textLength="88.9383" x="1437.5325" y="361.7996">ToEntityMapper</text><rect fill="#2D2D2D" height="15.0311" style="stroke:#8A8A8A;stroke-width:0.9;stroke-dasharray:1.8,1.8;" width="69.0311" x="1541.5928" y="339.75"/><text fill="#000000" font-family="sans-serif" font-size="10.8" font-style="italic" lengthAdjust="spacing" textLength="67.2311" x="1542.4928" y="351.508">Source, Entity</text><line style="stroke:#8A8A8A;stroke-width:0.45;" x1="1402.65" x2="1607.0238" y1="371.25" y2="371.25"/><line style="stroke:#8A8A8A;stroke-width:0.45;" x1="1402.65" x2="1607.0238" y1="378.45" y2="378.45"/><text fill="#FFFFFF" font-family="sans-serif" font-size="12.6" lengthAdjust="spacing" textLength="195.3738" x="1407.15" y="394.7177">Entity mapToEntity(Source source)</text></g><!--class CustomerRecipeRequestBodyToRecipeMapper--><g class="entity" data-qualified-name="CustomerRecipeRequestBodyToRecipeMapper" data-source-line="20" id="ent0009"><rect fill="#2D2D2D" height="74.0725" rx="2.25" ry="2.25" style="stroke:#8A8A8A;stroke-width:0.45;" width="484.9119" x="1064.25" y="571.05"/><ellipse cx="1169.815" cy="585.45" fill="#B4A7E5" rx="9.9" ry="9.9" style="stroke:#181818;stroke-width:0.9;"/><path d="M1170.6728,582.4266 L1170.6728,588.4172 L1172.2197,588.4172 Q1172.7681,588.4172 1173.0072,588.6281 Q1173.2462,588.8391 1173.2462,589.1906 Q1173.2462,589.5281 1173.0072,589.7391 Q1172.7681,589.95 1172.2197,589.95 L1167.5931,589.95 Q1167.0447,589.95 1166.8056,589.7391 Q1166.5666,589.5281 1166.5666,589.1766 Q1166.5666,588.8391 1166.8056,588.6281 Q1167.0447,588.4172 1167.5931,588.4172 L1169.14,588.4172 L1169.14,582.4266 L1167.5931,582.4266 Q1167.0447,582.4266 1166.8056,582.2156 Q1166.5666,582.0047 1166.5666,581.6531 Q1166.5666,581.3156 1166.8056,581.1047 Q1167.0447,580.8938 1167.5931,580.8938 L1172.2197,580.8938 Q1172.7681,580.8938 1173.0072,581.1047 Q1173.2462,581.3156 1173.2462,581.6531 Q1173.2462,582.0047 1173.0072,582.2156 Q1172.7681,582.4266 1172.2197,582.4266 L1170.6728,582.4266 Z " fill="#000000"/><text fill="#E0E0E0" font-family="sans-serif" font-size="12.6" font-style="italic" lengthAdjust="spacing" textLength="266.1319" x="1188.265" y="590.3996">CustomerRecipeRequestBodyToRecipeMapper</text><line style="stroke:#8A8A8A;stroke-width:0.45;" x1="1065.15" x2="1548.2619" y1="599.85" y2="599.85"/><line style="stroke:#8A8A8A;stroke-width:0.45;" x1="1065.15" x2="1548.2619" y1="607.05" y2="607.05"/><g data-visibility-modifier="PUBLIC_METHOD"><ellipse cx="1074.15" cy="619.7181" fill="#84BE84" rx="2.7" ry="2.7" style="stroke:#038048;stroke-width:0.9;"/></g><text fill="#FFFFFF" font-family="sans-serif" font-size="12.6" lengthAdjust="spacing" textLength="352.2647" x="1082.25" y="623.3177">void map(CustomerRecipeRequestBody source, Recipe target)</text><g data-visibility-modifier="PUBLIC_METHOD"><ellipse cx="1074.15" cy="635.1543" fill="#84BE84" rx="2.7" ry="2.7" style="stroke:#038048;stroke-width:0.9;"/></g><text fill="#FFFFFF" font-family="sans-serif" font-size="12.6" lengthAdjust="spacing" textLength="461.5119" x="1082.25" y="638.7539">Recipe mapToEntity(CustomerRecipeRequestBody customerRecipeRequestBody)</text></g><!--class DefaultCustomerRecipeRequestBodyToRecipeMapper--><g class="entity" data-qualified-name="DefaultCustomerRecipeRequestBodyToRecipeMapper" data-source-line="25" id="ent0012"><rect fill="#2D2D2D" height="197.5623" rx="2.25" ry="2.25" style="stroke:#8A8A8A;stroke-width:0.45;" width="484.9181" x="1064.25" y="714.6"/><ellipse cx="1149.8568" cy="729" fill="#ADD1B2" rx="9.9" ry="9.9" style="stroke:#181818;stroke-width:0.9;"/><path d="M1152.3458,725.2875 Q1152.4865,725.0906 1152.6552,724.9922 Q1152.824,724.8938 1153.0208,724.8938 Q1153.3583,724.8938 1153.5693,725.1328 Q1153.7802,725.3578 1153.7802,725.9063 L1153.7802,727.2141 Q1153.7802,727.7625 1153.5693,728.0016 Q1153.3583,728.2406 1153.0208,728.2406 Q1152.7115,728.2406 1152.5287,728.0578 Q1152.3458,727.8891 1152.2474,727.425 Q1152.2052,727.1016 1152.0365,726.9328 Q1151.7412,726.5953 1151.1927,726.3984 Q1150.6443,726.2016 1150.0818,726.2016 Q1149.3927,726.2016 1148.8162,726.4969 Q1148.2537,726.7922 1147.8037,727.4672 Q1147.3677,728.1422 1147.3677,729.0703 L1147.3677,730.0547 Q1147.3677,731.1656 1148.1693,731.9109 Q1148.9708,732.6422 1150.4052,732.6422 Q1151.249,732.6422 1151.8396,732.4172 Q1152.1912,732.2766 1152.5708,731.8828 Q1152.8099,731.6438 1152.9365,731.5734 Q1153.0771,731.5031 1153.2599,731.5031 Q1153.5552,731.5031 1153.7802,731.7422 Q1154.0193,731.9672 1154.0193,732.2766 Q1154.0193,732.5859 1153.7099,732.9516 Q1153.2599,733.4719 1152.5427,733.7672 Q1151.5724,734.175 1150.4052,734.175 Q1149.0412,734.175 1147.9583,733.6125 Q1147.0724,733.1625 1146.4537,732.2063 Q1145.8349,731.2359 1145.8349,730.0828 L1145.8349,729.0422 Q1145.8349,727.8469 1146.3833,726.8203 Q1146.9458,725.7797 1147.9302,725.2313 Q1148.9146,724.6688 1150.0255,724.6688 Q1150.6865,724.6688 1151.263,724.8234 Q1151.8537,724.9641 1152.3458,725.2875 Z " fill="#000000"/><text fill="#E0E0E0" font-family="sans-serif" font-size="12.6" lengthAdjust="spacing" textLength="306.0545" x="1168.3068" y="733.9496">DefaultCustomerRecipeRequestBodyToRecipeMapper</text><line style="stroke:#8A8A8A;stroke-width:0.45;" x1="1065.15" x2="1548.2681" y1="743.4" y2="743.4"/><line style="stroke:#8A8A8A;stroke-width:0.45;" x1="1065.15" x2="1548.2681" y1="750.6" y2="750.6"/><g data-visibility-modifier="PUBLIC_METHOD"><ellipse cx="1074.15" cy="763.2681" fill="#84BE84" rx="2.7" ry="2.7" style="stroke:#038048;stroke-width:0.9;"/></g><text fill="#FFFFFF" font-family="sans-serif" font-size="12.6" lengthAdjust="spacing" textLength="365.5723" x="1082.25" y="766.8677">Recipe mapToEntity(CustomerRecipeRequestBody requestBody)</text><g data-visibility-modifier="PUBLIC_METHOD"><ellipse cx="1074.15" cy="778.7043" fill="#84BE84" rx="2.7" ry="2.7" style="stroke:#038048;stroke-width:0.9;"/></g><text fill="#FFFFFF" font-family="sans-serif" font-size="12.6" lengthAdjust="spacing" textLength="387.29" x="1082.25" y="782.3039">void map(CustomerRecipeRequestBody requestBody, Recipe recipe)</text><g data-visibility-modifier="PRIVATE_METHOD"><rect fill="#F24D5C" height="5.4" style="stroke:#C82930;stroke-width:0.9;" width="5.4" x="1071.45" y="791.4406"/></g><text fill="#FFFFFF" font-family="sans-serif" font-size="12.6" lengthAdjust="spacing" textLength="420.9003" x="1082.25" y="797.7401">void mapName(CustomerRecipeRequestBody requestBody, Recipe recipe)</text><g data-visibility-modifier="PRIVATE_METHOD"><rect fill="#F24D5C" height="5.4" style="stroke:#C82930;stroke-width:0.9;" width="5.4" x="1071.45" y="806.8768"/></g><text fill="#FFFFFF" font-family="sans-serif" font-size="12.6" lengthAdjust="spacing" textLength="450.3146" x="1082.25" y="813.1764">void mapDescription(CustomerRecipeRequestBody requestBody, Recipe recipe)</text><g data-visibility-modifier="PRIVATE_METHOD"><rect fill="#F24D5C" height="5.4" style="stroke:#C82930;stroke-width:0.9;" width="5.4" x="1071.45" y="822.313"/></g><text fill="#FFFFFF" font-family="sans-serif" font-size="12.6" lengthAdjust="spacing" textLength="434.8969" x="1082.25" y="828.6126">void mapDifficulty(CustomerRecipeRequestBody requestBody, Recipe recipe)</text><g data-visibility-modifier="PRIVATE_METHOD"><rect fill="#F24D5C" height="5.4" style="stroke:#C82930;stroke-width:0.9;" width="5.4" x="1071.45" y="837.7493"/></g><text fill="#FFFFFF" font-family="sans-serif" font-size="12.6" lengthAdjust="spacing" textLength="448.2229" x="1082.25" y="844.0488">void mapCategories(CustomerRecipeRequestBody requestBody, Recipe recipe)</text><g data-visibility-modifier="PRIVATE_METHOD"><rect fill="#F24D5C" height="5.4" style="stroke:#C82930;stroke-width:0.9;" width="5.4" x="1071.45" y="853.1855"/></g><text fill="#FFFFFF" font-family="sans-serif" font-size="12.6" lengthAdjust="spacing" textLength="449.6317" x="1082.25" y="859.4851">void mapIngredients(CustomerRecipeRequestBody requestBody, Recipe recipe)</text><g data-visibility-modifier="PRIVATE_METHOD"><rect fill="#F24D5C" height="5.4" style="stroke:#C82930;stroke-width:0.9;" width="5.4" x="1071.45" y="868.6217"/></g><text fill="#FFFFFF" font-family="sans-serif" font-size="12.6" lengthAdjust="spacing" textLength="436.3119" x="1082.25" y="874.9213">void mapServings(CustomerRecipeRequestBody requestBody, Recipe recipe)</text><g data-visibility-modifier="PRIVATE_METHOD"><rect fill="#F24D5C" height="5.4" style="stroke:#C82930;stroke-width:0.9;" width="5.4" x="1071.45" y="884.058"/></g><text fill="#FFFFFF" font-family="sans-serif" font-size="12.6" lengthAdjust="spacing" textLength="461.5181" x="1082.25" y="890.3575">void mapCookingTime(CustomerRecipeRequestBody requestBody, Recipe recipe)</text><g data-visibility-modifier="PRIVATE_METHOD"><rect fill="#F24D5C" height="5.4" style="stroke:#C82930;stroke-width:0.9;" width="5.4" x="1071.45" y="899.4942"/></g><text fill="#FFFFFF" font-family="sans-serif" font-size="12.6" lengthAdjust="spacing" textLength="451.7174" x="1082.25" y="905.7938">void mapInstructions(CustomerRecipeRequestBody requestBody, Recipe recipe)</text></g><!--class RecipeServiceV3--><g class="entity" data-qualified-name="RecipeServiceV3" data-source-line="21" id="ent0014"><rect fill="#2D2D2D" height="182.1261" rx="2.25" ry="2.25" style="stroke:#8A8A8A;stroke-width:0.45;" width="527.683" x="452.7" y="6.3"/><ellipse cx="664.3929" cy="20.7" fill="#B4A7E5" rx="9.9" ry="9.9" style="stroke:#181818;stroke-width:0.9;"/><path d="M665.2507,17.6766 L665.2507,23.6672 L666.7976,23.6672 Q667.346,23.6672 667.5851,23.8781 Q667.8242,24.0891 667.8242,24.4406 Q667.8242,24.7781 667.5851,24.9891 Q667.346,25.2 666.7976,25.2 L662.171,25.2 Q661.6226,25.2 661.3835,24.9891 Q661.1445,24.7781 661.1445,24.4266 Q661.1445,24.0891 661.3835,23.8781 Q661.6226,23.6672 662.171,23.6672 L663.7179,23.6672 L663.7179,17.6766 L662.171,17.6766 Q661.6226,17.6766 661.3835,17.4656 Q661.1445,17.2547 661.1445,16.9031 Q661.1445,16.5656 661.3835,16.3547 Q661.6226,16.1438 662.171,16.1438 L666.7976,16.1438 Q667.346,16.1438 667.5851,16.3547 Q667.8242,16.5656 667.8242,16.9031 Q667.8242,17.2547 667.5851,17.4656 Q667.346,17.6766 666.7976,17.6766 L665.2507,17.6766 Z " fill="#000000"/><text fill="#E0E0E0" font-family="sans-serif" font-size="12.6" font-style="italic" lengthAdjust="spacing" textLength="96.6472" x="682.8429" y="25.6496">RecipeServiceV3</text><line style="stroke:#8A8A8A;stroke-width:0.45;" x1="453.6" x2="979.483" y1="35.1" y2="35.1"/><line style="stroke:#8A8A8A;stroke-width:0.45;" x1="453.6" x2="979.483" y1="42.3" y2="42.3"/><g data-visibility-modifier="PUBLIC_METHOD"><ellipse cx="462.6" cy="54.9681" fill="#84BE84" rx="2.7" ry="2.7" style="stroke:#038048;stroke-width:0.9;"/></g><text fill="#FFFFFF" font-family="sans-serif" font-size="12.6" lengthAdjust="spacing" textLength="452.4249" x="470.7" y="58.5677">void createRecipe(String username, CustomerRecipeRequestBody requestBody)</text><g data-visibility-modifier="PUBLIC_METHOD"><ellipse cx="462.6" cy="70.4043" fill="#84BE84" rx="2.7" ry="2.7" style="stroke:#038048;stroke-width:0.9;"/></g><text fill="#FFFFFF" font-family="sans-serif" font-size="12.6" lengthAdjust="spacing" textLength="149.1882" x="470.7" y="74.0039">Recipe getRecipe(Long id)</text><g data-visibility-modifier="PUBLIC_METHOD"><ellipse cx="462.6" cy="85.8406" fill="#84BE84" rx="2.7" ry="2.7" style="stroke:#038048;stroke-width:0.9;"/></g><text fill="#FFFFFF" font-family="sans-serif" font-size="12.6" lengthAdjust="spacing" textLength="175.8032" x="470.7" y="89.4401">byte[] getRecipeImage(Long id)</text><g data-visibility-modifier="PUBLIC_METHOD"><ellipse cx="462.6" cy="101.2768" fill="#84BE84" rx="2.7" ry="2.7" style="stroke:#038048;stroke-width:0.9;"/></g><text fill="#FFFFFF" font-family="sans-serif" font-size="12.6" lengthAdjust="spacing" textLength="420.9557" x="470.7" y="104.8764">Page&lt;Recipe&gt; getCustomerRecipes(String username, Pageable pageable)</text><g data-visibility-modifier="PUBLIC_METHOD"><ellipse cx="462.6" cy="116.713" fill="#84BE84" rx="2.7" ry="2.7" style="stroke:#038048;stroke-width:0.9;"/></g><text fill="#FFFFFF" font-family="sans-serif" font-size="12.6" lengthAdjust="spacing" textLength="362.1331" x="470.7" y="120.3126">Page&lt;Recipe&gt; searchRecipes(String query, Pageable pageable)</text><g data-visibility-modifier="PUBLIC_METHOD"><ellipse cx="462.6" cy="132.1493" fill="#84BE84" rx="2.7" ry="2.7" style="stroke:#038048;stroke-width:0.9;"/></g><text fill="#FFFFFF" font-family="sans-serif" font-size="12.6" lengthAdjust="spacing" textLength="504.283" x="470.7" y="135.7488">void updateRecipe(String username, Long id, CustomerRecipeRequestBody requestBody)</text><g data-visibility-modifier="PUBLIC_METHOD"><ellipse cx="462.6" cy="147.5855" fill="#84BE84" rx="2.7" ry="2.7" style="stroke:#038048;stroke-width:0.9;"/></g><text fill="#FFFFFF" font-family="sans-serif" font-size="12.6" lengthAdjust="spacing" textLength="362.7853" x="470.7" y="151.1851">void updateImage(String username, Long id, MultipartFile image)</text><g data-visibility-modifier="PUBLIC_METHOD"><ellipse cx="462.6" cy="163.0217" fill="#84BE84" rx="2.7" ry="2.7" style="stroke:#038048;stroke-width:0.9;"/></g><text fill="#FFFFFF" font-family="sans-serif" font-size="12.6" lengthAdjust="spacing" textLength="289.9477" x="470.7" y="166.6213">void restoreDefaultImage(String username, Long id)</text><g data-visibility-modifier="PUBLIC_METHOD"><ellipse cx="462.6" cy="178.458" fill="#84BE84" rx="2.7" ry="2.7" style="stroke:#038048;stroke-width:0.9;"/></g><text fill="#FFFFFF" font-family="sans-serif" font-size="12.6" lengthAdjust="spacing" textLength="249.3422" x="470.7" y="182.0575">void deleteRecipe(String username, Long id)</text></g><!--class DefaultRecipeServiceV3--><g class="entity" data-qualified-name="DefaultRecipeServiceV3" data-source-line="33" id="ent0015"><rect fill="#2D2D2D" height="259.3072" rx="2.25" ry="2.25" style="stroke:#8A8A8A;stroke-width:0.45;" width="527.683" x="452.7" y="242.1"/><ellipse cx="644.4316" cy="256.5" fill="#ADD1B2" rx="9.9" ry="9.9" style="stroke:#181818;stroke-width:0.9;"/><path d="M646.9207,252.7875 Q647.0613,252.5906 647.2301,252.4922 Q647.3988,252.3938 647.5957,252.3938 Q647.9332,252.3938 648.1441,252.6328 Q648.3551,252.8578 648.3551,253.4063 L648.3551,254.7141 Q648.3551,255.2625 648.1441,255.5016 Q647.9332,255.7406 647.5957,255.7406 Q647.2863,255.7406 647.1035,255.5578 Q646.9207,255.3891 646.8223,254.925 Q646.7801,254.6016 646.6113,254.4328 Q646.316,254.0953 645.7676,253.8984 Q645.2191,253.7016 644.6566,253.7016 Q643.9676,253.7016 643.391,253.9969 Q642.8285,254.2922 642.3785,254.9672 Q641.9426,255.6422 641.9426,256.5703 L641.9426,257.5547 Q641.9426,258.6656 642.7441,259.4109 Q643.5457,260.1422 644.9801,260.1422 Q645.8238,260.1422 646.4145,259.9172 Q646.766,259.7766 647.1457,259.3828 Q647.3848,259.1438 647.5113,259.0734 Q647.652,259.0031 647.8348,259.0031 Q648.1301,259.0031 648.3551,259.2422 Q648.5941,259.4672 648.5941,259.7766 Q648.5941,260.0859 648.2848,260.4516 Q647.8348,260.9719 647.1176,261.2672 Q646.1473,261.675 644.9801,261.675 Q643.616,261.675 642.5332,261.1125 Q641.6473,260.6625 641.0285,259.7063 Q640.4098,258.7359 640.4098,257.5828 L640.4098,256.5422 Q640.4098,255.3469 640.9582,254.3203 Q641.5207,253.2797 642.5051,252.7313 Q643.4895,252.1688 644.6004,252.1688 Q645.2613,252.1688 645.8379,252.3234 Q646.4285,252.4641 646.9207,252.7875 Z " fill="#000000"/><text fill="#E0E0E0" font-family="sans-serif" font-size="12.6" lengthAdjust="spacing" textLength="136.5697" x="662.8816" y="261.4496">DefaultRecipeServiceV3</text><line style="stroke:#8A8A8A;stroke-width:0.45;" x1="453.6" x2="979.483" y1="270.9" y2="270.9"/><g data-visibility-modifier="PRIVATE_FIELD"><rect fill="none" height="5.4" style="stroke:#C82930;stroke-width:0.9;" width="5.4" x="459.9" y="280.8681"/></g><text fill="#FFFFFF" font-family="sans-serif" font-size="12.6" lengthAdjust="spacing" textLength="212.9019" x="470.7" y="287.1677">RecipeRepositoryV3 recipeRepository</text><g data-visibility-modifier="PRIVATE_FIELD"><rect fill="none" height="5.4" style="stroke:#C82930;stroke-width:0.9;" width="5.4" x="459.9" y="296.3043"/></g><text fill="#FFFFFF" font-family="sans-serif" font-size="12.6" lengthAdjust="spacing" textLength="245.7923" x="470.7" y="302.6039">CustomerRepositoryV1 customerRepository</text><g data-visibility-modifier="PRIVATE_FIELD"><rect fill="none" height="5.4" style="stroke:#C82930;stroke-width:0.9;" width="5.4" x="459.9" y="311.7406"/></g><text fill="#FFFFFF" font-family="sans-serif" font-size="12.6" lengthAdjust="spacing" textLength="479.0399" x="470.7" y="318.0401">CustomerRecipeRequestBodyToRecipeMapper customerRecipeRequestBodyMapper</text><g data-visibility-modifier="PRIVATE_FIELD"><rect fill="none" height="5.4" style="stroke:#C82930;stroke-width:0.9;" width="5.4" x="459.9" y="327.1768"/></g><text fill="#FFFFFF" font-family="sans-serif" font-size="12.6" lengthAdjust="spacing" textLength="223.4039" x="470.7" y="333.4764">ClassPathResource classPathResource</text><line style="stroke:#8A8A8A;stroke-width:0.45;" x1="453.6" x2="979.483" y1="339.8449" y2="339.8449"/><g data-visibility-modifier="PUBLIC_METHOD"><ellipse cx="462.6" cy="352.513" fill="#84BE84" rx="2.7" ry="2.7" style="stroke:#038048;stroke-width:0.9;"/></g><text fill="#FFFFFF" font-family="sans-serif" font-size="12.6" lengthAdjust="spacing" textLength="452.4249" x="470.7" y="356.1126">void createRecipe(String username, CustomerRecipeRequestBody requestBody)</text><g data-visibility-modifier="PUBLIC_METHOD"><ellipse cx="462.6" cy="367.9493" fill="#84BE84" rx="2.7" ry="2.7" style="stroke:#038048;stroke-width:0.9;"/></g><text fill="#FFFFFF" font-family="sans-serif" font-size="12.6" lengthAdjust="spacing" textLength="149.1882" x="470.7" y="371.5488">Recipe getRecipe(Long id)</text><g data-visibility-modifier="PUBLIC_METHOD"><ellipse cx="462.6" cy="383.3855" fill="#84BE84" rx="2.7" ry="2.7" style="stroke:#038048;stroke-width:0.9;"/></g><text fill="#FFFFFF" font-family="sans-serif" font-size="12.6" lengthAdjust="spacing" textLength="175.8032" x="470.7" y="386.9851">byte[] getRecipeImage(Long id)</text><g data-visibility-modifier="PUBLIC_METHOD"><ellipse cx="462.6" cy="398.8217" fill="#84BE84" rx="2.7" ry="2.7" style="stroke:#038048;stroke-width:0.9;"/></g><text fill="#FFFFFF" font-family="sans-serif" font-size="12.6" lengthAdjust="spacing" textLength="420.9557" x="470.7" y="402.4213">Page&lt;Recipe&gt; getCustomerRecipes(String username, Pageable pageable)</text><g data-visibility-modifier="PUBLIC_METHOD"><ellipse cx="462.6" cy="414.258" fill="#84BE84" rx="2.7" ry="2.7" style="stroke:#038048;stroke-width:0.9;"/></g><text fill="#FFFFFF" font-family="sans-serif" font-size="12.6" lengthAdjust="spacing" textLength="362.1331" x="470.7" y="417.8575">Page&lt;Recipe&gt; searchRecipes(String query, Pageable pageable)</text><g data-visibility-modifier="PUBLIC_METHOD"><ellipse cx="462.6" cy="429.6942" fill="#84BE84" rx="2.7" ry="2.7" style="stroke:#038048;stroke-width:0.9;"/></g><text fill="#FFFFFF" font-family="sans-serif" font-size="12.6" lengthAdjust="spacing" textLength="504.283" x="470.7" y="433.2938">void updateRecipe(String username, Long id, CustomerRecipeRequestBody requestBody)</text><g data-visibility-modifier="PUBLIC_METHOD"><ellipse cx="462.6" cy="445.1304" fill="#84BE84" rx="2.7" ry="2.7" style="stroke:#038048;stroke-width:0.9;"/></g><text fill="#FFFFFF" font-family="sans-serif" font-size="12.6" lengthAdjust="spacing" textLength="362.7853" x="470.7" y="448.73">void updateImage(String username, Long id, MultipartFile image)</text><g data-visibility-modifier="PUBLIC_METHOD"><ellipse cx="462.6" cy="460.5667" fill="#84BE84" rx="2.7" ry="2.7" style="stroke:#038048;stroke-width:0.9;"/></g><text fill="#FFFFFF" font-family="sans-serif" font-size="12.6" lengthAdjust="spacing" textLength="289.9477" x="470.7" y="464.1662">void restoreDefaultImage(String username, Long id)</text><g data-visibility-modifier="PUBLIC_METHOD"><ellipse cx="462.6" cy="476.0029" fill="#84BE84" rx="2.7" ry="2.7" style="stroke:#038048;stroke-width:0.9;"/></g><text fill="#FFFFFF" font-family="sans-serif" font-size="12.6" lengthAdjust="spacing" textLength="249.3422" x="470.7" y="479.6024">void deleteRecipe(String username, Long id)</text><g data-visibility-modifier="PRIVATE_METHOD"><rect fill="#F24D5C" height="5.4" style="stroke:#C82930;stroke-width:0.9;" width="5.4" x="459.9" y="488.7391"/></g><text fill="#FFFFFF" font-family="sans-serif" font-size="12.6" lengthAdjust="spacing" textLength="306.0483" x="470.7" y="495.0387">Recipe findCustomerRecipe(String username, Long id)</text></g><!--class ClassPathResource--><g class="entity" data-qualified-name="ClassPathResource" data-source-line="54" id="ent0020"><rect fill="#2D2D2D" height="43.2" rx="2.25" ry="2.25" style="stroke:#8A8A8A;stroke-width:0.45;" width="140.1513" x="891.9" y="586.35"/><ellipse cx="905.4" cy="600.75" fill="#ADD1B2" rx="9.9" ry="9.9" style="stroke:#181818;stroke-width:0.9;"/><path d="M907.8891,597.0375 Q908.0297,596.8406 908.1984,596.7422 Q908.3672,596.6438 908.5641,596.6438 Q908.9016,596.6438 909.1125,596.8828 Q909.3234,597.1078 909.3234,597.6563 L909.3234,598.9641 Q909.3234,599.5125 909.1125,599.7516 Q908.9016,599.9906 908.5641,599.9906 Q908.2547,599.9906 908.0719,599.8078 Q907.8891,599.6391 907.7906,599.175 Q907.7484,598.8516 907.5797,598.6828 Q907.2844,598.3453 906.7359,598.1484 Q906.1875,597.9516 905.625,597.9516 Q904.9359,597.9516 904.3594,598.2469 Q903.7969,598.5422 903.3469,599.2172 Q902.9109,599.8922 902.9109,600.8203 L902.9109,601.8047 Q902.9109,602.9156 903.7125,603.6609 Q904.5141,604.3922 905.9484,604.3922 Q906.7922,604.3922 907.3828,604.1672 Q907.7344,604.0266 908.1141,603.6328 Q908.3531,603.3938 908.4797,603.3234 Q908.6203,603.2531 908.8031,603.2531 Q909.0984,603.2531 909.3234,603.4922 Q909.5625,603.7172 909.5625,604.0266 Q909.5625,604.3359 909.2531,604.7016 Q908.8031,605.2219 908.0859,605.5172 Q907.1156,605.925 905.9484,605.925 Q904.5844,605.925 903.5016,605.3625 Q902.6156,604.9125 901.9969,603.9563 Q901.3781,602.9859 901.3781,601.8328 L901.3781,600.7922 Q901.3781,599.5969 901.9266,598.5703 Q902.4891,597.5297 903.4734,596.9813 Q904.4578,596.4188 905.5688,596.4188 Q906.2297,596.4188 906.8063,596.5734 Q907.3969,596.7141 907.8891,597.0375 Z " fill="#000000"/><text fill="#E0E0E0" font-family="sans-serif" font-size="12.6" lengthAdjust="spacing" textLength="111.3513" x="918" y="605.6996">ClassPathResource</text><line style="stroke:#8A8A8A;stroke-width:0.45;" x1="892.8" x2="1031.1513" y1="615.15" y2="615.15"/><line style="stroke:#8A8A8A;stroke-width:0.45;" x1="892.8" x2="1031.1513" y1="622.35" y2="622.35"/></g><!--reverse link JpaRepository to RecipeRepositoryV3--><g class="link" data-entity-1="ent0002" data-entity-2="ent0003" data-link-type="extension" data-source-line="20" id="lnk4"><path d="M313.2,409.698 C313.2,446.202 313.2,504.45 313.2,555.282" fill="none" id="JpaRepository-backto-RecipeRepositoryV3" style="stroke:#B0C4DE;stroke-width:0.9;"/><polygon fill="none" points="313.2,393.498,307.8,409.698,318.6,409.698,313.2,393.498" style="stroke:#B0C4DE;stroke-width:0.9;"/></g><!--reverse link JpaRepository to CustomerRepositoryV1--><g class="link" data-entity-1="ent0002" data-entity-2="ent0005" data-link-type="extension" data-source-line="20" id="lnk6"><path d="M397.566,371.7 C427.248,371.7 439.2,371.7 439.2,371.7 C439.2,371.7 439.2,608.4 439.2,608.4 C439.2,608.4 446.139,608.4 457.542,608.4" fill="none" id="JpaRepository-backto-CustomerRepositoryV1" style="stroke:#B0C4DE;stroke-width:0.9;"/><polygon fill="none" points="381.366,371.7,397.566,377.1,397.566,366.3,381.366,371.7" style="stroke:#B0C4DE;stroke-width:0.9;"/></g><!--reverse link Mapper to CustomerRecipeRequestBodyToRecipeMapper--><g class="link" data-entity-1="ent0007" data-entity-2="ent0009" data-link-type="extension" data-source-line="21" id="lnk10"><path d="M1248.3,417.348 C1248.3,460.269 1248.3,523.8 1248.3,570.735" fill="none" id="Mapper-backto-CustomerRecipeRequestBodyToRecipeMapper" style="stroke:#B0C4DE;stroke-width:0.9;"/><polygon fill="none" points="1248.3,401.148,1242.9,417.348,1253.7,417.348,1248.3,401.148" style="stroke:#B0C4DE;stroke-width:0.9;"/></g><!--reverse link ToEntityMapper to CustomerRecipeRequestBodyToRecipeMapper--><g class="link" data-entity-1="ent0008" data-entity-2="ent0009" data-link-type="extension" data-source-line="21" id="lnk11"><path d="M1475.55,417.348 C1475.55,460.269 1475.55,523.8 1475.55,570.735" fill="none" id="ToEntityMapper-backto-CustomerRecipeRequestBodyToRecipeMapper" style="stroke:#B0C4DE;stroke-width:0.9;"/><polygon fill="none" points="1475.55,401.148,1470.15,417.348,1480.95,417.348,1475.55,401.148" style="stroke:#B0C4DE;stroke-width:0.9;"/></g><!--reverse link CustomerRecipeRequestBodyToRecipeMapper to DefaultCustomerRecipeRequestBodyToRecipeMapper--><g class="link" data-entity-1="ent0009" data-entity-2="ent0012" data-link-type="extension" data-source-line="26" id="lnk13"><path d="M1306.8,661.158 C1306.8,680.697 1306.8,689.517 1306.8,714.258" fill="none" id="CustomerRecipeRequestBodyToRecipeMapper-backto-DefaultCustomerRecipeRequestBodyToRecipeMapper" style="stroke:#B0C4DE;stroke-width:0.9;stroke-dasharray:6.3,6.3;"/><polygon fill="none" points="1306.8,644.958,1301.4,661.158,1312.2,661.158,1306.8,644.958" style="stroke:#B0C4DE;stroke-width:0.9;"/></g><!--reverse link RecipeServiceV3 to DefaultRecipeServiceV3--><g class="link" data-entity-1="ent0014" data-entity-2="ent0015" data-link-type="extension" data-source-line="34" id="lnk16"><path d="M716.4,204.426 C716.4,221.67 716.4,223.812 716.4,241.983" fill="none" id="RecipeServiceV3-backto-DefaultRecipeServiceV3" style="stroke:#B0C4DE;stroke-width:0.9;stroke-dasharray:6.3,6.3;"/><polygon fill="none" points="716.4,188.226,711,204.426,721.8,204.426,716.4,188.226" style="stroke:#B0C4DE;stroke-width:0.9;"/></g><!--link DefaultRecipeServiceV3 to RecipeRepositoryV3--><g class="link" data-entity-1="ent0015" data-entity-2="ent0003" data-link-type="dependency" data-source-line="51" id="lnk17"><path codeLine="51" d="M452.673,447.3 C423.135,447.3 403.425,447.3 403.425,447.3 C403.425,447.3 403.425,502.704 403.425,549.504" fill="none" id="DefaultRecipeServiceV3-to-RecipeRepositoryV3" style="stroke:#B0C4DE;stroke-width:0.9;"/><polygon fill="#B0C4DE" points="403.425,554.904,407.025,546.804,403.425,550.404,399.825,546.804,403.425,554.904" style="stroke:#B0C4DE;stroke-width:0.9;"/></g><!--link DefaultRecipeServiceV3 to CustomerRepositoryV1--><g class="link" data-entity-1="ent0015" data-entity-2="ent0005" data-link-type="dependency" data-source-line="52" id="lnk18"><path codeLine="52" d="M658.8,501.57 C658.8,523.773 658.8,540.009 658.8,557.91" fill="none" id="DefaultRecipeServiceV3-to-CustomerRepositoryV1" style="stroke:#B0C4DE;stroke-width:0.9;"/><polygon fill="#B0C4DE" points="658.8,563.31,662.4,555.21,658.8,558.81,655.2,555.21,658.8,563.31" style="stroke:#B0C4DE;stroke-width:0.9;"/></g><!--link DefaultRecipeServiceV3 to CustomerRecipeRequestBodyToRecipeMapper--><g class="link" data-entity-1="ent0015" data-entity-2="ent0009" data-link-type="dependency" data-source-line="53" id="lnk19"><path codeLine="53" d="M950.697,501.327 C950.697,543.042 950.697,578.7 950.697,578.7 C950.697,578.7 995.769,578.7 1058.706,578.7" fill="none" id="DefaultRecipeServiceV3-to-CustomerRecipeRequestBodyToRecipeMapper" style="stroke:#B0C4DE;stroke-width:0.9;"/><polygon fill="#B0C4DE" points="1064.106,578.7,1056.006,575.1,1059.606,578.7,1056.006,582.3,1064.106,578.7" style="stroke:#B0C4DE;stroke-width:0.9;"/></g><!--link DefaultRecipeServiceV3 to ClassPathResource--><g class="link" data-entity-1="ent0015" data-entity-2="ent0020" data-link-type="dependency" data-source-line="54" id="lnk21"><path codeLine="54" d="M921.303,501.57 C921.303,534.384 921.303,560.574 921.303,580.68" fill="none" id="DefaultRecipeServiceV3-to-ClassPathResource" style="stroke:#B0C4DE;stroke-width:0.9;"/><polygon fill="#B0C4DE" points="921.303,586.08,924.903,577.98,921.303,581.58,917.703,577.98,921.303,586.08" style="stroke:#B0C4DE;stroke-width:0.9;"/></g><?plantuml-src xPLDQnin48Rl-ojKUcbeN9AcXnvAm1yn56e8ISWbz21BuxM8TgMEfAHBwN-lPArhxQUJUommoyoZLvhPUMtpA4fDaHP4YX9ifO4ej5kLcV-9DMMFEIfNyhcI2idxywkm4eB3XZffx-2tdKgHbmMKbZ3_1PXGKqJrN4lCpkPV5gc4sLAkdaMPamsL1fBCKfMsthNSVP8SazIOey3KMXHhP-4ekG9VEkzYROxyoGYPjVloUH5Mo2ZaW7NqwpGi7qrahyx2olvcsJjHCkaua1jWGiCDQ6M4LLZTNtpIhf07OEwCLGLWWfmF8b7hbmDZPufNTog6LbHhmBWh4-7zR2ZRdtqB-2GOt5_igYFa8tbIWXE6G2r4vCEjxwH_Hyu0bhI0q-4Z2HwUJsgz294SR2ttGtanmVVvTMNXuUSX_xsWUGUwzh5lCNyPqEODJFUAOGDTIo2wVkXLCa2HRLiYlWAiHXHs3NAQZpIellqhEvK8noOCwwwyyuIVJRiK_eOYq0qLzD8AOH4zEgxMsCX1mj6wJi8GHq_K9xI7IHHQGlX5C0DpDkcPVN_hPgWc-qn0M2VOeKVza0Yqk9ZVguKghwdrGsAKG-yRrevaRyPvCyvBZPFEFja8_pVIA7JSSWDccqmkUzmqHlSvwcNygAT69Tgs-GS0?></g></svg>