<?plantuml 1.2026.2?>
<svg xmlns="http://www.w3.org/2000/svg" contentStyleType="text/css" data-diagram-type="CLASS" height="241px"
     preserveAspectRatio="none" style="width:480px;height:241px;background:#1E1E1E;" version="1.1" viewBox="0 0 480 241"
     width="480px" zoomAndPan="magnify"><defs/><g><rect fill="#1E1E1E" height="241" style="stroke:none;stroke-width:1;" width="480" x="0" y="0"/><!--class JpaRepository--><g class="entity" data-qualified-name="JpaRepository" data-source-line="17" id="ent0002"><rect fill="#2D2D2D" height="48" rx="2.5" ry="2.5" style="stroke:#8A8A8A;stroke-width:0.5;" width="151.4873" x="164.5" y="10"/><ellipse cx="179.5" cy="26" fill="#B4A7E5" rx="11" ry="11" style="stroke:#181818;stroke-width:1;"/><path d="M180.4531,22.6406 L180.4531,29.2969 L182.1719,29.2969 Q182.7813,29.2969 183.0469,29.5313 Q183.3125,29.7656 183.3125,30.1563 Q183.3125,30.5313 183.0469,30.7656 Q182.7813,31 182.1719,31 L177.0313,31 Q176.4219,31 176.1563,30.7656 Q175.8906,30.5313 175.8906,30.1406 Q175.8906,29.7656 176.1563,29.5313 Q176.4219,29.2969 177.0313,29.2969 L178.75,29.2969 L178.75,22.6406 L177.0313,22.6406 Q176.4219,22.6406 176.1563,22.4063 Q175.8906,22.1719 175.8906,21.7813 Q175.8906,21.4063 176.1563,21.1719 Q176.4219,20.9375 177.0313,20.9375 L182.1719,20.9375 Q182.7813,20.9375 183.0469,21.1719 Q183.3125,21.4063 183.3125,21.7813 Q183.3125,22.1719 183.0469,22.4063 Q182.7813,22.6406 182.1719,22.6406 L180.4531,22.6406 Z " fill="#000000"/><text fill="#E0E0E0" font-family="sans-serif" font-size="14" font-style="italic" lengthAdjust="spacing" textLength="89.4893" x="193.5" y="31.4995">JpaRepository</text><rect fill="#2D2D2D" height="16.7012" style="stroke:#8A8A8A;stroke-width:1;stroke-dasharray:2,2;" width="27.998" x="290.9893" y="7"/><text fill="#000000" font-family="sans-serif" font-size="12" font-style="italic" lengthAdjust="spacing" textLength="25.998" x="291.9893" y="20.0645">T, ID</text><line style="stroke:#8A8A8A;stroke-width:0.5;" x1="165.5" x2="314.9873" y1="42" y2="42"/><line style="stroke:#8A8A8A;stroke-width:0.5;" x1="165.5" x2="314.9873" y1="50" y2="50"/></g><!--class RecipeRepositoryV3--><g class="entity" data-qualified-name="RecipeRepositoryV3" data-source-line="19" id="ent0003"><rect fill="#2D2D2D" height="116.6055" rx="2.5" ry="2.5" style="stroke:#8A8A8A;stroke-width:0.5;" width="466.4941" x="7" y="118"/><ellipse cx="172.187" cy="134" fill="#B4A7E5" rx="11" ry="11" style="stroke:#181818;stroke-width:1;"/><path d="M173.1401,130.6406 L173.1401,137.2969 L174.8589,137.2969 Q175.4683,137.2969 175.7339,137.5313 Q175.9995,137.7656 175.9995,138.1563 Q175.9995,138.5313 175.7339,138.7656 Q175.4683,139 174.8589,139 L169.7183,139 Q169.1089,139 168.8433,138.7656 Q168.5776,138.5313 168.5776,138.1406 Q168.5776,137.7656 168.8433,137.5313 Q169.1089,137.2969 169.7183,137.2969 L171.437,137.2969 L171.437,130.6406 L169.7183,130.6406 Q169.1089,130.6406 168.8433,130.4063 Q168.5776,130.1719 168.5776,129.7813 Q168.5776,129.4063 168.8433,129.1719 Q169.1089,128.9375 169.7183,128.9375 L174.8589,128.9375 Q175.4683,128.9375 175.7339,129.1719 Q175.9995,129.4063 175.9995,129.7813 Q175.9995,130.1719 175.7339,130.4063 Q175.4683,130.6406 174.8589,130.6406 L173.1401,130.6406 Z " fill="#000000"/><text fill="#E0E0E0" font-family="sans-serif" font-size="14" font-style="italic" lengthAdjust="spacing" textLength="127.6201" x="192.687" y="139.4995">RecipeRepositoryV3</text><line style="stroke:#8A8A8A;stroke-width:0.5;" x1="8" x2="472.4941" y1="150" y2="150"/><line style="stroke:#8A8A8A;stroke-width:0.5;" x1="8" x2="472.4941" y1="158" y2="158"/><g data-visibility-modifier="PUBLIC_METHOD"><ellipse cx="18" cy="172.0757" fill="#84BE84" rx="3" ry="3" style="stroke:#038048;stroke-width:1;"/></g><text fill="#FFFFFF" font-family="sans-serif" font-size="14" lengthAdjust="spacing" textLength="440.4941" x="27" y="176.0752">Page&lt;Recipe&gt; findByUsername(String username, Pageable pageable)</text><g data-visibility-modifier="PUBLIC_METHOD"><ellipse cx="18" cy="189.2271" fill="#84BE84" rx="3" ry="3" style="stroke:#038048;stroke-width:1;"/></g><text fill="#FFFFFF" font-family="sans-serif" font-size="14" lengthAdjust="spacing" textLength="402.3701" x="27" y="193.2266">Page&lt;Recipe&gt; searchRecipes(String query, Pageable pageable)</text><g data-visibility-modifier="PUBLIC_METHOD"><ellipse cx="18" cy="206.3784" fill="#84BE84" rx="3" ry="3" style="stroke:#038048;stroke-width:1;"/></g><text fill="#FFFFFF" font-family="sans-serif" font-size="14" lengthAdjust="spacing" textLength="228.0195" x="27" y="210.3779">Optional&lt;String&gt; findOwner(Long id)</text><g data-visibility-modifier="PUBLIC_METHOD"><ellipse cx="18" cy="223.5298" fill="#84BE84" rx="3" ry="3" style="stroke:#038048;stroke-width:1;"/></g><text fill="#FFFFFF" font-family="sans-serif" font-size="14" lengthAdjust="spacing" textLength="266.9434" x="27" y="227.5293">Optional&lt;byte[]&gt; findRecipeImage(Long id)</text></g><!--reverse link JpaRepository to RecipeRepositoryV3--><g class="link" data-entity-1="ent0002" data-entity-2="ent0003" data-link-type="extension" data-source-line="20" id="lnk4"><path d="M240,76.17 C240,92.53 240,96.88 240,117.75" fill="none" id="JpaRepository-backto-RecipeRepositoryV3" style="stroke:#B0C4DE;stroke-width:1;"/><polygon fill="none" points="240,58.17,234,76.17,246,76.17,240,58.17" style="stroke:#B0C4DE;stroke-width:1;"/></g><?plantuml-src XP1BImCn4CVl-ob6l5GKgO-3Xo9iNw0ebVguY8TiChiDpIPnagKkqkzkzg5TMx4P29dCR_wP_DrIQik8vQ2aHbzQ14D-OIBtKqWONsPa2Yr6HXc2mxD95Hr2OCeAvP_mmyTAPZf7xO673Qb3nKHcrKeC-wFBSLV2BPWmAwapI9bosAbCZVPjrxHUdHfNpBczGEmzoQJmk9Uyn_1riOjjS_0P0GotVJaVLr5L30cazlOghYBSTcGd_IgYTHGTICrL8H1kBPkZDKvwG-MfBN8LHR9oC6KSOOvSMjm0BnSGp4OjtE_6UZ20OtXW6GwQhcj8fHR3yjaXQPPZxp7O4OmksloaXbcY46nxEFfBnI4ZlcWozotoNY2L_oZCh9T6CpLe-6QMsKeZzUvCw9TYXqnAZwzl3TcyTfC7rGs__W80?></g></svg>