<svg xmlns="http://www.w3.org/2000/svg" contentStyleType="text/css" data-diagram-type="SEQUENCE" height="690.6667px"
     preserveAspectRatio="none" style="width:1111px;height:690px;background:#0E1117;" version="1.1"
     viewBox="0 0 1111 690" width="1111.8333px" zoomAndPan="magnify"><title>Update Recipe - Sequence</title><defs/><g><rect fill="#0E1117" height="690.6667" style="stroke:none;stroke-width:1.1667;" width="1111.8333" x="0" y="0"/><text fill="#C9D1D9" font-family="sans-serif" font-size="16.3333" font-weight="bold" lengthAdjust="spacing" textLength="205.1317" x="454.7909" y="35.1253">Update Recipe - Sequence</text><rect fill="none" height="406.9707" rx="7" ry="7" style="stroke:#30363D;stroke-width:1.75;" width="1092.5469" x="11.6667" y="164.7826"/><g><title>Client</title><rect fill="#000000" fill-opacity="0.00000" height="446.6374" width="9.3333" x="50.75" y="144.9492"/><line style="stroke:#30363D;stroke-width:0.5833;stroke-dasharray:5.8333,5.8333;" x1="54.8333" x2="54.8333" y1="144.9492" y2="591.5866"/></g><g><title>Application</title><rect fill="#000000" fill-opacity="0.00000" height="446.6374" width="9.3333" x="374.6937" y="144.9492"/><line style="stroke:#30363D;stroke-width:0.5833;stroke-dasharray:5.8333,5.8333;" x1="379.075" x2="379.075" y1="144.9492" y2="591.5866"/></g><g><title>RecipeRestControllerV1</title><rect fill="#000000" fill-opacity="0.00000" height="446.6374" width="9.3333" x="545.6081" y="144.9492"/><line style="stroke:#30363D;stroke-width:0.5833;stroke-dasharray:5.8333,5.8333;" x1="550.1705" x2="550.1705" y1="144.9492" y2="591.5866"/></g><g><title>RecipeServiceV1</title><rect fill="#000000" fill-opacity="0.00000" height="446.6374" width="9.3333" x="714.5207" y="144.9492"/><line style="stroke:#30363D;stroke-width:0.5833;stroke-dasharray:5.8333,5.8333;" x1="718.379" x2="718.379" y1="144.9492" y2="591.5866"/></g><g><title>database</title><rect fill="#000000" fill-opacity="0.00000" height="446.6374" width="9.3333" x="855.9682" y="144.9492"/><line style="stroke:#30363D;stroke-width:0.5833;stroke-dasharray:5.8333,5.8333;" x1="859.6978" x2="859.6978" y1="144.9492" y2="591.5866"/></g><g><title>GlobalExceptionHandler</title><rect fill="#000000" fill-opacity="0.00000" height="446.6374" width="9.3333" x="996.3094" y="144.9492"/><line style="stroke:#30363D;stroke-width:0.5833;stroke-dasharray:5.8333,5.8333;" x1="1000.4053" x2="1000.4053" y1="144.9492" y2="591.5866"/></g><g class="participant participant-head" data-participant="Client"><text fill="#C9D1D9" font-family="sans-serif" font-size="16.3333" lengthAdjust="spacing" textLength="41.7585" x="31.0374" y="140.8499">Client</text><ellipse cx="55.4167" cy="71.3079" fill="#0D1117" rx="18.6667" ry="18.6667" style="stroke:#58A6FF;stroke-width:0.5833;"/><path d="M55.4167,94.6413 C60.0833,94.6413 63.5833,94.6413 68.25,89.9746 C77.5833,89.9746 86.9167,99.3079 86.9167,108.6413 L86.9167,113.3079 C86.9167,117.9746 82.25,122.6413 77.5833,122.6413 L33.25,122.6413 C28.5833,122.6413 23.9167,117.9746 23.9167,113.3079 L23.9167,108.6413 C23.9167,99.3079 33.25,89.9746 42.5833,89.9746 C47.25,94.6413 50.75,94.6413 55.4167,94.6413" fill="#0D1117" style="stroke:#58A6FF;stroke-width:0.5833;"/></g><g class="participant participant-tail" data-participant="Client"><text fill="#C9D1D9" font-family="sans-serif" font-size="16.3333" lengthAdjust="spacing" textLength="41.7585" x="31.0374" y="608.0452">Client</text><ellipse cx="55.4167" cy="631.3945" fill="#0D1117" rx="18.6667" ry="18.6667" style="stroke:#58A6FF;stroke-width:0.5833;"/><path d="M55.4167,654.7279 C60.0833,654.7279 63.5833,654.7279 68.25,650.0612 C77.5833,650.0612 86.9167,659.3945 86.9167,668.7279 L86.9167,673.3945 C86.9167,678.0612 82.25,682.7279 77.5833,682.7279 L33.25,682.7279 C28.5833,682.7279 23.9167,678.0612 23.9167,673.3945 L23.9167,668.7279 C23.9167,659.3945 33.25,650.0612 42.5833,650.0612 C47.25,654.7279 50.75,654.7279 55.4167,654.7279" fill="#0D1117" style="stroke:#58A6FF;stroke-width:0.5833;"/></g><g class="participant participant-head" data-participant="Application"><text fill="#C9D1D9" font-family="sans-serif" font-size="16.3333" lengthAdjust="spacing" textLength="79.9041" x="335.9083" y="140.8499">Application</text><path d="M355.4437,90.5579 L355.4437,118.5579 M355.4437,104.5579 L375.277,104.5579" fill="none" style="stroke:#58A6FF;stroke-width:0.5833;"/><ellipse cx="389.277" cy="104.5579" fill="#0D1117" rx="14" ry="14" style="stroke:#58A6FF;stroke-width:0.5833;"/></g><g class="participant participant-tail" data-participant="Application"><text fill="#C9D1D9" font-family="sans-serif" font-size="16.3333" lengthAdjust="spacing" textLength="79.9041" x="335.9083" y="608.0452">Application</text><path d="M355.4437,616.8112 L355.4437,644.8112 M355.4437,630.8112 L375.277,630.8112" fill="none" style="stroke:#58A6FF;stroke-width:0.5833;"/><ellipse cx="389.277" cy="630.8112" fill="#0D1117" rx="14" ry="14" style="stroke:#58A6FF;stroke-width:0.5833;"/></g><g class="participant participant-head" data-participant="RecipeRestControllerV1"><text fill="#C9D1D9" font-family="sans-serif" font-size="16.3333" lengthAdjust="spacing" textLength="175.2085" x="459.1705" y="140.8499">RecipeRestControllerV1</text><ellipse cx="550.2747" cy="104.5579" fill="#0D1117" rx="14" ry="14" style="stroke:#58A6FF;stroke-width:0.5833;"/><polygon fill="#58A6FF" points="545.6081,90.5579,552.6081,84.7246,550.2747,90.5579,552.6081,96.3913,545.6081,90.5579" style="stroke:#58A6FF;stroke-width:1.1667;"/></g><g class="participant participant-tail" data-participant="RecipeRestControllerV1"><text fill="#C9D1D9" font-family="sans-serif" font-size="16.3333" lengthAdjust="spacing" textLength="175.2085" x="459.1705" y="608.0452">RecipeRestControllerV1</text><ellipse cx="550.2747" cy="630.8112" fill="#0D1117" rx="14" ry="14" style="stroke:#58A6FF;stroke-width:0.5833;"/><polygon fill="#58A6FF" points="545.6081,616.8112,552.6081,610.9779,550.2747,616.8112,552.6081,622.6445,545.6081,616.8112" style="stroke:#58A6FF;stroke-width:1.1667;"/></g><g class="participant participant-head" data-participant="RecipeServiceV1"><text fill="#C9D1D9" font-family="sans-serif" font-size="16.3333" lengthAdjust="spacing" textLength="125.2834" x="653.0457" y="140.8499">RecipeServiceV1</text><ellipse cx="719.1873" cy="104.5579" fill="#0D1117" rx="14" ry="14" style="stroke:#58A6FF;stroke-width:0.5833;"/><polygon fill="#58A6FF" points="714.5207,90.5579,721.5207,84.7246,719.1873,90.5579,721.5207,96.3913,714.5207,90.5579" style="stroke:#58A6FF;stroke-width:1.1667;"/></g><g class="participant participant-tail" data-participant="RecipeServiceV1"><text fill="#C9D1D9" font-family="sans-serif" font-size="16.3333" lengthAdjust="spacing" textLength="125.2834" x="653.0457" y="608.0452">RecipeServiceV1</text><ellipse cx="719.1873" cy="630.8112" fill="#0D1117" rx="14" ry="14" style="stroke:#58A6FF;stroke-width:0.5833;"/><polygon fill="#58A6FF" points="714.5207,616.8112,721.5207,610.9779,719.1873,616.8112,721.5207,622.6445,714.5207,616.8112" style="stroke:#58A6FF;stroke-width:1.1667;"/></g><g class="participant participant-head" data-participant="database"><text fill="#C9D1D9" font-family="sans-serif" font-size="16.3333" lengthAdjust="spacing" textLength="67.2075" x="823.5311" y="140.8499">database</text><path d="M839.6348,81.2246 C839.6348,69.5579 860.6348,69.5579 860.6348,69.5579 C860.6348,69.5579 881.6348,69.5579 881.6348,81.2246 L881.6348,111.5579 C881.6348,123.2246 860.6348,123.2246 860.6348,123.2246 C860.6348,123.2246 839.6348,123.2246 839.6348,111.5579 L839.6348,81.2246" fill="#0D1117" style="stroke:#58A6FF;stroke-width:0.5833;"/><path d="M839.6348,81.2246 C839.6348,92.8913 860.6348,92.8913 860.6348,92.8913 C860.6348,92.8913 881.6348,92.8913 881.6348,81.2246" fill="none" style="stroke:#58A6FF;stroke-width:0.5833;"/></g><g class="participant participant-tail" data-participant="database"><text fill="#C9D1D9" font-family="sans-serif" font-size="16.3333" lengthAdjust="spacing" textLength="67.2075" x="823.5311" y="608.0452">database</text><path d="M839.6348,623.8112 C839.6348,612.1445 860.6348,612.1445 860.6348,612.1445 C860.6348,612.1445 881.6348,612.1445 881.6348,623.8112 L881.6348,654.1445 C881.6348,665.8112 860.6348,665.8112 860.6348,665.8112 C860.6348,665.8112 839.6348,665.8112 839.6348,654.1445 L839.6348,623.8112" fill="#0D1117" style="stroke:#58A6FF;stroke-width:0.5833;"/><path d="M839.6348,623.8112 C839.6348,635.4779 860.6348,635.4779 860.6348,635.4779 C860.6348,635.4779 881.6348,635.4779 881.6348,623.8112" fill="none" style="stroke:#58A6FF;stroke-width:0.5833;"/></g><g class="participant participant-head" data-participant="GlobalExceptionHandler"><text fill="#C9D1D9" font-family="sans-serif" font-size="16.3333" lengthAdjust="spacing" textLength="176.1416" x="909.4053" y="140.8499">GlobalExceptionHandler</text><ellipse cx="1000.9761" cy="104.5579" fill="#0D1117" rx="14" ry="14" style="stroke:#58A6FF;stroke-width:0.5833;"/><polygon fill="#58A6FF" points="996.3094,90.5579,1003.3094,84.7246,1000.9761,90.5579,1003.3094,96.3913,996.3094,90.5579" style="stroke:#58A6FF;stroke-width:1.1667;"/></g><g class="participant participant-tail" data-participant="GlobalExceptionHandler"><text fill="#C9D1D9" font-family="sans-serif" font-size="16.3333" lengthAdjust="spacing" textLength="176.1416" x="909.4053" y="608.0452">GlobalExceptionHandler</text><ellipse cx="1000.9761" cy="630.8112" fill="#0D1117" rx="14" ry="14" style="stroke:#58A6FF;stroke-width:0.5833;"/><polygon fill="#58A6FF" points="996.3094,616.8112,1003.3094,610.9779,1000.9761,616.8112,1003.3094,622.6445,996.3094,616.8112" style="stroke:#58A6FF;stroke-width:1.1667;"/></g><path d="M18.6667,164.7826 L81.866,164.7826 L81.866,175.6221 L70.1994,187.2887 L11.6667,187.2887 L11.6667,171.7826 A7,7 0 0 1 18.6667,164.7826" fill="#161B22" style="stroke:#30363D;stroke-width:1.75;"/><rect fill="none" height="406.9707" rx="7" ry="7" style="stroke:#30363D;stroke-width:1.75;" width="1092.5469" x="11.6667" y="164.7826"/><text fill="#C9D1D9" font-family="sans-serif" font-size="15.1667" font-weight="bold" lengthAdjust="spacing" textLength="17.6994" x="29.1667" y="182.3156">alt</text><text fill="#C9D1D9" font-family="sans-serif" font-size="12.8333" font-weight="bold" lengthAdjust="spacing" textLength="92.6845" x="99.366" y="180.9644">[Validation OK]</text><g class="message" data-participant-1="RecipeRestControllerV1" data-participant-2="RecipeServiceV1"><polygon fill="#58A6FF" points="705.1873,209.7949,716.854,214.4616,705.1873,219.1283,709.854,214.4616" style="stroke:#58A6FF;stroke-width:1.1667;"/><line style="stroke:#58A6FF;stroke-width:1.1667;" x1="550.2747" x2="712.1873" y1="214.4616" y2="214.4616"/><text fill="#C9D1D9" font-family="sans-serif" font-size="15.1667" font-weight="bold" lengthAdjust="spacing" textLength="8.435" x="571.6829" y="208.3218">1</text><text fill="#C9D1D9" font-family="sans-serif" font-size="15.1667" lengthAdjust="spacing" textLength="112.9946" x="584.7845" y="208.3218">delegate request</text></g><g class="message" data-participant-1="RecipeServiceV1" data-participant-2="database"><polygon fill="#58A6FF" points="846.6348,246.3011,858.3015,250.9678,846.6348,255.6344,851.3015,250.9678" style="stroke:#58A6FF;stroke-width:1.1667;"/><line style="stroke:#58A6FF;stroke-width:1.1667;" x1="719.1873" x2="853.6348" y1="250.9678" y2="250.9678"/><text fill="#C9D1D9" font-family="sans-serif" font-size="15.1667" font-weight="bold" lengthAdjust="spacing" textLength="8.435" x="737.4048" y="244.828">2</text><text fill="#C9D1D9" font-family="sans-serif" font-size="15.1667" lengthAdjust="spacing" textLength="91.9109" x="750.5065" y="244.828">update recipe</text></g><g class="message" data-participant-1="database" data-participant-2="RecipeServiceV1"><polygon fill="#58A6FF" points="732.0207,282.8073,720.354,287.474,732.0207,292.1406,727.354,287.474" style="stroke:#58A6FF;stroke-width:1.1667;"/><line style="stroke:#58A6FF;stroke-width:1.1667;" x1="725.0207" x2="859.4682" y1="287.474" y2="287.474"/><text fill="#C9D1D9" font-family="sans-serif" font-size="15.1667" font-weight="bold" lengthAdjust="spacing" textLength="8.435" x="733.1873" y="281.3341">3</text><text fill="#C9D1D9" font-family="sans-serif" font-size="15.1667" lengthAdjust="spacing" textLength="100.3459" x="746.289" y="281.3341">updated recipe</text></g><g class="message" data-participant-1="RecipeServiceV1" data-participant-2="RecipeRestControllerV1"><polygon fill="#58A6FF" points="563.1081,319.3135,551.4414,323.9801,563.1081,328.6468,558.4414,323.9801" style="stroke:#58A6FF;stroke-width:1.1667;"/><line style="stroke:#58A6FF;stroke-width:1.1667;" x1="556.1081" x2="718.0207" y1="323.9801" y2="323.9801"/><text fill="#C9D1D9" font-family="sans-serif" font-size="15.1667" font-weight="bold" lengthAdjust="spacing" textLength="8.435" x="607.526" y="317.8403">4</text><text fill="#C9D1D9" font-family="sans-serif" font-size="15.1667" lengthAdjust="spacing" textLength="41.3084" x="620.6276" y="317.8403">recipe</text></g><g class="message" data-participant-1="RecipeRestControllerV1" data-participant-2="Application"><polygon fill="#58A6FF" points="392.1937,355.8197,380.527,360.4863,392.1937,365.153,387.527,360.4863" style="stroke:#58A6FF;stroke-width:1.1667;"/><line style="stroke:#58A6FF;stroke-width:1.1667;" x1="385.1937" x2="549.1081" y1="360.4863" y2="360.4863"/><text fill="#C9D1D9" font-family="sans-serif" font-size="15.1667" font-weight="bold" lengthAdjust="spacing" textLength="8.435" x="418.6542" y="354.3465">5</text><text fill="#C9D1D9" font-family="sans-serif" font-size="15.1667" lengthAdjust="spacing" textLength="79.2251" x="431.7558" y="354.3465">RecipeDTO</text></g><g class="message" data-participant-1="Application" data-participant-2="Client"><polygon fill="#58A6FF" points="68.25,392.3258,56.5833,396.9925,68.25,401.6592,63.5833,396.9925" style="stroke:#58A6FF;stroke-width:1.1667;"/><line style="stroke:#58A6FF;stroke-width:1.1667;" x1="61.25" x2="378.1937" y1="396.9925" y2="396.9925"/><text fill="#C9D1D9" font-family="sans-serif" font-size="15.1667" font-weight="bold" lengthAdjust="spacing" textLength="8.435" x="131.8162" y="390.8527">6</text><text fill="#C9D1D9" font-family="sans-serif" font-size="15.1667" lengthAdjust="spacing" textLength="158.0429" x="144.9179" y="390.8527">OK (200) + RecipeDTO</text></g><line style="stroke:#30363D;stroke-width:1.1667;stroke-dasharray:2.3333,2.3333;" x1="11.6667" x2="1104.2135" y1="407.4925" y2="407.4925"/><text fill="#C9D1D9" font-family="sans-serif" font-size="12.8333" font-weight="bold" lengthAdjust="spacing" textLength="106.9528" x="17.5" y="421.341">[Validation failed]</text><g class="message" data-participant-1="RecipeRestControllerV1" data-participant-2="GlobalExceptionHandler"><polygon fill="#58A6FF" points="986.9761,448.2347,998.6427,452.9014,986.9761,457.568,991.6427,452.9014" style="stroke:#58A6FF;stroke-width:1.1667;"/><line style="stroke:#58A6FF;stroke-width:1.1667;" x1="550.2747" x2="993.9761" y1="452.9014" y2="452.9014"/><text fill="#C9D1D9" font-family="sans-serif" font-size="15.1667" font-weight="bold" lengthAdjust="spacing" textLength="8.435" x="736.6121" y="446.7616">7</text><text fill="#C9D1D9" font-family="sans-serif" font-size="15.1667" lengthAdjust="spacing" textLength="64.9249" x="749.7138" y="446.7616">exception</text></g><g class="message" data-participant-1="GlobalExceptionHandler" data-participant-2="RecipeRestControllerV1"><polygon fill="#58A6FF" points="563.1081,484.7409,551.4414,489.4076,563.1081,494.0742,558.4414,489.4076" style="stroke:#58A6FF;stroke-width:1.1667;"/><line style="stroke:#58A6FF;stroke-width:1.1667;" x1="556.1081" x2="999.8094" y1="489.4076" y2="489.4076"/><text fill="#C9D1D9" font-family="sans-serif" font-size="15.1667" font-weight="bold" lengthAdjust="spacing" textLength="8.435" x="704.1682" y="483.2677">8</text><text fill="#C9D1D9" font-family="sans-serif" font-size="15.1667" lengthAdjust="spacing" textLength="129.8127" x="717.2699" y="483.2677">ErrorHttpResponse</text></g><g class="message" data-participant-1="RecipeRestControllerV1" data-participant-2="Application"><polygon fill="#58A6FF" points="392.1937,521.2471,380.527,525.9137,392.1937,530.5804,387.527,525.9137" style="stroke:#58A6FF;stroke-width:1.1667;"/><line style="stroke:#58A6FF;stroke-width:1.1667;" x1="385.1937" x2="549.1081" y1="525.9137" y2="525.9137"/><text fill="#C9D1D9" font-family="sans-serif" font-size="15.1667" font-weight="bold" lengthAdjust="spacing" textLength="8.435" x="393.3604" y="519.7739">9</text><text fill="#C9D1D9" font-family="sans-serif" font-size="15.1667" lengthAdjust="spacing" textLength="129.8127" x="406.462" y="519.7739">ErrorHttpResponse</text></g><g class="message" data-participant-1="Application" data-participant-2="Client"><polygon fill="#58A6FF" points="68.25,557.7533,56.5833,562.4199,68.25,567.0866,63.5833,562.4199" style="stroke:#58A6FF;stroke-width:1.1667;"/><line style="stroke:#58A6FF;stroke-width:1.1667;" x1="61.25" x2="378.1937" y1="562.4199" y2="562.4199"/><text fill="#C9D1D9" font-family="sans-serif" font-size="15.1667" font-weight="bold" lengthAdjust="spacing" textLength="16.87" x="69.4167" y="556.2801">10</text><text fill="#C9D1D9" font-family="sans-serif" font-size="15.1667" lengthAdjust="spacing" textLength="274.4071" x="90.9533" y="556.2801">Bad Request (400) + ErrorHttpResponse</text></g><!--SRC=[bPJVRzem4CVVyrUSj9TEKwK4LhhoC0a8j5AxCPMkxqTyCAl6pXndj9hslyzEGke5XshAI-JxtFT-sMUu4GJVSuQ6u9uodXESmuf-bYGpYY8iZPBbRaqwYeedBdFKk8CrPazRhKh9Paee3U_YUP8abnvH_42czbnkOOEY8CzIkMLAIzAG33m3opaaezYFKpHvmEy8u0iL1Mvf8lXMGaRIs9m09bghVPF5nQV9QB6mXtTyGtTSqbHfHhgn3kFXQ9ZwrcuLoIYP3WPED3DA_-FSIjUce_hJgdw0gNeE1tM67gy_ViaFRY0B9Kt3pAxI9BtoWCDihgrI7ehLX_PK-uf_LIRGazbWE8oxb1zsVkc-3k5LiBXmdsUlMhWoB_RYuPuAjVElHqeRB8Kvxe37J5r-g5z24mfGFMttq9cDffKuhNU0tfPBqU0Q2pgjrr9l2tv3RRXzcoZDQKqVx9D5rtwO2MwVKBHkcWIJF1SyGyELZBAwqcOVt5DXcje5wSUaOrwH_iKpikUiAGWEForvBTGQnVmvezm5k479XDieA0myek2iYWlBM_jGma7X_7Ct7eo1aQ2jsrpQtVJ2jEwlaFLhynf3MIywNK6MRar1-PfchtX0l2VTSTSfL93NS-jGS-d3qcqPpsB1UbYMMTx2sI2EtyC73oUxOFqsRf0BOYSZXmTY0z3XoBhtGAUAdjjjh6-CoQqjLxBud_f3ldrzc2ApkjNCuUnZtP1ZVvBiBm00]--></g></svg>