<svg xmlns="http://www.w3.org/2000/svg" contentStyleType="text/css" data-diagram-type="CLASS" height="907px"
     preserveAspectRatio="none" style="width:1300px;height:907px;background:#1E1E1E;" version="1.1"
     viewBox="0 0 1300 907" width="1300px" zoomAndPan="magnify"><defs/><g><rect fill="#1E1E1E" height="907" style="stroke:none;stroke-width:1;" width="1300" x="0" y="0"/><!--class JpaRepository--><g class="entity" data-entity="JpaRepository" data-source-line="17" data-uid="ent0002" id="entity_JpaRepository"><rect fill="#2D2D2D" height="48" rx="2.5" ry="2.5" style="stroke:#8A8A8A;stroke-width:0.5;" width="151.4873" x="7" y="311"/><ellipse cx="22" cy="327" fill="#B4A7E5" rx="11" ry="11" style="stroke:#181818;stroke-width:1;"/><path d="M22.9531,323.6406 L22.9531,330.2969 L24.6719,330.2969 Q25.2813,330.2969 25.5469,330.5313 Q25.8125,330.7656 25.8125,331.1563 Q25.8125,331.5313 25.5469,331.7656 Q25.2813,332 24.6719,332 L19.5313,332 Q18.9219,332 18.6563,331.7656 Q18.3906,331.5313 18.3906,331.1406 Q18.3906,330.7656 18.6563,330.5313 Q18.9219,330.2969 19.5313,330.2969 L21.25,330.2969 L21.25,323.6406 L19.5313,323.6406 Q18.9219,323.6406 18.6563,323.4063 Q18.3906,323.1719 18.3906,322.7813 Q18.3906,322.4063 18.6563,322.1719 Q18.9219,321.9375 19.5313,321.9375 L24.6719,321.9375 Q25.2813,321.9375 25.5469,322.1719 Q25.8125,322.4063 25.8125,322.7813 Q25.8125,323.1719 25.5469,323.4063 Q25.2813,323.6406 24.6719,323.6406 L22.9531,323.6406 Z " fill="#000000"/><text fill="#E0E0E0" font-family="sans-serif" font-size="14" font-style="italic" lengthAdjust="spacing" textLength="89.4893" x="36" y="332.7969">JpaRepository</text><rect fill="#2D2D2D" height="17.9609" style="stroke:#8A8A8A;stroke-width:1;stroke-dasharray:2,2;" width="27.998" x="133.4893" y="308"/><text fill="#000000" font-family="sans-serif" font-size="12" font-style="italic" lengthAdjust="spacing" textLength="25.998" x="134.4893" y="321.9492">T, ID</text><line style="stroke:#8A8A8A;stroke-width:0.5;" x1="8" x2="157.4873" y1="343" y2="343"/><line style="stroke:#8A8A8A;stroke-width:0.5;" x1="8" x2="157.4873" y1="351" y2="351"/></g><!--class RecipeRepositoryV2--><g class="entity" data-entity="RecipeRepositoryV2" data-source-line="19" data-uid="ent0003" id="entity_RecipeRepositoryV2"><rect fill="#2D2D2D" height="85.2422" rx="2.5" ry="2.5" style="stroke:#8A8A8A;stroke-width:0.5;" width="466.501" x="15" y="503"/><ellipse cx="180.1904" cy="519" fill="#B4A7E5" rx="11" ry="11" style="stroke:#181818;stroke-width:1;"/><path d="M181.1436,515.6406 L181.1436,522.2969 L182.8623,522.2969 Q183.4717,522.2969 183.7373,522.5313 Q184.0029,522.7656 184.0029,523.1563 Q184.0029,523.5313 183.7373,523.7656 Q183.4717,524 182.8623,524 L177.7217,524 Q177.1123,524 176.8467,523.7656 Q176.5811,523.5313 176.5811,523.1406 Q176.5811,522.7656 176.8467,522.5313 Q177.1123,522.2969 177.7217,522.2969 L179.4404,522.2969 L179.4404,515.6406 L177.7217,515.6406 Q177.1123,515.6406 176.8467,515.4063 Q176.5811,515.1719 176.5811,514.7813 Q176.5811,514.4063 176.8467,514.1719 Q177.1123,513.9375 177.7217,513.9375 L182.8623,513.9375 Q183.4717,513.9375 183.7373,514.1719 Q184.0029,514.4063 184.0029,514.7813 Q184.0029,515.1719 183.7373,515.4063 Q183.4717,515.6406 182.8623,515.6406 L181.1436,515.6406 Z " fill="#000000"/><text fill="#E0E0E0" font-family="sans-serif" font-size="14" font-style="italic" lengthAdjust="spacing" textLength="127.6201" x="200.6904" y="524.7969">RecipeRepositoryV2</text><line style="stroke:#8A8A8A;stroke-width:0.5;" x1="16" x2="480.501" y1="535" y2="535"/><line style="stroke:#8A8A8A;stroke-width:0.5;" x1="16" x2="480.501" y1="543" y2="543"/><ellipse cx="26" cy="557.8105" fill="#84BE84" rx="3" ry="3" style="stroke:#038048;stroke-width:1;"/><text fill="#FFFFFF" font-family="sans-serif" font-size="14" lengthAdjust="spacing" textLength="345.5566" x="35" y="562.1074">Page&lt;Recipe&gt; findDistinctRecipes(Pageable pageable)</text><ellipse cx="26" cy="576.4316" fill="#84BE84" rx="3" ry="3" style="stroke:#038048;stroke-width:1;"/><text fill="#FFFFFF" font-family="sans-serif" font-size="14" lengthAdjust="spacing" textLength="440.501" x="35" y="580.7285">Page&lt;Recipe&gt; search(@Param("text") String text, Pageable pageable)</text></g><!--class Mapper--><g class="entity" data-entity="Mapper" data-source-line="17" data-uid="ent0005" id="entity_Mapper"><rect fill="#2D2D2D" height="66.6211" rx="2.5" ry="2.5" style="stroke:#8A8A8A;stroke-width:0.5;" width="270.3301" x="754.5" y="301.5"/><ellipse cx="819.9951" cy="317.5" fill="#B4A7E5" rx="11" ry="11" style="stroke:#181818;stroke-width:1;"/><path d="M820.9482,314.1406 L820.9482,320.7969 L822.667,320.7969 Q823.2764,320.7969 823.542,321.0313 Q823.8076,321.2656 823.8076,321.6563 Q823.8076,322.0313 823.542,322.2656 Q823.2764,322.5 822.667,322.5 L817.5264,322.5 Q816.917,322.5 816.6514,322.2656 Q816.3857,322.0313 816.3857,321.6406 Q816.3857,321.2656 816.6514,321.0313 Q816.917,320.7969 817.5264,320.7969 L819.2451,320.7969 L819.2451,314.1406 L817.5264,314.1406 Q816.917,314.1406 816.6514,313.9063 Q816.3857,313.6719 816.3857,313.2813 Q816.3857,312.9063 816.6514,312.6719 Q816.917,312.4375 817.5264,312.4375 L822.667,312.4375 Q823.2764,312.4375 823.542,312.6719 Q823.8076,312.9063 823.8076,313.2813 Q823.8076,313.6719 823.542,313.9063 Q823.2764,314.1406 822.667,314.1406 L820.9482,314.1406 Z " fill="#000000"/><text fill="#E0E0E0" font-family="sans-serif" font-size="14" font-style="italic" lengthAdjust="spacing" textLength="47.4688" x="840.4951" y="323.2969">Mapper</text><rect fill="#2D2D2D" height="17.9609" style="stroke:#8A8A8A;stroke-width:1;stroke-dasharray:2,2;" width="81.3711" x="946.459" y="298.5"/><text fill="#000000" font-family="sans-serif" font-size="12" font-style="italic" lengthAdjust="spacing" textLength="79.3711" x="947.459" y="312.4492">Source, Target</text><line style="stroke:#8A8A8A;stroke-width:0.5;" x1="755.5" x2="1023.8301" y1="333.5" y2="333.5"/><line style="stroke:#8A8A8A;stroke-width:0.5;" x1="755.5" x2="1023.8301" y1="341.5" y2="341.5"/><ellipse cx="765.5" cy="356.3105" fill="#84BE84" rx="3" ry="3" style="stroke:#038048;stroke-width:1;"/><text fill="#FFFFFF" font-family="sans-serif" font-size="14" lengthAdjust="spacing" textLength="244.3301" x="774.5" y="360.6074">void map(Source source, Target target)</text></g><!--class ToEntityMapper--><g class="entity" data-entity="ToEntityMapper" data-source-line="17" data-uid="ent0006" id="entity_ToEntityMapper"><rect fill="#2D2D2D" height="66.6211" rx="2.5" ry="2.5" style="stroke:#8A8A8A;stroke-width:0.5;" width="229.082" x="1060" y="301.5"/><ellipse cx="1083.8022" cy="317.5" fill="#B4A7E5" rx="11" ry="11" style="stroke:#181818;stroke-width:1;"/><path d="M1084.7554,314.1406 L1084.7554,320.7969 L1086.4741,320.7969 Q1087.0835,320.7969 1087.3491,321.0313 Q1087.6147,321.2656 1087.6147,321.6563 Q1087.6147,322.0313 1087.3491,322.2656 Q1087.0835,322.5 1086.4741,322.5 L1081.3335,322.5 Q1080.7241,322.5 1080.4585,322.2656 Q1080.1929,322.0313 1080.1929,321.6406 Q1080.1929,321.2656 1080.4585,321.0313 Q1080.7241,320.7969 1081.3335,320.7969 L1083.0522,320.7969 L1083.0522,314.1406 L1081.3335,314.1406 Q1080.7241,314.1406 1080.4585,313.9063 Q1080.1929,313.6719 1080.1929,313.2813 Q1080.1929,312.9063 1080.4585,312.6719 Q1080.7241,312.4375 1081.3335,312.4375 L1086.4741,312.4375 Q1087.0835,312.4375 1087.3491,312.6719 Q1087.6147,312.9063 1087.6147,313.2813 Q1087.6147,313.6719 1087.3491,313.9063 Q1087.0835,314.1406 1086.4741,314.1406 L1084.7554,314.1406 Z " fill="#000000"/><text fill="#E0E0E0" font-family="sans-serif" font-size="14" font-style="italic" lengthAdjust="spacing" textLength="98.8203" x="1099.7583" y="323.2969">ToEntityMapper</text><rect fill="#2D2D2D" height="17.9609" style="stroke:#8A8A8A;stroke-width:1;stroke-dasharray:2,2;" width="76.7012" x="1215.3809" y="298.5"/><text fill="#000000" font-family="sans-serif" font-size="12" font-style="italic" lengthAdjust="spacing" textLength="74.7012" x="1216.3809" y="312.4492">Source, Entity</text><line style="stroke:#8A8A8A;stroke-width:0.5;" x1="1061" x2="1288.082" y1="333.5" y2="333.5"/><line style="stroke:#8A8A8A;stroke-width:0.5;" x1="1061" x2="1288.082" y1="341.5" y2="341.5"/><text fill="#FFFFFF" font-family="sans-serif" font-size="14" lengthAdjust="spacing" textLength="217.082" x="1066" y="360.6074">Entity mapToEntity(Source source)</text></g><!--class RecipeRequestBodyToRecipeMapper--><g class="entity" data-entity="RecipeRequestBodyToRecipeMapper" data-source-line="20" data-uid="ent0007" id="entity_RecipeRequestBodyToRecipeMapper"><rect fill="#2D2D2D" height="85.2422" rx="2.5" ry="2.5" style="stroke:#8A8A8A;stroke-width:0.5;" width="415.0879" x="682" y="503"/><ellipse cx="767.7842" cy="519" fill="#B4A7E5" rx="11" ry="11" style="stroke:#181818;stroke-width:1;"/><path d="M768.7373,515.6406 L768.7373,522.2969 L770.4561,522.2969 Q771.0654,522.2969 771.3311,522.5313 Q771.5967,522.7656 771.5967,523.1563 Q771.5967,523.5313 771.3311,523.7656 Q771.0654,524 770.4561,524 L765.3154,524 Q764.7061,524 764.4404,523.7656 Q764.1748,523.5313 764.1748,523.1406 Q764.1748,522.7656 764.4404,522.5313 Q764.7061,522.2969 765.3154,522.2969 L767.0342,522.2969 L767.0342,515.6406 L765.3154,515.6406 Q764.7061,515.6406 764.4404,515.4063 Q764.1748,515.1719 764.1748,514.7813 Q764.1748,514.4063 764.4404,514.1719 Q764.7061,513.9375 765.3154,513.9375 L770.4561,513.9375 Q771.0654,513.9375 771.3311,514.1719 Q771.5967,514.4063 771.5967,514.7813 Q771.5967,515.1719 771.3311,515.4063 Q771.0654,515.6406 770.4561,515.6406 L768.7373,515.6406 Z " fill="#000000"/><text fill="#E0E0E0" font-family="sans-serif" font-size="14" font-style="italic" lengthAdjust="spacing" textLength="235.0195" x="788.2842" y="524.7969">RecipeRequestBodyToRecipeMapper</text><line style="stroke:#8A8A8A;stroke-width:0.5;" x1="683" x2="1096.0879" y1="535" y2="535"/><line style="stroke:#8A8A8A;stroke-width:0.5;" x1="683" x2="1096.0879" y1="543" y2="543"/><ellipse cx="693" cy="557.8105" fill="#84BE84" rx="3" ry="3" style="stroke:#038048;stroke-width:1;"/><text fill="#FFFFFF" font-family="sans-serif" font-size="14" lengthAdjust="spacing" textLength="330.7227" x="702" y="562.1074">void map(RecipeRequestBody source, Recipe target)</text><ellipse cx="693" cy="576.4316" fill="#84BE84" rx="3" ry="3" style="stroke:#038048;stroke-width:1;"/><text fill="#FFFFFF" font-family="sans-serif" font-size="14" lengthAdjust="spacing" textLength="389.0879" x="702" y="580.7285">Recipe mapToEntity(RecipeRequestBody recipeRequestBody)</text></g><!--class DefaultRecipeRequestBodyToRecipeMapper--><g class="entity" data-entity="DefaultRecipeRequestBodyToRecipeMapper" data-source-line="25" data-uid="ent0010" id="entity_DefaultRecipeRequestBodyToRecipeMapper"><rect fill="#2D2D2D" height="252.832" rx="2.5" ry="2.5" style="stroke:#8A8A8A;stroke-width:0.5;" width="521.6943" x="628.5" y="648"/><ellipse cx="745.4082" cy="664" fill="#ADD1B2" rx="11" ry="11" style="stroke:#181818;stroke-width:1;"/><path d="M748.1738,659.875 Q748.3301,659.6563 748.5176,659.5469 Q748.7051,659.4375 748.9238,659.4375 Q749.2988,659.4375 749.5332,659.7031 Q749.7676,659.9531 749.7676,660.5625 L749.7676,662.0156 Q749.7676,662.625 749.5332,662.8906 Q749.2988,663.1563 748.9238,663.1563 Q748.5801,663.1563 748.377,662.9531 Q748.1738,662.7656 748.0645,662.25 Q748.0176,661.8906 747.8301,661.7031 Q747.502,661.3281 746.8926,661.1094 Q746.2832,660.8906 745.6582,660.8906 Q744.8926,660.8906 744.252,661.2188 Q743.627,661.5469 743.127,662.2969 Q742.6426,663.0469 742.6426,664.0781 L742.6426,665.1719 Q742.6426,666.4063 743.5332,667.2344 Q744.4238,668.0469 746.0176,668.0469 Q746.9551,668.0469 747.6113,667.7969 Q748.002,667.6406 748.4238,667.2031 Q748.6895,666.9375 748.8301,666.8594 Q748.9863,666.7813 749.1895,666.7813 Q749.5176,666.7813 749.7676,667.0469 Q750.0332,667.2969 750.0332,667.6406 Q750.0332,667.9844 749.6895,668.3906 Q749.1895,668.9688 748.3926,669.2969 Q747.3145,669.75 746.0176,669.75 Q744.502,669.75 743.2988,669.125 Q742.3145,668.625 741.627,667.5625 Q740.9395,666.4844 740.9395,665.2031 L740.9395,664.0469 Q740.9395,662.7188 741.5488,661.5781 Q742.1738,660.4219 743.2676,659.8125 Q744.3613,659.1875 745.5957,659.1875 Q746.3301,659.1875 746.9707,659.3594 Q747.627,659.5156 748.1738,659.875 Z " fill="#000000"/><text fill="#E0E0E0" font-family="sans-serif" font-size="14" lengthAdjust="spacing" textLength="279.3779" x="765.9082" y="669.7969">DefaultRecipeRequestBodyToRecipeMapper</text><line style="stroke:#8A8A8A;stroke-width:0.5;" x1="629.5" x2="1149.1943" y1="680" y2="680"/><line style="stroke:#8A8A8A;stroke-width:0.5;" x1="629.5" x2="1149.1943" y1="688" y2="688"/><ellipse cx="639.5" cy="702.8105" fill="#84BE84" rx="3" ry="3" style="stroke:#038048;stroke-width:1;"/><text fill="#FFFFFF" font-family="sans-serif" font-size="14" lengthAdjust="spacing" textLength="389.0879" x="648.5" y="707.1074">Recipe mapToEntity(RecipeRequestBody recipeRequestBody)</text><ellipse cx="639.5" cy="721.4316" fill="#84BE84" rx="3" ry="3" style="stroke:#038048;stroke-width:1;"/><text fill="#FFFFFF" font-family="sans-serif" font-size="14" lengthAdjust="spacing" textLength="413.2188" x="648.5" y="725.7285">void map(RecipeRequestBody recipeRequestBody, Recipe recipe)</text><rect fill="#F24D5C" height="6" style="stroke:#C82930;stroke-width:1;" width="6" x="636.5" y="737.0527"/><text fill="#FFFFFF" font-family="sans-serif" font-size="14" lengthAdjust="spacing" textLength="450.5635" x="648.5" y="744.3496">void mapName(RecipeRequestBody recipeRequestBody, Recipe recipe)</text><rect fill="#F24D5C" height="6" style="stroke:#C82930;stroke-width:1;" width="6" x="636.5" y="755.6738"/><text fill="#FFFFFF" font-family="sans-serif" font-size="14" lengthAdjust="spacing" textLength="452.1289" x="648.5" y="762.9707">void mapImage(RecipeRequestBody recipeRequestBody, Recipe recipe)</text><rect fill="#F24D5C" height="6" style="stroke:#C82930;stroke-width:1;" width="6" x="636.5" y="774.2949"/><text fill="#FFFFFF" font-family="sans-serif" font-size="14" lengthAdjust="spacing" textLength="483.2461" x="648.5" y="781.5918">void mapDescription(RecipeRequestBody recipeRequestBody, Recipe recipe)</text><rect fill="#F24D5C" height="6" style="stroke:#C82930;stroke-width:1;" width="6" x="636.5" y="792.916"/><text fill="#FFFFFF" font-family="sans-serif" font-size="14" lengthAdjust="spacing" textLength="466.1152" x="648.5" y="800.2129">void mapDifficulty(RecipeRequestBody recipeRequestBody, Recipe recipe)</text><rect fill="#F24D5C" height="6" style="stroke:#C82930;stroke-width:1;" width="6" x="636.5" y="811.5371"/><text fill="#FFFFFF" font-family="sans-serif" font-size="14" lengthAdjust="spacing" textLength="480.9219" x="648.5" y="818.834">void mapCategories(RecipeRequestBody recipeRequestBody, Recipe recipe)</text><rect fill="#F24D5C" height="6" style="stroke:#C82930;stroke-width:1;" width="6" x="636.5" y="830.1582"/><text fill="#FFFFFF" font-family="sans-serif" font-size="14" lengthAdjust="spacing" textLength="482.4873" x="648.5" y="837.4551">void mapIngredients(RecipeRequestBody recipeRequestBody, Recipe recipe)</text><rect fill="#F24D5C" height="6" style="stroke:#C82930;stroke-width:1;" width="6" x="636.5" y="848.7793"/><text fill="#FFFFFF" font-family="sans-serif" font-size="14" lengthAdjust="spacing" textLength="467.6875" x="648.5" y="856.0762">void mapServings(RecipeRequestBody recipeRequestBody, Recipe recipe)</text><rect fill="#F24D5C" height="6" style="stroke:#C82930;stroke-width:1;" width="6" x="636.5" y="867.4004"/><text fill="#FFFFFF" font-family="sans-serif" font-size="14" lengthAdjust="spacing" textLength="495.6943" x="648.5" y="874.6973">void mapCookingTime(RecipeRequestBody recipeRequestBody, Recipe recipe)</text><rect fill="#F24D5C" height="6" style="stroke:#C82930;stroke-width:1;" width="6" x="636.5" y="886.0215"/><text fill="#FFFFFF" font-family="sans-serif" font-size="14" lengthAdjust="spacing" textLength="484.8047" x="648.5" y="893.3184">void mapInstructions(RecipeRequestBody recipeRequestBody, Recipe recipe)</text></g><!--class RecipeServiceV2--><g class="entity" data-entity="RecipeServiceV2" data-source-line="20" data-uid="ent0012" id="entity_RecipeServiceV2"><rect fill="#2D2D2D" height="159.7266" rx="2.5" ry="2.5" style="stroke:#8A8A8A;stroke-width:0.5;" width="526.3838" x="193.5" y="7"/><ellipse cx="398.749" cy="23" fill="#B4A7E5" rx="11" ry="11" style="stroke:#181818;stroke-width:1;"/><path d="M399.7021,19.6406 L399.7021,26.2969 L401.4209,26.2969 Q402.0303,26.2969 402.2959,26.5313 Q402.5615,26.7656 402.5615,27.1563 Q402.5615,27.5313 402.2959,27.7656 Q402.0303,28 401.4209,28 L396.2803,28 Q395.6709,28 395.4053,27.7656 Q395.1396,27.5313 395.1396,27.1406 Q395.1396,26.7656 395.4053,26.5313 Q395.6709,26.2969 396.2803,26.2969 L397.999,26.2969 L397.999,19.6406 L396.2803,19.6406 Q395.6709,19.6406 395.4053,19.4063 Q395.1396,19.1719 395.1396,18.7813 Q395.1396,18.4063 395.4053,18.1719 Q395.6709,17.9375 396.2803,17.9375 L401.4209,17.9375 Q402.0303,17.9375 402.2959,18.1719 Q402.5615,18.4063 402.5615,18.7813 Q402.5615,19.1719 402.2959,19.4063 Q402.0303,19.6406 401.4209,19.6406 L399.7021,19.6406 Z " fill="#000000"/><text fill="#E0E0E0" font-family="sans-serif" font-size="14" font-style="italic" lengthAdjust="spacing" textLength="107.3857" x="419.249" y="28.7969">RecipeServiceV2</text><line style="stroke:#8A8A8A;stroke-width:0.5;" x1="194.5" x2="718.8838" y1="39" y2="39"/><line style="stroke:#8A8A8A;stroke-width:0.5;" x1="194.5" x2="718.8838" y1="47" y2="47"/><ellipse cx="204.5" cy="61.8105" fill="#84BE84" rx="3" ry="3" style="stroke:#038048;stroke-width:1;"/><text fill="#FFFFFF" font-family="sans-serif" font-size="14" lengthAdjust="spacing" textLength="331.5156" x="213.5" y="66.1074">void createRecipe(RecipeRequestBody requestBody)</text><ellipse cx="204.5" cy="80.4316" fill="#84BE84" rx="3" ry="3" style="stroke:#038048;stroke-width:1;"/><text fill="#FFFFFF" font-family="sans-serif" font-size="14" lengthAdjust="spacing" textLength="165.7646" x="213.5" y="84.7285">Recipe getRecipe(Long id)</text><ellipse cx="204.5" cy="99.0527" fill="#84BE84" rx="3" ry="3" style="stroke:#038048;stroke-width:1;"/><text fill="#FFFFFF" font-family="sans-serif" font-size="14" lengthAdjust="spacing" textLength="407.0186" x="213.5" y="103.3496">List&lt;Recipe&gt; getRecipes(Integer pageNumber, Integer pageSize)</text><ellipse cx="204.5" cy="117.6738" fill="#84BE84" rx="3" ry="3" style="stroke:#038048;stroke-width:1;"/><text fill="#FFFFFF" font-family="sans-serif" font-size="14" lengthAdjust="spacing" textLength="500.3838" x="213.5" y="121.9707">List&lt;Recipe&gt; searchRecipes(String text, Integer pageNumber, Integer pageSize)</text><ellipse cx="204.5" cy="136.2949" fill="#84BE84" rx="3" ry="3" style="stroke:#038048;stroke-width:1;"/><text fill="#FFFFFF" font-family="sans-serif" font-size="14" lengthAdjust="spacing" textLength="389.1357" x="213.5" y="140.5918">void updateRecipe(Long id, RecipeRequestBody requestBody)</text><ellipse cx="204.5" cy="154.916" fill="#84BE84" rx="3" ry="3" style="stroke:#038048;stroke-width:1;"/><text fill="#FFFFFF" font-family="sans-serif" font-size="14" lengthAdjust="spacing" textLength="166.5508" x="213.5" y="159.2129">void deleteRecipe(Long id)</text></g><!--class DefaultRecipeServiceV2--><g class="entity" data-entity="DefaultRecipeServiceV2" data-source-line="29" data-uid="ent0013" id="entity_DefaultRecipeServiceV2"><rect fill="#2D2D2D" height="215.5898" rx="2.5" ry="2.5" style="stroke:#8A8A8A;stroke-width:0.5;" width="526.3838" x="193.5" y="227"/><ellipse cx="376.5698" cy="243" fill="#ADD1B2" rx="11" ry="11" style="stroke:#181818;stroke-width:1;"/><path d="M379.3354,238.875 Q379.4917,238.6563 379.6792,238.5469 Q379.8667,238.4375 380.0854,238.4375 Q380.4604,238.4375 380.6948,238.7031 Q380.9292,238.9531 380.9292,239.5625 L380.9292,241.0156 Q380.9292,241.625 380.6948,241.8906 Q380.4604,242.1563 380.0854,242.1563 Q379.7417,242.1563 379.5386,241.9531 Q379.3354,241.7656 379.2261,241.25 Q379.1792,240.8906 378.9917,240.7031 Q378.6636,240.3281 378.0542,240.1094 Q377.4448,239.8906 376.8198,239.8906 Q376.0542,239.8906 375.4136,240.2188 Q374.7886,240.5469 374.2886,241.2969 Q373.8042,242.0469 373.8042,243.0781 L373.8042,244.1719 Q373.8042,245.4063 374.6948,246.2344 Q375.5854,247.0469 377.1792,247.0469 Q378.1167,247.0469 378.7729,246.7969 Q379.1636,246.6406 379.5854,246.2031 Q379.8511,245.9375 379.9917,245.8594 Q380.1479,245.7813 380.3511,245.7813 Q380.6792,245.7813 380.9292,246.0469 Q381.1948,246.2969 381.1948,246.6406 Q381.1948,246.9844 380.8511,247.3906 Q380.3511,247.9688 379.5542,248.2969 Q378.4761,248.75 377.1792,248.75 Q375.6636,248.75 374.4604,248.125 Q373.4761,247.625 372.7886,246.5625 Q372.1011,245.4844 372.1011,244.2031 L372.1011,243.0469 Q372.1011,241.7188 372.7104,240.5781 Q373.3354,239.4219 374.4292,238.8125 Q375.5229,238.1875 376.7573,238.1875 Q377.4917,238.1875 378.1323,238.3594 Q378.7886,238.5156 379.3354,238.875 Z " fill="#000000"/><text fill="#E0E0E0" font-family="sans-serif" font-size="14" lengthAdjust="spacing" textLength="151.7441" x="397.0698" y="248.7969">DefaultRecipeServiceV2</text><line style="stroke:#8A8A8A;stroke-width:0.5;" x1="194.5" x2="718.8838" y1="259" y2="259"/><rect fill="none" height="6" style="stroke:#C82930;stroke-width:1;" width="6" x="201.5" y="270.8105"/><text fill="#FFFFFF" font-family="sans-serif" font-size="14" lengthAdjust="spacing" textLength="192.9785" x="213.5" y="278.1074">RecipeRepositoryV2 repository</text><rect fill="none" height="6" style="stroke:#C82930;stroke-width:1;" width="6" x="201.5" y="289.4316"/><text fill="#FFFFFF" font-family="sans-serif" font-size="14" lengthAdjust="spacing" textLength="286.3779" x="213.5" y="296.7285">RecipeRequestBodyToRecipeMapper mapper</text><line style="stroke:#8A8A8A;stroke-width:0.5;" x1="194.5" x2="718.8838" y1="304.2422" y2="304.2422"/><ellipse cx="204.5" cy="319.0527" fill="#84BE84" rx="3" ry="3" style="stroke:#038048;stroke-width:1;"/><text fill="#FFFFFF" font-family="sans-serif" font-size="14" lengthAdjust="spacing" textLength="331.5156" x="213.5" y="323.3496">void createRecipe(RecipeRequestBody requestBody)</text><ellipse cx="204.5" cy="337.6738" fill="#84BE84" rx="3" ry="3" style="stroke:#038048;stroke-width:1;"/><text fill="#FFFFFF" font-family="sans-serif" font-size="14" lengthAdjust="spacing" textLength="165.7646" x="213.5" y="341.9707">Recipe getRecipe(Long id)</text><ellipse cx="204.5" cy="356.2949" fill="#84BE84" rx="3" ry="3" style="stroke:#038048;stroke-width:1;"/><text fill="#FFFFFF" font-family="sans-serif" font-size="14" lengthAdjust="spacing" textLength="407.0186" x="213.5" y="360.5918">List&lt;Recipe&gt; getRecipes(Integer pageNumber, Integer pageSize)</text><ellipse cx="204.5" cy="374.916" fill="#84BE84" rx="3" ry="3" style="stroke:#038048;stroke-width:1;"/><text fill="#FFFFFF" font-family="sans-serif" font-size="14" lengthAdjust="spacing" textLength="500.3838" x="213.5" y="379.2129">List&lt;Recipe&gt; searchRecipes(String text, Integer pageNumber, Integer pageSize)</text><ellipse cx="204.5" cy="393.5371" fill="#84BE84" rx="3" ry="3" style="stroke:#038048;stroke-width:1;"/><text fill="#FFFFFF" font-family="sans-serif" font-size="14" lengthAdjust="spacing" textLength="389.1357" x="213.5" y="397.834">void updateRecipe(Long id, RecipeRequestBody requestBody)</text><rect fill="#F24D5C" height="6" style="stroke:#C82930;stroke-width:1;" width="6" x="201.5" y="409.1582"/><text fill="#FFFFFF" font-family="sans-serif" font-size="14" lengthAdjust="spacing" textLength="150.1855" x="213.5" y="416.4551">byte[] getDefaultImage()</text><ellipse cx="204.5" cy="430.7793" fill="#84BE84" rx="3" ry="3" style="stroke:#038048;stroke-width:1;"/><text fill="#FFFFFF" font-family="sans-serif" font-size="14" lengthAdjust="spacing" textLength="166.5508" x="213.5" y="435.0762">void deleteRecipe(Long id)</text></g><!--reverse link JpaRepository to RecipeRepositoryV2--><g class="link" data-entity-1="JpaRepository" data-entity-2="RecipeRepositoryV2" data-source-line="20" data-uid="lnk4" id="link_JpaRepository_RecipeRepositoryV2"><path d="M86.5,377.15 C86.5,412.14 86.5,459.47 86.5,502.73" fill="none" id="JpaRepository-backto-RecipeRepositoryV2" style="stroke:#B0C4DE;stroke-width:1;"/><polygon fill="none" points="86.5,359.15,80.5,377.15,92.5,377.15,86.5,359.15" style="stroke:#B0C4DE;stroke-width:1;"/></g><!--reverse link Mapper to RecipeRequestBodyToRecipeMapper--><g class="link" data-entity-1="Mapper" data-entity-2="RecipeRequestBodyToRecipeMapper" data-source-line="21" data-uid="lnk8" id="link_Mapper_RecipeRequestBodyToRecipeMapper"><path d="M889.5,386.82 C889.5,423.2 889.5,463.13 889.5,502.66" fill="none" id="Mapper-backto-RecipeRequestBodyToRecipeMapper" style="stroke:#B0C4DE;stroke-width:1;"/><polygon fill="none" points="889.5,368.82,883.5,386.82,895.5,386.82,889.5,368.82" style="stroke:#B0C4DE;stroke-width:1;"/></g><!--reverse link ToEntityMapper to RecipeRequestBodyToRecipeMapper--><g class="link" data-entity-1="ToEntityMapper" data-entity-2="RecipeRequestBodyToRecipeMapper" data-source-line="21" data-uid="lnk9" id="link_ToEntityMapper_RecipeRequestBodyToRecipeMapper"><path d="M1078.5,386.82 C1078.5,423.2 1078.5,463.13 1078.5,502.66" fill="none" id="ToEntityMapper-backto-RecipeRequestBodyToRecipeMapper" style="stroke:#B0C4DE;stroke-width:1;"/><polygon fill="none" points="1078.5,368.82,1072.5,386.82,1084.5,386.82,1078.5,368.82" style="stroke:#B0C4DE;stroke-width:1;"/></g><!--reverse link RecipeRequestBodyToRecipeMapper to DefaultRecipeRequestBodyToRecipeMapper--><g class="link" data-entity-1="RecipeRequestBodyToRecipeMapper" data-entity-2="DefaultRecipeRequestBodyToRecipeMapper" data-source-line="26" data-uid="lnk11" id="link_RecipeRequestBodyToRecipeMapper_DefaultRecipeRequestBodyToRecipeMapper"><path d="M889.5,606.04 C889.5,623.24 889.5,626.09 889.5,647.53" fill="none" id="RecipeRequestBodyToRecipeMapper-backto-DefaultRecipeRequestBodyToRecipeMapper" style="stroke:#B0C4DE;stroke-width:1;stroke-dasharray:7,7;"/><polygon fill="none" points="889.5,588.04,883.5,606.04,895.5,606.04,889.5,588.04" style="stroke:#B0C4DE;stroke-width:1;"/></g><!--reverse link RecipeServiceV2 to DefaultRecipeServiceV2--><g class="link" data-entity-1="RecipeServiceV2" data-entity-2="DefaultRecipeServiceV2" data-source-line="30" data-uid="lnk14" id="link_RecipeServiceV2_DefaultRecipeServiceV2"><path d="M456.5,185.18 C456.5,204.14 456.5,206.67 456.5,226.65" fill="none" id="RecipeServiceV2-backto-DefaultRecipeServiceV2" style="stroke:#B0C4DE;stroke-width:1;stroke-dasharray:7,7;"/><polygon fill="none" points="456.5,167.18,450.5,185.18,462.5,185.18,456.5,167.18" style="stroke:#B0C4DE;stroke-width:1;"/></g><!--link DefaultRecipeServiceV2 to RecipeRepositoryV2--><g class="link" data-entity-1="DefaultRecipeServiceV2" data-entity-2="RecipeRepositoryV2" data-source-line="42" data-uid="lnk15" id="link_DefaultRecipeServiceV2_RecipeRepositoryV2"><path codeLine="42" d="M337.75,443.02 C337.75,464.22 337.75,479.27 337.75,496.73" fill="none" id="DefaultRecipeServiceV2-to-RecipeRepositoryV2" style="stroke:#B0C4DE;stroke-width:1;"/><polygon fill="#B0C4DE" points="337.75,502.73,341.75,493.73,337.75,497.73,333.75,493.73,337.75,502.73" style="stroke:#B0C4DE;stroke-width:1;"/></g><!--link DefaultRecipeServiceV2 to RecipeRequestBodyToRecipeMapper--><g class="link" data-entity-1="DefaultRecipeServiceV2" data-entity-2="RecipeRequestBodyToRecipeMapper" data-source-line="43" data-uid="lnk16" id="link_DefaultRecipeServiceV2_RecipeRequestBodyToRecipeMapper"><path codeLine="43" d="M700.75,443.02 C700.75,464.22 700.75,479.27 700.75,496.73" fill="none" id="DefaultRecipeServiceV2-to-RecipeRequestBodyToRecipeMapper" style="stroke:#B0C4DE;stroke-width:1;"/><polygon fill="#B0C4DE" points="700.75,502.73,704.75,493.73,700.75,497.73,696.75,493.73,700.75,502.73" style="stroke:#B0C4DE;stroke-width:1;"/></g><!--SRC=[xPDDJyCm38Rl_HL6N8ROq9WuS42JzYaX0GU6k20EMU9rqT8cE2am4F-TfErOwJPjtAcbVjYF7JjlQXSoDOnO0agcw9O6GPERwyZ-1AQCBsBIMIe6Mcc2u_DHi0eXSCOovHxmtVMKZDC4KmVStv0gL8z8lvKb-kt1nR1QmiwPq6yoZM76bCLAPAnJLsQDywiIuufPknVeEKTocZdSIzwY7rriOdKEFYE0VdrVEiDW8Q9989NUorumxwsK7RM3HLzHT2HJhZA1S8zS6hn7ewrqcfQFdJEJ9MeJUCdGkhuMomTTk6wPCKW57ScmwJF6L_m4wLLoVEpaBGESmgkM0ZWXSrWWZOtAGEltapAjW216LsRTQ2-M5AluZRJkgWXrrvHjNFk6OYGmBCQxB9aYDQ7gcyWFt5h38YC-NvMPU0dzUiuViT_v-shcusP6hCSj6s_2GNFd-G8LrlDFWdp5QHWMvx- -up8n2iE_O7U8qTgYkkzXzL5ZTWWFIVw8_kNzkxmjc2uTFZs7YKeHhnE_GkCmzNVetcfrjmXx2Br3ucy0]--></g></svg>