<svg xmlns="http://www.w3.org/2000/svg" contentStyleType="text/css" data-diagram-type="CLASS" height="1219px"
     preserveAspectRatio="none" style="width:1772px;height:1219px;background:#1E1E1E;" version="1.1"
     viewBox="0 0 1772 1219" width="1772px" zoomAndPan="magnify"><defs/><g><rect fill="#1E1E1E" height="1219" style="stroke:none;stroke-width:1;" width="1772" x="0" y="0"/><!--class JpaRepository--><g class="entity" data-entity="JpaRepository" data-source-line="17" data-uid="ent0002" id="entity_JpaRepository"><rect fill="#2D2D2D" height="48" rx="2.5" ry="2.5" style="stroke:#8A8A8A;stroke-width:0.5;" width="151.4873" x="64" y="595.5"/><ellipse cx="79" cy="611.5" fill="#B4A7E5" rx="11" ry="11" style="stroke:#181818;stroke-width:1;"/><path d="M79.9531,608.1406 L79.9531,614.7969 L81.6719,614.7969 Q82.2813,614.7969 82.5469,615.0313 Q82.8125,615.2656 82.8125,615.6563 Q82.8125,616.0313 82.5469,616.2656 Q82.2813,616.5 81.6719,616.5 L76.5313,616.5 Q75.9219,616.5 75.6563,616.2656 Q75.3906,616.0313 75.3906,615.6406 Q75.3906,615.2656 75.6563,615.0313 Q75.9219,614.7969 76.5313,614.7969 L78.25,614.7969 L78.25,608.1406 L76.5313,608.1406 Q75.9219,608.1406 75.6563,607.9063 Q75.3906,607.6719 75.3906,607.2813 Q75.3906,606.9063 75.6563,606.6719 Q75.9219,606.4375 76.5313,606.4375 L81.6719,606.4375 Q82.2813,606.4375 82.5469,606.6719 Q82.8125,606.9063 82.8125,607.2813 Q82.8125,607.6719 82.5469,607.9063 Q82.2813,608.1406 81.6719,608.1406 L79.9531,608.1406 Z " fill="#000000"/><text fill="#E0E0E0" font-family="sans-serif" font-size="14" font-style="italic" lengthAdjust="spacing" textLength="89.4893" x="93" y="617.2969">JpaRepository</text><rect fill="#2D2D2D" height="17.9609" style="stroke:#8A8A8A;stroke-width:1;stroke-dasharray:2,2;" width="27.998" x="190.4893" y="592.5"/><text fill="#000000" font-family="sans-serif" font-size="12" font-style="italic" lengthAdjust="spacing" textLength="25.998" x="191.4893" y="606.4492">T, ID</text><line style="stroke:#8A8A8A;stroke-width:0.5;" x1="65" x2="214.4873" y1="627.5" y2="627.5"/><line style="stroke:#8A8A8A;stroke-width:0.5;" x1="65" x2="214.4873" y1="635.5" y2="635.5"/></g><!--class RecipeRepositoryV2--><g class="entity" data-entity="RecipeRepositoryV2" data-source-line="19" data-uid="ent0003" id="entity_RecipeRepositoryV2"><rect fill="#2D2D2D" height="85.2422" rx="2.5" ry="2.5" style="stroke:#8A8A8A;stroke-width:0.5;" width="466.501" x="93" y="815"/><ellipse cx="258.1904" cy="831" fill="#B4A7E5" rx="11" ry="11" style="stroke:#181818;stroke-width:1;"/><path d="M259.1436,827.6406 L259.1436,834.2969 L260.8623,834.2969 Q261.4717,834.2969 261.7373,834.5313 Q262.0029,834.7656 262.0029,835.1563 Q262.0029,835.5313 261.7373,835.7656 Q261.4717,836 260.8623,836 L255.7217,836 Q255.1123,836 254.8467,835.7656 Q254.5811,835.5313 254.5811,835.1406 Q254.5811,834.7656 254.8467,834.5313 Q255.1123,834.2969 255.7217,834.2969 L257.4404,834.2969 L257.4404,827.6406 L255.7217,827.6406 Q255.1123,827.6406 254.8467,827.4063 Q254.5811,827.1719 254.5811,826.7813 Q254.5811,826.4063 254.8467,826.1719 Q255.1123,825.9375 255.7217,825.9375 L260.8623,825.9375 Q261.4717,825.9375 261.7373,826.1719 Q262.0029,826.4063 262.0029,826.7813 Q262.0029,827.1719 261.7373,827.4063 Q261.4717,827.6406 260.8623,827.6406 L259.1436,827.6406 Z " fill="#000000"/><text fill="#E0E0E0" font-family="sans-serif" font-size="14" font-style="italic" lengthAdjust="spacing" textLength="127.6201" x="278.6904" y="836.7969">RecipeRepositoryV2</text><line style="stroke:#8A8A8A;stroke-width:0.5;" x1="94" x2="558.501" y1="847" y2="847"/><line style="stroke:#8A8A8A;stroke-width:0.5;" x1="94" x2="558.501" y1="855" y2="855"/><ellipse cx="104" cy="869.8105" fill="#84BE84" rx="3" ry="3" style="stroke:#038048;stroke-width:1;"/><text fill="#FFFFFF" font-family="sans-serif" font-size="14" lengthAdjust="spacing" textLength="345.5566" x="113" y="874.1074">Page&lt;Recipe&gt; findDistinctRecipes(Pageable pageable)</text><ellipse cx="104" cy="888.4316" fill="#84BE84" rx="3" ry="3" style="stroke:#038048;stroke-width:1;"/><text fill="#FFFFFF" font-family="sans-serif" font-size="14" lengthAdjust="spacing" textLength="440.501" x="113" y="892.7285">Page&lt;Recipe&gt; search(@Param("text") String text, Pageable pageable)</text></g><!--class Mapper--><g class="entity" data-entity="Mapper" data-source-line="17" data-uid="ent0005" id="entity_Mapper"><rect fill="#2D2D2D" height="66.6211" rx="2.5" ry="2.5" style="stroke:#8A8A8A;stroke-width:0.5;" width="270.3301" x="1430.5" y="72"/><ellipse cx="1495.9951" cy="88" fill="#B4A7E5" rx="11" ry="11" style="stroke:#181818;stroke-width:1;"/><path d="M1496.9482,84.6406 L1496.9482,91.2969 L1498.667,91.2969 Q1499.2764,91.2969 1499.542,91.5313 Q1499.8076,91.7656 1499.8076,92.1563 Q1499.8076,92.5313 1499.542,92.7656 Q1499.2764,93 1498.667,93 L1493.5264,93 Q1492.917,93 1492.6514,92.7656 Q1492.3857,92.5313 1492.3857,92.1406 Q1492.3857,91.7656 1492.6514,91.5313 Q1492.917,91.2969 1493.5264,91.2969 L1495.2451,91.2969 L1495.2451,84.6406 L1493.5264,84.6406 Q1492.917,84.6406 1492.6514,84.4063 Q1492.3857,84.1719 1492.3857,83.7813 Q1492.3857,83.4063 1492.6514,83.1719 Q1492.917,82.9375 1493.5264,82.9375 L1498.667,82.9375 Q1499.2764,82.9375 1499.542,83.1719 Q1499.8076,83.4063 1499.8076,83.7813 Q1499.8076,84.1719 1499.542,84.4063 Q1499.2764,84.6406 1498.667,84.6406 L1496.9482,84.6406 Z " fill="#000000"/><text fill="#E0E0E0" font-family="sans-serif" font-size="14" font-style="italic" lengthAdjust="spacing" textLength="47.4688" x="1516.4951" y="93.7969">Mapper</text><rect fill="#2D2D2D" height="17.9609" style="stroke:#8A8A8A;stroke-width:1;stroke-dasharray:2,2;" width="81.3711" x="1622.459" y="69"/><text fill="#000000" font-family="sans-serif" font-size="12" font-style="italic" lengthAdjust="spacing" textLength="79.3711" x="1623.459" y="82.9492">Source, Target</text><line style="stroke:#8A8A8A;stroke-width:0.5;" x1="1431.5" x2="1699.8301" y1="104" y2="104"/><line style="stroke:#8A8A8A;stroke-width:0.5;" x1="1431.5" x2="1699.8301" y1="112" y2="112"/><ellipse cx="1441.5" cy="126.8105" fill="#84BE84" rx="3" ry="3" style="stroke:#038048;stroke-width:1;"/><text fill="#FFFFFF" font-family="sans-serif" font-size="14" lengthAdjust="spacing" textLength="244.3301" x="1450.5" y="131.1074">void map(Source source, Target target)</text></g><!--class ToEntityMapper--><g class="entity" data-entity="ToEntityMapper" data-source-line="17" data-uid="ent0006" id="entity_ToEntityMapper"><rect fill="#2D2D2D" height="66.6211" rx="2.5" ry="2.5" style="stroke:#8A8A8A;stroke-width:0.5;" width="229.082" x="1390" y="586"/><ellipse cx="1413.8022" cy="602" fill="#B4A7E5" rx="11" ry="11" style="stroke:#181818;stroke-width:1;"/><path d="M1414.7554,598.6406 L1414.7554,605.2969 L1416.4741,605.2969 Q1417.0835,605.2969 1417.3491,605.5313 Q1417.6147,605.7656 1417.6147,606.1563 Q1417.6147,606.5313 1417.3491,606.7656 Q1417.0835,607 1416.4741,607 L1411.3335,607 Q1410.7241,607 1410.4585,606.7656 Q1410.1929,606.5313 1410.1929,606.1406 Q1410.1929,605.7656 1410.4585,605.5313 Q1410.7241,605.2969 1411.3335,605.2969 L1413.0522,605.2969 L1413.0522,598.6406 L1411.3335,598.6406 Q1410.7241,598.6406 1410.4585,598.4063 Q1410.1929,598.1719 1410.1929,597.7813 Q1410.1929,597.4063 1410.4585,597.1719 Q1410.7241,596.9375 1411.3335,596.9375 L1416.4741,596.9375 Q1417.0835,596.9375 1417.3491,597.1719 Q1417.6147,597.4063 1417.6147,597.7813 Q1417.6147,598.1719 1417.3491,598.4063 Q1417.0835,598.6406 1416.4741,598.6406 L1414.7554,598.6406 Z " fill="#000000"/><text fill="#E0E0E0" font-family="sans-serif" font-size="14" font-style="italic" lengthAdjust="spacing" textLength="98.8203" x="1429.7583" y="607.7969">ToEntityMapper</text><rect fill="#2D2D2D" height="17.9609" style="stroke:#8A8A8A;stroke-width:1;stroke-dasharray:2,2;" width="76.7012" x="1545.3809" y="583"/><text fill="#000000" font-family="sans-serif" font-size="12" font-style="italic" lengthAdjust="spacing" textLength="74.7012" x="1546.3809" y="596.9492">Source, Entity</text><line style="stroke:#8A8A8A;stroke-width:0.5;" x1="1391" x2="1618.082" y1="618" y2="618"/><line style="stroke:#8A8A8A;stroke-width:0.5;" x1="1391" x2="1618.082" y1="626" y2="626"/><text fill="#FFFFFF" font-family="sans-serif" font-size="14" lengthAdjust="spacing" textLength="217.082" x="1396" y="645.1074">Entity mapToEntity(Source source)</text></g><!--class RecipeRequestBodyToRecipeMapper--><g class="entity" data-entity="RecipeRequestBodyToRecipeMapper" data-source-line="20" data-uid="ent0007" id="entity_RecipeRequestBodyToRecipeMapper"><rect fill="#2D2D2D" height="85.2422" rx="2.5" ry="2.5" style="stroke:#8A8A8A;stroke-width:0.5;" width="415.0879" x="1297" y="815"/><ellipse cx="1382.7842" cy="831" fill="#B4A7E5" rx="11" ry="11" style="stroke:#181818;stroke-width:1;"/><path d="M1383.7373,827.6406 L1383.7373,834.2969 L1385.4561,834.2969 Q1386.0654,834.2969 1386.3311,834.5313 Q1386.5967,834.7656 1386.5967,835.1563 Q1386.5967,835.5313 1386.3311,835.7656 Q1386.0654,836 1385.4561,836 L1380.3154,836 Q1379.7061,836 1379.4404,835.7656 Q1379.1748,835.5313 1379.1748,835.1406 Q1379.1748,834.7656 1379.4404,834.5313 Q1379.7061,834.2969 1380.3154,834.2969 L1382.0342,834.2969 L1382.0342,827.6406 L1380.3154,827.6406 Q1379.7061,827.6406 1379.4404,827.4063 Q1379.1748,827.1719 1379.1748,826.7813 Q1379.1748,826.4063 1379.4404,826.1719 Q1379.7061,825.9375 1380.3154,825.9375 L1385.4561,825.9375 Q1386.0654,825.9375 1386.3311,826.1719 Q1386.5967,826.4063 1386.5967,826.7813 Q1386.5967,827.1719 1386.3311,827.4063 Q1386.0654,827.6406 1385.4561,827.6406 L1383.7373,827.6406 Z " fill="#000000"/><text fill="#E0E0E0" font-family="sans-serif" font-size="14" font-style="italic" lengthAdjust="spacing" textLength="235.0195" x="1403.2842" y="836.7969">RecipeRequestBodyToRecipeMapper</text><line style="stroke:#8A8A8A;stroke-width:0.5;" x1="1298" x2="1711.0879" y1="847" y2="847"/><line style="stroke:#8A8A8A;stroke-width:0.5;" x1="1298" x2="1711.0879" y1="855" y2="855"/><ellipse cx="1308" cy="869.8105" fill="#84BE84" rx="3" ry="3" style="stroke:#038048;stroke-width:1;"/><text fill="#FFFFFF" font-family="sans-serif" font-size="14" lengthAdjust="spacing" textLength="330.7227" x="1317" y="874.1074">void map(RecipeRequestBody source, Recipe target)</text><ellipse cx="1308" cy="888.4316" fill="#84BE84" rx="3" ry="3" style="stroke:#038048;stroke-width:1;"/><text fill="#FFFFFF" font-family="sans-serif" font-size="14" lengthAdjust="spacing" textLength="389.0879" x="1317" y="892.7285">Recipe mapToEntity(RecipeRequestBody recipeRequestBody)</text></g><!--class DefaultRecipeRequestBodyToRecipeMapper--><g class="entity" data-entity="DefaultRecipeRequestBodyToRecipeMapper" data-source-line="25" data-uid="ent0010" id="entity_DefaultRecipeRequestBodyToRecipeMapper"><rect fill="#2D2D2D" height="252.832" rx="2.5" ry="2.5" style="stroke:#8A8A8A;stroke-width:0.5;" width="521.6943" x="1243.5" y="960"/><ellipse cx="1360.4082" cy="976" fill="#ADD1B2" rx="11" ry="11" style="stroke:#181818;stroke-width:1;"/><path d="M1363.1738,971.875 Q1363.3301,971.6563 1363.5176,971.5469 Q1363.7051,971.4375 1363.9238,971.4375 Q1364.2988,971.4375 1364.5332,971.7031 Q1364.7676,971.9531 1364.7676,972.5625 L1364.7676,974.0156 Q1364.7676,974.625 1364.5332,974.8906 Q1364.2988,975.1563 1363.9238,975.1563 Q1363.5801,975.1563 1363.377,974.9531 Q1363.1738,974.7656 1363.0645,974.25 Q1363.0176,973.8906 1362.8301,973.7031 Q1362.502,973.3281 1361.8926,973.1094 Q1361.2832,972.8906 1360.6582,972.8906 Q1359.8926,972.8906 1359.252,973.2188 Q1358.627,973.5469 1358.127,974.2969 Q1357.6426,975.0469 1357.6426,976.0781 L1357.6426,977.1719 Q1357.6426,978.4063 1358.5332,979.2344 Q1359.4238,980.0469 1361.0176,980.0469 Q1361.9551,980.0469 1362.6113,979.7969 Q1363.002,979.6406 1363.4238,979.2031 Q1363.6895,978.9375 1363.8301,978.8594 Q1363.9863,978.7813 1364.1895,978.7813 Q1364.5176,978.7813 1364.7676,979.0469 Q1365.0332,979.2969 1365.0332,979.6406 Q1365.0332,979.9844 1364.6895,980.3906 Q1364.1895,980.9688 1363.3926,981.2969 Q1362.3145,981.75 1361.0176,981.75 Q1359.502,981.75 1358.2988,981.125 Q1357.3145,980.625 1356.627,979.5625 Q1355.9395,978.4844 1355.9395,977.2031 L1355.9395,976.0469 Q1355.9395,974.7188 1356.5488,973.5781 Q1357.1738,972.4219 1358.2676,971.8125 Q1359.3613,971.1875 1360.5957,971.1875 Q1361.3301,971.1875 1361.9707,971.3594 Q1362.627,971.5156 1363.1738,971.875 Z " fill="#000000"/><text fill="#E0E0E0" font-family="sans-serif" font-size="14" lengthAdjust="spacing" textLength="279.3779" x="1380.9082" y="981.7969">DefaultRecipeRequestBodyToRecipeMapper</text><line style="stroke:#8A8A8A;stroke-width:0.5;" x1="1244.5" x2="1764.1943" y1="992" y2="992"/><line style="stroke:#8A8A8A;stroke-width:0.5;" x1="1244.5" x2="1764.1943" y1="1000" y2="1000"/><ellipse cx="1254.5" cy="1014.8105" fill="#84BE84" rx="3" ry="3" style="stroke:#038048;stroke-width:1;"/><text fill="#FFFFFF" font-family="sans-serif" font-size="14" lengthAdjust="spacing" textLength="389.0879" x="1263.5" y="1019.1074">Recipe mapToEntity(RecipeRequestBody recipeRequestBody)</text><ellipse cx="1254.5" cy="1033.4316" fill="#84BE84" rx="3" ry="3" style="stroke:#038048;stroke-width:1;"/><text fill="#FFFFFF" font-family="sans-serif" font-size="14" lengthAdjust="spacing" textLength="413.2188" x="1263.5" y="1037.7285">void map(RecipeRequestBody recipeRequestBody, Recipe recipe)</text><rect fill="#F24D5C" height="6" style="stroke:#C82930;stroke-width:1;" width="6" x="1251.5" y="1049.0527"/><text fill="#FFFFFF" font-family="sans-serif" font-size="14" lengthAdjust="spacing" textLength="450.5635" x="1263.5" y="1056.3496">void mapName(RecipeRequestBody recipeRequestBody, Recipe recipe)</text><rect fill="#F24D5C" height="6" style="stroke:#C82930;stroke-width:1;" width="6" x="1251.5" y="1067.6738"/><text fill="#FFFFFF" font-family="sans-serif" font-size="14" lengthAdjust="spacing" textLength="452.1289" x="1263.5" y="1074.9707">void mapImage(RecipeRequestBody recipeRequestBody, Recipe recipe)</text><rect fill="#F24D5C" height="6" style="stroke:#C82930;stroke-width:1;" width="6" x="1251.5" y="1086.2949"/><text fill="#FFFFFF" font-family="sans-serif" font-size="14" lengthAdjust="spacing" textLength="483.2461" x="1263.5" y="1093.5918">void mapDescription(RecipeRequestBody recipeRequestBody, Recipe recipe)</text><rect fill="#F24D5C" height="6" style="stroke:#C82930;stroke-width:1;" width="6" x="1251.5" y="1104.916"/><text fill="#FFFFFF" font-family="sans-serif" font-size="14" lengthAdjust="spacing" textLength="466.1152" x="1263.5" y="1112.2129">void mapDifficulty(RecipeRequestBody recipeRequestBody, Recipe recipe)</text><rect fill="#F24D5C" height="6" style="stroke:#C82930;stroke-width:1;" width="6" x="1251.5" y="1123.5371"/><text fill="#FFFFFF" font-family="sans-serif" font-size="14" lengthAdjust="spacing" textLength="480.9219" x="1263.5" y="1130.834">void mapCategories(RecipeRequestBody recipeRequestBody, Recipe recipe)</text><rect fill="#F24D5C" height="6" style="stroke:#C82930;stroke-width:1;" width="6" x="1251.5" y="1142.1582"/><text fill="#FFFFFF" font-family="sans-serif" font-size="14" lengthAdjust="spacing" textLength="482.4873" x="1263.5" y="1149.4551">void mapIngredients(RecipeRequestBody recipeRequestBody, Recipe recipe)</text><rect fill="#F24D5C" height="6" style="stroke:#C82930;stroke-width:1;" width="6" x="1251.5" y="1160.7793"/><text fill="#FFFFFF" font-family="sans-serif" font-size="14" lengthAdjust="spacing" textLength="467.6875" x="1263.5" y="1168.0762">void mapServings(RecipeRequestBody recipeRequestBody, Recipe recipe)</text><rect fill="#F24D5C" height="6" style="stroke:#C82930;stroke-width:1;" width="6" x="1251.5" y="1179.4004"/><text fill="#FFFFFF" font-family="sans-serif" font-size="14" lengthAdjust="spacing" textLength="495.6943" x="1263.5" y="1186.6973">void mapCookingTime(RecipeRequestBody recipeRequestBody, Recipe recipe)</text><rect fill="#F24D5C" height="6" style="stroke:#C82930;stroke-width:1;" width="6" x="1251.5" y="1198.0215"/><text fill="#FFFFFF" font-family="sans-serif" font-size="14" lengthAdjust="spacing" textLength="484.8047" x="1263.5" y="1205.3184">void mapInstructions(RecipeRequestBody recipeRequestBody, Recipe recipe)</text></g><!--class RecipeServiceV2--><g class="entity" data-entity="RecipeServiceV2" data-source-line="20" data-uid="ent0012" id="entity_RecipeServiceV2"><rect fill="#2D2D2D" height="159.7266" rx="2.5" ry="2.5" style="stroke:#8A8A8A;stroke-width:0.5;" width="526.3838" x="250.5" y="264"/><ellipse cx="455.749" cy="280" fill="#B4A7E5" rx="11" ry="11" style="stroke:#181818;stroke-width:1;"/><path d="M456.7021,276.6406 L456.7021,283.2969 L458.4209,283.2969 Q459.0303,283.2969 459.2959,283.5313 Q459.5615,283.7656 459.5615,284.1563 Q459.5615,284.5313 459.2959,284.7656 Q459.0303,285 458.4209,285 L453.2803,285 Q452.6709,285 452.4053,284.7656 Q452.1396,284.5313 452.1396,284.1406 Q452.1396,283.7656 452.4053,283.5313 Q452.6709,283.2969 453.2803,283.2969 L454.999,283.2969 L454.999,276.6406 L453.2803,276.6406 Q452.6709,276.6406 452.4053,276.4063 Q452.1396,276.1719 452.1396,275.7813 Q452.1396,275.4063 452.4053,275.1719 Q452.6709,274.9375 453.2803,274.9375 L458.4209,274.9375 Q459.0303,274.9375 459.2959,275.1719 Q459.5615,275.4063 459.5615,275.7813 Q459.5615,276.1719 459.2959,276.4063 Q459.0303,276.6406 458.4209,276.6406 L456.7021,276.6406 Z " fill="#000000"/><text fill="#E0E0E0" font-family="sans-serif" font-size="14" font-style="italic" lengthAdjust="spacing" textLength="107.3857" x="476.249" y="285.7969">RecipeServiceV2</text><line style="stroke:#8A8A8A;stroke-width:0.5;" x1="251.5" x2="775.8838" y1="296" y2="296"/><line style="stroke:#8A8A8A;stroke-width:0.5;" x1="251.5" x2="775.8838" y1="304" y2="304"/><ellipse cx="261.5" cy="318.8105" fill="#84BE84" rx="3" ry="3" style="stroke:#038048;stroke-width:1;"/><text fill="#FFFFFF" font-family="sans-serif" font-size="14" lengthAdjust="spacing" textLength="331.5156" x="270.5" y="323.1074">void createRecipe(RecipeRequestBody requestBody)</text><ellipse cx="261.5" cy="337.4316" fill="#84BE84" rx="3" ry="3" style="stroke:#038048;stroke-width:1;"/><text fill="#FFFFFF" font-family="sans-serif" font-size="14" lengthAdjust="spacing" textLength="165.7646" x="270.5" y="341.7285">Recipe getRecipe(Long id)</text><ellipse cx="261.5" cy="356.0527" fill="#84BE84" rx="3" ry="3" style="stroke:#038048;stroke-width:1;"/><text fill="#FFFFFF" font-family="sans-serif" font-size="14" lengthAdjust="spacing" textLength="407.0186" x="270.5" y="360.3496">List&lt;Recipe&gt; getRecipes(Integer pageNumber, Integer pageSize)</text><ellipse cx="261.5" cy="374.6738" fill="#84BE84" rx="3" ry="3" style="stroke:#038048;stroke-width:1;"/><text fill="#FFFFFF" font-family="sans-serif" font-size="14" lengthAdjust="spacing" textLength="500.3838" x="270.5" y="378.9707">List&lt;Recipe&gt; searchRecipes(String text, Integer pageNumber, Integer pageSize)</text><ellipse cx="261.5" cy="393.2949" fill="#84BE84" rx="3" ry="3" style="stroke:#038048;stroke-width:1;"/><text fill="#FFFFFF" font-family="sans-serif" font-size="14" lengthAdjust="spacing" textLength="389.1357" x="270.5" y="397.5918">void updateRecipe(Long id, RecipeRequestBody requestBody)</text><ellipse cx="261.5" cy="411.916" fill="#84BE84" rx="3" ry="3" style="stroke:#038048;stroke-width:1;"/><text fill="#FFFFFF" font-family="sans-serif" font-size="14" lengthAdjust="spacing" textLength="166.5508" x="270.5" y="416.2129">void deleteRecipe(Long id)</text></g><!--class DefaultRecipeServiceV2--><g class="entity" data-entity="DefaultRecipeServiceV2" data-source-line="29" data-uid="ent0013" id="entity_DefaultRecipeServiceV2"><rect fill="#2D2D2D" height="215.5898" rx="2.5" ry="2.5" style="stroke:#8A8A8A;stroke-width:0.5;" width="526.3838" x="250.5" y="511.5"/><ellipse cx="433.5698" cy="527.5" fill="#ADD1B2" rx="11" ry="11" style="stroke:#181818;stroke-width:1;"/><path d="M436.3354,523.375 Q436.4917,523.1563 436.6792,523.0469 Q436.8667,522.9375 437.0854,522.9375 Q437.4604,522.9375 437.6948,523.2031 Q437.9292,523.4531 437.9292,524.0625 L437.9292,525.5156 Q437.9292,526.125 437.6948,526.3906 Q437.4604,526.6563 437.0854,526.6563 Q436.7417,526.6563 436.5386,526.4531 Q436.3354,526.2656 436.2261,525.75 Q436.1792,525.3906 435.9917,525.2031 Q435.6636,524.8281 435.0542,524.6094 Q434.4448,524.3906 433.8198,524.3906 Q433.0542,524.3906 432.4136,524.7188 Q431.7886,525.0469 431.2886,525.7969 Q430.8042,526.5469 430.8042,527.5781 L430.8042,528.6719 Q430.8042,529.9063 431.6948,530.7344 Q432.5854,531.5469 434.1792,531.5469 Q435.1167,531.5469 435.7729,531.2969 Q436.1636,531.1406 436.5854,530.7031 Q436.8511,530.4375 436.9917,530.3594 Q437.1479,530.2813 437.3511,530.2813 Q437.6792,530.2813 437.9292,530.5469 Q438.1948,530.7969 438.1948,531.1406 Q438.1948,531.4844 437.8511,531.8906 Q437.3511,532.4688 436.5542,532.7969 Q435.4761,533.25 434.1792,533.25 Q432.6636,533.25 431.4604,532.625 Q430.4761,532.125 429.7886,531.0625 Q429.1011,529.9844 429.1011,528.7031 L429.1011,527.5469 Q429.1011,526.2188 429.7104,525.0781 Q430.3354,523.9219 431.4292,523.3125 Q432.5229,522.6875 433.7573,522.6875 Q434.4917,522.6875 435.1323,522.8594 Q435.7886,523.0156 436.3354,523.375 Z " fill="#000000"/><text fill="#E0E0E0" font-family="sans-serif" font-size="14" lengthAdjust="spacing" textLength="151.7441" x="454.0698" y="533.2969">DefaultRecipeServiceV2</text><line style="stroke:#8A8A8A;stroke-width:0.5;" x1="251.5" x2="775.8838" y1="543.5" y2="543.5"/><rect fill="none" height="6" style="stroke:#C82930;stroke-width:1;" width="6" x="258.5" y="555.3105"/><text fill="#FFFFFF" font-family="sans-serif" font-size="14" lengthAdjust="spacing" textLength="192.9785" x="270.5" y="562.6074">RecipeRepositoryV2 repository</text><rect fill="none" height="6" style="stroke:#C82930;stroke-width:1;" width="6" x="258.5" y="573.9316"/><text fill="#FFFFFF" font-family="sans-serif" font-size="14" lengthAdjust="spacing" textLength="286.3779" x="270.5" y="581.2285">RecipeRequestBodyToRecipeMapper mapper</text><line style="stroke:#8A8A8A;stroke-width:0.5;" x1="251.5" x2="775.8838" y1="588.7422" y2="588.7422"/><ellipse cx="261.5" cy="603.5527" fill="#84BE84" rx="3" ry="3" style="stroke:#038048;stroke-width:1;"/><text fill="#FFFFFF" font-family="sans-serif" font-size="14" lengthAdjust="spacing" textLength="331.5156" x="270.5" y="607.8496">void createRecipe(RecipeRequestBody requestBody)</text><ellipse cx="261.5" cy="622.1738" fill="#84BE84" rx="3" ry="3" style="stroke:#038048;stroke-width:1;"/><text fill="#FFFFFF" font-family="sans-serif" font-size="14" lengthAdjust="spacing" textLength="165.7646" x="270.5" y="626.4707">Recipe getRecipe(Long id)</text><ellipse cx="261.5" cy="640.7949" fill="#84BE84" rx="3" ry="3" style="stroke:#038048;stroke-width:1;"/><text fill="#FFFFFF" font-family="sans-serif" font-size="14" lengthAdjust="spacing" textLength="407.0186" x="270.5" y="645.0918">List&lt;Recipe&gt; getRecipes(Integer pageNumber, Integer pageSize)</text><ellipse cx="261.5" cy="659.416" fill="#84BE84" rx="3" ry="3" style="stroke:#038048;stroke-width:1;"/><text fill="#FFFFFF" font-family="sans-serif" font-size="14" lengthAdjust="spacing" textLength="500.3838" x="270.5" y="663.7129">List&lt;Recipe&gt; searchRecipes(String text, Integer pageNumber, Integer pageSize)</text><ellipse cx="261.5" cy="678.0371" fill="#84BE84" rx="3" ry="3" style="stroke:#038048;stroke-width:1;"/><text fill="#FFFFFF" font-family="sans-serif" font-size="14" lengthAdjust="spacing" textLength="389.1357" x="270.5" y="682.334">void updateRecipe(Long id, RecipeRequestBody requestBody)</text><rect fill="#F24D5C" height="6" style="stroke:#C82930;stroke-width:1;" width="6" x="258.5" y="693.6582"/><text fill="#FFFFFF" font-family="sans-serif" font-size="14" lengthAdjust="spacing" textLength="150.1855" x="270.5" y="700.9551">byte[] getDefaultImage()</text><ellipse cx="261.5" cy="715.2793" fill="#84BE84" rx="3" ry="3" style="stroke:#038048;stroke-width:1;"/><text fill="#FFFFFF" font-family="sans-serif" font-size="14" lengthAdjust="spacing" textLength="166.5508" x="270.5" y="719.5762">void deleteRecipe(Long id)</text></g><!--class ToDTOMapper--><g class="entity" data-entity="ToDTOMapper" data-source-line="17" data-uid="ent0017" id="entity_ToDTOMapper"><rect fill="#2D2D2D" height="66.6211" rx="2.5" ry="2.5" style="stroke:#8A8A8A;stroke-width:0.5;" width="232.1582" x="1055.5" y="72"/><ellipse cx="1085.2511" cy="88" fill="#B4A7E5" rx="11" ry="11" style="stroke:#181818;stroke-width:1;"/><path d="M1086.2042,84.6406 L1086.2042,91.2969 L1087.923,91.2969 Q1088.5324,91.2969 1088.798,91.5313 Q1089.0636,91.7656 1089.0636,92.1563 Q1089.0636,92.5313 1088.798,92.7656 Q1088.5324,93 1087.923,93 L1082.7824,93 Q1082.173,93 1081.9074,92.7656 Q1081.6417,92.5313 1081.6417,92.1406 Q1081.6417,91.7656 1081.9074,91.5313 Q1082.173,91.2969 1082.7824,91.2969 L1084.5011,91.2969 L1084.5011,84.6406 L1082.7824,84.6406 Q1082.173,84.6406 1081.9074,84.4063 Q1081.6417,84.1719 1081.6417,83.7813 Q1081.6417,83.4063 1081.9074,83.1719 Q1082.173,82.9375 1082.7824,82.9375 L1087.923,82.9375 Q1088.5324,82.9375 1088.798,83.1719 Q1089.0636,83.4063 1089.0636,83.7813 Q1089.0636,84.1719 1088.798,84.4063 Q1088.5324,84.6406 1087.923,84.6406 L1086.2042,84.6406 Z " fill="#000000"/><text fill="#E0E0E0" font-family="sans-serif" font-size="14" font-style="italic" lengthAdjust="spacing" textLength="93.3584" x="1102.5292" y="93.7969">ToDTOMapper</text><rect fill="#2D2D2D" height="17.9609" style="stroke:#8A8A8A;stroke-width:1;stroke-dasharray:2,2;" width="72.0195" x="1218.6387" y="69"/><text fill="#000000" font-family="sans-serif" font-size="12" font-style="italic" lengthAdjust="spacing" textLength="70.0195" x="1219.6387" y="82.9492">Source, DTO</text><line style="stroke:#8A8A8A;stroke-width:0.5;" x1="1056.5" x2="1286.6582" y1="104" y2="104"/><line style="stroke:#8A8A8A;stroke-width:0.5;" x1="1056.5" x2="1286.6582" y1="112" y2="112"/><ellipse cx="1066.5" cy="126.8105" fill="#84BE84" rx="3" ry="3" style="stroke:#038048;stroke-width:1;"/><text fill="#FFFFFF" font-family="sans-serif" font-size="14" lengthAdjust="spacing" textLength="206.1582" x="1075.5" y="131.1074">DTO mapToDTO(Source source)</text></g><!--class RecipeToRecipeResponseBodyMapper--><g class="entity" data-entity="RecipeToRecipeResponseBodyMapper" data-source-line="20" data-uid="ent0018" id="entity_RecipeToRecipeResponseBodyMapper"><rect fill="#2D2D2D" height="85.2422" rx="2.5" ry="2.5" style="stroke:#8A8A8A;stroke-width:0.5;" width="367.6191" x="943.5" y="301.5"/><ellipse cx="1000.1016" cy="317.5" fill="#B4A7E5" rx="11" ry="11" style="stroke:#181818;stroke-width:1;"/><path d="M1001.0547,314.1406 L1001.0547,320.7969 L1002.7734,320.7969 Q1003.3828,320.7969 1003.6484,321.0313 Q1003.9141,321.2656 1003.9141,321.6563 Q1003.9141,322.0313 1003.6484,322.2656 Q1003.3828,322.5 1002.7734,322.5 L997.6328,322.5 Q997.0234,322.5 996.7578,322.2656 Q996.4922,322.0313 996.4922,321.6406 Q996.4922,321.2656 996.7578,321.0313 Q997.0234,320.7969 997.6328,320.7969 L999.3516,320.7969 L999.3516,314.1406 L997.6328,314.1406 Q997.0234,314.1406 996.7578,313.9063 Q996.4922,313.6719 996.4922,313.2813 Q996.4922,312.9063 996.7578,312.6719 Q997.0234,312.4375 997.6328,312.4375 L1002.7734,312.4375 Q1003.3828,312.4375 1003.6484,312.6719 Q1003.9141,312.9063 1003.9141,313.2813 Q1003.9141,313.6719 1003.6484,313.9063 Q1003.3828,314.1406 1002.7734,314.1406 L1001.0547,314.1406 Z " fill="#000000"/><text fill="#E0E0E0" font-family="sans-serif" font-size="14" font-style="italic" lengthAdjust="spacing" textLength="245.916" x="1020.6016" y="323.2969">RecipeToRecipeResponseBodyMapper</text><line style="stroke:#8A8A8A;stroke-width:0.5;" x1="944.5" x2="1310.1191" y1="333.5" y2="333.5"/><line style="stroke:#8A8A8A;stroke-width:0.5;" x1="944.5" x2="1310.1191" y1="341.5" y2="341.5"/><ellipse cx="954.5" cy="356.3105" fill="#84BE84" rx="3" ry="3" style="stroke:#038048;stroke-width:1;"/><text fill="#FFFFFF" font-family="sans-serif" font-size="14" lengthAdjust="spacing" textLength="341.6191" x="963.5" y="360.6074">void map(Recipe source, RecipeResponseBody target)</text><ellipse cx="954.5" cy="374.9316" fill="#84BE84" rx="3" ry="3" style="stroke:#038048;stroke-width:1;"/><text fill="#FFFFFF" font-family="sans-serif" font-size="14" lengthAdjust="spacing" textLength="310.4678" x="963.5" y="379.2285">RecipeResponseBody mapToDTO(Recipe recipe)</text></g><!--class DefaultRecipeToRecipeResponseBodyMapper--><g class="entity" data-entity="DefaultRecipeToRecipeResponseBodyMapper" data-source-line="25" data-uid="ent0021" id="entity_DefaultRecipeToRecipeResponseBodyMapper"><rect fill="#2D2D2D" height="271.4531" rx="2.5" ry="2.5" style="stroke:#8A8A8A;stroke-width:0.5;" width="543.4873" x="812" y="484"/><ellipse cx="934.3564" cy="500" fill="#ADD1B2" rx="11" ry="11" style="stroke:#181818;stroke-width:1;"/><path d="M937.1221,495.875 Q937.2783,495.6563 937.4658,495.5469 Q937.6533,495.4375 937.8721,495.4375 Q938.2471,495.4375 938.4814,495.7031 Q938.7158,495.9531 938.7158,496.5625 L938.7158,498.0156 Q938.7158,498.625 938.4814,498.8906 Q938.2471,499.1563 937.8721,499.1563 Q937.5283,499.1563 937.3252,498.9531 Q937.1221,498.7656 937.0127,498.25 Q936.9658,497.8906 936.7783,497.7031 Q936.4502,497.3281 935.8408,497.1094 Q935.2314,496.8906 934.6064,496.8906 Q933.8408,496.8906 933.2002,497.2188 Q932.5752,497.5469 932.0752,498.2969 Q931.5908,499.0469 931.5908,500.0781 L931.5908,501.1719 Q931.5908,502.4063 932.4814,503.2344 Q933.3721,504.0469 934.9658,504.0469 Q935.9033,504.0469 936.5596,503.7969 Q936.9502,503.6406 937.3721,503.2031 Q937.6377,502.9375 937.7783,502.8594 Q937.9346,502.7813 938.1377,502.7813 Q938.4658,502.7813 938.7158,503.0469 Q938.9814,503.2969 938.9814,503.6406 Q938.9814,503.9844 938.6377,504.3906 Q938.1377,504.9688 937.3408,505.2969 Q936.2627,505.75 934.9658,505.75 Q933.4502,505.75 932.2471,505.125 Q931.2627,504.625 930.5752,503.5625 Q929.8877,502.4844 929.8877,501.2031 L929.8877,500.0469 Q929.8877,498.7188 930.4971,497.5781 Q931.1221,496.4219 932.2158,495.8125 Q933.3096,495.1875 934.5439,495.1875 Q935.2783,495.1875 935.9189,495.3594 Q936.5752,495.5156 937.1221,495.875 Z " fill="#000000"/><text fill="#E0E0E0" font-family="sans-serif" font-size="14" lengthAdjust="spacing" textLength="290.2744" x="954.8564" y="505.7969">DefaultRecipeToRecipeResponseBodyMapper</text><line style="stroke:#8A8A8A;stroke-width:0.5;" x1="813" x2="1354.4873" y1="516" y2="516"/><line style="stroke:#8A8A8A;stroke-width:0.5;" x1="813" x2="1354.4873" y1="524" y2="524"/><ellipse cx="823" cy="538.8105" fill="#84BE84" rx="3" ry="3" style="stroke:#038048;stroke-width:1;"/><text fill="#FFFFFF" font-family="sans-serif" font-size="14" lengthAdjust="spacing" textLength="310.4678" x="832" y="543.1074">RecipeResponseBody mapToDTO(Recipe recipe)</text><ellipse cx="823" cy="557.4316" fill="#84BE84" rx="3" ry="3" style="stroke:#038048;stroke-width:1;"/><text fill="#FFFFFF" font-family="sans-serif" font-size="14" lengthAdjust="spacing" textLength="435.0117" x="832" y="561.7285">void map(Recipe recipe, RecipeResponseBody recipeResponseBody)</text><rect fill="#F24D5C" height="6" style="stroke:#C82930;stroke-width:1;" width="6" x="820" y="573.0527"/><text fill="#FFFFFF" font-family="sans-serif" font-size="14" lengthAdjust="spacing" textLength="446.6875" x="832" y="580.3496">void mapId(Recipe recipe, RecipeResponseBody recipeResponseBody)</text><rect fill="#F24D5C" height="6" style="stroke:#C82930;stroke-width:1;" width="6" x="820" y="591.6738"/><text fill="#FFFFFF" font-family="sans-serif" font-size="14" lengthAdjust="spacing" textLength="472.3564" x="832" y="598.9707">void mapName(Recipe recipe, RecipeResponseBody recipeResponseBody)</text><rect fill="#F24D5C" height="6" style="stroke:#C82930;stroke-width:1;" width="6" x="820" y="610.2949"/><text fill="#FFFFFF" font-family="sans-serif" font-size="14" lengthAdjust="spacing" textLength="473.9219" x="832" y="617.5918">void mapImage(Recipe recipe, RecipeResponseBody recipeResponseBody)</text><rect fill="#F24D5C" height="6" style="stroke:#C82930;stroke-width:1;" width="6" x="820" y="628.916"/><text fill="#FFFFFF" font-family="sans-serif" font-size="14" lengthAdjust="spacing" textLength="505.0391" x="832" y="636.2129">void mapDescription(Recipe recipe, RecipeResponseBody recipeResponseBody)</text><rect fill="#F24D5C" height="6" style="stroke:#C82930;stroke-width:1;" width="6" x="820" y="647.5371"/><text fill="#FFFFFF" font-family="sans-serif" font-size="14" lengthAdjust="spacing" textLength="487.9082" x="832" y="654.834">void mapDifficulty(Recipe recipe, RecipeResponseBody recipeResponseBody)</text><rect fill="#F24D5C" height="6" style="stroke:#C82930;stroke-width:1;" width="6" x="820" y="666.1582"/><text fill="#FFFFFF" font-family="sans-serif" font-size="14" lengthAdjust="spacing" textLength="502.7148" x="832" y="673.4551">void mapCategories(Recipe recipe, RecipeResponseBody recipeResponseBody)</text><rect fill="#F24D5C" height="6" style="stroke:#C82930;stroke-width:1;" width="6" x="820" y="684.7793"/><text fill="#FFFFFF" font-family="sans-serif" font-size="14" lengthAdjust="spacing" textLength="504.2803" x="832" y="692.0762">void mapIngredients(Recipe recipe, RecipeResponseBody recipeResponseBody)</text><rect fill="#F24D5C" height="6" style="stroke:#C82930;stroke-width:1;" width="6" x="820" y="703.4004"/><text fill="#FFFFFF" font-family="sans-serif" font-size="14" lengthAdjust="spacing" textLength="489.4805" x="832" y="710.6973">void mapServings(Recipe recipe, RecipeResponseBody recipeResponseBody)</text><rect fill="#F24D5C" height="6" style="stroke:#C82930;stroke-width:1;" width="6" x="820" y="722.0215"/><text fill="#FFFFFF" font-family="sans-serif" font-size="14" lengthAdjust="spacing" textLength="517.4873" x="832" y="729.3184">void mapCookingTime(Recipe recipe, RecipeResponseBody recipeResponseBody)</text><rect fill="#F24D5C" height="6" style="stroke:#C82930;stroke-width:1;" width="6" x="820" y="740.6426"/><text fill="#FFFFFF" font-family="sans-serif" font-size="14" lengthAdjust="spacing" textLength="506.5977" x="832" y="747.9395">void mapInstructions(Recipe recipe, RecipeResponseBody recipeResponseBody)</text></g><!--class RecipeRestControllerV2--><g class="entity" data-entity="RecipeRestControllerV2" data-source-line="20" data-uid="ent0023" id="entity_RecipeRestControllerV2"><rect fill="#2D2D2D" height="196.9688" rx="2.5" ry="2.5" style="stroke:#8A8A8A;stroke-width:0.5;" width="1012.583" x="7" y="7"/><ellipse cx="433.9521" cy="23" fill="#ADD1B2" rx="11" ry="11" style="stroke:#181818;stroke-width:1;"/><path d="M436.7178,18.875 Q436.874,18.6563 437.0615,18.5469 Q437.249,18.4375 437.4678,18.4375 Q437.8428,18.4375 438.0771,18.7031 Q438.3115,18.9531 438.3115,19.5625 L438.3115,21.0156 Q438.3115,21.625 438.0771,21.8906 Q437.8428,22.1563 437.4678,22.1563 Q437.124,22.1563 436.9209,21.9531 Q436.7178,21.7656 436.6084,21.25 Q436.5615,20.8906 436.374,20.7031 Q436.0459,20.3281 435.4365,20.1094 Q434.8271,19.8906 434.2021,19.8906 Q433.4365,19.8906 432.7959,20.2188 Q432.1709,20.5469 431.6709,21.2969 Q431.1865,22.0469 431.1865,23.0781 L431.1865,24.1719 Q431.1865,25.4063 432.0771,26.2344 Q432.9678,27.0469 434.5615,27.0469 Q435.499,27.0469 436.1553,26.7969 Q436.5459,26.6406 436.9678,26.2031 Q437.2334,25.9375 437.374,25.8594 Q437.5303,25.7813 437.7334,25.7813 Q438.0615,25.7813 438.3115,26.0469 Q438.5771,26.2969 438.5771,26.6406 Q438.5771,26.9844 438.2334,27.3906 Q437.7334,27.9688 436.9365,28.2969 Q435.8584,28.75 434.5615,28.75 Q433.0459,28.75 431.8428,28.125 Q430.8584,27.625 430.1709,26.5625 Q429.4834,25.4844 429.4834,24.2031 L429.4834,23.0469 Q429.4834,21.7188 430.0928,20.5781 Q430.7178,19.4219 431.8115,18.8125 Q432.9053,18.1875 434.1396,18.1875 Q434.874,18.1875 435.5146,18.3594 Q436.1709,18.5156 436.7178,18.875 Z " fill="#000000"/><text fill="#E0E0E0" font-family="sans-serif" font-size="14" lengthAdjust="spacing" textLength="150.1787" x="454.4521" y="28.7969">RecipeRestControllerV2</text><line style="stroke:#8A8A8A;stroke-width:0.5;" x1="8" x2="1018.583" y1="39" y2="39"/><rect fill="none" height="6" style="stroke:#C82930;stroke-width:1;" width="6" x="15" y="50.8105"/><text fill="#FFFFFF" font-family="sans-serif" font-size="14" lengthAdjust="spacing" textLength="155.6201" x="27" y="58.1074">RecipeServiceV2 service</text><rect fill="none" height="6" style="stroke:#C82930;stroke-width:1;" width="6" x="15" y="69.4316"/><text fill="#FFFFFF" font-family="sans-serif" font-size="14" lengthAdjust="spacing" textLength="297.2744" x="27" y="76.7285">RecipeToRecipeResponseBodyMapper mapper</text><line style="stroke:#8A8A8A;stroke-width:0.5;" x1="8" x2="1018.583" y1="84.2422" y2="84.2422"/><ellipse cx="18" cy="99.0527" fill="#84BE84" rx="3" ry="3" style="stroke:#038048;stroke-width:1;"/><text fill="#FFFFFF" font-family="sans-serif" font-size="14" lengthAdjust="spacing" textLength="599.6484" x="27" y="103.3496">ResponseEntity&lt;Void&gt; createRecipe(@Valid @RequestBody RecipeRequestBody requestBody)</text><ellipse cx="18" cy="117.6738" fill="#84BE84" rx="3" ry="3" style="stroke:#038048;stroke-width:1;"/><text fill="#FFFFFF" font-family="sans-serif" font-size="14" lengthAdjust="spacing" textLength="473.3887" x="27" y="121.9707">ResponseEntity&lt;RecipeResponseBody&gt; getRecipe(@PathVariable Long id)</text><ellipse cx="18" cy="136.2949" fill="#84BE84" rx="3" ry="3" style="stroke:#038048;stroke-width:1;"/><text fill="#FFFFFF" font-family="sans-serif" font-size="14" lengthAdjust="spacing" textLength="781.7373" x="27" y="140.5918">ResponseEntity&lt;List&lt;RecipeResponseBody&gt;&gt; getRecipes(@RequestParam int pageNumber, @RequestParam int pageSize)</text><ellipse cx="18" cy="154.916" fill="#84BE84" rx="3" ry="3" style="stroke:#038048;stroke-width:1;"/><text fill="#FFFFFF" font-family="sans-serif" font-size="14" lengthAdjust="spacing" textLength="986.583" x="27" y="159.2129">ResponseEntity&lt;List&lt;RecipeResponseBody&gt;&gt; searchRecipes(@RequestParam String text, @RequestParam int pageNumber, @RequestParam int pageSize)</text><ellipse cx="18" cy="173.5371" fill="#84BE84" rx="3" ry="3" style="stroke:#038048;stroke-width:1;"/><text fill="#FFFFFF" font-family="sans-serif" font-size="14" lengthAdjust="spacing" textLength="755.5352" x="27" y="177.834">ResponseEntity&lt;Void&gt; updateRecipe(@PathVariable Long id, @Valid @RequestBody RecipeRequestBody requestBody)</text><ellipse cx="18" cy="192.1582" fill="#84BE84" rx="3" ry="3" style="stroke:#038048;stroke-width:1;"/><text fill="#FFFFFF" font-family="sans-serif" font-size="14" lengthAdjust="spacing" textLength="381.5615" x="27" y="196.4551">ResponseEntity&lt;Void&gt; deleteRecipe(@PathVariable Long id)</text></g><!--reverse link JpaRepository to RecipeRepositoryV2--><g class="link" data-entity-1="JpaRepository" data-entity-2="RecipeRepositoryV2" data-source-line="20" data-uid="lnk4" id="link_JpaRepository_RecipeRepositoryV2"><path d="M154,661.63 C154,701.81 154,764.94 154,814.91" fill="none" id="JpaRepository-backto-RecipeRepositoryV2" style="stroke:#B0C4DE;stroke-width:1;"/><polygon fill="none" points="154,643.63,148,661.63,160,661.63,154,643.63" style="stroke:#B0C4DE;stroke-width:1;"/></g><!--reverse link Mapper to RecipeRequestBodyToRecipeMapper--><g class="link" data-entity-1="Mapper" data-entity-2="RecipeRequestBodyToRecipeMapper" data-source-line="21" data-uid="lnk8" id="link_Mapper_RecipeRequestBodyToRecipeMapper"><path d="M1659.75,157.27 C1659.75,279.31 1659.75,679.34 1659.75,814.78" fill="none" id="Mapper-backto-RecipeRequestBodyToRecipeMapper" style="stroke:#B0C4DE;stroke-width:1;"/><polygon fill="none" points="1659.75,139.27,1653.75,157.27,1665.75,157.27,1659.75,139.27" style="stroke:#B0C4DE;stroke-width:1;"/></g><!--reverse link ToEntityMapper to RecipeRequestBodyToRecipeMapper--><g class="link" data-entity-1="ToEntityMapper" data-entity-2="RecipeRequestBodyToRecipeMapper" data-source-line="21" data-uid="lnk9" id="link_ToEntityMapper_RecipeRequestBodyToRecipeMapper"><path d="M1504.5,671.09 C1504.5,713.51 1504.5,768.51 1504.5,814.83" fill="none" id="ToEntityMapper-backto-RecipeRequestBodyToRecipeMapper" style="stroke:#B0C4DE;stroke-width:1;"/><polygon fill="none" points="1504.5,653.09,1498.5,671.09,1510.5,671.09,1504.5,653.09" style="stroke:#B0C4DE;stroke-width:1;"/></g><!--reverse link RecipeRequestBodyToRecipeMapper to DefaultRecipeRequestBodyToRecipeMapper--><g class="link" data-entity-1="RecipeRequestBodyToRecipeMapper" data-entity-2="DefaultRecipeRequestBodyToRecipeMapper" data-source-line="26" data-uid="lnk11" id="link_RecipeRequestBodyToRecipeMapper_DefaultRecipeRequestBodyToRecipeMapper"><path d="M1504.5,918.04 C1504.5,935.24 1504.5,938.09 1504.5,959.53" fill="none" id="RecipeRequestBodyToRecipeMapper-backto-DefaultRecipeRequestBodyToRecipeMapper" style="stroke:#B0C4DE;stroke-width:1;stroke-dasharray:7,7;"/><polygon fill="none" points="1504.5,900.04,1498.5,918.04,1510.5,918.04,1504.5,900.04" style="stroke:#B0C4DE;stroke-width:1;"/></g><!--reverse link RecipeServiceV2 to DefaultRecipeServiceV2--><g class="link" data-entity-1="RecipeServiceV2" data-entity-2="DefaultRecipeServiceV2" data-source-line="30" data-uid="lnk14" id="link_RecipeServiceV2_DefaultRecipeServiceV2"><path d="M513.5,442.06 C513.5,469.3 513.5,482.22 513.5,511.3" fill="none" id="RecipeServiceV2-backto-DefaultRecipeServiceV2" style="stroke:#B0C4DE;stroke-width:1;stroke-dasharray:7,7;"/><polygon fill="none" points="513.5,424.06,507.5,442.06,519.5,442.06,513.5,424.06" style="stroke:#B0C4DE;stroke-width:1;"/></g><!--link DefaultRecipeServiceV2 to RecipeRepositoryV2--><g class="link" data-entity-1="DefaultRecipeServiceV2" data-entity-2="RecipeRepositoryV2" data-source-line="42" data-uid="lnk15" id="link_DefaultRecipeServiceV2_RecipeRepositoryV2"><path codeLine="42" d="M405.25,727.71 C405.25,758.53 405.25,784.32 405.25,808.73" fill="none" id="DefaultRecipeServiceV2-to-RecipeRepositoryV2" style="stroke:#B0C4DE;stroke-width:1;"/><polygon fill="#B0C4DE" points="405.25,814.73,409.25,805.73,405.25,809.73,401.25,805.73,405.25,814.73" style="stroke:#B0C4DE;stroke-width:1;"/></g><!--link DefaultRecipeServiceV2 to RecipeRequestBodyToRecipeMapper--><g class="link" data-entity-1="DefaultRecipeServiceV2" data-entity-2="RecipeRequestBodyToRecipeMapper" data-source-line="43" data-uid="lnk16" id="link_DefaultRecipeServiceV2_RecipeRequestBodyToRecipeMapper"><path codeLine="43" d="M668.25,727.58 C668.25,790.69 668.25,858 668.25,858 C668.25,858 1043.32,858 1290.98,858" fill="none" id="DefaultRecipeServiceV2-to-RecipeRequestBodyToRecipeMapper" style="stroke:#B0C4DE;stroke-width:1;"/><polygon fill="#B0C4DE" points="1296.98,858,1287.98,854,1291.98,858,1287.98,862,1296.98,858" style="stroke:#B0C4DE;stroke-width:1;"/></g><!--reverse link Mapper to RecipeToRecipeResponseBodyMapper--><g class="link" data-entity-1="Mapper" data-entity-2="RecipeToRecipeResponseBodyMapper" data-source-line="21" data-uid="lnk19" id="link_Mapper_RecipeToRecipeResponseBodyMapper"><path d="M1412.16,106 C1346.45,106 1299.5,106 1299.5,106 C1299.5,106 1299.5,232.99 1299.5,301.45" fill="none" id="Mapper-backto-RecipeToRecipeResponseBodyMapper" style="stroke:#B0C4DE;stroke-width:1;"/><polygon fill="none" points="1430.16,106,1412.16,100,1412.16,112,1430.16,106" style="stroke:#B0C4DE;stroke-width:1;"/></g><!--reverse link ToDTOMapper to RecipeToRecipeResponseBodyMapper--><g class="link" data-entity-1="ToDTOMapper" data-entity-2="RecipeToRecipeResponseBodyMapper" data-source-line="21" data-uid="lnk20" id="link_ToDTOMapper_RecipeToRecipeResponseBodyMapper"><path d="M1171.5,157.17 C1171.5,199.67 1171.5,254.82 1171.5,301.24" fill="none" id="ToDTOMapper-backto-RecipeToRecipeResponseBodyMapper" style="stroke:#B0C4DE;stroke-width:1;"/><polygon fill="none" points="1171.5,139.17,1165.5,157.17,1177.5,157.17,1171.5,139.17" style="stroke:#B0C4DE;stroke-width:1;"/></g><!--reverse link RecipeToRecipeResponseBodyMapper to DefaultRecipeToRecipeResponseBodyMapper--><g class="link" data-entity-1="RecipeToRecipeResponseBodyMapper" data-entity-2="DefaultRecipeToRecipeResponseBodyMapper" data-source-line="26" data-uid="lnk22" id="link_RecipeToRecipeResponseBodyMapper_DefaultRecipeToRecipeResponseBodyMapper"><path d="M1127.5,404.74 C1127.5,431.12 1127.5,448.55 1127.5,483.8" fill="none" id="RecipeToRecipeResponseBodyMapper-backto-DefaultRecipeToRecipeResponseBodyMapper" style="stroke:#B0C4DE;stroke-width:1;stroke-dasharray:7,7;"/><polygon fill="none" points="1127.5,386.74,1121.5,404.74,1133.5,404.74,1127.5,386.74" style="stroke:#B0C4DE;stroke-width:1;"/></g><!--link RecipeRestControllerV2 to RecipeServiceV2--><g class="link" data-entity-1="RecipeRestControllerV2" data-entity-2="RecipeServiceV2" data-source-line="32" data-uid="lnk24" id="link_RecipeRestControllerV2_RecipeServiceV2"><path codeLine="32" d="M513.5,204.23 C513.5,224.09 513.5,238.74 513.5,257.87" fill="none" id="RecipeRestControllerV2-to-RecipeServiceV2" style="stroke:#B0C4DE;stroke-width:1;"/><polygon fill="#B0C4DE" points="513.5,263.87,517.5,254.87,513.5,258.87,509.5,254.87,513.5,263.87" style="stroke:#B0C4DE;stroke-width:1;"/></g><!--link RecipeRestControllerV2 to RecipeToRecipeResponseBodyMapper--><g class="link" data-entity-1="RecipeRestControllerV2" data-entity-2="RecipeToRecipeResponseBodyMapper" data-source-line="33" data-uid="lnk25" id="link_RecipeRestControllerV2_RecipeToRecipeResponseBodyMapper"><path codeLine="33" d="M981.75,204.23 C981.75,238.06 981.75,268.16 981.75,295.2" fill="none" id="RecipeRestControllerV2-to-RecipeToRecipeResponseBodyMapper" style="stroke:#B0C4DE;stroke-width:1;"/><polygon fill="#B0C4DE" points="981.75,301.2,985.75,292.2,981.75,296.2,977.75,292.2,981.75,301.2" style="stroke:#B0C4DE;stroke-width:1;"/></g><!--SRC=[hLF1JiCm3BttAuouW6089WuSqCG6umG8RQZth35TH9e4nmK6ujz9sssKqZA1gAKcodjvpuaT_w2C4oGoqCeWBno29PxRoA-1cKWUKhAvaUTMMuBjet4HDOR4Uv5hliCN7cgLcWmDGn9-I3NMaCW-BoL6X-V75tK9FnVIFYkJmhtG7cl8fJMyt7LPVZKiqSBxZOGXCwbPphYHUOtXwF8xhSc3jmXWrBoN_aKH1M998YrNJuP5XDMQxFYmYEWzYhQKINGk4IQOA8TJf2ULODm_S7ccc-YThSO9UcUDnv6LYslX7595ZwhargHWPvYiraXnlymPeDTq0b_Dlg3TJf2LGrJIzs1561jMl3YDhP83I0W5OwMmSnOBhIISJV0n3oaLIkiCFrVeSxxRBlqzeG6ao2kNMy7pM90ICurmPKCZATcXTAKyjydLzFpEAj_RikegDBGJATxasGnf7zhHgNh5Ntjw59JCsssdeN73IJWyh2xFFsTKbIftibQgjaiCqlzKmSfHeiQV7NUBXz7HnBtUeDd0cwdTtVm1]--></g></svg>