<svg xmlns="http://www.w3.org/2000/svg" contentStyleType="text/css" data-diagram-type="CLASS" height="560px"
     preserveAspectRatio="none" style="width:563px;height:560px;background:#1E1E1E;" version="1.1" viewBox="0 0 563 560"
     width="563px" zoomAndPan="magnify"><defs/><g><rect fill="#1E1E1E" height="560" style="stroke:none;stroke-width:1;" width="563" x="0" y="0"/><!--class Mapper--><g class="entity" data-entity="Mapper" data-source-line="17" data-uid="ent0002" id="entity_Mapper"><rect fill="#2D2D2D" height="66.6211" rx="2.5" ry="2.5" style="stroke:#8A8A8A;stroke-width:0.5;" width="270.3301" x="7" y="10"/><ellipse cx="72.4951" cy="26" fill="#B4A7E5" rx="11" ry="11" style="stroke:#181818;stroke-width:1;"/><path d="M73.4482,22.6406 L73.4482,29.2969 L75.167,29.2969 Q75.7764,29.2969 76.042,29.5313 Q76.3076,29.7656 76.3076,30.1563 Q76.3076,30.5313 76.042,30.7656 Q75.7764,31 75.167,31 L70.0264,31 Q69.417,31 69.1514,30.7656 Q68.8857,30.5313 68.8857,30.1406 Q68.8857,29.7656 69.1514,29.5313 Q69.417,29.2969 70.0264,29.2969 L71.7451,29.2969 L71.7451,22.6406 L70.0264,22.6406 Q69.417,22.6406 69.1514,22.4063 Q68.8857,22.1719 68.8857,21.7813 Q68.8857,21.4063 69.1514,21.1719 Q69.417,20.9375 70.0264,20.9375 L75.167,20.9375 Q75.7764,20.9375 76.042,21.1719 Q76.3076,21.4063 76.3076,21.7813 Q76.3076,22.1719 76.042,22.4063 Q75.7764,22.6406 75.167,22.6406 L73.4482,22.6406 Z " fill="#000000"/><text fill="#E0E0E0" font-family="sans-serif" font-size="14" font-style="italic" lengthAdjust="spacing" textLength="47.4688" x="92.9951" y="31.7969">Mapper</text><rect fill="#2D2D2D" height="17.9609" style="stroke:#8A8A8A;stroke-width:1;stroke-dasharray:2,2;" width="81.3711" x="198.959" y="7"/><text fill="#000000" font-family="sans-serif" font-size="12" font-style="italic" lengthAdjust="spacing" textLength="79.3711" x="199.959" y="20.9492">Source, Target</text><line style="stroke:#8A8A8A;stroke-width:0.5;" x1="8" x2="276.3301" y1="42" y2="42"/><line style="stroke:#8A8A8A;stroke-width:0.5;" x1="8" x2="276.3301" y1="50" y2="50"/><ellipse cx="18" cy="64.8105" fill="#84BE84" rx="3" ry="3" style="stroke:#038048;stroke-width:1;"/><text fill="#FFFFFF" font-family="sans-serif" font-size="14" lengthAdjust="spacing" textLength="244.3301" x="27" y="69.1074">void map(Source source, Target target)</text></g><!--class ToDTOMapper--><g class="entity" data-entity="ToDTOMapper" data-source-line="17" data-uid="ent0003" id="entity_ToDTOMapper"><rect fill="#2D2D2D" height="66.6211" rx="2.5" ry="2.5" style="stroke:#8A8A8A;stroke-width:0.5;" width="232.1582" x="312" y="10"/><ellipse cx="341.7511" cy="26" fill="#B4A7E5" rx="11" ry="11" style="stroke:#181818;stroke-width:1;"/><path d="M342.7042,22.6406 L342.7042,29.2969 L344.423,29.2969 Q345.0324,29.2969 345.298,29.5313 Q345.5636,29.7656 345.5636,30.1563 Q345.5636,30.5313 345.298,30.7656 Q345.0324,31 344.423,31 L339.2824,31 Q338.673,31 338.4074,30.7656 Q338.1417,30.5313 338.1417,30.1406 Q338.1417,29.7656 338.4074,29.5313 Q338.673,29.2969 339.2824,29.2969 L341.0011,29.2969 L341.0011,22.6406 L339.2824,22.6406 Q338.673,22.6406 338.4074,22.4063 Q338.1417,22.1719 338.1417,21.7813 Q338.1417,21.4063 338.4074,21.1719 Q338.673,20.9375 339.2824,20.9375 L344.423,20.9375 Q345.0324,20.9375 345.298,21.1719 Q345.5636,21.4063 345.5636,21.7813 Q345.5636,22.1719 345.298,22.4063 Q345.0324,22.6406 344.423,22.6406 L342.7042,22.6406 Z " fill="#000000"/><text fill="#E0E0E0" font-family="sans-serif" font-size="14" font-style="italic" lengthAdjust="spacing" textLength="93.3584" x="359.0292" y="31.7969">ToDTOMapper</text><rect fill="#2D2D2D" height="17.9609" style="stroke:#8A8A8A;stroke-width:1;stroke-dasharray:2,2;" width="72.0195" x="475.1387" y="7"/><text fill="#000000" font-family="sans-serif" font-size="12" font-style="italic" lengthAdjust="spacing" textLength="70.0195" x="476.1387" y="20.9492">Source, DTO</text><line style="stroke:#8A8A8A;stroke-width:0.5;" x1="313" x2="543.1582" y1="42" y2="42"/><line style="stroke:#8A8A8A;stroke-width:0.5;" x1="313" x2="543.1582" y1="50" y2="50"/><ellipse cx="323" cy="64.8105" fill="#84BE84" rx="3" ry="3" style="stroke:#038048;stroke-width:1;"/><text fill="#FFFFFF" font-family="sans-serif" font-size="14" lengthAdjust="spacing" textLength="206.1582" x="332" y="69.1074">DTO mapToDTO(Source source)</text></g><!--class RecipeToRecipeResponseBodyMapper--><g class="entity" data-entity="RecipeToRecipeResponseBodyMapper" data-source-line="20" data-uid="ent0004" id="entity_RecipeToRecipeResponseBodyMapper"><rect fill="#2D2D2D" height="85.2422" rx="2.5" ry="2.5" style="stroke:#8A8A8A;stroke-width:0.5;" width="367.6191" x="101" y="137"/><ellipse cx="157.6016" cy="153" fill="#B4A7E5" rx="11" ry="11" style="stroke:#181818;stroke-width:1;"/><path d="M158.5547,149.6406 L158.5547,156.2969 L160.2734,156.2969 Q160.8828,156.2969 161.1484,156.5313 Q161.4141,156.7656 161.4141,157.1563 Q161.4141,157.5313 161.1484,157.7656 Q160.8828,158 160.2734,158 L155.1328,158 Q154.5234,158 154.2578,157.7656 Q153.9922,157.5313 153.9922,157.1406 Q153.9922,156.7656 154.2578,156.5313 Q154.5234,156.2969 155.1328,156.2969 L156.8516,156.2969 L156.8516,149.6406 L155.1328,149.6406 Q154.5234,149.6406 154.2578,149.4063 Q153.9922,149.1719 153.9922,148.7813 Q153.9922,148.4063 154.2578,148.1719 Q154.5234,147.9375 155.1328,147.9375 L160.2734,147.9375 Q160.8828,147.9375 161.1484,148.1719 Q161.4141,148.4063 161.4141,148.7813 Q161.4141,149.1719 161.1484,149.4063 Q160.8828,149.6406 160.2734,149.6406 L158.5547,149.6406 Z " fill="#000000"/><text fill="#E0E0E0" font-family="sans-serif" font-size="14" font-style="italic" lengthAdjust="spacing" textLength="245.916" x="178.1016" y="158.7969">RecipeToRecipeResponseBodyMapper</text><line style="stroke:#8A8A8A;stroke-width:0.5;" x1="102" x2="467.6191" y1="169" y2="169"/><line style="stroke:#8A8A8A;stroke-width:0.5;" x1="102" x2="467.6191" y1="177" y2="177"/><ellipse cx="112" cy="191.8105" fill="#84BE84" rx="3" ry="3" style="stroke:#038048;stroke-width:1;"/><text fill="#FFFFFF" font-family="sans-serif" font-size="14" lengthAdjust="spacing" textLength="341.6191" x="121" y="196.1074">void map(Recipe source, RecipeResponseBody target)</text><ellipse cx="112" cy="210.4316" fill="#84BE84" rx="3" ry="3" style="stroke:#038048;stroke-width:1;"/><text fill="#FFFFFF" font-family="sans-serif" font-size="14" lengthAdjust="spacing" textLength="310.4678" x="121" y="214.7285">RecipeResponseBody mapToDTO(Recipe recipe)</text></g><!--class DefaultRecipeToRecipeResponseBodyMapper--><g class="entity" data-entity="DefaultRecipeToRecipeResponseBodyMapper" data-source-line="25" data-uid="ent0007" id="entity_DefaultRecipeToRecipeResponseBodyMapper"><rect fill="#2D2D2D" height="271.4531" rx="2.5" ry="2.5" style="stroke:#8A8A8A;stroke-width:0.5;" width="543.4873" x="13.5" y="282"/><ellipse cx="135.8564" cy="298" fill="#ADD1B2" rx="11" ry="11" style="stroke:#181818;stroke-width:1;"/><path d="M138.6221,293.875 Q138.7783,293.6563 138.9658,293.5469 Q139.1533,293.4375 139.3721,293.4375 Q139.7471,293.4375 139.9814,293.7031 Q140.2158,293.9531 140.2158,294.5625 L140.2158,296.0156 Q140.2158,296.625 139.9814,296.8906 Q139.7471,297.1563 139.3721,297.1563 Q139.0283,297.1563 138.8252,296.9531 Q138.6221,296.7656 138.5127,296.25 Q138.4658,295.8906 138.2783,295.7031 Q137.9502,295.3281 137.3408,295.1094 Q136.7314,294.8906 136.1064,294.8906 Q135.3408,294.8906 134.7002,295.2188 Q134.0752,295.5469 133.5752,296.2969 Q133.0908,297.0469 133.0908,298.0781 L133.0908,299.1719 Q133.0908,300.4063 133.9814,301.2344 Q134.8721,302.0469 136.4658,302.0469 Q137.4033,302.0469 138.0596,301.7969 Q138.4502,301.6406 138.8721,301.2031 Q139.1377,300.9375 139.2783,300.8594 Q139.4346,300.7813 139.6377,300.7813 Q139.9658,300.7813 140.2158,301.0469 Q140.4814,301.2969 140.4814,301.6406 Q140.4814,301.9844 140.1377,302.3906 Q139.6377,302.9688 138.8408,303.2969 Q137.7627,303.75 136.4658,303.75 Q134.9502,303.75 133.7471,303.125 Q132.7627,302.625 132.0752,301.5625 Q131.3877,300.4844 131.3877,299.2031 L131.3877,298.0469 Q131.3877,296.7188 131.9971,295.5781 Q132.6221,294.4219 133.7158,293.8125 Q134.8096,293.1875 136.0439,293.1875 Q136.7783,293.1875 137.4189,293.3594 Q138.0752,293.5156 138.6221,293.875 Z " fill="#000000"/><text fill="#E0E0E0" font-family="sans-serif" font-size="14" lengthAdjust="spacing" textLength="290.2744" x="156.3564" y="303.7969">DefaultRecipeToRecipeResponseBodyMapper</text><line style="stroke:#8A8A8A;stroke-width:0.5;" x1="14.5" x2="555.9873" y1="314" y2="314"/><line style="stroke:#8A8A8A;stroke-width:0.5;" x1="14.5" x2="555.9873" y1="322" y2="322"/><ellipse cx="24.5" cy="336.8105" fill="#84BE84" rx="3" ry="3" style="stroke:#038048;stroke-width:1;"/><text fill="#FFFFFF" font-family="sans-serif" font-size="14" lengthAdjust="spacing" textLength="310.4678" x="33.5" y="341.1074">RecipeResponseBody mapToDTO(Recipe recipe)</text><ellipse cx="24.5" cy="355.4316" fill="#84BE84" rx="3" ry="3" style="stroke:#038048;stroke-width:1;"/><text fill="#FFFFFF" font-family="sans-serif" font-size="14" lengthAdjust="spacing" textLength="435.0117" x="33.5" y="359.7285">void map(Recipe recipe, RecipeResponseBody recipeResponseBody)</text><rect fill="#F24D5C" height="6" style="stroke:#C82930;stroke-width:1;" width="6" x="21.5" y="371.0527"/><text fill="#FFFFFF" font-family="sans-serif" font-size="14" lengthAdjust="spacing" textLength="446.6875" x="33.5" y="378.3496">void mapId(Recipe recipe, RecipeResponseBody recipeResponseBody)</text><rect fill="#F24D5C" height="6" style="stroke:#C82930;stroke-width:1;" width="6" x="21.5" y="389.6738"/><text fill="#FFFFFF" font-family="sans-serif" font-size="14" lengthAdjust="spacing" textLength="472.3564" x="33.5" y="396.9707">void mapName(Recipe recipe, RecipeResponseBody recipeResponseBody)</text><rect fill="#F24D5C" height="6" style="stroke:#C82930;stroke-width:1;" width="6" x="21.5" y="408.2949"/><text fill="#FFFFFF" font-family="sans-serif" font-size="14" lengthAdjust="spacing" textLength="473.9219" x="33.5" y="415.5918">void mapImage(Recipe recipe, RecipeResponseBody recipeResponseBody)</text><rect fill="#F24D5C" height="6" style="stroke:#C82930;stroke-width:1;" width="6" x="21.5" y="426.916"/><text fill="#FFFFFF" font-family="sans-serif" font-size="14" lengthAdjust="spacing" textLength="505.0391" x="33.5" y="434.2129">void mapDescription(Recipe recipe, RecipeResponseBody recipeResponseBody)</text><rect fill="#F24D5C" height="6" style="stroke:#C82930;stroke-width:1;" width="6" x="21.5" y="445.5371"/><text fill="#FFFFFF" font-family="sans-serif" font-size="14" lengthAdjust="spacing" textLength="487.9082" x="33.5" y="452.834">void mapDifficulty(Recipe recipe, RecipeResponseBody recipeResponseBody)</text><rect fill="#F24D5C" height="6" style="stroke:#C82930;stroke-width:1;" width="6" x="21.5" y="464.1582"/><text fill="#FFFFFF" font-family="sans-serif" font-size="14" lengthAdjust="spacing" textLength="502.7148" x="33.5" y="471.4551">void mapCategories(Recipe recipe, RecipeResponseBody recipeResponseBody)</text><rect fill="#F24D5C" height="6" style="stroke:#C82930;stroke-width:1;" width="6" x="21.5" y="482.7793"/><text fill="#FFFFFF" font-family="sans-serif" font-size="14" lengthAdjust="spacing" textLength="504.2803" x="33.5" y="490.0762">void mapIngredients(Recipe recipe, RecipeResponseBody recipeResponseBody)</text><rect fill="#F24D5C" height="6" style="stroke:#C82930;stroke-width:1;" width="6" x="21.5" y="501.4004"/><text fill="#FFFFFF" font-family="sans-serif" font-size="14" lengthAdjust="spacing" textLength="489.4805" x="33.5" y="508.6973">void mapServings(Recipe recipe, RecipeResponseBody recipeResponseBody)</text><rect fill="#F24D5C" height="6" style="stroke:#C82930;stroke-width:1;" width="6" x="21.5" y="520.0215"/><text fill="#FFFFFF" font-family="sans-serif" font-size="14" lengthAdjust="spacing" textLength="517.4873" x="33.5" y="527.3184">void mapCookingTime(Recipe recipe, RecipeResponseBody recipeResponseBody)</text><rect fill="#F24D5C" height="6" style="stroke:#C82930;stroke-width:1;" width="6" x="21.5" y="538.6426"/><text fill="#FFFFFF" font-family="sans-serif" font-size="14" lengthAdjust="spacing" textLength="506.5977" x="33.5" y="545.9395">void mapInstructions(Recipe recipe, RecipeResponseBody recipeResponseBody)</text></g><!--reverse link Mapper to RecipeToRecipeResponseBodyMapper--><g class="link" data-entity-1="Mapper" data-entity-2="RecipeToRecipeResponseBodyMapper" data-source-line="21" data-uid="lnk5" id="link_Mapper_RecipeToRecipeResponseBodyMapper"><path d="M189,95.12 C189,113.13 189,117.51 189,136.75" fill="none" id="Mapper-backto-RecipeToRecipeResponseBodyMapper" style="stroke:#B0C4DE;stroke-width:1;"/><polygon fill="none" points="189,77.12,183,95.12,195,95.12,189,77.12" style="stroke:#B0C4DE;stroke-width:1;"/></g><!--reverse link ToDTOMapper to RecipeToRecipeResponseBodyMapper--><g class="link" data-entity-1="ToDTOMapper" data-entity-2="RecipeToRecipeResponseBodyMapper" data-source-line="21" data-uid="lnk6" id="link_ToDTOMapper_RecipeToRecipeResponseBodyMapper"><path d="M390.5,95.12 C390.5,113.13 390.5,117.51 390.5,136.75" fill="none" id="ToDTOMapper-backto-RecipeToRecipeResponseBodyMapper" style="stroke:#B0C4DE;stroke-width:1;"/><polygon fill="none" points="390.5,77.12,384.5,95.12,396.5,95.12,390.5,77.12" style="stroke:#B0C4DE;stroke-width:1;"/></g><!--reverse link RecipeToRecipeResponseBodyMapper to DefaultRecipeToRecipeResponseBodyMapper--><g class="link" data-entity-1="RecipeToRecipeResponseBodyMapper" data-entity-2="DefaultRecipeToRecipeResponseBodyMapper" data-source-line="26" data-uid="lnk8" id="link_RecipeToRecipeResponseBodyMapper_DefaultRecipeToRecipeResponseBodyMapper"><path d="M285,240.05 C285,257.3 285,260.26 285,281.97" fill="none" id="RecipeToRecipeResponseBodyMapper-backto-DefaultRecipeToRecipeResponseBodyMapper" style="stroke:#B0C4DE;stroke-width:1;stroke-dasharray:7,7;"/><polygon fill="none" points="285,222.05,279,240.05,291,240.05,285,222.05" style="stroke:#B0C4DE;stroke-width:1;"/></g><!--SRC=[hPJVIyGm3CVVzrT4V57yWOeFljxT57nGGVSFr3QRmQufQQSUul_kUfiwl8D3wG8h9Dz-cgIXuPcSLw9QiEGmBZq2ItpY8dm77fL-ReGxPnPiMM3tz3BPH66mLfsD5Rx5cQN6jUWYwFw7Cb7DHFXrHCnF5kVb516UbE5NSWtKoWQSHAxOnN7NrUgRnBHL8MmLp68KUkmYRbNUO5-wMPVzri5x0J3_tPUpCbcAi1YKqNinIzPx9zZBasJ5Hr7iaDEsCmWtodkKOz-rziTPSLdTJIC5fQRMIYFSeoQF5G_hFGRFBk2SpNBO0Frje3DX91zEOQly0GxWXSb0g_pUG870dMWyX7KeH2KDnlrnumP1ZraTySMIrRAVgXoQLWvZiZLnQht5D4DXUv7lVyzdS-L3T6FbikOQ84VVa6kJ1NEhMioJJwkQFAGIWnRoaTZbuL5Ta-wdO9a5jr0H6nR2aATlhX4qb4Ol2-y1vQL_q_B05ipzAzHKb6j8N8ZIwNIr_qtmunC0]--></g></svg>