<svg xmlns="http://www.w3.org/2000/svg" contentStyleType="text/css" data-diagram-type="CLASS" height="541px"
     preserveAspectRatio="none" style="width:552px;height:541px;background:#1E1E1E;" version="1.1" viewBox="0 0 552 541"
     width="552px" zoomAndPan="magnify"><defs/><g><rect fill="#1E1E1E" height="541" style="stroke:none;stroke-width:1;" width="552" x="0" y="0"/><!--class Mapper--><g class="entity" data-entity="Mapper" data-source-line="17" data-uid="ent0002" id="entity_Mapper"><rect fill="#2D2D2D" height="66.6211" rx="2.5" ry="2.5" style="stroke:#8A8A8A;stroke-width:0.5;" width="270.3301" x="7" y="10"/><ellipse cx="72.4951" cy="26" fill="#B4A7E5" rx="11" ry="11" style="stroke:#181818;stroke-width:1;"/><path d="M73.4482,22.6406 L73.4482,29.2969 L75.167,29.2969 Q75.7764,29.2969 76.042,29.5313 Q76.3076,29.7656 76.3076,30.1563 Q76.3076,30.5313 76.042,30.7656 Q75.7764,31 75.167,31 L70.0264,31 Q69.417,31 69.1514,30.7656 Q68.8857,30.5313 68.8857,30.1406 Q68.8857,29.7656 69.1514,29.5313 Q69.417,29.2969 70.0264,29.2969 L71.7451,29.2969 L71.7451,22.6406 L70.0264,22.6406 Q69.417,22.6406 69.1514,22.4063 Q68.8857,22.1719 68.8857,21.7813 Q68.8857,21.4063 69.1514,21.1719 Q69.417,20.9375 70.0264,20.9375 L75.167,20.9375 Q75.7764,20.9375 76.042,21.1719 Q76.3076,21.4063 76.3076,21.7813 Q76.3076,22.1719 76.042,22.4063 Q75.7764,22.6406 75.167,22.6406 L73.4482,22.6406 Z " fill="#000000"/><text fill="#E0E0E0" font-family="sans-serif" font-size="14" font-style="italic" lengthAdjust="spacing" textLength="47.4688" x="92.9951" y="31.7969">Mapper</text><rect fill="#2D2D2D" height="17.9609" style="stroke:#8A8A8A;stroke-width:1;stroke-dasharray:2,2;" width="81.3711" x="198.959" y="7"/><text fill="#000000" font-family="sans-serif" font-size="12" font-style="italic" lengthAdjust="spacing" textLength="79.3711" x="199.959" y="20.9492">Source, Target</text><line style="stroke:#8A8A8A;stroke-width:0.5;" x1="8" x2="276.3301" y1="42" y2="42"/><line style="stroke:#8A8A8A;stroke-width:0.5;" x1="8" x2="276.3301" y1="50" y2="50"/><ellipse cx="18" cy="64.8105" fill="#84BE84" rx="3" ry="3" style="stroke:#038048;stroke-width:1;"/><text fill="#FFFFFF" font-family="sans-serif" font-size="14" lengthAdjust="spacing" textLength="244.3301" x="27" y="69.1074">void map(Source source, Target target)</text></g><!--class ToEntityMapper--><g class="entity" data-entity="ToEntityMapper" data-source-line="17" data-uid="ent0003" id="entity_ToEntityMapper"><rect fill="#2D2D2D" height="66.6211" rx="2.5" ry="2.5" style="stroke:#8A8A8A;stroke-width:0.5;" width="229.082" x="312.5" y="10"/><ellipse cx="336.3022" cy="26" fill="#B4A7E5" rx="11" ry="11" style="stroke:#181818;stroke-width:1;"/><path d="M337.2554,22.6406 L337.2554,29.2969 L338.9741,29.2969 Q339.5835,29.2969 339.8491,29.5313 Q340.1147,29.7656 340.1147,30.1563 Q340.1147,30.5313 339.8491,30.7656 Q339.5835,31 338.9741,31 L333.8335,31 Q333.2241,31 332.9585,30.7656 Q332.6929,30.5313 332.6929,30.1406 Q332.6929,29.7656 332.9585,29.5313 Q333.2241,29.2969 333.8335,29.2969 L335.5522,29.2969 L335.5522,22.6406 L333.8335,22.6406 Q333.2241,22.6406 332.9585,22.4063 Q332.6929,22.1719 332.6929,21.7813 Q332.6929,21.4063 332.9585,21.1719 Q333.2241,20.9375 333.8335,20.9375 L338.9741,20.9375 Q339.5835,20.9375 339.8491,21.1719 Q340.1147,21.4063 340.1147,21.7813 Q340.1147,22.1719 339.8491,22.4063 Q339.5835,22.6406 338.9741,22.6406 L337.2554,22.6406 Z " fill="#000000"/><text fill="#E0E0E0" font-family="sans-serif" font-size="14" font-style="italic" lengthAdjust="spacing" textLength="98.8203" x="352.2583" y="31.7969">ToEntityMapper</text><rect fill="#2D2D2D" height="17.9609" style="stroke:#8A8A8A;stroke-width:1;stroke-dasharray:2,2;" width="76.7012" x="467.8809" y="7"/><text fill="#000000" font-family="sans-serif" font-size="12" font-style="italic" lengthAdjust="spacing" textLength="74.7012" x="468.8809" y="20.9492">Source, Entity</text><line style="stroke:#8A8A8A;stroke-width:0.5;" x1="313.5" x2="540.582" y1="42" y2="42"/><line style="stroke:#8A8A8A;stroke-width:0.5;" x1="313.5" x2="540.582" y1="50" y2="50"/><text fill="#FFFFFF" font-family="sans-serif" font-size="14" lengthAdjust="spacing" textLength="217.082" x="318.5" y="69.1074">Entity mapToEntity(Source source)</text></g><!--class RecipeRequestBodyToRecipeMapper--><g class="entity" data-entity="RecipeRequestBodyToRecipeMapper" data-source-line="20" data-uid="ent0004" id="entity_RecipeRequestBodyToRecipeMapper"><rect fill="#2D2D2D" height="85.2422" rx="2.5" ry="2.5" style="stroke:#8A8A8A;stroke-width:0.5;" width="415.0879" x="76.5" y="137"/><ellipse cx="162.2842" cy="153" fill="#B4A7E5" rx="11" ry="11" style="stroke:#181818;stroke-width:1;"/><path d="M163.2373,149.6406 L163.2373,156.2969 L164.9561,156.2969 Q165.5654,156.2969 165.8311,156.5313 Q166.0967,156.7656 166.0967,157.1563 Q166.0967,157.5313 165.8311,157.7656 Q165.5654,158 164.9561,158 L159.8154,158 Q159.2061,158 158.9404,157.7656 Q158.6748,157.5313 158.6748,157.1406 Q158.6748,156.7656 158.9404,156.5313 Q159.2061,156.2969 159.8154,156.2969 L161.5342,156.2969 L161.5342,149.6406 L159.8154,149.6406 Q159.2061,149.6406 158.9404,149.4063 Q158.6748,149.1719 158.6748,148.7813 Q158.6748,148.4063 158.9404,148.1719 Q159.2061,147.9375 159.8154,147.9375 L164.9561,147.9375 Q165.5654,147.9375 165.8311,148.1719 Q166.0967,148.4063 166.0967,148.7813 Q166.0967,149.1719 165.8311,149.4063 Q165.5654,149.6406 164.9561,149.6406 L163.2373,149.6406 Z " fill="#000000"/><text fill="#E0E0E0" font-family="sans-serif" font-size="14" font-style="italic" lengthAdjust="spacing" textLength="235.0195" x="182.7842" y="158.7969">RecipeRequestBodyToRecipeMapper</text><line style="stroke:#8A8A8A;stroke-width:0.5;" x1="77.5" x2="490.5879" y1="169" y2="169"/><line style="stroke:#8A8A8A;stroke-width:0.5;" x1="77.5" x2="490.5879" y1="177" y2="177"/><ellipse cx="87.5" cy="191.8105" fill="#84BE84" rx="3" ry="3" style="stroke:#038048;stroke-width:1;"/><text fill="#FFFFFF" font-family="sans-serif" font-size="14" lengthAdjust="spacing" textLength="330.7227" x="96.5" y="196.1074">void map(RecipeRequestBody source, Recipe target)</text><ellipse cx="87.5" cy="210.4316" fill="#84BE84" rx="3" ry="3" style="stroke:#038048;stroke-width:1;"/><text fill="#FFFFFF" font-family="sans-serif" font-size="14" lengthAdjust="spacing" textLength="389.0879" x="96.5" y="214.7285">Recipe mapToEntity(RecipeRequestBody recipeRequestBody)</text></g><!--class DefaultRecipeRequestBodyToRecipeMapper--><g class="entity" data-entity="DefaultRecipeRequestBodyToRecipeMapper" data-source-line="25" data-uid="ent0007" id="entity_DefaultRecipeRequestBodyToRecipeMapper"><rect fill="#2D2D2D" height="252.832" rx="2.5" ry="2.5" style="stroke:#8A8A8A;stroke-width:0.5;" width="521.6943" x="23" y="282"/><ellipse cx="139.9082" cy="298" fill="#ADD1B2" rx="11" ry="11" style="stroke:#181818;stroke-width:1;"/><path d="M142.6738,293.875 Q142.8301,293.6563 143.0176,293.5469 Q143.2051,293.4375 143.4238,293.4375 Q143.7988,293.4375 144.0332,293.7031 Q144.2676,293.9531 144.2676,294.5625 L144.2676,296.0156 Q144.2676,296.625 144.0332,296.8906 Q143.7988,297.1563 143.4238,297.1563 Q143.0801,297.1563 142.877,296.9531 Q142.6738,296.7656 142.5645,296.25 Q142.5176,295.8906 142.3301,295.7031 Q142.002,295.3281 141.3926,295.1094 Q140.7832,294.8906 140.1582,294.8906 Q139.3926,294.8906 138.752,295.2188 Q138.127,295.5469 137.627,296.2969 Q137.1426,297.0469 137.1426,298.0781 L137.1426,299.1719 Q137.1426,300.4063 138.0332,301.2344 Q138.9238,302.0469 140.5176,302.0469 Q141.4551,302.0469 142.1113,301.7969 Q142.502,301.6406 142.9238,301.2031 Q143.1895,300.9375 143.3301,300.8594 Q143.4863,300.7813 143.6895,300.7813 Q144.0176,300.7813 144.2676,301.0469 Q144.5332,301.2969 144.5332,301.6406 Q144.5332,301.9844 144.1895,302.3906 Q143.6895,302.9688 142.8926,303.2969 Q141.8145,303.75 140.5176,303.75 Q139.002,303.75 137.7988,303.125 Q136.8145,302.625 136.127,301.5625 Q135.4395,300.4844 135.4395,299.2031 L135.4395,298.0469 Q135.4395,296.7188 136.0488,295.5781 Q136.6738,294.4219 137.7676,293.8125 Q138.8613,293.1875 140.0957,293.1875 Q140.8301,293.1875 141.4707,293.3594 Q142.127,293.5156 142.6738,293.875 Z " fill="#000000"/><text fill="#E0E0E0" font-family="sans-serif" font-size="14" lengthAdjust="spacing" textLength="279.3779" x="160.4082" y="303.7969">DefaultRecipeRequestBodyToRecipeMapper</text><line style="stroke:#8A8A8A;stroke-width:0.5;" x1="24" x2="543.6943" y1="314" y2="314"/><line style="stroke:#8A8A8A;stroke-width:0.5;" x1="24" x2="543.6943" y1="322" y2="322"/><ellipse cx="34" cy="336.8105" fill="#84BE84" rx="3" ry="3" style="stroke:#038048;stroke-width:1;"/><text fill="#FFFFFF" font-family="sans-serif" font-size="14" lengthAdjust="spacing" textLength="389.0879" x="43" y="341.1074">Recipe mapToEntity(RecipeRequestBody recipeRequestBody)</text><ellipse cx="34" cy="355.4316" fill="#84BE84" rx="3" ry="3" style="stroke:#038048;stroke-width:1;"/><text fill="#FFFFFF" font-family="sans-serif" font-size="14" lengthAdjust="spacing" textLength="413.2188" x="43" y="359.7285">void map(RecipeRequestBody recipeRequestBody, Recipe recipe)</text><rect fill="#F24D5C" height="6" style="stroke:#C82930;stroke-width:1;" width="6" x="31" y="371.0527"/><text fill="#FFFFFF" font-family="sans-serif" font-size="14" lengthAdjust="spacing" textLength="450.5635" x="43" y="378.3496">void mapName(RecipeRequestBody recipeRequestBody, Recipe recipe)</text><rect fill="#F24D5C" height="6" style="stroke:#C82930;stroke-width:1;" width="6" x="31" y="389.6738"/><text fill="#FFFFFF" font-family="sans-serif" font-size="14" lengthAdjust="spacing" textLength="452.1289" x="43" y="396.9707">void mapImage(RecipeRequestBody recipeRequestBody, Recipe recipe)</text><rect fill="#F24D5C" height="6" style="stroke:#C82930;stroke-width:1;" width="6" x="31" y="408.2949"/><text fill="#FFFFFF" font-family="sans-serif" font-size="14" lengthAdjust="spacing" textLength="483.2461" x="43" y="415.5918">void mapDescription(RecipeRequestBody recipeRequestBody, Recipe recipe)</text><rect fill="#F24D5C" height="6" style="stroke:#C82930;stroke-width:1;" width="6" x="31" y="426.916"/><text fill="#FFFFFF" font-family="sans-serif" font-size="14" lengthAdjust="spacing" textLength="466.1152" x="43" y="434.2129">void mapDifficulty(RecipeRequestBody recipeRequestBody, Recipe recipe)</text><rect fill="#F24D5C" height="6" style="stroke:#C82930;stroke-width:1;" width="6" x="31" y="445.5371"/><text fill="#FFFFFF" font-family="sans-serif" font-size="14" lengthAdjust="spacing" textLength="480.9219" x="43" y="452.834">void mapCategories(RecipeRequestBody recipeRequestBody, Recipe recipe)</text><rect fill="#F24D5C" height="6" style="stroke:#C82930;stroke-width:1;" width="6" x="31" y="464.1582"/><text fill="#FFFFFF" font-family="sans-serif" font-size="14" lengthAdjust="spacing" textLength="482.4873" x="43" y="471.4551">void mapIngredients(RecipeRequestBody recipeRequestBody, Recipe recipe)</text><rect fill="#F24D5C" height="6" style="stroke:#C82930;stroke-width:1;" width="6" x="31" y="482.7793"/><text fill="#FFFFFF" font-family="sans-serif" font-size="14" lengthAdjust="spacing" textLength="467.6875" x="43" y="490.0762">void mapServings(RecipeRequestBody recipeRequestBody, Recipe recipe)</text><rect fill="#F24D5C" height="6" style="stroke:#C82930;stroke-width:1;" width="6" x="31" y="501.4004"/><text fill="#FFFFFF" font-family="sans-serif" font-size="14" lengthAdjust="spacing" textLength="495.6943" x="43" y="508.6973">void mapCookingTime(RecipeRequestBody recipeRequestBody, Recipe recipe)</text><rect fill="#F24D5C" height="6" style="stroke:#C82930;stroke-width:1;" width="6" x="31" y="520.0215"/><text fill="#FFFFFF" font-family="sans-serif" font-size="14" lengthAdjust="spacing" textLength="484.8047" x="43" y="527.3184">void mapInstructions(RecipeRequestBody recipeRequestBody, Recipe recipe)</text></g><!--reverse link Mapper to RecipeRequestBodyToRecipeMapper--><g class="link" data-entity-1="Mapper" data-entity-2="RecipeRequestBodyToRecipeMapper" data-source-line="21" data-uid="lnk5" id="link_Mapper_RecipeRequestBodyToRecipeMapper"><path d="M176.75,95.12 C176.75,113.13 176.75,117.51 176.75,136.75" fill="none" id="Mapper-backto-RecipeRequestBodyToRecipeMapper" style="stroke:#B0C4DE;stroke-width:1;"/><polygon fill="none" points="176.75,77.12,170.75,95.12,182.75,95.12,176.75,77.12" style="stroke:#B0C4DE;stroke-width:1;"/></g><!--reverse link ToEntityMapper to RecipeRequestBodyToRecipeMapper--><g class="link" data-entity-1="ToEntityMapper" data-entity-2="RecipeRequestBodyToRecipeMapper" data-source-line="21" data-uid="lnk6" id="link_ToEntityMapper_RecipeRequestBodyToRecipeMapper"><path d="M402,95.12 C402,113.13 402,117.51 402,136.75" fill="none" id="ToEntityMapper-backto-RecipeRequestBodyToRecipeMapper" style="stroke:#B0C4DE;stroke-width:1;"/><polygon fill="none" points="402,77.12,396,95.12,408,95.12,402,77.12" style="stroke:#B0C4DE;stroke-width:1;"/></g><!--reverse link RecipeRequestBodyToRecipeMapper to DefaultRecipeRequestBodyToRecipeMapper--><g class="link" data-entity-1="RecipeRequestBodyToRecipeMapper" data-entity-2="DefaultRecipeRequestBodyToRecipeMapper" data-source-line="26" data-uid="lnk8" id="link_RecipeRequestBodyToRecipeMapper_DefaultRecipeRequestBodyToRecipeMapper"><path d="M284,240.04 C284,257.24 284,260.09 284,281.53" fill="none" id="RecipeRequestBodyToRecipeMapper-backto-DefaultRecipeRequestBodyToRecipeMapper" style="stroke:#B0C4DE;stroke-width:1;stroke-dasharray:7,7;"/><polygon fill="none" points="284,222.04,278,240.04,290,240.04,284,222.04" style="stroke:#B0C4DE;stroke-width:1;"/></g><!--SRC=[hPJDJkGm3CVlVGeZBY265RlYm7M-a3Ym1tPU82HkiKZZhEF2ZX3llWqjGpM3L0bQIptOV_yIVoZfaK8qOchm552t4O557xX8ky2ziO-LS1FSaZqB7FzSPnie79QcyRh1VphtL8KQWu9jVoW3rLo4dtl4uc9vkHeYqeDn_4oXWjBuX8F8DGVjiwxVla7CUfFIg62kAdJVA8ugRx4jtHtAzdNmKW0izlloQvKjHrWSIk-zccThlGFi-Y9RyLeKHnIiRnp2hOaHvKTiQl_XtF0wAEbs62mezxKq5k4EBKMymxyD9bsmsswuStLwQEU1mQMUFTl3lHK1S0PFJ0vg4qyEU92u4Okp_YHG8nNgQP_NEzlCT_0d1DdtdEQokowkkhqPAuFgw37lL1gj-EMRLnjjo47EhZTTf4ESxn2_JOqJO6vgKqt1MM6oGb69mnGqAakoxGIt4y2MHh5Y8KnJz2jKWexopan0-uFor3vDKw2MpErJKcrechK8IQMnUPnVkzphVm00]--></g></svg>