<?plantuml 1.2026.2?>
<svg xmlns="http://www.w3.org/2000/svg" contentStyleType="text/css" data-diagram-type="SEQUENCE" height="1321.8333px"
     preserveAspectRatio="none" style="width:1648px;height:1321px;background:#0E1117;" version="1.1"
     viewBox="0 0 1648 1321" width="1648.5px" zoomAndPan="magnify"><title>Create recipe - Sequence</title><defs/><g><rect fill="#0E1117" height="1321.8333" style="stroke:none;stroke-width:1.1667;" width="1648.5" x="0" y="0"/><text fill="#C9D1D9" font-family="sans-serif" font-size="16.3333" font-weight="bold" lengthAdjust="spacing" textLength="195.1785" x="727.9923" y="33.9211">Create recipe - Sequence</text><rect fill="none" height="966.6825" rx="7" ry="7" style="stroke:#30363D;stroke-width:1.75;" width="1628.9965" x="11.6667" y="238.1812"/><rect fill="none" height="799.6378" rx="7" ry="7" style="stroke:#30363D;stroke-width:1.75;" width="1605.6632" x="23.3333" y="344.0898"/><rect fill="none" height="444.0232" rx="7" ry="7" style="stroke:#30363D;stroke-width:1.75;" width="1582.3298" x="35" y="449.9984"/><g class="participant-lifeline" data-entity-uid="part1" data-qualified-name="User" id="part1-lifeline"><g><title>User</title><rect fill="#000000" fill-opacity="0.00000" height="1083.1771" width="9.3333" x="74.0833" y="141.5199"/><line style="stroke:#30363D;stroke-width:0.5833;stroke-dasharray:5.8333,5.8333;" x1="78.1667" x2="78.1667" y1="141.5199" y2="1224.6969"/></g></g><g class="participant-lifeline" data-entity-uid="part2" data-qualified-name="Application" id="part2-lifeline"><g><title>Application</title><rect fill="#000000" fill-opacity="0.00000" height="1083.1771" width="9.3333" x="360.925" y="141.5199"/><line style="stroke:#30363D;stroke-width:0.5833;stroke-dasharray:5.8333,5.8333;" x1="365.3062" x2="365.3062" y1="141.5199" y2="1224.6969"/></g></g><g class="participant-lifeline" data-entity-uid="part3" data-qualified-name="RecipeRestControllerV3" id="part3-lifeline"><g><title>RecipeRestControllerV3</title><rect fill="#000000" fill-opacity="0.00000" height="1083.1771" width="9.3333" x="562.2171" y="141.5199"/><line style="stroke:#30363D;stroke-width:0.5833;stroke-dasharray:5.8333,5.8333;" x1="566.7795" x2="566.7795" y1="141.5199" y2="1224.6969"/></g></g><g class="participant-lifeline" data-entity-uid="part4" data-qualified-name="RecipeServiceV3" id="part4-lifeline"><g><title>RecipeServiceV3</title><rect fill="#000000" fill-opacity="0.00000" height="1083.1771" width="9.3333" x="731.1297" y="141.5199"/><line style="stroke:#30363D;stroke-width:0.5833;stroke-dasharray:5.8333,5.8333;" x1="734.988" x2="734.988" y1="141.5199" y2="1224.6969"/></g></g><g class="participant-lifeline" data-entity-uid="part5" data-qualified-name="RecipeDatabase" id="part5-lifeline"><g><title>RecipeDatabase</title><rect fill="#000000" fill-opacity="0.00000" height="1083.1771" width="9.3333" x="872.8188" y="141.5199"/><line style="stroke:#30363D;stroke-width:0.5833;stroke-dasharray:5.8333,5.8333;" x1="876.6047" x2="876.6047" y1="141.5199" y2="1224.6969"/></g></g><g class="participant-lifeline" data-entity-uid="part6" data-qualified-name="CustomerDatabase" id="part6-lifeline"><g><title>CustomerDatabase</title><rect fill="#000000" fill-opacity="0.00000" height="1083.1771" width="9.3333" x="1022.2239" y="141.5199"/><line style="stroke:#30363D;stroke-width:0.5833;stroke-dasharray:5.8333,5.8333;" x1="1026.5328" x2="1026.5328" y1="141.5199" y2="1224.6969"/></g></g><g class="participant-lifeline" data-entity-uid="part7" data-qualified-name="RecipeRestControllerV3LoggingAspect" id="part7-lifeline"><g><title>RecipeRestControllerV3LoggingAspect</title><rect fill="#000000" fill-opacity="0.00000" height="1083.1771" width="9.3333" x="1252.8849" y="141.5199"/><line style="stroke:#30363D;stroke-width:0.5833;stroke-dasharray:5.8333,5.8333;" x1="1257.0816" x2="1257.0816" y1="141.5199" y2="1224.6969"/></g></g><g class="participant-lifeline" data-entity-uid="part8" data-qualified-name="GlobalExceptionsHandler" id="part8-lifeline"><g><title>GlobalExceptionsHandler</title><rect fill="#000000" fill-opacity="0.00000" height="1083.1771" width="9.3333" x="1505.3424" y="141.5199"/><line style="stroke:#30363D;stroke-width:0.5833;stroke-dasharray:5.8333,5.8333;" x1="1508.8549" x2="1508.8549" y1="141.5199" y2="1224.6969"/></g></g><g class="participant participant-head" data-entity-uid="part1" data-qualified-name="User" id="part1-head"><text fill="#C9D1D9" font-family="sans-serif" font-size="16.3333" lengthAdjust="spacing" textLength="34.485" x="58.0075" y="137.931">User</text><ellipse cx="78.75" cy="69.5933" fill="#0D1117" rx="18.6667" ry="18.6667" style="stroke:#58A6FF;stroke-width:0.5833;"/><path d="M78.75,92.9266 C83.4167,92.9266 86.9167,92.9266 91.5833,88.2599 C100.9167,88.2599 110.25,97.5933 110.25,106.9266 L110.25,111.5933 C110.25,116.2599 105.5833,120.9266 100.9167,120.9266 L56.5833,120.9266 C51.9167,120.9266 47.25,116.2599 47.25,111.5933 L47.25,106.9266 C47.25,97.5933 56.5833,88.2599 65.9167,88.2599 C70.5833,92.9266 74.0833,92.9266 78.75,92.9266" fill="#0D1117" style="stroke:#58A6FF;stroke-width:0.5833;"/></g><g class="participant participant-tail" data-entity-uid="part1" data-qualified-name="User" id="part1-tail"><text fill="#C9D1D9" font-family="sans-serif" font-size="16.3333" lengthAdjust="spacing" textLength="34.485" x="58.0075" y="1239.9513">User</text><ellipse cx="78.75" cy="1262.7902" fill="#0D1117" rx="18.6667" ry="18.6667" style="stroke:#58A6FF;stroke-width:0.5833;"/><path d="M78.75,1286.1235 C83.4167,1286.1235 86.9167,1286.1235 91.5833,1281.4569 C100.9167,1281.4569 110.25,1290.7902 110.25,1300.1235 L110.25,1304.7902 C110.25,1309.4569 105.5833,1314.1235 100.9167,1314.1235 L56.5833,1314.1235 C51.9167,1314.1235 47.25,1309.4569 47.25,1304.7902 L47.25,1300.1235 C47.25,1290.7902 56.5833,1281.4569 65.9167,1281.4569 C70.5833,1286.1235 74.0833,1286.1235 78.75,1286.1235" fill="#0D1117" style="stroke:#58A6FF;stroke-width:0.5833;"/></g><g class="participant participant-head" data-entity-uid="part2" data-qualified-name="Application" id="part2-head"><text fill="#C9D1D9" font-family="sans-serif" font-size="16.3333" lengthAdjust="spacing" textLength="79.9041" x="322.1396" y="137.931">Application</text><path d="M341.675,88.8433 L341.675,116.8433 M341.675,102.8433 L361.5083,102.8433" fill="none" style="stroke:#58A6FF;stroke-width:0.5833;"/><ellipse cx="375.5083" cy="102.8433" fill="#0D1117" rx="14" ry="14" style="stroke:#58A6FF;stroke-width:0.5833;"/></g><g class="participant participant-tail" data-entity-uid="part2" data-qualified-name="Application" id="part2-tail"><text fill="#C9D1D9" font-family="sans-serif" font-size="16.3333" lengthAdjust="spacing" textLength="79.9041" x="322.1396" y="1239.9513">Application</text><path d="M341.675,1248.2069 L341.675,1276.2069 M341.675,1262.2069 L361.5083,1262.2069" fill="none" style="stroke:#58A6FF;stroke-width:0.5833;"/><ellipse cx="375.5083" cy="1262.2069" fill="#0D1117" rx="14" ry="14" style="stroke:#58A6FF;stroke-width:0.5833;"/></g><g class="participant participant-head" data-entity-uid="part3" data-qualified-name="RecipeRestControllerV3" id="part3-head"><text fill="#C9D1D9" font-family="sans-serif" font-size="16.3333" lengthAdjust="spacing" textLength="175.2085" x="475.7795" y="137.931">RecipeRestControllerV3</text><ellipse cx="566.8838" cy="102.8433" fill="#0D1117" rx="14" ry="14" style="stroke:#58A6FF;stroke-width:0.5833;"/><polygon fill="#58A6FF" points="562.2171,88.8433,569.2171,83.0099,566.8838,88.8433,569.2171,94.6766,562.2171,88.8433" style="stroke:#58A6FF;stroke-width:1.1667;"/></g><g class="participant participant-tail" data-entity-uid="part3" data-qualified-name="RecipeRestControllerV3" id="part3-tail"><text fill="#C9D1D9" font-family="sans-serif" font-size="16.3333" lengthAdjust="spacing" textLength="175.2085" x="475.7795" y="1239.9513">RecipeRestControllerV3</text><ellipse cx="566.8838" cy="1262.2069" fill="#0D1117" rx="14" ry="14" style="stroke:#58A6FF;stroke-width:0.5833;"/><polygon fill="#58A6FF" points="562.2171,1248.2069,569.2171,1242.3735,566.8838,1248.2069,569.2171,1254.0402,562.2171,1248.2069" style="stroke:#58A6FF;stroke-width:1.1667;"/></g><g class="participant participant-head" data-entity-uid="part4" data-qualified-name="RecipeServiceV3" id="part4-head"><text fill="#C9D1D9" font-family="sans-serif" font-size="16.3333" lengthAdjust="spacing" textLength="125.2834" x="669.6547" y="137.931">RecipeServiceV3</text><ellipse cx="735.7964" cy="102.8433" fill="#0D1117" rx="14" ry="14" style="stroke:#58A6FF;stroke-width:0.5833;"/><polygon fill="#58A6FF" points="731.1297,88.8433,738.1297,83.0099,735.7964,88.8433,738.1297,94.6766,731.1297,88.8433" style="stroke:#58A6FF;stroke-width:1.1667;"/></g><g class="participant participant-tail" data-entity-uid="part4" data-qualified-name="RecipeServiceV3" id="part4-tail"><text fill="#C9D1D9" font-family="sans-serif" font-size="16.3333" lengthAdjust="spacing" textLength="125.2834" x="669.6547" y="1239.9513">RecipeServiceV3</text><ellipse cx="735.7964" cy="1262.2069" fill="#0D1117" rx="14" ry="14" style="stroke:#58A6FF;stroke-width:0.5833;"/><polygon fill="#58A6FF" points="731.1297,1248.2069,738.1297,1242.3735,735.7964,1248.2069,738.1297,1254.0402,731.1297,1248.2069" style="stroke:#58A6FF;stroke-width:1.1667;"/></g><g class="participant participant-head" data-entity-uid="part5" data-qualified-name="RecipeDatabase" id="part5-head"><text fill="#C9D1D9" font-family="sans-serif" font-size="16.3333" lengthAdjust="spacing" textLength="120.7614" x="813.6047" y="137.931">RecipeDatabase</text><path d="M856.4854,79.5099 C856.4854,67.8433 877.4854,67.8433 877.4854,67.8433 C877.4854,67.8433 898.4854,67.8433 898.4854,79.5099 L898.4854,109.8433 C898.4854,121.5099 877.4854,121.5099 877.4854,121.5099 C877.4854,121.5099 856.4854,121.5099 856.4854,109.8433 L856.4854,79.5099" fill="#0D1117" style="stroke:#58A6FF;stroke-width:0.5833;"/><path d="M856.4854,79.5099 C856.4854,91.1766 877.4854,91.1766 877.4854,91.1766 C877.4854,91.1766 898.4854,91.1766 898.4854,79.5099" fill="none" style="stroke:#58A6FF;stroke-width:0.5833;"/></g><g class="participant participant-tail" data-entity-uid="part5" data-qualified-name="RecipeDatabase" id="part5-tail"><text fill="#C9D1D9" font-family="sans-serif" font-size="16.3333" lengthAdjust="spacing" textLength="120.7614" x="813.6047" y="1239.9513">RecipeDatabase</text><path d="M856.4854,1255.2069 C856.4854,1243.5402 877.4854,1243.5402 877.4854,1243.5402 C877.4854,1243.5402 898.4854,1243.5402 898.4854,1255.2069 L898.4854,1285.5402 C898.4854,1297.2069 877.4854,1297.2069 877.4854,1297.2069 C877.4854,1297.2069 856.4854,1297.2069 856.4854,1285.5402 L856.4854,1255.2069" fill="#0D1117" style="stroke:#58A6FF;stroke-width:0.5833;"/><path d="M856.4854,1255.2069 C856.4854,1266.8735 877.4854,1266.8735 877.4854,1266.8735 C877.4854,1266.8735 898.4854,1266.8735 898.4854,1255.2069" fill="none" style="stroke:#58A6FF;stroke-width:0.5833;"/></g><g class="participant participant-head" data-entity-uid="part6" data-qualified-name="CustomerDatabase" id="part6-head"><text fill="#C9D1D9" font-family="sans-serif" font-size="16.3333" lengthAdjust="spacing" textLength="140.7155" x="953.0328" y="137.931">CustomerDatabase</text><path d="M1005.8905,79.5099 C1005.8905,67.8433 1026.8905,67.8433 1026.8905,67.8433 C1026.8905,67.8433 1047.8905,67.8433 1047.8905,79.5099 L1047.8905,109.8433 C1047.8905,121.5099 1026.8905,121.5099 1026.8905,121.5099 C1026.8905,121.5099 1005.8905,121.5099 1005.8905,109.8433 L1005.8905,79.5099" fill="#0D1117" style="stroke:#58A6FF;stroke-width:0.5833;"/><path d="M1005.8905,79.5099 C1005.8905,91.1766 1026.8905,91.1766 1026.8905,91.1766 C1026.8905,91.1766 1047.8905,91.1766 1047.8905,79.5099" fill="none" style="stroke:#58A6FF;stroke-width:0.5833;"/></g><g class="participant participant-tail" data-entity-uid="part6" data-qualified-name="CustomerDatabase" id="part6-tail"><text fill="#C9D1D9" font-family="sans-serif" font-size="16.3333" lengthAdjust="spacing" textLength="140.7155" x="953.0328" y="1239.9513">CustomerDatabase</text><path d="M1005.8905,1255.2069 C1005.8905,1243.5402 1026.8905,1243.5402 1026.8905,1243.5402 C1026.8905,1243.5402 1047.8905,1243.5402 1047.8905,1255.2069 L1047.8905,1285.5402 C1047.8905,1297.2069 1026.8905,1297.2069 1026.8905,1297.2069 C1026.8905,1297.2069 1005.8905,1297.2069 1005.8905,1285.5402 L1005.8905,1255.2069" fill="#0D1117" style="stroke:#58A6FF;stroke-width:0.5833;"/><path d="M1005.8905,1255.2069 C1005.8905,1266.8735 1026.8905,1266.8735 1026.8905,1266.8735 C1026.8905,1266.8735 1047.8905,1266.8735 1047.8905,1255.2069" fill="none" style="stroke:#58A6FF;stroke-width:0.5833;"/></g><g class="participant participant-head" data-entity-uid="part7" data-qualified-name="RecipeRestControllerV3LoggingAspect" id="part7-head"><text fill="#C9D1D9" font-family="sans-serif" font-size="16.3333" lengthAdjust="spacing" textLength="283.2733" x="1112.415" y="137.931">RecipeRestControllerV3LoggingAspect</text><ellipse cx="1257.5516" cy="102.8433" fill="#0D1117" rx="14" ry="14" style="stroke:#58A6FF;stroke-width:0.5833;"/><polygon fill="#58A6FF" points="1252.8849,88.8433,1259.8849,83.0099,1257.5516,88.8433,1259.8849,94.6766,1252.8849,88.8433" style="stroke:#58A6FF;stroke-width:1.1667;"/></g><g class="participant participant-tail" data-entity-uid="part7" data-qualified-name="RecipeRestControllerV3LoggingAspect" id="part7-tail"><text fill="#C9D1D9" font-family="sans-serif" font-size="16.3333" lengthAdjust="spacing" textLength="283.2733" x="1112.415" y="1239.9513">RecipeRestControllerV3LoggingAspect</text><ellipse cx="1257.5516" cy="1262.2069" fill="#0D1117" rx="14" ry="14" style="stroke:#58A6FF;stroke-width:0.5833;"/><polygon fill="#58A6FF" points="1252.8849,1248.2069,1259.8849,1242.3735,1257.5516,1248.2069,1259.8849,1254.0402,1252.8849,1248.2069" style="stroke:#58A6FF;stroke-width:1.1667;"/></g><g class="participant participant-head" data-entity-uid="part8" data-qualified-name="GlobalExceptionsHandler" id="part8-head"><text fill="#C9D1D9" font-family="sans-serif" font-size="16.3333" lengthAdjust="spacing" textLength="184.3083" x="1414.3549" y="137.931">GlobalExceptionsHandler</text><ellipse cx="1510.009" cy="102.8433" fill="#0D1117" rx="14" ry="14" style="stroke:#58A6FF;stroke-width:0.5833;"/><polygon fill="#58A6FF" points="1505.3424,88.8433,1512.3424,83.0099,1510.009,88.8433,1512.3424,94.6766,1505.3424,88.8433" style="stroke:#58A6FF;stroke-width:1.1667;"/></g><g class="participant participant-tail" data-entity-uid="part8" data-qualified-name="GlobalExceptionsHandler" id="part8-tail"><text fill="#C9D1D9" font-family="sans-serif" font-size="16.3333" lengthAdjust="spacing" textLength="184.3083" x="1414.3549" y="1239.9513">GlobalExceptionsHandler</text><ellipse cx="1510.009" cy="1262.2069" fill="#0D1117" rx="14" ry="14" style="stroke:#58A6FF;stroke-width:0.5833;"/><polygon fill="#58A6FF" points="1505.3424,1248.2069,1512.3424,1242.3735,1510.009,1248.2069,1512.3424,1254.0402,1505.3424,1248.2069" style="stroke:#58A6FF;stroke-width:1.1667;"/></g><g class="message" data-entity-1="part1" data-entity-2="part2" id="msg1"><polygon fill="#58A6FF" points="351.5916,174.1005,363.2583,178.7672,351.5916,183.4338,356.2583,178.7672" style="stroke:#58A6FF;stroke-width:1.1667;"/><line style="stroke:#58A6FF;stroke-width:1.1667;" x1="78.75" x2="358.5916" y1="178.7672" y2="178.7672"/><text fill="#C9D1D9" font-family="sans-serif" font-size="15.1667" font-weight="bold" lengthAdjust="spacing" textLength="8.435" x="92.75" y="173.1013">1</text><text fill="#C9D1D9" font-family="sans-serif" font-size="15.1667" lengthAdjust="spacing" textLength="245.74" x="105.8516" y="173.1013">POST /api/v3/recipes + requestBody</text></g><path d="M371,200.9338 L371,216.1005 A7,7 0 0 0 378,223.1005 L512.1667,223.1005 A7,7 0 0 0 519.1667,216.1005 L519.1667,205.6005 L507.5,193.9338 L378,193.9338 A7,7 0 0 0 371,200.9338" fill="#1C2330" style="stroke:#E7E7E7;stroke-width:0.5833;"/><path d="M507.5,193.9338 L507.5,202.1005 A3.5,3.5 0 0 0 511,205.6005 L519.1667,205.6005 L507.5,193.9338" fill="#1C2330" style="stroke:#E7E7E7;stroke-width:0.5833;"/><text fill="#C9D1D9" font-family="sans-serif" font-size="15.1667" lengthAdjust="spacing" textLength="123.9401" x="378" y="215.0153">authenticates user</text><path d="M18.6667,238.1812 L81.866,238.1812 L81.866,247.4285 L70.1994,259.0951 L11.6667,259.0951 L11.6667,245.1812 A7,7 0 0 1 18.6667,238.1812" fill="#161B22" style="stroke:#30363D;stroke-width:1.75;"/><rect fill="none" height="966.6825" rx="7" ry="7" style="stroke:#30363D;stroke-width:1.75;" width="1628.9965" x="11.6667" y="238.1812"/><text fill="#C9D1D9" font-family="sans-serif" font-size="15.1667" font-weight="bold" lengthAdjust="spacing" textLength="17.6994" x="29.1667" y="254.5959">alt</text><text fill="#C9D1D9" font-family="sans-serif" font-size="12.8333" font-weight="bold" lengthAdjust="spacing" textLength="124.0785" x="99.366" y="253.4167">[User authenticated]</text><g class="message" data-entity-1="part2" data-entity-2="part3" id="msg2"><polygon fill="#58A6FF" points="552.8838,280.0091,564.5505,284.6758,552.8838,289.3424,557.5505,284.6758" style="stroke:#58A6FF;stroke-width:1.1667;"/><line style="stroke:#58A6FF;stroke-width:1.1667;" x1="365.5916" x2="559.8838" y1="284.6758" y2="284.6758"/><text fill="#C9D1D9" font-family="sans-serif" font-size="15.1667" font-weight="bold" lengthAdjust="spacing" textLength="8.435" x="403.1896" y="279.0099">2</text><text fill="#C9D1D9" font-family="sans-serif" font-size="15.1667" lengthAdjust="spacing" textLength="112.9946" x="416.2912" y="279.0099">delegate request</text></g><path d="M571.6667,306.8424 L571.6667,322.0091 A7,7 0 0 0 578.6667,329.0091 L739.6667,329.0091 A7,7 0 0 0 746.6667,322.0091 L746.6667,311.5091 L735,299.8424 L578.6667,299.8424 A7,7 0 0 0 571.6667,306.8424" fill="#1C2330" style="stroke:#E7E7E7;stroke-width:0.5833;"/><path d="M735,299.8424 L735,308.0091 A3.5,3.5 0 0 0 738.5,311.5091 L746.6667,311.5091 L735,299.8424" fill="#1C2330" style="stroke:#E7E7E7;stroke-width:0.5833;"/><text fill="#C9D1D9" font-family="sans-serif" font-size="15.1667" lengthAdjust="spacing" textLength="150.9261" x="578.6667" y="320.9239">Validates request data</text><path d="M30.3333,344.0898 L93.5327,344.0898 L93.5327,353.3371 L81.866,365.0037 L23.3333,365.0037 L23.3333,351.0898 A7,7 0 0 1 30.3333,344.0898" fill="#161B22" style="stroke:#30363D;stroke-width:1.75;"/><rect fill="none" height="799.6378" rx="7" ry="7" style="stroke:#30363D;stroke-width:1.75;" width="1605.6632" x="23.3333" y="344.0898"/><text fill="#C9D1D9" font-family="sans-serif" font-size="15.1667" font-weight="bold" lengthAdjust="spacing" textLength="17.6994" x="40.8333" y="360.5046">alt</text><text fill="#C9D1D9" font-family="sans-serif" font-size="12.8333" font-weight="bold" lengthAdjust="spacing" textLength="92.6845" x="111.0327" y="359.3254">[Validation OK]</text><path d="M1262.3333,377.8371 L1262.3333,393.0037 A7,7 0 0 0 1269.3333,400.0037 L1337,400.0037 A7,7 0 0 0 1344,393.0037 L1344,382.5037 L1332.3333,370.8371 L1269.3333,370.8371 A7,7 0 0 0 1262.3333,377.8371" fill="#1C2330" style="stroke:#E7E7E7;stroke-width:0.5833;"/><path d="M1332.3333,370.8371 L1332.3333,379.0037 A3.5,3.5 0 0 0 1335.8333,382.5037 L1344,382.5037 L1332.3333,370.8371" fill="#1C2330" style="stroke:#E7E7E7;stroke-width:0.5833;"/><text fill="#C9D1D9" font-family="sans-serif" font-size="15.1667" lengthAdjust="spacing" textLength="58.171" x="1269.3333" y="391.9185">log entry</text><g class="message" data-entity-1="part3" data-entity-2="part4" id="msg3"><polygon fill="#58A6FF" points="721.7964,427.8317,733.4631,432.4984,721.7964,437.165,726.4631,432.4984" style="stroke:#58A6FF;stroke-width:1.1667;"/><line style="stroke:#58A6FF;stroke-width:1.1667;" x1="566.8838" x2="728.7964" y1="432.4984" y2="432.4984"/><text fill="#C9D1D9" font-family="sans-serif" font-size="15.1667" font-weight="bold" lengthAdjust="spacing" textLength="8.435" x="588.292" y="426.8325">3</text><text fill="#C9D1D9" font-family="sans-serif" font-size="15.1667" lengthAdjust="spacing" textLength="112.9946" x="601.3936" y="426.8325">delegate request</text></g><path d="M42,449.9984 L105.1994,449.9984 L105.1994,459.2457 L93.5327,470.9124 L35,470.9124 L35,456.9984 A7,7 0 0 1 42,449.9984" fill="#161B22" style="stroke:#30363D;stroke-width:1.75;"/><rect fill="none" height="444.0232" rx="7" ry="7" style="stroke:#30363D;stroke-width:1.75;" width="1582.3298" x="35" y="449.9984"/><text fill="#C9D1D9" font-family="sans-serif" font-size="15.1667" font-weight="bold" lengthAdjust="spacing" textLength="17.6994" x="52.5" y="466.4132">alt</text><text fill="#C9D1D9" font-family="sans-serif" font-size="12.8333" font-weight="bold" lengthAdjust="spacing" textLength="108.4003" x="122.6994" y="465.234">[Customer exists]</text><g class="message" data-entity-1="part4" data-entity-2="part5" id="msg4"><polygon fill="#58A6FF" points="863.4854,491.8263,875.1521,496.493,863.4854,501.1597,868.1521,496.493" style="stroke:#58A6FF;stroke-width:1.1667;"/><line style="stroke:#58A6FF;stroke-width:1.1667;" x1="735.7964" x2="870.4854" y1="496.493" y2="496.493"/><text fill="#C9D1D9" font-family="sans-serif" font-size="15.1667" font-weight="bold" lengthAdjust="spacing" textLength="8.435" x="761.3107" y="490.8271">4</text><text fill="#C9D1D9" font-family="sans-serif" font-size="15.1667" lengthAdjust="spacing" textLength="77.5588" x="774.4123" y="490.8271">save recipe</text></g><g class="message" data-entity-1="part4" data-entity-2="part6" id="msg5"><polygon fill="#58A6FF" points="1012.8905,526.7403,1024.5572,531.407,1012.8905,536.0736,1017.5572,531.407" style="stroke:#58A6FF;stroke-width:1.1667;"/><line style="stroke:#58A6FF;stroke-width:1.1667;" x1="735.7964" x2="1019.8905" y1="531.407" y2="531.407"/><text fill="#C9D1D9" font-family="sans-serif" font-size="15.1667" font-weight="bold" lengthAdjust="spacing" textLength="8.435" x="818.3064" y="525.7411">5</text><text fill="#C9D1D9" font-family="sans-serif" font-size="15.1667" lengthAdjust="spacing" textLength="112.9724" x="831.4081" y="525.7411">update customer</text></g><path d="M1262.3333,553.5736 L1262.3333,568.7403 A7,7 0 0 0 1269.3333,575.7403 L1366.1667,575.7403 A7,7 0 0 0 1373.1667,568.7403 L1373.1667,558.2403 L1361.5,546.5736 L1269.3333,546.5736 A7,7 0 0 0 1262.3333,553.5736" fill="#1C2330" style="stroke:#E7E7E7;stroke-width:0.5833;"/><path d="M1361.5,546.5736 L1361.5,554.7403 A3.5,3.5 0 0 0 1365,558.2403 L1373.1667,558.2403 L1361.5,546.5736" fill="#1C2330" style="stroke:#E7E7E7;stroke-width:0.5833;"/><text fill="#C9D1D9" font-family="sans-serif" font-size="15.1667" lengthAdjust="spacing" textLength="86.8455" x="1269.3333" y="567.6551">log response</text><g class="message" data-entity-1="part3" data-entity-2="part2" id="msg6"><polygon fill="#58A6FF" points="378.425,603.5683,366.7583,608.2349,378.425,612.9016,373.7583,608.2349" style="stroke:#58A6FF;stroke-width:1.1667;"/><line style="stroke:#58A6FF;stroke-width:1.1667;" x1="371.425" x2="565.7171" y1="608.2349" y2="608.2349"/><text fill="#C9D1D9" font-family="sans-serif" font-size="15.1667" font-weight="bold" lengthAdjust="spacing" textLength="8.435" x="398.5685" y="602.5691">6</text><text fill="#C9D1D9" font-family="sans-serif" font-size="15.1667" lengthAdjust="spacing" textLength="122.2368" x="411.6701" y="602.5691">Http created (201)</text></g><g class="message" data-entity-1="part2" data-entity-2="part1" id="msg7"><polygon fill="#58A6FF" points="91.5833,638.4823,79.9167,643.1489,91.5833,647.8156,86.9167,643.1489" style="stroke:#58A6FF;stroke-width:1.1667;"/><line style="stroke:#58A6FF;stroke-width:1.1667;" x1="84.5833" x2="364.425" y1="643.1489" y2="643.1489"/><text fill="#C9D1D9" font-family="sans-serif" font-size="15.1667" font-weight="bold" lengthAdjust="spacing" textLength="8.435" x="154.5016" y="637.4831">7</text><text fill="#C9D1D9" font-family="sans-serif" font-size="15.1667" lengthAdjust="spacing" textLength="122.2368" x="167.6032" y="637.4831">Http created (201)</text></g><line style="stroke:#30363D;stroke-width:1.1667;stroke-dasharray:2.3333,2.3333;" x1="35" x2="1617.3298" y1="653.6489" y2="653.6489"/><text fill="#C9D1D9" font-family="sans-serif" font-size="12.8333" font-weight="bold" lengthAdjust="spacing" textLength="149.9457" x="40.8333" y="666.5512">[Customer doesn't exist]</text><g class="message" data-entity-1="part4" data-entity-2="part7" id="msg8"><polygon fill="#58A6FF" points="1243.5516,691.4517,1255.2183,696.1183,1243.5516,700.785,1248.2183,696.1183" style="stroke:#58A6FF;stroke-width:1.1667;"/><line style="stroke:#58A6FF;stroke-width:1.1667;" x1="735.7964" x2="1250.5516" y1="696.1183" y2="696.1183"/><text fill="#C9D1D9" font-family="sans-serif" font-size="15.1667" font-weight="bold" lengthAdjust="spacing" textLength="8.435" x="937.0102" y="690.4525">8</text><text fill="#C9D1D9" font-family="sans-serif" font-size="15.1667" lengthAdjust="spacing" textLength="106.2259" x="950.1119" y="690.4525">throw exception</text></g><path d="M1262.3333,718.285 L1262.3333,733.4517 A7,7 0 0 0 1269.3333,740.4517 L1335.8333,740.4517 A7,7 0 0 0 1342.8333,733.4517 L1342.8333,722.9517 L1331.1667,711.285 L1269.3333,711.285 A7,7 0 0 0 1262.3333,718.285" fill="#1C2330" style="stroke:#E7E7E7;stroke-width:0.5833;"/><path d="M1331.1667,711.285 L1331.1667,719.4517 A3.5,3.5 0 0 0 1334.6667,722.9517 L1342.8333,722.9517 L1331.1667,711.285" fill="#1C2330" style="stroke:#E7E7E7;stroke-width:0.5833;"/><text fill="#C9D1D9" font-family="sans-serif" font-size="15.1667" lengthAdjust="spacing" textLength="56.4751" x="1269.3333" y="732.3665">log error</text><g class="message" data-entity-1="part7" data-entity-2="part8" id="msg9"><polygon fill="#58A6FF" points="1496.009,768.2796,1507.6757,772.9463,1496.009,777.613,1500.6757,772.9463" style="stroke:#58A6FF;stroke-width:1.1667;"/><line style="stroke:#58A6FF;stroke-width:1.1667;" x1="1257.5516" x2="1503.009" y1="772.9463" y2="772.9463"/><text fill="#C9D1D9" font-family="sans-serif" font-size="15.1667" font-weight="bold" lengthAdjust="spacing" textLength="8.435" x="1314.8484" y="767.2804">9</text><text fill="#C9D1D9" font-family="sans-serif" font-size="15.1667" lengthAdjust="spacing" textLength="124.7621" x="1327.9501" y="767.2804">re-throw exception</text></g><path d="M1515.5,795.113 L1515.5,810.2796 A7,7 0 0 0 1522.5,817.2796 L1589,817.2796 A7,7 0 0 0 1596,810.2796 L1596,799.7796 L1584.3333,788.113 L1522.5,788.113 A7,7 0 0 0 1515.5,795.113" fill="#1C2330" style="stroke:#E7E7E7;stroke-width:0.5833;"/><path d="M1584.3333,788.113 L1584.3333,796.2796 A3.5,3.5 0 0 0 1587.8333,799.7796 L1596,799.7796 L1584.3333,788.113" fill="#1C2330" style="stroke:#E7E7E7;stroke-width:0.5833;"/><text fill="#C9D1D9" font-family="sans-serif" font-size="15.1667" lengthAdjust="spacing" textLength="56.4751" x="1522.5" y="809.1944">log error</text><g class="message" data-entity-1="part3" data-entity-2="part2" id="msg10"><polygon fill="#58A6FF" points="378.425,845.1076,366.7583,849.7743,378.425,854.4409,373.7583,849.7743" style="stroke:#58A6FF;stroke-width:1.1667;"/><line style="stroke:#58A6FF;stroke-width:1.1667;" x1="371.425" x2="565.7171" y1="849.7743" y2="849.7743"/><text fill="#C9D1D9" font-family="sans-serif" font-size="15.1667" font-weight="bold" lengthAdjust="spacing" textLength="16.87" x="388.0192" y="844.1084">10</text><text fill="#C9D1D9" font-family="sans-serif" font-size="15.1667" lengthAdjust="spacing" textLength="134.9004" x="409.5558" y="844.1084">Http not found (404)</text></g><g class="message" data-entity-1="part2" data-entity-2="part1" id="msg11"><polygon fill="#58A6FF" points="91.5833,880.0216,79.9167,884.6882,91.5833,889.3549,86.9167,884.6882" style="stroke:#58A6FF;stroke-width:1.1667;"/><line style="stroke:#58A6FF;stroke-width:1.1667;" x1="84.5833" x2="364.425" y1="884.6882" y2="884.6882"/><text fill="#C9D1D9" font-family="sans-serif" font-size="15.1667" font-weight="bold" lengthAdjust="spacing" textLength="16.87" x="143.9523" y="879.0224">11</text><text fill="#C9D1D9" font-family="sans-serif" font-size="15.1667" lengthAdjust="spacing" textLength="134.9004" x="165.4889" y="879.0224">Http not found (404)</text></g><line style="stroke:#30363D;stroke-width:1.1667;stroke-dasharray:2.3333,2.3333;" x1="23.3333" x2="1628.9965" y1="903.3549" y2="903.3549"/><text fill="#C9D1D9" font-family="sans-serif" font-size="12.8333" font-weight="bold" lengthAdjust="spacing" textLength="106.9528" x="29.1667" y="916.2572">[Validation failed]</text><g class="message" data-entity-1="part3" data-entity-2="part7" id="msg12"><polygon fill="#58A6FF" points="1243.5516,941.1576,1255.2183,945.8243,1243.5516,950.491,1248.2183,945.8243" style="stroke:#58A6FF;stroke-width:1.1667;"/><line style="stroke:#58A6FF;stroke-width:1.1667;" x1="566.8838" x2="1250.5516" y1="945.8243" y2="945.8243"/><text fill="#C9D1D9" font-family="sans-serif" font-size="15.1667" font-weight="bold" lengthAdjust="spacing" textLength="16.87" x="848.3364" y="940.1584">12</text><text fill="#C9D1D9" font-family="sans-serif" font-size="15.1667" lengthAdjust="spacing" textLength="106.2259" x="869.873" y="940.1584">throw exception</text></g><path d="M1262.3333,967.991 L1262.3333,983.1576 A7,7 0 0 0 1269.3333,990.1576 L1335.8333,990.1576 A7,7 0 0 0 1342.8333,983.1576 L1342.8333,972.6576 L1331.1667,960.991 L1269.3333,960.991 A7,7 0 0 0 1262.3333,967.991" fill="#1C2330" style="stroke:#E7E7E7;stroke-width:0.5833;"/><path d="M1331.1667,960.991 L1331.1667,969.1576 A3.5,3.5 0 0 0 1334.6667,972.6576 L1342.8333,972.6576 L1331.1667,960.991" fill="#1C2330" style="stroke:#E7E7E7;stroke-width:0.5833;"/><text fill="#C9D1D9" font-family="sans-serif" font-size="15.1667" lengthAdjust="spacing" textLength="56.4751" x="1269.3333" y="982.0724">log error</text><g class="message" data-entity-1="part7" data-entity-2="part8" id="msg13"><polygon fill="#58A6FF" points="1496.009,1017.9856,1507.6757,1022.6523,1496.009,1027.3189,1500.6757,1022.6523" style="stroke:#58A6FF;stroke-width:1.1667;"/><line style="stroke:#58A6FF;stroke-width:1.1667;" x1="1257.5516" x2="1503.009" y1="1022.6523" y2="1022.6523"/><text fill="#C9D1D9" font-family="sans-serif" font-size="15.1667" font-weight="bold" lengthAdjust="spacing" textLength="16.87" x="1310.6309" y="1016.9864">13</text><text fill="#C9D1D9" font-family="sans-serif" font-size="15.1667" lengthAdjust="spacing" textLength="124.7621" x="1332.1676" y="1016.9864">re-throw exception</text></g><path d="M1515.5,1044.8189 L1515.5,1059.9856 A7,7 0 0 0 1522.5,1066.9856 L1589,1066.9856 A7,7 0 0 0 1596,1059.9856 L1596,1049.4856 L1584.3333,1037.8189 L1522.5,1037.8189 A7,7 0 0 0 1515.5,1044.8189" fill="#1C2330" style="stroke:#E7E7E7;stroke-width:0.5833;"/><path d="M1584.3333,1037.8189 L1584.3333,1045.9856 A3.5,3.5 0 0 0 1587.8333,1049.4856 L1596,1049.4856 L1584.3333,1037.8189" fill="#1C2330" style="stroke:#E7E7E7;stroke-width:0.5833;"/><text fill="#C9D1D9" font-family="sans-serif" font-size="15.1667" lengthAdjust="spacing" textLength="56.4751" x="1522.5" y="1058.9004">log error</text><g class="message" data-entity-1="part3" data-entity-2="part2" id="msg14"><polygon fill="#58A6FF" points="378.425,1094.8136,366.7583,1099.4802,378.425,1104.1469,373.7583,1099.4802" style="stroke:#58A6FF;stroke-width:1.1667;"/><line style="stroke:#58A6FF;stroke-width:1.1667;" x1="371.425" x2="565.7171" y1="1099.4802" y2="1099.4802"/><text fill="#C9D1D9" font-family="sans-serif" font-size="15.1667" font-weight="bold" lengthAdjust="spacing" textLength="16.87" x="379.5916" y="1093.8144">14</text><text fill="#C9D1D9" font-family="sans-serif" font-size="15.1667" lengthAdjust="spacing" textLength="151.7555" x="401.1283" y="1093.8144">Http bad request (400)</text></g><g class="message" data-entity-1="part2" data-entity-2="part1" id="msg15"><polygon fill="#58A6FF" points="91.5833,1129.7275,79.9167,1134.3942,91.5833,1139.0609,86.9167,1134.3942" style="stroke:#58A6FF;stroke-width:1.1667;"/><line style="stroke:#58A6FF;stroke-width:1.1667;" x1="84.5833" x2="364.425" y1="1134.3942" y2="1134.3942"/><text fill="#C9D1D9" font-family="sans-serif" font-size="15.1667" font-weight="bold" lengthAdjust="spacing" textLength="16.87" x="135.5247" y="1128.7284">15</text><text fill="#C9D1D9" font-family="sans-serif" font-size="15.1667" lengthAdjust="spacing" textLength="151.7555" x="157.0614" y="1128.7284">Http bad request (400)</text></g><line style="stroke:#30363D;stroke-width:1.1667;stroke-dasharray:2.3333,2.3333;" x1="11.6667" x2="1640.6632" y1="1153.0609" y2="1153.0609"/><text fill="#C9D1D9" font-family="sans-serif" font-size="12.8333" font-weight="bold" lengthAdjust="spacing" textLength="147.5959" x="17.5" y="1165.9631">[User not authenticated]</text><g class="message" data-entity-1="part2" data-entity-2="part1" id="msg16"><polygon fill="#58A6FF" points="91.5833,1190.8636,79.9167,1195.5303,91.5833,1200.1969,86.9167,1195.5303" style="stroke:#58A6FF;stroke-width:1.1667;"/><line style="stroke:#58A6FF;stroke-width:1.1667;" x1="84.5833" x2="364.425" y1="1195.5303" y2="1195.5303"/><text fill="#C9D1D9" font-family="sans-serif" font-size="15.1667" font-weight="bold" lengthAdjust="spacing" textLength="16.87" x="143.956" y="1189.8644">16</text><text fill="#C9D1D9" font-family="sans-serif" font-size="15.1667" lengthAdjust="spacing" textLength="134.893" x="165.4926" y="1189.8644">Http forbidden (403)</text></g><?plantuml-src jLLDRzim3BtxLn3OOIs6ed7SfUiE0_BH3s3TMZHTxuhDE49LoPFaji6m_pxASHmvjPEqwE2RI3wIxv6qvLOW33KoYw0nvXd20OpnTuuonY1WkLKoVvYW3W9ppsN6D7k02OllKwrocGoLK1e-T4x3C3psFCoC9Ug9onIcJ1ZqB4LOhBH43M7NCoGPXx3NyVEOiWxu4m3yG6DOYdt1KmanIair0VIrLazb5P-_z7jdP_HuoQTuoIKEb4vGbzQe4_MYaMzTxoBiXODkru76LkbQS0MzCBteVrJq3p1Gpyr9dQ4bwg_VygqJv4n9M_eCJqRXwCHpM6fpJaXPKwusrvPkL-u_bMtWPDYDeiwwbv_szDXzQnvU1sUVtUVP2mh7Taw3nvxGg0T_F4OuPRcmBndmV0QkFgRdJGerUBNGxhaEAPjMOZFUqcaxt8XPDc46D-DLNji1hvcsd7QJIRiPqtTiWsMEVlXbQ7qc9KNGppB1OsQvaa6yw1DkYcjmWyQMdGlKTz6QUOpwaST8xqdPJcbOThTw7-R6ajQwicnETAdIbEv7tsGOsyhtNAW94wVFCMQkM7F1P2BSSNBzmC4tlnFu2jTNuriuP1a_V8mE5-VDm2SwTBGOXhXCve5KxlBnT6P1JTV2wVhDwD2u1uhB7MK14xOWhsPCQCEX5aobDFT5i0aAJ1S7jwYZ2AxNqHfxnmHFYdBAO7041mM4AwsqknAklXUlkuBN2ATCGgL0_UbvXT9ILDLgDGnDFLOehihbB00-SsDDPLjbMM5LyCl18NJ37fU_gssnwsD7qNdc68IujDGGtigKHfFHF3QLqqHOVSukhCqWBdx22UnrE-5-3MPjhehfQmogeb1u2mU9GYC_sWNPkt6zhMKxezyk0PPx-2uK8ltAzGxyrMEfv9QZGB0Q3tQlj1tcDTMrg4kfOEhEBUmTTOvsrhSj36MoKBjGsblwAUEYF4UxhEnRTNuVZV-dlc_NzbMwJbXINMAIgBEIQ8EgpK5EqqBEmjKfl_KNuuDEbPxm947f8AFzWE3-0G00?></g></svg>