<?plantuml 1.2026.2?>
<svg xmlns="http://www.w3.org/2000/svg" contentStyleType="text/css" data-diagram-type="SEQUENCE" height="1001px"
     preserveAspectRatio="none" style="width:1549px;height:1001px;background:#0E1117;" version="1.1"
     viewBox="0 0 1549 1001" width="1549.3333px" zoomAndPan="magnify"><title>Delete recipe - Sequence</title><defs/><g><rect fill="#0E1117" height="1001" style="stroke:none;stroke-width:1.1667;" width="1549.3333" x="0" y="0"/><text fill="#C9D1D9" font-family="sans-serif" font-size="16.3333" font-weight="bold" lengthAdjust="spacing" textLength="193.3602" x="679.5144" y="33.9211">Delete recipe - Sequence</text><rect fill="none" height="645.9819" rx="7" ry="7" style="stroke:#30363D;stroke-width:1.75;" width="1530.2223" x="11.6667" y="238.1812"/><rect fill="none" height="444.0232" rx="7" ry="7" style="stroke:#30363D;stroke-width:1.75;" width="1506.889" x="23.3333" y="379.0037"/><g class="participant-lifeline" data-entity-uid="part1" data-qualified-name="User" id="part1-lifeline"><g><title>User</title><rect fill="#000000" fill-opacity="0.00000" height="762.4765" width="9.3333" x="62.4167" y="141.5199"/><line style="stroke:#30363D;stroke-width:0.5833;stroke-dasharray:5.8333,5.8333;" x1="66.5" x2="66.5" y1="141.5199" y2="903.9963"/></g></g><g class="participant-lifeline" data-entity-uid="part2" data-qualified-name="Application" id="part2-lifeline"><g><title>Application</title><rect fill="#000000" fill-opacity="0.00000" height="762.4765" width="9.3333" x="290.6726" y="141.5199"/><line style="stroke:#30363D;stroke-width:0.5833;stroke-dasharray:5.8333,5.8333;" x1="295.0539" x2="295.0539" y1="141.5199" y2="903.9963"/></g></g><g class="participant-lifeline" data-entity-uid="part3" data-qualified-name="RecipeRestControllerV3" id="part3-lifeline"><g><title>RecipeRestControllerV3</title><rect fill="#000000" fill-opacity="0.00000" height="762.4765" width="9.3333" x="475.1096" y="141.5199"/><line style="stroke:#30363D;stroke-width:0.5833;stroke-dasharray:5.8333,5.8333;" x1="479.672" x2="479.672" y1="141.5199" y2="903.9963"/></g></g><g class="participant-lifeline" data-entity-uid="part4" data-qualified-name="RecipeServiceV3" id="part4-lifeline"><g><title>RecipeServiceV3</title><rect fill="#000000" fill-opacity="0.00000" height="762.4765" width="9.3333" x="644.0222" y="141.5199"/><line style="stroke:#30363D;stroke-width:0.5833;stroke-dasharray:5.8333,5.8333;" x1="647.8805" x2="647.8805" y1="141.5199" y2="903.9963"/></g></g><g class="participant-lifeline" data-entity-uid="part5" data-qualified-name="RecipeDatabase" id="part5-lifeline"><g><title>RecipeDatabase</title><rect fill="#000000" fill-opacity="0.00000" height="762.4765" width="9.3333" x="785.7113" y="141.5199"/><line style="stroke:#30363D;stroke-width:0.5833;stroke-dasharray:5.8333,5.8333;" x1="789.4972" x2="789.4972" y1="141.5199" y2="903.9963"/></g></g><g class="participant-lifeline" data-entity-uid="part6" data-qualified-name="CustomerDatabase" id="part6-lifeline"><g><title>CustomerDatabase</title><rect fill="#000000" fill-opacity="0.00000" height="762.4765" width="9.3333" x="935.1164" y="141.5199"/><line style="stroke:#30363D;stroke-width:0.5833;stroke-dasharray:5.8333,5.8333;" x1="939.4253" x2="939.4253" y1="141.5199" y2="903.9963"/></g></g><g class="participant-lifeline" data-entity-uid="part7" data-qualified-name="RecipeRestControllerV3LoggingAspect" id="part7-lifeline"><g><title>RecipeRestControllerV3LoggingAspect</title><rect fill="#000000" fill-opacity="0.00000" height="762.4765" width="9.3333" x="1165.7774" y="141.5199"/><line style="stroke:#30363D;stroke-width:0.5833;stroke-dasharray:5.8333,5.8333;" x1="1169.9741" x2="1169.9741" y1="141.5199" y2="903.9963"/></g></g><g class="participant-lifeline" data-entity-uid="part8" data-qualified-name="GlobalExceptionsHandler" id="part8-lifeline"><g><title>GlobalExceptionsHandler</title><rect fill="#000000" fill-opacity="0.00000" height="762.4765" width="9.3333" x="1418.2349" y="141.5199"/><line style="stroke:#30363D;stroke-width:0.5833;stroke-dasharray:5.8333,5.8333;" x1="1421.7474" x2="1421.7474" y1="141.5199" y2="903.9963"/></g></g><g class="participant participant-head" data-entity-uid="part1" data-qualified-name="User" id="part1-head"><text fill="#C9D1D9" font-family="sans-serif" font-size="16.3333" lengthAdjust="spacing" textLength="34.485" x="46.3408" y="137.931">User</text><ellipse cx="67.0833" cy="69.5933" fill="#0D1117" rx="18.6667" ry="18.6667" style="stroke:#58A6FF;stroke-width:0.5833;"/><path d="M67.0833,92.9266 C71.75,92.9266 75.25,92.9266 79.9167,88.2599 C89.25,88.2599 98.5833,97.5933 98.5833,106.9266 L98.5833,111.5933 C98.5833,116.2599 93.9167,120.9266 89.25,120.9266 L44.9167,120.9266 C40.25,120.9266 35.5833,116.2599 35.5833,111.5933 L35.5833,106.9266 C35.5833,97.5933 44.9167,88.2599 54.25,88.2599 C58.9167,92.9266 62.4167,92.9266 67.0833,92.9266" fill="#0D1117" style="stroke:#58A6FF;stroke-width:0.5833;"/></g><g class="participant participant-tail" data-entity-uid="part1" data-qualified-name="User" id="part1-tail"><text fill="#C9D1D9" font-family="sans-serif" font-size="16.3333" lengthAdjust="spacing" textLength="34.485" x="46.3408" y="919.2507">User</text><ellipse cx="67.0833" cy="942.0896" fill="#0D1117" rx="18.6667" ry="18.6667" style="stroke:#58A6FF;stroke-width:0.5833;"/><path d="M67.0833,965.4229 C71.75,965.4229 75.25,965.4229 79.9167,960.7563 C89.25,960.7563 98.5833,970.0896 98.5833,979.4229 L98.5833,984.0896 C98.5833,988.7563 93.9167,993.4229 89.25,993.4229 L44.9167,993.4229 C40.25,993.4229 35.5833,988.7563 35.5833,984.0896 L35.5833,979.4229 C35.5833,970.0896 44.9167,960.7563 54.25,960.7563 C58.9167,965.4229 62.4167,965.4229 67.0833,965.4229" fill="#0D1117" style="stroke:#58A6FF;stroke-width:0.5833;"/></g><g class="participant participant-head" data-entity-uid="part2" data-qualified-name="Application" id="part2-head"><text fill="#C9D1D9" font-family="sans-serif" font-size="16.3333" lengthAdjust="spacing" textLength="79.9041" x="251.8872" y="137.931">Application</text><path d="M271.4226,88.8433 L271.4226,116.8433 M271.4226,102.8433 L291.2559,102.8433" fill="none" style="stroke:#58A6FF;stroke-width:0.5833;"/><ellipse cx="305.2559" cy="102.8433" fill="#0D1117" rx="14" ry="14" style="stroke:#58A6FF;stroke-width:0.5833;"/></g><g class="participant participant-tail" data-entity-uid="part2" data-qualified-name="Application" id="part2-tail"><text fill="#C9D1D9" font-family="sans-serif" font-size="16.3333" lengthAdjust="spacing" textLength="79.9041" x="251.8872" y="919.2507">Application</text><path d="M271.4226,927.5063 L271.4226,955.5063 M271.4226,941.5063 L291.2559,941.5063" fill="none" style="stroke:#58A6FF;stroke-width:0.5833;"/><ellipse cx="305.2559" cy="941.5063" fill="#0D1117" rx="14" ry="14" style="stroke:#58A6FF;stroke-width:0.5833;"/></g><g class="participant participant-head" data-entity-uid="part3" data-qualified-name="RecipeRestControllerV3" id="part3-head"><text fill="#C9D1D9" font-family="sans-serif" font-size="16.3333" lengthAdjust="spacing" textLength="175.2085" x="388.672" y="137.931">RecipeRestControllerV3</text><ellipse cx="479.7763" cy="102.8433" fill="#0D1117" rx="14" ry="14" style="stroke:#58A6FF;stroke-width:0.5833;"/><polygon fill="#58A6FF" points="475.1096,88.8433,482.1096,83.0099,479.7763,88.8433,482.1096,94.6766,475.1096,88.8433" style="stroke:#58A6FF;stroke-width:1.1667;"/></g><g class="participant participant-tail" data-entity-uid="part3" data-qualified-name="RecipeRestControllerV3" id="part3-tail"><text fill="#C9D1D9" font-family="sans-serif" font-size="16.3333" lengthAdjust="spacing" textLength="175.2085" x="388.672" y="919.2507">RecipeRestControllerV3</text><ellipse cx="479.7763" cy="941.5063" fill="#0D1117" rx="14" ry="14" style="stroke:#58A6FF;stroke-width:0.5833;"/><polygon fill="#58A6FF" points="475.1096,927.5063,482.1096,921.6729,479.7763,927.5063,482.1096,933.3396,475.1096,927.5063" style="stroke:#58A6FF;stroke-width:1.1667;"/></g><g class="participant participant-head" data-entity-uid="part4" data-qualified-name="RecipeServiceV3" id="part4-head"><text fill="#C9D1D9" font-family="sans-serif" font-size="16.3333" lengthAdjust="spacing" textLength="125.2834" x="582.5472" y="137.931">RecipeServiceV3</text><ellipse cx="648.6889" cy="102.8433" fill="#0D1117" rx="14" ry="14" style="stroke:#58A6FF;stroke-width:0.5833;"/><polygon fill="#58A6FF" points="644.0222,88.8433,651.0222,83.0099,648.6889,88.8433,651.0222,94.6766,644.0222,88.8433" style="stroke:#58A6FF;stroke-width:1.1667;"/></g><g class="participant participant-tail" data-entity-uid="part4" data-qualified-name="RecipeServiceV3" id="part4-tail"><text fill="#C9D1D9" font-family="sans-serif" font-size="16.3333" lengthAdjust="spacing" textLength="125.2834" x="582.5472" y="919.2507">RecipeServiceV3</text><ellipse cx="648.6889" cy="941.5063" fill="#0D1117" rx="14" ry="14" style="stroke:#58A6FF;stroke-width:0.5833;"/><polygon fill="#58A6FF" points="644.0222,927.5063,651.0222,921.6729,648.6889,927.5063,651.0222,933.3396,644.0222,927.5063" style="stroke:#58A6FF;stroke-width:1.1667;"/></g><g class="participant participant-head" data-entity-uid="part5" data-qualified-name="RecipeDatabase" id="part5-head"><text fill="#C9D1D9" font-family="sans-serif" font-size="16.3333" lengthAdjust="spacing" textLength="120.7614" x="726.4972" y="137.931">RecipeDatabase</text><path d="M769.3779,79.5099 C769.3779,67.8433 790.3779,67.8433 790.3779,67.8433 C790.3779,67.8433 811.3779,67.8433 811.3779,79.5099 L811.3779,109.8433 C811.3779,121.5099 790.3779,121.5099 790.3779,121.5099 C790.3779,121.5099 769.3779,121.5099 769.3779,109.8433 L769.3779,79.5099" fill="#0D1117" style="stroke:#58A6FF;stroke-width:0.5833;"/><path d="M769.3779,79.5099 C769.3779,91.1766 790.3779,91.1766 790.3779,91.1766 C790.3779,91.1766 811.3779,91.1766 811.3779,79.5099" fill="none" style="stroke:#58A6FF;stroke-width:0.5833;"/></g><g class="participant participant-tail" data-entity-uid="part5" data-qualified-name="RecipeDatabase" id="part5-tail"><text fill="#C9D1D9" font-family="sans-serif" font-size="16.3333" lengthAdjust="spacing" textLength="120.7614" x="726.4972" y="919.2507">RecipeDatabase</text><path d="M769.3779,934.5063 C769.3779,922.8396 790.3779,922.8396 790.3779,922.8396 C790.3779,922.8396 811.3779,922.8396 811.3779,934.5063 L811.3779,964.8396 C811.3779,976.5063 790.3779,976.5063 790.3779,976.5063 C790.3779,976.5063 769.3779,976.5063 769.3779,964.8396 L769.3779,934.5063" fill="#0D1117" style="stroke:#58A6FF;stroke-width:0.5833;"/><path d="M769.3779,934.5063 C769.3779,946.1729 790.3779,946.1729 790.3779,946.1729 C790.3779,946.1729 811.3779,946.1729 811.3779,934.5063" fill="none" style="stroke:#58A6FF;stroke-width:0.5833;"/></g><g class="participant participant-head" data-entity-uid="part6" data-qualified-name="CustomerDatabase" id="part6-head"><text fill="#C9D1D9" font-family="sans-serif" font-size="16.3333" lengthAdjust="spacing" textLength="140.7155" x="865.9253" y="137.931">CustomerDatabase</text><path d="M918.783,79.5099 C918.783,67.8433 939.783,67.8433 939.783,67.8433 C939.783,67.8433 960.783,67.8433 960.783,79.5099 L960.783,109.8433 C960.783,121.5099 939.783,121.5099 939.783,121.5099 C939.783,121.5099 918.783,121.5099 918.783,109.8433 L918.783,79.5099" fill="#0D1117" style="stroke:#58A6FF;stroke-width:0.5833;"/><path d="M918.783,79.5099 C918.783,91.1766 939.783,91.1766 939.783,91.1766 C939.783,91.1766 960.783,91.1766 960.783,79.5099" fill="none" style="stroke:#58A6FF;stroke-width:0.5833;"/></g><g class="participant participant-tail" data-entity-uid="part6" data-qualified-name="CustomerDatabase" id="part6-tail"><text fill="#C9D1D9" font-family="sans-serif" font-size="16.3333" lengthAdjust="spacing" textLength="140.7155" x="865.9253" y="919.2507">CustomerDatabase</text><path d="M918.783,934.5063 C918.783,922.8396 939.783,922.8396 939.783,922.8396 C939.783,922.8396 960.783,922.8396 960.783,934.5063 L960.783,964.8396 C960.783,976.5063 939.783,976.5063 939.783,976.5063 C939.783,976.5063 918.783,976.5063 918.783,964.8396 L918.783,934.5063" fill="#0D1117" style="stroke:#58A6FF;stroke-width:0.5833;"/><path d="M918.783,934.5063 C918.783,946.1729 939.783,946.1729 939.783,946.1729 C939.783,946.1729 960.783,946.1729 960.783,934.5063" fill="none" style="stroke:#58A6FF;stroke-width:0.5833;"/></g><g class="participant participant-head" data-entity-uid="part7" data-qualified-name="RecipeRestControllerV3LoggingAspect" id="part7-head"><text fill="#C9D1D9" font-family="sans-serif" font-size="16.3333" lengthAdjust="spacing" textLength="283.2733" x="1025.3075" y="137.931">RecipeRestControllerV3LoggingAspect</text><ellipse cx="1170.4441" cy="102.8433" fill="#0D1117" rx="14" ry="14" style="stroke:#58A6FF;stroke-width:0.5833;"/><polygon fill="#58A6FF" points="1165.7774,88.8433,1172.7774,83.0099,1170.4441,88.8433,1172.7774,94.6766,1165.7774,88.8433" style="stroke:#58A6FF;stroke-width:1.1667;"/></g><g class="participant participant-tail" data-entity-uid="part7" data-qualified-name="RecipeRestControllerV3LoggingAspect" id="part7-tail"><text fill="#C9D1D9" font-family="sans-serif" font-size="16.3333" lengthAdjust="spacing" textLength="283.2733" x="1025.3075" y="919.2507">RecipeRestControllerV3LoggingAspect</text><ellipse cx="1170.4441" cy="941.5063" fill="#0D1117" rx="14" ry="14" style="stroke:#58A6FF;stroke-width:0.5833;"/><polygon fill="#58A6FF" points="1165.7774,927.5063,1172.7774,921.6729,1170.4441,927.5063,1172.7774,933.3396,1165.7774,927.5063" style="stroke:#58A6FF;stroke-width:1.1667;"/></g><g class="participant participant-head" data-entity-uid="part8" data-qualified-name="GlobalExceptionsHandler" id="part8-head"><text fill="#C9D1D9" font-family="sans-serif" font-size="16.3333" lengthAdjust="spacing" textLength="184.3083" x="1327.2474" y="137.931">GlobalExceptionsHandler</text><ellipse cx="1422.9015" cy="102.8433" fill="#0D1117" rx="14" ry="14" style="stroke:#58A6FF;stroke-width:0.5833;"/><polygon fill="#58A6FF" points="1418.2349,88.8433,1425.2349,83.0099,1422.9015,88.8433,1425.2349,94.6766,1418.2349,88.8433" style="stroke:#58A6FF;stroke-width:1.1667;"/></g><g class="participant participant-tail" data-entity-uid="part8" data-qualified-name="GlobalExceptionsHandler" id="part8-tail"><text fill="#C9D1D9" font-family="sans-serif" font-size="16.3333" lengthAdjust="spacing" textLength="184.3083" x="1327.2474" y="919.2507">GlobalExceptionsHandler</text><ellipse cx="1422.9015" cy="941.5063" fill="#0D1117" rx="14" ry="14" style="stroke:#58A6FF;stroke-width:0.5833;"/><polygon fill="#58A6FF" points="1418.2349,927.5063,1425.2349,921.6729,1422.9015,927.5063,1425.2349,933.3396,1418.2349,927.5063" style="stroke:#58A6FF;stroke-width:1.1667;"/></g><g class="message" data-entity-1="part1" data-entity-2="part2" id="msg1"><polygon fill="#58A6FF" points="281.3393,174.1005,293.0059,178.7672,281.3393,183.4338,286.0059,178.7672" style="stroke:#58A6FF;stroke-width:1.1667;"/><line style="stroke:#58A6FF;stroke-width:1.1667;" x1="67.0833" x2="288.3393" y1="178.7672" y2="178.7672"/><text fill="#C9D1D9" font-family="sans-serif" font-size="15.1667" font-weight="bold" lengthAdjust="spacing" textLength="8.435" x="81.0833" y="173.1013">1</text><text fill="#C9D1D9" font-family="sans-serif" font-size="15.1667" lengthAdjust="spacing" textLength="187.1543" x="94.185" y="173.1013">DELETE /api/v3/recipes/{id}</text></g><path d="M301,200.9338 L301,216.1005 A7,7 0 0 0 308,223.1005 L442.1667,223.1005 A7,7 0 0 0 449.1667,216.1005 L449.1667,205.6005 L437.5,193.9338 L308,193.9338 A7,7 0 0 0 301,200.9338" fill="#1C2330" style="stroke:#E7E7E7;stroke-width:0.5833;"/><path d="M437.5,193.9338 L437.5,202.1005 A3.5,3.5 0 0 0 441,205.6005 L449.1667,205.6005 L437.5,193.9338" fill="#1C2330" style="stroke:#E7E7E7;stroke-width:0.5833;"/><text fill="#C9D1D9" font-family="sans-serif" font-size="15.1667" lengthAdjust="spacing" textLength="123.9401" x="308" y="215.0153">authenticates user</text><path d="M18.6667,238.1812 L81.866,238.1812 L81.866,247.4285 L70.1994,259.0951 L11.6667,259.0951 L11.6667,245.1812 A7,7 0 0 1 18.6667,238.1812" fill="#161B22" style="stroke:#30363D;stroke-width:1.75;"/><rect fill="none" height="645.9819" rx="7" ry="7" style="stroke:#30363D;stroke-width:1.75;" width="1530.2223" x="11.6667" y="238.1812"/><text fill="#C9D1D9" font-family="sans-serif" font-size="15.1667" font-weight="bold" lengthAdjust="spacing" textLength="17.6994" x="29.1667" y="254.5959">alt</text><text fill="#C9D1D9" font-family="sans-serif" font-size="12.8333" font-weight="bold" lengthAdjust="spacing" textLength="124.0785" x="99.366" y="253.4167">[User authenticated]</text><g class="message" data-entity-1="part2" data-entity-2="part3" id="msg2"><polygon fill="#58A6FF" points="465.7763,280.0091,477.443,284.6758,465.7763,289.3424,470.443,284.6758" style="stroke:#58A6FF;stroke-width:1.1667;"/><line style="stroke:#58A6FF;stroke-width:1.1667;" x1="295.3393" x2="472.7763" y1="284.6758" y2="284.6758"/><text fill="#C9D1D9" font-family="sans-serif" font-size="15.1667" font-weight="bold" lengthAdjust="spacing" textLength="8.435" x="324.5096" y="279.0099">2</text><text fill="#C9D1D9" font-family="sans-serif" font-size="15.1667" lengthAdjust="spacing" textLength="112.9946" x="337.6113" y="279.0099">delegate request</text></g><path d="M1176,306.8424 L1176,322.0091 A7,7 0 0 0 1183,329.0091 L1250.6667,329.0091 A7,7 0 0 0 1257.6667,322.0091 L1257.6667,311.5091 L1246,299.8424 L1183,299.8424 A7,7 0 0 0 1176,306.8424" fill="#1C2330" style="stroke:#E7E7E7;stroke-width:0.5833;"/><path d="M1246,299.8424 L1246,308.0091 A3.5,3.5 0 0 0 1249.5,311.5091 L1257.6667,311.5091 L1246,299.8424" fill="#1C2330" style="stroke:#E7E7E7;stroke-width:0.5833;"/><text fill="#C9D1D9" font-family="sans-serif" font-size="15.1667" lengthAdjust="spacing" textLength="58.171" x="1183" y="320.9239">log entry</text><g class="message" data-entity-1="part3" data-entity-2="part4" id="msg3"><polygon fill="#58A6FF" points="634.6889,356.8371,646.3556,361.5037,634.6889,366.1704,639.3556,361.5037" style="stroke:#58A6FF;stroke-width:1.1667;"/><line style="stroke:#58A6FF;stroke-width:1.1667;" x1="479.7763" x2="641.6889" y1="361.5037" y2="361.5037"/><text fill="#C9D1D9" font-family="sans-serif" font-size="15.1667" font-weight="bold" lengthAdjust="spacing" textLength="8.435" x="501.1844" y="355.8379">3</text><text fill="#C9D1D9" font-family="sans-serif" font-size="15.1667" lengthAdjust="spacing" textLength="112.9946" x="514.2861" y="355.8379">delegate request</text></g><path d="M30.3333,379.0037 L93.5327,379.0037 L93.5327,388.2511 L81.866,399.9177 L23.3333,399.9177 L23.3333,386.0037 A7,7 0 0 1 30.3333,379.0037" fill="#161B22" style="stroke:#30363D;stroke-width:1.75;"/><rect fill="none" height="444.0232" rx="7" ry="7" style="stroke:#30363D;stroke-width:1.75;" width="1506.889" x="23.3333" y="379.0037"/><text fill="#C9D1D9" font-family="sans-serif" font-size="15.1667" font-weight="bold" lengthAdjust="spacing" textLength="17.6994" x="40.8333" y="395.4185">alt</text><text fill="#C9D1D9" font-family="sans-serif" font-size="12.8333" font-weight="bold" lengthAdjust="spacing" textLength="108.4003" x="111.0327" y="394.2393">[Customer exists]</text><g class="message" data-entity-1="part4" data-entity-2="part5" id="msg4"><polygon fill="#58A6FF" points="776.3779,420.8317,788.0446,425.4984,776.3779,430.165,781.0446,425.4984" style="stroke:#58A6FF;stroke-width:1.1667;"/><line style="stroke:#58A6FF;stroke-width:1.1667;" x1="648.6889" x2="783.3779" y1="425.4984" y2="425.4984"/><text fill="#C9D1D9" font-family="sans-serif" font-size="15.1667" font-weight="bold" lengthAdjust="spacing" textLength="8.435" x="669.5599" y="419.8325">4</text><text fill="#C9D1D9" font-family="sans-serif" font-size="15.1667" lengthAdjust="spacing" textLength="86.8455" x="682.6615" y="419.8325">delete recipe</text></g><g class="message" data-entity-1="part4" data-entity-2="part6" id="msg5"><polygon fill="#58A6FF" points="925.783,455.7457,937.4497,460.4124,925.783,465.079,930.4497,460.4124" style="stroke:#58A6FF;stroke-width:1.1667;"/><line style="stroke:#58A6FF;stroke-width:1.1667;" x1="648.6889" x2="932.783" y1="460.4124" y2="460.4124"/><text fill="#C9D1D9" font-family="sans-serif" font-size="15.1667" font-weight="bold" lengthAdjust="spacing" textLength="8.435" x="704.6462" y="454.7465">5</text><text fill="#C9D1D9" font-family="sans-serif" font-size="15.1667" lengthAdjust="spacing" textLength="166.078" x="717.7478" y="454.7465">update customer recipes</text></g><path d="M1176,482.579 L1176,497.7457 A7,7 0 0 0 1183,504.7457 L1279.8333,504.7457 A7,7 0 0 0 1286.8333,497.7457 L1286.8333,487.2457 L1275.1667,475.579 L1183,475.579 A7,7 0 0 0 1176,482.579" fill="#1C2330" style="stroke:#E7E7E7;stroke-width:0.5833;"/><path d="M1275.1667,475.579 L1275.1667,483.7457 A3.5,3.5 0 0 0 1278.6667,487.2457 L1286.8333,487.2457 L1275.1667,475.579" fill="#1C2330" style="stroke:#E7E7E7;stroke-width:0.5833;"/><text fill="#C9D1D9" font-family="sans-serif" font-size="15.1667" lengthAdjust="spacing" textLength="86.8455" x="1183" y="496.6605">log response</text><g class="message" data-entity-1="part3" data-entity-2="part2" id="msg6"><polygon fill="#58A6FF" points="308.1726,532.5736,296.5059,537.2403,308.1726,541.907,303.5059,537.2403" style="stroke:#58A6FF;stroke-width:1.1667;"/><line style="stroke:#58A6FF;stroke-width:1.1667;" x1="301.1726" x2="478.6096" y1="537.2403" y2="537.2403"/><text fill="#C9D1D9" font-family="sans-serif" font-size="15.1667" font-weight="bold" lengthAdjust="spacing" textLength="8.435" x="309.7651" y="531.5745">6</text><text fill="#C9D1D9" font-family="sans-serif" font-size="15.1667" lengthAdjust="spacing" textLength="142.4837" x="322.8667" y="531.5745">Http no content (204)</text></g><g class="message" data-entity-1="part2" data-entity-2="part1" id="msg7"><polygon fill="#58A6FF" points="79.9167,567.4876,68.25,572.1543,79.9167,576.821,75.25,572.1543" style="stroke:#58A6FF;stroke-width:1.1667;"/><line style="stroke:#58A6FF;stroke-width:1.1667;" x1="72.9167" x2="294.1726" y1="572.1543" y2="572.1543"/><text fill="#C9D1D9" font-family="sans-serif" font-size="15.1667" font-weight="bold" lengthAdjust="spacing" textLength="8.435" x="103.4186" y="566.4884">7</text><text fill="#C9D1D9" font-family="sans-serif" font-size="15.1667" lengthAdjust="spacing" textLength="142.4837" x="116.5203" y="566.4884">Http no content (204)</text></g><line style="stroke:#30363D;stroke-width:1.1667;stroke-dasharray:2.3333,2.3333;" x1="23.3333" x2="1530.2223" y1="582.6543" y2="582.6543"/><text fill="#C9D1D9" font-family="sans-serif" font-size="12.8333" font-weight="bold" lengthAdjust="spacing" textLength="149.9457" x="29.1667" y="595.5566">[Customer doesn't exist]</text><g class="message" data-entity-1="part4" data-entity-2="part7" id="msg8"><polygon fill="#58A6FF" points="1156.4441,620.457,1168.1108,625.1237,1156.4441,629.7904,1161.1108,625.1237" style="stroke:#58A6FF;stroke-width:1.1667;"/><line style="stroke:#58A6FF;stroke-width:1.1667;" x1="648.6889" x2="1163.4441" y1="625.1237" y2="625.1237"/><text fill="#C9D1D9" font-family="sans-serif" font-size="15.1667" font-weight="bold" lengthAdjust="spacing" textLength="8.435" x="849.9027" y="619.4578">8</text><text fill="#C9D1D9" font-family="sans-serif" font-size="15.1667" lengthAdjust="spacing" textLength="106.2259" x="863.0044" y="619.4578">throw exception</text></g><path d="M1176,647.2904 L1176,662.457 A7,7 0 0 0 1183,669.457 L1249.5,669.457 A7,7 0 0 0 1256.5,662.457 L1256.5,651.957 L1244.8333,640.2904 L1183,640.2904 A7,7 0 0 0 1176,647.2904" fill="#1C2330" style="stroke:#E7E7E7;stroke-width:0.5833;"/><path d="M1244.8333,640.2904 L1244.8333,648.457 A3.5,3.5 0 0 0 1248.3333,651.957 L1256.5,651.957 L1244.8333,640.2904" fill="#1C2330" style="stroke:#E7E7E7;stroke-width:0.5833;"/><text fill="#C9D1D9" font-family="sans-serif" font-size="15.1667" lengthAdjust="spacing" textLength="56.4751" x="1183" y="661.3718">log error</text><g class="message" data-entity-1="part7" data-entity-2="part8" id="msg9"><polygon fill="#58A6FF" points="1408.9015,697.285,1420.5682,701.9517,1408.9015,706.6183,1413.5682,701.9517" style="stroke:#58A6FF;stroke-width:1.1667;"/><line style="stroke:#58A6FF;stroke-width:1.1667;" x1="1170.4441" x2="1415.9015" y1="701.9517" y2="701.9517"/><text fill="#C9D1D9" font-family="sans-serif" font-size="15.1667" font-weight="bold" lengthAdjust="spacing" textLength="8.435" x="1227.7409" y="696.2858">9</text><text fill="#C9D1D9" font-family="sans-serif" font-size="15.1667" lengthAdjust="spacing" textLength="124.7621" x="1240.8426" y="696.2858">re-throw exception</text></g><path d="M1428,724.1183 L1428,739.285 A7,7 0 0 0 1435,746.285 L1501.5,746.285 A7,7 0 0 0 1508.5,739.285 L1508.5,728.785 L1496.8333,717.1183 L1435,717.1183 A7,7 0 0 0 1428,724.1183" fill="#1C2330" style="stroke:#E7E7E7;stroke-width:0.5833;"/><path d="M1496.8333,717.1183 L1496.8333,725.285 A3.5,3.5 0 0 0 1500.3333,728.785 L1508.5,728.785 L1496.8333,717.1183" fill="#1C2330" style="stroke:#E7E7E7;stroke-width:0.5833;"/><text fill="#C9D1D9" font-family="sans-serif" font-size="15.1667" lengthAdjust="spacing" textLength="56.4751" x="1435" y="738.1998">log error</text><g class="message" data-entity-1="part3" data-entity-2="part2" id="msg10"><polygon fill="#58A6FF" points="308.1726,774.113,296.5059,778.7796,308.1726,783.4463,303.5059,778.7796" style="stroke:#58A6FF;stroke-width:1.1667;"/><line style="stroke:#58A6FF;stroke-width:1.1667;" x1="301.1726" x2="478.6096" y1="778.7796" y2="778.7796"/><text fill="#C9D1D9" font-family="sans-serif" font-size="15.1667" font-weight="bold" lengthAdjust="spacing" textLength="16.87" x="309.3393" y="773.1138">10</text><text fill="#C9D1D9" font-family="sans-serif" font-size="15.1667" lengthAdjust="spacing" textLength="134.9004" x="330.8759" y="773.1138">Http not found (404)</text></g><g class="message" data-entity-1="part2" data-entity-2="part1" id="msg11"><polygon fill="#58A6FF" points="79.9167,809.0269,68.25,813.6936,79.9167,818.3603,75.25,813.6936" style="stroke:#58A6FF;stroke-width:1.1667;"/><line style="stroke:#58A6FF;stroke-width:1.1667;" x1="72.9167" x2="294.1726" y1="813.6936" y2="813.6936"/><text fill="#C9D1D9" font-family="sans-serif" font-size="15.1667" font-weight="bold" lengthAdjust="spacing" textLength="16.87" x="102.9928" y="808.0278">11</text><text fill="#C9D1D9" font-family="sans-serif" font-size="15.1667" lengthAdjust="spacing" textLength="134.9004" x="124.5294" y="808.0278">Http not found (404)</text></g><line style="stroke:#30363D;stroke-width:1.1667;stroke-dasharray:2.3333,2.3333;" x1="11.6667" x2="1541.889" y1="832.3603" y2="832.3603"/><text fill="#C9D1D9" font-family="sans-serif" font-size="12.8333" font-weight="bold" lengthAdjust="spacing" textLength="147.5959" x="17.5" y="845.2625">[User not authenticated]</text><g class="message" data-entity-1="part2" data-entity-2="part1" id="msg12"><polygon fill="#58A6FF" points="79.9167,870.163,68.25,874.8297,79.9167,879.4963,75.25,874.8297" style="stroke:#58A6FF;stroke-width:1.1667;"/><line style="stroke:#58A6FF;stroke-width:1.1667;" x1="72.9167" x2="294.1726" y1="874.8297" y2="874.8297"/><text fill="#C9D1D9" font-family="sans-serif" font-size="15.1667" font-weight="bold" lengthAdjust="spacing" textLength="16.87" x="102.9965" y="869.1638">12</text><text fill="#C9D1D9" font-family="sans-serif" font-size="15.1667" lengthAdjust="spacing" textLength="134.893" x="124.5331" y="869.1638">Http forbidden (403)</text></g><?plantuml-src fLLDRzim3BtxLn3OOUsXI1otwRh3W2HEsaCs36stks8pZb1LyYIv7oZwtqSvZgEuTX9iy4ryV7nyb6ZBhK28KQ15q9Zm7E4Cxl1FWJB18625LR9uNA0E0lF0PSuqUuG5InuohGgPJfHG6Zxrfs4ONde8isAfUkOoWoKJ1hr8cPOeBL53EF02QSuX7FRzEgRI0My1m7SqXcKu4ZoJaA2qf0bWfBLwhbHSV1aDPpCwdFCbphd4iT8fwYeQzQDX5FlHPXVXC1mF1euqiKhl9DVKwz27_kEoVu2nUcalwW8TMUz-o_Tk83CbROMPNCLXVEK1DhEv9gQyhLONjAFRBVo7iYsUJ0PHr6-Y_BBJI_Sr45u7imltUV7ImZlxIXUFFQDHZ_xrY7792c4_Ek1XnauVqwzj4sf1TTZkGITKJIkndsy3EamNCyiMpE1-lXfrcF0dqvRJssJIxkVqWLsqpDaFlmmzdqLb4OpoNF24MQvaaApxXDjo6zoYiLNd0lNlg16-G_t44wJpj6gd2cowsvvF2cDfrhgEx2yqLrb6-sDaSaniZRqMQi74z2N1t8arDqocmYqdrm-SVVCxWQyGJ-VJ-odqMCvxJr5llU1Cxusdxu5KRkNnR6L1BHjvjFPMj67S0Heed5S14xPqRIUOqjE6dMJIqDuGqQQqPpDMRbfwcSQMoRiwZZ23Y8JAW2JervAXerwjf1vIcuIImVMscG_W2pVMbETRzYr7JRiPPCLQ_q3sPJOl0UKMUUhq99lorP1gbd_rHwF9wOOqvRJPj3ly6sjpgWhkpf79S3Bedv_MB8rPbpUYAwTCGk5TVaWL6ldPhaq-xF6XHksAVdz4Lhs7_pODwNUg3pYscqTIEnubKMeyEqvXDyMngZhdQ67frXoSd1yzneyfADEW76G9T8Y3My2dN2gzu6cAqb56fm7H_GK0?></g></svg>