<?plantuml 1.2026.2?>
<svg xmlns="http://www.w3.org/2000/svg" contentStyleType="text/css" data-diagram-type="SEQUENCE" height="1291.6667px"
     preserveAspectRatio="none" style="width:1916px;height:1291px;background:#0E1117;" version="1.1"
     viewBox="0 0 1916 1291" width="1916.6667px" zoomAndPan="magnify"><title>Get recipe - Sequence</title><defs/><g><rect fill="#0E1117" height="1291.6667" style="stroke:none;stroke-width:1.6667;" width="1916.6667" x="0" y="0"/><text fill="#C9D1D9" font-family="sans-serif" font-size="23.3333" font-weight="bold" lengthAdjust="spacing" textLength="245.0911" x="838.0086" y="48.4587">Get recipe - Sequence</text><rect fill="none" height="684.196" rx="10" ry="10" style="stroke:#30363D;stroke-width:2.5;" width="1889.4417" x="16.6667" y="440.013"/><g class="participant-lifeline" data-entity-uid="part1" data-qualified-name="User" id="part1-lifeline"><g><title>User</title><rect fill="#000000" fill-opacity="0.00000" height="950.3711" width="13.3333" x="72.5" y="202.1712"/><line style="stroke:#30363D;stroke-width:0.8333;stroke-dasharray:8.3333,8.3333;" x1="78.3333" x2="78.3333" y1="202.1712" y2="1152.5423"/></g></g><g class="participant-lifeline" data-entity-uid="part2" data-qualified-name="Application" id="part2-lifeline"><g><title>Application</title><rect fill="#000000" fill-opacity="0.00000" height="950.3711" width="13.3333" x="358.833" y="202.1712"/><line style="stroke:#30363D;stroke-width:0.8333;stroke-dasharray:8.3333,8.3333;" x1="365.092" x2="365.092" y1="202.1712" y2="1152.5423"/></g></g><g class="participant-lifeline" data-entity-uid="part3" data-qualified-name="RecipeRestControllerV3" id="part3-lifeline"><g><title>RecipeRestControllerV3</title><rect fill="#000000" fill-opacity="0.00000" height="950.3711" width="13.3333" x="626.4933" y="202.1712"/><line style="stroke:#30363D;stroke-width:0.8333;stroke-dasharray:8.3333,8.3333;" x1="633.0111" x2="633.0111" y1="202.1712" y2="1152.5423"/></g></g><g class="participant-lifeline" data-entity-uid="part4" data-qualified-name="RecipeServiceV3" id="part4-lifeline"><g><title>RecipeServiceV3</title><rect fill="#000000" fill-opacity="0.00000" height="950.3711" width="13.3333" x="867.797" y="202.1712"/><line style="stroke:#30363D;stroke-width:0.8333;stroke-dasharray:8.3333,8.3333;" x1="873.3089" x2="873.3089" y1="202.1712" y2="1152.5423"/></g></g><g class="participant-lifeline" data-entity-uid="part5" data-qualified-name="RecipeDatabase" id="part5-lifeline"><g><title>RecipeDatabase</title><rect fill="#000000" fill-opacity="0.00000" height="950.3711" width="13.3333" x="1070.21" y="202.1712"/><line style="stroke:#30363D;stroke-width:0.8333;stroke-dasharray:8.3333,8.3333;" x1="1075.6185" x2="1075.6185" y1="202.1712" y2="1152.5423"/></g></g><g class="participant-lifeline" data-entity-uid="part6" data-qualified-name="RecipeRestControllerV3LoggingAspect" id="part6-lifeline"><g><title>RecipeRestControllerV3LoggingAspect</title><rect fill="#000000" fill-opacity="0.00000" height="950.3711" width="13.3333" x="1385.4728" y="202.1712"/><line style="stroke:#30363D;stroke-width:0.8333;stroke-dasharray:8.3333,8.3333;" x1="1391.4681" x2="1391.4681" y1="202.1712" y2="1152.5423"/></g></g><g class="participant-lifeline" data-entity-uid="part7" data-qualified-name="GlobalExceptionsHandler" id="part7-lifeline"><g><title>GlobalExceptionsHandler</title><rect fill="#000000" fill-opacity="0.00000" height="950.3711" width="13.3333" x="1746.1263" y="202.1712"/><line style="stroke:#30363D;stroke-width:0.8333;stroke-dasharray:8.3333,8.3333;" x1="1751.1442" x2="1751.1442" y1="202.1712" y2="1152.5423"/></g></g><g class="participant participant-head" data-entity-uid="part1" data-qualified-name="User" id="part1-head"><text fill="#C9D1D9" font-family="sans-serif" font-size="23.3333" lengthAdjust="spacing" textLength="49.2643" x="49.5345" y="197.0443">User</text><ellipse cx="79.1667" cy="99.4189" fill="#0D1117" rx="26.6667" ry="26.6667" style="stroke:#58A6FF;stroke-width:0.8333;"/><path d="M79.1667,132.7523 C85.8333,132.7523 90.8333,132.7523 97.5,126.0856 C110.8333,126.0856 124.1667,139.4189 124.1667,152.7523 L124.1667,159.4189 C124.1667,166.0856 117.5,172.7523 110.8333,172.7523 L47.5,172.7523 C40.8333,172.7523 34.1667,166.0856 34.1667,159.4189 L34.1667,152.7523 C34.1667,139.4189 47.5,126.0856 60.8333,126.0856 C67.5,132.7523 72.5,132.7523 79.1667,132.7523" fill="#0D1117" style="stroke:#58A6FF;stroke-width:0.8333;"/></g><g class="participant participant-tail" data-entity-uid="part1" data-qualified-name="User" id="part1-tail"><text fill="#C9D1D9" font-family="sans-serif" font-size="23.3333" lengthAdjust="spacing" textLength="49.2643" x="49.5345" y="1174.3343">User</text><ellipse cx="79.1667" cy="1206.9613" fill="#0D1117" rx="26.6667" ry="26.6667" style="stroke:#58A6FF;stroke-width:0.8333;"/><path d="M79.1667,1240.2946 C85.8333,1240.2946 90.8333,1240.2946 97.5,1233.6279 C110.8333,1233.6279 124.1667,1246.9613 124.1667,1260.2946 L124.1667,1266.9613 C124.1667,1273.6279 117.5,1280.2946 110.8333,1280.2946 L47.5,1280.2946 C40.8333,1280.2946 34.1667,1273.6279 34.1667,1266.9613 L34.1667,1260.2946 C34.1667,1246.9613 47.5,1233.6279 60.8333,1233.6279 C67.5,1240.2946 72.5,1240.2946 79.1667,1240.2946" fill="#0D1117" style="stroke:#58A6FF;stroke-width:0.8333;"/></g><g class="participant participant-head" data-entity-uid="part2" data-qualified-name="Application" id="part2-head"><text fill="#C9D1D9" font-family="sans-serif" font-size="23.3333" lengthAdjust="spacing" textLength="114.1488" x="303.4253" y="197.0443">Application</text><path d="M331.333,126.9189 L331.333,166.9189 M331.333,146.9189 L359.6663,146.9189" fill="none" style="stroke:#58A6FF;stroke-width:0.8333;"/><ellipse cx="379.6663" cy="146.9189" fill="#0D1117" rx="20" ry="20" style="stroke:#58A6FF;stroke-width:0.8333;"/></g><g class="participant participant-tail" data-entity-uid="part2" data-qualified-name="Application" id="part2-tail"><text fill="#C9D1D9" font-family="sans-serif" font-size="23.3333" lengthAdjust="spacing" textLength="114.1488" x="303.4253" y="1174.3343">Application</text><path d="M331.333,1186.1279 L331.333,1226.1279 M331.333,1206.1279 L359.6663,1206.1279" fill="none" style="stroke:#58A6FF;stroke-width:0.8333;"/><ellipse cx="379.6663" cy="1206.1279" fill="#0D1117" rx="20" ry="20" style="stroke:#58A6FF;stroke-width:0.8333;"/></g><g class="participant participant-head" data-entity-uid="part3" data-qualified-name="RecipeRestControllerV3" id="part3-head"><text fill="#C9D1D9" font-family="sans-serif" font-size="23.3333" lengthAdjust="spacing" textLength="250.2979" x="503.0111" y="197.0443">RecipeRestControllerV3</text><ellipse cx="633.16" cy="146.9189" fill="#0D1117" rx="20" ry="20" style="stroke:#58A6FF;stroke-width:0.8333;"/><polygon fill="#58A6FF" points="626.4933,126.9189,636.4933,118.5856,633.16,126.9189,636.4933,135.2523,626.4933,126.9189" style="stroke:#58A6FF;stroke-width:1.6667;"/></g><g class="participant participant-tail" data-entity-uid="part3" data-qualified-name="RecipeRestControllerV3" id="part3-tail"><text fill="#C9D1D9" font-family="sans-serif" font-size="23.3333" lengthAdjust="spacing" textLength="250.2979" x="503.0111" y="1174.3343">RecipeRestControllerV3</text><ellipse cx="633.16" cy="1206.1279" fill="#0D1117" rx="20" ry="20" style="stroke:#58A6FF;stroke-width:0.8333;"/><polygon fill="#58A6FF" points="626.4933,1186.1279,636.4933,1177.7946,633.16,1186.1279,636.4933,1194.4613,626.4933,1186.1279" style="stroke:#58A6FF;stroke-width:1.6667;"/></g><g class="participant participant-head" data-entity-uid="part4" data-qualified-name="RecipeServiceV3" id="part4-head"><text fill="#C9D1D9" font-family="sans-serif" font-size="23.3333" lengthAdjust="spacing" textLength="178.9762" x="779.9756" y="197.0443">RecipeServiceV3</text><ellipse cx="874.4637" cy="146.9189" fill="#0D1117" rx="20" ry="20" style="stroke:#58A6FF;stroke-width:0.8333;"/><polygon fill="#58A6FF" points="867.797,126.9189,877.797,118.5856,874.4637,126.9189,877.797,135.2523,867.797,126.9189" style="stroke:#58A6FF;stroke-width:1.6667;"/></g><g class="participant participant-tail" data-entity-uid="part4" data-qualified-name="RecipeServiceV3" id="part4-tail"><text fill="#C9D1D9" font-family="sans-serif" font-size="23.3333" lengthAdjust="spacing" textLength="178.9762" x="779.9756" y="1174.3343">RecipeServiceV3</text><ellipse cx="874.4637" cy="1206.1279" fill="#0D1117" rx="20" ry="20" style="stroke:#58A6FF;stroke-width:0.8333;"/><polygon fill="#58A6FF" points="867.797,1186.1279,877.797,1177.7946,874.4637,1186.1279,877.797,1194.4613,867.797,1186.1279" style="stroke:#58A6FF;stroke-width:1.6667;"/></g><g class="participant participant-head" data-entity-uid="part5" data-qualified-name="RecipeDatabase" id="part5-head"><text fill="#C9D1D9" font-family="sans-serif" font-size="23.3333" lengthAdjust="spacing" textLength="172.5163" x="985.6185" y="197.0443">RecipeDatabase</text><path d="M1046.8766,113.5856 C1046.8766,96.9189 1076.8766,96.9189 1076.8766,96.9189 C1076.8766,96.9189 1106.8766,96.9189 1106.8766,113.5856 L1106.8766,156.9189 C1106.8766,173.5856 1076.8766,173.5856 1076.8766,173.5856 C1076.8766,173.5856 1046.8766,173.5856 1046.8766,156.9189 L1046.8766,113.5856" fill="#0D1117" style="stroke:#58A6FF;stroke-width:0.8333;"/><path d="M1046.8766,113.5856 C1046.8766,130.2523 1076.8766,130.2523 1076.8766,130.2523 C1076.8766,130.2523 1106.8766,130.2523 1106.8766,113.5856" fill="none" style="stroke:#58A6FF;stroke-width:0.8333;"/></g><g class="participant participant-tail" data-entity-uid="part5" data-qualified-name="RecipeDatabase" id="part5-tail"><text fill="#C9D1D9" font-family="sans-serif" font-size="23.3333" lengthAdjust="spacing" textLength="172.5163" x="985.6185" y="1174.3343">RecipeDatabase</text><path d="M1046.8766,1196.1279 C1046.8766,1179.4613 1076.8766,1179.4613 1076.8766,1179.4613 C1076.8766,1179.4613 1106.8766,1179.4613 1106.8766,1196.1279 L1106.8766,1239.4613 C1106.8766,1256.1279 1076.8766,1256.1279 1076.8766,1256.1279 C1076.8766,1256.1279 1046.8766,1256.1279 1046.8766,1239.4613 L1046.8766,1196.1279" fill="#0D1117" style="stroke:#58A6FF;stroke-width:0.8333;"/><path d="M1046.8766,1196.1279 C1046.8766,1212.7946 1076.8766,1212.7946 1076.8766,1212.7946 C1076.8766,1212.7946 1106.8766,1212.7946 1106.8766,1196.1279" fill="none" style="stroke:#58A6FF;stroke-width:0.8333;"/></g><g class="participant participant-head" data-entity-uid="part6" data-qualified-name="RecipeRestControllerV3LoggingAspect" id="part6-head"><text fill="#C9D1D9" font-family="sans-serif" font-size="23.3333" lengthAdjust="spacing" textLength="404.6761" x="1184.8014" y="197.0443">RecipeRestControllerV3LoggingAspect</text><ellipse cx="1392.1395" cy="146.9189" fill="#0D1117" rx="20" ry="20" style="stroke:#58A6FF;stroke-width:0.8333;"/><polygon fill="#58A6FF" points="1385.4728,126.9189,1395.4728,118.5856,1392.1395,126.9189,1395.4728,135.2523,1385.4728,126.9189" style="stroke:#58A6FF;stroke-width:1.6667;"/></g><g class="participant participant-tail" data-entity-uid="part6" data-qualified-name="RecipeRestControllerV3LoggingAspect" id="part6-tail"><text fill="#C9D1D9" font-family="sans-serif" font-size="23.3333" lengthAdjust="spacing" textLength="404.6761" x="1184.8014" y="1174.3343">RecipeRestControllerV3LoggingAspect</text><ellipse cx="1392.1395" cy="1206.1279" fill="#0D1117" rx="20" ry="20" style="stroke:#58A6FF;stroke-width:0.8333;"/><polygon fill="#58A6FF" points="1385.4728,1186.1279,1395.4728,1177.7946,1392.1395,1186.1279,1395.4728,1194.4613,1385.4728,1186.1279" style="stroke:#58A6FF;stroke-width:1.6667;"/></g><g class="participant participant-head" data-entity-uid="part7" data-qualified-name="GlobalExceptionsHandler" id="part7-head"><text fill="#C9D1D9" font-family="sans-serif" font-size="23.3333" lengthAdjust="spacing" textLength="263.2975" x="1616.1442" y="197.0443">GlobalExceptionsHandler</text><ellipse cx="1752.793" cy="146.9189" fill="#0D1117" rx="20" ry="20" style="stroke:#58A6FF;stroke-width:0.8333;"/><polygon fill="#58A6FF" points="1746.1263,126.9189,1756.1263,118.5856,1752.793,126.9189,1756.1263,135.2523,1746.1263,126.9189" style="stroke:#58A6FF;stroke-width:1.6667;"/></g><g class="participant participant-tail" data-entity-uid="part7" data-qualified-name="GlobalExceptionsHandler" id="part7-tail"><text fill="#C9D1D9" font-family="sans-serif" font-size="23.3333" lengthAdjust="spacing" textLength="263.2975" x="1616.1442" y="1174.3343">GlobalExceptionsHandler</text><ellipse cx="1752.793" cy="1206.1279" fill="#0D1117" rx="20" ry="20" style="stroke:#58A6FF;stroke-width:0.8333;"/><polygon fill="#58A6FF" points="1746.1263,1186.1279,1756.1263,1177.7946,1752.793,1186.1279,1756.1263,1194.4613,1746.1263,1186.1279" style="stroke:#58A6FF;stroke-width:1.6667;"/></g><g class="message" data-entity-1="part1" data-entity-2="part2" id="msg1"><polygon fill="#58A6FF" points="345.4997,248.715,362.1663,255.3817,345.4997,262.0483,352.1663,255.3817" style="stroke:#58A6FF;stroke-width:1.6667;"/><line style="stroke:#58A6FF;stroke-width:1.6667;" x1="79.1667" x2="355.4997" y1="255.3817" y2="255.3817"/><text fill="#C9D1D9" font-family="sans-serif" font-size="21.6667" font-weight="bold" lengthAdjust="spacing" textLength="12.05" x="99.1667" y="247.2876">1</text><text fill="#C9D1D9" font-family="sans-serif" font-size="21.6667" lengthAdjust="spacing" textLength="227.6164" x="117.8833" y="247.2876">GET /api/v3/recipes/{id}</text></g><g class="message" data-entity-1="part2" data-entity-2="part3" id="msg2"><polygon fill="#58A6FF" points="613.16,298.5921,629.8267,305.2588,613.16,311.9255,619.8267,305.2588" style="stroke:#58A6FF;stroke-width:1.6667;"/><line style="stroke:#58A6FF;stroke-width:1.6667;" x1="365.4997" x2="623.16" y1="305.2588" y2="305.2588"/><text fill="#C9D1D9" font-family="sans-serif" font-size="21.6667" font-weight="bold" lengthAdjust="spacing" textLength="12.05" x="409.2611" y="297.1647">2</text><text fill="#C9D1D9" font-family="sans-serif" font-size="21.6667" lengthAdjust="spacing" textLength="161.4209" x="427.9777" y="297.1647">delegate request</text></g><path d="M1400,336.9255 L1400,358.5921 A10,10 0 0 0 1410,368.5921 L1506.6667,368.5921 A10,10 0 0 0 1516.6667,358.5921 L1516.6667,343.5921 L1500,326.9255 L1410,326.9255 A10,10 0 0 0 1400,336.9255" fill="#1C2330" style="stroke:#E7E7E7;stroke-width:0.8333;"/><path d="M1500,326.9255 L1500,338.5921 A5,5 0 0 0 1505,343.5921 L1516.6667,343.5921 L1500,326.9255" fill="#1C2330" style="stroke:#E7E7E7;stroke-width:0.8333;"/><text fill="#C9D1D9" font-family="sans-serif" font-size="21.6667" lengthAdjust="spacing" textLength="83.1014" x="1410" y="357.0418">log entry</text><g class="message" data-entity-1="part3" data-entity-2="part4" id="msg3"><polygon fill="#58A6FF" points="854.4637,408.3464,871.1304,415.013,854.4637,421.6797,861.1304,415.013" style="stroke:#58A6FF;stroke-width:1.6667;"/><line style="stroke:#58A6FF;stroke-width:1.6667;" x1="633.16" x2="864.4637" y1="415.013" y2="415.013"/><text fill="#C9D1D9" font-family="sans-serif" font-size="21.6667" font-weight="bold" lengthAdjust="spacing" textLength="12.05" x="663.7431" y="406.9189">3</text><text fill="#C9D1D9" font-family="sans-serif" font-size="21.6667" lengthAdjust="spacing" textLength="161.4209" x="682.4597" y="406.9189">delegate request</text></g><path d="M26.6667,440.013 L116.9515,440.013 L116.9515,453.2235 L100.2848,469.8901 L16.6667,469.8901 L16.6667,450.013 A10,10 0 0 1 26.6667,440.013" fill="#161B22" style="stroke:#30363D;stroke-width:2.5;"/><rect fill="none" height="684.196" rx="10" ry="10" style="stroke:#30363D;stroke-width:2.5;" width="1889.4417" x="16.6667" y="440.013"/><text fill="#C9D1D9" font-family="sans-serif" font-size="21.6667" font-weight="bold" lengthAdjust="spacing" textLength="25.2848" x="41.6667" y="463.4627">alt</text><text fill="#C9D1D9" font-family="sans-serif" font-size="18.3333" font-weight="bold" lengthAdjust="spacing" textLength="129.4076" x="141.9515" y="461.7782">[Recipe exists]</text><g class="message" data-entity-1="part4" data-entity-2="part5" id="msg4"><polygon fill="#58A6FF" points="1056.8766,499.7673,1073.5433,506.4339,1056.8766,513.1006,1063.5433,506.4339" style="stroke:#58A6FF;stroke-width:1.6667;"/><line style="stroke:#58A6FF;stroke-width:1.6667;" x1="874.4637" x2="1066.8766" y1="506.4339" y2="506.4339"/><text fill="#C9D1D9" font-family="sans-serif" font-size="21.6667" font-weight="bold" lengthAdjust="spacing" textLength="12.05" x="910.3097" y="498.3398">4</text><text fill="#C9D1D9" font-family="sans-serif" font-size="21.6667" lengthAdjust="spacing" textLength="112.0044" x="929.0263" y="498.3398">fetch recipe</text></g><g class="message" data-entity-1="part5" data-entity-2="part4" id="msg5"><polygon fill="#58A6FF" points="892.797,549.6444,876.1304,556.311,892.797,562.9777,886.1304,556.311" style="stroke:#58A6FF;stroke-width:1.6667;"/><line style="stroke:#58A6FF;stroke-width:1.6667;" x1="882.797" x2="1075.21" y1="556.311" y2="556.311"/><text fill="#C9D1D9" font-family="sans-serif" font-size="21.6667" font-weight="bold" lengthAdjust="spacing" textLength="12.05" x="905.496" y="548.217">5</text><text fill="#C9D1D9" font-family="sans-serif" font-size="21.6667" lengthAdjust="spacing" textLength="121.6317" x="924.2126" y="548.217">return recipe</text></g><g class="message" data-entity-1="part4" data-entity-2="part3" id="msg6"><polygon fill="#58A6FF" points="651.4933,599.5215,634.8267,606.1882,651.4933,612.8548,644.8267,606.1882" style="stroke:#58A6FF;stroke-width:1.6667;"/><line style="stroke:#58A6FF;stroke-width:1.6667;" x1="641.4933" x2="872.797" y1="606.1882" y2="606.1882"/><text fill="#C9D1D9" font-family="sans-serif" font-size="21.6667" font-weight="bold" lengthAdjust="spacing" textLength="12.05" x="683.6377" y="598.0941">6</text><text fill="#C9D1D9" font-family="sans-serif" font-size="21.6667" lengthAdjust="spacing" textLength="121.6317" x="702.3543" y="598.0941">return recipe</text></g><path d="M1400,637.8548 L1400,659.5215 A10,10 0 0 0 1410,669.5215 L1548.3333,669.5215 A10,10 0 0 0 1558.3333,659.5215 L1558.3333,644.5215 L1541.6667,627.8548 L1410,627.8548 A10,10 0 0 0 1400,637.8548" fill="#1C2330" style="stroke:#E7E7E7;stroke-width:0.8333;"/><path d="M1541.6667,627.8548 L1541.6667,639.5215 A5,5 0 0 0 1546.6667,644.5215 L1558.3333,644.5215 L1541.6667,627.8548" fill="#1C2330" style="stroke:#E7E7E7;stroke-width:0.8333;"/><text fill="#C9D1D9" font-family="sans-serif" font-size="21.6667" lengthAdjust="spacing" textLength="124.0649" x="1410" y="657.9712">log response</text><g class="message" data-entity-1="part3" data-entity-2="part2" id="msg7"><polygon fill="#58A6FF" points="383.833,709.2757,367.1663,715.9424,383.833,722.609,377.1663,715.9424" style="stroke:#58A6FF;stroke-width:1.6667;"/><line style="stroke:#58A6FF;stroke-width:1.6667;" x1="373.833" x2="631.4933" y1="715.9424" y2="715.9424"/><text fill="#C9D1D9" font-family="sans-serif" font-size="21.6667" font-weight="bold" lengthAdjust="spacing" textLength="12.05" x="385.4997" y="707.8483">7</text><text fill="#C9D1D9" font-family="sans-serif" font-size="21.6667" lengthAdjust="spacing" textLength="208.9437" x="404.2163" y="707.8483">Http ok (200) + recipe</text></g><g class="message" data-entity-1="part2" data-entity-2="part1" id="msg8"><polygon fill="#58A6FF" points="97.5,759.1528,80.8333,765.8195,97.5,772.4862,90.8333,765.8195" style="stroke:#58A6FF;stroke-width:1.6667;"/><line style="stroke:#58A6FF;stroke-width:1.6667;" x1="87.5" x2="363.833" y1="765.8195" y2="765.8195"/><text fill="#C9D1D9" font-family="sans-serif" font-size="21.6667" font-weight="bold" lengthAdjust="spacing" textLength="12.05" x="108.503" y="757.7254">8</text><text fill="#C9D1D9" font-family="sans-serif" font-size="21.6667" lengthAdjust="spacing" textLength="208.9437" x="127.2196" y="757.7254">Http ok (200) + recipe</text></g><line style="stroke:#30363D;stroke-width:1.6667;stroke-dasharray:3.3333,3.3333;" x1="16.6667" x2="1906.1084" y1="780.8195" y2="780.8195"/><text fill="#C9D1D9" font-family="sans-serif" font-size="18.3333" font-weight="bold" lengthAdjust="spacing" textLength="188.7581" x="25" y="799.2513">[Recipe doesn't exist]</text><g class="message" data-entity-1="part4" data-entity-2="part6" id="msg9"><polygon fill="#58A6FF" points="1372.1395,834.8234,1388.8062,841.4901,1372.1395,848.1567,1378.8062,841.4901" style="stroke:#58A6FF;stroke-width:1.6667;"/><line style="stroke:#58A6FF;stroke-width:1.6667;" x1="874.4637" x2="1382.1395" y1="841.4901" y2="841.4901"/><text fill="#C9D1D9" font-family="sans-serif" font-size="21.6667" font-weight="bold" lengthAdjust="spacing" textLength="12.05" x="1048.0676" y="833.396">9</text><text fill="#C9D1D9" font-family="sans-serif" font-size="21.6667" lengthAdjust="spacing" textLength="151.7513" x="1066.7843" y="833.396">throw exception</text></g><path d="M1400,873.1567 L1400,894.8234 A10,10 0 0 0 1410,904.8234 L1505,904.8234 A10,10 0 0 0 1515,894.8234 L1515,879.8234 L1498.3333,863.1567 L1410,863.1567 A10,10 0 0 0 1400,873.1567" fill="#1C2330" style="stroke:#E7E7E7;stroke-width:0.8333;"/><path d="M1498.3333,863.1567 L1498.3333,874.8234 A5,5 0 0 0 1503.3333,879.8234 L1515,879.8234 L1498.3333,863.1567" fill="#1C2330" style="stroke:#E7E7E7;stroke-width:0.8333;"/><text fill="#C9D1D9" font-family="sans-serif" font-size="21.6667" lengthAdjust="spacing" textLength="80.6787" x="1410" y="893.2731">log error</text><g class="message" data-entity-1="part6" data-entity-2="part7" id="msg10"><polygon fill="#58A6FF" points="1732.793,944.5776,1749.4596,951.2443,1732.793,957.911,1739.4596,951.2443" style="stroke:#58A6FF;stroke-width:1.6667;"/><line style="stroke:#58A6FF;stroke-width:1.6667;" x1="1392.1395" x2="1742.793" y1="951.2443" y2="951.2443"/><text fill="#C9D1D9" font-family="sans-serif" font-size="21.6667" font-weight="bold" lengthAdjust="spacing" textLength="24.0999" x="1467.9671" y="943.1502">10</text><text fill="#C9D1D9" font-family="sans-serif" font-size="21.6667" lengthAdjust="spacing" textLength="178.2316" x="1498.7337" y="943.1502">re-throw exception</text></g><path d="M1760,982.911 L1760,1004.5776 A10,10 0 0 0 1770,1014.5776 L1865,1014.5776 A10,10 0 0 0 1875,1004.5776 L1875,989.5776 L1858.3333,972.911 L1770,972.911 A10,10 0 0 0 1760,982.911" fill="#1C2330" style="stroke:#E7E7E7;stroke-width:0.8333;"/><path d="M1858.3333,972.911 L1858.3333,984.5776 A5,5 0 0 0 1863.3333,989.5776 L1875,989.5776 L1858.3333,972.911" fill="#1C2330" style="stroke:#E7E7E7;stroke-width:0.8333;"/><text fill="#C9D1D9" font-family="sans-serif" font-size="21.6667" lengthAdjust="spacing" textLength="80.6787" x="1770" y="1003.0273">log error</text><g class="message" data-entity-1="part3" data-entity-2="part2" id="msg11"><polygon fill="#58A6FF" points="383.833,1054.3319,367.1663,1060.9985,383.833,1067.6652,377.1663,1060.9985" style="stroke:#58A6FF;stroke-width:1.6667;"/><line style="stroke:#58A6FF;stroke-width:1.6667;" x1="373.833" x2="631.4933" y1="1060.9985" y2="1060.9985"/><text fill="#C9D1D9" font-family="sans-serif" font-size="21.6667" font-weight="bold" lengthAdjust="spacing" textLength="24.0999" x="387.5891" y="1052.9045">11</text><text fill="#C9D1D9" font-family="sans-serif" font-size="21.6667" lengthAdjust="spacing" textLength="192.7148" x="418.3557" y="1052.9045">Http not found (404)</text></g><g class="message" data-entity-1="part2" data-entity-2="part1" id="msg12"><polygon fill="#58A6FF" points="97.5,1104.209,80.8333,1110.8757,97.5,1117.5423,90.8333,1110.8757" style="stroke:#58A6FF;stroke-width:1.6667;"/><line style="stroke:#58A6FF;stroke-width:1.6667;" x1="87.5" x2="363.833" y1="1110.8757" y2="1110.8757"/><text fill="#C9D1D9" font-family="sans-serif" font-size="21.6667" font-weight="bold" lengthAdjust="spacing" textLength="24.0999" x="110.5924" y="1102.7816">12</text><text fill="#C9D1D9" font-family="sans-serif" font-size="21.6667" lengthAdjust="spacing" textLength="192.7148" x="141.359" y="1102.7816">Http not found (404)</text></g><?plantuml-src fLLDRzf04BtxLupKGnDL21idfEcX4jyvqAeAQU-BFPWLowwxEmHGbF-UDHXtCJQahNoovysRDszsnyH988oGG6F4KuG6JF3t2cM4diTMfEHgEKNjUMR1PSeqMyAKHOj4gvMCUqee3H_yGH04Tmx2p5cirbmcC6F2e1FPfKLAIzGGj9n0d788shvRn-GwuCK3-8R6i0GxWYSI8fHaDG5qj5RhNCNjvqvxEBGVnto6OowngtICEe-6VjWE-swqt4NG3hgjLaOQaT97oGNrFdJIVt_NFq1NRQgBPe6Qh5UtvQTi6aCbASVqxlj1_zu176OpianfLQqwQ4stV-3V5LLuqck5eLz6kMK7TzbJGZWT36-pnudlB9pGrfuwjaQZbkxnwEEChGITEk1Wkfa-fhTL4wf0rTZkG7kscbRYFDy1T9ckpuXDcS7pV0NgCk4FfedRkyaadUTqWNMqBBCVVXfxVQQvHT19Ky4ZHbn9Bzht2O-xRV28XlBE1UfVOIayGVtC8xJVuxoTF73exWBTM2M9tH8Tas941NOar9I9mIR2D9Da7fYCHRQ2CjNG-EhgXIym6Zn1awMy-HmszplCD5zu_EgvC9jLBS4In2WmOOHs0zeROyYJAdlXoPn0pTuZtP88bO3TIdhhrTGf51IcLPNscA0S1xZXXepT7d2IMP0TZBPSCwHedczn9wb0L0hGI2ijJxCgIbKuTvhzhzPfDAaTjIkXoi7ZoJyGfQ0MSDNo_MluvEeepNvtSceJF1J5oOLOeP4VQU_-tpbIRepczkzaYVA3_5y6eVtJwJFk7ETOYJMtQ3UrncLbzUdlKLCpAri2PjdMWQiR_-RwqgJAS9Jn6m00?></g></svg>