<?plantuml 1.2026.2?>
<svg xmlns="http://www.w3.org/2000/svg" contentStyleType="text/css" data-diagram-type="SEQUENCE" height="1291.6667px"
     preserveAspectRatio="none" style="width:2506px;height:1291px;background:#0E1117;" version="1.1"
     viewBox="0 0 2506 1291" width="2506.6667px" zoomAndPan="magnify"><title>Get user recipes - Sequence</title><defs/><g><rect fill="#0E1117" height="1291.6667" style="stroke:none;stroke-width:1.6667;" width="2506.6667" x="0" y="0"/><text fill="#C9D1D9" font-family="sans-serif" font-size="23.3333" font-weight="bold" lengthAdjust="spacing" textLength="313.8379" x="1098.2532" y="48.4587">Get user recipes - Sequence</text><rect fill="none" height="684.196" rx="10" ry="10" style="stroke:#30363D;stroke-width:2.5;" width="2478.6776" x="16.6667" y="440.013"/><g class="participant-lifeline" data-entity-uid="part1" data-qualified-name="User" id="part1-lifeline"><g><title>User</title><rect fill="#000000" fill-opacity="0.00000" height="950.3711" width="13.3333" x="72.5" y="202.1712"/><line style="stroke:#30363D;stroke-width:0.8333;stroke-dasharray:8.3333,8.3333;" x1="78.3333" x2="78.3333" y1="202.1712" y2="1152.5423"/></g></g><g class="participant-lifeline" data-entity-uid="part2" data-qualified-name="Application" id="part2-lifeline"><g><title>Application</title><rect fill="#000000" fill-opacity="0.00000" height="950.3711" width="13.3333" x="809.9609" y="202.1712"/><line style="stroke:#30363D;stroke-width:0.8333;stroke-dasharray:8.3333,8.3333;" x1="816.2199" x2="816.2199" y1="202.1712" y2="1152.5423"/></g></g><g class="participant-lifeline" data-entity-uid="part3" data-qualified-name="RecipeRestControllerV3" id="part3-lifeline"><g><title>RecipeRestControllerV3</title><rect fill="#000000" fill-opacity="0.00000" height="950.3711" width="13.3333" x="1131.8408" y="202.1712"/><line style="stroke:#30363D;stroke-width:0.8333;stroke-dasharray:8.3333,8.3333;" x1="1138.3586" x2="1138.3586" y1="202.1712" y2="1152.5423"/></g></g><g class="participant-lifeline" data-entity-uid="part4" data-qualified-name="RecipeServiceV3" id="part4-lifeline"><g><title>RecipeServiceV3</title><rect fill="#000000" fill-opacity="0.00000" height="950.3711" width="13.3333" x="1373.1445" y="202.1712"/><line style="stroke:#30363D;stroke-width:0.8333;stroke-dasharray:8.3333,8.3333;" x1="1378.6564" x2="1378.6564" y1="202.1712" y2="1152.5423"/></g></g><g class="participant-lifeline" data-entity-uid="part5" data-qualified-name="RecipeDatabase" id="part5-lifeline"><g><title>RecipeDatabase</title><rect fill="#000000" fill-opacity="0.00000" height="950.3711" width="13.3333" x="1659.4458" y="202.1712"/><line style="stroke:#30363D;stroke-width:0.8333;stroke-dasharray:8.3333,8.3333;" x1="1664.8543" x2="1664.8543" y1="202.1712" y2="1152.5423"/></g></g><g class="participant-lifeline" data-entity-uid="part6" data-qualified-name="RecipeRestControllerV3LoggingAspect" id="part6-lifeline"><g><title>RecipeRestControllerV3LoggingAspect</title><rect fill="#000000" fill-opacity="0.00000" height="950.3711" width="13.3333" x="1974.7087" y="202.1712"/><line style="stroke:#30363D;stroke-width:0.8333;stroke-dasharray:8.3333,8.3333;" x1="1980.7039" x2="1980.7039" y1="202.1712" y2="1152.5423"/></g></g><g class="participant-lifeline" data-entity-uid="part7" data-qualified-name="GlobalExceptionsHandler" id="part7-lifeline"><g><title>GlobalExceptionsHandler</title><rect fill="#000000" fill-opacity="0.00000" height="950.3711" width="13.3333" x="2335.3621" y="202.1712"/><line style="stroke:#30363D;stroke-width:0.8333;stroke-dasharray:8.3333,8.3333;" x1="2340.38" x2="2340.38" y1="202.1712" y2="1152.5423"/></g></g><g class="participant participant-head" data-entity-uid="part1" data-qualified-name="User" id="part1-head"><text fill="#C9D1D9" font-family="sans-serif" font-size="23.3333" lengthAdjust="spacing" textLength="49.2643" x="49.5345" y="197.0443">User</text><ellipse cx="79.1667" cy="99.4189" fill="#0D1117" rx="26.6667" ry="26.6667" style="stroke:#58A6FF;stroke-width:0.8333;"/><path d="M79.1667,132.7523 C85.8333,132.7523 90.8333,132.7523 97.5,126.0856 C110.8333,126.0856 124.1667,139.4189 124.1667,152.7523 L124.1667,159.4189 C124.1667,166.0856 117.5,172.7523 110.8333,172.7523 L47.5,172.7523 C40.8333,172.7523 34.1667,166.0856 34.1667,159.4189 L34.1667,152.7523 C34.1667,139.4189 47.5,126.0856 60.8333,126.0856 C67.5,132.7523 72.5,132.7523 79.1667,132.7523" fill="#0D1117" style="stroke:#58A6FF;stroke-width:0.8333;"/></g><g class="participant participant-tail" data-entity-uid="part1" data-qualified-name="User" id="part1-tail"><text fill="#C9D1D9" font-family="sans-serif" font-size="23.3333" lengthAdjust="spacing" textLength="49.2643" x="49.5345" y="1174.3343">User</text><ellipse cx="79.1667" cy="1206.9613" fill="#0D1117" rx="26.6667" ry="26.6667" style="stroke:#58A6FF;stroke-width:0.8333;"/><path d="M79.1667,1240.2946 C85.8333,1240.2946 90.8333,1240.2946 97.5,1233.6279 C110.8333,1233.6279 124.1667,1246.9613 124.1667,1260.2946 L124.1667,1266.9613 C124.1667,1273.6279 117.5,1280.2946 110.8333,1280.2946 L47.5,1280.2946 C40.8333,1280.2946 34.1667,1273.6279 34.1667,1266.9613 L34.1667,1260.2946 C34.1667,1246.9613 47.5,1233.6279 60.8333,1233.6279 C67.5,1240.2946 72.5,1240.2946 79.1667,1240.2946" fill="#0D1117" style="stroke:#58A6FF;stroke-width:0.8333;"/></g><g class="participant participant-head" data-entity-uid="part2" data-qualified-name="Application" id="part2-head"><text fill="#C9D1D9" font-family="sans-serif" font-size="23.3333" lengthAdjust="spacing" textLength="114.1488" x="754.5532" y="197.0443">Application</text><path d="M782.4609,126.9189 L782.4609,166.9189 M782.4609,146.9189 L810.7943,146.9189" fill="none" style="stroke:#58A6FF;stroke-width:0.8333;"/><ellipse cx="830.7943" cy="146.9189" fill="#0D1117" rx="20" ry="20" style="stroke:#58A6FF;stroke-width:0.8333;"/></g><g class="participant participant-tail" data-entity-uid="part2" data-qualified-name="Application" id="part2-tail"><text fill="#C9D1D9" font-family="sans-serif" font-size="23.3333" lengthAdjust="spacing" textLength="114.1488" x="754.5532" y="1174.3343">Application</text><path d="M782.4609,1186.1279 L782.4609,1226.1279 M782.4609,1206.1279 L810.7943,1206.1279" fill="none" style="stroke:#58A6FF;stroke-width:0.8333;"/><ellipse cx="830.7943" cy="1206.1279" fill="#0D1117" rx="20" ry="20" style="stroke:#58A6FF;stroke-width:0.8333;"/></g><g class="participant participant-head" data-entity-uid="part3" data-qualified-name="RecipeRestControllerV3" id="part3-head"><text fill="#C9D1D9" font-family="sans-serif" font-size="23.3333" lengthAdjust="spacing" textLength="250.2979" x="1008.3586" y="197.0443">RecipeRestControllerV3</text><ellipse cx="1138.5075" cy="146.9189" fill="#0D1117" rx="20" ry="20" style="stroke:#58A6FF;stroke-width:0.8333;"/><polygon fill="#58A6FF" points="1131.8408,126.9189,1141.8408,118.5856,1138.5075,126.9189,1141.8408,135.2523,1131.8408,126.9189" style="stroke:#58A6FF;stroke-width:1.6667;"/></g><g class="participant participant-tail" data-entity-uid="part3" data-qualified-name="RecipeRestControllerV3" id="part3-tail"><text fill="#C9D1D9" font-family="sans-serif" font-size="23.3333" lengthAdjust="spacing" textLength="250.2979" x="1008.3586" y="1174.3343">RecipeRestControllerV3</text><ellipse cx="1138.5075" cy="1206.1279" fill="#0D1117" rx="20" ry="20" style="stroke:#58A6FF;stroke-width:0.8333;"/><polygon fill="#58A6FF" points="1131.8408,1186.1279,1141.8408,1177.7946,1138.5075,1186.1279,1141.8408,1194.4613,1131.8408,1186.1279" style="stroke:#58A6FF;stroke-width:1.6667;"/></g><g class="participant participant-head" data-entity-uid="part4" data-qualified-name="RecipeServiceV3" id="part4-head"><text fill="#C9D1D9" font-family="sans-serif" font-size="23.3333" lengthAdjust="spacing" textLength="178.9762" x="1285.3231" y="197.0443">RecipeServiceV3</text><ellipse cx="1379.8112" cy="146.9189" fill="#0D1117" rx="20" ry="20" style="stroke:#58A6FF;stroke-width:0.8333;"/><polygon fill="#58A6FF" points="1373.1445,126.9189,1383.1445,118.5856,1379.8112,126.9189,1383.1445,135.2523,1373.1445,126.9189" style="stroke:#58A6FF;stroke-width:1.6667;"/></g><g class="participant participant-tail" data-entity-uid="part4" data-qualified-name="RecipeServiceV3" id="part4-tail"><text fill="#C9D1D9" font-family="sans-serif" font-size="23.3333" lengthAdjust="spacing" textLength="178.9762" x="1285.3231" y="1174.3343">RecipeServiceV3</text><ellipse cx="1379.8112" cy="1206.1279" fill="#0D1117" rx="20" ry="20" style="stroke:#58A6FF;stroke-width:0.8333;"/><polygon fill="#58A6FF" points="1373.1445,1186.1279,1383.1445,1177.7946,1379.8112,1186.1279,1383.1445,1194.4613,1373.1445,1186.1279" style="stroke:#58A6FF;stroke-width:1.6667;"/></g><g class="participant participant-head" data-entity-uid="part5" data-qualified-name="RecipeDatabase" id="part5-head"><text fill="#C9D1D9" font-family="sans-serif" font-size="23.3333" lengthAdjust="spacing" textLength="172.5163" x="1574.8543" y="197.0443">RecipeDatabase</text><path d="M1636.1125,113.5856 C1636.1125,96.9189 1666.1125,96.9189 1666.1125,96.9189 C1666.1125,96.9189 1696.1125,96.9189 1696.1125,113.5856 L1696.1125,156.9189 C1696.1125,173.5856 1666.1125,173.5856 1666.1125,173.5856 C1666.1125,173.5856 1636.1125,173.5856 1636.1125,156.9189 L1636.1125,113.5856" fill="#0D1117" style="stroke:#58A6FF;stroke-width:0.8333;"/><path d="M1636.1125,113.5856 C1636.1125,130.2523 1666.1125,130.2523 1666.1125,130.2523 C1666.1125,130.2523 1696.1125,130.2523 1696.1125,113.5856" fill="none" style="stroke:#58A6FF;stroke-width:0.8333;"/></g><g class="participant participant-tail" data-entity-uid="part5" data-qualified-name="RecipeDatabase" id="part5-tail"><text fill="#C9D1D9" font-family="sans-serif" font-size="23.3333" lengthAdjust="spacing" textLength="172.5163" x="1574.8543" y="1174.3343">RecipeDatabase</text><path d="M1636.1125,1196.1279 C1636.1125,1179.4613 1666.1125,1179.4613 1666.1125,1179.4613 C1666.1125,1179.4613 1696.1125,1179.4613 1696.1125,1196.1279 L1696.1125,1239.4613 C1696.1125,1256.1279 1666.1125,1256.1279 1666.1125,1256.1279 C1666.1125,1256.1279 1636.1125,1256.1279 1636.1125,1239.4613 L1636.1125,1196.1279" fill="#0D1117" style="stroke:#58A6FF;stroke-width:0.8333;"/><path d="M1636.1125,1196.1279 C1636.1125,1212.7946 1666.1125,1212.7946 1666.1125,1212.7946 C1666.1125,1212.7946 1696.1125,1212.7946 1696.1125,1196.1279" fill="none" style="stroke:#58A6FF;stroke-width:0.8333;"/></g><g class="participant participant-head" data-entity-uid="part6" data-qualified-name="RecipeRestControllerV3LoggingAspect" id="part6-head"><text fill="#C9D1D9" font-family="sans-serif" font-size="23.3333" lengthAdjust="spacing" textLength="404.6761" x="1774.0373" y="197.0443">RecipeRestControllerV3LoggingAspect</text><ellipse cx="1981.3753" cy="146.9189" fill="#0D1117" rx="20" ry="20" style="stroke:#58A6FF;stroke-width:0.8333;"/><polygon fill="#58A6FF" points="1974.7087,126.9189,1984.7087,118.5856,1981.3753,126.9189,1984.7087,135.2523,1974.7087,126.9189" style="stroke:#58A6FF;stroke-width:1.6667;"/></g><g class="participant participant-tail" data-entity-uid="part6" data-qualified-name="RecipeRestControllerV3LoggingAspect" id="part6-tail"><text fill="#C9D1D9" font-family="sans-serif" font-size="23.3333" lengthAdjust="spacing" textLength="404.6761" x="1774.0373" y="1174.3343">RecipeRestControllerV3LoggingAspect</text><ellipse cx="1981.3753" cy="1206.1279" fill="#0D1117" rx="20" ry="20" style="stroke:#58A6FF;stroke-width:0.8333;"/><polygon fill="#58A6FF" points="1974.7087,1186.1279,1984.7087,1177.7946,1981.3753,1186.1279,1984.7087,1194.4613,1974.7087,1186.1279" style="stroke:#58A6FF;stroke-width:1.6667;"/></g><g class="participant participant-head" data-entity-uid="part7" data-qualified-name="GlobalExceptionsHandler" id="part7-head"><text fill="#C9D1D9" font-family="sans-serif" font-size="23.3333" lengthAdjust="spacing" textLength="263.2975" x="2205.38" y="197.0443">GlobalExceptionsHandler</text><ellipse cx="2342.0288" cy="146.9189" fill="#0D1117" rx="20" ry="20" style="stroke:#58A6FF;stroke-width:0.8333;"/><polygon fill="#58A6FF" points="2335.3621,126.9189,2345.3621,118.5856,2342.0288,126.9189,2345.3621,135.2523,2335.3621,126.9189" style="stroke:#58A6FF;stroke-width:1.6667;"/></g><g class="participant participant-tail" data-entity-uid="part7" data-qualified-name="GlobalExceptionsHandler" id="part7-tail"><text fill="#C9D1D9" font-family="sans-serif" font-size="23.3333" lengthAdjust="spacing" textLength="263.2975" x="2205.38" y="1174.3343">GlobalExceptionsHandler</text><ellipse cx="2342.0288" cy="1206.1279" fill="#0D1117" rx="20" ry="20" style="stroke:#58A6FF;stroke-width:0.8333;"/><polygon fill="#58A6FF" points="2335.3621,1186.1279,2345.3621,1177.7946,2342.0288,1186.1279,2345.3621,1194.4613,2335.3621,1186.1279" style="stroke:#58A6FF;stroke-width:1.6667;"/></g><g class="message" data-entity-1="part1" data-entity-2="part2" id="msg1"><polygon fill="#58A6FF" points="796.6276,248.715,813.2943,255.3817,796.6276,262.0483,803.2943,255.3817" style="stroke:#58A6FF;stroke-width:1.6667;"/><line style="stroke:#58A6FF;stroke-width:1.6667;" x1="79.1667" x2="806.6276" y1="255.3817" y2="255.3817"/><text fill="#C9D1D9" font-family="sans-serif" font-size="21.6667" font-weight="bold" lengthAdjust="spacing" textLength="12.05" x="99.1667" y="247.2876">1</text><text fill="#C9D1D9" font-family="sans-serif" font-size="21.6667" lengthAdjust="spacing" textLength="678.7443" x="117.8833" y="247.2876">GET /api/v3/recipes?username={username}&amp;page={page}&amp;size={size}</text></g><g class="message" data-entity-1="part2" data-entity-2="part3" id="msg2"><polygon fill="#58A6FF" points="1118.5075,298.5921,1135.1742,305.2588,1118.5075,311.9255,1125.1742,305.2588" style="stroke:#58A6FF;stroke-width:1.6667;"/><line style="stroke:#58A6FF;stroke-width:1.6667;" x1="816.6276" x2="1128.5075" y1="305.2588" y2="305.2588"/><text fill="#C9D1D9" font-family="sans-serif" font-size="21.6667" font-weight="bold" lengthAdjust="spacing" textLength="12.05" x="887.4988" y="297.1647">2</text><text fill="#C9D1D9" font-family="sans-serif" font-size="21.6667" lengthAdjust="spacing" textLength="161.4209" x="906.2154" y="297.1647">delegate request</text></g><path d="M1988.3333,336.9255 L1988.3333,358.5921 A10,10 0 0 0 1998.3333,368.5921 L2095,368.5921 A10,10 0 0 0 2105,358.5921 L2105,343.5921 L2088.3333,326.9255 L1998.3333,326.9255 A10,10 0 0 0 1988.3333,336.9255" fill="#1C2330" style="stroke:#E7E7E7;stroke-width:0.8333;"/><path d="M2088.3333,326.9255 L2088.3333,338.5921 A5,5 0 0 0 2093.3333,343.5921 L2105,343.5921 L2088.3333,326.9255" fill="#1C2330" style="stroke:#E7E7E7;stroke-width:0.8333;"/><text fill="#C9D1D9" font-family="sans-serif" font-size="21.6667" lengthAdjust="spacing" textLength="83.1014" x="1998.3333" y="357.0418">log entry</text><g class="message" data-entity-1="part3" data-entity-2="part4" id="msg3"><polygon fill="#58A6FF" points="1359.8112,408.3464,1376.4779,415.013,1359.8112,421.6797,1366.4779,415.013" style="stroke:#58A6FF;stroke-width:1.6667;"/><line style="stroke:#58A6FF;stroke-width:1.6667;" x1="1138.5075" x2="1369.8112" y1="415.013" y2="415.013"/><text fill="#C9D1D9" font-family="sans-serif" font-size="21.6667" font-weight="bold" lengthAdjust="spacing" textLength="12.05" x="1169.0906" y="406.9189">3</text><text fill="#C9D1D9" font-family="sans-serif" font-size="21.6667" lengthAdjust="spacing" textLength="161.4209" x="1187.8072" y="406.9189">delegate request</text></g><path d="M26.6667,440.013 L116.9515,440.013 L116.9515,453.2235 L100.2848,469.8901 L16.6667,469.8901 L16.6667,450.013 A10,10 0 0 1 26.6667,440.013" fill="#161B22" style="stroke:#30363D;stroke-width:2.5;"/><rect fill="none" height="684.196" rx="10" ry="10" style="stroke:#30363D;stroke-width:2.5;" width="2478.6776" x="16.6667" y="440.013"/><text fill="#C9D1D9" font-family="sans-serif" font-size="21.6667" font-weight="bold" lengthAdjust="spacing" textLength="25.2848" x="41.6667" y="463.4627">alt</text><text fill="#C9D1D9" font-family="sans-serif" font-size="18.3333" font-weight="bold" lengthAdjust="spacing" textLength="154.8576" x="141.9515" y="461.7782">[Customer exists]</text><g class="message" data-entity-1="part4" data-entity-2="part5" id="msg4"><polygon fill="#58A6FF" points="1646.1125,499.7673,1662.7791,506.4339,1646.1125,513.1006,1652.7791,506.4339" style="stroke:#58A6FF;stroke-width:1.6667;"/><line style="stroke:#58A6FF;stroke-width:1.6667;" x1="1379.8112" x2="1656.1125" y1="506.4339" y2="506.4339"/><text fill="#C9D1D9" font-family="sans-serif" font-size="21.6667" font-weight="bold" lengthAdjust="spacing" textLength="12.05" x="1404.6248" y="498.3398">4</text><text fill="#C9D1D9" font-family="sans-serif" font-size="21.6667" lengthAdjust="spacing" textLength="217.9574" x="1423.3415" y="498.3398">fetch customer recipes</text></g><g class="message" data-entity-1="part5" data-entity-2="part4" id="msg5"><polygon fill="#58A6FF" points="1398.1445,549.6444,1381.4779,556.311,1398.1445,562.9777,1391.4779,556.311" style="stroke:#58A6FF;stroke-width:1.6667;"/><line style="stroke:#58A6FF;stroke-width:1.6667;" x1="1388.1445" x2="1664.4458" y1="556.311" y2="556.311"/><text fill="#C9D1D9" font-family="sans-serif" font-size="21.6667" font-weight="bold" lengthAdjust="spacing" textLength="12.05" x="1399.8112" y="548.217">5</text><text fill="#C9D1D9" font-family="sans-serif" font-size="21.6667" lengthAdjust="spacing" textLength="227.5846" x="1418.5278" y="548.217">return customer recipes</text></g><g class="message" data-entity-1="part4" data-entity-2="part3" id="msg6"><polygon fill="#58A6FF" points="1156.8408,599.5215,1140.1742,606.1882,1156.8408,612.8548,1150.1742,606.1882" style="stroke:#58A6FF;stroke-width:1.6667;"/><line style="stroke:#58A6FF;stroke-width:1.6667;" x1="1146.8408" x2="1378.1445" y1="606.1882" y2="606.1882"/><text fill="#C9D1D9" font-family="sans-serif" font-size="21.6667" font-weight="bold" lengthAdjust="spacing" textLength="12.05" x="1161.8754" y="598.0941">6</text><text fill="#C9D1D9" font-family="sans-serif" font-size="21.6667" lengthAdjust="spacing" textLength="175.8512" x="1180.592" y="598.0941">return recipe page</text></g><path d="M1988.3333,637.8548 L1988.3333,659.5215 A10,10 0 0 0 1998.3333,669.5215 L2136.6667,669.5215 A10,10 0 0 0 2146.6667,659.5215 L2146.6667,644.5215 L2130,627.8548 L1998.3333,627.8548 A10,10 0 0 0 1988.3333,637.8548" fill="#1C2330" style="stroke:#E7E7E7;stroke-width:0.8333;"/><path d="M2130,627.8548 L2130,639.5215 A5,5 0 0 0 2135,644.5215 L2146.6667,644.5215 L2130,627.8548" fill="#1C2330" style="stroke:#E7E7E7;stroke-width:0.8333;"/><text fill="#C9D1D9" font-family="sans-serif" font-size="21.6667" lengthAdjust="spacing" textLength="124.0649" x="1998.3333" y="657.9712">log response</text><g class="message" data-entity-1="part3" data-entity-2="part2" id="msg7"><polygon fill="#58A6FF" points="834.9609,709.2757,818.2943,715.9424,834.9609,722.609,828.2943,715.9424" style="stroke:#58A6FF;stroke-width:1.6667;"/><line style="stroke:#58A6FF;stroke-width:1.6667;" x1="824.9609" x2="1136.8408" y1="715.9424" y2="715.9424"/><text fill="#C9D1D9" font-family="sans-serif" font-size="21.6667" font-weight="bold" lengthAdjust="spacing" textLength="12.05" x="836.6276" y="707.8483">7</text><text fill="#C9D1D9" font-family="sans-serif" font-size="21.6667" lengthAdjust="spacing" textLength="263.1632" x="855.3442" y="707.8483">Http ok (200) + recipe page</text></g><g class="message" data-entity-1="part2" data-entity-2="part1" id="msg8"><polygon fill="#58A6FF" points="97.5,759.1528,80.8333,765.8195,97.5,772.4862,90.8333,765.8195" style="stroke:#58A6FF;stroke-width:1.6667;"/><line style="stroke:#58A6FF;stroke-width:1.6667;" x1="87.5" x2="814.9609" y1="765.8195" y2="765.8195"/><text fill="#C9D1D9" font-family="sans-serif" font-size="21.6667" font-weight="bold" lengthAdjust="spacing" textLength="12.05" x="306.9572" y="757.7254">8</text><text fill="#C9D1D9" font-family="sans-serif" font-size="21.6667" lengthAdjust="spacing" textLength="263.1632" x="325.6738" y="757.7254">Http ok (200) + recipe page</text></g><line style="stroke:#30363D;stroke-width:1.6667;stroke-dasharray:3.3333,3.3333;" x1="16.6667" x2="2495.3442" y1="780.8195" y2="780.8195"/><text fill="#C9D1D9" font-family="sans-serif" font-size="18.3333" font-weight="bold" lengthAdjust="spacing" textLength="214.2082" x="25" y="799.2513">[Customer doesn't exist]</text><g class="message" data-entity-1="part4" data-entity-2="part6" id="msg9"><polygon fill="#58A6FF" points="1961.3753,834.8234,1978.042,841.4901,1961.3753,848.1567,1968.042,841.4901" style="stroke:#58A6FF;stroke-width:1.6667;"/><line style="stroke:#58A6FF;stroke-width:1.6667;" x1="1379.8112" x2="1971.3753" y1="841.4901" y2="841.4901"/><text fill="#C9D1D9" font-family="sans-serif" font-size="21.6667" font-weight="bold" lengthAdjust="spacing" textLength="12.05" x="1595.3593" y="833.396">9</text><text fill="#C9D1D9" font-family="sans-serif" font-size="21.6667" lengthAdjust="spacing" textLength="151.7513" x="1614.0759" y="833.396">throw exception</text></g><path d="M1988.3333,873.1567 L1988.3333,894.8234 A10,10 0 0 0 1998.3333,904.8234 L2093.3333,904.8234 A10,10 0 0 0 2103.3333,894.8234 L2103.3333,879.8234 L2086.6667,863.1567 L1998.3333,863.1567 A10,10 0 0 0 1988.3333,873.1567" fill="#1C2330" style="stroke:#E7E7E7;stroke-width:0.8333;"/><path d="M2086.6667,863.1567 L2086.6667,874.8234 A5,5 0 0 0 2091.6667,879.8234 L2103.3333,879.8234 L2086.6667,863.1567" fill="#1C2330" style="stroke:#E7E7E7;stroke-width:0.8333;"/><text fill="#C9D1D9" font-family="sans-serif" font-size="21.6667" lengthAdjust="spacing" textLength="80.6787" x="1998.3333" y="893.2731">log error</text><g class="message" data-entity-1="part6" data-entity-2="part7" id="msg10"><polygon fill="#58A6FF" points="2322.0288,944.5776,2338.6955,951.2443,2322.0288,957.911,2328.6955,951.2443" style="stroke:#58A6FF;stroke-width:1.6667;"/><line style="stroke:#58A6FF;stroke-width:1.6667;" x1="1981.3753" x2="2332.0288" y1="951.2443" y2="951.2443"/><text fill="#C9D1D9" font-family="sans-serif" font-size="21.6667" font-weight="bold" lengthAdjust="spacing" textLength="24.0999" x="2057.203" y="943.1502">10</text><text fill="#C9D1D9" font-family="sans-serif" font-size="21.6667" lengthAdjust="spacing" textLength="178.2316" x="2087.9696" y="943.1502">re-throw exception</text></g><path d="M2350,982.911 L2350,1004.5776 A10,10 0 0 0 2360,1014.5776 L2455,1014.5776 A10,10 0 0 0 2465,1004.5776 L2465,989.5776 L2448.3333,972.911 L2360,972.911 A10,10 0 0 0 2350,982.911" fill="#1C2330" style="stroke:#E7E7E7;stroke-width:0.8333;"/><path d="M2448.3333,972.911 L2448.3333,984.5776 A5,5 0 0 0 2453.3333,989.5776 L2465,989.5776 L2448.3333,972.911" fill="#1C2330" style="stroke:#E7E7E7;stroke-width:0.8333;"/><text fill="#C9D1D9" font-family="sans-serif" font-size="21.6667" lengthAdjust="spacing" textLength="80.6787" x="2360" y="1003.0273">log error</text><g class="message" data-entity-1="part3" data-entity-2="part2" id="msg11"><polygon fill="#58A6FF" points="834.9609,1054.3319,818.2943,1060.9985,834.9609,1067.6652,828.2943,1060.9985" style="stroke:#58A6FF;stroke-width:1.6667;"/><line style="stroke:#58A6FF;stroke-width:1.6667;" x1="824.9609" x2="1136.8408" y1="1060.9985" y2="1060.9985"/><text fill="#C9D1D9" font-family="sans-serif" font-size="21.6667" font-weight="bold" lengthAdjust="spacing" textLength="24.0999" x="865.8268" y="1052.9045">11</text><text fill="#C9D1D9" font-family="sans-serif" font-size="21.6667" lengthAdjust="spacing" textLength="192.7148" x="896.5934" y="1052.9045">Http not found (404)</text></g><g class="message" data-entity-1="part2" data-entity-2="part1" id="msg12"><polygon fill="#58A6FF" points="97.5,1104.209,80.8333,1110.8757,97.5,1117.5423,90.8333,1110.8757" style="stroke:#58A6FF;stroke-width:1.6667;"/><line style="stroke:#58A6FF;stroke-width:1.6667;" x1="87.5" x2="814.9609" y1="1110.8757" y2="1110.8757"/><text fill="#C9D1D9" font-family="sans-serif" font-size="21.6667" font-weight="bold" lengthAdjust="spacing" textLength="24.0999" x="336.1564" y="1102.7816">12</text><text fill="#C9D1D9" font-family="sans-serif" font-size="21.6667" lengthAdjust="spacing" textLength="192.7148" x="366.923" y="1102.7816">Http not found (404)</text></g><?plantuml-src fLNlJzim4FsUl-AaIGmq8P86ofZ4flxc0vicOFlk9jVK8hKp-m9bgF_xx3GD9arQjgbIrFRUlNltphuGfnHXWWIvHWKA8vwXXcEunLyvYWWzZ-KaHRwOel8yVSz5nXHRm9H5zucIkOW7CfKAtlcZ80ZE7OIUirW-Sf70ZAKQdKYH5aabJCMWumJYZ4FGzTqwkjG1pnx0LzIQ9TXBUI8WGa564q1FAVbOgZZxsEkEn-RFQpx3QowmBrMCgeo6VjWDXswqtaNG3VgTZYMDIAfNoHNrEhJL_x3e7w0lbyr5RQ0bQ-MsV6TdCfQ2IipWOXWCBnp0PZOJmvGrrMg3jdJx0lycgS6JGISC_JhABJiwjvyQmkbWV6O_Jhomy9QUpDbZZwZbmZqUGvonFALj1nnCt-fZwgbfGWse5jiTwC1KKpBTpRS1xQSRCc9Jfd4tNuNQJ_YTAUBcSZ91kpbTO1iji_R33tFZlMbf4VIoBEKH8ow55wtxX9jY7ToWfhBp5DNFi1Q-HVN08pJ_nsKxPM3JtHwwQvaaPalqT8OHLTX9AgSi7IqZpAmaVSL4dDeLP5N3yMTNBto2oUWEJbZ6Jnx2atA9VR4RJR05NZvllgqEChC-Bf_jStMW-M_ptJvNdijco9kLcZenffWmGhCfpSNIv0bfV_1aJY1dR-dGaAGo0REyr9FNKgTIK7dRLDfZAS4WrsIkZm9SSatQh1dOogteDXCnR3EaQ0xH9hlqp4cli8rY55AknAxyXl8DVfOywtImSoae_jLLXJepXmKT7KtclZuxLqGPo7iuxFZ-4NpO4bCx6yK1t9tbeNdXlOmcbgZ5UrgFwEyigZT9S_EkCqJbjVWliz2yDzKEfrxd68ajTx8Ou_5-PUtfRr7JCZTJ0cPsXy7XgNzwj6zWTJYA-0y0?></g></svg>