<?plantuml 1.2026.2?>
<svg xmlns="http://www.w3.org/2000/svg" contentStyleType="text/css" data-diagram-type="SEQUENCE" height="1291.6667px"
     preserveAspectRatio="none" style="width:2093px;height:1291px;background:#0E1117;" version="1.1"
     viewBox="0 0 2093 1291" width="2093.3333px" zoomAndPan="magnify"><title>Get recipe image - Sequence</title><defs/><g><rect fill="#0E1117" height="1291.6667" style="stroke:none;stroke-width:1.6667;" width="2093.3333" x="0" y="0"/><text fill="#C9D1D9" font-family="sans-serif" font-size="23.3333" font-weight="bold" lengthAdjust="spacing" textLength="319.0104" x="889.6025" y="48.4587">Get recipe image - Sequence</text><rect fill="none" height="684.196" rx="10" ry="10" style="stroke:#30363D;stroke-width:2.5;" width="2066.5487" x="16.6667" y="440.013"/><g class="participant-lifeline" data-entity-uid="part1" data-qualified-name="User" id="part1-lifeline"><g><title>User</title><rect fill="#000000" fill-opacity="0.00000" height="950.3711" width="13.3333" x="72.5" y="202.1712"/><line style="stroke:#30363D;stroke-width:0.8333;stroke-dasharray:8.3333,8.3333;" x1="78.3333" x2="78.3333" y1="202.1712" y2="1152.5423"/></g></g><g class="participant-lifeline" data-entity-uid="part2" data-qualified-name="Application" id="part2-lifeline"><g><title>Application</title><rect fill="#000000" fill-opacity="0.00000" height="950.3711" width="13.3333" x="423.8647" y="202.1712"/><line style="stroke:#30363D;stroke-width:0.8333;stroke-dasharray:8.3333,8.3333;" x1="430.1237" x2="430.1237" y1="202.1712" y2="1152.5423"/></g></g><g class="participant-lifeline" data-entity-uid="part3" data-qualified-name="RecipeRestControllerV3" id="part3-lifeline"><g><title>RecipeRestControllerV3</title><rect fill="#000000" fill-opacity="0.00000" height="950.3711" width="13.3333" x="756.5568" y="202.1712"/><line style="stroke:#30363D;stroke-width:0.8333;stroke-dasharray:8.3333,8.3333;" x1="763.0745" x2="763.0745" y1="202.1712" y2="1152.5423"/></g></g><g class="participant-lifeline" data-entity-uid="part4" data-qualified-name="RecipeServiceV3" id="part4-lifeline"><g><title>RecipeServiceV3</title><rect fill="#000000" fill-opacity="0.00000" height="950.3711" width="13.3333" x="1001.9368" y="202.1712"/><line style="stroke:#30363D;stroke-width:0.8333;stroke-dasharray:8.3333,8.3333;" x1="1007.4487" x2="1007.4487" y1="202.1712" y2="1152.5423"/></g></g><g class="participant-lifeline" data-entity-uid="part5" data-qualified-name="RecipeDatabase" id="part5-lifeline"><g><title>RecipeDatabase</title><rect fill="#000000" fill-opacity="0.00000" height="950.3711" width="13.3333" x="1247.3169" y="202.1712"/><line style="stroke:#30363D;stroke-width:0.8333;stroke-dasharray:8.3333,8.3333;" x1="1252.7254" x2="1252.7254" y1="202.1712" y2="1152.5423"/></g></g><g class="participant-lifeline" data-entity-uid="part6" data-qualified-name="RecipeRestControllerV3LoggingAspect" id="part6-lifeline"><g><title>RecipeRestControllerV3LoggingAspect</title><rect fill="#000000" fill-opacity="0.00000" height="950.3711" width="13.3333" x="1562.5798" y="202.1712"/><line style="stroke:#30363D;stroke-width:0.8333;stroke-dasharray:8.3333,8.3333;" x1="1568.575" x2="1568.575" y1="202.1712" y2="1152.5423"/></g></g><g class="participant-lifeline" data-entity-uid="part7" data-qualified-name="GlobalExceptionsHandler" id="part7-lifeline"><g><title>GlobalExceptionsHandler</title><rect fill="#000000" fill-opacity="0.00000" height="950.3711" width="13.3333" x="1923.2332" y="202.1712"/><line style="stroke:#30363D;stroke-width:0.8333;stroke-dasharray:8.3333,8.3333;" x1="1928.2511" x2="1928.2511" y1="202.1712" y2="1152.5423"/></g></g><g class="participant participant-head" data-entity-uid="part1" data-qualified-name="User" id="part1-head"><text fill="#C9D1D9" font-family="sans-serif" font-size="23.3333" lengthAdjust="spacing" textLength="49.2643" x="49.5345" y="197.0443">User</text><ellipse cx="79.1667" cy="99.4189" fill="#0D1117" rx="26.6667" ry="26.6667" style="stroke:#58A6FF;stroke-width:0.8333;"/><path d="M79.1667,132.7523 C85.8333,132.7523 90.8333,132.7523 97.5,126.0856 C110.8333,126.0856 124.1667,139.4189 124.1667,152.7523 L124.1667,159.4189 C124.1667,166.0856 117.5,172.7523 110.8333,172.7523 L47.5,172.7523 C40.8333,172.7523 34.1667,166.0856 34.1667,159.4189 L34.1667,152.7523 C34.1667,139.4189 47.5,126.0856 60.8333,126.0856 C67.5,132.7523 72.5,132.7523 79.1667,132.7523" fill="#0D1117" style="stroke:#58A6FF;stroke-width:0.8333;"/></g><g class="participant participant-tail" data-entity-uid="part1" data-qualified-name="User" id="part1-tail"><text fill="#C9D1D9" font-family="sans-serif" font-size="23.3333" lengthAdjust="spacing" textLength="49.2643" x="49.5345" y="1174.3343">User</text><ellipse cx="79.1667" cy="1206.9613" fill="#0D1117" rx="26.6667" ry="26.6667" style="stroke:#58A6FF;stroke-width:0.8333;"/><path d="M79.1667,1240.2946 C85.8333,1240.2946 90.8333,1240.2946 97.5,1233.6279 C110.8333,1233.6279 124.1667,1246.9613 124.1667,1260.2946 L124.1667,1266.9613 C124.1667,1273.6279 117.5,1280.2946 110.8333,1280.2946 L47.5,1280.2946 C40.8333,1280.2946 34.1667,1273.6279 34.1667,1266.9613 L34.1667,1260.2946 C34.1667,1246.9613 47.5,1233.6279 60.8333,1233.6279 C67.5,1240.2946 72.5,1240.2946 79.1667,1240.2946" fill="#0D1117" style="stroke:#58A6FF;stroke-width:0.8333;"/></g><g class="participant participant-head" data-entity-uid="part2" data-qualified-name="Application" id="part2-head"><text fill="#C9D1D9" font-family="sans-serif" font-size="23.3333" lengthAdjust="spacing" textLength="114.1488" x="368.457" y="197.0443">Application</text><path d="M396.3647,126.9189 L396.3647,166.9189 M396.3647,146.9189 L424.6981,146.9189" fill="none" style="stroke:#58A6FF;stroke-width:0.8333;"/><ellipse cx="444.6981" cy="146.9189" fill="#0D1117" rx="20" ry="20" style="stroke:#58A6FF;stroke-width:0.8333;"/></g><g class="participant participant-tail" data-entity-uid="part2" data-qualified-name="Application" id="part2-tail"><text fill="#C9D1D9" font-family="sans-serif" font-size="23.3333" lengthAdjust="spacing" textLength="114.1488" x="368.457" y="1174.3343">Application</text><path d="M396.3647,1186.1279 L396.3647,1226.1279 M396.3647,1206.1279 L424.6981,1206.1279" fill="none" style="stroke:#58A6FF;stroke-width:0.8333;"/><ellipse cx="444.6981" cy="1206.1279" fill="#0D1117" rx="20" ry="20" style="stroke:#58A6FF;stroke-width:0.8333;"/></g><g class="participant participant-head" data-entity-uid="part3" data-qualified-name="RecipeRestControllerV3" id="part3-head"><text fill="#C9D1D9" font-family="sans-serif" font-size="23.3333" lengthAdjust="spacing" textLength="250.2979" x="633.0745" y="197.0443">RecipeRestControllerV3</text><ellipse cx="763.2235" cy="146.9189" fill="#0D1117" rx="20" ry="20" style="stroke:#58A6FF;stroke-width:0.8333;"/><polygon fill="#58A6FF" points="756.5568,126.9189,766.5568,118.5856,763.2235,126.9189,766.5568,135.2523,756.5568,126.9189" style="stroke:#58A6FF;stroke-width:1.6667;"/></g><g class="participant participant-tail" data-entity-uid="part3" data-qualified-name="RecipeRestControllerV3" id="part3-tail"><text fill="#C9D1D9" font-family="sans-serif" font-size="23.3333" lengthAdjust="spacing" textLength="250.2979" x="633.0745" y="1174.3343">RecipeRestControllerV3</text><ellipse cx="763.2235" cy="1206.1279" fill="#0D1117" rx="20" ry="20" style="stroke:#58A6FF;stroke-width:0.8333;"/><polygon fill="#58A6FF" points="756.5568,1186.1279,766.5568,1177.7946,763.2235,1186.1279,766.5568,1194.4613,756.5568,1186.1279" style="stroke:#58A6FF;stroke-width:1.6667;"/></g><g class="participant participant-head" data-entity-uid="part4" data-qualified-name="RecipeServiceV3" id="part4-head"><text fill="#C9D1D9" font-family="sans-serif" font-size="23.3333" lengthAdjust="spacing" textLength="178.9762" x="914.1154" y="197.0443">RecipeServiceV3</text><ellipse cx="1008.6035" cy="146.9189" fill="#0D1117" rx="20" ry="20" style="stroke:#58A6FF;stroke-width:0.8333;"/><polygon fill="#58A6FF" points="1001.9368,126.9189,1011.9368,118.5856,1008.6035,126.9189,1011.9368,135.2523,1001.9368,126.9189" style="stroke:#58A6FF;stroke-width:1.6667;"/></g><g class="participant participant-tail" data-entity-uid="part4" data-qualified-name="RecipeServiceV3" id="part4-tail"><text fill="#C9D1D9" font-family="sans-serif" font-size="23.3333" lengthAdjust="spacing" textLength="178.9762" x="914.1154" y="1174.3343">RecipeServiceV3</text><ellipse cx="1008.6035" cy="1206.1279" fill="#0D1117" rx="20" ry="20" style="stroke:#58A6FF;stroke-width:0.8333;"/><polygon fill="#58A6FF" points="1001.9368,1186.1279,1011.9368,1177.7946,1008.6035,1186.1279,1011.9368,1194.4613,1001.9368,1186.1279" style="stroke:#58A6FF;stroke-width:1.6667;"/></g><g class="participant participant-head" data-entity-uid="part5" data-qualified-name="RecipeDatabase" id="part5-head"><text fill="#C9D1D9" font-family="sans-serif" font-size="23.3333" lengthAdjust="spacing" textLength="172.5163" x="1162.7254" y="197.0443">RecipeDatabase</text><path d="M1223.9836,113.5856 C1223.9836,96.9189 1253.9836,96.9189 1253.9836,96.9189 C1253.9836,96.9189 1283.9836,96.9189 1283.9836,113.5856 L1283.9836,156.9189 C1283.9836,173.5856 1253.9836,173.5856 1253.9836,173.5856 C1253.9836,173.5856 1223.9836,173.5856 1223.9836,156.9189 L1223.9836,113.5856" fill="#0D1117" style="stroke:#58A6FF;stroke-width:0.8333;"/><path d="M1223.9836,113.5856 C1223.9836,130.2523 1253.9836,130.2523 1253.9836,130.2523 C1253.9836,130.2523 1283.9836,130.2523 1283.9836,113.5856" fill="none" style="stroke:#58A6FF;stroke-width:0.8333;"/></g><g class="participant participant-tail" data-entity-uid="part5" data-qualified-name="RecipeDatabase" id="part5-tail"><text fill="#C9D1D9" font-family="sans-serif" font-size="23.3333" lengthAdjust="spacing" textLength="172.5163" x="1162.7254" y="1174.3343">RecipeDatabase</text><path d="M1223.9836,1196.1279 C1223.9836,1179.4613 1253.9836,1179.4613 1253.9836,1179.4613 C1253.9836,1179.4613 1283.9836,1179.4613 1283.9836,1196.1279 L1283.9836,1239.4613 C1283.9836,1256.1279 1253.9836,1256.1279 1253.9836,1256.1279 C1253.9836,1256.1279 1223.9836,1256.1279 1223.9836,1239.4613 L1223.9836,1196.1279" fill="#0D1117" style="stroke:#58A6FF;stroke-width:0.8333;"/><path d="M1223.9836,1196.1279 C1223.9836,1212.7946 1253.9836,1212.7946 1253.9836,1212.7946 C1253.9836,1212.7946 1283.9836,1212.7946 1283.9836,1196.1279" fill="none" style="stroke:#58A6FF;stroke-width:0.8333;"/></g><g class="participant participant-head" data-entity-uid="part6" data-qualified-name="RecipeRestControllerV3LoggingAspect" id="part6-head"><text fill="#C9D1D9" font-family="sans-serif" font-size="23.3333" lengthAdjust="spacing" textLength="404.6761" x="1361.9084" y="197.0443">RecipeRestControllerV3LoggingAspect</text><ellipse cx="1569.2464" cy="146.9189" fill="#0D1117" rx="20" ry="20" style="stroke:#58A6FF;stroke-width:0.8333;"/><polygon fill="#58A6FF" points="1562.5798,126.9189,1572.5798,118.5856,1569.2464,126.9189,1572.5798,135.2523,1562.5798,126.9189" style="stroke:#58A6FF;stroke-width:1.6667;"/></g><g class="participant participant-tail" data-entity-uid="part6" data-qualified-name="RecipeRestControllerV3LoggingAspect" id="part6-tail"><text fill="#C9D1D9" font-family="sans-serif" font-size="23.3333" lengthAdjust="spacing" textLength="404.6761" x="1361.9084" y="1174.3343">RecipeRestControllerV3LoggingAspect</text><ellipse cx="1569.2464" cy="1206.1279" fill="#0D1117" rx="20" ry="20" style="stroke:#58A6FF;stroke-width:0.8333;"/><polygon fill="#58A6FF" points="1562.5798,1186.1279,1572.5798,1177.7946,1569.2464,1186.1279,1572.5798,1194.4613,1562.5798,1186.1279" style="stroke:#58A6FF;stroke-width:1.6667;"/></g><g class="participant participant-head" data-entity-uid="part7" data-qualified-name="GlobalExceptionsHandler" id="part7-head"><text fill="#C9D1D9" font-family="sans-serif" font-size="23.3333" lengthAdjust="spacing" textLength="263.2975" x="1793.2511" y="197.0443">GlobalExceptionsHandler</text><ellipse cx="1929.8999" cy="146.9189" fill="#0D1117" rx="20" ry="20" style="stroke:#58A6FF;stroke-width:0.8333;"/><polygon fill="#58A6FF" points="1923.2332,126.9189,1933.2332,118.5856,1929.8999,126.9189,1933.2332,135.2523,1923.2332,126.9189" style="stroke:#58A6FF;stroke-width:1.6667;"/></g><g class="participant participant-tail" data-entity-uid="part7" data-qualified-name="GlobalExceptionsHandler" id="part7-tail"><text fill="#C9D1D9" font-family="sans-serif" font-size="23.3333" lengthAdjust="spacing" textLength="263.2975" x="1793.2511" y="1174.3343">GlobalExceptionsHandler</text><ellipse cx="1929.8999" cy="1206.1279" fill="#0D1117" rx="20" ry="20" style="stroke:#58A6FF;stroke-width:0.8333;"/><polygon fill="#58A6FF" points="1923.2332,1186.1279,1933.2332,1177.7946,1929.8999,1186.1279,1933.2332,1194.4613,1923.2332,1186.1279" style="stroke:#58A6FF;stroke-width:1.6667;"/></g><g class="message" data-entity-1="part1" data-entity-2="part2" id="msg1"><polygon fill="#58A6FF" points="410.5314,248.715,427.1981,255.3817,410.5314,262.0483,417.1981,255.3817" style="stroke:#58A6FF;stroke-width:1.6667;"/><line style="stroke:#58A6FF;stroke-width:1.6667;" x1="79.1667" x2="420.5314" y1="255.3817" y2="255.3817"/><text fill="#C9D1D9" font-family="sans-serif" font-size="21.6667" font-weight="bold" lengthAdjust="spacing" textLength="12.05" x="99.1667" y="247.2876">1</text><text fill="#C9D1D9" font-family="sans-serif" font-size="21.6667" lengthAdjust="spacing" textLength="292.6481" x="117.8833" y="247.2876">GET /api/v3/recipes/{id}/image</text></g><g class="message" data-entity-1="part2" data-entity-2="part3" id="msg2"><polygon fill="#58A6FF" points="743.2235,298.5921,759.8901,305.2588,743.2235,311.9255,749.8901,305.2588" style="stroke:#58A6FF;stroke-width:1.6667;"/><line style="stroke:#58A6FF;stroke-width:1.6667;" x1="430.5314" x2="753.2235" y1="305.2588" y2="305.2588"/><text fill="#C9D1D9" font-family="sans-serif" font-size="21.6667" font-weight="bold" lengthAdjust="spacing" textLength="12.05" x="506.8087" y="297.1647">2</text><text fill="#C9D1D9" font-family="sans-serif" font-size="21.6667" lengthAdjust="spacing" textLength="161.4209" x="525.5253" y="297.1647">delegate request</text></g><path d="M1576.6667,336.9255 L1576.6667,358.5921 A10,10 0 0 0 1586.6667,368.5921 L1683.3333,368.5921 A10,10 0 0 0 1693.3333,358.5921 L1693.3333,343.5921 L1676.6667,326.9255 L1586.6667,326.9255 A10,10 0 0 0 1576.6667,336.9255" fill="#1C2330" style="stroke:#E7E7E7;stroke-width:0.8333;"/><path d="M1676.6667,326.9255 L1676.6667,338.5921 A5,5 0 0 0 1681.6667,343.5921 L1693.3333,343.5921 L1676.6667,326.9255" fill="#1C2330" style="stroke:#E7E7E7;stroke-width:0.8333;"/><text fill="#C9D1D9" font-family="sans-serif" font-size="21.6667" lengthAdjust="spacing" textLength="83.1014" x="1586.6667" y="357.0418">log entry</text><g class="message" data-entity-1="part3" data-entity-2="part4" id="msg3"><polygon fill="#58A6FF" points="988.6035,408.3464,1005.2702,415.013,988.6035,421.6797,995.2702,415.013" style="stroke:#58A6FF;stroke-width:1.6667;"/><line style="stroke:#58A6FF;stroke-width:1.6667;" x1="763.2235" x2="998.6035" y1="415.013" y2="415.013"/><text fill="#C9D1D9" font-family="sans-serif" font-size="21.6667" font-weight="bold" lengthAdjust="spacing" textLength="12.05" x="795.8447" y="406.9189">3</text><text fill="#C9D1D9" font-family="sans-serif" font-size="21.6667" lengthAdjust="spacing" textLength="161.4209" x="814.5614" y="406.9189">delegate request</text></g><path d="M26.6667,440.013 L116.9515,440.013 L116.9515,453.2235 L100.2848,469.8901 L16.6667,469.8901 L16.6667,450.013 A10,10 0 0 1 26.6667,440.013" fill="#161B22" style="stroke:#30363D;stroke-width:2.5;"/><rect fill="none" height="684.196" rx="10" ry="10" style="stroke:#30363D;stroke-width:2.5;" width="2066.5487" x="16.6667" y="440.013"/><text fill="#C9D1D9" font-family="sans-serif" font-size="21.6667" font-weight="bold" lengthAdjust="spacing" textLength="25.2848" x="41.6667" y="463.4627">alt</text><text fill="#C9D1D9" font-family="sans-serif" font-size="18.3333" font-weight="bold" lengthAdjust="spacing" textLength="129.4076" x="141.9515" y="461.7782">[Recipe exists]</text><g class="message" data-entity-1="part4" data-entity-2="part5" id="msg4"><polygon fill="#58A6FF" points="1233.9836,499.7673,1250.6502,506.4339,1233.9836,513.1006,1240.6502,506.4339" style="stroke:#58A6FF;stroke-width:1.6667;"/><line style="stroke:#58A6FF;stroke-width:1.6667;" x1="1008.6035" x2="1243.9836" y1="506.4339" y2="506.4339"/><text fill="#C9D1D9" font-family="sans-serif" font-size="21.6667" font-weight="bold" lengthAdjust="spacing" textLength="12.05" x="1033.4172" y="498.3398">4</text><text fill="#C9D1D9" font-family="sans-serif" font-size="21.6667" lengthAdjust="spacing" textLength="177.0361" x="1052.1338" y="498.3398">fetch recipe image</text></g><g class="message" data-entity-1="part5" data-entity-2="part4" id="msg5"><polygon fill="#58A6FF" points="1026.9368,549.6444,1010.2702,556.311,1026.9368,562.9777,1020.2702,556.311" style="stroke:#58A6FF;stroke-width:1.6667;"/><line style="stroke:#58A6FF;stroke-width:1.6667;" x1="1016.9368" x2="1252.3169" y1="556.311" y2="556.311"/><text fill="#C9D1D9" font-family="sans-serif" font-size="21.6667" font-weight="bold" lengthAdjust="spacing" textLength="12.05" x="1028.6035" y="548.217">5</text><text fill="#C9D1D9" font-family="sans-serif" font-size="21.6667" lengthAdjust="spacing" textLength="186.6634" x="1047.3201" y="548.217">return recipe image</text></g><g class="message" data-entity-1="part4" data-entity-2="part3" id="msg6"><polygon fill="#58A6FF" points="781.5568,599.5215,764.8901,606.1882,781.5568,612.8548,774.8901,606.1882" style="stroke:#58A6FF;stroke-width:1.6667;"/><line style="stroke:#58A6FF;stroke-width:1.6667;" x1="771.5568" x2="1006.9368" y1="606.1882" y2="606.1882"/><text fill="#C9D1D9" font-family="sans-serif" font-size="21.6667" font-weight="bold" lengthAdjust="spacing" textLength="12.05" x="783.2235" y="598.0941">6</text><text fill="#C9D1D9" font-family="sans-serif" font-size="21.6667" lengthAdjust="spacing" textLength="186.6634" x="801.9401" y="598.0941">return recipe image</text></g><path d="M1576.6667,637.8548 L1576.6667,659.5215 A10,10 0 0 0 1586.6667,669.5215 L1725,669.5215 A10,10 0 0 0 1735,659.5215 L1735,644.5215 L1718.3333,627.8548 L1586.6667,627.8548 A10,10 0 0 0 1576.6667,637.8548" fill="#1C2330" style="stroke:#E7E7E7;stroke-width:0.8333;"/><path d="M1718.3333,627.8548 L1718.3333,639.5215 A5,5 0 0 0 1723.3333,644.5215 L1735,644.5215 L1718.3333,627.8548" fill="#1C2330" style="stroke:#E7E7E7;stroke-width:0.8333;"/><text fill="#C9D1D9" font-family="sans-serif" font-size="21.6667" lengthAdjust="spacing" textLength="124.0649" x="1586.6667" y="657.9712">log response</text><g class="message" data-entity-1="part3" data-entity-2="part2" id="msg7"><polygon fill="#58A6FF" points="448.8647,709.2757,432.1981,715.9424,448.8647,722.609,442.1981,715.9424" style="stroke:#58A6FF;stroke-width:1.6667;"/><line style="stroke:#58A6FF;stroke-width:1.6667;" x1="438.8647" x2="761.5568" y1="715.9424" y2="715.9424"/><text fill="#C9D1D9" font-family="sans-serif" font-size="21.6667" font-weight="bold" lengthAdjust="spacing" textLength="12.05" x="450.5314" y="707.8483">7</text><text fill="#C9D1D9" font-family="sans-serif" font-size="21.6667" lengthAdjust="spacing" textLength="273.9754" x="469.248" y="707.8483">Http ok (200) + recipe image</text></g><g class="message" data-entity-1="part2" data-entity-2="part1" id="msg8"><polygon fill="#58A6FF" points="97.5,759.1528,80.8333,765.8195,97.5,772.4862,90.8333,765.8195" style="stroke:#58A6FF;stroke-width:1.6667;"/><line style="stroke:#58A6FF;stroke-width:1.6667;" x1="87.5" x2="428.8647" y1="765.8195" y2="765.8195"/><text fill="#C9D1D9" font-family="sans-serif" font-size="21.6667" font-weight="bold" lengthAdjust="spacing" textLength="12.05" x="108.503" y="757.7254">8</text><text fill="#C9D1D9" font-family="sans-serif" font-size="21.6667" lengthAdjust="spacing" textLength="273.9754" x="127.2196" y="757.7254">Http ok (200) + recipe image</text></g><line style="stroke:#30363D;stroke-width:1.6667;stroke-dasharray:3.3333,3.3333;" x1="16.6667" x2="2083.2153" y1="780.8195" y2="780.8195"/><text fill="#C9D1D9" font-family="sans-serif" font-size="18.3333" font-weight="bold" lengthAdjust="spacing" textLength="188.7581" x="25" y="799.2513">[Recipe doesn't exist]</text><g class="message" data-entity-1="part4" data-entity-2="part6" id="msg9"><polygon fill="#58A6FF" points="1549.2464,834.8234,1565.9131,841.4901,1549.2464,848.1567,1555.9131,841.4901" style="stroke:#58A6FF;stroke-width:1.6667;"/><line style="stroke:#58A6FF;stroke-width:1.6667;" x1="1008.6035" x2="1559.2464" y1="841.4901" y2="841.4901"/><text fill="#C9D1D9" font-family="sans-serif" font-size="21.6667" font-weight="bold" lengthAdjust="spacing" textLength="12.05" x="1203.691" y="833.396">9</text><text fill="#C9D1D9" font-family="sans-serif" font-size="21.6667" lengthAdjust="spacing" textLength="151.7513" x="1222.4076" y="833.396">throw exception</text></g><path d="M1576.6667,873.1567 L1576.6667,894.8234 A10,10 0 0 0 1586.6667,904.8234 L1681.6667,904.8234 A10,10 0 0 0 1691.6667,894.8234 L1691.6667,879.8234 L1675,863.1567 L1586.6667,863.1567 A10,10 0 0 0 1576.6667,873.1567" fill="#1C2330" style="stroke:#E7E7E7;stroke-width:0.8333;"/><path d="M1675,863.1567 L1675,874.8234 A5,5 0 0 0 1680,879.8234 L1691.6667,879.8234 L1675,863.1567" fill="#1C2330" style="stroke:#E7E7E7;stroke-width:0.8333;"/><text fill="#C9D1D9" font-family="sans-serif" font-size="21.6667" lengthAdjust="spacing" textLength="80.6787" x="1586.6667" y="893.2731">log error</text><g class="message" data-entity-1="part6" data-entity-2="part7" id="msg10"><polygon fill="#58A6FF" points="1909.8999,944.5776,1926.5666,951.2443,1909.8999,957.911,1916.5666,951.2443" style="stroke:#58A6FF;stroke-width:1.6667;"/><line style="stroke:#58A6FF;stroke-width:1.6667;" x1="1569.2464" x2="1919.8999" y1="951.2443" y2="951.2443"/><text fill="#C9D1D9" font-family="sans-serif" font-size="21.6667" font-weight="bold" lengthAdjust="spacing" textLength="24.0999" x="1645.0741" y="943.1502">10</text><text fill="#C9D1D9" font-family="sans-serif" font-size="21.6667" lengthAdjust="spacing" textLength="178.2316" x="1675.8407" y="943.1502">re-throw exception</text></g><path d="M1936.6667,982.911 L1936.6667,1004.5776 A10,10 0 0 0 1946.6667,1014.5776 L2041.6667,1014.5776 A10,10 0 0 0 2051.6667,1004.5776 L2051.6667,989.5776 L2035,972.911 L1946.6667,972.911 A10,10 0 0 0 1936.6667,982.911" fill="#1C2330" style="stroke:#E7E7E7;stroke-width:0.8333;"/><path d="M2035,972.911 L2035,984.5776 A5,5 0 0 0 2040,989.5776 L2051.6667,989.5776 L2035,972.911" fill="#1C2330" style="stroke:#E7E7E7;stroke-width:0.8333;"/><text fill="#C9D1D9" font-family="sans-serif" font-size="21.6667" lengthAdjust="spacing" textLength="80.6787" x="1946.6667" y="1003.0273">log error</text><g class="message" data-entity-1="part3" data-entity-2="part2" id="msg11"><polygon fill="#58A6FF" points="448.8647,1054.3319,432.1981,1060.9985,448.8647,1067.6652,442.1981,1060.9985" style="stroke:#58A6FF;stroke-width:1.6667;"/><line style="stroke:#58A6FF;stroke-width:1.6667;" x1="438.8647" x2="761.5568" y1="1060.9985" y2="1060.9985"/><text fill="#C9D1D9" font-family="sans-serif" font-size="21.6667" font-weight="bold" lengthAdjust="spacing" textLength="24.0999" x="485.1367" y="1052.9045">11</text><text fill="#C9D1D9" font-family="sans-serif" font-size="21.6667" lengthAdjust="spacing" textLength="192.7148" x="515.9033" y="1052.9045">Http not found (404)</text></g><g class="message" data-entity-1="part2" data-entity-2="part1" id="msg12"><polygon fill="#58A6FF" points="97.5,1104.209,80.8333,1110.8757,97.5,1117.5423,90.8333,1110.8757" style="stroke:#58A6FF;stroke-width:1.6667;"/><line style="stroke:#58A6FF;stroke-width:1.6667;" x1="87.5" x2="428.8647" y1="1110.8757" y2="1110.8757"/><text fill="#C9D1D9" font-family="sans-serif" font-size="21.6667" font-weight="bold" lengthAdjust="spacing" textLength="24.0999" x="143.1083" y="1102.7816">12</text><text fill="#C9D1D9" font-family="sans-serif" font-size="21.6667" lengthAdjust="spacing" textLength="192.7148" x="173.8749" y="1102.7816">Http not found (404)</text></g><?plantuml-src fLLDRzim3BtxLn3OOIs687RSfkiE0_BTGpSCJRUxOZEE44No9AP9KVI_LtOSJt7ifDlWayt7nySdYYPE0c6211eZdYBm5KiGMZ35tskK4NeUMvEIwzKCjUUP9PSfqsm5CnOj4wtMCXueeJHyy4T14Dmu2BDWiTfmcS2S2ODE94-Bb9Qe8UWuWJZb47HzjuufTC2B1_0DZR7oUe8d4YAKP3K1zBHMcqB5zUTUTpos7-_v7E-vnBxICUeY6lfXDnowqMeNGJVeTpePQKHA7oINrBlGKV_3l7-0ljhM5yq23LclRikFsPcCbQG2CxWT1iDR1x0_cubbIkjgDK4Rklq3_wwenfD19mpzAiejExh9dWh2wM1ydJrEFBTmIizszjW6ZLgvup74ELiBEdR0mVGpVKm_rvrG3Qh1TWSwiDMq4gVvzg3pT4D6RCOCdkOhKUS9Vp1DtDvG9kaqfmjiecMP_V3JsEipAoo2NfeA7Z7YIdhHhazuo7V20negEXUeVuMLy1Jr4u_GVe-BTeh0lhipTFSgIUoMw9aK8ogn4w5cJ8os4QQP97F7P2oo5PIfXjPNLozyWSde4TeivUsdiBtRPARzmkFNThxFF1TiS-k5M9eO1IQCq6v3UsyCUL9bBpnP4AZvUngm948bO7UJVlOQwfGAIklgIdjCK843t793nkuGECeioVPsMwuvKhGusEXEQechbQ6HrbesvTQKhN6nYUDVpTHeKZi2hf0wJmydueue1RM4YuxlNyAdOpMLcSZdwaoQXwASReWL6lcHTcVpTnvLcwI5_ODPecBO_yiij7z3VSAfmnmhiU6cvUVOEg-iEVqzQXhEpPQ0URQPuEBAlxeyTrvLEChu3G00?></g></svg>