<?plantuml 1.2026.2?>
<svg xmlns="http://www.w3.org/2000/svg" contentStyleType="text/css" data-diagram-type="SEQUENCE" height="1380px"
     preserveAspectRatio="none" style="width:2135px;height:1380px;background:#0E1117;" version="1.1"
     viewBox="0 0 2135 1380" width="2135px" zoomAndPan="magnify"><title>Restore default recipe image - Sequence</title><defs/><g><rect fill="#0E1117" height="1380" style="stroke:none;stroke-width:1.6667;" width="2135" x="0" y="0"/><text fill="#C9D1D9" font-family="sans-serif" font-size="23.3333" font-weight="bold" lengthAdjust="spacing" textLength="449.9642" x="844.4987" y="48.4587">Restore default recipe image - Sequence</text><rect fill="none" height="872.9541" rx="10" ry="10" style="stroke:#30363D;stroke-width:2.5;" width="2107.2949" x="16.6667" y="340.2588"/><rect fill="none" height="584.4417" rx="10" ry="10" style="stroke:#30363D;stroke-width:2.5;" width="2073.9616" x="33.3333" y="541.4339"/><g class="participant-lifeline" data-entity-uid="part1" data-qualified-name="User" id="part1-lifeline"><g><title>User</title><rect fill="#000000" fill-opacity="0.00000" height="1039.375" width="13.3333" x="89.1667" y="202.1712"/><line style="stroke:#30363D;stroke-width:0.8333;stroke-dasharray:8.3333,8.3333;" x1="95" x2="95" y1="202.1712" y2="1241.5462"/></g></g><g class="participant-lifeline" data-entity-uid="part2" data-qualified-name="Application" id="part2-lifeline"><g><title>Application</title><rect fill="#000000" fill-opacity="0.00000" height="1039.375" width="13.3333" x="512.7783" y="202.1712"/><line style="stroke:#30363D;stroke-width:0.8333;stroke-dasharray:8.3333,8.3333;" x1="519.0373" x2="519.0373" y1="202.1712" y2="1241.5462"/></g></g><g class="participant-lifeline" data-entity-uid="part3" data-qualified-name="RecipeRestControllerV3" id="part3-lifeline"><g><title>RecipeRestControllerV3</title><rect fill="#000000" fill-opacity="0.00000" height="1039.375" width="13.3333" x="775.0431" y="202.1712"/><line style="stroke:#30363D;stroke-width:0.8333;stroke-dasharray:8.3333,8.3333;" x1="781.5609" x2="781.5609" y1="202.1712" y2="1241.5462"/></g></g><g class="participant-lifeline" data-entity-uid="part4" data-qualified-name="RecipeServiceV3" id="part4-lifeline"><g><title>RecipeServiceV3</title><rect fill="#000000" fill-opacity="0.00000" height="1039.375" width="13.3333" x="1016.3468" y="202.1712"/><line style="stroke:#30363D;stroke-width:0.8333;stroke-dasharray:8.3333,8.3333;" x1="1021.8587" x2="1021.8587" y1="202.1712" y2="1241.5462"/></g></g><g class="participant-lifeline" data-entity-uid="part5" data-qualified-name="RecipeDatabase" id="part5-lifeline"><g><title>RecipeDatabase</title><rect fill="#000000" fill-opacity="0.00000" height="1039.375" width="13.3333" x="1271.3965" y="202.1712"/><line style="stroke:#30363D;stroke-width:0.8333;stroke-dasharray:8.3333,8.3333;" x1="1276.805" x2="1276.805" y1="202.1712" y2="1241.5462"/></g></g><g class="participant-lifeline" data-entity-uid="part6" data-qualified-name="RecipeRestControllerV3LoggingAspect" id="part6-lifeline"><g><title>RecipeRestControllerV3LoggingAspect</title><rect fill="#000000" fill-opacity="0.00000" height="1039.375" width="13.3333" x="1586.6593" y="202.1712"/><line style="stroke:#30363D;stroke-width:0.8333;stroke-dasharray:8.3333,8.3333;" x1="1592.6546" x2="1592.6546" y1="202.1712" y2="1241.5462"/></g></g><g class="participant-lifeline" data-entity-uid="part7" data-qualified-name="GlobalExceptionsHandler" id="part7-lifeline"><g><title>GlobalExceptionsHandler</title><rect fill="#000000" fill-opacity="0.00000" height="1039.375" width="13.3333" x="1947.3128" y="202.1712"/><line style="stroke:#30363D;stroke-width:0.8333;stroke-dasharray:8.3333,8.3333;" x1="1952.3307" x2="1952.3307" y1="202.1712" y2="1241.5462"/></g></g><g class="participant participant-head" data-entity-uid="part1" data-qualified-name="User" id="part1-head"><text fill="#C9D1D9" font-family="sans-serif" font-size="23.3333" lengthAdjust="spacing" textLength="49.2643" x="66.2012" y="197.0443">User</text><ellipse cx="95.8333" cy="99.4189" fill="#0D1117" rx="26.6667" ry="26.6667" style="stroke:#58A6FF;stroke-width:0.8333;"/><path d="M95.8333,132.7523 C102.5,132.7523 107.5,132.7523 114.1667,126.0856 C127.5,126.0856 140.8333,139.4189 140.8333,152.7523 L140.8333,159.4189 C140.8333,166.0856 134.1667,172.7523 127.5,172.7523 L64.1667,172.7523 C57.5,172.7523 50.8333,166.0856 50.8333,159.4189 L50.8333,152.7523 C50.8333,139.4189 64.1667,126.0856 77.5,126.0856 C84.1667,132.7523 89.1667,132.7523 95.8333,132.7523" fill="#0D1117" style="stroke:#58A6FF;stroke-width:0.8333;"/></g><g class="participant participant-tail" data-entity-uid="part1" data-qualified-name="User" id="part1-tail"><text fill="#C9D1D9" font-family="sans-serif" font-size="23.3333" lengthAdjust="spacing" textLength="49.2643" x="66.2012" y="1263.3382">User</text><ellipse cx="95.8333" cy="1295.9652" fill="#0D1117" rx="26.6667" ry="26.6667" style="stroke:#58A6FF;stroke-width:0.8333;"/><path d="M95.8333,1329.2985 C102.5,1329.2985 107.5,1329.2985 114.1667,1322.6318 C127.5,1322.6318 140.8333,1335.9652 140.8333,1349.2985 L140.8333,1355.9652 C140.8333,1362.6318 134.1667,1369.2985 127.5,1369.2985 L64.1667,1369.2985 C57.5,1369.2985 50.8333,1362.6318 50.8333,1355.9652 L50.8333,1349.2985 C50.8333,1335.9652 64.1667,1322.6318 77.5,1322.6318 C84.1667,1329.2985 89.1667,1329.2985 95.8333,1329.2985" fill="#0D1117" style="stroke:#58A6FF;stroke-width:0.8333;"/></g><g class="participant participant-head" data-entity-uid="part2" data-qualified-name="Application" id="part2-head"><text fill="#C9D1D9" font-family="sans-serif" font-size="23.3333" lengthAdjust="spacing" textLength="114.1488" x="457.3706" y="197.0443">Application</text><path d="M485.2783,126.9189 L485.2783,166.9189 M485.2783,146.9189 L513.6117,146.9189" fill="none" style="stroke:#58A6FF;stroke-width:0.8333;"/><ellipse cx="533.6117" cy="146.9189" fill="#0D1117" rx="20" ry="20" style="stroke:#58A6FF;stroke-width:0.8333;"/></g><g class="participant participant-tail" data-entity-uid="part2" data-qualified-name="Application" id="part2-tail"><text fill="#C9D1D9" font-family="sans-serif" font-size="23.3333" lengthAdjust="spacing" textLength="114.1488" x="457.3706" y="1263.3382">Application</text><path d="M485.2783,1275.1318 L485.2783,1315.1318 M485.2783,1295.1318 L513.6117,1295.1318" fill="none" style="stroke:#58A6FF;stroke-width:0.8333;"/><ellipse cx="533.6117" cy="1295.1318" fill="#0D1117" rx="20" ry="20" style="stroke:#58A6FF;stroke-width:0.8333;"/></g><g class="participant participant-head" data-entity-uid="part3" data-qualified-name="RecipeRestControllerV3" id="part3-head"><text fill="#C9D1D9" font-family="sans-serif" font-size="23.3333" lengthAdjust="spacing" textLength="250.2979" x="651.5609" y="197.0443">RecipeRestControllerV3</text><ellipse cx="781.7098" cy="146.9189" fill="#0D1117" rx="20" ry="20" style="stroke:#58A6FF;stroke-width:0.8333;"/><polygon fill="#58A6FF" points="775.0431,126.9189,785.0431,118.5856,781.7098,126.9189,785.0431,135.2523,775.0431,126.9189" style="stroke:#58A6FF;stroke-width:1.6667;"/></g><g class="participant participant-tail" data-entity-uid="part3" data-qualified-name="RecipeRestControllerV3" id="part3-tail"><text fill="#C9D1D9" font-family="sans-serif" font-size="23.3333" lengthAdjust="spacing" textLength="250.2979" x="651.5609" y="1263.3382">RecipeRestControllerV3</text><ellipse cx="781.7098" cy="1295.1318" fill="#0D1117" rx="20" ry="20" style="stroke:#58A6FF;stroke-width:0.8333;"/><polygon fill="#58A6FF" points="775.0431,1275.1318,785.0431,1266.7985,781.7098,1275.1318,785.0431,1283.4652,775.0431,1275.1318" style="stroke:#58A6FF;stroke-width:1.6667;"/></g><g class="participant participant-head" data-entity-uid="part4" data-qualified-name="RecipeServiceV3" id="part4-head"><text fill="#C9D1D9" font-family="sans-serif" font-size="23.3333" lengthAdjust="spacing" textLength="178.9762" x="928.5254" y="197.0443">RecipeServiceV3</text><ellipse cx="1023.0135" cy="146.9189" fill="#0D1117" rx="20" ry="20" style="stroke:#58A6FF;stroke-width:0.8333;"/><polygon fill="#58A6FF" points="1016.3468,126.9189,1026.3468,118.5856,1023.0135,126.9189,1026.3468,135.2523,1016.3468,126.9189" style="stroke:#58A6FF;stroke-width:1.6667;"/></g><g class="participant participant-tail" data-entity-uid="part4" data-qualified-name="RecipeServiceV3" id="part4-tail"><text fill="#C9D1D9" font-family="sans-serif" font-size="23.3333" lengthAdjust="spacing" textLength="178.9762" x="928.5254" y="1263.3382">RecipeServiceV3</text><ellipse cx="1023.0135" cy="1295.1318" fill="#0D1117" rx="20" ry="20" style="stroke:#58A6FF;stroke-width:0.8333;"/><polygon fill="#58A6FF" points="1016.3468,1275.1318,1026.3468,1266.7985,1023.0135,1275.1318,1026.3468,1283.4652,1016.3468,1275.1318" style="stroke:#58A6FF;stroke-width:1.6667;"/></g><g class="participant participant-head" data-entity-uid="part5" data-qualified-name="RecipeDatabase" id="part5-head"><text fill="#C9D1D9" font-family="sans-serif" font-size="23.3333" lengthAdjust="spacing" textLength="172.5163" x="1186.805" y="197.0443">RecipeDatabase</text><path d="M1248.0632,113.5856 C1248.0632,96.9189 1278.0632,96.9189 1278.0632,96.9189 C1278.0632,96.9189 1308.0632,96.9189 1308.0632,113.5856 L1308.0632,156.9189 C1308.0632,173.5856 1278.0632,173.5856 1278.0632,173.5856 C1278.0632,173.5856 1248.0632,173.5856 1248.0632,156.9189 L1248.0632,113.5856" fill="#0D1117" style="stroke:#58A6FF;stroke-width:0.8333;"/><path d="M1248.0632,113.5856 C1248.0632,130.2523 1278.0632,130.2523 1278.0632,130.2523 C1278.0632,130.2523 1308.0632,130.2523 1308.0632,113.5856" fill="none" style="stroke:#58A6FF;stroke-width:0.8333;"/></g><g class="participant participant-tail" data-entity-uid="part5" data-qualified-name="RecipeDatabase" id="part5-tail"><text fill="#C9D1D9" font-family="sans-serif" font-size="23.3333" lengthAdjust="spacing" textLength="172.5163" x="1186.805" y="1263.3382">RecipeDatabase</text><path d="M1248.0632,1285.1318 C1248.0632,1268.4652 1278.0632,1268.4652 1278.0632,1268.4652 C1278.0632,1268.4652 1308.0632,1268.4652 1308.0632,1285.1318 L1308.0632,1328.4652 C1308.0632,1345.1318 1278.0632,1345.1318 1278.0632,1345.1318 C1278.0632,1345.1318 1248.0632,1345.1318 1248.0632,1328.4652 L1248.0632,1285.1318" fill="#0D1117" style="stroke:#58A6FF;stroke-width:0.8333;"/><path d="M1248.0632,1285.1318 C1248.0632,1301.7985 1278.0632,1301.7985 1278.0632,1301.7985 C1278.0632,1301.7985 1308.0632,1301.7985 1308.0632,1285.1318" fill="none" style="stroke:#58A6FF;stroke-width:0.8333;"/></g><g class="participant participant-head" data-entity-uid="part6" data-qualified-name="RecipeRestControllerV3LoggingAspect" id="part6-head"><text fill="#C9D1D9" font-family="sans-serif" font-size="23.3333" lengthAdjust="spacing" textLength="404.6761" x="1385.988" y="197.0443">RecipeRestControllerV3LoggingAspect</text><ellipse cx="1593.326" cy="146.9189" fill="#0D1117" rx="20" ry="20" style="stroke:#58A6FF;stroke-width:0.8333;"/><polygon fill="#58A6FF" points="1586.6593,126.9189,1596.6593,118.5856,1593.326,126.9189,1596.6593,135.2523,1586.6593,126.9189" style="stroke:#58A6FF;stroke-width:1.6667;"/></g><g class="participant participant-tail" data-entity-uid="part6" data-qualified-name="RecipeRestControllerV3LoggingAspect" id="part6-tail"><text fill="#C9D1D9" font-family="sans-serif" font-size="23.3333" lengthAdjust="spacing" textLength="404.6761" x="1385.988" y="1263.3382">RecipeRestControllerV3LoggingAspect</text><ellipse cx="1593.326" cy="1295.1318" fill="#0D1117" rx="20" ry="20" style="stroke:#58A6FF;stroke-width:0.8333;"/><polygon fill="#58A6FF" points="1586.6593,1275.1318,1596.6593,1266.7985,1593.326,1275.1318,1596.6593,1283.4652,1586.6593,1275.1318" style="stroke:#58A6FF;stroke-width:1.6667;"/></g><g class="participant participant-head" data-entity-uid="part7" data-qualified-name="GlobalExceptionsHandler" id="part7-head"><text fill="#C9D1D9" font-family="sans-serif" font-size="23.3333" lengthAdjust="spacing" textLength="263.2975" x="1817.3307" y="197.0443">GlobalExceptionsHandler</text><ellipse cx="1953.9795" cy="146.9189" fill="#0D1117" rx="20" ry="20" style="stroke:#58A6FF;stroke-width:0.8333;"/><polygon fill="#58A6FF" points="1947.3128,126.9189,1957.3128,118.5856,1953.9795,126.9189,1957.3128,135.2523,1947.3128,126.9189" style="stroke:#58A6FF;stroke-width:1.6667;"/></g><g class="participant participant-tail" data-entity-uid="part7" data-qualified-name="GlobalExceptionsHandler" id="part7-tail"><text fill="#C9D1D9" font-family="sans-serif" font-size="23.3333" lengthAdjust="spacing" textLength="263.2975" x="1817.3307" y="1263.3382">GlobalExceptionsHandler</text><ellipse cx="1953.9795" cy="1295.1318" fill="#0D1117" rx="20" ry="20" style="stroke:#58A6FF;stroke-width:0.8333;"/><polygon fill="#58A6FF" points="1947.3128,1275.1318,1957.3128,1266.7985,1953.9795,1275.1318,1957.3128,1283.4652,1947.3128,1275.1318" style="stroke:#58A6FF;stroke-width:1.6667;"/></g><g class="message" data-entity-1="part1" data-entity-2="part2" id="msg1"><polygon fill="#58A6FF" points="499.445,248.715,516.1117,255.3817,499.445,262.0483,506.1117,255.3817" style="stroke:#58A6FF;stroke-width:1.6667;"/><line style="stroke:#58A6FF;stroke-width:1.6667;" x1="95.8333" x2="509.445" y1="255.3817" y2="255.3817"/><text fill="#C9D1D9" font-family="sans-serif" font-size="21.6667" font-weight="bold" lengthAdjust="spacing" textLength="12.05" x="115.8333" y="247.2876">1</text><text fill="#C9D1D9" font-family="sans-serif" font-size="21.6667" lengthAdjust="spacing" textLength="364.895" x="134.55" y="247.2876">PUT /api/v3/recipes/{id}/image/restore</text></g><path d="M526.6667,287.0483 L526.6667,308.715 A10,10 0 0 0 536.6667,318.715 L728.3333,318.715 A10,10 0 0 0 738.3333,308.715 L738.3333,293.715 L721.6667,277.0483 L536.6667,277.0483 A10,10 0 0 0 526.6667,287.0483" fill="#1C2330" style="stroke:#E7E7E7;stroke-width:0.8333;"/><path d="M721.6667,277.0483 L721.6667,288.715 A5,5 0 0 0 726.6667,293.715 L738.3333,293.715 L721.6667,277.0483" fill="#1C2330" style="stroke:#E7E7E7;stroke-width:0.8333;"/><text fill="#C9D1D9" font-family="sans-serif" font-size="21.6667" lengthAdjust="spacing" textLength="177.0573" x="536.6667" y="307.1647">authenticates user</text><path d="M26.6667,340.2588 L116.9515,340.2588 L116.9515,353.4692 L100.2848,370.1359 L16.6667,370.1359 L16.6667,350.2588 A10,10 0 0 1 26.6667,340.2588" fill="#161B22" style="stroke:#30363D;stroke-width:2.5;"/><rect fill="none" height="872.9541" rx="10" ry="10" style="stroke:#30363D;stroke-width:2.5;" width="2107.2949" x="16.6667" y="340.2588"/><text fill="#C9D1D9" font-family="sans-serif" font-size="21.6667" font-weight="bold" lengthAdjust="spacing" textLength="25.2848" x="41.6667" y="363.7085">alt</text><text fill="#C9D1D9" font-family="sans-serif" font-size="18.3333" font-weight="bold" lengthAdjust="spacing" textLength="177.255" x="141.9515" y="362.0239">[User authenticated]</text><g class="message" data-entity-1="part2" data-entity-2="part3" id="msg2"><polygon fill="#58A6FF" points="761.7098,400.013,778.3765,406.6797,761.7098,413.3464,768.3765,406.6797" style="stroke:#58A6FF;stroke-width:1.6667;"/><line style="stroke:#58A6FF;stroke-width:1.6667;" x1="519.445" x2="771.7098" y1="406.6797" y2="406.6797"/><text fill="#C9D1D9" font-family="sans-serif" font-size="21.6667" font-weight="bold" lengthAdjust="spacing" textLength="12.05" x="560.5086" y="398.5856">2</text><text fill="#C9D1D9" font-family="sans-serif" font-size="21.6667" lengthAdjust="spacing" textLength="161.4209" x="579.2253" y="398.5856">delegate request</text></g><path d="M1600,438.3464 L1600,460.013 A10,10 0 0 0 1610,470.013 L1706.6667,470.013 A10,10 0 0 0 1716.6667,460.013 L1716.6667,445.013 L1700,428.3464 L1610,428.3464 A10,10 0 0 0 1600,438.3464" fill="#1C2330" style="stroke:#E7E7E7;stroke-width:0.8333;"/><path d="M1700,428.3464 L1700,440.013 A5,5 0 0 0 1705,445.013 L1716.6667,445.013 L1700,428.3464" fill="#1C2330" style="stroke:#E7E7E7;stroke-width:0.8333;"/><text fill="#C9D1D9" font-family="sans-serif" font-size="21.6667" lengthAdjust="spacing" textLength="83.1014" x="1610" y="458.4627">log entry</text><g class="message" data-entity-1="part3" data-entity-2="part4" id="msg3"><polygon fill="#58A6FF" points="1003.0135,509.7673,1019.6802,516.4339,1003.0135,523.1006,1009.6802,516.4339" style="stroke:#58A6FF;stroke-width:1.6667;"/><line style="stroke:#58A6FF;stroke-width:1.6667;" x1="781.7098" x2="1013.0135" y1="516.4339" y2="516.4339"/><text fill="#C9D1D9" font-family="sans-serif" font-size="21.6667" font-weight="bold" lengthAdjust="spacing" textLength="12.05" x="812.2929" y="508.3398">3</text><text fill="#C9D1D9" font-family="sans-serif" font-size="21.6667" lengthAdjust="spacing" textLength="161.4209" x="831.0095" y="508.3398">delegate request</text></g><path d="M43.3333,541.4339 L133.6182,541.4339 L133.6182,554.6444 L116.9515,571.311 L33.3333,571.311 L33.3333,551.4339 A10,10 0 0 1 43.3333,541.4339" fill="#161B22" style="stroke:#30363D;stroke-width:2.5;"/><rect fill="none" height="584.4417" rx="10" ry="10" style="stroke:#30363D;stroke-width:2.5;" width="2073.9616" x="33.3333" y="541.4339"/><text fill="#C9D1D9" font-family="sans-serif" font-size="21.6667" font-weight="bold" lengthAdjust="spacing" textLength="25.2848" x="58.3333" y="564.8836">alt</text><text fill="#C9D1D9" font-family="sans-serif" font-size="18.3333" font-weight="bold" lengthAdjust="spacing" textLength="154.8576" x="158.6182" y="563.1991">[Customer exists]</text><g class="message" data-entity-1="part4" data-entity-2="part5" id="msg4"><polygon fill="#58A6FF" points="1258.0632,601.1882,1274.7298,607.8548,1258.0632,614.5215,1264.7298,607.8548" style="stroke:#58A6FF;stroke-width:1.6667;"/><line style="stroke:#58A6FF;stroke-width:1.6667;" x1="1023.0135" x2="1268.0632" y1="607.8548" y2="607.8548"/><text fill="#C9D1D9" font-family="sans-serif" font-size="21.6667" font-weight="bold" lengthAdjust="spacing" textLength="12.05" x="1043.0135" y="599.7607">4</text><text fill="#C9D1D9" font-family="sans-serif" font-size="21.6667" lengthAdjust="spacing" textLength="196.333" x="1061.7301" y="599.7607">update recipe image</text></g><path d="M1600,639.5215 L1600,661.1882 A10,10 0 0 0 1610,671.1882 L1748.3333,671.1882 A10,10 0 0 0 1758.3333,661.1882 L1758.3333,646.1882 L1741.6667,629.5215 L1610,629.5215 A10,10 0 0 0 1600,639.5215" fill="#1C2330" style="stroke:#E7E7E7;stroke-width:0.8333;"/><path d="M1741.6667,629.5215 L1741.6667,641.1882 A5,5 0 0 0 1746.6667,646.1882 L1758.3333,646.1882 L1741.6667,629.5215" fill="#1C2330" style="stroke:#E7E7E7;stroke-width:0.8333;"/><text fill="#C9D1D9" font-family="sans-serif" font-size="21.6667" lengthAdjust="spacing" textLength="124.0649" x="1610" y="659.6379">log response</text><g class="message" data-entity-1="part3" data-entity-2="part2" id="msg5"><polygon fill="#58A6FF" points="537.7783,710.9424,521.1117,717.609,537.7783,724.2757,531.1117,717.609" style="stroke:#58A6FF;stroke-width:1.6667;"/><line style="stroke:#58A6FF;stroke-width:1.6667;" x1="527.7783" x2="780.0431" y1="717.609" y2="717.609"/><text fill="#C9D1D9" font-family="sans-serif" font-size="21.6667" font-weight="bold" lengthAdjust="spacing" textLength="12.05" x="539.445" y="709.515">5</text><text fill="#C9D1D9" font-family="sans-serif" font-size="21.6667" lengthAdjust="spacing" textLength="203.5482" x="558.1616" y="709.515">Http no content (204)</text></g><g class="message" data-entity-1="part2" data-entity-2="part1" id="msg6"><polygon fill="#58A6FF" points="114.1667,760.8195,97.5,767.4862,114.1667,774.1528,107.5,767.4862" style="stroke:#58A6FF;stroke-width:1.6667;"/><line style="stroke:#58A6FF;stroke-width:1.6667;" x1="104.1667" x2="517.7783" y1="767.4862" y2="767.4862"/><text fill="#C9D1D9" font-family="sans-serif" font-size="21.6667" font-weight="bold" lengthAdjust="spacing" textLength="12.05" x="196.5068" y="759.3921">6</text><text fill="#C9D1D9" font-family="sans-serif" font-size="21.6667" lengthAdjust="spacing" textLength="203.5482" x="215.2234" y="759.3921">Http no content (204)</text></g><line style="stroke:#30363D;stroke-width:1.6667;stroke-dasharray:3.3333,3.3333;" x1="33.3333" x2="2107.2949" y1="782.4862" y2="782.4862"/><text fill="#C9D1D9" font-family="sans-serif" font-size="18.3333" font-weight="bold" lengthAdjust="spacing" textLength="214.2082" x="41.6667" y="800.918">[Customer doesn't exist]</text><g class="message" data-entity-1="part4" data-entity-2="part6" id="msg7"><polygon fill="#58A6FF" points="1573.326,836.4901,1589.9927,843.1567,1573.326,849.8234,1579.9927,843.1567" style="stroke:#58A6FF;stroke-width:1.6667;"/><line style="stroke:#58A6FF;stroke-width:1.6667;" x1="1023.0135" x2="1583.326" y1="843.1567" y2="843.1567"/><text fill="#C9D1D9" font-family="sans-serif" font-size="21.6667" font-weight="bold" lengthAdjust="spacing" textLength="12.05" x="1222.9358" y="835.0627">7</text><text fill="#C9D1D9" font-family="sans-serif" font-size="21.6667" lengthAdjust="spacing" textLength="151.7513" x="1241.6524" y="835.0627">throw exception</text></g><path d="M1600,874.8234 L1600,896.4901 A10,10 0 0 0 1610,906.4901 L1705,906.4901 A10,10 0 0 0 1715,896.4901 L1715,881.4901 L1698.3333,864.8234 L1610,864.8234 A10,10 0 0 0 1600,874.8234" fill="#1C2330" style="stroke:#E7E7E7;stroke-width:0.8333;"/><path d="M1698.3333,864.8234 L1698.3333,876.4901 A5,5 0 0 0 1703.3333,881.4901 L1715,881.4901 L1698.3333,864.8234" fill="#1C2330" style="stroke:#E7E7E7;stroke-width:0.8333;"/><text fill="#C9D1D9" font-family="sans-serif" font-size="21.6667" lengthAdjust="spacing" textLength="80.6787" x="1610" y="894.9398">log error</text><g class="message" data-entity-1="part6" data-entity-2="part7" id="msg8"><polygon fill="#58A6FF" points="1933.9795,946.2443,1950.6462,952.911,1933.9795,959.5776,1940.6462,952.911" style="stroke:#58A6FF;stroke-width:1.6667;"/><line style="stroke:#58A6FF;stroke-width:1.6667;" x1="1593.326" x2="1943.9795" y1="952.911" y2="952.911"/><text fill="#C9D1D9" font-family="sans-serif" font-size="21.6667" font-weight="bold" lengthAdjust="spacing" textLength="12.05" x="1675.1786" y="944.8169">8</text><text fill="#C9D1D9" font-family="sans-serif" font-size="21.6667" lengthAdjust="spacing" textLength="178.2316" x="1693.8953" y="944.8169">re-throw exception</text></g><path d="M1961.6667,984.5776 L1961.6667,1006.2443 A10,10 0 0 0 1971.6667,1016.2443 L2066.6667,1016.2443 A10,10 0 0 0 2076.6667,1006.2443 L2076.6667,991.2443 L2060,974.5776 L1971.6667,974.5776 A10,10 0 0 0 1961.6667,984.5776" fill="#1C2330" style="stroke:#E7E7E7;stroke-width:0.8333;"/><path d="M2060,974.5776 L2060,986.2443 A5,5 0 0 0 2065,991.2443 L2076.6667,991.2443 L2060,974.5776" fill="#1C2330" style="stroke:#E7E7E7;stroke-width:0.8333;"/><text fill="#C9D1D9" font-family="sans-serif" font-size="21.6667" lengthAdjust="spacing" textLength="80.6787" x="1971.6667" y="1004.694">log error</text><g class="message" data-entity-1="part3" data-entity-2="part2" id="msg9"><polygon fill="#58A6FF" points="537.7783,1055.9985,521.1117,1062.6652,537.7783,1069.3319,531.1117,1062.6652" style="stroke:#58A6FF;stroke-width:1.6667;"/><line style="stroke:#58A6FF;stroke-width:1.6667;" x1="527.7783" x2="780.0431" y1="1062.6652" y2="1062.6652"/><text fill="#C9D1D9" font-family="sans-serif" font-size="21.6667" font-weight="bold" lengthAdjust="spacing" textLength="12.05" x="544.8617" y="1054.5711">9</text><text fill="#C9D1D9" font-family="sans-serif" font-size="21.6667" lengthAdjust="spacing" textLength="192.7148" x="563.5783" y="1054.5711">Http not found (404)</text></g><g class="message" data-entity-1="part2" data-entity-2="part1" id="msg10"><polygon fill="#58A6FF" points="114.1667,1105.8757,97.5,1112.5423,114.1667,1119.209,107.5,1112.5423" style="stroke:#58A6FF;stroke-width:1.6667;"/><line style="stroke:#58A6FF;stroke-width:1.6667;" x1="104.1667" x2="517.7783" y1="1112.5423" y2="1112.5423"/><text fill="#C9D1D9" font-family="sans-serif" font-size="21.6667" font-weight="bold" lengthAdjust="spacing" textLength="24.0999" x="195.8984" y="1104.4482">10</text><text fill="#C9D1D9" font-family="sans-serif" font-size="21.6667" lengthAdjust="spacing" textLength="192.7148" x="226.665" y="1104.4482">Http not found (404)</text></g><line style="stroke:#30363D;stroke-width:1.6667;stroke-dasharray:3.3333,3.3333;" x1="16.6667" x2="2123.9616" y1="1139.209" y2="1139.209"/><text fill="#C9D1D9" font-family="sans-serif" font-size="18.3333" font-weight="bold" lengthAdjust="spacing" textLength="210.8512" x="25" y="1157.6408">[User not authenticated]</text><g class="message" data-entity-1="part2" data-entity-2="part1" id="msg11"><polygon fill="#58A6FF" points="114.1667,1193.2129,97.5,1199.8796,114.1667,1206.5462,107.5,1199.8796" style="stroke:#58A6FF;stroke-width:1.6667;"/><line style="stroke:#58A6FF;stroke-width:1.6667;" x1="104.1667" x2="517.7783" y1="1199.8796" y2="1199.8796"/><text fill="#C9D1D9" font-family="sans-serif" font-size="21.6667" font-weight="bold" lengthAdjust="spacing" textLength="24.0999" x="195.9037" y="1191.7855">11</text><text fill="#C9D1D9" font-family="sans-serif" font-size="21.6667" lengthAdjust="spacing" textLength="192.7043" x="226.6703" y="1191.7855">Http forbidden (403)</text></g><?plantuml-src fLLDRzim3BtxLn3OOUsXI1otwRh3W7mqxQ4RYhNTNR4OHwWZUPBS3nJxxwCKnr5Skmas-2O-FZu-IhGLDaVuYSOgZS1nmShSWiPK50XYnJA44xZ3toNA5AE8bLR9SZL77KNcKSY2QRQ2EKiVCwrAoISgLne-zI_ZE3uF46R9k7eMCeC5omq64P-MAYrHGpm80hmG40_xOHrJwO2t2E0x6aFoHhd89AGeBMa266cjdYiLPrz6mzcC3c_40c-4nB7I77KLJVh9C9c6qMONyJ0U3mQED2LtTf9hwdNeNVzJtp_0MBsq5tM1Zgm_OSltRZup9Ms5cLnCu-b50DZCvegOYhPQNT2ERhVm7ygsU38P94c_YGhBNfwxhu48EfYTkI-8Umllx2lTG_QCHgt2wp5TtyZt3WIOiTF7z6lRX5fG7RO7q0bLqoh_c6y3saytPPRDcS6F-MhKVi9RfgsW5yga_PWp17RHCcS_F1XwFlFA8XWLHIvIPeMIKRhkatQ4smbkKrITvwX_9Otm7UedaIATywgTAh3fRW_TZSeosX8ZKs1gQ-nLhkOiltn9iN2Ip3MJF7ShoAc6as-XNlWAjm_tq6E5w3qblVKcCxqtmV_q_3wZ8x_i8adt4hJ8bXRKea51Usv9AyKTe87IcHCnMeo-O1Zaz9PX9vdajFT6j1npp9WhwvwYiJvvLyS1lX1HhZ8W2VhLCtJKgvNKKscJu1bSRvEIV5bHV_WYZ3N-VCk-vQXfDpCbrhBWQyxjVwFE_zV-Q4u53HiRGjhQt1tUjRK5LGLtVSWaE1hqJuzhbiQi_4IxSdmIqWzhQmvNQEHdkpPflqVx6hLB-byHMNMr_ziqfF-VtkFORXv9xNXVHAdnv325tHI7gkgSeuM5sqjmT7hm6D-deEIH7wG7EiJULnnIBfIU2yvHEihaE2Awlm00?></g></svg>