<?plantuml 1.2026.2?>
<svg xmlns="http://www.w3.org/2000/svg" contentStyleType="text/css" data-diagram-type="SEQUENCE" height="893.3333px"
     preserveAspectRatio="none" style="width:2151px;height:893px;background:#0E1117;" version="1.1"
     viewBox="0 0 2151 893" width="2151.6667px" zoomAndPan="magnify"><title>Search recipes - Sequence</title><defs/><g><rect fill="#0E1117" height="893.3333" style="stroke:none;stroke-width:1.6667;" width="2151.6667" x="0" y="0"/><text fill="#C9D1D9" font-family="sans-serif" font-size="23.3333" font-weight="bold" lengthAdjust="spacing" textLength="296.9987" x="930.2722" y="48.4587">Search recipes - Sequence</text><g class="participant-lifeline" data-entity-uid="part1" data-qualified-name="User" id="part1-lifeline"><g><title>User</title><rect fill="#000000" fill-opacity="0.00000" height="552.1045" width="13.3333" x="47.5" y="202.1712"/><line style="stroke:#30363D;stroke-width:0.8333;stroke-dasharray:8.3333,8.3333;" x1="53.3333" x2="53.3333" y1="202.1712" y2="754.2757"/></g></g><g class="participant-lifeline" data-entity-uid="part2" data-qualified-name="Application" id="part2-lifeline"><g><title>Application</title><rect fill="#000000" fill-opacity="0.00000" height="552.1045" width="13.3333" x="856.0124" y="202.1712"/><line style="stroke:#30363D;stroke-width:0.8333;stroke-dasharray:8.3333,8.3333;" x1="862.2713" x2="862.2713" y1="202.1712" y2="754.2757"/></g></g><g class="participant-lifeline" data-entity-uid="part3" data-qualified-name="RecipeRestControllerV3" id="part3-lifeline"><g><title>RecipeRestControllerV3</title><rect fill="#000000" fill-opacity="0.00000" height="552.1045" width="13.3333" x="1177.8923" y="202.1712"/><line style="stroke:#30363D;stroke-width:0.8333;stroke-dasharray:8.3333,8.3333;" x1="1184.41" x2="1184.41" y1="202.1712" y2="754.2757"/></g></g><g class="participant-lifeline" data-entity-uid="part4" data-qualified-name="RecipeServiceV3" id="part4-lifeline"><g><title>RecipeServiceV3</title><rect fill="#000000" fill-opacity="0.00000" height="552.1045" width="13.3333" x="1419.196" y="202.1712"/><line style="stroke:#30363D;stroke-width:0.8333;stroke-dasharray:8.3333,8.3333;" x1="1424.7078" x2="1424.7078" y1="202.1712" y2="754.2757"/></g></g><g class="participant-lifeline" data-entity-uid="part5" data-qualified-name="RecipeDatabase" id="part5-lifeline"><g><title>RecipeDatabase</title><rect fill="#000000" fill-opacity="0.00000" height="552.1045" width="13.3333" x="1621.6089" y="202.1712"/><line style="stroke:#30363D;stroke-width:0.8333;stroke-dasharray:8.3333,8.3333;" x1="1627.0174" x2="1627.0174" y1="202.1712" y2="754.2757"/></g></g><g class="participant-lifeline" data-entity-uid="part6" data-qualified-name="RecipeRestControllerV3LoggingAspect" id="part6-lifeline"><g><title>RecipeRestControllerV3LoggingAspect</title><rect fill="#000000" fill-opacity="0.00000" height="552.1045" width="13.3333" x="1936.8717" y="202.1712"/><line style="stroke:#30363D;stroke-width:0.8333;stroke-dasharray:8.3333,8.3333;" x1="1942.867" x2="1942.867" y1="202.1712" y2="754.2757"/></g></g><g class="participant participant-head" data-entity-uid="part1" data-qualified-name="User" id="part1-head"><text fill="#C9D1D9" font-family="sans-serif" font-size="23.3333" lengthAdjust="spacing" textLength="49.2643" x="24.5345" y="197.0443">User</text><ellipse cx="54.1667" cy="99.4189" fill="#0D1117" rx="26.6667" ry="26.6667" style="stroke:#58A6FF;stroke-width:0.8333;"/><path d="M54.1667,132.7523 C60.8333,132.7523 65.8333,132.7523 72.5,126.0856 C85.8333,126.0856 99.1667,139.4189 99.1667,152.7523 L99.1667,159.4189 C99.1667,166.0856 92.5,172.7523 85.8333,172.7523 L22.5,172.7523 C15.8333,172.7523 9.1667,166.0856 9.1667,159.4189 L9.1667,152.7523 C9.1667,139.4189 22.5,126.0856 35.8333,126.0856 C42.5,132.7523 47.5,132.7523 54.1667,132.7523" fill="#0D1117" style="stroke:#58A6FF;stroke-width:0.8333;"/></g><g class="participant participant-tail" data-entity-uid="part1" data-qualified-name="User" id="part1-tail"><text fill="#C9D1D9" font-family="sans-serif" font-size="23.3333" lengthAdjust="spacing" textLength="49.2643" x="24.5345" y="776.0677">User</text><ellipse cx="54.1667" cy="808.6947" fill="#0D1117" rx="26.6667" ry="26.6667" style="stroke:#58A6FF;stroke-width:0.8333;"/><path d="M54.1667,842.028 C60.8333,842.028 65.8333,842.028 72.5,835.3613 C85.8333,835.3613 99.1667,848.6947 99.1667,862.028 L99.1667,868.6947 C99.1667,875.3613 92.5,882.028 85.8333,882.028 L22.5,882.028 C15.8333,882.028 9.1667,875.3613 9.1667,868.6947 L9.1667,862.028 C9.1667,848.6947 22.5,835.3613 35.8333,835.3613 C42.5,842.028 47.5,842.028 54.1667,842.028" fill="#0D1117" style="stroke:#58A6FF;stroke-width:0.8333;"/></g><g class="participant participant-head" data-entity-uid="part2" data-qualified-name="Application" id="part2-head"><text fill="#C9D1D9" font-family="sans-serif" font-size="23.3333" lengthAdjust="spacing" textLength="114.1488" x="800.6047" y="197.0443">Application</text><path d="M828.5124,126.9189 L828.5124,166.9189 M828.5124,146.9189 L856.8457,146.9189" fill="none" style="stroke:#58A6FF;stroke-width:0.8333;"/><ellipse cx="876.8457" cy="146.9189" fill="#0D1117" rx="20" ry="20" style="stroke:#58A6FF;stroke-width:0.8333;"/></g><g class="participant participant-tail" data-entity-uid="part2" data-qualified-name="Application" id="part2-tail"><text fill="#C9D1D9" font-family="sans-serif" font-size="23.3333" lengthAdjust="spacing" textLength="114.1488" x="800.6047" y="776.0677">Application</text><path d="M828.5124,787.8613 L828.5124,827.8613 M828.5124,807.8613 L856.8457,807.8613" fill="none" style="stroke:#58A6FF;stroke-width:0.8333;"/><ellipse cx="876.8457" cy="807.8613" fill="#0D1117" rx="20" ry="20" style="stroke:#58A6FF;stroke-width:0.8333;"/></g><g class="participant participant-head" data-entity-uid="part3" data-qualified-name="RecipeRestControllerV3" id="part3-head"><text fill="#C9D1D9" font-family="sans-serif" font-size="23.3333" lengthAdjust="spacing" textLength="250.2979" x="1054.41" y="197.0443">RecipeRestControllerV3</text><ellipse cx="1184.5589" cy="146.9189" fill="#0D1117" rx="20" ry="20" style="stroke:#58A6FF;stroke-width:0.8333;"/><polygon fill="#58A6FF" points="1177.8923,126.9189,1187.8923,118.5856,1184.5589,126.9189,1187.8923,135.2523,1177.8923,126.9189" style="stroke:#58A6FF;stroke-width:1.6667;"/></g><g class="participant participant-tail" data-entity-uid="part3" data-qualified-name="RecipeRestControllerV3" id="part3-tail"><text fill="#C9D1D9" font-family="sans-serif" font-size="23.3333" lengthAdjust="spacing" textLength="250.2979" x="1054.41" y="776.0677">RecipeRestControllerV3</text><ellipse cx="1184.5589" cy="807.8613" fill="#0D1117" rx="20" ry="20" style="stroke:#58A6FF;stroke-width:0.8333;"/><polygon fill="#58A6FF" points="1177.8923,787.8613,1187.8923,779.528,1184.5589,787.8613,1187.8923,796.1947,1177.8923,787.8613" style="stroke:#58A6FF;stroke-width:1.6667;"/></g><g class="participant participant-head" data-entity-uid="part4" data-qualified-name="RecipeServiceV3" id="part4-head"><text fill="#C9D1D9" font-family="sans-serif" font-size="23.3333" lengthAdjust="spacing" textLength="178.9762" x="1331.3745" y="197.0443">RecipeServiceV3</text><ellipse cx="1425.8626" cy="146.9189" fill="#0D1117" rx="20" ry="20" style="stroke:#58A6FF;stroke-width:0.8333;"/><polygon fill="#58A6FF" points="1419.196,126.9189,1429.196,118.5856,1425.8626,126.9189,1429.196,135.2523,1419.196,126.9189" style="stroke:#58A6FF;stroke-width:1.6667;"/></g><g class="participant participant-tail" data-entity-uid="part4" data-qualified-name="RecipeServiceV3" id="part4-tail"><text fill="#C9D1D9" font-family="sans-serif" font-size="23.3333" lengthAdjust="spacing" textLength="178.9762" x="1331.3745" y="776.0677">RecipeServiceV3</text><ellipse cx="1425.8626" cy="807.8613" fill="#0D1117" rx="20" ry="20" style="stroke:#58A6FF;stroke-width:0.8333;"/><polygon fill="#58A6FF" points="1419.196,787.8613,1429.196,779.528,1425.8626,787.8613,1429.196,796.1947,1419.196,787.8613" style="stroke:#58A6FF;stroke-width:1.6667;"/></g><g class="participant participant-head" data-entity-uid="part5" data-qualified-name="RecipeDatabase" id="part5-head"><text fill="#C9D1D9" font-family="sans-serif" font-size="23.3333" lengthAdjust="spacing" textLength="172.5163" x="1537.0174" y="197.0443">RecipeDatabase</text><path d="M1598.2756,113.5856 C1598.2756,96.9189 1628.2756,96.9189 1628.2756,96.9189 C1628.2756,96.9189 1658.2756,96.9189 1658.2756,113.5856 L1658.2756,156.9189 C1658.2756,173.5856 1628.2756,173.5856 1628.2756,173.5856 C1628.2756,173.5856 1598.2756,173.5856 1598.2756,156.9189 L1598.2756,113.5856" fill="#0D1117" style="stroke:#58A6FF;stroke-width:0.8333;"/><path d="M1598.2756,113.5856 C1598.2756,130.2523 1628.2756,130.2523 1628.2756,130.2523 C1628.2756,130.2523 1658.2756,130.2523 1658.2756,113.5856" fill="none" style="stroke:#58A6FF;stroke-width:0.8333;"/></g><g class="participant participant-tail" data-entity-uid="part5" data-qualified-name="RecipeDatabase" id="part5-tail"><text fill="#C9D1D9" font-family="sans-serif" font-size="23.3333" lengthAdjust="spacing" textLength="172.5163" x="1537.0174" y="776.0677">RecipeDatabase</text><path d="M1598.2756,797.8613 C1598.2756,781.1947 1628.2756,781.1947 1628.2756,781.1947 C1628.2756,781.1947 1658.2756,781.1947 1658.2756,797.8613 L1658.2756,841.1947 C1658.2756,857.8613 1628.2756,857.8613 1628.2756,857.8613 C1628.2756,857.8613 1598.2756,857.8613 1598.2756,841.1947 L1598.2756,797.8613" fill="#0D1117" style="stroke:#58A6FF;stroke-width:0.8333;"/><path d="M1598.2756,797.8613 C1598.2756,814.528 1628.2756,814.528 1628.2756,814.528 C1628.2756,814.528 1658.2756,814.528 1658.2756,797.8613" fill="none" style="stroke:#58A6FF;stroke-width:0.8333;"/></g><g class="participant participant-head" data-entity-uid="part6" data-qualified-name="RecipeRestControllerV3LoggingAspect" id="part6-head"><text fill="#C9D1D9" font-family="sans-serif" font-size="23.3333" lengthAdjust="spacing" textLength="404.6761" x="1736.2004" y="197.0443">RecipeRestControllerV3LoggingAspect</text><ellipse cx="1943.5384" cy="146.9189" fill="#0D1117" rx="20" ry="20" style="stroke:#58A6FF;stroke-width:0.8333;"/><polygon fill="#58A6FF" points="1936.8717,126.9189,1946.8717,118.5856,1943.5384,126.9189,1946.8717,135.2523,1936.8717,126.9189" style="stroke:#58A6FF;stroke-width:1.6667;"/></g><g class="participant participant-tail" data-entity-uid="part6" data-qualified-name="RecipeRestControllerV3LoggingAspect" id="part6-tail"><text fill="#C9D1D9" font-family="sans-serif" font-size="23.3333" lengthAdjust="spacing" textLength="404.6761" x="1736.2004" y="776.0677">RecipeRestControllerV3LoggingAspect</text><ellipse cx="1943.5384" cy="807.8613" fill="#0D1117" rx="20" ry="20" style="stroke:#58A6FF;stroke-width:0.8333;"/><polygon fill="#58A6FF" points="1936.8717,787.8613,1946.8717,779.528,1943.5384,787.8613,1946.8717,796.1947,1936.8717,787.8613" style="stroke:#58A6FF;stroke-width:1.6667;"/></g><g class="message" data-entity-1="part1" data-entity-2="part2" id="msg1"><polygon fill="#58A6FF" points="842.679,248.715,859.3457,255.3817,842.679,262.0483,849.3457,255.3817" style="stroke:#58A6FF;stroke-width:1.6667;"/><line style="stroke:#58A6FF;stroke-width:1.6667;" x1="54.1667" x2="852.679" y1="255.3817" y2="255.3817"/><text fill="#C9D1D9" font-family="sans-serif" font-size="21.6667" font-weight="bold" lengthAdjust="spacing" textLength="12.05" x="74.1667" y="247.2876">1</text><text fill="#C9D1D9" font-family="sans-serif" font-size="21.6667" lengthAdjust="spacing" textLength="749.7957" x="92.8833" y="247.2876">GET /api/v3/recipes/search?username={username}&amp;page={page}&amp;size={size}</text></g><g class="message" data-entity-1="part2" data-entity-2="part3" id="msg2"><polygon fill="#58A6FF" points="1164.5589,298.5921,1181.2256,305.2588,1164.5589,311.9255,1171.2256,305.2588" style="stroke:#58A6FF;stroke-width:1.6667;"/><line style="stroke:#58A6FF;stroke-width:1.6667;" x1="862.679" x2="1174.5589" y1="305.2588" y2="305.2588"/><text fill="#C9D1D9" font-family="sans-serif" font-size="21.6667" font-weight="bold" lengthAdjust="spacing" textLength="12.05" x="933.5502" y="297.1647">2</text><text fill="#C9D1D9" font-family="sans-serif" font-size="21.6667" lengthAdjust="spacing" textLength="161.4209" x="952.2668" y="297.1647">delegate request</text></g><path d="M1951.6667,336.9255 L1951.6667,358.5921 A10,10 0 0 0 1961.6667,368.5921 L2058.3333,368.5921 A10,10 0 0 0 2068.3333,358.5921 L2068.3333,343.5921 L2051.6667,326.9255 L1961.6667,326.9255 A10,10 0 0 0 1951.6667,336.9255" fill="#1C2330" style="stroke:#E7E7E7;stroke-width:0.8333;"/><path d="M2051.6667,326.9255 L2051.6667,338.5921 A5,5 0 0 0 2056.6667,343.5921 L2068.3333,343.5921 L2051.6667,326.9255" fill="#1C2330" style="stroke:#E7E7E7;stroke-width:0.8333;"/><text fill="#C9D1D9" font-family="sans-serif" font-size="21.6667" lengthAdjust="spacing" textLength="83.1014" x="1961.6667" y="357.0418">log entry</text><g class="message" data-entity-1="part3" data-entity-2="part4" id="msg3"><polygon fill="#58A6FF" points="1405.8626,408.3464,1422.5293,415.013,1405.8626,421.6797,1412.5293,415.013" style="stroke:#58A6FF;stroke-width:1.6667;"/><line style="stroke:#58A6FF;stroke-width:1.6667;" x1="1184.5589" x2="1415.8626" y1="415.013" y2="415.013"/><text fill="#C9D1D9" font-family="sans-serif" font-size="21.6667" font-weight="bold" lengthAdjust="spacing" textLength="12.05" x="1215.142" y="406.9189">3</text><text fill="#C9D1D9" font-family="sans-serif" font-size="21.6667" lengthAdjust="spacing" textLength="161.4209" x="1233.8586" y="406.9189">delegate request</text></g><g class="message" data-entity-1="part4" data-entity-2="part5" id="msg4"><polygon fill="#58A6FF" points="1608.2756,458.2235,1624.9422,464.8901,1608.2756,471.5568,1614.9422,464.8901" style="stroke:#58A6FF;stroke-width:1.6667;"/><line style="stroke:#58A6FF;stroke-width:1.6667;" x1="1425.8626" x2="1618.2756" y1="464.8901" y2="464.8901"/><text fill="#C9D1D9" font-family="sans-serif" font-size="21.6667" font-weight="bold" lengthAdjust="spacing" textLength="12.05" x="1456.2919" y="456.7961">4</text><text fill="#C9D1D9" font-family="sans-serif" font-size="21.6667" lengthAdjust="spacing" textLength="122.8377" x="1475.0085" y="456.7961">fetch recipes</text></g><g class="message" data-entity-1="part5" data-entity-2="part4" id="msg5"><polygon fill="#58A6FF" points="1444.196,508.1006,1427.5293,514.7673,1444.196,521.4339,1437.5293,514.7673" style="stroke:#58A6FF;stroke-width:1.6667;"/><line style="stroke:#58A6FF;stroke-width:1.6667;" x1="1434.196" x2="1626.6089" y1="514.7673" y2="514.7673"/><text fill="#C9D1D9" font-family="sans-serif" font-size="21.6667" font-weight="bold" lengthAdjust="spacing" textLength="12.05" x="1451.4783" y="506.6732">5</text><text fill="#C9D1D9" font-family="sans-serif" font-size="21.6667" lengthAdjust="spacing" textLength="132.465" x="1470.1949" y="506.6732">return recipes</text></g><g class="message" data-entity-1="part4" data-entity-2="part3" id="msg6"><polygon fill="#58A6FF" points="1202.8923,557.9777,1186.2256,564.6444,1202.8923,571.311,1196.2256,564.6444" style="stroke:#58A6FF;stroke-width:1.6667;"/><line style="stroke:#58A6FF;stroke-width:1.6667;" x1="1192.8923" x2="1424.196" y1="564.6444" y2="564.6444"/><text fill="#C9D1D9" font-family="sans-serif" font-size="21.6667" font-weight="bold" lengthAdjust="spacing" textLength="12.05" x="1207.9268" y="556.5503">6</text><text fill="#C9D1D9" font-family="sans-serif" font-size="21.6667" lengthAdjust="spacing" textLength="175.8512" x="1226.6435" y="556.5503">return recipe page</text></g><path d="M1951.6667,596.311 L1951.6667,617.9777 A10,10 0 0 0 1961.6667,627.9777 L2100,627.9777 A10,10 0 0 0 2110,617.9777 L2110,602.9777 L2093.3333,586.311 L1961.6667,586.311 A10,10 0 0 0 1951.6667,596.311" fill="#1C2330" style="stroke:#E7E7E7;stroke-width:0.8333;"/><path d="M2093.3333,586.311 L2093.3333,597.9777 A5,5 0 0 0 2098.3333,602.9777 L2110,602.9777 L2093.3333,586.311" fill="#1C2330" style="stroke:#E7E7E7;stroke-width:0.8333;"/><text fill="#C9D1D9" font-family="sans-serif" font-size="21.6667" lengthAdjust="spacing" textLength="124.0649" x="1961.6667" y="616.4274">log response</text><g class="message" data-entity-1="part3" data-entity-2="part2" id="msg7"><polygon fill="#58A6FF" points="881.0124,667.7319,864.3457,674.3986,881.0124,681.0653,874.3457,674.3986" style="stroke:#58A6FF;stroke-width:1.6667;"/><line style="stroke:#58A6FF;stroke-width:1.6667;" x1="871.0124" x2="1182.8923" y1="674.3986" y2="674.3986"/><text fill="#C9D1D9" font-family="sans-serif" font-size="21.6667" font-weight="bold" lengthAdjust="spacing" textLength="12.05" x="882.679" y="666.3045">7</text><text fill="#C9D1D9" font-family="sans-serif" font-size="21.6667" lengthAdjust="spacing" textLength="263.1632" x="901.3957" y="666.3045">Http ok (200) + recipe page</text></g><g class="message" data-entity-1="part2" data-entity-2="part1" id="msg8"><polygon fill="#58A6FF" points="72.5,717.609,55.8333,724.2757,72.5,730.9424,65.8333,724.2757" style="stroke:#58A6FF;stroke-width:1.6667;"/><line style="stroke:#58A6FF;stroke-width:1.6667;" x1="62.5" x2="861.0124" y1="724.2757" y2="724.2757"/><text fill="#C9D1D9" font-family="sans-serif" font-size="21.6667" font-weight="bold" lengthAdjust="spacing" textLength="12.05" x="317.4829" y="716.1816">8</text><text fill="#C9D1D9" font-family="sans-serif" font-size="21.6667" lengthAdjust="spacing" textLength="263.1632" x="336.1995" y="716.1816">Http ok (200) + recipe page</text></g><?plantuml-src dLHXRzem4FtkNt7If6hJL94GbQwJkWa8T1_OD9Mstqro18jWUxPJnX3_VNOQg4aJcAP8KU9xzzxTits6cHnXYbGb2r2OC8aQBkt2hm9vWeJGmWXUh6Qe2D5BnYLLT0KpcYmp9GgU3aKk5BmBHc4ONdi8lQ2fM3EUmPpc6hr8cPO8nL51sFK2gMGGzW9VHrTrm9O0V4UjQORzd6KS4kJ6rWJGLqgigogkFlLxux5TdB0vJXZ7WL0fgYeQ1L4lYlrelOkm5mwwNKUQ6A6EaW_KBw4t_STb_m03yRjPr0LQidP-omzkHyQ2cmepl8d3-CO3xFVcpZB99gqsQ4kth_0VmZHuCkn6KL17-RAZQ_VK45u7uoltUF7ImgdPs9D7rwZ5oZyUCSvfaPkt3dYOWQkFgatJ3ZMWMcpte4EhfaH-ccyFEayNKqDdLEDflWFgFE5FgWopbvDoSvhJ1xRHKcS_F6fxVMQLHT2NCcS9DKnmahpq2VVbEBX7RQhESrHFKIqyHVNC4hJhQTLE5TXtTuPk8hBCJec-bfWOGbnLSFd5hmS-mzte0JfKiivprAc6L4UNC-jhOHCuNU7jTl-rkv1sIjnktNjteTaV--tUE-AJMetcWgnSYZbcrA0TYFR-Q4EuS3yiMnWGytzfn9Ba8WCxezI6jEWSAZXOs2HTXnoozlxQf3cQr-bDQk566OMcKBoMqY3IOCvHAZYJ_ziUXLeARez8kqF7v-2RCHB44jvtW-03V3mgehQvvK4wcV4N?></g></svg>