<?plantuml 1.2026.2?>
<svg xmlns="http://www.w3.org/2000/svg" contentStyleType="text/css" data-diagram-type="SEQUENCE" height="1286.8333px"
     preserveAspectRatio="none" style="width:1542px;height:1286px;background:#0E1117;" version="1.1"
     viewBox="0 0 1542 1286" width="1542.3333px" zoomAndPan="magnify"><title>Update recipe image - Sequence</title><defs/><g><rect fill="#0E1117" height="1286.8333" style="stroke:none;stroke-width:1.1667;" width="1542.3333" x="0" y="0"/><text fill="#C9D1D9" font-family="sans-serif" font-size="16.3333" font-weight="bold" lengthAdjust="spacing" textLength="251.436" x="647.0266" y="33.9211">Update recipe image - Sequence</text><rect fill="none" height="931.7685" rx="7" ry="7" style="stroke:#30363D;stroke-width:1.75;" width="1523.3226" x="11.6667" y="238.1812"/><rect fill="none" height="764.7238" rx="7" ry="7" style="stroke:#30363D;stroke-width:1.75;" width="1499.9893" x="23.3333" y="344.0898"/><rect fill="none" height="409.1092" rx="7" ry="7" style="stroke:#30363D;stroke-width:1.75;" width="1476.6559" x="35" y="449.9984"/><g class="participant-lifeline" data-entity-uid="part1" data-qualified-name="User" id="part1-lifeline"><g><title>User</title><rect fill="#000000" fill-opacity="0.00000" height="1048.2631" width="9.3333" x="74.0833" y="141.5199"/><line style="stroke:#30363D;stroke-width:0.5833;stroke-dasharray:5.8333,5.8333;" x1="78.1667" x2="78.1667" y1="141.5199" y2="1189.783"/></g></g><g class="participant-lifeline" data-entity-uid="part2" data-qualified-name="Application" id="part2-lifeline"><g><title>Application</title><rect fill="#000000" fill-opacity="0.00000" height="1048.2631" width="9.3333" x="377.7875" y="141.5199"/><line style="stroke:#30363D;stroke-width:0.5833;stroke-dasharray:5.8333,5.8333;" x1="382.1688" x2="382.1688" y1="141.5199" y2="1189.783"/></g></g><g class="participant-lifeline" data-entity-uid="part3" data-qualified-name="RecipeRestControllerV3" id="part3-lifeline"><g><title>RecipeRestControllerV3</title><rect fill="#000000" fill-opacity="0.00000" height="1048.2631" width="9.3333" x="579.0797" y="141.5199"/><line style="stroke:#30363D;stroke-width:0.5833;stroke-dasharray:5.8333,5.8333;" x1="583.6421" x2="583.6421" y1="141.5199" y2="1189.783"/></g></g><g class="participant-lifeline" data-entity-uid="part4" data-qualified-name="RecipeServiceV3" id="part4-lifeline"><g><title>RecipeServiceV3</title><rect fill="#000000" fill-opacity="0.00000" height="1048.2631" width="9.3333" x="747.9923" y="141.5199"/><line style="stroke:#30363D;stroke-width:0.5833;stroke-dasharray:5.8333,5.8333;" x1="751.8506" x2="751.8506" y1="141.5199" y2="1189.783"/></g></g><g class="participant-lifeline" data-entity-uid="part5" data-qualified-name="RecipeDatabase" id="part5-lifeline"><g><title>RecipeDatabase</title><rect fill="#000000" fill-opacity="0.00000" height="1048.2631" width="9.3333" x="926.527" y="141.5199"/><line style="stroke:#30363D;stroke-width:0.5833;stroke-dasharray:5.8333,5.8333;" x1="930.313" x2="930.313" y1="141.5199" y2="1189.783"/></g></g><g class="participant-lifeline" data-entity-uid="part6" data-qualified-name="RecipeRestControllerV3LoggingAspect" id="part6-lifeline"><g><title>RecipeRestControllerV3LoggingAspect</title><rect fill="#000000" fill-opacity="0.00000" height="1048.2631" width="9.3333" x="1147.211" y="141.5199"/><line style="stroke:#30363D;stroke-width:0.5833;stroke-dasharray:5.8333,5.8333;" x1="1151.4077" x2="1151.4077" y1="141.5199" y2="1189.783"/></g></g><g class="participant-lifeline" data-entity-uid="part7" data-qualified-name="GlobalExceptionsHandler" id="part7-lifeline"><g><title>GlobalExceptionsHandler</title><rect fill="#000000" fill-opacity="0.00000" height="1048.2631" width="9.3333" x="1399.6685" y="141.5199"/><line style="stroke:#30363D;stroke-width:0.5833;stroke-dasharray:5.8333,5.8333;" x1="1403.181" x2="1403.181" y1="141.5199" y2="1189.783"/></g></g><g class="participant participant-head" data-entity-uid="part1" data-qualified-name="User" id="part1-head"><text fill="#C9D1D9" font-family="sans-serif" font-size="16.3333" lengthAdjust="spacing" textLength="34.485" x="58.0075" y="137.931">User</text><ellipse cx="78.75" cy="69.5933" fill="#0D1117" rx="18.6667" ry="18.6667" style="stroke:#58A6FF;stroke-width:0.5833;"/><path d="M78.75,92.9266 C83.4167,92.9266 86.9167,92.9266 91.5833,88.2599 C100.9167,88.2599 110.25,97.5933 110.25,106.9266 L110.25,111.5933 C110.25,116.2599 105.5833,120.9266 100.9167,120.9266 L56.5833,120.9266 C51.9167,120.9266 47.25,116.2599 47.25,111.5933 L47.25,106.9266 C47.25,97.5933 56.5833,88.2599 65.9167,88.2599 C70.5833,92.9266 74.0833,92.9266 78.75,92.9266" fill="#0D1117" style="stroke:#58A6FF;stroke-width:0.5833;"/></g><g class="participant participant-tail" data-entity-uid="part1" data-qualified-name="User" id="part1-tail"><text fill="#C9D1D9" font-family="sans-serif" font-size="16.3333" lengthAdjust="spacing" textLength="34.485" x="58.0075" y="1205.0374">User</text><ellipse cx="78.75" cy="1227.8762" fill="#0D1117" rx="18.6667" ry="18.6667" style="stroke:#58A6FF;stroke-width:0.5833;"/><path d="M78.75,1251.2096 C83.4167,1251.2096 86.9167,1251.2096 91.5833,1246.5429 C100.9167,1246.5429 110.25,1255.8762 110.25,1265.2096 L110.25,1269.8762 C110.25,1274.5429 105.5833,1279.2096 100.9167,1279.2096 L56.5833,1279.2096 C51.9167,1279.2096 47.25,1274.5429 47.25,1269.8762 L47.25,1265.2096 C47.25,1255.8762 56.5833,1246.5429 65.9167,1246.5429 C70.5833,1251.2096 74.0833,1251.2096 78.75,1251.2096" fill="#0D1117" style="stroke:#58A6FF;stroke-width:0.5833;"/></g><g class="participant participant-head" data-entity-uid="part2" data-qualified-name="Application" id="part2-head"><text fill="#C9D1D9" font-family="sans-serif" font-size="16.3333" lengthAdjust="spacing" textLength="79.9041" x="339.0021" y="137.931">Application</text><path d="M358.5375,88.8433 L358.5375,116.8433 M358.5375,102.8433 L378.3708,102.8433" fill="none" style="stroke:#58A6FF;stroke-width:0.5833;"/><ellipse cx="392.3708" cy="102.8433" fill="#0D1117" rx="14" ry="14" style="stroke:#58A6FF;stroke-width:0.5833;"/></g><g class="participant participant-tail" data-entity-uid="part2" data-qualified-name="Application" id="part2-tail"><text fill="#C9D1D9" font-family="sans-serif" font-size="16.3333" lengthAdjust="spacing" textLength="79.9041" x="339.0021" y="1205.0374">Application</text><path d="M358.5375,1213.2929 L358.5375,1241.2929 M358.5375,1227.2929 L378.3708,1227.2929" fill="none" style="stroke:#58A6FF;stroke-width:0.5833;"/><ellipse cx="392.3708" cy="1227.2929" fill="#0D1117" rx="14" ry="14" style="stroke:#58A6FF;stroke-width:0.5833;"/></g><g class="participant participant-head" data-entity-uid="part3" data-qualified-name="RecipeRestControllerV3" id="part3-head"><text fill="#C9D1D9" font-family="sans-serif" font-size="16.3333" lengthAdjust="spacing" textLength="175.2085" x="492.6421" y="137.931">RecipeRestControllerV3</text><ellipse cx="583.7463" cy="102.8433" fill="#0D1117" rx="14" ry="14" style="stroke:#58A6FF;stroke-width:0.5833;"/><polygon fill="#58A6FF" points="579.0797,88.8433,586.0797,83.0099,583.7463,88.8433,586.0797,94.6766,579.0797,88.8433" style="stroke:#58A6FF;stroke-width:1.1667;"/></g><g class="participant participant-tail" data-entity-uid="part3" data-qualified-name="RecipeRestControllerV3" id="part3-tail"><text fill="#C9D1D9" font-family="sans-serif" font-size="16.3333" lengthAdjust="spacing" textLength="175.2085" x="492.6421" y="1205.0374">RecipeRestControllerV3</text><ellipse cx="583.7463" cy="1227.2929" fill="#0D1117" rx="14" ry="14" style="stroke:#58A6FF;stroke-width:0.5833;"/><polygon fill="#58A6FF" points="579.0797,1213.2929,586.0797,1207.4596,583.7463,1213.2929,586.0797,1219.1262,579.0797,1213.2929" style="stroke:#58A6FF;stroke-width:1.1667;"/></g><g class="participant participant-head" data-entity-uid="part4" data-qualified-name="RecipeServiceV3" id="part4-head"><text fill="#C9D1D9" font-family="sans-serif" font-size="16.3333" lengthAdjust="spacing" textLength="125.2834" x="686.5173" y="137.931">RecipeServiceV3</text><ellipse cx="752.6589" cy="102.8433" fill="#0D1117" rx="14" ry="14" style="stroke:#58A6FF;stroke-width:0.5833;"/><polygon fill="#58A6FF" points="747.9923,88.8433,754.9923,83.0099,752.6589,88.8433,754.9923,94.6766,747.9923,88.8433" style="stroke:#58A6FF;stroke-width:1.1667;"/></g><g class="participant participant-tail" data-entity-uid="part4" data-qualified-name="RecipeServiceV3" id="part4-tail"><text fill="#C9D1D9" font-family="sans-serif" font-size="16.3333" lengthAdjust="spacing" textLength="125.2834" x="686.5173" y="1205.0374">RecipeServiceV3</text><ellipse cx="752.6589" cy="1227.2929" fill="#0D1117" rx="14" ry="14" style="stroke:#58A6FF;stroke-width:0.5833;"/><polygon fill="#58A6FF" points="747.9923,1213.2929,754.9923,1207.4596,752.6589,1213.2929,754.9923,1219.1262,747.9923,1213.2929" style="stroke:#58A6FF;stroke-width:1.1667;"/></g><g class="participant participant-head" data-entity-uid="part5" data-qualified-name="RecipeDatabase" id="part5-head"><text fill="#C9D1D9" font-family="sans-serif" font-size="16.3333" lengthAdjust="spacing" textLength="120.7614" x="867.313" y="137.931">RecipeDatabase</text><path d="M910.1937,79.5099 C910.1937,67.8433 931.1937,67.8433 931.1937,67.8433 C931.1937,67.8433 952.1937,67.8433 952.1937,79.5099 L952.1937,109.8433 C952.1937,121.5099 931.1937,121.5099 931.1937,121.5099 C931.1937,121.5099 910.1937,121.5099 910.1937,109.8433 L910.1937,79.5099" fill="#0D1117" style="stroke:#58A6FF;stroke-width:0.5833;"/><path d="M910.1937,79.5099 C910.1937,91.1766 931.1937,91.1766 931.1937,91.1766 C931.1937,91.1766 952.1937,91.1766 952.1937,79.5099" fill="none" style="stroke:#58A6FF;stroke-width:0.5833;"/></g><g class="participant participant-tail" data-entity-uid="part5" data-qualified-name="RecipeDatabase" id="part5-tail"><text fill="#C9D1D9" font-family="sans-serif" font-size="16.3333" lengthAdjust="spacing" textLength="120.7614" x="867.313" y="1205.0374">RecipeDatabase</text><path d="M910.1937,1220.2929 C910.1937,1208.6262 931.1937,1208.6262 931.1937,1208.6262 C931.1937,1208.6262 952.1937,1208.6262 952.1937,1220.2929 L952.1937,1250.6262 C952.1937,1262.2929 931.1937,1262.2929 931.1937,1262.2929 C931.1937,1262.2929 910.1937,1262.2929 910.1937,1250.6262 L910.1937,1220.2929" fill="#0D1117" style="stroke:#58A6FF;stroke-width:0.5833;"/><path d="M910.1937,1220.2929 C910.1937,1231.9596 931.1937,1231.9596 931.1937,1231.9596 C931.1937,1231.9596 952.1937,1231.9596 952.1937,1220.2929" fill="none" style="stroke:#58A6FF;stroke-width:0.5833;"/></g><g class="participant participant-head" data-entity-uid="part6" data-qualified-name="RecipeRestControllerV3LoggingAspect" id="part6-head"><text fill="#C9D1D9" font-family="sans-serif" font-size="16.3333" lengthAdjust="spacing" textLength="283.2733" x="1006.741" y="137.931">RecipeRestControllerV3LoggingAspect</text><ellipse cx="1151.8777" cy="102.8433" fill="#0D1117" rx="14" ry="14" style="stroke:#58A6FF;stroke-width:0.5833;"/><polygon fill="#58A6FF" points="1147.211,88.8433,1154.211,83.0099,1151.8777,88.8433,1154.211,94.6766,1147.211,88.8433" style="stroke:#58A6FF;stroke-width:1.1667;"/></g><g class="participant participant-tail" data-entity-uid="part6" data-qualified-name="RecipeRestControllerV3LoggingAspect" id="part6-tail"><text fill="#C9D1D9" font-family="sans-serif" font-size="16.3333" lengthAdjust="spacing" textLength="283.2733" x="1006.741" y="1205.0374">RecipeRestControllerV3LoggingAspect</text><ellipse cx="1151.8777" cy="1227.2929" fill="#0D1117" rx="14" ry="14" style="stroke:#58A6FF;stroke-width:0.5833;"/><polygon fill="#58A6FF" points="1147.211,1213.2929,1154.211,1207.4596,1151.8777,1213.2929,1154.211,1219.1262,1147.211,1213.2929" style="stroke:#58A6FF;stroke-width:1.1667;"/></g><g class="participant participant-head" data-entity-uid="part7" data-qualified-name="GlobalExceptionsHandler" id="part7-head"><text fill="#C9D1D9" font-family="sans-serif" font-size="16.3333" lengthAdjust="spacing" textLength="184.3083" x="1308.681" y="137.931">GlobalExceptionsHandler</text><ellipse cx="1404.3351" cy="102.8433" fill="#0D1117" rx="14" ry="14" style="stroke:#58A6FF;stroke-width:0.5833;"/><polygon fill="#58A6FF" points="1399.6685,88.8433,1406.6685,83.0099,1404.3351,88.8433,1406.6685,94.6766,1399.6685,88.8433" style="stroke:#58A6FF;stroke-width:1.1667;"/></g><g class="participant participant-tail" data-entity-uid="part7" data-qualified-name="GlobalExceptionsHandler" id="part7-tail"><text fill="#C9D1D9" font-family="sans-serif" font-size="16.3333" lengthAdjust="spacing" textLength="184.3083" x="1308.681" y="1205.0374">GlobalExceptionsHandler</text><ellipse cx="1404.3351" cy="1227.2929" fill="#0D1117" rx="14" ry="14" style="stroke:#58A6FF;stroke-width:0.5833;"/><polygon fill="#58A6FF" points="1399.6685,1213.2929,1406.6685,1207.4596,1404.3351,1213.2929,1406.6685,1219.1262,1399.6685,1213.2929" style="stroke:#58A6FF;stroke-width:1.1667;"/></g><g class="message" data-entity-1="part1" data-entity-2="part2" id="msg1"><polygon fill="#58A6FF" points="368.4542,174.1005,380.1208,178.7672,368.4542,183.4338,373.1208,178.7672" style="stroke:#58A6FF;stroke-width:1.1667;"/><line style="stroke:#58A6FF;stroke-width:1.1667;" x1="78.75" x2="375.4542" y1="178.7672" y2="178.7672"/><text fill="#C9D1D9" font-family="sans-serif" font-size="15.1667" font-weight="bold" lengthAdjust="spacing" textLength="8.435" x="92.75" y="173.1013">1</text><text fill="#C9D1D9" font-family="sans-serif" font-size="15.1667" lengthAdjust="spacing" textLength="262.6025" x="105.8516" y="173.1013">PUT /api/v3/recipes/{id}/image + image</text></g><path d="M387.3333,200.9338 L387.3333,216.1005 A7,7 0 0 0 394.3333,223.1005 L528.5,223.1005 A7,7 0 0 0 535.5,216.1005 L535.5,205.6005 L523.8333,193.9338 L394.3333,193.9338 A7,7 0 0 0 387.3333,200.9338" fill="#1C2330" style="stroke:#E7E7E7;stroke-width:0.5833;"/><path d="M523.8333,193.9338 L523.8333,202.1005 A3.5,3.5 0 0 0 527.3333,205.6005 L535.5,205.6005 L523.8333,193.9338" fill="#1C2330" style="stroke:#E7E7E7;stroke-width:0.5833;"/><text fill="#C9D1D9" font-family="sans-serif" font-size="15.1667" lengthAdjust="spacing" textLength="123.9401" x="394.3333" y="215.0153">authenticates user</text><path d="M18.6667,238.1812 L81.866,238.1812 L81.866,247.4285 L70.1994,259.0951 L11.6667,259.0951 L11.6667,245.1812 A7,7 0 0 1 18.6667,238.1812" fill="#161B22" style="stroke:#30363D;stroke-width:1.75;"/><rect fill="none" height="931.7685" rx="7" ry="7" style="stroke:#30363D;stroke-width:1.75;" width="1523.3226" x="11.6667" y="238.1812"/><text fill="#C9D1D9" font-family="sans-serif" font-size="15.1667" font-weight="bold" lengthAdjust="spacing" textLength="17.6994" x="29.1667" y="254.5959">alt</text><text fill="#C9D1D9" font-family="sans-serif" font-size="12.8333" font-weight="bold" lengthAdjust="spacing" textLength="124.0785" x="99.366" y="253.4167">[User authenticated]</text><g class="message" data-entity-1="part2" data-entity-2="part3" id="msg2"><polygon fill="#58A6FF" points="569.7463,280.0091,581.413,284.6758,569.7463,289.3424,574.413,284.6758" style="stroke:#58A6FF;stroke-width:1.1667;"/><line style="stroke:#58A6FF;stroke-width:1.1667;" x1="382.4542" x2="576.7463" y1="284.6758" y2="284.6758"/><text fill="#C9D1D9" font-family="sans-serif" font-size="15.1667" font-weight="bold" lengthAdjust="spacing" textLength="8.435" x="420.0521" y="279.0099">2</text><text fill="#C9D1D9" font-family="sans-serif" font-size="15.1667" lengthAdjust="spacing" textLength="112.9946" x="433.1538" y="279.0099">delegate request</text></g><path d="M589.1667,306.8424 L589.1667,322.0091 A7,7 0 0 0 596.1667,329.0091 L757.1667,329.0091 A7,7 0 0 0 764.1667,322.0091 L764.1667,311.5091 L752.5,299.8424 L596.1667,299.8424 A7,7 0 0 0 589.1667,306.8424" fill="#1C2330" style="stroke:#E7E7E7;stroke-width:0.5833;"/><path d="M752.5,299.8424 L752.5,308.0091 A3.5,3.5 0 0 0 756,311.5091 L764.1667,311.5091 L752.5,299.8424" fill="#1C2330" style="stroke:#E7E7E7;stroke-width:0.5833;"/><text fill="#C9D1D9" font-family="sans-serif" font-size="15.1667" lengthAdjust="spacing" textLength="150.9261" x="596.1667" y="320.9239">Validates request data</text><path d="M30.3333,344.0898 L93.5327,344.0898 L93.5327,353.3371 L81.866,365.0037 L23.3333,365.0037 L23.3333,351.0898 A7,7 0 0 1 30.3333,344.0898" fill="#161B22" style="stroke:#30363D;stroke-width:1.75;"/><rect fill="none" height="764.7238" rx="7" ry="7" style="stroke:#30363D;stroke-width:1.75;" width="1499.9893" x="23.3333" y="344.0898"/><text fill="#C9D1D9" font-family="sans-serif" font-size="15.1667" font-weight="bold" lengthAdjust="spacing" textLength="17.6994" x="40.8333" y="360.5046">alt</text><text fill="#C9D1D9" font-family="sans-serif" font-size="12.8333" font-weight="bold" lengthAdjust="spacing" textLength="92.6845" x="111.0327" y="359.3254">[Validation OK]</text><path d="M1157.3333,377.8371 L1157.3333,393.0037 A7,7 0 0 0 1164.3333,400.0037 L1232,400.0037 A7,7 0 0 0 1239,393.0037 L1239,382.5037 L1227.3333,370.8371 L1164.3333,370.8371 A7,7 0 0 0 1157.3333,377.8371" fill="#1C2330" style="stroke:#E7E7E7;stroke-width:0.5833;"/><path d="M1227.3333,370.8371 L1227.3333,379.0037 A3.5,3.5 0 0 0 1230.8333,382.5037 L1239,382.5037 L1227.3333,370.8371" fill="#1C2330" style="stroke:#E7E7E7;stroke-width:0.5833;"/><text fill="#C9D1D9" font-family="sans-serif" font-size="15.1667" lengthAdjust="spacing" textLength="58.171" x="1164.3333" y="391.9185">log entry</text><g class="message" data-entity-1="part3" data-entity-2="part4" id="msg3"><polygon fill="#58A6FF" points="738.6589,427.8317,750.3256,432.4984,738.6589,437.165,743.3256,432.4984" style="stroke:#58A6FF;stroke-width:1.1667;"/><line style="stroke:#58A6FF;stroke-width:1.1667;" x1="583.7463" x2="745.6589" y1="432.4984" y2="432.4984"/><text fill="#C9D1D9" font-family="sans-serif" font-size="15.1667" font-weight="bold" lengthAdjust="spacing" textLength="8.435" x="605.1545" y="426.8325">3</text><text fill="#C9D1D9" font-family="sans-serif" font-size="15.1667" lengthAdjust="spacing" textLength="112.9946" x="618.2561" y="426.8325">delegate request</text></g><path d="M42,449.9984 L105.1994,449.9984 L105.1994,459.2457 L93.5327,470.9124 L35,470.9124 L35,456.9984 A7,7 0 0 1 42,449.9984" fill="#161B22" style="stroke:#30363D;stroke-width:1.75;"/><rect fill="none" height="409.1092" rx="7" ry="7" style="stroke:#30363D;stroke-width:1.75;" width="1476.6559" x="35" y="449.9984"/><text fill="#C9D1D9" font-family="sans-serif" font-size="15.1667" font-weight="bold" lengthAdjust="spacing" textLength="17.6994" x="52.5" y="466.4132">alt</text><text fill="#C9D1D9" font-family="sans-serif" font-size="12.8333" font-weight="bold" lengthAdjust="spacing" textLength="108.4003" x="122.6994" y="465.234">[Customer exists]</text><g class="message" data-entity-1="part4" data-entity-2="part5" id="msg4"><polygon fill="#58A6FF" points="917.1937,491.8263,928.8604,496.493,917.1937,501.1597,921.8604,496.493" style="stroke:#58A6FF;stroke-width:1.1667;"/><line style="stroke:#58A6FF;stroke-width:1.1667;" x1="752.6589" x2="924.1937" y1="496.493" y2="496.493"/><text fill="#C9D1D9" font-family="sans-serif" font-size="15.1667" font-weight="bold" lengthAdjust="spacing" textLength="8.435" x="766.6589" y="490.8271">4</text><text fill="#C9D1D9" font-family="sans-serif" font-size="15.1667" lengthAdjust="spacing" textLength="137.4331" x="779.7606" y="490.8271">update recipe image</text></g><path d="M1157.3333,518.6597 L1157.3333,533.8263 A7,7 0 0 0 1164.3333,540.8263 L1261.1667,540.8263 A7,7 0 0 0 1268.1667,533.8263 L1268.1667,523.3263 L1256.5,511.6597 L1164.3333,511.6597 A7,7 0 0 0 1157.3333,518.6597" fill="#1C2330" style="stroke:#E7E7E7;stroke-width:0.5833;"/><path d="M1256.5,511.6597 L1256.5,519.8263 A3.5,3.5 0 0 0 1260,523.3263 L1268.1667,523.3263 L1256.5,511.6597" fill="#1C2330" style="stroke:#E7E7E7;stroke-width:0.5833;"/><text fill="#C9D1D9" font-family="sans-serif" font-size="15.1667" lengthAdjust="spacing" textLength="86.8455" x="1164.3333" y="532.7411">log response</text><g class="message" data-entity-1="part3" data-entity-2="part2" id="msg5"><polygon fill="#58A6FF" points="395.2875,568.6543,383.6208,573.321,395.2875,577.9876,390.6208,573.321" style="stroke:#58A6FF;stroke-width:1.1667;"/><line style="stroke:#58A6FF;stroke-width:1.1667;" x1="388.2875" x2="582.5797" y1="573.321" y2="573.321"/><text fill="#C9D1D9" font-family="sans-serif" font-size="15.1667" font-weight="bold" lengthAdjust="spacing" textLength="8.435" x="405.3076" y="567.6551">5</text><text fill="#C9D1D9" font-family="sans-serif" font-size="15.1667" lengthAdjust="spacing" textLength="142.4837" x="418.4092" y="567.6551">Http no content (204)</text></g><g class="message" data-entity-1="part2" data-entity-2="part1" id="msg6"><polygon fill="#58A6FF" points="91.5833,603.5683,79.9167,608.2349,91.5833,612.9016,86.9167,608.2349" style="stroke:#58A6FF;stroke-width:1.1667;"/><line style="stroke:#58A6FF;stroke-width:1.1667;" x1="84.5833" x2="381.2875" y1="608.2349" y2="608.2349"/><text fill="#C9D1D9" font-family="sans-serif" font-size="15.1667" font-weight="bold" lengthAdjust="spacing" textLength="8.435" x="152.8094" y="602.5691">6</text><text fill="#C9D1D9" font-family="sans-serif" font-size="15.1667" lengthAdjust="spacing" textLength="142.4837" x="165.9111" y="602.5691">Http no content (204)</text></g><line style="stroke:#30363D;stroke-width:1.1667;stroke-dasharray:2.3333,2.3333;" x1="35" x2="1511.6559" y1="618.7349" y2="618.7349"/><text fill="#C9D1D9" font-family="sans-serif" font-size="12.8333" font-weight="bold" lengthAdjust="spacing" textLength="149.9457" x="40.8333" y="631.6372">[Customer doesn't exist]</text><g class="message" data-entity-1="part4" data-entity-2="part6" id="msg7"><polygon fill="#58A6FF" points="1137.8777,656.5377,1149.5444,661.2043,1137.8777,665.871,1142.5444,661.2043" style="stroke:#58A6FF;stroke-width:1.1667;"/><line style="stroke:#58A6FF;stroke-width:1.1667;" x1="752.6589" x2="1144.8777" y1="661.2043" y2="661.2043"/><text fill="#C9D1D9" font-family="sans-serif" font-size="15.1667" font-weight="bold" lengthAdjust="spacing" textLength="8.435" x="892.6045" y="655.5385">7</text><text fill="#C9D1D9" font-family="sans-serif" font-size="15.1667" lengthAdjust="spacing" textLength="106.2259" x="905.7062" y="655.5385">throw exception</text></g><path d="M1157.3333,683.371 L1157.3333,698.5377 A7,7 0 0 0 1164.3333,705.5377 L1230.8333,705.5377 A7,7 0 0 0 1237.8333,698.5377 L1237.8333,688.0377 L1226.1667,676.371 L1164.3333,676.371 A7,7 0 0 0 1157.3333,683.371" fill="#1C2330" style="stroke:#E7E7E7;stroke-width:0.5833;"/><path d="M1226.1667,676.371 L1226.1667,684.5377 A3.5,3.5 0 0 0 1229.6667,688.0377 L1237.8333,688.0377 L1226.1667,676.371" fill="#1C2330" style="stroke:#E7E7E7;stroke-width:0.5833;"/><text fill="#C9D1D9" font-family="sans-serif" font-size="15.1667" lengthAdjust="spacing" textLength="56.4751" x="1164.3333" y="697.4525">log error</text><g class="message" data-entity-1="part6" data-entity-2="part7" id="msg8"><polygon fill="#58A6FF" points="1390.3351,733.3656,1402.0018,738.0323,1390.3351,742.699,1395.0018,738.0323" style="stroke:#58A6FF;stroke-width:1.1667;"/><line style="stroke:#58A6FF;stroke-width:1.1667;" x1="1151.8777" x2="1397.3351" y1="738.0323" y2="738.0323"/><text fill="#C9D1D9" font-family="sans-serif" font-size="15.1667" font-weight="bold" lengthAdjust="spacing" textLength="8.435" x="1209.1745" y="732.3665">8</text><text fill="#C9D1D9" font-family="sans-serif" font-size="15.1667" lengthAdjust="spacing" textLength="124.7621" x="1222.2762" y="732.3665">re-throw exception</text></g><path d="M1409.3333,760.199 L1409.3333,775.3656 A7,7 0 0 0 1416.3333,782.3656 L1482.8333,782.3656 A7,7 0 0 0 1489.8333,775.3656 L1489.8333,764.8656 L1478.1667,753.199 L1416.3333,753.199 A7,7 0 0 0 1409.3333,760.199" fill="#1C2330" style="stroke:#E7E7E7;stroke-width:0.5833;"/><path d="M1478.1667,753.199 L1478.1667,761.3656 A3.5,3.5 0 0 0 1481.6667,764.8656 L1489.8333,764.8656 L1478.1667,753.199" fill="#1C2330" style="stroke:#E7E7E7;stroke-width:0.5833;"/><text fill="#C9D1D9" font-family="sans-serif" font-size="15.1667" lengthAdjust="spacing" textLength="56.4751" x="1416.3333" y="774.2804">log error</text><g class="message" data-entity-1="part3" data-entity-2="part2" id="msg9"><polygon fill="#58A6FF" points="395.2875,810.1936,383.6208,814.8603,395.2875,819.5269,390.6208,814.8603" style="stroke:#58A6FF;stroke-width:1.1667;"/><line style="stroke:#58A6FF;stroke-width:1.1667;" x1="388.2875" x2="582.5797" y1="814.8603" y2="814.8603"/><text fill="#C9D1D9" font-family="sans-serif" font-size="15.1667" font-weight="bold" lengthAdjust="spacing" textLength="8.435" x="409.0992" y="809.1944">9</text><text fill="#C9D1D9" font-family="sans-serif" font-size="15.1667" lengthAdjust="spacing" textLength="134.9004" x="422.2009" y="809.1944">Http not found (404)</text></g><g class="message" data-entity-1="part2" data-entity-2="part1" id="msg10"><polygon fill="#58A6FF" points="91.5833,845.1076,79.9167,849.7743,91.5833,854.4409,86.9167,849.7743" style="stroke:#58A6FF;stroke-width:1.1667;"/><line style="stroke:#58A6FF;stroke-width:1.1667;" x1="84.5833" x2="381.2875" y1="849.7743" y2="849.7743"/><text fill="#C9D1D9" font-family="sans-serif" font-size="15.1667" font-weight="bold" lengthAdjust="spacing" textLength="16.87" x="152.3836" y="844.1084">10</text><text fill="#C9D1D9" font-family="sans-serif" font-size="15.1667" lengthAdjust="spacing" textLength="134.9004" x="173.9202" y="844.1084">Http not found (404)</text></g><line style="stroke:#30363D;stroke-width:1.1667;stroke-dasharray:2.3333,2.3333;" x1="23.3333" x2="1523.3226" y1="868.4409" y2="868.4409"/><text fill="#C9D1D9" font-family="sans-serif" font-size="12.8333" font-weight="bold" lengthAdjust="spacing" textLength="106.9528" x="29.1667" y="881.3432">[Validation failed]</text><g class="message" data-entity-1="part3" data-entity-2="part6" id="msg11"><polygon fill="#58A6FF" points="1137.8777,906.2437,1149.5444,910.9103,1137.8777,915.577,1142.5444,910.9103" style="stroke:#58A6FF;stroke-width:1.1667;"/><line style="stroke:#58A6FF;stroke-width:1.1667;" x1="583.7463" x2="1144.8777" y1="910.9103" y2="910.9103"/><text fill="#C9D1D9" font-family="sans-serif" font-size="15.1667" font-weight="bold" lengthAdjust="spacing" textLength="16.87" x="803.9307" y="905.2445">11</text><text fill="#C9D1D9" font-family="sans-serif" font-size="15.1667" lengthAdjust="spacing" textLength="106.2259" x="825.4674" y="905.2445">throw exception</text></g><path d="M1157.3333,933.077 L1157.3333,948.2437 A7,7 0 0 0 1164.3333,955.2437 L1230.8333,955.2437 A7,7 0 0 0 1237.8333,948.2437 L1237.8333,937.7437 L1226.1667,926.077 L1164.3333,926.077 A7,7 0 0 0 1157.3333,933.077" fill="#1C2330" style="stroke:#E7E7E7;stroke-width:0.5833;"/><path d="M1226.1667,926.077 L1226.1667,934.2437 A3.5,3.5 0 0 0 1229.6667,937.7437 L1237.8333,937.7437 L1226.1667,926.077" fill="#1C2330" style="stroke:#E7E7E7;stroke-width:0.5833;"/><text fill="#C9D1D9" font-family="sans-serif" font-size="15.1667" lengthAdjust="spacing" textLength="56.4751" x="1164.3333" y="947.1584">log error</text><g class="message" data-entity-1="part6" data-entity-2="part7" id="msg12"><polygon fill="#58A6FF" points="1390.3351,983.0716,1402.0018,987.7383,1390.3351,992.4049,1395.0018,987.7383" style="stroke:#58A6FF;stroke-width:1.1667;"/><line style="stroke:#58A6FF;stroke-width:1.1667;" x1="1151.8777" x2="1397.3351" y1="987.7383" y2="987.7383"/><text fill="#C9D1D9" font-family="sans-serif" font-size="15.1667" font-weight="bold" lengthAdjust="spacing" textLength="16.87" x="1204.957" y="982.0724">12</text><text fill="#C9D1D9" font-family="sans-serif" font-size="15.1667" lengthAdjust="spacing" textLength="124.7621" x="1226.4937" y="982.0724">re-throw exception</text></g><path d="M1409.3333,1009.9049 L1409.3333,1025.0716 A7,7 0 0 0 1416.3333,1032.0716 L1482.8333,1032.0716 A7,7 0 0 0 1489.8333,1025.0716 L1489.8333,1014.5716 L1478.1667,1002.9049 L1416.3333,1002.9049 A7,7 0 0 0 1409.3333,1009.9049" fill="#1C2330" style="stroke:#E7E7E7;stroke-width:0.5833;"/><path d="M1478.1667,1002.9049 L1478.1667,1011.0716 A3.5,3.5 0 0 0 1481.6667,1014.5716 L1489.8333,1014.5716 L1478.1667,1002.9049" fill="#1C2330" style="stroke:#E7E7E7;stroke-width:0.5833;"/><text fill="#C9D1D9" font-family="sans-serif" font-size="15.1667" lengthAdjust="spacing" textLength="56.4751" x="1416.3333" y="1023.9864">log error</text><g class="message" data-entity-1="part3" data-entity-2="part2" id="msg13"><polygon fill="#58A6FF" points="395.2875,1059.8996,383.6208,1064.5662,395.2875,1069.2329,390.6208,1064.5662" style="stroke:#58A6FF;stroke-width:1.1667;"/><line style="stroke:#58A6FF;stroke-width:1.1667;" x1="388.2875" x2="582.5797" y1="1064.5662" y2="1064.5662"/><text fill="#C9D1D9" font-family="sans-serif" font-size="15.1667" font-weight="bold" lengthAdjust="spacing" textLength="16.87" x="396.4542" y="1058.9004">13</text><text fill="#C9D1D9" font-family="sans-serif" font-size="15.1667" lengthAdjust="spacing" textLength="151.7555" x="417.9908" y="1058.9004">Http bad request (400)</text></g><g class="message" data-entity-1="part2" data-entity-2="part1" id="msg14"><polygon fill="#58A6FF" points="91.5833,1094.8136,79.9167,1099.4802,91.5833,1104.1469,86.9167,1099.4802" style="stroke:#58A6FF;stroke-width:1.1667;"/><line style="stroke:#58A6FF;stroke-width:1.1667;" x1="84.5833" x2="381.2875" y1="1099.4802" y2="1099.4802"/><text fill="#C9D1D9" font-family="sans-serif" font-size="15.1667" font-weight="bold" lengthAdjust="spacing" textLength="16.87" x="143.956" y="1093.8144">14</text><text fill="#C9D1D9" font-family="sans-serif" font-size="15.1667" lengthAdjust="spacing" textLength="151.7555" x="165.4926" y="1093.8144">Http bad request (400)</text></g><line style="stroke:#30363D;stroke-width:1.1667;stroke-dasharray:2.3333,2.3333;" x1="11.6667" x2="1534.9893" y1="1118.1469" y2="1118.1469"/><text fill="#C9D1D9" font-family="sans-serif" font-size="12.8333" font-weight="bold" lengthAdjust="spacing" textLength="147.5959" x="17.5" y="1131.0492">[User not authenticated]</text><g class="message" data-entity-1="part2" data-entity-2="part1" id="msg15"><polygon fill="#58A6FF" points="91.5833,1155.9496,79.9167,1160.6163,91.5833,1165.283,86.9167,1160.6163" style="stroke:#58A6FF;stroke-width:1.1667;"/><line style="stroke:#58A6FF;stroke-width:1.1667;" x1="84.5833" x2="381.2875" y1="1160.6163" y2="1160.6163"/><text fill="#C9D1D9" font-family="sans-serif" font-size="15.1667" font-weight="bold" lengthAdjust="spacing" textLength="16.87" x="152.3873" y="1154.9504">15</text><text fill="#C9D1D9" font-family="sans-serif" font-size="15.1667" lengthAdjust="spacing" textLength="134.893" x="173.9239" y="1154.9504">Http forbidden (403)</text></g><?plantuml-src jLNBRjim4BphAnReeGcAm9QLEaqF1Vo84w1f6-HrfyMrJ8GcLPBA0q7-lQGaovGZsKwGGZVjxd1cXxiqp724cvGIWw0mPYa2Mv04uG2ky6-68iOW89cH8bjCKGM1lcCY9OeiO4hYkqJ9JD2Hv5B1f-v968P7NeQU4oeVc4XWHhX6BvANnL89L13sl01D6OJzhd-EBdd0Sm3m2xMsz0QS9G9Y5CPo0XWe9HzA5b-_3VgJYVrvpcPupWGEfQAeocZKZVhHs8-kgmZxuR3NSw2naQfMN44NeLVwnxb-WA5yR3xK1LggNdp9rywMYHIcp1aTZyFniPUmzERK8gLDPxMbjgXTfV-Mfg4deruKTTUp_6DFZjotbk4fc7nrdnVFMtXbdkpr8m-evSA_7cESaOoRrntmSeQE7r5FJGurPBMqtKiTsTEKv9lnbadRuSR4a2dHk1clojeEU46KONP2YJ2RCVt4DbZYsWytsexFj6mH3DAKivWO9aKG5phXCjy9bwXDgPoZketMmbUexbcCzZyjvPI1fRejSESoIUoM6EWKOrFbdd8v9VpaCSRKKT9dH53kLf1Z3GS_VBxm7Ivkhg53KjQvZph59jETPqPVEiK--rBijK18j-bOCZSWPsiGTi_DxKfnFr13vfeJ46xoDjM2rCuor8ejdMPj5fOYnwHOi7OKjScBwpnQQsy9PpIdKnQ3Qt6GGpXgPTnH-FCp_xihUAtfzYGk4x3wr5E5qaAgabhPtgInGd4iHvasTi8Lu2FJHbUnrIahh0f-UNaiUlRwWQfXl5UlGftQcuKDX9fars_BcJ6fFHdSVRMDWxrUzt2_XhHsGV9hr5PN5Q9zALSDenAr-6oAnktMjst2pTm-bXQmdAiFQIJQ1rZjqCLwhQNSCkGMLk71xapROTx2hjLZ0pEt967ly4qMDvUXe8NRkTFU0Cy8u-LgsMNytklpntZyF_rzlxTlydLAQBLLhKNTbKKRN6qkSfxcTkQfplcjpuKFEfDgoYX5uI2Z_S32_GC0?></g></svg>