<?plantuml 1.2026.2?>
<svg xmlns="http://www.w3.org/2000/svg" contentStyleType="text/css" data-diagram-type="SEQUENCE" height="1888.3333px"
     preserveAspectRatio="none" style="width:2376px;height:1888px;background:#0E1117;" version="1.1"
     viewBox="0 0 2376 1888" width="2376.6667px" zoomAndPan="magnify"><title>Update recipe details - Sequence</title><defs/><g><rect fill="#0E1117" height="1888.3333" style="stroke:none;stroke-width:1.6667;" width="2376.6667" x="0" y="0"/><text fill="#C9D1D9" font-family="sans-serif" font-size="23.3333" font-weight="bold" lengthAdjust="spacing" textLength="365.6771" x="1007.4129" y="48.4587">Update recipe details - Sequence</text><rect fill="none" height="1380.9749" rx="10" ry="10" style="stroke:#30363D;stroke-width:2.5;" width="2348.8363" x="16.6667" y="340.2588"/><rect fill="none" height="1142.3397" rx="10" ry="10" style="stroke:#30363D;stroke-width:2.5;" width="2315.5029" x="33.3333" y="491.5568"/><rect fill="none" height="634.3188" rx="10" ry="10" style="stroke:#30363D;stroke-width:2.5;" width="2282.1696" x="50" y="642.8548"/><g class="participant-lifeline" data-entity-uid="part1" data-qualified-name="User" id="part1-lifeline"><g><title>User</title><rect fill="#000000" fill-opacity="0.00000" height="1547.3958" width="13.3333" x="105.8333" y="202.1712"/><line style="stroke:#30363D;stroke-width:0.8333;stroke-dasharray:8.3333,8.3333;" x1="111.6667" x2="111.6667" y1="202.1712" y2="1749.5671"/></g></g><g class="participant-lifeline" data-entity-uid="part2" data-qualified-name="Application" id="part2-lifeline"><g><title>Application</title><rect fill="#000000" fill-opacity="0.00000" height="1547.3958" width="13.3333" x="537.3055" y="202.1712"/><line style="stroke:#30363D;stroke-width:0.8333;stroke-dasharray:8.3333,8.3333;" x1="543.5645" x2="543.5645" y1="202.1712" y2="1749.5671"/></g></g><g class="participant-lifeline" data-entity-uid="part3" data-qualified-name="RecipeRestControllerV3" id="part3-lifeline"><g><title>RecipeRestControllerV3</title><rect fill="#000000" fill-opacity="0.00000" height="1547.3958" width="13.3333" x="824.8657" y="202.1712"/><line style="stroke:#30363D;stroke-width:0.8333;stroke-dasharray:8.3333,8.3333;" x1="831.3835" x2="831.3835" y1="202.1712" y2="1749.5671"/></g></g><g class="participant-lifeline" data-entity-uid="part4" data-qualified-name="RecipeServiceV3" id="part4-lifeline"><g><title>RecipeServiceV3</title><rect fill="#000000" fill-opacity="0.00000" height="1547.3958" width="13.3333" x="1066.1694" y="202.1712"/><line style="stroke:#30363D;stroke-width:0.8333;stroke-dasharray:8.3333,8.3333;" x1="1071.6813" x2="1071.6813" y1="202.1712" y2="1749.5671"/></g></g><g class="participant-lifeline" data-entity-uid="part5" data-qualified-name="RecipeDatabase" id="part5-lifeline"><g><title>RecipeDatabase</title><rect fill="#000000" fill-opacity="0.00000" height="1547.3958" width="13.3333" x="1268.5824" y="202.1712"/><line style="stroke:#30363D;stroke-width:0.8333;stroke-dasharray:8.3333,8.3333;" x1="1273.9909" x2="1273.9909" y1="202.1712" y2="1749.5671"/></g></g><g class="participant-lifeline" data-entity-uid="part6" data-qualified-name="CustomerDatabase" id="part6-lifeline"><g><title>CustomerDatabase</title><rect fill="#000000" fill-opacity="0.00000" height="1547.3958" width="13.3333" x="1482.0182" y="202.1712"/><line style="stroke:#30363D;stroke-width:0.8333;stroke-dasharray:8.3333,8.3333;" x1="1488.1738" x2="1488.1738" y1="202.1712" y2="1749.5671"/></g></g><g class="participant-lifeline" data-entity-uid="part7" data-qualified-name="RecipeRestControllerV3LoggingAspect" id="part7-lifeline"><g><title>RecipeRestControllerV3LoggingAspect</title><rect fill="#000000" fill-opacity="0.00000" height="1547.3958" width="13.3333" x="1811.534" y="202.1712"/><line style="stroke:#30363D;stroke-width:0.8333;stroke-dasharray:8.3333,8.3333;" x1="1817.5293" x2="1817.5293" y1="202.1712" y2="1749.5671"/></g></g><g class="participant-lifeline" data-entity-uid="part8" data-qualified-name="GlobalExceptionsHandler" id="part8-lifeline"><g><title>GlobalExceptionsHandler</title><rect fill="#000000" fill-opacity="0.00000" height="1547.3958" width="13.3333" x="2172.1875" y="202.1712"/><line style="stroke:#30363D;stroke-width:0.8333;stroke-dasharray:8.3333,8.3333;" x1="2177.2054" x2="2177.2054" y1="202.1712" y2="1749.5671"/></g></g><g class="participant participant-head" data-entity-uid="part1" data-qualified-name="User" id="part1-head"><text fill="#C9D1D9" font-family="sans-serif" font-size="23.3333" lengthAdjust="spacing" textLength="49.2643" x="82.8678" y="197.0443">User</text><ellipse cx="112.5" cy="99.4189" fill="#0D1117" rx="26.6667" ry="26.6667" style="stroke:#58A6FF;stroke-width:0.8333;"/><path d="M112.5,132.7523 C119.1667,132.7523 124.1667,132.7523 130.8333,126.0856 C144.1667,126.0856 157.5,139.4189 157.5,152.7523 L157.5,159.4189 C157.5,166.0856 150.8333,172.7523 144.1667,172.7523 L80.8333,172.7523 C74.1667,172.7523 67.5,166.0856 67.5,159.4189 L67.5,152.7523 C67.5,139.4189 80.8333,126.0856 94.1667,126.0856 C100.8333,132.7523 105.8333,132.7523 112.5,132.7523" fill="#0D1117" style="stroke:#58A6FF;stroke-width:0.8333;"/></g><g class="participant participant-tail" data-entity-uid="part1" data-qualified-name="User" id="part1-tail"><text fill="#C9D1D9" font-family="sans-serif" font-size="23.3333" lengthAdjust="spacing" textLength="49.2643" x="82.8678" y="1771.359">User</text><ellipse cx="112.5" cy="1803.986" fill="#0D1117" rx="26.6667" ry="26.6667" style="stroke:#58A6FF;stroke-width:0.8333;"/><path d="M112.5,1837.3193 C119.1667,1837.3193 124.1667,1837.3193 130.8333,1830.6527 C144.1667,1830.6527 157.5,1843.986 157.5,1857.3193 L157.5,1863.986 C157.5,1870.6527 150.8333,1877.3193 144.1667,1877.3193 L80.8333,1877.3193 C74.1667,1877.3193 67.5,1870.6527 67.5,1863.986 L67.5,1857.3193 C67.5,1843.986 80.8333,1830.6527 94.1667,1830.6527 C100.8333,1837.3193 105.8333,1837.3193 112.5,1837.3193" fill="#0D1117" style="stroke:#58A6FF;stroke-width:0.8333;"/></g><g class="participant participant-head" data-entity-uid="part2" data-qualified-name="Application" id="part2-head"><text fill="#C9D1D9" font-family="sans-serif" font-size="23.3333" lengthAdjust="spacing" textLength="114.1488" x="481.8978" y="197.0443">Application</text><path d="M509.8055,126.9189 L509.8055,166.9189 M509.8055,146.9189 L538.1388,146.9189" fill="none" style="stroke:#58A6FF;stroke-width:0.8333;"/><ellipse cx="558.1388" cy="146.9189" fill="#0D1117" rx="20" ry="20" style="stroke:#58A6FF;stroke-width:0.8333;"/></g><g class="participant participant-tail" data-entity-uid="part2" data-qualified-name="Application" id="part2-tail"><text fill="#C9D1D9" font-family="sans-serif" font-size="23.3333" lengthAdjust="spacing" textLength="114.1488" x="481.8978" y="1771.359">Application</text><path d="M509.8055,1783.1527 L509.8055,1823.1527 M509.8055,1803.1527 L538.1388,1803.1527" fill="none" style="stroke:#58A6FF;stroke-width:0.8333;"/><ellipse cx="558.1388" cy="1803.1527" fill="#0D1117" rx="20" ry="20" style="stroke:#58A6FF;stroke-width:0.8333;"/></g><g class="participant participant-head" data-entity-uid="part3" data-qualified-name="RecipeRestControllerV3" id="part3-head"><text fill="#C9D1D9" font-family="sans-serif" font-size="23.3333" lengthAdjust="spacing" textLength="250.2979" x="701.3835" y="197.0443">RecipeRestControllerV3</text><ellipse cx="831.5324" cy="146.9189" fill="#0D1117" rx="20" ry="20" style="stroke:#58A6FF;stroke-width:0.8333;"/><polygon fill="#58A6FF" points="824.8657,126.9189,834.8657,118.5856,831.5324,126.9189,834.8657,135.2523,824.8657,126.9189" style="stroke:#58A6FF;stroke-width:1.6667;"/></g><g class="participant participant-tail" data-entity-uid="part3" data-qualified-name="RecipeRestControllerV3" id="part3-tail"><text fill="#C9D1D9" font-family="sans-serif" font-size="23.3333" lengthAdjust="spacing" textLength="250.2979" x="701.3835" y="1771.359">RecipeRestControllerV3</text><ellipse cx="831.5324" cy="1803.1527" fill="#0D1117" rx="20" ry="20" style="stroke:#58A6FF;stroke-width:0.8333;"/><polygon fill="#58A6FF" points="824.8657,1783.1527,834.8657,1774.8193,831.5324,1783.1527,834.8657,1791.486,824.8657,1783.1527" style="stroke:#58A6FF;stroke-width:1.6667;"/></g><g class="participant participant-head" data-entity-uid="part4" data-qualified-name="RecipeServiceV3" id="part4-head"><text fill="#C9D1D9" font-family="sans-serif" font-size="23.3333" lengthAdjust="spacing" textLength="178.9762" x="978.348" y="197.0443">RecipeServiceV3</text><ellipse cx="1072.8361" cy="146.9189" fill="#0D1117" rx="20" ry="20" style="stroke:#58A6FF;stroke-width:0.8333;"/><polygon fill="#58A6FF" points="1066.1694,126.9189,1076.1694,118.5856,1072.8361,126.9189,1076.1694,135.2523,1066.1694,126.9189" style="stroke:#58A6FF;stroke-width:1.6667;"/></g><g class="participant participant-tail" data-entity-uid="part4" data-qualified-name="RecipeServiceV3" id="part4-tail"><text fill="#C9D1D9" font-family="sans-serif" font-size="23.3333" lengthAdjust="spacing" textLength="178.9762" x="978.348" y="1771.359">RecipeServiceV3</text><ellipse cx="1072.8361" cy="1803.1527" fill="#0D1117" rx="20" ry="20" style="stroke:#58A6FF;stroke-width:0.8333;"/><polygon fill="#58A6FF" points="1066.1694,1783.1527,1076.1694,1774.8193,1072.8361,1783.1527,1076.1694,1791.486,1066.1694,1783.1527" style="stroke:#58A6FF;stroke-width:1.6667;"/></g><g class="participant participant-head" data-entity-uid="part5" data-qualified-name="RecipeDatabase" id="part5-head"><text fill="#C9D1D9" font-family="sans-serif" font-size="23.3333" lengthAdjust="spacing" textLength="172.5163" x="1183.9909" y="197.0443">RecipeDatabase</text><path d="M1245.249,113.5856 C1245.249,96.9189 1275.249,96.9189 1275.249,96.9189 C1275.249,96.9189 1305.249,96.9189 1305.249,113.5856 L1305.249,156.9189 C1305.249,173.5856 1275.249,173.5856 1275.249,173.5856 C1275.249,173.5856 1245.249,173.5856 1245.249,156.9189 L1245.249,113.5856" fill="#0D1117" style="stroke:#58A6FF;stroke-width:0.8333;"/><path d="M1245.249,113.5856 C1245.249,130.2523 1275.249,130.2523 1275.249,130.2523 C1275.249,130.2523 1305.249,130.2523 1305.249,113.5856" fill="none" style="stroke:#58A6FF;stroke-width:0.8333;"/></g><g class="participant participant-tail" data-entity-uid="part5" data-qualified-name="RecipeDatabase" id="part5-tail"><text fill="#C9D1D9" font-family="sans-serif" font-size="23.3333" lengthAdjust="spacing" textLength="172.5163" x="1183.9909" y="1771.359">RecipeDatabase</text><path d="M1245.249,1793.1527 C1245.249,1776.486 1275.249,1776.486 1275.249,1776.486 C1275.249,1776.486 1305.249,1776.486 1305.249,1793.1527 L1305.249,1836.486 C1305.249,1853.1527 1275.249,1853.1527 1275.249,1853.1527 C1275.249,1853.1527 1245.249,1853.1527 1245.249,1836.486 L1245.249,1793.1527" fill="#0D1117" style="stroke:#58A6FF;stroke-width:0.8333;"/><path d="M1245.249,1793.1527 C1245.249,1809.8193 1275.249,1809.8193 1275.249,1809.8193 C1275.249,1809.8193 1305.249,1809.8193 1305.249,1793.1527" fill="none" style="stroke:#58A6FF;stroke-width:0.8333;"/></g><g class="participant participant-head" data-entity-uid="part6" data-qualified-name="CustomerDatabase" id="part6-head"><text fill="#C9D1D9" font-family="sans-serif" font-size="23.3333" lengthAdjust="spacing" textLength="201.0221" x="1383.1738" y="197.0443">CustomerDatabase</text><path d="M1458.6849,113.5856 C1458.6849,96.9189 1488.6849,96.9189 1488.6849,96.9189 C1488.6849,96.9189 1518.6849,96.9189 1518.6849,113.5856 L1518.6849,156.9189 C1518.6849,173.5856 1488.6849,173.5856 1488.6849,173.5856 C1488.6849,173.5856 1458.6849,173.5856 1458.6849,156.9189 L1458.6849,113.5856" fill="#0D1117" style="stroke:#58A6FF;stroke-width:0.8333;"/><path d="M1458.6849,113.5856 C1458.6849,130.2523 1488.6849,130.2523 1488.6849,130.2523 C1488.6849,130.2523 1518.6849,130.2523 1518.6849,113.5856" fill="none" style="stroke:#58A6FF;stroke-width:0.8333;"/></g><g class="participant participant-tail" data-entity-uid="part6" data-qualified-name="CustomerDatabase" id="part6-tail"><text fill="#C9D1D9" font-family="sans-serif" font-size="23.3333" lengthAdjust="spacing" textLength="201.0221" x="1383.1738" y="1771.359">CustomerDatabase</text><path d="M1458.6849,1793.1527 C1458.6849,1776.486 1488.6849,1776.486 1488.6849,1776.486 C1488.6849,1776.486 1518.6849,1776.486 1518.6849,1793.1527 L1518.6849,1836.486 C1518.6849,1853.1527 1488.6849,1853.1527 1488.6849,1853.1527 C1488.6849,1853.1527 1458.6849,1853.1527 1458.6849,1836.486 L1458.6849,1793.1527" fill="#0D1117" style="stroke:#58A6FF;stroke-width:0.8333;"/><path d="M1458.6849,1793.1527 C1458.6849,1809.8193 1488.6849,1809.8193 1488.6849,1809.8193 C1488.6849,1809.8193 1518.6849,1809.8193 1518.6849,1793.1527" fill="none" style="stroke:#58A6FF;stroke-width:0.8333;"/></g><g class="participant participant-head" data-entity-uid="part7" data-qualified-name="RecipeRestControllerV3LoggingAspect" id="part7-head"><text fill="#C9D1D9" font-family="sans-serif" font-size="23.3333" lengthAdjust="spacing" textLength="404.6761" x="1610.8626" y="197.0443">RecipeRestControllerV3LoggingAspect</text><ellipse cx="1818.2007" cy="146.9189" fill="#0D1117" rx="20" ry="20" style="stroke:#58A6FF;stroke-width:0.8333;"/><polygon fill="#58A6FF" points="1811.534,126.9189,1821.534,118.5856,1818.2007,126.9189,1821.534,135.2523,1811.534,126.9189" style="stroke:#58A6FF;stroke-width:1.6667;"/></g><g class="participant participant-tail" data-entity-uid="part7" data-qualified-name="RecipeRestControllerV3LoggingAspect" id="part7-tail"><text fill="#C9D1D9" font-family="sans-serif" font-size="23.3333" lengthAdjust="spacing" textLength="404.6761" x="1610.8626" y="1771.359">RecipeRestControllerV3LoggingAspect</text><ellipse cx="1818.2007" cy="1803.1527" fill="#0D1117" rx="20" ry="20" style="stroke:#58A6FF;stroke-width:0.8333;"/><polygon fill="#58A6FF" points="1811.534,1783.1527,1821.534,1774.8193,1818.2007,1783.1527,1821.534,1791.486,1811.534,1783.1527" style="stroke:#58A6FF;stroke-width:1.6667;"/></g><g class="participant participant-head" data-entity-uid="part8" data-qualified-name="GlobalExceptionsHandler" id="part8-head"><text fill="#C9D1D9" font-family="sans-serif" font-size="23.3333" lengthAdjust="spacing" textLength="263.2975" x="2042.2054" y="197.0443">GlobalExceptionsHandler</text><ellipse cx="2178.8542" cy="146.9189" fill="#0D1117" rx="20" ry="20" style="stroke:#58A6FF;stroke-width:0.8333;"/><polygon fill="#58A6FF" points="2172.1875,126.9189,2182.1875,118.5856,2178.8542,126.9189,2182.1875,135.2523,2172.1875,126.9189" style="stroke:#58A6FF;stroke-width:1.6667;"/></g><g class="participant participant-tail" data-entity-uid="part8" data-qualified-name="GlobalExceptionsHandler" id="part8-tail"><text fill="#C9D1D9" font-family="sans-serif" font-size="23.3333" lengthAdjust="spacing" textLength="263.2975" x="2042.2054" y="1771.359">GlobalExceptionsHandler</text><ellipse cx="2178.8542" cy="1803.1527" fill="#0D1117" rx="20" ry="20" style="stroke:#58A6FF;stroke-width:0.8333;"/><polygon fill="#58A6FF" points="2172.1875,1783.1527,2182.1875,1774.8193,2178.8542,1783.1527,2182.1875,1791.486,2172.1875,1783.1527" style="stroke:#58A6FF;stroke-width:1.6667;"/></g><g class="message" data-entity-1="part1" data-entity-2="part2" id="msg1"><polygon fill="#58A6FF" points="523.9722,248.715,540.6388,255.3817,523.9722,262.0483,530.6388,255.3817" style="stroke:#58A6FF;stroke-width:1.6667;"/><line style="stroke:#58A6FF;stroke-width:1.6667;" x1="112.5" x2="533.9722" y1="255.3817" y2="255.3817"/><text fill="#C9D1D9" font-family="sans-serif" font-size="21.6667" font-weight="bold" lengthAdjust="spacing" textLength="12.05" x="132.5" y="247.2876">1</text><text fill="#C9D1D9" font-family="sans-serif" font-size="21.6667" lengthAdjust="spacing" textLength="372.7555" x="151.2166" y="247.2876">PUT /api/v3/recipes/{id} + requestBody</text></g><path d="M551.6667,287.0483 L551.6667,308.715 A10,10 0 0 0 561.6667,318.715 L753.3333,318.715 A10,10 0 0 0 763.3333,308.715 L763.3333,293.715 L746.6667,277.0483 L561.6667,277.0483 A10,10 0 0 0 551.6667,287.0483" fill="#1C2330" style="stroke:#E7E7E7;stroke-width:0.8333;"/><path d="M746.6667,277.0483 L746.6667,288.715 A5,5 0 0 0 751.6667,293.715 L763.3333,293.715 L746.6667,277.0483" fill="#1C2330" style="stroke:#E7E7E7;stroke-width:0.8333;"/><text fill="#C9D1D9" font-family="sans-serif" font-size="21.6667" lengthAdjust="spacing" textLength="177.0573" x="561.6667" y="307.1647">authenticates user</text><path d="M26.6667,340.2588 L116.9515,340.2588 L116.9515,353.4692 L100.2848,370.1359 L16.6667,370.1359 L16.6667,350.2588 A10,10 0 0 1 26.6667,340.2588" fill="#161B22" style="stroke:#30363D;stroke-width:2.5;"/><rect fill="none" height="1380.9749" rx="10" ry="10" style="stroke:#30363D;stroke-width:2.5;" width="2348.8363" x="16.6667" y="340.2588"/><text fill="#C9D1D9" font-family="sans-serif" font-size="21.6667" font-weight="bold" lengthAdjust="spacing" textLength="25.2848" x="41.6667" y="363.7085">alt</text><text fill="#C9D1D9" font-family="sans-serif" font-size="18.3333" font-weight="bold" lengthAdjust="spacing" textLength="177.255" x="141.9515" y="362.0239">[User authenticated]</text><g class="message" data-entity-1="part2" data-entity-2="part3" id="msg2"><polygon fill="#58A6FF" points="811.5324,400.013,828.1991,406.6797,811.5324,413.3464,818.1991,406.6797" style="stroke:#58A6FF;stroke-width:1.6667;"/><line style="stroke:#58A6FF;stroke-width:1.6667;" x1="543.9722" x2="821.5324" y1="406.6797" y2="406.6797"/><text fill="#C9D1D9" font-family="sans-serif" font-size="21.6667" font-weight="bold" lengthAdjust="spacing" textLength="12.05" x="597.6835" y="398.5856">2</text><text fill="#C9D1D9" font-family="sans-serif" font-size="21.6667" lengthAdjust="spacing" textLength="161.4209" x="616.4001" y="398.5856">delegate request</text></g><path d="M838.3333,438.3464 L838.3333,460.013 A10,10 0 0 0 848.3333,470.013 L1078.3333,470.013 A10,10 0 0 0 1088.3333,460.013 L1088.3333,445.013 L1071.6667,428.3464 L848.3333,428.3464 A10,10 0 0 0 838.3333,438.3464" fill="#1C2330" style="stroke:#E7E7E7;stroke-width:0.8333;"/><path d="M1071.6667,428.3464 L1071.6667,440.013 A5,5 0 0 0 1076.6667,445.013 L1088.3333,445.013 L1071.6667,428.3464" fill="#1C2330" style="stroke:#E7E7E7;stroke-width:0.8333;"/><text fill="#C9D1D9" font-family="sans-serif" font-size="21.6667" lengthAdjust="spacing" textLength="215.6087" x="848.3333" y="458.4627">Validates request data</text><path d="M43.3333,491.5568 L133.6182,491.5568 L133.6182,504.7673 L116.9515,521.4339 L33.3333,521.4339 L33.3333,501.5568 A10,10 0 0 1 43.3333,491.5568" fill="#161B22" style="stroke:#30363D;stroke-width:2.5;"/><rect fill="none" height="1142.3397" rx="10" ry="10" style="stroke:#30363D;stroke-width:2.5;" width="2315.5029" x="33.3333" y="491.5568"/><text fill="#C9D1D9" font-family="sans-serif" font-size="21.6667" font-weight="bold" lengthAdjust="spacing" textLength="25.2848" x="58.3333" y="515.0065">alt</text><text fill="#C9D1D9" font-family="sans-serif" font-size="18.3333" font-weight="bold" lengthAdjust="spacing" textLength="132.4064" x="158.6182" y="513.3219">[Validation OK]</text><path d="M1825,539.7673 L1825,561.4339 A10,10 0 0 0 1835,571.4339 L1931.6667,571.4339 A10,10 0 0 0 1941.6667,561.4339 L1941.6667,546.4339 L1925,529.7673 L1835,529.7673 A10,10 0 0 0 1825,539.7673" fill="#1C2330" style="stroke:#E7E7E7;stroke-width:0.8333;"/><path d="M1925,529.7673 L1925,541.4339 A5,5 0 0 0 1930,546.4339 L1941.6667,546.4339 L1925,529.7673" fill="#1C2330" style="stroke:#E7E7E7;stroke-width:0.8333;"/><text fill="#C9D1D9" font-family="sans-serif" font-size="21.6667" lengthAdjust="spacing" textLength="83.1014" x="1835" y="559.8836">log entry</text><g class="message" data-entity-1="part3" data-entity-2="part4" id="msg3"><polygon fill="#58A6FF" points="1052.8361,611.1882,1069.5028,617.8548,1052.8361,624.5215,1059.5028,617.8548" style="stroke:#58A6FF;stroke-width:1.6667;"/><line style="stroke:#58A6FF;stroke-width:1.6667;" x1="831.5324" x2="1062.8361" y1="617.8548" y2="617.8548"/><text fill="#C9D1D9" font-family="sans-serif" font-size="21.6667" font-weight="bold" lengthAdjust="spacing" textLength="12.05" x="862.1155" y="609.7607">3</text><text fill="#C9D1D9" font-family="sans-serif" font-size="21.6667" lengthAdjust="spacing" textLength="161.4209" x="880.8321" y="609.7607">delegate request</text></g><path d="M60,642.8548 L150.2848,642.8548 L150.2848,656.0653 L133.6182,672.7319 L50,672.7319 L50,652.8548 A10,10 0 0 1 60,642.8548" fill="#161B22" style="stroke:#30363D;stroke-width:2.5;"/><rect fill="none" height="634.3188" rx="10" ry="10" style="stroke:#30363D;stroke-width:2.5;" width="2282.1696" x="50" y="642.8548"/><text fill="#C9D1D9" font-family="sans-serif" font-size="21.6667" font-weight="bold" lengthAdjust="spacing" textLength="25.2848" x="75" y="666.3045">alt</text><text fill="#C9D1D9" font-family="sans-serif" font-size="18.3333" font-weight="bold" lengthAdjust="spacing" textLength="154.8576" x="175.2848" y="664.62">[Customer exists]</text><g class="message" data-entity-1="part4" data-entity-2="part5" id="msg4"><polygon fill="#58A6FF" points="1255.249,702.609,1271.9157,709.2757,1255.249,715.9424,1261.9157,709.2757" style="stroke:#58A6FF;stroke-width:1.6667;"/><line style="stroke:#58A6FF;stroke-width:1.6667;" x1="1072.8361" x2="1265.249" y1="709.2757" y2="709.2757"/><text fill="#C9D1D9" font-family="sans-serif" font-size="21.6667" font-weight="bold" lengthAdjust="spacing" textLength="12.05" x="1099.0336" y="701.1816">4</text><text fill="#C9D1D9" font-family="sans-serif" font-size="21.6667" lengthAdjust="spacing" textLength="131.3013" x="1117.7502" y="701.1816">update recipe</text></g><g class="message" data-entity-1="part4" data-entity-2="part6" id="msg5"><polygon fill="#58A6FF" points="1468.6849,752.4862,1485.3516,759.1528,1468.6849,765.8195,1475.3516,759.1528" style="stroke:#58A6FF;stroke-width:1.6667;"/><line style="stroke:#58A6FF;stroke-width:1.6667;" x1="1072.8361" x2="1478.6849" y1="759.1528" y2="759.1528"/><text fill="#C9D1D9" font-family="sans-serif" font-size="21.6667" font-weight="bold" lengthAdjust="spacing" textLength="12.05" x="1190.7076" y="751.0588">5</text><text fill="#C9D1D9" font-family="sans-serif" font-size="21.6667" lengthAdjust="spacing" textLength="161.3892" x="1209.4242" y="751.0588">update customer</text></g><path d="M1825,790.8195 L1825,812.4862 A10,10 0 0 0 1835,822.4862 L1973.3333,822.4862 A10,10 0 0 0 1983.3333,812.4862 L1983.3333,797.4862 L1966.6667,780.8195 L1835,780.8195 A10,10 0 0 0 1825,790.8195" fill="#1C2330" style="stroke:#E7E7E7;stroke-width:0.8333;"/><path d="M1966.6667,780.8195 L1966.6667,792.4862 A5,5 0 0 0 1971.6667,797.4862 L1983.3333,797.4862 L1966.6667,780.8195" fill="#1C2330" style="stroke:#E7E7E7;stroke-width:0.8333;"/><text fill="#C9D1D9" font-family="sans-serif" font-size="21.6667" lengthAdjust="spacing" textLength="124.0649" x="1835" y="810.9359">log response</text><g class="message" data-entity-1="part3" data-entity-2="part2" id="msg6"><polygon fill="#58A6FF" points="562.3055,862.2404,545.6388,868.9071,562.3055,875.5737,555.6388,868.9071" style="stroke:#58A6FF;stroke-width:1.6667;"/><line style="stroke:#58A6FF;stroke-width:1.6667;" x1="552.3055" x2="829.8657" y1="868.9071" y2="868.9071"/><text fill="#C9D1D9" font-family="sans-serif" font-size="21.6667" font-weight="bold" lengthAdjust="spacing" textLength="12.05" x="576.6199" y="860.813">6</text><text fill="#C9D1D9" font-family="sans-serif" font-size="21.6667" lengthAdjust="spacing" textLength="203.5482" x="595.3365" y="860.813">Http no content (204)</text></g><g class="message" data-entity-1="part2" data-entity-2="part1" id="msg7"><polygon fill="#58A6FF" points="130.8333,912.1175,114.1667,918.7842,130.8333,925.4508,124.1667,918.7842" style="stroke:#58A6FF;stroke-width:1.6667;"/><line style="stroke:#58A6FF;stroke-width:1.6667;" x1="120.8333" x2="542.3055" y1="918.7842" y2="918.7842"/><text fill="#C9D1D9" font-family="sans-serif" font-size="21.6667" font-weight="bold" lengthAdjust="spacing" textLength="12.05" x="217.1037" y="910.6901">7</text><text fill="#C9D1D9" font-family="sans-serif" font-size="21.6667" lengthAdjust="spacing" textLength="203.5482" x="235.8203" y="910.6901">Http no content (204)</text></g><line style="stroke:#30363D;stroke-width:1.6667;stroke-dasharray:3.3333,3.3333;" x1="50" x2="2332.1696" y1="933.7842" y2="933.7842"/><text fill="#C9D1D9" font-family="sans-serif" font-size="18.3333" font-weight="bold" lengthAdjust="spacing" textLength="214.2082" x="58.3333" y="952.216">[Customer doesn't exist]</text><g class="message" data-entity-1="part4" data-entity-2="part7" id="msg8"><polygon fill="#58A6FF" points="1798.2007,987.7881,1814.8674,994.4548,1798.2007,1001.1214,1804.8674,994.4548" style="stroke:#58A6FF;stroke-width:1.6667;"/><line style="stroke:#58A6FF;stroke-width:1.6667;" x1="1072.8361" x2="1808.2007" y1="994.4548" y2="994.4548"/><text fill="#C9D1D9" font-family="sans-serif" font-size="21.6667" font-weight="bold" lengthAdjust="spacing" textLength="12.05" x="1360.2844" y="986.3607">8</text><text fill="#C9D1D9" font-family="sans-serif" font-size="21.6667" lengthAdjust="spacing" textLength="151.7513" x="1379.0011" y="986.3607">throw exception</text></g><path d="M1825,1026.1214 L1825,1047.7881 A10,10 0 0 0 1835,1057.7881 L1930,1057.7881 A10,10 0 0 0 1940,1047.7881 L1940,1032.7881 L1923.3333,1016.1214 L1835,1016.1214 A10,10 0 0 0 1825,1026.1214" fill="#1C2330" style="stroke:#E7E7E7;stroke-width:0.8333;"/><path d="M1923.3333,1016.1214 L1923.3333,1027.7881 A5,5 0 0 0 1928.3333,1032.7881 L1940,1032.7881 L1923.3333,1016.1214" fill="#1C2330" style="stroke:#E7E7E7;stroke-width:0.8333;"/><text fill="#C9D1D9" font-family="sans-serif" font-size="21.6667" lengthAdjust="spacing" textLength="80.6787" x="1835" y="1046.2378">log error</text><g class="message" data-entity-1="part7" data-entity-2="part8" id="msg9"><polygon fill="#58A6FF" points="2158.8542,1097.5423,2175.5208,1104.209,2158.8542,1110.8757,2165.5208,1104.209" style="stroke:#58A6FF;stroke-width:1.6667;"/><line style="stroke:#58A6FF;stroke-width:1.6667;" x1="1818.2007" x2="2168.8542" y1="1104.209" y2="1104.209"/><text fill="#C9D1D9" font-family="sans-serif" font-size="21.6667" font-weight="bold" lengthAdjust="spacing" textLength="12.05" x="1900.0533" y="1096.1149">9</text><text fill="#C9D1D9" font-family="sans-serif" font-size="21.6667" lengthAdjust="spacing" textLength="178.2316" x="1918.7699" y="1096.1149">re-throw exception</text></g><path d="M2186.6667,1135.8757 L2186.6667,1157.5423 A10,10 0 0 0 2196.6667,1167.5423 L2291.6667,1167.5423 A10,10 0 0 0 2301.6667,1157.5423 L2301.6667,1142.5423 L2285,1125.8757 L2196.6667,1125.8757 A10,10 0 0 0 2186.6667,1135.8757" fill="#1C2330" style="stroke:#E7E7E7;stroke-width:0.8333;"/><path d="M2285,1125.8757 L2285,1137.5423 A5,5 0 0 0 2290,1142.5423 L2301.6667,1142.5423 L2285,1125.8757" fill="#1C2330" style="stroke:#E7E7E7;stroke-width:0.8333;"/><text fill="#C9D1D9" font-family="sans-serif" font-size="21.6667" lengthAdjust="spacing" textLength="80.6787" x="2196.6667" y="1155.992">log error</text><g class="message" data-entity-1="part3" data-entity-2="part2" id="msg10"><polygon fill="#58A6FF" points="562.3055,1207.2965,545.6388,1213.9632,562.3055,1220.6299,555.6388,1213.9632" style="stroke:#58A6FF;stroke-width:1.6667;"/><line style="stroke:#58A6FF;stroke-width:1.6667;" x1="552.3055" x2="829.8657" y1="1213.9632" y2="1213.9632"/><text fill="#C9D1D9" font-family="sans-serif" font-size="21.6667" font-weight="bold" lengthAdjust="spacing" textLength="24.0999" x="576.0116" y="1205.8691">10</text><text fill="#C9D1D9" font-family="sans-serif" font-size="21.6667" lengthAdjust="spacing" textLength="192.7148" x="606.7782" y="1205.8691">Http not found (404)</text></g><g class="message" data-entity-1="part2" data-entity-2="part1" id="msg11"><polygon fill="#58A6FF" points="130.8333,1257.1737,114.1667,1263.8403,130.8333,1270.507,124.1667,1263.8403" style="stroke:#58A6FF;stroke-width:1.6667;"/><line style="stroke:#58A6FF;stroke-width:1.6667;" x1="120.8333" x2="542.3055" y1="1263.8403" y2="1263.8403"/><text fill="#C9D1D9" font-family="sans-serif" font-size="21.6667" font-weight="bold" lengthAdjust="spacing" textLength="24.0999" x="216.4954" y="1255.7463">11</text><text fill="#C9D1D9" font-family="sans-serif" font-size="21.6667" lengthAdjust="spacing" textLength="192.7148" x="247.262" y="1255.7463">Http not found (404)</text></g><line style="stroke:#30363D;stroke-width:1.6667;stroke-dasharray:3.3333,3.3333;" x1="33.3333" x2="2348.8363" y1="1290.507" y2="1290.507"/><text fill="#C9D1D9" font-family="sans-serif" font-size="18.3333" font-weight="bold" lengthAdjust="spacing" textLength="152.7897" x="41.6667" y="1308.9388">[Validation failed]</text><g class="message" data-entity-1="part3" data-entity-2="part7" id="msg12"><polygon fill="#58A6FF" points="1798.2007,1344.5109,1814.8674,1351.1776,1798.2007,1357.8442,1804.8674,1351.1776" style="stroke:#58A6FF;stroke-width:1.6667;"/><line style="stroke:#58A6FF;stroke-width:1.6667;" x1="831.5324" x2="1808.2007" y1="1351.1776" y2="1351.1776"/><text fill="#C9D1D9" font-family="sans-serif" font-size="21.6667" font-weight="bold" lengthAdjust="spacing" textLength="24.0999" x="1233.6076" y="1343.0835">12</text><text fill="#C9D1D9" font-family="sans-serif" font-size="21.6667" lengthAdjust="spacing" textLength="151.7513" x="1264.3742" y="1343.0835">throw exception</text></g><path d="M1825,1382.8442 L1825,1404.5109 A10,10 0 0 0 1835,1414.5109 L1930,1414.5109 A10,10 0 0 0 1940,1404.5109 L1940,1389.5109 L1923.3333,1372.8442 L1835,1372.8442 A10,10 0 0 0 1825,1382.8442" fill="#1C2330" style="stroke:#E7E7E7;stroke-width:0.8333;"/><path d="M1923.3333,1372.8442 L1923.3333,1384.5109 A5,5 0 0 0 1928.3333,1389.5109 L1940,1389.5109 L1923.3333,1372.8442" fill="#1C2330" style="stroke:#E7E7E7;stroke-width:0.8333;"/><text fill="#C9D1D9" font-family="sans-serif" font-size="21.6667" lengthAdjust="spacing" textLength="80.6787" x="1835" y="1402.9606">log error</text><g class="message" data-entity-1="part7" data-entity-2="part8" id="msg13"><polygon fill="#58A6FF" points="2158.8542,1454.2651,2175.5208,1460.9318,2158.8542,1467.5985,2165.5208,1460.9318" style="stroke:#58A6FF;stroke-width:1.6667;"/><line style="stroke:#58A6FF;stroke-width:1.6667;" x1="1818.2007" x2="2168.8542" y1="1460.9318" y2="1460.9318"/><text fill="#C9D1D9" font-family="sans-serif" font-size="21.6667" font-weight="bold" lengthAdjust="spacing" textLength="24.0999" x="1894.0283" y="1452.8377">13</text><text fill="#C9D1D9" font-family="sans-serif" font-size="21.6667" lengthAdjust="spacing" textLength="178.2316" x="1924.7949" y="1452.8377">re-throw exception</text></g><path d="M2186.6667,1492.5985 L2186.6667,1514.2651 A10,10 0 0 0 2196.6667,1524.2651 L2291.6667,1524.2651 A10,10 0 0 0 2301.6667,1514.2651 L2301.6667,1499.2651 L2285,1482.5985 L2196.6667,1482.5985 A10,10 0 0 0 2186.6667,1492.5985" fill="#1C2330" style="stroke:#E7E7E7;stroke-width:0.8333;"/><path d="M2285,1482.5985 L2285,1494.2651 A5,5 0 0 0 2290,1499.2651 L2301.6667,1499.2651 L2285,1482.5985" fill="#1C2330" style="stroke:#E7E7E7;stroke-width:0.8333;"/><text fill="#C9D1D9" font-family="sans-serif" font-size="21.6667" lengthAdjust="spacing" textLength="80.6787" x="2196.6667" y="1512.7148">log error</text><g class="message" data-entity-1="part3" data-entity-2="part2" id="msg14"><polygon fill="#58A6FF" points="562.3055,1564.0194,545.6388,1570.686,562.3055,1577.3527,555.6388,1570.686" style="stroke:#58A6FF;stroke-width:1.6667;"/><line style="stroke:#58A6FF;stroke-width:1.6667;" x1="552.3055" x2="829.8657" y1="1570.686" y2="1570.686"/><text fill="#C9D1D9" font-family="sans-serif" font-size="21.6667" font-weight="bold" lengthAdjust="spacing" textLength="24.0999" x="563.9722" y="1562.592">14</text><text fill="#C9D1D9" font-family="sans-serif" font-size="21.6667" lengthAdjust="spacing" textLength="216.7936" x="594.7388" y="1562.592">Http bad request (400)</text></g><g class="message" data-entity-1="part2" data-entity-2="part1" id="msg15"><polygon fill="#58A6FF" points="130.8333,1613.8965,114.1667,1620.5632,130.8333,1627.2298,124.1667,1620.5632" style="stroke:#58A6FF;stroke-width:1.6667;"/><line style="stroke:#58A6FF;stroke-width:1.6667;" x1="120.8333" x2="542.3055" y1="1620.5632" y2="1620.5632"/><text fill="#C9D1D9" font-family="sans-serif" font-size="21.6667" font-weight="bold" lengthAdjust="spacing" textLength="24.0999" x="204.456" y="1612.4691">15</text><text fill="#C9D1D9" font-family="sans-serif" font-size="21.6667" lengthAdjust="spacing" textLength="216.7936" x="235.2226" y="1612.4691">Http bad request (400)</text></g><line style="stroke:#30363D;stroke-width:1.6667;stroke-dasharray:3.3333,3.3333;" x1="16.6667" x2="2365.5029" y1="1647.2298" y2="1647.2298"/><text fill="#C9D1D9" font-family="sans-serif" font-size="18.3333" font-weight="bold" lengthAdjust="spacing" textLength="210.8512" x="25" y="1665.6616">[User not authenticated]</text><g class="message" data-entity-1="part2" data-entity-2="part1" id="msg16"><polygon fill="#58A6FF" points="130.8333,1701.2337,114.1667,1707.9004,130.8333,1714.5671,124.1667,1707.9004" style="stroke:#58A6FF;stroke-width:1.6667;"/><line style="stroke:#58A6FF;stroke-width:1.6667;" x1="120.8333" x2="542.3055" y1="1707.9004" y2="1707.9004"/><text fill="#C9D1D9" font-family="sans-serif" font-size="21.6667" font-weight="bold" lengthAdjust="spacing" textLength="24.0999" x="216.5007" y="1699.8063">16</text><text fill="#C9D1D9" font-family="sans-serif" font-size="21.6667" lengthAdjust="spacing" textLength="192.7043" x="247.2673" y="1699.8063">Http forbidden (403)</text></g><?plantuml-src jLRRRjim37ttLn3OmreCHMvTkkvXG2vD2wpRYjxU5OjnXAgI9objWwB_Fifn73craxJea3UHF2JF8UauuIJ2JSgPGp0OYnI1esD2MZY0A_mxGnLZ5B6PqsfsFqOJHVPEg9GPTWzZ5jybHiyK7sYf3NngdhHQhQF0mquPruz29J1Xqc9WoS9YRHGQQBK30qy5jBhDC8_Dwu3d2E0NMiiIx4cHA8XHEQe9e6UCVioh-FgjrnsDwF5SJF1SAEnhmz7arawpq-qCG-jw5wrkgzzkUz3OQLCABg0NfbVz3xF-0VhwgJgfDzH4lOGjNtjXHbgvt6TmF6mDZmE7fJQdX9HMvQfphUbsvVvRkmfE1krEfxdk5QOzEVA_DO-WWz5N_mli6OLNRau3o1xHwljmF8OuOJFfNZCG-FHzVSpCgnIgyAgXFN0TK3QZvMQyfTDsk25pRCmiRiOhlBO3NZ3Z1EqeKsupPkXO1yiy_N1ZQNt6EKNGIrCfOkQ4Lb6yw1CkiwjmYTRbdKiqjvqrynMQ1n4ZlVEydTomx6xrFfXPHrgRmh8vqRbE4heVFPjYx0hVKwd7J9uynPZwOkqPKrpwu-JxWOCVOIVm7Ivkhg71Kj5uw3GMLyusdWL_WIzqz6WvBF79vv7I_WgAPEf0JzOWw09EwTZu1xGmyxH5JBgCm9AHqvP3APZAgUwDO3bAJ1R7DwiZ2oxNKHjxowJWMJbvC7YIemp2bvRRVGb_VcQlkuANIATCKYT0_PbvWL9JLD5gCH1LFHOelihbF00-2UjiOLjbMM4LyClX8VHP-F7Q5hq-VAluEBUK4DxBbK6RqbHMbLD5MNdIpfnBAJFuMIVIOQ_TFDml8QqDLpQ2TN558CfW-O1hjEgpMv2-6-VR6dTJ-WGJOBwJ7q8aqcVTxC1YEPPAhZaG16lmOFTAws7UKbsjnWuc_lJ2tk6R9AuEGyKNQcTA1yi_eRzp-LdQPNNVg_F7QFm_zNs_jc_ITSnuSP59ekPAeWsgLWTvJJCvCrUl_DPFJGWwqMOiE4Vb8Jlx4S7z0m00?></g></svg>