<svg xmlns="http://www.w3.org/2000/svg" contentStyleType="text/css" data-diagram-type="CLASS" height="417px"
     preserveAspectRatio="none" style="width:589px;height:417px;background:#1E1E1E;" version="1.1" viewBox="0 0 589 417"
     width="589px" zoomAndPan="magnify"><defs/><g><rect fill="#1E1E1E" height="417" style="stroke:none;stroke-width:1;" width="589" x="0" y="0"/><!--class Mapper--><g class="entity" data-entity="Mapper" data-source-line="17" data-uid="ent0002" id="entity_Mapper"><rect fill="#2D2D2D" height="65.1514" rx="2.5" ry="2.5" style="stroke:#8A8A8A;stroke-width:0.5;" width="270.3301" x="16.5" y="10"/><ellipse cx="81.9951" cy="26" fill="#B4A7E5" rx="11" ry="11" style="stroke:#181818;stroke-width:1;"/><path d="M82.9482,22.6406 L82.9482,29.2969 L84.667,29.2969 Q85.2764,29.2969 85.542,29.5313 Q85.8076,29.7656 85.8076,30.1563 Q85.8076,30.5313 85.542,30.7656 Q85.2764,31 84.667,31 L79.5264,31 Q78.917,31 78.6514,30.7656 Q78.3857,30.5313 78.3857,30.1406 Q78.3857,29.7656 78.6514,29.5313 Q78.917,29.2969 79.5264,29.2969 L81.2451,29.2969 L81.2451,22.6406 L79.5264,22.6406 Q78.917,22.6406 78.6514,22.4063 Q78.3857,22.1719 78.3857,21.7813 Q78.3857,21.4063 78.6514,21.1719 Q78.917,20.9375 79.5264,20.9375 L84.667,20.9375 Q85.2764,20.9375 85.542,21.1719 Q85.8076,21.4063 85.8076,21.7813 Q85.8076,22.1719 85.542,22.4063 Q85.2764,22.6406 84.667,22.6406 L82.9482,22.6406 Z " fill="#000000"/><text fill="#E0E0E0" font-family="sans-serif" font-size="14" font-style="italic" lengthAdjust="spacing" textLength="47.4688" x="102.4951" y="31.4995">Mapper</text><rect fill="#2D2D2D" height="16.7012" style="stroke:#8A8A8A;stroke-width:1;stroke-dasharray:2,2;" width="81.3711" x="208.459" y="7"/><text fill="#000000" font-family="sans-serif" font-size="12" font-style="italic" lengthAdjust="spacing" textLength="79.3711" x="209.459" y="20.0645">Source, Target</text><line style="stroke:#8A8A8A;stroke-width:0.5;" x1="17.5" x2="285.8301" y1="42" y2="42"/><line style="stroke:#8A8A8A;stroke-width:0.5;" x1="17.5" x2="285.8301" y1="50" y2="50"/><ellipse cx="27.5" cy="64.0757" fill="#84BE84" rx="3" ry="3" style="stroke:#038048;stroke-width:1;"/><text fill="#FFFFFF" font-family="sans-serif" font-size="14" lengthAdjust="spacing" textLength="244.3301" x="36.5" y="68.0752">void map(Source source, Target target)</text></g><!--class ToDTOMapper--><g class="entity" data-entity="ToDTOMapper" data-source-line="17" data-uid="ent0003" id="entity_ToDTOMapper"><rect fill="#2D2D2D" height="65.1514" rx="2.5" ry="2.5" style="stroke:#8A8A8A;stroke-width:0.5;" width="232.1582" x="321.5" y="10"/><ellipse cx="351.2511" cy="26" fill="#B4A7E5" rx="11" ry="11" style="stroke:#181818;stroke-width:1;"/><path d="M352.2042,22.6406 L352.2042,29.2969 L353.923,29.2969 Q354.5324,29.2969 354.798,29.5313 Q355.0636,29.7656 355.0636,30.1563 Q355.0636,30.5313 354.798,30.7656 Q354.5324,31 353.923,31 L348.7824,31 Q348.173,31 347.9074,30.7656 Q347.6417,30.5313 347.6417,30.1406 Q347.6417,29.7656 347.9074,29.5313 Q348.173,29.2969 348.7824,29.2969 L350.5011,29.2969 L350.5011,22.6406 L348.7824,22.6406 Q348.173,22.6406 347.9074,22.4063 Q347.6417,22.1719 347.6417,21.7813 Q347.6417,21.4063 347.9074,21.1719 Q348.173,20.9375 348.7824,20.9375 L353.923,20.9375 Q354.5324,20.9375 354.798,21.1719 Q355.0636,21.4063 355.0636,21.7813 Q355.0636,22.1719 354.798,22.4063 Q354.5324,22.6406 353.923,22.6406 L352.2042,22.6406 Z " fill="#000000"/><text fill="#E0E0E0" font-family="sans-serif" font-size="14" font-style="italic" lengthAdjust="spacing" textLength="93.3584" x="368.5292" y="31.4995">ToDTOMapper</text><rect fill="#2D2D2D" height="16.7012" style="stroke:#8A8A8A;stroke-width:1;stroke-dasharray:2,2;" width="72.0195" x="484.6387" y="7"/><text fill="#000000" font-family="sans-serif" font-size="12" font-style="italic" lengthAdjust="spacing" textLength="70.0195" x="485.6387" y="20.0645">Source, DTO</text><line style="stroke:#8A8A8A;stroke-width:0.5;" x1="322.5" x2="552.6582" y1="42" y2="42"/><line style="stroke:#8A8A8A;stroke-width:0.5;" x1="322.5" x2="552.6582" y1="50" y2="50"/><ellipse cx="332.5" cy="64.0757" fill="#84BE84" rx="3" ry="3" style="stroke:#038048;stroke-width:1;"/><text fill="#FFFFFF" font-family="sans-serif" font-size="14" lengthAdjust="spacing" textLength="206.1582" x="341.5" y="68.0752">DTO mapToDTO(Source source)</text></g><!--class CustomerToCustomerProfileResponseBodyMapper--><g class="entity" data-entity="CustomerToCustomerProfileResponseBodyMapper" data-source-line="20" data-uid="ent0004" id="entity_CustomerToCustomerProfileResponseBodyMapper"><rect fill="#2D2D2D" height="82.3027" rx="2.5" ry="2.5" style="stroke:#8A8A8A;stroke-width:0.5;" width="441.5088" x="73.5" y="135"/><ellipse cx="130.1016" cy="151" fill="#B4A7E5" rx="11" ry="11" style="stroke:#181818;stroke-width:1;"/><path d="M131.0547,147.6406 L131.0547,154.2969 L132.7734,154.2969 Q133.3828,154.2969 133.6484,154.5313 Q133.9141,154.7656 133.9141,155.1563 Q133.9141,155.5313 133.6484,155.7656 Q133.3828,156 132.7734,156 L127.6328,156 Q127.0234,156 126.7578,155.7656 Q126.4922,155.5313 126.4922,155.1406 Q126.4922,154.7656 126.7578,154.5313 Q127.0234,154.2969 127.6328,154.2969 L129.3516,154.2969 L129.3516,147.6406 L127.6328,147.6406 Q127.0234,147.6406 126.7578,147.4063 Q126.4922,147.1719 126.4922,146.7813 Q126.4922,146.4063 126.7578,146.1719 Q127.0234,145.9375 127.6328,145.9375 L132.7734,145.9375 Q133.3828,145.9375 133.6484,146.1719 Q133.9141,146.4063 133.9141,146.7813 Q133.9141,147.1719 133.6484,147.4063 Q133.3828,147.6406 132.7734,147.6406 L131.0547,147.6406 Z " fill="#000000"/><text fill="#E0E0E0" font-family="sans-serif" font-size="14" font-style="italic" lengthAdjust="spacing" textLength="319.8057" x="150.6016" y="156.4995">CustomerToCustomerProfileResponseBodyMapper</text><line style="stroke:#8A8A8A;stroke-width:0.5;" x1="74.5" x2="514.0088" y1="167" y2="167"/><line style="stroke:#8A8A8A;stroke-width:0.5;" x1="74.5" x2="514.0088" y1="175" y2="175"/><ellipse cx="84.5" cy="189.0757" fill="#84BE84" rx="3" ry="3" style="stroke:#038048;stroke-width:1;"/><text fill="#FFFFFF" font-family="sans-serif" font-size="14" lengthAdjust="spacing" textLength="415.5088" x="93.5" y="193.0752">void map(Customer source, CustomerProfileResponseBody target)</text><ellipse cx="84.5" cy="206.2271" fill="#84BE84" rx="3" ry="3" style="stroke:#038048;stroke-width:1;"/><text fill="#FFFFFF" font-family="sans-serif" font-size="14" lengthAdjust="spacing" textLength="403.7988" x="93.5" y="210.2266">CustomerProfileResponseBody mapToDTO(Customer customer)</text></g><!--class DefaultCustomerToCustomerProfileResponseBodyMapper--><g class="entity" data-entity="DefaultCustomerToCustomerProfileResponseBodyMapper" data-source-line="25" data-uid="ent0007" id="entity_DefaultCustomerToCustomerProfileResponseBodyMapper"><rect fill="#2D2D2D" height="133.7568" rx="2.5" ry="2.5" style="stroke:#8A8A8A;stroke-width:0.5;" width="575.3428" x="7" y="277"/><ellipse cx="108.3394" cy="293" fill="#ADD1B2" rx="11" ry="11" style="stroke:#181818;stroke-width:1;"/><path d="M111.105,288.875 Q111.2612,288.6563 111.4487,288.5469 Q111.6362,288.4375 111.855,288.4375 Q112.23,288.4375 112.4644,288.7031 Q112.6987,288.9531 112.6987,289.5625 L112.6987,291.0156 Q112.6987,291.625 112.4644,291.8906 Q112.23,292.1563 111.855,292.1563 Q111.5112,292.1563 111.3081,291.9531 Q111.105,291.7656 110.9956,291.25 Q110.9487,290.8906 110.7612,290.7031 Q110.4331,290.3281 109.8237,290.1094 Q109.2144,289.8906 108.5894,289.8906 Q107.8237,289.8906 107.1831,290.2188 Q106.5581,290.5469 106.0581,291.2969 Q105.5737,292.0469 105.5737,293.0781 L105.5737,294.1719 Q105.5737,295.4063 106.4644,296.2344 Q107.355,297.0469 108.9487,297.0469 Q109.8862,297.0469 110.5425,296.7969 Q110.9331,296.6406 111.355,296.2031 Q111.6206,295.9375 111.7612,295.8594 Q111.9175,295.7813 112.1206,295.7813 Q112.4487,295.7813 112.6987,296.0469 Q112.9644,296.2969 112.9644,296.6406 Q112.9644,296.9844 112.6206,297.3906 Q112.1206,297.9688 111.3237,298.2969 Q110.2456,298.75 108.9487,298.75 Q107.4331,298.75 106.23,298.125 Q105.2456,297.625 104.5581,296.5625 Q103.8706,295.4844 103.8706,294.2031 L103.8706,293.0469 Q103.8706,291.7188 104.48,290.5781 Q105.105,289.4219 106.1987,288.8125 Q107.2925,288.1875 108.5269,288.1875 Q109.2612,288.1875 109.9019,288.3594 Q110.5581,288.5156 111.105,288.875 Z " fill="#000000"/><text fill="#E0E0E0" font-family="sans-serif" font-size="14" lengthAdjust="spacing" textLength="364.1641" x="128.8394" y="298.4995">DefaultCustomerToCustomerProfileResponseBodyMapper</text><line style="stroke:#8A8A8A;stroke-width:0.5;" x1="8" x2="581.3428" y1="309" y2="309"/><line style="stroke:#8A8A8A;stroke-width:0.5;" x1="8" x2="581.3428" y1="317" y2="317"/><ellipse cx="18" cy="331.0757" fill="#84BE84" rx="3" ry="3" style="stroke:#038048;stroke-width:1;"/><text fill="#FFFFFF" font-family="sans-serif" font-size="14" lengthAdjust="spacing" textLength="403.7988" x="27" y="335.0752">CustomerProfileResponseBody mapToDTO(Customer customer)</text><ellipse cx="18" cy="348.2271" fill="#84BE84" rx="3" ry="3" style="stroke:#038048;stroke-width:1;"/><text fill="#FFFFFF" font-family="sans-serif" font-size="14" lengthAdjust="spacing" textLength="484.7637" x="27" y="352.2266">void map(Customer customer, CustomerProfileResponseBody responseBody)</text><rect fill="#F24D5C" height="6" style="stroke:#C82930;stroke-width:1;" width="6" x="15" y="362.3784"/><text fill="#FFFFFF" font-family="sans-serif" font-size="14" lengthAdjust="spacing" textLength="549.3428" x="27" y="369.3779">void mapUsername(Customer customer, CustomerProfileResponseBody responseBody)</text><rect fill="#F24D5C" height="6" style="stroke:#C82930;stroke-width:1;" width="6" x="15" y="379.5298"/><text fill="#FFFFFF" font-family="sans-serif" font-size="14" lengthAdjust="spacing" textLength="549.3223" x="27" y="386.5293">void mapFirstName(Customer customer, CustomerProfileResponseBody responseBody)</text><rect fill="#F24D5C" height="6" style="stroke:#C82930;stroke-width:1;" width="6" x="15" y="396.6812"/><text fill="#FFFFFF" font-family="sans-serif" font-size="14" lengthAdjust="spacing" textLength="548.5703" x="27" y="403.6807">void mapLastName(Customer customer, CustomerProfileResponseBody responseBody)</text></g><!--reverse link Mapper to CustomerToCustomerProfileResponseBodyMapper--><g class="link" data-entity-1="Mapper" data-entity-2="CustomerToCustomerProfileResponseBodyMapper" data-source-line="21" data-uid="lnk5" id="link_Mapper_CustomerToCustomerProfileResponseBodyMapper"><path d="M180,93.16 C180,111.07 180,115.45 180,134.58" fill="none" id="Mapper-backto-CustomerToCustomerProfileResponseBodyMapper" style="stroke:#B0C4DE;stroke-width:1;"/><polygon fill="none" points="180,75.16,174,93.16,186,93.16,180,75.16" style="stroke:#B0C4DE;stroke-width:1;"/></g><!--reverse link ToDTOMapper to CustomerToCustomerProfileResponseBodyMapper--><g class="link" data-entity-1="ToDTOMapper" data-entity-2="CustomerToCustomerProfileResponseBodyMapper" data-source-line="21" data-uid="lnk6" id="link_ToDTOMapper_CustomerToCustomerProfileResponseBodyMapper"><path d="M418.5,93.16 C418.5,111.07 418.5,115.45 418.5,134.58" fill="none" id="ToDTOMapper-backto-CustomerToCustomerProfileResponseBodyMapper" style="stroke:#B0C4DE;stroke-width:1;"/><polygon fill="none" points="418.5,75.16,412.5,93.16,424.5,93.16,418.5,75.16" style="stroke:#B0C4DE;stroke-width:1;"/></g><!--reverse link CustomerToCustomerProfileResponseBodyMapper to DefaultCustomerToCustomerProfileResponseBodyMapper--><g class="link" data-entity-1="CustomerToCustomerProfileResponseBodyMapper" data-entity-2="DefaultCustomerToCustomerProfileResponseBodyMapper" data-source-line="26" data-uid="lnk8" id="link_CustomerToCustomerProfileResponseBodyMapper_DefaultCustomerToCustomerProfileResponseBodyMapper"><path d="M294.5,235.1 C294.5,253.07 294.5,256.62 294.5,276.82" fill="none" id="CustomerToCustomerProfileResponseBodyMapper-backto-DefaultCustomerToCustomerProfileResponseBodyMapper" style="stroke:#B0C4DE;stroke-width:1;stroke-dasharray:7,7;"/><polygon fill="none" points="294.5,217.1,288.5,235.1,300.5,235.1,294.5,217.1" style="stroke:#B0C4DE;stroke-width:1;"/></g><!--SRC=[hP9HJy8m4CVVzodE-28H3HeVV0K6JwB6p0zGrjjew7hBjHC9uRkxiW4DHWYHNRAqT__-slktTgvCALWKe9L1jomHYDsC8hihJ4Kwpvag8uUaYU7wOUGZK4ZCHALTWj-khrLk2ZGEqlg77AZwpBHe4OFUy2aE4NOc92sKoI4Jsc9G6PDnxQhnvWjggHRMdXJqdMCrhHoUL4wmRbt-bXtgO1K130vzUOnz-0gnH6wpptqVTJR0Zde-edKKNIcJwaeYJ4HP8j-NLQ7toOJYv2siHCgRceaKOLXPHmLoGjlHErEcD7wWBSbO791SDckXlXWqqhQRT4FkfXM0M_WY9Q4GvSqM1vOgJh4BH_ZW1EVeEYtZcB96RxRTyzDsqF56DBx6pKiwfpTLb1hzYxDdMRBwvv7_CcshE6uR1vE6TRTZVLfa8mgy97EisBhN2qDVn2MOwny0]--></g></svg>