<svg xmlns="http://www.w3.org/2000/svg" contentStyleType="text/css" data-diagram-type="CLASS" height="633.6px"
     preserveAspectRatio="none" style="width:2426px;height:633px;background:#1E1E1E;" version="1.1"
     viewBox="0 0 2426 633" width="2426.4px" zoomAndPan="magnify"><defs/><g><rect fill="#1E1E1E" height="633.6" style="stroke:none;stroke-width:0.8;" width="2426.4" x="0" y="0"/><!--class JpaRepository--><g class="entity" data-entity="JpaRepository" data-source-line="17" data-uid="ent0002" id="entity_JpaRepository"><rect fill="#2D2D2D" height="38.4" rx="2" ry="2" style="stroke:#8A8A8A;stroke-width:0.4;" width="121.1898" x="124" y="60.4"/><ellipse cx="136" cy="73.2" fill="#B4A7E5" rx="8.8" ry="8.8" style="stroke:#181818;stroke-width:0.8;"/><path d="M136.7625,70.5125 L136.7625,75.8375 L138.1375,75.8375 Q138.625,75.8375 138.8375,76.025 Q139.05,76.2125 139.05,76.525 Q139.05,76.825 138.8375,77.0125 Q138.625,77.2 138.1375,77.2 L134.025,77.2 Q133.5375,77.2 133.325,77.0125 Q133.1125,76.825 133.1125,76.5125 Q133.1125,76.2125 133.325,76.025 Q133.5375,75.8375 134.025,75.8375 L135.4,75.8375 L135.4,70.5125 L134.025,70.5125 Q133.5375,70.5125 133.325,70.325 Q133.1125,70.1375 133.1125,69.825 Q133.1125,69.525 133.325,69.3375 Q133.5375,69.15 134.025,69.15 L138.1375,69.15 Q138.625,69.15 138.8375,69.3375 Q139.05,69.525 139.05,69.825 Q139.05,70.1375 138.8375,70.325 Q138.625,70.5125 138.1375,70.5125 L136.7625,70.5125 Z " fill="#000000"/><text fill="#E0E0E0" font-family="sans-serif" font-size="11.2" font-style="italic" lengthAdjust="spacing" textLength="71.5914" x="147.2" y="77.5996">JpaRepository</text><rect fill="#2D2D2D" height="13.3609" style="stroke:#8A8A8A;stroke-width:0.8;stroke-dasharray:1.6,1.6;" width="22.3984" x="225.1914" y="58"/><text fill="#000000" font-family="sans-serif" font-size="9.6" font-style="italic" lengthAdjust="spacing" textLength="20.7984" x="225.9914" y="68.4516">T, ID</text><line style="stroke:#8A8A8A;stroke-width:0.4;" x1="124.8" x2="244.3898" y1="86" y2="86"/><line style="stroke:#8A8A8A;stroke-width:0.4;" x1="124.8" x2="244.3898" y1="92.4" y2="92.4"/></g><!--class CustomerRepositoryV1--><g class="entity" data-entity="CustomerRepositoryV1" data-source-line="19" data-uid="ent0003" id="entity_CustomerRepositoryV1"><rect fill="#2D2D2D" height="79.5633" rx="2" ry="2" style="stroke:#8A8A8A;stroke-width:0.4;" width="357.582" x="5.6" y="277.2"/><ellipse cx="123.1016" cy="290" fill="#B4A7E5" rx="8.8" ry="8.8" style="stroke:#181818;stroke-width:0.8;"/><path d="M123.8641,287.3125 L123.8641,292.6375 L125.2391,292.6375 Q125.7266,292.6375 125.9391,292.825 Q126.1516,293.0125 126.1516,293.325 Q126.1516,293.625 125.9391,293.8125 Q125.7266,294 125.2391,294 L121.1266,294 Q120.6391,294 120.4266,293.8125 Q120.2141,293.625 120.2141,293.3125 Q120.2141,293.0125 120.4266,292.825 Q120.6391,292.6375 121.1266,292.6375 L122.5016,292.6375 L122.5016,287.3125 L121.1266,287.3125 Q120.6391,287.3125 120.4266,287.125 Q120.2141,286.9375 120.2141,286.625 Q120.2141,286.325 120.4266,286.1375 Q120.6391,285.95 121.1266,285.95 L125.2391,285.95 Q125.7266,285.95 125.9391,286.1375 Q126.1516,286.325 126.1516,286.625 Q126.1516,286.9375 125.9391,287.125 Q125.7266,287.3125 125.2391,287.3125 L123.8641,287.3125 Z " fill="#000000"/><text fill="#E0E0E0" font-family="sans-serif" font-size="11.2" font-style="italic" lengthAdjust="spacing" textLength="115.7789" x="139.5016" y="294.3996">CustomerRepositoryV1</text><line style="stroke:#8A8A8A;stroke-width:0.4;" x1="6.4" x2="362.382" y1="302.8" y2="302.8"/><line style="stroke:#8A8A8A;stroke-width:0.4;" x1="6.4" x2="362.382" y1="309.2" y2="309.2"/><ellipse cx="14.4" cy="320.4605" fill="#84BE84" rx="2.4" ry="2.4" style="stroke:#038048;stroke-width:0.8;"/><text fill="#FFFFFF" font-family="sans-serif" font-size="11.2" lengthAdjust="spacing" textLength="336.782" x="21.6" y="323.6602">Optional&lt;Customer&gt; findByUsernameIgnoreCase(String username)</text><ellipse cx="14.4" cy="334.1816" fill="#84BE84" rx="2.4" ry="2.4" style="stroke:#038048;stroke-width:0.8;"/><text fill="#FFFFFF" font-family="sans-serif" font-size="11.2" lengthAdjust="spacing" textLength="328.1031" x="21.6" y="337.3813">Page&lt;Customer&gt; findCustomer(String query, Pageable pageable)</text><ellipse cx="14.4" cy="347.9027" fill="#84BE84" rx="2.4" ry="2.4" style="stroke:#038048;stroke-width:0.8;"/><text fill="#FFFFFF" font-family="sans-serif" font-size="11.2" lengthAdjust="spacing" textLength="208.5398" x="21.6" y="351.1023">void deleteByUsername(String username)</text></g><!--class PasswordEncoder--><g class="entity" data-entity="PasswordEncoder" data-source-line="17" data-uid="ent0005" id="entity_PasswordEncoder"><rect fill="#2D2D2D" height="79.5633" rx="2" ry="2" style="stroke:#8A8A8A;stroke-width:0.4;" width="393.0852" x="391.2" y="277.2"/><ellipse cx="538.8973" cy="290" fill="#B4A7E5" rx="8.8" ry="8.8" style="stroke:#181818;stroke-width:0.8;"/><path d="M539.6598,287.3125 L539.6598,292.6375 L541.0348,292.6375 Q541.5223,292.6375 541.7348,292.825 Q541.9473,293.0125 541.9473,293.325 Q541.9473,293.625 541.7348,293.8125 Q541.5223,294 541.0348,294 L536.9223,294 Q536.4348,294 536.2223,293.8125 Q536.0098,293.625 536.0098,293.3125 Q536.0098,293.0125 536.2223,292.825 Q536.4348,292.6375 536.9223,292.6375 L538.2973,292.6375 L538.2973,287.3125 L536.9223,287.3125 Q536.4348,287.3125 536.2223,287.125 Q536.0098,286.9375 536.0098,286.625 Q536.0098,286.325 536.2223,286.1375 Q536.4348,285.95 536.9223,285.95 L541.0348,285.95 Q541.5223,285.95 541.7348,286.1375 Q541.9473,286.325 541.9473,286.625 Q541.9473,286.9375 541.7348,287.125 Q541.5223,287.3125 541.0348,287.3125 L539.6598,287.3125 Z " fill="#000000"/><text fill="#E0E0E0" font-family="sans-serif" font-size="11.2" font-style="italic" lengthAdjust="spacing" textLength="90.8906" x="555.2973" y="294.3996">PasswordEncoder</text><line style="stroke:#8A8A8A;stroke-width:0.4;" x1="392" x2="783.4852" y1="302.8" y2="302.8"/><line style="stroke:#8A8A8A;stroke-width:0.4;" x1="392" x2="783.4852" y1="309.2" y2="309.2"/><ellipse cx="400" cy="320.4605" fill="#84BE84" rx="2.4" ry="2.4" style="stroke:#038048;stroke-width:0.8;"/><text fill="#FFFFFF" font-family="sans-serif" font-size="11.2" lengthAdjust="spacing" textLength="221.6266" x="407.2" y="323.6602">String encode(CharSequence rawPassword)</text><ellipse cx="400" cy="334.1816" fill="#84BE84" rx="2.4" ry="2.4" style="stroke:#038048;stroke-width:0.8;"/><text fill="#FFFFFF" font-family="sans-serif" font-size="11.2" lengthAdjust="spacing" textLength="372.2852" x="407.2" y="337.3813">boolean matches((CharSequence rawPassword, String encodedPassword)</text><ellipse cx="400" cy="347.9027" fill="#84BE84" rx="2.4" ry="2.4" style="stroke:#038048;stroke-width:0.8;"/><text fill="#FFFFFF" font-family="sans-serif" font-size="11.2" lengthAdjust="spacing" textLength="262.757" x="407.2" y="351.1023">boolean upgradeEncoding(String encodedPassword)</text></g><!--class Mapper--><g class="entity" data-entity="Mapper" data-source-line="17" data-uid="ent0006" id="entity_Mapper"><rect fill="#2D2D2D" height="52.1211" rx="2" ry="2" style="stroke:#8A8A8A;stroke-width:0.4;" width="216.2641" x="1647.6" y="53.6"/><ellipse cx="1699.9961" cy="66.4" fill="#B4A7E5" rx="8.8" ry="8.8" style="stroke:#181818;stroke-width:0.8;"/><path d="M1700.7586,63.7125 L1700.7586,69.0375 L1702.1336,69.0375 Q1702.6211,69.0375 1702.8336,69.225 Q1703.0461,69.4125 1703.0461,69.725 Q1703.0461,70.025 1702.8336,70.2125 Q1702.6211,70.4 1702.1336,70.4 L1698.0211,70.4 Q1697.5336,70.4 1697.3211,70.2125 Q1697.1086,70.025 1697.1086,69.7125 Q1697.1086,69.4125 1697.3211,69.225 Q1697.5336,69.0375 1698.0211,69.0375 L1699.3961,69.0375 L1699.3961,63.7125 L1698.0211,63.7125 Q1697.5336,63.7125 1697.3211,63.525 Q1697.1086,63.3375 1697.1086,63.025 Q1697.1086,62.725 1697.3211,62.5375 Q1697.5336,62.35 1698.0211,62.35 L1702.1336,62.35 Q1702.6211,62.35 1702.8336,62.5375 Q1703.0461,62.725 1703.0461,63.025 Q1703.0461,63.3375 1702.8336,63.525 Q1702.6211,63.7125 1702.1336,63.7125 L1700.7586,63.7125 Z " fill="#000000"/><text fill="#E0E0E0" font-family="sans-serif" font-size="11.2" font-style="italic" lengthAdjust="spacing" textLength="37.975" x="1716.3961" y="70.7996">Mapper</text><rect fill="#2D2D2D" height="13.3609" style="stroke:#8A8A8A;stroke-width:0.8;stroke-dasharray:1.6,1.6;" width="65.0969" x="1801.1672" y="51.2"/><text fill="#000000" font-family="sans-serif" font-size="9.6" font-style="italic" lengthAdjust="spacing" textLength="63.4969" x="1801.9672" y="61.6516">Source, Target</text><line style="stroke:#8A8A8A;stroke-width:0.4;" x1="1648.4" x2="1863.0641" y1="79.2" y2="79.2"/><line style="stroke:#8A8A8A;stroke-width:0.4;" x1="1648.4" x2="1863.0641" y1="85.6" y2="85.6"/><ellipse cx="1656.4" cy="96.8605" fill="#84BE84" rx="2.4" ry="2.4" style="stroke:#038048;stroke-width:0.8;"/><text fill="#FFFFFF" font-family="sans-serif" font-size="11.2" lengthAdjust="spacing" textLength="195.4641" x="1663.6" y="100.0602">void map(Source source, Target target)</text></g><!--class ToEntityMapper--><g class="entity" data-entity="ToEntityMapper" data-source-line="17" data-uid="ent0007" id="entity_ToEntityMapper"><rect fill="#2D2D2D" height="52.1211" rx="2" ry="2" style="stroke:#8A8A8A;stroke-width:0.4;" width="183.2656" x="1980" y="53.6"/><ellipse cx="1999.0418" cy="66.4" fill="#B4A7E5" rx="8.8" ry="8.8" style="stroke:#181818;stroke-width:0.8;"/><path d="M1999.8043,63.7125 L1999.8043,69.0375 L2001.1793,69.0375 Q2001.6668,69.0375 2001.8793,69.225 Q2002.0918,69.4125 2002.0918,69.725 Q2002.0918,70.025 2001.8793,70.2125 Q2001.6668,70.4 2001.1793,70.4 L1997.0668,70.4 Q1996.5793,70.4 1996.3668,70.2125 Q1996.1543,70.025 1996.1543,69.7125 Q1996.1543,69.4125 1996.3668,69.225 Q1996.5793,69.0375 1997.0668,69.0375 L1998.4418,69.0375 L1998.4418,63.7125 L1997.0668,63.7125 Q1996.5793,63.7125 1996.3668,63.525 Q1996.1543,63.3375 1996.1543,63.025 Q1996.1543,62.725 1996.3668,62.5375 Q1996.5793,62.35 1997.0668,62.35 L2001.1793,62.35 Q2001.6668,62.35 2001.8793,62.5375 Q2002.0918,62.725 2002.0918,63.025 Q2002.0918,63.3375 2001.8793,63.525 Q2001.6668,63.7125 2001.1793,63.7125 L1999.8043,63.7125 Z " fill="#000000"/><text fill="#E0E0E0" font-family="sans-serif" font-size="11.2" font-style="italic" lengthAdjust="spacing" textLength="79.0563" x="2011.8066" y="70.7996">ToEntityMapper</text><rect fill="#2D2D2D" height="13.3609" style="stroke:#8A8A8A;stroke-width:0.8;stroke-dasharray:1.6,1.6;" width="61.3609" x="2104.3047" y="51.2"/><text fill="#000000" font-family="sans-serif" font-size="9.6" font-style="italic" lengthAdjust="spacing" textLength="59.7609" x="2105.1047" y="61.6516">Source, Entity</text><line style="stroke:#8A8A8A;stroke-width:0.4;" x1="1980.8" x2="2162.4656" y1="79.2" y2="79.2"/><line style="stroke:#8A8A8A;stroke-width:0.4;" x1="1980.8" x2="2162.4656" y1="85.6" y2="85.6"/><text fill="#FFFFFF" font-family="sans-serif" font-size="11.2" lengthAdjust="spacing" textLength="173.6656" x="1984.8" y="100.0602">Entity mapToEntity(Source source)</text></g><!--class CreateCustomerRequestBodyToCustomerMapper--><g class="entity" data-entity="CreateCustomerRequestBodyToCustomerMapper" data-source-line="20" data-uid="ent0008" id="entity_CreateCustomerRequestBodyToCustomerMapper"><rect fill="#2D2D2D" height="65.8422" rx="2" ry="2" style="stroke:#8A8A8A;stroke-width:0.4;" width="358.1891" x="1532.4" y="284"/><ellipse cx="1583.5957" cy="296.8" fill="#B4A7E5" rx="8.8" ry="8.8" style="stroke:#181818;stroke-width:0.8;"/><path d="M1584.3582,294.1125 L1584.3582,299.4375 L1585.7332,299.4375 Q1586.2207,299.4375 1586.4332,299.625 Q1586.6457,299.8125 1586.6457,300.125 Q1586.6457,300.425 1586.4332,300.6125 Q1586.2207,300.8 1585.7332,300.8 L1581.6207,300.8 Q1581.1332,300.8 1580.9207,300.6125 Q1580.7082,300.425 1580.7082,300.1125 Q1580.7082,299.8125 1580.9207,299.625 Q1581.1332,299.4375 1581.6207,299.4375 L1582.9957,299.4375 L1582.9957,294.1125 L1581.6207,294.1125 Q1581.1332,294.1125 1580.9207,293.925 Q1580.7082,293.7375 1580.7082,293.425 Q1580.7082,293.125 1580.9207,292.9375 Q1581.1332,292.75 1581.6207,292.75 L1585.7332,292.75 Q1586.2207,292.75 1586.4332,292.9375 Q1586.6457,293.125 1586.6457,293.425 Q1586.6457,293.7375 1586.4332,293.925 Q1586.2207,294.1125 1585.7332,294.1125 L1584.3582,294.1125 Z " fill="#000000"/><text fill="#E0E0E0" font-family="sans-serif" font-size="11.2" font-style="italic" lengthAdjust="spacing" textLength="248.9977" x="1599.9957" y="301.1996">CreateCustomerRequestBodyToCustomerMapper</text><line style="stroke:#8A8A8A;stroke-width:0.4;" x1="1533.2" x2="1889.7891" y1="309.6" y2="309.6"/><line style="stroke:#8A8A8A;stroke-width:0.4;" x1="1533.2" x2="1889.7891" y1="316" y2="316"/><ellipse cx="1541.2" cy="327.2605" fill="#84BE84" rx="2.4" ry="2.4" style="stroke:#038048;stroke-width:0.8;"/><text fill="#FFFFFF" font-family="sans-serif" font-size="11.2" lengthAdjust="spacing" textLength="325.5602" x="1548.4" y="330.4602">void map(CreateCustomerRequestBody source, Customer target)</text><ellipse cx="1541.2" cy="340.9816" fill="#84BE84" rx="2.4" ry="2.4" style="stroke:#038048;stroke-width:0.8;"/><text fill="#FFFFFF" font-family="sans-serif" font-size="11.2" lengthAdjust="spacing" textLength="337.3891" x="1548.4" y="344.1813">Customer mapToEntity(CreateCustomerRequestBody requestBody)</text></g><!--class DefaultCreateCustomerRequestBodyToCustomerMapper--><g class="entity" data-entity="DefaultCreateCustomerRequestBodyToCustomerMapper" data-source-line="25" data-uid="ent0011" id="entity_DefaultCreateCustomerRequestBodyToCustomerMapper"><rect fill="#2D2D2D" height="148.1688" rx="2" ry="2" style="stroke:#8A8A8A;stroke-width:0.4;" width="465.8742" x="1425.2" y="480"/><ellipse cx="1512.4949" cy="492.8" fill="#ADD1B2" rx="8.8" ry="8.8" style="stroke:#181818;stroke-width:0.8;"/><path d="M1514.7074,489.5 Q1514.8324,489.325 1514.9824,489.2375 Q1515.1324,489.15 1515.3074,489.15 Q1515.6074,489.15 1515.7949,489.3625 Q1515.9824,489.5625 1515.9824,490.05 L1515.9824,491.2125 Q1515.9824,491.7 1515.7949,491.9125 Q1515.6074,492.125 1515.3074,492.125 Q1515.0324,492.125 1514.8699,491.9625 Q1514.7074,491.8125 1514.6199,491.4 Q1514.5824,491.1125 1514.4324,490.9625 Q1514.1699,490.6625 1513.6824,490.4875 Q1513.1949,490.3125 1512.6949,490.3125 Q1512.0824,490.3125 1511.5699,490.575 Q1511.0699,490.8375 1510.6699,491.4375 Q1510.2824,492.0375 1510.2824,492.8625 L1510.2824,493.7375 Q1510.2824,494.725 1510.9949,495.3875 Q1511.7074,496.0375 1512.9824,496.0375 Q1513.7324,496.0375 1514.2574,495.8375 Q1514.5699,495.7125 1514.9074,495.3625 Q1515.1199,495.15 1515.2324,495.0875 Q1515.3574,495.025 1515.5199,495.025 Q1515.7824,495.025 1515.9824,495.2375 Q1516.1949,495.4375 1516.1949,495.7125 Q1516.1949,495.9875 1515.9199,496.3125 Q1515.5199,496.775 1514.8824,497.0375 Q1514.0199,497.4 1512.9824,497.4 Q1511.7699,497.4 1510.8074,496.9 Q1510.0199,496.5 1509.4699,495.65 Q1508.9199,494.7875 1508.9199,493.7625 L1508.9199,492.8375 Q1508.9199,491.775 1509.4074,490.8625 Q1509.9074,489.9375 1510.7824,489.45 Q1511.6574,488.95 1512.6449,488.95 Q1513.2324,488.95 1513.7449,489.0875 Q1514.2699,489.2125 1514.7074,489.5 Z " fill="#000000"/><text fill="#E0E0E0" font-family="sans-serif" font-size="11.2" lengthAdjust="spacing" textLength="284.4844" x="1528.8949" y="497.1996">DefaultCreateCustomerRequestBodyToCustomerMapper</text><line style="stroke:#8A8A8A;stroke-width:0.4;" x1="1426" x2="1890.2742" y1="505.6" y2="505.6"/><line style="stroke:#8A8A8A;stroke-width:0.4;" x1="1426" x2="1890.2742" y1="512" y2="512"/><ellipse cx="1434" cy="523.2605" fill="#84BE84" rx="2.4" ry="2.4" style="stroke:#038048;stroke-width:0.8;"/><text fill="#FFFFFF" font-family="sans-serif" font-size="11.2" lengthAdjust="spacing" textLength="337.3891" x="1441.2" y="526.4602">Customer mapToEntity(CreateCustomerRequestBody requestBody)</text><ellipse cx="1434" cy="536.9816" fill="#84BE84" rx="2.4" ry="2.4" style="stroke:#038048;stroke-width:0.8;"/><text fill="#FFFFFF" font-family="sans-serif" font-size="11.2" lengthAdjust="spacing" textLength="372.2469" x="1441.2" y="540.1813">void map(CreateCustomerRequestBody requestBody, Customer customer)</text><rect fill="#F24D5C" height="4.8" style="stroke:#C82930;stroke-width:0.8;" width="4.8" x="1431.6" y="548.3027"/><text fill="#FFFFFF" font-family="sans-serif" font-size="11.2" lengthAdjust="spacing" textLength="423.9102" x="1441.2" y="553.9023">void mapUsername(CreateCustomerRequestBody requestBody, Customer customer)</text><rect fill="#F24D5C" height="4.8" style="stroke:#C82930;stroke-width:0.8;" width="4.8" x="1431.6" y="562.0238"/><text fill="#FFFFFF" font-family="sans-serif" font-size="11.2" lengthAdjust="spacing" textLength="421.4219" x="1441.2" y="567.6234">void mapPassword(CreateCustomerRequestBody requestBody, Customer customer)</text><rect fill="#F24D5C" height="4.8" style="stroke:#C82930;stroke-width:0.8;" width="4.8" x="1431.6" y="575.7449"/><text fill="#FFFFFF" font-family="sans-serif" font-size="11.2" lengthAdjust="spacing" textLength="423.8938" x="1441.2" y="581.3445">void mapFirstName(CreateCustomerRequestBody requestBody, Customer customer)</text><rect fill="#F24D5C" height="4.8" style="stroke:#C82930;stroke-width:0.8;" width="4.8" x="1431.6" y="589.466"/><text fill="#FFFFFF" font-family="sans-serif" font-size="11.2" lengthAdjust="spacing" textLength="423.2922" x="1441.2" y="595.0656">void mapLastName(CreateCustomerRequestBody requestBody, Customer customer)</text><rect fill="#F24D5C" height="4.8" style="stroke:#C82930;stroke-width:0.8;" width="4.8" x="1431.6" y="603.1871"/><text fill="#FFFFFF" font-family="sans-serif" font-size="11.2" lengthAdjust="spacing" textLength="400.2523" x="1441.2" y="608.7867">void mapEmail(CreateCustomerRequestBody requestBody, Customer customer)</text><rect fill="#F24D5C" height="4.8" style="stroke:#C82930;stroke-width:0.8;" width="4.8" x="1431.6" y="616.9082"/><text fill="#FFFFFF" font-family="sans-serif" font-size="11.2" lengthAdjust="spacing" textLength="445.0742" x="1441.2" y="622.5078">void mapMobileNumber(CreateCustomerRequestBody requestBody, Customer customer)</text></g><!--class UpdateCustomerDetailsRequestBodyToCustomerMapper--><g class="entity" data-entity="UpdateCustomerDetailsRequestBodyToCustomerMapper" data-source-line="20" data-uid="ent0013" id="entity_UpdateCustomerDetailsRequestBodyToCustomerMapper"><rect fill="#2D2D2D" height="65.8422" rx="2" ry="2" style="stroke:#8A8A8A;stroke-width:0.4;" width="394.9227" x="1918.8" y="284"/><ellipse cx="1969.9957" cy="296.8" fill="#B4A7E5" rx="8.8" ry="8.8" style="stroke:#181818;stroke-width:0.8;"/><path d="M1970.7582,294.1125 L1970.7582,299.4375 L1972.1332,299.4375 Q1972.6207,299.4375 1972.8332,299.625 Q1973.0457,299.8125 1973.0457,300.125 Q1973.0457,300.425 1972.8332,300.6125 Q1972.6207,300.8 1972.1332,300.8 L1968.0207,300.8 Q1967.5332,300.8 1967.3207,300.6125 Q1967.1082,300.425 1967.1082,300.1125 Q1967.1082,299.8125 1967.3207,299.625 Q1967.5332,299.4375 1968.0207,299.4375 L1969.3957,299.4375 L1969.3957,294.1125 L1968.0207,294.1125 Q1967.5332,294.1125 1967.3207,293.925 Q1967.1082,293.7375 1967.1082,293.425 Q1967.1082,293.125 1967.3207,292.9375 Q1967.5332,292.75 1968.0207,292.75 L1972.1332,292.75 Q1972.6207,292.75 1972.8332,292.9375 Q1973.0457,293.125 1973.0457,293.425 Q1973.0457,293.7375 1972.8332,293.925 Q1972.6207,294.1125 1972.1332,294.1125 L1970.7582,294.1125 Z " fill="#000000"/><text fill="#E0E0E0" font-family="sans-serif" font-size="11.2" font-style="italic" lengthAdjust="spacing" textLength="285.7313" x="1986.3957" y="301.1996">UpdateCustomerDetailsRequestBodyToCustomerMapper</text><line style="stroke:#8A8A8A;stroke-width:0.4;" x1="1919.6" x2="2312.9227" y1="309.6" y2="309.6"/><line style="stroke:#8A8A8A;stroke-width:0.4;" x1="1919.6" x2="2312.9227" y1="316" y2="316"/><ellipse cx="1927.6" cy="327.2605" fill="#84BE84" rx="2.4" ry="2.4" style="stroke:#038048;stroke-width:0.8;"/><text fill="#FFFFFF" font-family="sans-serif" font-size="11.2" lengthAdjust="spacing" textLength="362.2938" x="1934.8" y="330.4602">void map(UpdateCustomerDetailsRequestBody source, Customer target)</text><ellipse cx="1927.6" cy="340.9816" fill="#84BE84" rx="2.4" ry="2.4" style="stroke:#038048;stroke-width:0.8;"/><text fill="#FFFFFF" font-family="sans-serif" font-size="11.2" lengthAdjust="spacing" textLength="374.1227" x="1934.8" y="344.1813">Customer mapToEntity(UpdateCustomerDetailsRequestBody requestBody)</text></g><!--class DefaultUpdateCustomerDetailsRequestBodyToCustomerMapper--><g class="entity" data-entity="DefaultUpdateCustomerDetailsRequestBodyToCustomerMapper" data-source-line="25" data-uid="ent0016" id="entity_DefaultUpdateCustomerDetailsRequestBodyToCustomerMapper"><rect fill="#2D2D2D" height="120.7266" rx="2" ry="2" style="stroke:#8A8A8A;stroke-width:0.4;" width="502.6078" x="1918.8" y="493.6"/><ellipse cx="2006.0949" cy="506.4" fill="#ADD1B2" rx="8.8" ry="8.8" style="stroke:#181818;stroke-width:0.8;"/><path d="M2008.3074,503.1 Q2008.4324,502.925 2008.5824,502.8375 Q2008.7324,502.75 2008.9074,502.75 Q2009.2074,502.75 2009.3949,502.9625 Q2009.5824,503.1625 2009.5824,503.65 L2009.5824,504.8125 Q2009.5824,505.3 2009.3949,505.5125 Q2009.2074,505.725 2008.9074,505.725 Q2008.6324,505.725 2008.4699,505.5625 Q2008.3074,505.4125 2008.2199,505 Q2008.1824,504.7125 2008.0324,504.5625 Q2007.7699,504.2625 2007.2824,504.0875 Q2006.7949,503.9125 2006.2949,503.9125 Q2005.6824,503.9125 2005.1699,504.175 Q2004.6699,504.4375 2004.2699,505.0375 Q2003.8824,505.6375 2003.8824,506.4625 L2003.8824,507.3375 Q2003.8824,508.325 2004.5949,508.9875 Q2005.3074,509.6375 2006.5824,509.6375 Q2007.3324,509.6375 2007.8574,509.4375 Q2008.1699,509.3125 2008.5074,508.9625 Q2008.7199,508.75 2008.8324,508.6875 Q2008.9574,508.625 2009.1199,508.625 Q2009.3824,508.625 2009.5824,508.8375 Q2009.7949,509.0375 2009.7949,509.3125 Q2009.7949,509.5875 2009.5199,509.9125 Q2009.1199,510.375 2008.4824,510.6375 Q2007.6199,511 2006.5824,511 Q2005.3699,511 2004.4074,510.5 Q2003.6199,510.1 2003.0699,509.25 Q2002.5199,508.3875 2002.5199,507.3625 L2002.5199,506.4375 Q2002.5199,505.375 2003.0074,504.4625 Q2003.5074,503.5375 2004.3824,503.05 Q2005.2574,502.55 2006.2449,502.55 Q2006.8324,502.55 2007.3449,502.6875 Q2007.8699,502.8125 2008.3074,503.1 Z " fill="#000000"/><text fill="#E0E0E0" font-family="sans-serif" font-size="11.2" lengthAdjust="spacing" textLength="321.218" x="2022.4949" y="510.7996">DefaultUpdateCustomerDetailsRequestBodyToCustomerMapper</text><line style="stroke:#8A8A8A;stroke-width:0.4;" x1="1919.6" x2="2420.6078" y1="519.2" y2="519.2"/><line style="stroke:#8A8A8A;stroke-width:0.4;" x1="1919.6" x2="2420.6078" y1="525.6" y2="525.6"/><ellipse cx="1927.6" cy="536.8605" fill="#84BE84" rx="2.4" ry="2.4" style="stroke:#038048;stroke-width:0.8;"/><text fill="#FFFFFF" font-family="sans-serif" font-size="11.2" lengthAdjust="spacing" textLength="374.1227" x="1934.8" y="540.0602">Customer mapToEntity(UpdateCustomerDetailsRequestBody requestBody)</text><ellipse cx="1927.6" cy="550.5816" fill="#84BE84" rx="2.4" ry="2.4" style="stroke:#038048;stroke-width:0.8;"/><text fill="#FFFFFF" font-family="sans-serif" font-size="11.2" lengthAdjust="spacing" textLength="408.9805" x="1934.8" y="553.7813">void map(UpdateCustomerDetailsRequestBody requestBody, Customer customer)</text><rect fill="#F24D5C" height="4.8" style="stroke:#C82930;stroke-width:0.8;" width="4.8" x="1925.2" y="561.9027"/><text fill="#FFFFFF" font-family="sans-serif" font-size="11.2" lengthAdjust="spacing" textLength="460.6273" x="1934.8" y="567.5023">void mapFirstName(UpdateCustomerDetailsRequestBody requestBody, Customer customer)</text><rect fill="#F24D5C" height="4.8" style="stroke:#C82930;stroke-width:0.8;" width="4.8" x="1925.2" y="575.6238"/><text fill="#FFFFFF" font-family="sans-serif" font-size="11.2" lengthAdjust="spacing" textLength="460.0258" x="1934.8" y="581.2234">void mapLastName(UpdateCustomerDetailsRequestBody requestBody, Customer customer)</text><rect fill="#F24D5C" height="4.8" style="stroke:#C82930;stroke-width:0.8;" width="4.8" x="1925.2" y="589.3449"/><text fill="#FFFFFF" font-family="sans-serif" font-size="11.2" lengthAdjust="spacing" textLength="436.9859" x="1934.8" y="594.9445">void mapEmail(UpdateCustomerDetailsRequestBody requestBody, Customer customer)</text><rect fill="#F24D5C" height="4.8" style="stroke:#C82930;stroke-width:0.8;" width="4.8" x="1925.2" y="603.066"/><text fill="#FFFFFF" font-family="sans-serif" font-size="11.2" lengthAdjust="spacing" textLength="481.8078" x="1934.8" y="608.6656">void mapMobileNumber(UpdateCustomerDetailsRequestBody requestBody, Customer customer)</text></g><!--class CustomerServiceV1--><g class="entity" data-entity="CustomerServiceV1" data-source-line="22" data-uid="ent0018" id="entity_CustomerServiceV1"><rect fill="#2D2D2D" height="148.1688" rx="2" ry="2" style="stroke:#8A8A8A;stroke-width:0.4;" width="539.3688" x="924.4" y="5.6"/><ellipse cx="1140.8887" cy="18.4" fill="#B4A7E5" rx="8.8" ry="8.8" style="stroke:#181818;stroke-width:0.8;"/><path d="M1141.6512,15.7125 L1141.6512,21.0375 L1143.0262,21.0375 Q1143.5137,21.0375 1143.7262,21.225 Q1143.9387,21.4125 1143.9387,21.725 Q1143.9387,22.025 1143.7262,22.2125 Q1143.5137,22.4 1143.0262,22.4 L1138.9137,22.4 Q1138.4262,22.4 1138.2137,22.2125 Q1138.0012,22.025 1138.0012,21.7125 Q1138.0012,21.4125 1138.2137,21.225 Q1138.4262,21.0375 1138.9137,21.0375 L1140.2887,21.0375 L1140.2887,15.7125 L1138.9137,15.7125 Q1138.4262,15.7125 1138.2137,15.525 Q1138.0012,15.3375 1138.0012,15.025 Q1138.0012,14.725 1138.2137,14.5375 Q1138.4262,14.35 1138.9137,14.35 L1143.0262,14.35 Q1143.5137,14.35 1143.7262,14.5375 Q1143.9387,14.725 1143.9387,15.025 Q1143.9387,15.3375 1143.7262,15.525 Q1143.5137,15.7125 1143.0262,15.7125 L1141.6512,15.7125 Z " fill="#000000"/><text fill="#E0E0E0" font-family="sans-serif" font-size="11.2" font-style="italic" lengthAdjust="spacing" textLength="99.5914" x="1157.2887" y="22.7996">CustomerServiceV1</text><line style="stroke:#8A8A8A;stroke-width:0.4;" x1="925.2" x2="1462.9688" y1="31.2" y2="31.2"/><line style="stroke:#8A8A8A;stroke-width:0.4;" x1="925.2" x2="1462.9688" y1="37.6" y2="37.6"/><ellipse cx="933.2" cy="48.8605" fill="#84BE84" rx="2.4" ry="2.4" style="stroke:#038048;stroke-width:0.8;"/><text fill="#FFFFFF" font-family="sans-serif" font-size="11.2" lengthAdjust="spacing" textLength="326.1945" x="940.4" y="52.0602">void createCustomer(CreateCustomerRequestBody requestBody)</text><ellipse cx="933.2" cy="62.5816" fill="#84BE84" rx="2.4" ry="2.4" style="stroke:#038048;stroke-width:0.8;"/><text fill="#FFFFFF" font-family="sans-serif" font-size="11.2" lengthAdjust="spacing" textLength="205.4063" x="940.4" y="65.7813">Customer getCustomer(String username)</text><ellipse cx="933.2" cy="76.3027" fill="#84BE84" rx="2.4" ry="2.4" style="stroke:#038048;stroke-width:0.8;"/><text fill="#FFFFFF" font-family="sans-serif" font-size="11.2" lengthAdjust="spacing" textLength="349.8906" x="940.4" y="79.5023">Page&lt;Customer&gt; findCustomer(String username, Pageable pageable)</text><ellipse cx="933.2" cy="90.0238" fill="#84BE84" rx="2.4" ry="2.4" style="stroke:#038048;stroke-width:0.8;"/><text fill="#FFFFFF" font-family="sans-serif" font-size="11.2" lengthAdjust="spacing" textLength="488.6875" x="940.4" y="93.2234">void updateCustomerDetails(String username, UpdateCustomerDetailsRequestBody requestBody)</text><ellipse cx="933.2" cy="103.7449" fill="#84BE84" rx="2.4" ry="2.4" style="stroke:#038048;stroke-width:0.8;"/><text fill="#FFFFFF" font-family="sans-serif" font-size="11.2" lengthAdjust="spacing" textLength="518.5688" x="940.4" y="106.9445">void updateCustomerPassword(String username, UpdateCustomerPasswordRequestBody requestBody)</text><ellipse cx="933.2" cy="117.466" fill="#84BE84" rx="2.4" ry="2.4" style="stroke:#038048;stroke-width:0.8;"/><text fill="#FFFFFF" font-family="sans-serif" font-size="11.2" lengthAdjust="spacing" textLength="328.0539" x="940.4" y="120.6656">void updateCustomerImage(String username, MultipartFile image)</text><ellipse cx="933.2" cy="131.1871" fill="#84BE84" rx="2.4" ry="2.4" style="stroke:#038048;stroke-width:0.8;"/><text fill="#FFFFFF" font-family="sans-serif" font-size="11.2" lengthAdjust="spacing" textLength="214.7633" x="940.4" y="134.3867">void restoreDefaultImage(String username)</text><ellipse cx="933.2" cy="144.9082" fill="#84BE84" rx="2.4" ry="2.4" style="stroke:#038048;stroke-width:0.8;"/><text fill="#FFFFFF" font-family="sans-serif" font-size="11.2" lengthAdjust="spacing" textLength="192.3523" x="940.4" y="148.1078">void deleteCustomer(String username)</text></g><!--class DefaultCustomerServiceV1--><g class="entity" data-entity="DefaultCustomerServiceV1" data-source-line="33" data-uid="ent0019" id="entity_DefaultCustomerServiceV1"><rect fill="#2D2D2D" height="230.4953" rx="2" ry="2" style="stroke:#8A8A8A;stroke-width:0.4;" width="539.3688" x="812.4" y="201.6"/><ellipse cx="1011.1453" cy="214.4" fill="#ADD1B2" rx="8.8" ry="8.8" style="stroke:#181818;stroke-width:0.8;"/><path d="M1013.3578,211.1 Q1013.4828,210.925 1013.6328,210.8375 Q1013.7828,210.75 1013.9578,210.75 Q1014.2578,210.75 1014.4453,210.9625 Q1014.6328,211.1625 1014.6328,211.65 L1014.6328,212.8125 Q1014.6328,213.3 1014.4453,213.5125 Q1014.2578,213.725 1013.9578,213.725 Q1013.6828,213.725 1013.5203,213.5625 Q1013.3578,213.4125 1013.2703,213 Q1013.2328,212.7125 1013.0828,212.5625 Q1012.8203,212.2625 1012.3328,212.0875 Q1011.8453,211.9125 1011.3453,211.9125 Q1010.7328,211.9125 1010.2203,212.175 Q1009.7203,212.4375 1009.3203,213.0375 Q1008.9328,213.6375 1008.9328,214.4625 L1008.9328,215.3375 Q1008.9328,216.325 1009.6453,216.9875 Q1010.3578,217.6375 1011.6328,217.6375 Q1012.3828,217.6375 1012.9078,217.4375 Q1013.2203,217.3125 1013.5578,216.9625 Q1013.7703,216.75 1013.8828,216.6875 Q1014.0078,216.625 1014.1703,216.625 Q1014.4328,216.625 1014.6328,216.8375 Q1014.8453,217.0375 1014.8453,217.3125 Q1014.8453,217.5875 1014.5703,217.9125 Q1014.1703,218.375 1013.5328,218.6375 Q1012.6703,219 1011.6328,219 Q1010.4203,219 1009.4578,218.5 Q1008.6703,218.1 1008.1203,217.25 Q1007.5703,216.3875 1007.5703,215.3625 L1007.5703,214.4375 Q1007.5703,213.375 1008.0578,212.4625 Q1008.5578,211.5375 1009.4328,211.05 Q1010.3078,210.55 1011.2953,210.55 Q1011.8828,210.55 1012.3953,210.6875 Q1012.9203,210.8125 1013.3578,211.1 Z " fill="#000000"/><text fill="#E0E0E0" font-family="sans-serif" font-size="11.2" lengthAdjust="spacing" textLength="135.0781" x="1027.5453" y="218.7996">DefaultCustomerServiceV1</text><line style="stroke:#8A8A8A;stroke-width:0.4;" x1="813.2" x2="1350.9688" y1="227.2" y2="227.2"/><rect fill="none" height="4.8" style="stroke:#C82930;stroke-width:0.8;" width="4.8" x="818.8" y="236.0605"/><text fill="#FFFFFF" font-family="sans-serif" font-size="11.2" lengthAdjust="spacing" textLength="168.0656" x="828.4" y="241.6602">CustomerRepositoryV1 repository</text><rect fill="none" height="4.8" style="stroke:#C82930;stroke-width:0.8;" width="4.8" x="818.8" y="249.7816"/><text fill="#FFFFFF" font-family="sans-serif" font-size="11.2" lengthAdjust="spacing" textLength="183.6516" x="828.4" y="255.3813">PasswordEncoder passwordEncoder</text><rect fill="none" height="4.8" style="stroke:#C82930;stroke-width:0.8;" width="4.8" x="818.8" y="263.5027"/><text fill="#FFFFFF" font-family="sans-serif" font-size="11.2" lengthAdjust="spacing" textLength="388.4563" x="828.4" y="269.1023">CreateCustomerRequestBodyToCustomerMapper createRequestBodyMapper</text><rect fill="none" height="4.8" style="stroke:#C82930;stroke-width:0.8;" width="4.8" x="818.8" y="277.2238"/><text fill="#FFFFFF" font-family="sans-serif" font-size="11.2" lengthAdjust="spacing" textLength="428.318" x="828.4" y="282.8234">UpdateCustomerDetailsRequestBodyToCustomerMapper updateRequestBodyMapper</text><rect fill="none" height="4.8" style="stroke:#C82930;stroke-width:0.8;" width="4.8" x="818.8" y="290.9449"/><text fill="#FFFFFF" font-family="sans-serif" font-size="11.2" lengthAdjust="spacing" textLength="198.5813" x="828.4" y="296.5445">ClassPathResource classPathResource</text><line style="stroke:#8A8A8A;stroke-width:0.4;" x1="813.2" x2="1350.9688" y1="302.2055" y2="302.2055"/><ellipse cx="821.2" cy="313.466" fill="#84BE84" rx="2.4" ry="2.4" style="stroke:#038048;stroke-width:0.8;"/><text fill="#FFFFFF" font-family="sans-serif" font-size="11.2" lengthAdjust="spacing" textLength="326.1945" x="828.4" y="316.6656">void createCustomer(CreateCustomerRequestBody requestBody)</text><ellipse cx="821.2" cy="327.1871" fill="#84BE84" rx="2.4" ry="2.4" style="stroke:#038048;stroke-width:0.8;"/><text fill="#FFFFFF" font-family="sans-serif" font-size="11.2" lengthAdjust="spacing" textLength="205.4063" x="828.4" y="330.3867">Customer getCustomer(String username)</text><ellipse cx="821.2" cy="340.9082" fill="#84BE84" rx="2.4" ry="2.4" style="stroke:#038048;stroke-width:0.8;"/><text fill="#FFFFFF" font-family="sans-serif" font-size="11.2" lengthAdjust="spacing" textLength="244.6445" x="828.4" y="344.1078">Page&lt;Customer&gt; getCustomer(String username)</text><ellipse cx="821.2" cy="354.6293" fill="#84BE84" rx="2.4" ry="2.4" style="stroke:#038048;stroke-width:0.8;"/><text fill="#FFFFFF" font-family="sans-serif" font-size="11.2" lengthAdjust="spacing" textLength="328.1031" x="828.4" y="357.8289">Page&lt;Customer&gt; findCustomer(String query, Pageable pageable)</text><ellipse cx="821.2" cy="368.3504" fill="#84BE84" rx="2.4" ry="2.4" style="stroke:#038048;stroke-width:0.8;"/><text fill="#FFFFFF" font-family="sans-serif" font-size="11.2" lengthAdjust="spacing" textLength="488.6875" x="828.4" y="371.55">void updateCustomerDetails(String username, UpdateCustomerDetailsRequestBody requestBody)</text><ellipse cx="821.2" cy="382.0715" fill="#84BE84" rx="2.4" ry="2.4" style="stroke:#038048;stroke-width:0.8;"/><text fill="#FFFFFF" font-family="sans-serif" font-size="11.2" lengthAdjust="spacing" textLength="518.5688" x="828.4" y="385.2711">void updateCustomerPassword(String username, UpdateCustomerPasswordRequestBody requestBody)</text><ellipse cx="821.2" cy="395.7926" fill="#84BE84" rx="2.4" ry="2.4" style="stroke:#038048;stroke-width:0.8;"/><text fill="#FFFFFF" font-family="sans-serif" font-size="11.2" lengthAdjust="spacing" textLength="328.0539" x="828.4" y="398.9922">void updateCustomerImage(String username, MultipartFile image)</text><ellipse cx="821.2" cy="409.5137" fill="#84BE84" rx="2.4" ry="2.4" style="stroke:#038048;stroke-width:0.8;"/><text fill="#FFFFFF" font-family="sans-serif" font-size="11.2" lengthAdjust="spacing" textLength="214.7633" x="828.4" y="412.7133">void restoreDefaultImage(String username)</text><ellipse cx="821.2" cy="423.2348" fill="#84BE84" rx="2.4" ry="2.4" style="stroke:#038048;stroke-width:0.8;"/><text fill="#FFFFFF" font-family="sans-serif" font-size="11.2" lengthAdjust="spacing" textLength="192.3523" x="828.4" y="426.4344">void deleteCustomer(String username)</text></g><!--class ClassPathResource--><g class="entity" data-entity="ClassPathResource" data-source-line="55" data-uid="ent0025" id="entity_ClassPathResource"><rect fill="#2D2D2D" height="38.4" rx="2" ry="2" style="stroke:#8A8A8A;stroke-width:0.4;" width="124.5789" x="1379.6" y="297.6"/><ellipse cx="1391.6" cy="310.4" fill="#ADD1B2" rx="8.8" ry="8.8" style="stroke:#181818;stroke-width:0.8;"/><path d="M1393.8125,307.1 Q1393.9375,306.925 1394.0875,306.8375 Q1394.2375,306.75 1394.4125,306.75 Q1394.7125,306.75 1394.9,306.9625 Q1395.0875,307.1625 1395.0875,307.65 L1395.0875,308.8125 Q1395.0875,309.3 1394.9,309.5125 Q1394.7125,309.725 1394.4125,309.725 Q1394.1375,309.725 1393.975,309.5625 Q1393.8125,309.4125 1393.725,309 Q1393.6875,308.7125 1393.5375,308.5625 Q1393.275,308.2625 1392.7875,308.0875 Q1392.3,307.9125 1391.8,307.9125 Q1391.1875,307.9125 1390.675,308.175 Q1390.175,308.4375 1389.775,309.0375 Q1389.3875,309.6375 1389.3875,310.4625 L1389.3875,311.3375 Q1389.3875,312.325 1390.1,312.9875 Q1390.8125,313.6375 1392.0875,313.6375 Q1392.8375,313.6375 1393.3625,313.4375 Q1393.675,313.3125 1394.0125,312.9625 Q1394.225,312.75 1394.3375,312.6875 Q1394.4625,312.625 1394.625,312.625 Q1394.8875,312.625 1395.0875,312.8375 Q1395.3,313.0375 1395.3,313.3125 Q1395.3,313.5875 1395.025,313.9125 Q1394.625,314.375 1393.9875,314.6375 Q1393.125,315 1392.0875,315 Q1390.875,315 1389.9125,314.5 Q1389.125,314.1 1388.575,313.25 Q1388.025,312.3875 1388.025,311.3625 L1388.025,310.4375 Q1388.025,309.375 1388.5125,308.4625 Q1389.0125,307.5375 1389.8875,307.05 Q1390.7625,306.55 1391.75,306.55 Q1392.3375,306.55 1392.85,306.6875 Q1393.375,306.8125 1393.8125,307.1 Z " fill="#000000"/><text fill="#E0E0E0" font-family="sans-serif" font-size="11.2" lengthAdjust="spacing" textLength="98.9789" x="1402.8" y="314.7996">ClassPathResource</text><line style="stroke:#8A8A8A;stroke-width:0.4;" x1="1380.4" x2="1503.3789" y1="323.2" y2="323.2"/><line style="stroke:#8A8A8A;stroke-width:0.4;" x1="1380.4" x2="1503.3789" y1="329.6" y2="329.6"/></g><!--reverse link JpaRepository to CustomerRepositoryV1--><g class="link" data-entity-1="JpaRepository" data-entity-2="CustomerRepositoryV1" data-source-line="20" data-uid="lnk4" id="link_JpaRepository_CustomerRepositoryV1"><path d="M184.4,113.208 C184.4,151.92 184.4,225.608 184.4,277.176" fill="none" id="JpaRepository-backto-CustomerRepositoryV1" style="stroke:#B0C4DE;stroke-width:0.8;"/><polygon fill="none" points="184.4,98.808,179.6,113.208,189.2,113.208,184.4,98.808" style="stroke:#B0C4DE;stroke-width:0.8;"/></g><!--reverse link Mapper to CreateCustomerRequestBodyToCustomerMapper--><g class="link" data-entity-1="Mapper" data-entity-2="CreateCustomerRequestBodyToCustomerMapper" data-source-line="21" data-uid="lnk9" id="link_Mapper_CreateCustomerRequestBodyToCustomerMapper"><path d="M1755.6,120.064 C1755.6,163.512 1755.6,236.256 1755.6,283.872" fill="none" id="Mapper-backto-CreateCustomerRequestBodyToCustomerMapper" style="stroke:#B0C4DE;stroke-width:0.8;"/><polygon fill="none" points="1755.6,105.664,1750.8,120.064,1760.4,120.064,1755.6,105.664" style="stroke:#B0C4DE;stroke-width:0.8;"/></g><!--reverse link ToEntityMapper to CreateCustomerRequestBodyToCustomerMapper--><g class="link" data-entity-1="ToEntityMapper" data-entity-2="CreateCustomerRequestBodyToCustomerMapper" data-source-line="21" data-uid="lnk10" id="link_ToEntityMapper_CreateCustomerRequestBodyToCustomerMapper"><path d="M1965.408,88.8 C1915.072,88.8 1877.2,88.8 1877.2,88.8 C1877.2,88.8 1877.2,220.752 1877.2,283.888" fill="none" id="ToEntityMapper-backto-CreateCustomerRequestBodyToCustomerMapper" style="stroke:#B0C4DE;stroke-width:0.8;"/><polygon fill="none" points="1979.808,88.8,1965.408,84,1965.408,93.6,1979.808,88.8" style="stroke:#B0C4DE;stroke-width:0.8;"/></g><!--reverse link CreateCustomerRequestBodyToCustomerMapper to DefaultCreateCustomerRequestBodyToCustomerMapper--><g class="link" data-entity-1="CreateCustomerRequestBodyToCustomerMapper" data-entity-2="DefaultCreateCustomerRequestBodyToCustomerMapper" data-source-line="26" data-uid="lnk12" id="link_CreateCustomerRequestBodyToCustomerMapper_DefaultCreateCustomerRequestBodyToCustomerMapper"><path d="M1711.6,364.184 C1711.6,397.664 1711.6,436.232 1711.6,479.832" fill="none" id="CreateCustomerRequestBodyToCustomerMapper-backto-DefaultCreateCustomerRequestBodyToCustomerMapper" style="stroke:#B0C4DE;stroke-width:0.8;stroke-dasharray:5.6,5.6;"/><polygon fill="none" points="1711.6,349.784,1706.8,364.184,1716.4,364.184,1711.6,349.784" style="stroke:#B0C4DE;stroke-width:0.8;"/></g><!--reverse link Mapper to UpdateCustomerDetailsRequestBodyToCustomerMapper--><g class="link" data-entity-1="Mapper" data-entity-2="UpdateCustomerDetailsRequestBodyToCustomerMapper" data-source-line="21" data-uid="lnk14" id="link_Mapper_UpdateCustomerDetailsRequestBodyToCustomerMapper"><path d="M1878.272,71.2 C1927.096,71.2 1959.6,71.2 1959.6,71.2 C1959.6,71.2 1959.6,217.008 1959.6,283.936" fill="none" id="Mapper-backto-UpdateCustomerDetailsRequestBodyToCustomerMapper" style="stroke:#B0C4DE;stroke-width:0.8;"/><polygon fill="none" points="1863.872,71.2,1878.272,76,1878.272,66.4,1863.872,71.2" style="stroke:#B0C4DE;stroke-width:0.8;"/></g><!--reverse link ToEntityMapper to UpdateCustomerDetailsRequestBodyToCustomerMapper--><g class="link" data-entity-1="ToEntityMapper" data-entity-2="UpdateCustomerDetailsRequestBodyToCustomerMapper" data-source-line="21" data-uid="lnk15" id="link_ToEntityMapper_UpdateCustomerDetailsRequestBodyToCustomerMapper"><path d="M2071.6,120.064 C2071.6,163.512 2071.6,236.256 2071.6,283.872" fill="none" id="ToEntityMapper-backto-UpdateCustomerDetailsRequestBodyToCustomerMapper" style="stroke:#B0C4DE;stroke-width:0.8;"/><polygon fill="none" points="2071.6,105.664,2066.8,120.064,2076.4,120.064,2071.6,105.664" style="stroke:#B0C4DE;stroke-width:0.8;"/></g><!--reverse link UpdateCustomerDetailsRequestBodyToCustomerMapper to DefaultUpdateCustomerDetailsRequestBodyToCustomerMapper--><g class="link" data-entity-1="UpdateCustomerDetailsRequestBodyToCustomerMapper" data-entity-2="DefaultUpdateCustomerDetailsRequestBodyToCustomerMapper" data-source-line="26" data-uid="lnk17" id="link_UpdateCustomerDetailsRequestBodyToCustomerMapper_DefaultUpdateCustomerDetailsRequestBodyToCustomerMapper"><path d="M2116.4,364.184 C2116.4,401.224 2116.4,447.728 2116.4,493.408" fill="none" id="UpdateCustomerDetailsRequestBodyToCustomerMapper-backto-DefaultUpdateCustomerDetailsRequestBodyToCustomerMapper" style="stroke:#B0C4DE;stroke-width:0.8;stroke-dasharray:5.6,5.6;"/><polygon fill="none" points="2116.4,349.784,2111.6,364.184,2121.2,364.184,2116.4,349.784" style="stroke:#B0C4DE;stroke-width:0.8;"/></g><!--reverse link CustomerServiceV1 to DefaultCustomerServiceV1--><g class="link" data-entity-1="CustomerServiceV1" data-entity-2="DefaultCustomerServiceV1" data-source-line="34" data-uid="lnk20" id="link_CustomerServiceV1_DefaultCustomerServiceV1"><path d="M1138,168.072 C1138,183.304 1138,185.272 1138,201.552" fill="none" id="CustomerServiceV1-backto-DefaultCustomerServiceV1" style="stroke:#B0C4DE;stroke-width:0.8;stroke-dasharray:5.6,5.6;"/><polygon fill="none" points="1138,153.672,1133.2,168.072,1142.8,168.072,1138,153.672" style="stroke:#B0C4DE;stroke-width:0.8;"/></g><!--link CustomerServiceV1 to CustomerRepositoryV1--><g class="link" data-entity-1="CustomerServiceV1" data-entity-2="CustomerRepositoryV1" data-source-line="51" data-uid="lnk21" id="link_CustomerServiceV1_CustomerRepositoryV1"><path codeLine="51" d="M924.256,117.6 C662.328,117.6 304,117.6 304,117.6 C304,117.6 304,214.04 304,272.168" fill="none" id="CustomerServiceV1-to-CustomerRepositoryV1" style="stroke:#B0C4DE;stroke-width:0.8;"/><polygon fill="#B0C4DE" points="304,276.968,307.2,269.768,304,272.968,300.8,269.768,304,276.968" style="stroke:#B0C4DE;stroke-width:0.8;"/></g><!--link CustomerServiceV1 to PasswordEncoder--><g class="link" data-entity-1="CustomerServiceV1" data-entity-2="PasswordEncoder" data-source-line="52" data-uid="lnk22" id="link_CustomerServiceV1_PasswordEncoder"><path codeLine="52" d="M924.272,136 C762.376,136 587.6,136 587.6,136 C587.6,136 587.6,219.104 587.6,272.32" fill="none" id="CustomerServiceV1-to-PasswordEncoder" style="stroke:#B0C4DE;stroke-width:0.8;"/><polygon fill="#B0C4DE" points="587.6,277.12,590.8,269.92,587.6,273.12,584.4,269.92,587.6,277.12" style="stroke:#B0C4DE;stroke-width:0.8;"/></g><!--link CustomerServiceV1 to CreateCustomerRequestBodyToCustomerMapper--><g class="link" data-entity-1="CustomerServiceV1" data-entity-2="CreateCustomerRequestBodyToCustomerMapper" data-source-line="53" data-uid="lnk23" id="link_CustomerServiceV1_CreateCustomerRequestBodyToCustomerMapper"><path codeLine="53" d="M1435.6,153.608 C1435.6,214.624 1435.6,291.2 1435.6,291.2 C1435.6,291.2 1474.616,291.2 1527.328,291.2" fill="none" id="CustomerServiceV1-to-CreateCustomerRequestBodyToCustomerMapper" style="stroke:#B0C4DE;stroke-width:0.8;"/><polygon fill="#B0C4DE" points="1532.128,291.2,1524.928,288,1528.128,291.2,1524.928,294.4,1532.128,291.2" style="stroke:#B0C4DE;stroke-width:0.8;"/></g><!--link CustomerServiceV1 to UpdateCustomerDetailsRequestBodyToCustomerMapper--><g class="link" data-entity-1="CustomerServiceV1" data-entity-2="UpdateCustomerDetailsRequestBodyToCustomerMapper" data-source-line="54" data-uid="lnk24" id="link_CustomerServiceV1_UpdateCustomerDetailsRequestBodyToCustomerMapper"><path codeLine="54" d="M1463.824,129.6 C1677.136,129.6 1939.2,129.6 1939.2,129.6 C1939.2,129.6 1939.2,225.488 1939.2,279.176" fill="none" id="CustomerServiceV1-to-UpdateCustomerDetailsRequestBodyToCustomerMapper" style="stroke:#B0C4DE;stroke-width:0.8;"/><polygon fill="#B0C4DE" points="1939.2,283.976,1942.4,276.776,1939.2,279.976,1936,276.776,1939.2,283.976" style="stroke:#B0C4DE;stroke-width:0.8;"/></g><!--link CustomerServiceV1 to ClassPathResource--><g class="link" data-entity-1="CustomerServiceV1" data-entity-2="ClassPathResource" data-source-line="55" data-uid="lnk26" id="link_CustomerServiceV1_ClassPathResource"><path codeLine="55" d="M1407.6,153.672 C1407.6,203.832 1407.6,261.624 1407.6,292.672" fill="none" id="CustomerServiceV1-to-ClassPathResource" style="stroke:#B0C4DE;stroke-width:0.8;"/><polygon fill="#B0C4DE" points="1407.6,297.472,1410.8,290.272,1407.6,293.472,1404.4,290.272,1407.6,297.472" style="stroke:#B0C4DE;stroke-width:0.8;"/></g><!--SRC=[xLHDYzim4BtxLwZqqgLDsPGUUbWM4YU17W9XTxjtnPeuOcN97KcRXjB_td4YRnH_u0qKsaCjCFBCcwVHp3pR9wbBZhnWIcfm-nAOGRSrYNrnh7dsbAFnMgH66MHln_DgHGW16-wLUu0VRg9ahWlGZcNq0enG4qIp2nJJw_JpBAQmMoxCJkgSRRYo47aMHhiGjJWyaIzJtDf1mCGvb6llO12v1BgwQCEQEFOpOMpQhCkdMRKgZq416AnV9jKYQqGxlwvMyYj9taYTAI-0fTuwKm3UGMciT0RtZ-EFfI_K2RAYatT4FTUP8Vw6DqNW3auqtprODpLY_s1guvANPIlkMocYk1auBfKT34zarTqDpqwPtmC-ommUnuVgCFQUFHifM7QMrxlUD1cUzbU1e8Qn7DmBmprra-R4Mq3D2wYnAvx3JGswPHj9VUa9-N00yxK2LeRDLPooxof9csIeSbqtwk2lspfqG8sx_8Il1TsoJRyapKgQQhUGL0bPWSv8a9WDmkoexawICxm01L6dMr0QzwDw0cDxS6HHAgZ-7hPtgaQTIg5Swu-0QeY56dtsNNEzLZHXZ2F4qHvuBXLHQ50VNLgLQSNTzWwiyKWYovgMv1_Gs9zH9MM4-_-I_5kIR0jjDBhj55aFjA6qFiBNAgqd_bA5zQNHrD5l]--></g></svg>