<svg xmlns="http://www.w3.org/2000/svg" contentStyleType="text/css" data-diagram-type="CLASS" height="434px"
     preserveAspectRatio="none" style="width:618px;height:434px;background:#1E1E1E;" version="1.1" viewBox="0 0 618 434"
     width="618px" zoomAndPan="magnify"><defs/><g><rect fill="#1E1E1E" height="434" style="stroke:none;stroke-width:1;" width="618" x="0" y="0"/><!--class Mapper--><g class="entity" data-entity="Mapper" data-source-line="17" data-uid="ent0002" id="entity_Mapper"><rect fill="#2D2D2D" height="65.1514" rx="2.5" ry="2.5" style="stroke:#8A8A8A;stroke-width:0.5;" width="270.3301" x="31.5" y="10"/><ellipse cx="96.9951" cy="26" fill="#B4A7E5" rx="11" ry="11" style="stroke:#181818;stroke-width:1;"/><path d="M97.9482,22.6406 L97.9482,29.2969 L99.667,29.2969 Q100.2764,29.2969 100.542,29.5313 Q100.8076,29.7656 100.8076,30.1563 Q100.8076,30.5313 100.542,30.7656 Q100.2764,31 99.667,31 L94.5264,31 Q93.917,31 93.6514,30.7656 Q93.3857,30.5313 93.3857,30.1406 Q93.3857,29.7656 93.6514,29.5313 Q93.917,29.2969 94.5264,29.2969 L96.2451,29.2969 L96.2451,22.6406 L94.5264,22.6406 Q93.917,22.6406 93.6514,22.4063 Q93.3857,22.1719 93.3857,21.7813 Q93.3857,21.4063 93.6514,21.1719 Q93.917,20.9375 94.5264,20.9375 L99.667,20.9375 Q100.2764,20.9375 100.542,21.1719 Q100.8076,21.4063 100.8076,21.7813 Q100.8076,22.1719 100.542,22.4063 Q100.2764,22.6406 99.667,22.6406 L97.9482,22.6406 Z " fill="#000000"/><text fill="#E0E0E0" font-family="sans-serif" font-size="14" font-style="italic" lengthAdjust="spacing" textLength="47.4688" x="117.4951" y="31.4995">Mapper</text><rect fill="#2D2D2D" height="16.7012" style="stroke:#8A8A8A;stroke-width:1;stroke-dasharray:2,2;" width="81.3711" x="223.459" y="7"/><text fill="#000000" font-family="sans-serif" font-size="12" font-style="italic" lengthAdjust="spacing" textLength="79.3711" x="224.459" y="20.0645">Source, Target</text><line style="stroke:#8A8A8A;stroke-width:0.5;" x1="32.5" x2="300.8301" y1="42" y2="42"/><line style="stroke:#8A8A8A;stroke-width:0.5;" x1="32.5" x2="300.8301" y1="50" y2="50"/><ellipse cx="42.5" cy="64.0757" fill="#84BE84" rx="3" ry="3" style="stroke:#038048;stroke-width:1;"/><text fill="#FFFFFF" font-family="sans-serif" font-size="14" lengthAdjust="spacing" textLength="244.3301" x="51.5" y="68.0752">void map(Source source, Target target)</text></g><!--class ToDTOMapper--><g class="entity" data-entity="ToDTOMapper" data-source-line="17" data-uid="ent0003" id="entity_ToDTOMapper"><rect fill="#2D2D2D" height="65.1514" rx="2.5" ry="2.5" style="stroke:#8A8A8A;stroke-width:0.5;" width="232.1582" x="336.5" y="10"/><ellipse cx="366.2511" cy="26" fill="#B4A7E5" rx="11" ry="11" style="stroke:#181818;stroke-width:1;"/><path d="M367.2042,22.6406 L367.2042,29.2969 L368.923,29.2969 Q369.5324,29.2969 369.798,29.5313 Q370.0636,29.7656 370.0636,30.1563 Q370.0636,30.5313 369.798,30.7656 Q369.5324,31 368.923,31 L363.7824,31 Q363.173,31 362.9074,30.7656 Q362.6417,30.5313 362.6417,30.1406 Q362.6417,29.7656 362.9074,29.5313 Q363.173,29.2969 363.7824,29.2969 L365.5011,29.2969 L365.5011,22.6406 L363.7824,22.6406 Q363.173,22.6406 362.9074,22.4063 Q362.6417,22.1719 362.6417,21.7813 Q362.6417,21.4063 362.9074,21.1719 Q363.173,20.9375 363.7824,20.9375 L368.923,20.9375 Q369.5324,20.9375 369.798,21.1719 Q370.0636,21.4063 370.0636,21.7813 Q370.0636,22.1719 369.798,22.4063 Q369.5324,22.6406 368.923,22.6406 L367.2042,22.6406 Z " fill="#000000"/><text fill="#E0E0E0" font-family="sans-serif" font-size="14" font-style="italic" lengthAdjust="spacing" textLength="93.3584" x="383.5292" y="31.4995">ToDTOMapper</text><rect fill="#2D2D2D" height="16.7012" style="stroke:#8A8A8A;stroke-width:1;stroke-dasharray:2,2;" width="72.0195" x="499.6387" y="7"/><text fill="#000000" font-family="sans-serif" font-size="12" font-style="italic" lengthAdjust="spacing" textLength="70.0195" x="500.6387" y="20.0645">Source, DTO</text><line style="stroke:#8A8A8A;stroke-width:0.5;" x1="337.5" x2="567.6582" y1="42" y2="42"/><line style="stroke:#8A8A8A;stroke-width:0.5;" x1="337.5" x2="567.6582" y1="50" y2="50"/><ellipse cx="347.5" cy="64.0757" fill="#84BE84" rx="3" ry="3" style="stroke:#038048;stroke-width:1;"/><text fill="#FFFFFF" font-family="sans-serif" font-size="14" lengthAdjust="spacing" textLength="206.1582" x="356.5" y="68.0752">DTO mapToDTO(Source source)</text></g><!--class CustomerToCustomerDetailsResponseBodyMapper--><g class="entity" data-entity="CustomerToCustomerDetailsResponseBodyMapper" data-source-line="20" data-uid="ent0004" id="entity_CustomerToCustomerDetailsResponseBodyMapper"><rect fill="#2D2D2D" height="82.3027" rx="2.5" ry="2.5" style="stroke:#8A8A8A;stroke-width:0.5;" width="444.6191" x="87" y="135"/><ellipse cx="143.6016" cy="151" fill="#B4A7E5" rx="11" ry="11" style="stroke:#181818;stroke-width:1;"/><path d="M144.5547,147.6406 L144.5547,154.2969 L146.2734,154.2969 Q146.8828,154.2969 147.1484,154.5313 Q147.4141,154.7656 147.4141,155.1563 Q147.4141,155.5313 147.1484,155.7656 Q146.8828,156 146.2734,156 L141.1328,156 Q140.5234,156 140.2578,155.7656 Q139.9922,155.5313 139.9922,155.1406 Q139.9922,154.7656 140.2578,154.5313 Q140.5234,154.2969 141.1328,154.2969 L142.8516,154.2969 L142.8516,147.6406 L141.1328,147.6406 Q140.5234,147.6406 140.2578,147.4063 Q139.9922,147.1719 139.9922,146.7813 Q139.9922,146.4063 140.2578,146.1719 Q140.5234,145.9375 141.1328,145.9375 L146.2734,145.9375 Q146.8828,145.9375 147.1484,146.1719 Q147.4141,146.4063 147.4141,146.7813 Q147.4141,147.1719 147.1484,147.4063 Q146.8828,147.6406 146.2734,147.6406 L144.5547,147.6406 Z " fill="#000000"/><text fill="#E0E0E0" font-family="sans-serif" font-size="14" font-style="italic" lengthAdjust="spacing" textLength="322.916" x="164.1016" y="156.4995">CustomerToCustomerDetailsResponseBodyMapper</text><line style="stroke:#8A8A8A;stroke-width:0.5;" x1="88" x2="530.6191" y1="167" y2="167"/><line style="stroke:#8A8A8A;stroke-width:0.5;" x1="88" x2="530.6191" y1="175" y2="175"/><ellipse cx="98" cy="189.0757" fill="#84BE84" rx="3" ry="3" style="stroke:#038048;stroke-width:1;"/><text fill="#FFFFFF" font-family="sans-serif" font-size="14" lengthAdjust="spacing" textLength="418.6191" x="107" y="193.0752">void map(Customer source, CustomerDetailsResponseBody target)</text><ellipse cx="98" cy="206.2271" fill="#84BE84" rx="3" ry="3" style="stroke:#038048;stroke-width:1;"/><text fill="#FFFFFF" font-family="sans-serif" font-size="14" lengthAdjust="spacing" textLength="388.9785" x="107" y="210.2266">CustomerToCustomerDetails mapToDTO(Customer customer)</text></g><!--class DefaultCustomerToCustomerDetailsResponseBodyMapper--><g class="entity" data-entity="DefaultCustomerToCustomerDetailsResponseBodyMapper" data-source-line="25" data-uid="ent0007" id="entity_DefaultCustomerToCustomerDetailsResponseBodyMapper"><rect fill="#2D2D2D" height="150.9082" rx="2.5" ry="2.5" style="stroke:#8A8A8A;stroke-width:0.5;" width="604.9082" x="7" y="277"/><ellipse cx="121.5669" cy="293" fill="#ADD1B2" rx="11" ry="11" style="stroke:#181818;stroke-width:1;"/><path d="M124.3325,288.875 Q124.4888,288.6563 124.6763,288.5469 Q124.8638,288.4375 125.0825,288.4375 Q125.4575,288.4375 125.6919,288.7031 Q125.9263,288.9531 125.9263,289.5625 L125.9263,291.0156 Q125.9263,291.625 125.6919,291.8906 Q125.4575,292.1563 125.0825,292.1563 Q124.7388,292.1563 124.5356,291.9531 Q124.3325,291.7656 124.2231,291.25 Q124.1763,290.8906 123.9888,290.7031 Q123.6606,290.3281 123.0513,290.1094 Q122.4419,289.8906 121.8169,289.8906 Q121.0513,289.8906 120.4106,290.2188 Q119.7856,290.5469 119.2856,291.2969 Q118.8013,292.0469 118.8013,293.0781 L118.8013,294.1719 Q118.8013,295.4063 119.6919,296.2344 Q120.5825,297.0469 122.1763,297.0469 Q123.1138,297.0469 123.77,296.7969 Q124.1606,296.6406 124.5825,296.2031 Q124.8481,295.9375 124.9888,295.8594 Q125.145,295.7813 125.3481,295.7813 Q125.6763,295.7813 125.9263,296.0469 Q126.1919,296.2969 126.1919,296.6406 Q126.1919,296.9844 125.8481,297.3906 Q125.3481,297.9688 124.5513,298.2969 Q123.4731,298.75 122.1763,298.75 Q120.6606,298.75 119.4575,298.125 Q118.4731,297.625 117.7856,296.5625 Q117.0981,295.4844 117.0981,294.2031 L117.0981,293.0469 Q117.0981,291.7188 117.7075,290.5781 Q118.3325,289.4219 119.4263,288.8125 Q120.52,288.1875 121.7544,288.1875 Q122.4888,288.1875 123.1294,288.3594 Q123.7856,288.5156 124.3325,288.875 Z " fill="#000000"/><text fill="#E0E0E0" font-family="sans-serif" font-size="14" lengthAdjust="spacing" textLength="367.2744" x="142.0669" y="298.4995">DefaultCustomerToCustomerDetailsResponseBodyMapper</text><line style="stroke:#8A8A8A;stroke-width:0.5;" x1="8" x2="610.9082" y1="309" y2="309"/><line style="stroke:#8A8A8A;stroke-width:0.5;" x1="8" x2="610.9082" y1="317" y2="317"/><ellipse cx="18" cy="331.0757" fill="#84BE84" rx="3" ry="3" style="stroke:#038048;stroke-width:1;"/><text fill="#FFFFFF" font-family="sans-serif" font-size="14" lengthAdjust="spacing" textLength="406.9092" x="27" y="335.0752">CustomerDetailsResponseBody mapToDTO(Customer customer)</text><ellipse cx="18" cy="348.2271" fill="#84BE84" rx="3" ry="3" style="stroke:#038048;stroke-width:1;"/><text fill="#FFFFFF" font-family="sans-serif" font-size="14" lengthAdjust="spacing" textLength="487.874" x="27" y="352.2266">void map(Customer customer, CustomerDetailsResponseBody responseBody)</text><rect fill="#F24D5C" height="6" style="stroke:#C82930;stroke-width:1;" width="6" x="15" y="362.3784"/><text fill="#FFFFFF" font-family="sans-serif" font-size="14" lengthAdjust="spacing" textLength="552.4326" x="27" y="369.3779">void mapFirstName(Customer customer, CustomerDetailsResponseBody responseBody)</text><rect fill="#F24D5C" height="6" style="stroke:#C82930;stroke-width:1;" width="6" x="15" y="379.5298"/><text fill="#FFFFFF" font-family="sans-serif" font-size="14" lengthAdjust="spacing" textLength="551.6807" x="27" y="386.5293">void mapLastName(Customer customer, CustomerDetailsResponseBody responseBody)</text><rect fill="#F24D5C" height="6" style="stroke:#C82930;stroke-width:1;" width="6" x="15" y="396.6812"/><text fill="#FFFFFF" font-family="sans-serif" font-size="14" lengthAdjust="spacing" textLength="522.8809" x="27" y="403.6807">void mapEmail(Customer customer, CustomerDetailsResponseBody responseBody)</text><rect fill="#F24D5C" height="6" style="stroke:#C82930;stroke-width:1;" width="6" x="15" y="413.8325"/><text fill="#FFFFFF" font-family="sans-serif" font-size="14" lengthAdjust="spacing" textLength="578.9082" x="27" y="420.832">void mapMobileNumber(Customer customer, CustomerDetailsResponseBody responseBody)</text></g><!--reverse link Mapper to CustomerToCustomerDetailsResponseBodyMapper--><g class="link" data-entity-1="Mapper" data-entity-2="CustomerToCustomerDetailsResponseBodyMapper" data-source-line="21" data-uid="lnk5" id="link_Mapper_CustomerToCustomerDetailsResponseBodyMapper"><path d="M194.25,93.16 C194.25,111.07 194.25,115.45 194.25,134.58" fill="none" id="Mapper-backto-CustomerToCustomerDetailsResponseBodyMapper" style="stroke:#B0C4DE;stroke-width:1;"/><polygon fill="none" points="194.25,75.16,188.25,93.16,200.25,93.16,194.25,75.16" style="stroke:#B0C4DE;stroke-width:1;"/></g><!--reverse link ToDTOMapper to CustomerToCustomerDetailsResponseBodyMapper--><g class="link" data-entity-1="ToDTOMapper" data-entity-2="CustomerToCustomerDetailsResponseBodyMapper" data-source-line="21" data-uid="lnk6" id="link_ToDTOMapper_CustomerToCustomerDetailsResponseBodyMapper"><path d="M434.25,93.16 C434.25,111.07 434.25,115.45 434.25,134.58" fill="none" id="ToDTOMapper-backto-CustomerToCustomerDetailsResponseBodyMapper" style="stroke:#B0C4DE;stroke-width:1;"/><polygon fill="none" points="434.25,75.16,428.25,93.16,440.25,93.16,434.25,75.16" style="stroke:#B0C4DE;stroke-width:1;"/></g><!--reverse link CustomerToCustomerDetailsResponseBodyMapper to DefaultCustomerToCustomerDetailsResponseBodyMapper--><g class="link" data-entity-1="CustomerToCustomerDetailsResponseBodyMapper" data-entity-2="DefaultCustomerToCustomerDetailsResponseBodyMapper" data-source-line="26" data-uid="lnk8" id="link_CustomerToCustomerDetailsResponseBodyMapper_DefaultCustomerToCustomerDetailsResponseBodyMapper"><path d="M309.5,235.38 C309.5,253.11 309.5,256.39 309.5,276.77" fill="none" id="CustomerToCustomerDetailsResponseBodyMapper-backto-DefaultCustomerToCustomerDetailsResponseBodyMapper" style="stroke:#B0C4DE;stroke-width:1;stroke-dasharray:7,7;"/><polygon fill="none" points="309.5,217.38,303.5,235.38,315.5,235.38,309.5,217.38" style="stroke:#B0C4DE;stroke-width:1;"/></g><!--SRC=[hPB1Ri8m38RlVGfFkmoDJMpQOLUWS1fCcdY1j34b8eah9nr3Y7TV0uL5R83GgAKgjVzyiV_6pPKj1Gi3MbdqonA1sCyeSVj29l9vmLHPsITD3BTFWn2HGk9KLDfFyCjtjIgiGUiXhr_8aQhBJ8i6qUlqNz8OuMP2qaBP0gP2EumgGxA-sJNSF54jryAviuAkzwoookDPvGZhqULlsQ4ELWb0xz2NvpH4g11Bv2RxsWrHPoFie1CYMIV9ZRAvhYJ2I9GbycDP6VsJd50wUOyhYGgcJaMEqA-S9uCyeTqgHI-KTX_eIh8EUoINsxrG_nYqqZM7j6FkPXI0U_Wa9S68ycw70qSLvzY64tpmWWlqhOPnjAS0tXpwGy-RHIlOi7KrtTwZIoPJfjGOxfkxo93LGSD_ZNQgvMEMxHIdJUFeOyjwsBE6YfqV2uFNXBw9wpC7ffPV4pYYJ6aSLoP3_Xzt_Gq0]--></g></svg>