<svg xmlns="http://www.w3.org/2000/svg" contentStyleType="text/css" data-diagram-type="CLASS" height="951px"
     preserveAspectRatio="none" style="width:2325px;height:951px;background:#1E1E1E;" version="1.1"
     viewBox="0 0 2325 951" width="2325px" zoomAndPan="magnify"><defs/><g><rect fill="#1E1E1E" height="951" style="stroke:none;stroke-width:1;" width="2325" x="0" y="0"/><!--class JpaRepository--><g class="entity" data-entity="JpaRepository" data-source-line="17" data-uid="ent0002" id="entity_JpaRepository"><rect fill="#2D2D2D" height="48" rx="2.5" ry="2.5" style="stroke:#8A8A8A;stroke-width:0.5;" width="151.4873" x="155" y="372"/><ellipse cx="170" cy="388" fill="#B4A7E5" rx="11" ry="11" style="stroke:#181818;stroke-width:1;"/><path d="M170.9531,384.6406 L170.9531,391.2969 L172.6719,391.2969 Q173.2813,391.2969 173.5469,391.5313 Q173.8125,391.7656 173.8125,392.1563 Q173.8125,392.5313 173.5469,392.7656 Q173.2813,393 172.6719,393 L167.5313,393 Q166.9219,393 166.6563,392.7656 Q166.3906,392.5313 166.3906,392.1406 Q166.3906,391.7656 166.6563,391.5313 Q166.9219,391.2969 167.5313,391.2969 L169.25,391.2969 L169.25,384.6406 L167.5313,384.6406 Q166.9219,384.6406 166.6563,384.4063 Q166.3906,384.1719 166.3906,383.7813 Q166.3906,383.4063 166.6563,383.1719 Q166.9219,382.9375 167.5313,382.9375 L172.6719,382.9375 Q173.2813,382.9375 173.5469,383.1719 Q173.8125,383.4063 173.8125,383.7813 Q173.8125,384.1719 173.5469,384.4063 Q173.2813,384.6406 172.6719,384.6406 L170.9531,384.6406 Z " fill="#000000"/><text fill="#E0E0E0" font-family="sans-serif" font-size="14" font-style="italic" lengthAdjust="spacing" textLength="89.4893" x="184" y="393.4995">JpaRepository</text><rect fill="#2D2D2D" height="16.7012" style="stroke:#8A8A8A;stroke-width:1;stroke-dasharray:2,2;" width="27.998" x="281.4893" y="369"/><text fill="#000000" font-family="sans-serif" font-size="12" font-style="italic" lengthAdjust="spacing" textLength="25.998" x="282.4893" y="382.0645">T, ID</text><line style="stroke:#8A8A8A;stroke-width:0.5;" x1="156" x2="305.4873" y1="404" y2="404"/><line style="stroke:#8A8A8A;stroke-width:0.5;" x1="156" x2="305.4873" y1="412" y2="412"/></g><!--class CustomerRepositoryV1--><g class="entity" data-entity="CustomerRepositoryV1" data-source-line="19" data-uid="ent0003" id="entity_CustomerRepositoryV1"><rect fill="#2D2D2D" height="99.4541" rx="2.5" ry="2.5" style="stroke:#8A8A8A;stroke-width:0.5;" width="446.9775" x="7" y="600"/><ellipse cx="153.877" cy="616" fill="#B4A7E5" rx="11" ry="11" style="stroke:#181818;stroke-width:1;"/><path d="M154.8301,612.6406 L154.8301,619.2969 L156.5488,619.2969 Q157.1582,619.2969 157.4238,619.5313 Q157.6895,619.7656 157.6895,620.1563 Q157.6895,620.5313 157.4238,620.7656 Q157.1582,621 156.5488,621 L151.4082,621 Q150.7988,621 150.5332,620.7656 Q150.2676,620.5313 150.2676,620.1406 Q150.2676,619.7656 150.5332,619.5313 Q150.7988,619.2969 151.4082,619.2969 L153.127,619.2969 L153.127,612.6406 L151.4082,612.6406 Q150.7988,612.6406 150.5332,612.4063 Q150.2676,612.1719 150.2676,611.7813 Q150.2676,611.4063 150.5332,611.1719 Q150.7988,610.9375 151.4082,610.9375 L156.5488,610.9375 Q157.1582,610.9375 157.4238,611.1719 Q157.6895,611.4063 157.6895,611.7813 Q157.6895,612.1719 157.4238,612.4063 Q157.1582,612.6406 156.5488,612.6406 L154.8301,612.6406 Z " fill="#000000"/><text fill="#E0E0E0" font-family="sans-serif" font-size="14" font-style="italic" lengthAdjust="spacing" textLength="144.7236" x="174.377" y="621.4995">CustomerRepositoryV1</text><line style="stroke:#8A8A8A;stroke-width:0.5;" x1="8" x2="452.9775" y1="632" y2="632"/><line style="stroke:#8A8A8A;stroke-width:0.5;" x1="8" x2="452.9775" y1="640" y2="640"/><ellipse cx="18" cy="654.0757" fill="#84BE84" rx="3" ry="3" style="stroke:#038048;stroke-width:1;"/><text fill="#FFFFFF" font-family="sans-serif" font-size="14" lengthAdjust="spacing" textLength="420.9775" x="27" y="658.0752">Optional&lt;Customer&gt; findByUsernameIgnoreCase(String username)</text><ellipse cx="18" cy="671.2271" fill="#84BE84" rx="3" ry="3" style="stroke:#038048;stroke-width:1;"/><text fill="#FFFFFF" font-family="sans-serif" font-size="14" lengthAdjust="spacing" textLength="410.1289" x="27" y="675.2266">Page&lt;Customer&gt; findCustomer(String query, Pageable pageable)</text><ellipse cx="18" cy="688.3784" fill="#84BE84" rx="3" ry="3" style="stroke:#038048;stroke-width:1;"/><text fill="#FFFFFF" font-family="sans-serif" font-size="14" lengthAdjust="spacing" textLength="260.6748" x="27" y="692.3779">void deleteByUsername(String username)</text></g><!--class PasswordEncoder--><g class="entity" data-entity="PasswordEncoder" data-source-line="17" data-uid="ent0005" id="entity_PasswordEncoder"><rect fill="#2D2D2D" height="99.4541" rx="2.5" ry="2.5" style="stroke:#8A8A8A;stroke-width:0.5;" width="491.3564" x="681" y="600"/><ellipse cx="865.6216" cy="616" fill="#B4A7E5" rx="11" ry="11" style="stroke:#181818;stroke-width:1;"/><path d="M866.5747,612.6406 L866.5747,619.2969 L868.2935,619.2969 Q868.9028,619.2969 869.1685,619.5313 Q869.4341,619.7656 869.4341,620.1563 Q869.4341,620.5313 869.1685,620.7656 Q868.9028,621 868.2935,621 L863.1528,621 Q862.5435,621 862.2778,620.7656 Q862.0122,620.5313 862.0122,620.1406 Q862.0122,619.7656 862.2778,619.5313 Q862.5435,619.2969 863.1528,619.2969 L864.8716,619.2969 L864.8716,612.6406 L863.1528,612.6406 Q862.5435,612.6406 862.2778,612.4063 Q862.0122,612.1719 862.0122,611.7813 Q862.0122,611.4063 862.2778,611.1719 Q862.5435,610.9375 863.1528,610.9375 L868.2935,610.9375 Q868.9028,610.9375 869.1685,611.1719 Q869.4341,611.4063 869.4341,611.7813 Q869.4341,612.1719 869.1685,612.4063 Q868.9028,612.6406 868.2935,612.6406 L866.5747,612.6406 Z " fill="#000000"/><text fill="#E0E0E0" font-family="sans-serif" font-size="14" font-style="italic" lengthAdjust="spacing" textLength="113.6133" x="886.1216" y="621.4995">PasswordEncoder</text><line style="stroke:#8A8A8A;stroke-width:0.5;" x1="682" x2="1171.3564" y1="632" y2="632"/><line style="stroke:#8A8A8A;stroke-width:0.5;" x1="682" x2="1171.3564" y1="640" y2="640"/><ellipse cx="692" cy="654.0757" fill="#84BE84" rx="3" ry="3" style="stroke:#038048;stroke-width:1;"/><text fill="#FFFFFF" font-family="sans-serif" font-size="14" lengthAdjust="spacing" textLength="277.0332" x="701" y="658.0752">String encode(CharSequence rawPassword)</text><ellipse cx="692" cy="671.2271" fill="#84BE84" rx="3" ry="3" style="stroke:#038048;stroke-width:1;"/><text fill="#FFFFFF" font-family="sans-serif" font-size="14" lengthAdjust="spacing" textLength="465.3564" x="701" y="675.2266">boolean matches((CharSequence rawPassword, String encodedPassword)</text><ellipse cx="692" cy="688.3784" fill="#84BE84" rx="3" ry="3" style="stroke:#038048;stroke-width:1;"/><text fill="#FFFFFF" font-family="sans-serif" font-size="14" lengthAdjust="spacing" textLength="328.4463" x="701" y="692.3779">boolean upgradeEncoding(String encodedPassword)</text></g><!--class Mapper--><g class="entity" data-entity="Mapper" data-source-line="17" data-uid="ent0006" id="entity_Mapper"><rect fill="#2D2D2D" height="65.1514" rx="2.5" ry="2.5" style="stroke:#8A8A8A;stroke-width:0.5;" width="270.3301" x="1374.5" y="363.5"/><ellipse cx="1439.9951" cy="379.5" fill="#B4A7E5" rx="11" ry="11" style="stroke:#181818;stroke-width:1;"/><path d="M1440.9482,376.1406 L1440.9482,382.7969 L1442.667,382.7969 Q1443.2764,382.7969 1443.542,383.0313 Q1443.8076,383.2656 1443.8076,383.6563 Q1443.8076,384.0313 1443.542,384.2656 Q1443.2764,384.5 1442.667,384.5 L1437.5264,384.5 Q1436.917,384.5 1436.6514,384.2656 Q1436.3857,384.0313 1436.3857,383.6406 Q1436.3857,383.2656 1436.6514,383.0313 Q1436.917,382.7969 1437.5264,382.7969 L1439.2451,382.7969 L1439.2451,376.1406 L1437.5264,376.1406 Q1436.917,376.1406 1436.6514,375.9063 Q1436.3857,375.6719 1436.3857,375.2813 Q1436.3857,374.9063 1436.6514,374.6719 Q1436.917,374.4375 1437.5264,374.4375 L1442.667,374.4375 Q1443.2764,374.4375 1443.542,374.6719 Q1443.8076,374.9063 1443.8076,375.2813 Q1443.8076,375.6719 1443.542,375.9063 Q1443.2764,376.1406 1442.667,376.1406 L1440.9482,376.1406 Z " fill="#000000"/><text fill="#E0E0E0" font-family="sans-serif" font-size="14" font-style="italic" lengthAdjust="spacing" textLength="47.4688" x="1460.4951" y="384.9995">Mapper</text><rect fill="#2D2D2D" height="16.7012" style="stroke:#8A8A8A;stroke-width:1;stroke-dasharray:2,2;" width="81.3711" x="1566.459" y="360.5"/><text fill="#000000" font-family="sans-serif" font-size="12" font-style="italic" lengthAdjust="spacing" textLength="79.3711" x="1567.459" y="373.5645">Source, Target</text><line style="stroke:#8A8A8A;stroke-width:0.5;" x1="1375.5" x2="1643.8301" y1="395.5" y2="395.5"/><line style="stroke:#8A8A8A;stroke-width:0.5;" x1="1375.5" x2="1643.8301" y1="403.5" y2="403.5"/><ellipse cx="1385.5" cy="417.5757" fill="#84BE84" rx="3" ry="3" style="stroke:#038048;stroke-width:1;"/><text fill="#FFFFFF" font-family="sans-serif" font-size="14" lengthAdjust="spacing" textLength="244.3301" x="1394.5" y="421.5752">void map(Source source, Target target)</text></g><!--class ToEntityMapper--><g class="entity" data-entity="ToEntityMapper" data-source-line="17" data-uid="ent0007" id="entity_ToEntityMapper"><rect fill="#2D2D2D" height="65.1514" rx="2.5" ry="2.5" style="stroke:#8A8A8A;stroke-width:0.5;" width="229.082" x="1790" y="363.5"/><ellipse cx="1813.8022" cy="379.5" fill="#B4A7E5" rx="11" ry="11" style="stroke:#181818;stroke-width:1;"/><path d="M1814.7554,376.1406 L1814.7554,382.7969 L1816.4741,382.7969 Q1817.0835,382.7969 1817.3491,383.0313 Q1817.6147,383.2656 1817.6147,383.6563 Q1817.6147,384.0313 1817.3491,384.2656 Q1817.0835,384.5 1816.4741,384.5 L1811.3335,384.5 Q1810.7241,384.5 1810.4585,384.2656 Q1810.1929,384.0313 1810.1929,383.6406 Q1810.1929,383.2656 1810.4585,383.0313 Q1810.7241,382.7969 1811.3335,382.7969 L1813.0522,382.7969 L1813.0522,376.1406 L1811.3335,376.1406 Q1810.7241,376.1406 1810.4585,375.9063 Q1810.1929,375.6719 1810.1929,375.2813 Q1810.1929,374.9063 1810.4585,374.6719 Q1810.7241,374.4375 1811.3335,374.4375 L1816.4741,374.4375 Q1817.0835,374.4375 1817.3491,374.6719 Q1817.6147,374.9063 1817.6147,375.2813 Q1817.6147,375.6719 1817.3491,375.9063 Q1817.0835,376.1406 1816.4741,376.1406 L1814.7554,376.1406 Z " fill="#000000"/><text fill="#E0E0E0" font-family="sans-serif" font-size="14" font-style="italic" lengthAdjust="spacing" textLength="98.8203" x="1829.7583" y="384.9995">ToEntityMapper</text><rect fill="#2D2D2D" height="16.7012" style="stroke:#8A8A8A;stroke-width:1;stroke-dasharray:2,2;" width="76.7012" x="1945.3809" y="360.5"/><text fill="#000000" font-family="sans-serif" font-size="12" font-style="italic" lengthAdjust="spacing" textLength="74.7012" x="1946.3809" y="373.5645">Source, Entity</text><line style="stroke:#8A8A8A;stroke-width:0.5;" x1="1791" x2="2018.082" y1="395.5" y2="395.5"/><line style="stroke:#8A8A8A;stroke-width:0.5;" x1="1791" x2="2018.082" y1="403.5" y2="403.5"/><text fill="#FFFFFF" font-family="sans-serif" font-size="14" lengthAdjust="spacing" textLength="217.082" x="1796" y="421.5752">Entity mapToEntity(Source source)</text></g><!--class CreateCustomerRequestBodyToCustomerMapper--><g class="entity" data-entity="CreateCustomerRequestBodyToCustomerMapper" data-source-line="20" data-uid="ent0008" id="entity_CreateCustomerRequestBodyToCustomerMapper"><rect fill="#2D2D2D" height="82.3027" rx="2.5" ry="2.5" style="stroke:#8A8A8A;stroke-width:0.5;" width="447.7363" x="1736.5" y="608.5"/><ellipse cx="1800.4946" cy="624.5" fill="#B4A7E5" rx="11" ry="11" style="stroke:#181818;stroke-width:1;"/><path d="M1801.4478,621.1406 L1801.4478,627.7969 L1803.1665,627.7969 Q1803.7759,627.7969 1804.0415,628.0313 Q1804.3071,628.2656 1804.3071,628.6563 Q1804.3071,629.0313 1804.0415,629.2656 Q1803.7759,629.5 1803.1665,629.5 L1798.0259,629.5 Q1797.4165,629.5 1797.1509,629.2656 Q1796.8853,629.0313 1796.8853,628.6406 Q1796.8853,628.2656 1797.1509,628.0313 Q1797.4165,627.7969 1798.0259,627.7969 L1799.7446,627.7969 L1799.7446,621.1406 L1798.0259,621.1406 Q1797.4165,621.1406 1797.1509,620.9063 Q1796.8853,620.6719 1796.8853,620.2813 Q1796.8853,619.9063 1797.1509,619.6719 Q1797.4165,619.4375 1798.0259,619.4375 L1803.1665,619.4375 Q1803.7759,619.4375 1804.0415,619.6719 Q1804.3071,619.9063 1804.3071,620.2813 Q1804.3071,620.6719 1804.0415,620.9063 Q1803.7759,621.1406 1803.1665,621.1406 L1801.4478,621.1406 Z " fill="#000000"/><text fill="#E0E0E0" font-family="sans-serif" font-size="14" font-style="italic" lengthAdjust="spacing" textLength="311.2471" x="1820.9946" y="629.9995">CreateCustomerRequestBodyToCustomerMapper</text><line style="stroke:#8A8A8A;stroke-width:0.5;" x1="1737.5" x2="2183.2363" y1="640.5" y2="640.5"/><line style="stroke:#8A8A8A;stroke-width:0.5;" x1="1737.5" x2="2183.2363" y1="648.5" y2="648.5"/><ellipse cx="1747.5" cy="662.5757" fill="#84BE84" rx="3" ry="3" style="stroke:#038048;stroke-width:1;"/><text fill="#FFFFFF" font-family="sans-serif" font-size="14" lengthAdjust="spacing" textLength="406.9502" x="1756.5" y="666.5752">void map(CreateCustomerRequestBody source, Customer target)</text><ellipse cx="1747.5" cy="679.7271" fill="#84BE84" rx="3" ry="3" style="stroke:#038048;stroke-width:1;"/><text fill="#FFFFFF" font-family="sans-serif" font-size="14" lengthAdjust="spacing" textLength="421.7363" x="1756.5" y="683.7266">Customer mapToEntity(CreateCustomerRequestBody requestBody)</text></g><!--class DefaultCreateCustomerRequestBodyToCustomerMapper--><g class="entity" data-entity="DefaultCreateCustomerRequestBodyToCustomerMapper" data-source-line="25" data-uid="ent0011" id="entity_DefaultCreateCustomerRequestBodyToCustomerMapper"><rect fill="#2D2D2D" height="185.2109" rx="2.5" ry="2.5" style="stroke:#8A8A8A;stroke-width:0.5;" width="582.3428" x="1736.5" y="759"/><ellipse cx="1845.6187" cy="775" fill="#ADD1B2" rx="11" ry="11" style="stroke:#181818;stroke-width:1;"/><path d="M1848.3843,770.875 Q1848.5405,770.6563 1848.728,770.5469 Q1848.9155,770.4375 1849.1343,770.4375 Q1849.5093,770.4375 1849.7437,770.7031 Q1849.978,770.9531 1849.978,771.5625 L1849.978,773.0156 Q1849.978,773.625 1849.7437,773.8906 Q1849.5093,774.1563 1849.1343,774.1563 Q1848.7905,774.1563 1848.5874,773.9531 Q1848.3843,773.7656 1848.2749,773.25 Q1848.228,772.8906 1848.0405,772.7031 Q1847.7124,772.3281 1847.103,772.1094 Q1846.4937,771.8906 1845.8687,771.8906 Q1845.103,771.8906 1844.4624,772.2188 Q1843.8374,772.5469 1843.3374,773.2969 Q1842.853,774.0469 1842.853,775.0781 L1842.853,776.1719 Q1842.853,777.4063 1843.7437,778.2344 Q1844.6343,779.0469 1846.228,779.0469 Q1847.1655,779.0469 1847.8218,778.7969 Q1848.2124,778.6406 1848.6343,778.2031 Q1848.8999,777.9375 1849.0405,777.8594 Q1849.1968,777.7813 1849.3999,777.7813 Q1849.728,777.7813 1849.978,778.0469 Q1850.2437,778.2969 1850.2437,778.6406 Q1850.2437,778.9844 1849.8999,779.3906 Q1849.3999,779.9688 1848.603,780.2969 Q1847.5249,780.75 1846.228,780.75 Q1844.7124,780.75 1843.5093,780.125 Q1842.5249,779.625 1841.8374,778.5625 Q1841.1499,777.4844 1841.1499,776.2031 L1841.1499,775.0469 Q1841.1499,773.7188 1841.7593,772.5781 Q1842.3843,771.4219 1843.478,770.8125 Q1844.5718,770.1875 1845.8062,770.1875 Q1846.5405,770.1875 1847.1812,770.3594 Q1847.8374,770.5156 1848.3843,770.875 Z " fill="#000000"/><text fill="#E0E0E0" font-family="sans-serif" font-size="14" lengthAdjust="spacing" textLength="355.6055" x="1866.1187" y="780.4995">DefaultCreateCustomerRequestBodyToCustomerMapper</text><line style="stroke:#8A8A8A;stroke-width:0.5;" x1="1737.5" x2="2317.8428" y1="791" y2="791"/><line style="stroke:#8A8A8A;stroke-width:0.5;" x1="1737.5" x2="2317.8428" y1="799" y2="799"/><ellipse cx="1747.5" cy="813.0757" fill="#84BE84" rx="3" ry="3" style="stroke:#038048;stroke-width:1;"/><text fill="#FFFFFF" font-family="sans-serif" font-size="14" lengthAdjust="spacing" textLength="421.7363" x="1756.5" y="817.0752">Customer mapToEntity(CreateCustomerRequestBody requestBody)</text><ellipse cx="1747.5" cy="830.2271" fill="#84BE84" rx="3" ry="3" style="stroke:#038048;stroke-width:1;"/><text fill="#FFFFFF" font-family="sans-serif" font-size="14" lengthAdjust="spacing" textLength="465.3086" x="1756.5" y="834.2266">void map(CreateCustomerRequestBody requestBody, Customer customer)</text><rect fill="#F24D5C" height="6" style="stroke:#C82930;stroke-width:1;" width="6" x="1744.5" y="844.3784"/><text fill="#FFFFFF" font-family="sans-serif" font-size="14" lengthAdjust="spacing" textLength="529.8877" x="1756.5" y="851.3779">void mapUsername(CreateCustomerRequestBody requestBody, Customer customer)</text><rect fill="#F24D5C" height="6" style="stroke:#C82930;stroke-width:1;" width="6" x="1744.5" y="861.5298"/><text fill="#FFFFFF" font-family="sans-serif" font-size="14" lengthAdjust="spacing" textLength="526.7773" x="1756.5" y="868.5293">void mapPassword(CreateCustomerRequestBody requestBody, Customer customer)</text><rect fill="#F24D5C" height="6" style="stroke:#C82930;stroke-width:1;" width="6" x="1744.5" y="878.6812"/><text fill="#FFFFFF" font-family="sans-serif" font-size="14" lengthAdjust="spacing" textLength="529.8672" x="1756.5" y="885.6807">void mapFirstName(CreateCustomerRequestBody requestBody, Customer customer)</text><rect fill="#F24D5C" height="6" style="stroke:#C82930;stroke-width:1;" width="6" x="1744.5" y="895.8325"/><text fill="#FFFFFF" font-family="sans-serif" font-size="14" lengthAdjust="spacing" textLength="529.1152" x="1756.5" y="902.832">void mapLastName(CreateCustomerRequestBody requestBody, Customer customer)</text><rect fill="#F24D5C" height="6" style="stroke:#C82930;stroke-width:1;" width="6" x="1744.5" y="912.9839"/><text fill="#FFFFFF" font-family="sans-serif" font-size="14" lengthAdjust="spacing" textLength="500.3154" x="1756.5" y="919.9834">void mapEmail(CreateCustomerRequestBody requestBody, Customer customer)</text><rect fill="#F24D5C" height="6" style="stroke:#C82930;stroke-width:1;" width="6" x="1744.5" y="930.1353"/><text fill="#FFFFFF" font-family="sans-serif" font-size="14" lengthAdjust="spacing" textLength="556.3428" x="1756.5" y="937.1348">void mapMobileNumber(CreateCustomerRequestBody requestBody, Customer customer)</text></g><!--class UpdateCustomerDetailsRequestBodyToCustomerMapper--><g class="entity" data-entity="UpdateCustomerDetailsRequestBodyToCustomerMapper" data-source-line="20" data-uid="ent0013" id="entity_UpdateCustomerDetailsRequestBodyToCustomerMapper"><rect fill="#2D2D2D" height="82.3027" rx="2.5" ry="2.5" style="stroke:#8A8A8A;stroke-width:0.5;" width="493.6533" x="1207.5" y="608.5"/><ellipse cx="1271.4946" cy="624.5" fill="#B4A7E5" rx="11" ry="11" style="stroke:#181818;stroke-width:1;"/><path d="M1272.4478,621.1406 L1272.4478,627.7969 L1274.1665,627.7969 Q1274.7759,627.7969 1275.0415,628.0313 Q1275.3071,628.2656 1275.3071,628.6563 Q1275.3071,629.0313 1275.0415,629.2656 Q1274.7759,629.5 1274.1665,629.5 L1269.0259,629.5 Q1268.4165,629.5 1268.1509,629.2656 Q1267.8853,629.0313 1267.8853,628.6406 Q1267.8853,628.2656 1268.1509,628.0313 Q1268.4165,627.7969 1269.0259,627.7969 L1270.7446,627.7969 L1270.7446,621.1406 L1269.0259,621.1406 Q1268.4165,621.1406 1268.1509,620.9063 Q1267.8853,620.6719 1267.8853,620.2813 Q1267.8853,619.9063 1268.1509,619.6719 Q1268.4165,619.4375 1269.0259,619.4375 L1274.1665,619.4375 Q1274.7759,619.4375 1275.0415,619.6719 Q1275.3071,619.9063 1275.3071,620.2813 Q1275.3071,620.6719 1275.0415,620.9063 Q1274.7759,621.1406 1274.1665,621.1406 L1272.4478,621.1406 Z " fill="#000000"/><text fill="#E0E0E0" font-family="sans-serif" font-size="14" font-style="italic" lengthAdjust="spacing" textLength="357.1641" x="1291.9946" y="629.9995">UpdateCustomerDetailsRequestBodyToCustomerMapper</text><line style="stroke:#8A8A8A;stroke-width:0.5;" x1="1208.5" x2="1700.1533" y1="640.5" y2="640.5"/><line style="stroke:#8A8A8A;stroke-width:0.5;" x1="1208.5" x2="1700.1533" y1="648.5" y2="648.5"/><ellipse cx="1218.5" cy="662.5757" fill="#84BE84" rx="3" ry="3" style="stroke:#038048;stroke-width:1;"/><text fill="#FFFFFF" font-family="sans-serif" font-size="14" lengthAdjust="spacing" textLength="452.8672" x="1227.5" y="666.5752">void map(UpdateCustomerDetailsRequestBody source, Customer target)</text><ellipse cx="1218.5" cy="679.7271" fill="#84BE84" rx="3" ry="3" style="stroke:#038048;stroke-width:1;"/><text fill="#FFFFFF" font-family="sans-serif" font-size="14" lengthAdjust="spacing" textLength="467.6533" x="1227.5" y="683.7266">Customer mapToEntity(UpdateCustomerDetailsRequestBody requestBody)</text></g><!--class DefaultUpdateCustomerDetailsRequestBodyToCustomerMapper--><g class="entity" data-entity="DefaultUpdateCustomerDetailsRequestBodyToCustomerMapper" data-source-line="25" data-uid="ent0016" id="entity_DefaultUpdateCustomerDetailsRequestBodyToCustomerMapper"><rect fill="#2D2D2D" height="150.9082" rx="2.5" ry="2.5" style="stroke:#8A8A8A;stroke-width:0.5;" width="628.2598" x="1073.5" y="776"/><ellipse cx="1182.6187" cy="792" fill="#ADD1B2" rx="11" ry="11" style="stroke:#181818;stroke-width:1;"/><path d="M1185.3843,787.875 Q1185.5405,787.6563 1185.728,787.5469 Q1185.9155,787.4375 1186.1343,787.4375 Q1186.5093,787.4375 1186.7437,787.7031 Q1186.978,787.9531 1186.978,788.5625 L1186.978,790.0156 Q1186.978,790.625 1186.7437,790.8906 Q1186.5093,791.1563 1186.1343,791.1563 Q1185.7905,791.1563 1185.5874,790.9531 Q1185.3843,790.7656 1185.2749,790.25 Q1185.228,789.8906 1185.0405,789.7031 Q1184.7124,789.3281 1184.103,789.1094 Q1183.4937,788.8906 1182.8687,788.8906 Q1182.103,788.8906 1181.4624,789.2188 Q1180.8374,789.5469 1180.3374,790.2969 Q1179.853,791.0469 1179.853,792.0781 L1179.853,793.1719 Q1179.853,794.4063 1180.7437,795.2344 Q1181.6343,796.0469 1183.228,796.0469 Q1184.1655,796.0469 1184.8218,795.7969 Q1185.2124,795.6406 1185.6343,795.2031 Q1185.8999,794.9375 1186.0405,794.8594 Q1186.1968,794.7813 1186.3999,794.7813 Q1186.728,794.7813 1186.978,795.0469 Q1187.2437,795.2969 1187.2437,795.6406 Q1187.2437,795.9844 1186.8999,796.3906 Q1186.3999,796.9688 1185.603,797.2969 Q1184.5249,797.75 1183.228,797.75 Q1181.7124,797.75 1180.5093,797.125 Q1179.5249,796.625 1178.8374,795.5625 Q1178.1499,794.4844 1178.1499,793.2031 L1178.1499,792.0469 Q1178.1499,790.7188 1178.7593,789.5781 Q1179.3843,788.4219 1180.478,787.8125 Q1181.5718,787.1875 1182.8062,787.1875 Q1183.5405,787.1875 1184.1812,787.3594 Q1184.8374,787.5156 1185.3843,787.875 Z " fill="#000000"/><text fill="#E0E0E0" font-family="sans-serif" font-size="14" lengthAdjust="spacing" textLength="401.5225" x="1203.1187" y="797.4995">DefaultUpdateCustomerDetailsRequestBodyToCustomerMapper</text><line style="stroke:#8A8A8A;stroke-width:0.5;" x1="1074.5" x2="1700.7598" y1="808" y2="808"/><line style="stroke:#8A8A8A;stroke-width:0.5;" x1="1074.5" x2="1700.7598" y1="816" y2="816"/><ellipse cx="1084.5" cy="830.0757" fill="#84BE84" rx="3" ry="3" style="stroke:#038048;stroke-width:1;"/><text fill="#FFFFFF" font-family="sans-serif" font-size="14" lengthAdjust="spacing" textLength="467.6533" x="1093.5" y="834.0752">Customer mapToEntity(UpdateCustomerDetailsRequestBody requestBody)</text><ellipse cx="1084.5" cy="847.2271" fill="#84BE84" rx="3" ry="3" style="stroke:#038048;stroke-width:1;"/><text fill="#FFFFFF" font-family="sans-serif" font-size="14" lengthAdjust="spacing" textLength="511.2256" x="1093.5" y="851.2266">void map(UpdateCustomerDetailsRequestBody requestBody, Customer customer)</text><rect fill="#F24D5C" height="6" style="stroke:#C82930;stroke-width:1;" width="6" x="1081.5" y="861.3784"/><text fill="#FFFFFF" font-family="sans-serif" font-size="14" lengthAdjust="spacing" textLength="575.7842" x="1093.5" y="868.3779">void mapFirstName(UpdateCustomerDetailsRequestBody requestBody, Customer customer)</text><rect fill="#F24D5C" height="6" style="stroke:#C82930;stroke-width:1;" width="6" x="1081.5" y="878.5298"/><text fill="#FFFFFF" font-family="sans-serif" font-size="14" lengthAdjust="spacing" textLength="575.0322" x="1093.5" y="885.5293">void mapLastName(UpdateCustomerDetailsRequestBody requestBody, Customer customer)</text><rect fill="#F24D5C" height="6" style="stroke:#C82930;stroke-width:1;" width="6" x="1081.5" y="895.6812"/><text fill="#FFFFFF" font-family="sans-serif" font-size="14" lengthAdjust="spacing" textLength="546.2324" x="1093.5" y="902.6807">void mapEmail(UpdateCustomerDetailsRequestBody requestBody, Customer customer)</text><rect fill="#F24D5C" height="6" style="stroke:#C82930;stroke-width:1;" width="6" x="1081.5" y="912.8325"/><text fill="#FFFFFF" font-family="sans-serif" font-size="14" lengthAdjust="spacing" textLength="602.2598" x="1093.5" y="919.832">void mapMobileNumber(UpdateCustomerDetailsRequestBody requestBody, Customer customer)</text></g><!--class CustomerServiceV1--><g class="entity" data-entity="CustomerServiceV1" data-source-line="22" data-uid="ent0018" id="entity_CustomerServiceV1"><rect fill="#2D2D2D" height="185.2109" rx="2.5" ry="2.5" style="stroke:#8A8A8A;stroke-width:0.5;" width="674.2109" x="589.5" y="7"/><ellipse cx="860.1108" cy="23" fill="#B4A7E5" rx="11" ry="11" style="stroke:#181818;stroke-width:1;"/><path d="M861.064,19.6406 L861.064,26.2969 L862.7827,26.2969 Q863.3921,26.2969 863.6577,26.5313 Q863.9233,26.7656 863.9233,27.1563 Q863.9233,27.5313 863.6577,27.7656 Q863.3921,28 862.7827,28 L857.6421,28 Q857.0327,28 856.7671,27.7656 Q856.5015,27.5313 856.5015,27.1406 Q856.5015,26.7656 856.7671,26.5313 Q857.0327,26.2969 857.6421,26.2969 L859.3608,26.2969 L859.3608,19.6406 L857.6421,19.6406 Q857.0327,19.6406 856.7671,19.4063 Q856.5015,19.1719 856.5015,18.7813 Q856.5015,18.4063 856.7671,18.1719 Q857.0327,17.9375 857.6421,17.9375 L862.7827,17.9375 Q863.3921,17.9375 863.6577,18.1719 Q863.9233,18.4063 863.9233,18.7813 Q863.9233,19.1719 863.6577,19.4063 Q863.3921,19.6406 862.7827,19.6406 L861.064,19.6406 Z " fill="#000000"/><text fill="#E0E0E0" font-family="sans-serif" font-size="14" font-style="italic" lengthAdjust="spacing" textLength="124.4893" x="880.6108" y="28.4995">CustomerServiceV1</text><line style="stroke:#8A8A8A;stroke-width:0.5;" x1="590.5" x2="1262.7109" y1="39" y2="39"/><line style="stroke:#8A8A8A;stroke-width:0.5;" x1="590.5" x2="1262.7109" y1="47" y2="47"/><ellipse cx="600.5" cy="61.0757" fill="#84BE84" rx="3" ry="3" style="stroke:#038048;stroke-width:1;"/><text fill="#FFFFFF" font-family="sans-serif" font-size="14" lengthAdjust="spacing" textLength="407.7432" x="609.5" y="65.0752">void createCustomer(CreateCustomerRequestBody requestBody)</text><ellipse cx="600.5" cy="78.2271" fill="#84BE84" rx="3" ry="3" style="stroke:#038048;stroke-width:1;"/><text fill="#FFFFFF" font-family="sans-serif" font-size="14" lengthAdjust="spacing" textLength="256.7578" x="609.5" y="82.2266">Customer getCustomer(String username)</text><ellipse cx="600.5" cy="95.3784" fill="#84BE84" rx="3" ry="3" style="stroke:#038048;stroke-width:1;"/><text fill="#FFFFFF" font-family="sans-serif" font-size="14" lengthAdjust="spacing" textLength="437.3633" x="609.5" y="99.3779">Page&lt;Customer&gt; findCustomer(String username, Pageable pageable)</text><ellipse cx="600.5" cy="112.5298" fill="#84BE84" rx="3" ry="3" style="stroke:#038048;stroke-width:1;"/><text fill="#FFFFFF" font-family="sans-serif" font-size="14" lengthAdjust="spacing" textLength="610.8594" x="609.5" y="116.5293">void updateCustomerDetails(String username, UpdateCustomerDetailsRequestBody requestBody)</text><ellipse cx="600.5" cy="129.6812" fill="#84BE84" rx="3" ry="3" style="stroke:#038048;stroke-width:1;"/><text fill="#FFFFFF" font-family="sans-serif" font-size="14" lengthAdjust="spacing" textLength="648.2109" x="609.5" y="133.6807">void updateCustomerPassword(String username, UpdateCustomerPasswordRequestBody requestBody)</text><ellipse cx="600.5" cy="146.8325" fill="#84BE84" rx="3" ry="3" style="stroke:#038048;stroke-width:1;"/><text fill="#FFFFFF" font-family="sans-serif" font-size="14" lengthAdjust="spacing" textLength="410.0674" x="609.5" y="150.832">void updateCustomerImage(String username, MultipartFile image)</text><ellipse cx="600.5" cy="163.9839" fill="#84BE84" rx="3" ry="3" style="stroke:#038048;stroke-width:1;"/><text fill="#FFFFFF" font-family="sans-serif" font-size="14" lengthAdjust="spacing" textLength="268.4541" x="609.5" y="167.9834">void restoreDefaultImage(String username)</text><ellipse cx="600.5" cy="181.1353" fill="#84BE84" rx="3" ry="3" style="stroke:#038048;stroke-width:1;"/><text fill="#FFFFFF" font-family="sans-serif" font-size="14" lengthAdjust="spacing" textLength="240.4404" x="609.5" y="185.1348">void deleteCustomer(String username)</text></g><!--class DefaultCustomerServiceV1--><g class="entity" data-entity="DefaultCustomerServiceV1" data-source-line="33" data-uid="ent0019" id="entity_DefaultCustomerServiceV1"><rect fill="#2D2D2D" height="288.1191" rx="2.5" ry="2.5" style="stroke:#8A8A8A;stroke-width:0.5;" width="674.2109" x="589.5" y="252"/><ellipse cx="837.9316" cy="268" fill="#ADD1B2" rx="11" ry="11" style="stroke:#181818;stroke-width:1;"/><path d="M840.6973,263.875 Q840.8535,263.6563 841.041,263.5469 Q841.2285,263.4375 841.4473,263.4375 Q841.8223,263.4375 842.0566,263.7031 Q842.291,263.9531 842.291,264.5625 L842.291,266.0156 Q842.291,266.625 842.0566,266.8906 Q841.8223,267.1563 841.4473,267.1563 Q841.1035,267.1563 840.9004,266.9531 Q840.6973,266.7656 840.5879,266.25 Q840.541,265.8906 840.3535,265.7031 Q840.0254,265.3281 839.416,265.1094 Q838.8066,264.8906 838.1816,264.8906 Q837.416,264.8906 836.7754,265.2188 Q836.1504,265.5469 835.6504,266.2969 Q835.166,267.0469 835.166,268.0781 L835.166,269.1719 Q835.166,270.4063 836.0566,271.2344 Q836.9473,272.0469 838.541,272.0469 Q839.4785,272.0469 840.1348,271.7969 Q840.5254,271.6406 840.9473,271.2031 Q841.2129,270.9375 841.3535,270.8594 Q841.5098,270.7813 841.7129,270.7813 Q842.041,270.7813 842.291,271.0469 Q842.5566,271.2969 842.5566,271.6406 Q842.5566,271.9844 842.2129,272.3906 Q841.7129,272.9688 840.916,273.2969 Q839.8379,273.75 838.541,273.75 Q837.0254,273.75 835.8223,273.125 Q834.8379,272.625 834.1504,271.5625 Q833.4629,270.4844 833.4629,269.2031 L833.4629,268.0469 Q833.4629,266.7188 834.0723,265.5781 Q834.6973,264.4219 835.791,263.8125 Q836.8848,263.1875 838.1191,263.1875 Q838.8535,263.1875 839.4941,263.3594 Q840.1504,263.5156 840.6973,263.875 Z " fill="#000000"/><text fill="#E0E0E0" font-family="sans-serif" font-size="14" lengthAdjust="spacing" textLength="168.8477" x="858.4316" y="273.4995">DefaultCustomerServiceV1</text><line style="stroke:#8A8A8A;stroke-width:0.5;" x1="590.5" x2="1262.7109" y1="284" y2="284"/><rect fill="none" height="6" style="stroke:#C82930;stroke-width:1;" width="6" x="597.5" y="295.0757"/><text fill="#FFFFFF" font-family="sans-serif" font-size="14" lengthAdjust="spacing" textLength="210.082" x="609.5" y="302.0752">CustomerRepositoryV1 repository</text><rect fill="none" height="6" style="stroke:#C82930;stroke-width:1;" width="6" x="597.5" y="312.2271"/><text fill="#FFFFFF" font-family="sans-serif" font-size="14" lengthAdjust="spacing" textLength="229.5645" x="609.5" y="319.2266">PasswordEncoder passwordEncoder</text><rect fill="none" height="6" style="stroke:#C82930;stroke-width:1;" width="6" x="597.5" y="329.3784"/><text fill="#FFFFFF" font-family="sans-serif" font-size="14" lengthAdjust="spacing" textLength="485.5703" x="609.5" y="336.3779">CreateCustomerRequestBodyToCustomerMapper createRequestBodyMapper</text><rect fill="none" height="6" style="stroke:#C82930;stroke-width:1;" width="6" x="597.5" y="346.5298"/><text fill="#FFFFFF" font-family="sans-serif" font-size="14" lengthAdjust="spacing" textLength="535.3975" x="609.5" y="353.5293">UpdateCustomerDetailsRequestBodyToCustomerMapper updateRequestBodyMapper</text><rect fill="none" height="6" style="stroke:#C82930;stroke-width:1;" width="6" x="597.5" y="363.6812"/><text fill="#FFFFFF" font-family="sans-serif" font-size="14" lengthAdjust="spacing" textLength="248.2266" x="609.5" y="370.6807">ClassPathResource classPathResource</text><line style="stroke:#8A8A8A;stroke-width:0.5;" x1="590.5" x2="1262.7109" y1="377.7568" y2="377.7568"/><ellipse cx="600.5" cy="391.8325" fill="#84BE84" rx="3" ry="3" style="stroke:#038048;stroke-width:1;"/><text fill="#FFFFFF" font-family="sans-serif" font-size="14" lengthAdjust="spacing" textLength="407.7432" x="609.5" y="395.832">void createCustomer(CreateCustomerRequestBody requestBody)</text><ellipse cx="600.5" cy="408.9839" fill="#84BE84" rx="3" ry="3" style="stroke:#038048;stroke-width:1;"/><text fill="#FFFFFF" font-family="sans-serif" font-size="14" lengthAdjust="spacing" textLength="256.7578" x="609.5" y="412.9834">Customer getCustomer(String username)</text><ellipse cx="600.5" cy="426.1353" fill="#84BE84" rx="3" ry="3" style="stroke:#038048;stroke-width:1;"/><text fill="#FFFFFF" font-family="sans-serif" font-size="14" lengthAdjust="spacing" textLength="305.8057" x="609.5" y="430.1348">Page&lt;Customer&gt; getCustomer(String username)</text><ellipse cx="600.5" cy="443.2866" fill="#84BE84" rx="3" ry="3" style="stroke:#038048;stroke-width:1;"/><text fill="#FFFFFF" font-family="sans-serif" font-size="14" lengthAdjust="spacing" textLength="410.1289" x="609.5" y="447.2861">Page&lt;Customer&gt; findCustomer(String query, Pageable pageable)</text><ellipse cx="600.5" cy="460.438" fill="#84BE84" rx="3" ry="3" style="stroke:#038048;stroke-width:1;"/><text fill="#FFFFFF" font-family="sans-serif" font-size="14" lengthAdjust="spacing" textLength="610.8594" x="609.5" y="464.4375">void updateCustomerDetails(String username, UpdateCustomerDetailsRequestBody requestBody)</text><ellipse cx="600.5" cy="477.5894" fill="#84BE84" rx="3" ry="3" style="stroke:#038048;stroke-width:1;"/><text fill="#FFFFFF" font-family="sans-serif" font-size="14" lengthAdjust="spacing" textLength="648.2109" x="609.5" y="481.5889">void updateCustomerPassword(String username, UpdateCustomerPasswordRequestBody requestBody)</text><ellipse cx="600.5" cy="494.7407" fill="#84BE84" rx="3" ry="3" style="stroke:#038048;stroke-width:1;"/><text fill="#FFFFFF" font-family="sans-serif" font-size="14" lengthAdjust="spacing" textLength="410.0674" x="609.5" y="498.7402">void updateCustomerImage(String username, MultipartFile image)</text><ellipse cx="600.5" cy="511.8921" fill="#84BE84" rx="3" ry="3" style="stroke:#038048;stroke-width:1;"/><text fill="#FFFFFF" font-family="sans-serif" font-size="14" lengthAdjust="spacing" textLength="268.4541" x="609.5" y="515.8916">void restoreDefaultImage(String username)</text><ellipse cx="600.5" cy="529.0435" fill="#84BE84" rx="3" ry="3" style="stroke:#038048;stroke-width:1;"/><text fill="#FFFFFF" font-family="sans-serif" font-size="14" lengthAdjust="spacing" textLength="240.4404" x="609.5" y="533.043">void deleteCustomer(String username)</text></g><!--class ClassPathResource--><g class="entity" data-entity="ClassPathResource" data-source-line="55" data-uid="ent0025" id="entity_ClassPathResource"><rect fill="#2D2D2D" height="48" rx="2.5" ry="2.5" style="stroke:#8A8A8A;stroke-width:0.5;" width="155.7236" x="489.5" y="625.5"/><ellipse cx="504.5" cy="641.5" fill="#ADD1B2" rx="11" ry="11" style="stroke:#181818;stroke-width:1;"/><path d="M507.2656,637.375 Q507.4219,637.1563 507.6094,637.0469 Q507.7969,636.9375 508.0156,636.9375 Q508.3906,636.9375 508.625,637.2031 Q508.8594,637.4531 508.8594,638.0625 L508.8594,639.5156 Q508.8594,640.125 508.625,640.3906 Q508.3906,640.6563 508.0156,640.6563 Q507.6719,640.6563 507.4688,640.4531 Q507.2656,640.2656 507.1563,639.75 Q507.1094,639.3906 506.9219,639.2031 Q506.5938,638.8281 505.9844,638.6094 Q505.375,638.3906 504.75,638.3906 Q503.9844,638.3906 503.3438,638.7188 Q502.7188,639.0469 502.2188,639.7969 Q501.7344,640.5469 501.7344,641.5781 L501.7344,642.6719 Q501.7344,643.9063 502.625,644.7344 Q503.5156,645.5469 505.1094,645.5469 Q506.0469,645.5469 506.7031,645.2969 Q507.0938,645.1406 507.5156,644.7031 Q507.7813,644.4375 507.9219,644.3594 Q508.0781,644.2813 508.2813,644.2813 Q508.6094,644.2813 508.8594,644.5469 Q509.125,644.7969 509.125,645.1406 Q509.125,645.4844 508.7813,645.8906 Q508.2813,646.4688 507.4844,646.7969 Q506.4063,647.25 505.1094,647.25 Q503.5938,647.25 502.3906,646.625 Q501.4063,646.125 500.7188,645.0625 Q500.0313,643.9844 500.0313,642.7031 L500.0313,641.5469 Q500.0313,640.2188 500.6406,639.0781 Q501.2656,637.9219 502.3594,637.3125 Q503.4531,636.6875 504.6875,636.6875 Q505.4219,636.6875 506.0625,636.8594 Q506.7188,637.0156 507.2656,637.375 Z " fill="#000000"/><text fill="#E0E0E0" font-family="sans-serif" font-size="14" lengthAdjust="spacing" textLength="123.7236" x="518.5" y="646.9995">ClassPathResource</text><line style="stroke:#8A8A8A;stroke-width:0.5;" x1="490.5" x2="644.2236" y1="657.5" y2="657.5"/><line style="stroke:#8A8A8A;stroke-width:0.5;" x1="490.5" x2="644.2236" y1="665.5" y2="665.5"/></g><!--reverse link JpaRepository to CustomerRepositoryV1--><g class="link" data-entity-1="JpaRepository" data-entity-2="CustomerRepositoryV1" data-source-line="20" data-uid="lnk4" id="link_JpaRepository_CustomerRepositoryV1"><path d="M230.5,438.31 C230.5,479.45 230.5,545.6 230.5,599.69" fill="none" id="JpaRepository-backto-CustomerRepositoryV1" style="stroke:#B0C4DE;stroke-width:1;"/><polygon fill="none" points="230.5,420.31,224.5,438.31,236.5,438.31,230.5,420.31" style="stroke:#B0C4DE;stroke-width:1;"/></g><!--reverse link Mapper to CreateCustomerRequestBodyToCustomerMapper--><g class="link" data-entity-1="Mapper" data-entity-2="CreateCustomerRequestBodyToCustomerMapper" data-source-line="21" data-uid="lnk9" id="link_Mapper_CreateCustomerRequestBodyToCustomerMapper"><path d="M1662.68,386 C1727.04,386 1772.17,386 1772.17,386 C1772.17,386 1772.17,534.22 1772.17,608.33" fill="none" id="Mapper-backto-CreateCustomerRequestBodyToCustomerMapper" style="stroke:#B0C4DE;stroke-width:1;"/><polygon fill="none" points="1644.68,386,1662.68,392,1662.68,380,1644.68,386" style="stroke:#B0C4DE;stroke-width:1;"/></g><!--reverse link ToEntityMapper to CreateCustomerRequestBodyToCustomerMapper--><g class="link" data-entity-1="ToEntityMapper" data-entity-2="CreateCustomerRequestBodyToCustomerMapper" data-source-line="21" data-uid="lnk10" id="link_ToEntityMapper_CreateCustomerRequestBodyToCustomerMapper"><path d="M1904.5,446.62 C1904.5,492.49 1904.5,558.03 1904.5,608.18" fill="none" id="ToEntityMapper-backto-CreateCustomerRequestBodyToCustomerMapper" style="stroke:#B0C4DE;stroke-width:1;"/><polygon fill="none" points="1904.5,428.62,1898.5,446.62,1910.5,446.62,1904.5,428.62" style="stroke:#B0C4DE;stroke-width:1;"/></g><!--reverse link CreateCustomerRequestBodyToCustomerMapper to DefaultCreateCustomerRequestBodyToCustomerMapper--><g class="link" data-entity-1="CreateCustomerRequestBodyToCustomerMapper" data-entity-2="DefaultCreateCustomerRequestBodyToCustomerMapper" data-source-line="26" data-uid="lnk12" id="link_CreateCustomerRequestBodyToCustomerMapper_DefaultCreateCustomerRequestBodyToCustomerMapper"><path d="M1960.5,708.87 C1960.5,728.6 1960.5,735.07 1960.5,758.92" fill="none" id="CreateCustomerRequestBodyToCustomerMapper-backto-DefaultCreateCustomerRequestBodyToCustomerMapper" style="stroke:#B0C4DE;stroke-width:1;stroke-dasharray:7,7;"/><polygon fill="none" points="1960.5,690.87,1954.5,708.87,1966.5,708.87,1960.5,690.87" style="stroke:#B0C4DE;stroke-width:1;"/></g><!--reverse link Mapper to UpdateCustomerDetailsRequestBodyToCustomerMapper--><g class="link" data-entity-1="Mapper" data-entity-2="UpdateCustomerDetailsRequestBodyToCustomerMapper" data-source-line="21" data-uid="lnk14" id="link_Mapper_UpdateCustomerDetailsRequestBodyToCustomerMapper"><path d="M1509.5,446.62 C1509.5,492.49 1509.5,558.03 1509.5,608.18" fill="none" id="Mapper-backto-UpdateCustomerDetailsRequestBodyToCustomerMapper" style="stroke:#B0C4DE;stroke-width:1;"/><polygon fill="none" points="1509.5,428.62,1503.5,446.62,1515.5,446.62,1509.5,428.62" style="stroke:#B0C4DE;stroke-width:1;"/></g><!--reverse link ToEntityMapper to UpdateCustomerDetailsRequestBodyToCustomerMapper--><g class="link" data-entity-1="ToEntityMapper" data-entity-2="UpdateCustomerDetailsRequestBodyToCustomerMapper" data-source-line="21" data-uid="lnk15" id="link_ToEntityMapper_UpdateCustomerDetailsRequestBodyToCustomerMapper"><path d="M1771.77,407 C1713.56,407 1673,407 1673,407 C1673,407 1673,539.18 1673,608.36" fill="none" id="ToEntityMapper-backto-UpdateCustomerDetailsRequestBodyToCustomerMapper" style="stroke:#B0C4DE;stroke-width:1;"/><polygon fill="none" points="1789.77,407,1771.77,401,1771.77,413,1789.77,407" style="stroke:#B0C4DE;stroke-width:1;"/></g><!--reverse link UpdateCustomerDetailsRequestBodyToCustomerMapper to DefaultUpdateCustomerDetailsRequestBodyToCustomerMapper--><g class="link" data-entity-1="UpdateCustomerDetailsRequestBodyToCustomerMapper" data-entity-2="DefaultUpdateCustomerDetailsRequestBodyToCustomerMapper" data-source-line="26" data-uid="lnk17" id="link_UpdateCustomerDetailsRequestBodyToCustomerMapper_DefaultUpdateCustomerDetailsRequestBodyToCustomerMapper"><path d="M1454.5,708.87 C1454.5,733.34 1454.5,747.08 1454.5,775.88" fill="none" id="UpdateCustomerDetailsRequestBodyToCustomerMapper-backto-DefaultUpdateCustomerDetailsRequestBodyToCustomerMapper" style="stroke:#B0C4DE;stroke-width:1;stroke-dasharray:7,7;"/><polygon fill="none" points="1454.5,690.87,1448.5,708.87,1460.5,708.87,1454.5,690.87" style="stroke:#B0C4DE;stroke-width:1;"/></g><!--reverse link CustomerServiceV1 to DefaultCustomerServiceV1--><g class="link" data-entity-1="CustomerServiceV1" data-entity-2="DefaultCustomerServiceV1" data-source-line="34" data-uid="lnk20" id="link_CustomerServiceV1_DefaultCustomerServiceV1"><path d="M926.5,210.09 C926.5,229.13 926.5,231.59 926.5,251.94" fill="none" id="CustomerServiceV1-backto-DefaultCustomerServiceV1" style="stroke:#B0C4DE;stroke-width:1;stroke-dasharray:7,7;"/><polygon fill="none" points="926.5,192.09,920.5,210.09,932.5,210.09,926.5,192.09" style="stroke:#B0C4DE;stroke-width:1;"/></g><!--link DefaultCustomerServiceV1 to CustomerRepositoryV1--><g class="link" data-entity-1="DefaultCustomerServiceV1" data-entity-2="CustomerRepositoryV1" data-source-line="51" data-uid="lnk21" id="link_DefaultCustomerServiceV1_CustomerRepositoryV1"><path codeLine="51" d="M608.17,540.14 C608.17,580.22 608.17,613 608.17,613 C608.17,613 541.56,613 460.01,613" fill="none" id="DefaultCustomerServiceV1-to-CustomerRepositoryV1" style="stroke:#B0C4DE;stroke-width:1;"/><polygon fill="#B0C4DE" points="454.01,613,463.01,617,459.01,613,463.01,609,454.01,613" style="stroke:#B0C4DE;stroke-width:1;"/></g><!--link DefaultCustomerServiceV1 to PasswordEncoder--><g class="link" data-entity-1="DefaultCustomerServiceV1" data-entity-2="PasswordEncoder" data-source-line="52" data-uid="lnk22" id="link_DefaultCustomerServiceV1_PasswordEncoder"><path codeLine="52" d="M926.5,540.15 C926.5,561.56 926.5,576.28 926.5,593.83" fill="none" id="DefaultCustomerServiceV1-to-PasswordEncoder" style="stroke:#B0C4DE;stroke-width:1;"/><polygon fill="#B0C4DE" points="926.5,599.83,930.5,590.83,926.5,594.83,922.5,590.83,926.5,599.83" style="stroke:#B0C4DE;stroke-width:1;"/></g><!--link DefaultCustomerServiceV1 to CreateCustomerRequestBodyToCustomerMapper--><g class="link" data-entity-1="DefaultCustomerServiceV1" data-entity-2="CreateCustomerRequestBodyToCustomerMapper" data-source-line="53" data-uid="lnk23" id="link_DefaultCustomerServiceV1_CreateCustomerRequestBodyToCustomerMapper"><path codeLine="53" d="M1263.51,485 C1492.63,485 1754.33,485 1754.33,485 C1754.33,485 1754.33,553.69 1754.33,602.41" fill="none" id="DefaultCustomerServiceV1-to-CreateCustomerRequestBodyToCustomerMapper" style="stroke:#B0C4DE;stroke-width:1;"/><polygon fill="#B0C4DE" points="1754.33,608.41,1758.33,599.41,1754.33,603.41,1750.33,599.41,1754.33,608.41" style="stroke:#B0C4DE;stroke-width:1;"/></g><!--link DefaultCustomerServiceV1 to UpdateCustomerDetailsRequestBodyToCustomerMapper--><g class="link" data-entity-1="DefaultCustomerServiceV1" data-entity-2="UpdateCustomerDetailsRequestBodyToCustomerMapper" data-source-line="54" data-uid="lnk24" id="link_DefaultCustomerServiceV1_UpdateCustomerDetailsRequestBodyToCustomerMapper"><path codeLine="54" d="M1235.5,540.15 C1235.5,565.12 1235.5,583.17 1235.5,602.33" fill="none" id="DefaultCustomerServiceV1-to-UpdateCustomerDetailsRequestBodyToCustomerMapper" style="stroke:#B0C4DE;stroke-width:1;"/><polygon fill="#B0C4DE" points="1235.5,608.33,1239.5,599.33,1235.5,603.33,1231.5,599.33,1235.5,608.33" style="stroke:#B0C4DE;stroke-width:1;"/></g><!--link DefaultCustomerServiceV1 to ClassPathResource--><g class="link" data-entity-1="DefaultCustomerServiceV1" data-entity-2="ClassPathResource" data-source-line="55" data-uid="lnk26" id="link_DefaultCustomerServiceV1_ClassPathResource"><path codeLine="55" d="M626.83,540.15 C626.83,573.15 626.83,598.54 626.83,619.15" fill="none" id="DefaultCustomerServiceV1-to-ClassPathResource" style="stroke:#B0C4DE;stroke-width:1;"/><polygon fill="#B0C4DE" points="626.83,625.15,630.83,616.15,626.83,620.15,622.83,616.15,626.83,625.15" style="stroke:#B0C4DE;stroke-width:1;"/></g><!--SRC=[xLHDRzim3BtxLsZOPSMMeHbssA4ea3W9i4E0eErwLomc4IfB7YKr2uRzzz69t2Z-g1jWG7kO1HWo-VX4aNos3r8N77dEbDJWTWKmWsvZ4llaMFBiOOt6Qv4QPP2z7qxB5I44hBXNxWv-kP6IQvs3TYoZ5s246Y6QRQ0ONwPV9p65tN1XjbAlsOeh2v5dPhGBKRFz4_aonQtj1OoSGxdq3dgHSw2hYoQiZcE_4yR6zRfycPIhz1WKWC7wRLGkiaQqqyjo9N-Iv9tKcV82MEgjCpdW3HJ6IcTmTp_yNFXS7I4BEdbBr5ET6UAlULC4xk18yzE3TMCZTdUcCivvKJJYVXGYYfk0urBPtl14bjrTyUoO-ItWeypWVhYl3cCVsQEHWcKdUNteJ9FXSNyH22eOMuDxOhYbRjASU0keUGuLTi7NS5M1hjbAKbywGZxjmNofW1LXSn6dxDjAqYJfgrpRZLhugxRs7L3XpZ_XUqwtRDBFIREIfjhD95L2bg0J4YHcWp0vgBkLv0GlG47KwGQKnlsWdi3O71oP5mhAluVjdAf1gr8er-eZe6fYeKQVV5TSBnLD6EC8SR07ddD551hKHPUMPLfmjxa1QpoIoBAw9Na36litggICSFTVagyboKun3WRNhLfxFgAcknxwbyhlUPfprTUJL5rgVm40]--></g></svg>