<?plantuml 1.2026.2?>
<svg xmlns="http://www.w3.org/2000/svg" contentStyleType="text/css" data-diagram-type="CLASS" height="855.9px"
     preserveAspectRatio="none" style="width:2092px;height:855px;background:#1E1E1E;" version="1.1"
     viewBox="0 0 2092 855" width="2092.5px" zoomAndPan="magnify"><defs/><g><rect fill="#1E1E1E" height="855.9" style="stroke:none;stroke-width:0.9;" width="2092.5" x="0" y="0"/><!--class JpaRepository--><g class="entity" data-qualified-name="JpaRepository" data-source-line="17" id="ent0002"><rect fill="#2D2D2D" height="43.2" rx="2.25" ry="2.25" style="stroke:#8A8A8A;stroke-width:0.45;" width="136.3386" x="139.5" y="334.8"/><ellipse cx="153" cy="349.2" fill="#B4A7E5" rx="9.9" ry="9.9" style="stroke:#181818;stroke-width:0.9;"/><path d="M153.8578,346.1766 L153.8578,352.1672 L155.4047,352.1672 Q155.9531,352.1672 156.1922,352.3781 Q156.4313,352.5891 156.4313,352.9406 Q156.4313,353.2781 156.1922,353.4891 Q155.9531,353.7 155.4047,353.7 L150.7781,353.7 Q150.2297,353.7 149.9906,353.4891 Q149.7516,353.2781 149.7516,352.9266 Q149.7516,352.5891 149.9906,352.3781 Q150.2297,352.1672 150.7781,352.1672 L152.325,352.1672 L152.325,346.1766 L150.7781,346.1766 Q150.2297,346.1766 149.9906,345.9656 Q149.7516,345.7547 149.7516,345.4031 Q149.7516,345.0656 149.9906,344.8547 Q150.2297,344.6438 150.7781,344.6438 L155.4047,344.6438 Q155.9531,344.6438 156.1922,344.8547 Q156.4313,345.0656 156.4313,345.4031 Q156.4313,345.7547 156.1922,345.9656 Q155.9531,346.1766 155.4047,346.1766 L153.8578,346.1766 Z " fill="#000000"/><text fill="#E0E0E0" font-family="sans-serif" font-size="12.6" font-style="italic" lengthAdjust="spacing" textLength="80.5403" x="165.6" y="354.1496">JpaRepository</text><rect fill="#2D2D2D" height="15.0311" style="stroke:#8A8A8A;stroke-width:0.9;stroke-dasharray:1.8,1.8;" width="25.1982" x="253.3403" y="332.1"/><text fill="#000000" font-family="sans-serif" font-size="10.8" font-style="italic" lengthAdjust="spacing" textLength="23.3982" x="254.2403" y="343.858">T, ID</text><line style="stroke:#8A8A8A;stroke-width:0.45;" x1="140.4" x2="274.9386" y1="363.6" y2="363.6"/><line style="stroke:#8A8A8A;stroke-width:0.45;" x1="140.4" x2="274.9386" y1="370.8" y2="370.8"/></g><!--class CustomerRepositoryV1--><g class="entity" data-qualified-name="CustomerRepositoryV1" data-source-line="19" id="ent0003"><rect fill="#2D2D2D" height="89.5087" rx="2.25" ry="2.25" style="stroke:#8A8A8A;stroke-width:0.45;" width="402.2798" x="6.3" y="540"/><ellipse cx="138.4893" cy="554.4" fill="#B4A7E5" rx="9.9" ry="9.9" style="stroke:#181818;stroke-width:0.9;"/><path d="M139.3471,551.3766 L139.3471,557.3672 L140.8939,557.3672 Q141.4424,557.3672 141.6814,557.5781 Q141.9205,557.7891 141.9205,558.1406 Q141.9205,558.4781 141.6814,558.6891 Q141.4424,558.9 140.8939,558.9 L136.2674,558.9 Q135.7189,558.9 135.4799,558.6891 Q135.2408,558.4781 135.2408,558.1266 Q135.2408,557.7891 135.4799,557.5781 Q135.7189,557.3672 136.2674,557.3672 L137.8143,557.3672 L137.8143,551.3766 L136.2674,551.3766 Q135.7189,551.3766 135.4799,551.1656 Q135.2408,550.9547 135.2408,550.6031 Q135.2408,550.2656 135.4799,550.0547 Q135.7189,549.8438 136.2674,549.8438 L140.8939,549.8438 Q141.4424,549.8438 141.6814,550.0547 Q141.9205,550.2656 141.9205,550.6031 Q141.9205,550.9547 141.6814,551.1656 Q141.4424,551.3766 140.8939,551.3766 L139.3471,551.3766 Z " fill="#000000"/><text fill="#E0E0E0" font-family="sans-serif" font-size="12.6" font-style="italic" lengthAdjust="spacing" textLength="130.2513" x="156.9393" y="559.3496">CustomerRepositoryV1</text><line style="stroke:#8A8A8A;stroke-width:0.45;" x1="7.2" x2="407.6798" y1="568.8" y2="568.8"/><line style="stroke:#8A8A8A;stroke-width:0.45;" x1="7.2" x2="407.6798" y1="576" y2="576"/><g data-visibility-modifier="PUBLIC_METHOD"><ellipse cx="16.2" cy="588.6681" fill="#84BE84" rx="2.7" ry="2.7" style="stroke:#038048;stroke-width:0.9;"/></g><text fill="#FFFFFF" font-family="sans-serif" font-size="12.6" lengthAdjust="spacing" textLength="378.8798" x="24.3" y="592.2677">Optional&lt;Customer&gt; findByUsernameIgnoreCase(String username)</text><g data-visibility-modifier="PUBLIC_METHOD"><ellipse cx="16.2" cy="604.1043" fill="#84BE84" rx="2.7" ry="2.7" style="stroke:#038048;stroke-width:0.9;"/></g><text fill="#FFFFFF" font-family="sans-serif" font-size="12.6" lengthAdjust="spacing" textLength="369.116" x="24.3" y="607.7039">Page&lt;Customer&gt; findCustomer(String query, Pageable pageable)</text><g data-visibility-modifier="PUBLIC_METHOD"><ellipse cx="16.2" cy="619.5406" fill="#84BE84" rx="2.7" ry="2.7" style="stroke:#038048;stroke-width:0.9;"/></g><text fill="#FFFFFF" font-family="sans-serif" font-size="12.6" lengthAdjust="spacing" textLength="234.6073" x="24.3" y="623.1401">void deleteByUsername(String username)</text></g><!--class PasswordEncoder--><g class="entity" data-qualified-name="PasswordEncoder" data-source-line="17" id="ent0005"><rect fill="#2D2D2D" height="89.5087" rx="2.25" ry="2.25" style="stroke:#8A8A8A;stroke-width:0.45;" width="442.2208" x="612.9" y="540"/><ellipse cx="779.0594" cy="554.4" fill="#B4A7E5" rx="9.9" ry="9.9" style="stroke:#181818;stroke-width:0.9;"/><path d="M779.9172,551.3766 L779.9172,557.3672 L781.4641,557.3672 Q782.0125,557.3672 782.2516,557.5781 Q782.4907,557.7891 782.4907,558.1406 Q782.4907,558.4781 782.2516,558.6891 Q782.0125,558.9 781.4641,558.9 L776.8375,558.9 Q776.2891,558.9 776.05,558.6891 Q775.811,558.4781 775.811,558.1266 Q775.811,557.7891 776.05,557.5781 Q776.2891,557.3672 776.8375,557.3672 L778.3844,557.3672 L778.3844,551.3766 L776.8375,551.3766 Q776.2891,551.3766 776.05,551.1656 Q775.811,550.9547 775.811,550.6031 Q775.811,550.2656 776.05,550.0547 Q776.2891,549.8438 776.8375,549.8438 L781.4641,549.8438 Q782.0125,549.8438 782.2516,550.0547 Q782.4907,550.2656 782.4907,550.6031 Q782.4907,550.9547 782.2516,551.1656 Q782.0125,551.3766 781.4641,551.3766 L779.9172,551.3766 Z " fill="#000000"/><text fill="#E0E0E0" font-family="sans-serif" font-size="12.6" font-style="italic" lengthAdjust="spacing" textLength="102.252" x="797.5094" y="559.3496">PasswordEncoder</text><line style="stroke:#8A8A8A;stroke-width:0.45;" x1="613.8" x2="1054.2208" y1="568.8" y2="568.8"/><line style="stroke:#8A8A8A;stroke-width:0.45;" x1="613.8" x2="1054.2208" y1="576" y2="576"/><g data-visibility-modifier="PUBLIC_METHOD"><ellipse cx="622.8" cy="588.6681" fill="#84BE84" rx="2.7" ry="2.7" style="stroke:#038048;stroke-width:0.9;"/></g><text fill="#FFFFFF" font-family="sans-serif" font-size="12.6" lengthAdjust="spacing" textLength="249.3299" x="630.9" y="592.2677">String encode(CharSequence rawPassword)</text><g data-visibility-modifier="PUBLIC_METHOD"><ellipse cx="622.8" cy="604.1043" fill="#84BE84" rx="2.7" ry="2.7" style="stroke:#038048;stroke-width:0.9;"/></g><text fill="#FFFFFF" font-family="sans-serif" font-size="12.6" lengthAdjust="spacing" textLength="418.8208" x="630.9" y="607.7039">boolean matches((CharSequence rawPassword, String encodedPassword)</text><g data-visibility-modifier="PUBLIC_METHOD"><ellipse cx="622.8" cy="619.5406" fill="#84BE84" rx="2.7" ry="2.7" style="stroke:#038048;stroke-width:0.9;"/></g><text fill="#FFFFFF" font-family="sans-serif" font-size="12.6" lengthAdjust="spacing" textLength="295.6017" x="630.9" y="623.1401">boolean upgradeEncoding(String encodedPassword)</text></g><!--class Mapper--><g class="entity" data-qualified-name="Mapper" data-source-line="17" id="ent0006"><rect fill="#2D2D2D" height="74.0725" rx="2.25" ry="2.25" style="stroke:#8A8A8A;stroke-width:0.45;" width="243.2971" x="1237.05" y="319.5"/><ellipse cx="1295.9956" cy="333.9" fill="#B4A7E5" rx="9.9" ry="9.9" style="stroke:#181818;stroke-width:0.9;"/><path d="M1296.8534,330.8766 L1296.8534,336.8672 L1298.4003,336.8672 Q1298.9487,336.8672 1299.1878,337.0781 Q1299.4269,337.2891 1299.4269,337.6406 Q1299.4269,337.9781 1299.1878,338.1891 Q1298.9487,338.4 1298.4003,338.4 L1293.7737,338.4 Q1293.2253,338.4 1292.9862,338.1891 Q1292.7472,337.9781 1292.7472,337.6266 Q1292.7472,337.2891 1292.9862,337.0781 Q1293.2253,336.8672 1293.7737,336.8672 L1295.3206,336.8672 L1295.3206,330.8766 L1293.7737,330.8766 Q1293.2253,330.8766 1292.9862,330.6656 Q1292.7472,330.4547 1292.7472,330.1031 Q1292.7472,329.7656 1292.9862,329.5547 Q1293.2253,329.3438 1293.7737,329.3438 L1298.4003,329.3438 Q1298.9487,329.3438 1299.1878,329.5547 Q1299.4269,329.7656 1299.4269,330.1031 Q1299.4269,330.4547 1299.1878,330.6656 Q1298.9487,330.8766 1298.4003,330.8766 L1296.8534,330.8766 Z " fill="#000000"/><text fill="#E0E0E0" font-family="sans-serif" font-size="12.6" font-style="italic" lengthAdjust="spacing" textLength="42.7219" x="1314.4456" y="338.8496">Mapper</text><rect fill="#2D2D2D" height="15.0311" style="stroke:#8A8A8A;stroke-width:0.9;stroke-dasharray:1.8,1.8;" width="73.234" x="1409.8131" y="316.8"/><text fill="#000000" font-family="sans-serif" font-size="10.8" font-style="italic" lengthAdjust="spacing" textLength="71.434" x="1410.7131" y="328.558">Source, Target</text><line style="stroke:#8A8A8A;stroke-width:0.45;" x1="1237.95" x2="1479.4471" y1="348.3" y2="348.3"/><line style="stroke:#8A8A8A;stroke-width:0.45;" x1="1237.95" x2="1479.4471" y1="355.5" y2="355.5"/><g data-visibility-modifier="PUBLIC_METHOD"><ellipse cx="1246.95" cy="368.1681" fill="#84BE84" rx="2.7" ry="2.7" style="stroke:#038048;stroke-width:0.9;"/></g><text fill="#FFFFFF" font-family="sans-serif" font-size="12.6" lengthAdjust="spacing" textLength="219.8971" x="1255.05" y="371.7677">void map(Source source, Target target)</text><g data-visibility-modifier="PUBLIC_METHOD"><ellipse cx="1246.95" cy="383.6043" fill="#84BE84" rx="2.7" ry="2.7" style="stroke:#038048;stroke-width:0.9;"/></g><text fill="#FFFFFF" font-family="sans-serif" font-size="12.6" lengthAdjust="spacing" textLength="219.8971" x="1255.05" y="387.2039">void map(Source source, Target target)</text></g><!--class ToEntityMapper--><g class="entity" data-qualified-name="ToEntityMapper" data-source-line="17" id="ent0007"><rect fill="#2D2D2D" height="74.0725" rx="2.25" ry="2.25" style="stroke:#8A8A8A;stroke-width:0.45;" width="206.1738" x="1611" y="319.5"/><ellipse cx="1632.422" cy="333.9" fill="#B4A7E5" rx="9.9" ry="9.9" style="stroke:#181818;stroke-width:0.9;"/><path d="M1633.2798,330.8766 L1633.2798,336.8672 L1634.8267,336.8672 Q1635.3751,336.8672 1635.6142,337.0781 Q1635.8533,337.2891 1635.8533,337.6406 Q1635.8533,337.9781 1635.6142,338.1891 Q1635.3751,338.4 1634.8267,338.4 L1630.2001,338.4 Q1629.6517,338.4 1629.4126,338.1891 Q1629.1736,337.9781 1629.1736,337.6266 Q1629.1736,337.2891 1629.4126,337.0781 Q1629.6517,336.8672 1630.2001,336.8672 L1631.747,336.8672 L1631.747,330.8766 L1630.2001,330.8766 Q1629.6517,330.8766 1629.4126,330.6656 Q1629.1736,330.4547 1629.1736,330.1031 Q1629.1736,329.7656 1629.4126,329.5547 Q1629.6517,329.3438 1630.2001,329.3438 L1634.8267,329.3438 Q1635.3751,329.3438 1635.6142,329.5547 Q1635.8533,329.7656 1635.8533,330.1031 Q1635.8533,330.4547 1635.6142,330.6656 Q1635.3751,330.8766 1634.8267,330.8766 L1633.2798,330.8766 Z " fill="#000000"/><text fill="#E0E0E0" font-family="sans-serif" font-size="12.6" font-style="italic" lengthAdjust="spacing" textLength="88.9383" x="1646.7825" y="338.8496">ToEntityMapper</text><rect fill="#2D2D2D" height="15.0311" style="stroke:#8A8A8A;stroke-width:0.9;stroke-dasharray:1.8,1.8;" width="69.0311" x="1750.8428" y="316.8"/><text fill="#000000" font-family="sans-serif" font-size="10.8" font-style="italic" lengthAdjust="spacing" textLength="67.2311" x="1751.7428" y="328.558">Source, Entity</text><line style="stroke:#8A8A8A;stroke-width:0.45;" x1="1611.9" x2="1816.2738" y1="348.3" y2="348.3"/><line style="stroke:#8A8A8A;stroke-width:0.45;" x1="1611.9" x2="1816.2738" y1="355.5" y2="355.5"/><text fill="#FFFFFF" font-family="sans-serif" font-size="12.6" lengthAdjust="spacing" textLength="195.3738" x="1616.4" y="371.7677">Entity mapToEntity(Source source)</text><text fill="#FFFFFF" font-family="sans-serif" font-size="12.6" lengthAdjust="spacing" textLength="195.3738" x="1616.4" y="387.2039">Entity mapToEntity(Source source)</text></g><!--class CreateCustomerRequestBodyToCustomerMapper--><g class="entity" data-qualified-name="CreateCustomerRequestBodyToCustomerMapper" data-source-line="20" id="ent0008"><rect fill="#2D2D2D" height="74.0725" rx="2.25" ry="2.25" style="stroke:#8A8A8A;stroke-width:0.45;" width="402.9627" x="1562.85" y="547.65"/><ellipse cx="1620.4452" cy="562.05" fill="#B4A7E5" rx="9.9" ry="9.9" style="stroke:#181818;stroke-width:0.9;"/><path d="M1621.303,559.0266 L1621.303,565.0172 L1622.8499,565.0172 Q1623.3983,565.0172 1623.6374,565.2281 Q1623.8764,565.4391 1623.8764,565.7906 Q1623.8764,566.1281 1623.6374,566.3391 Q1623.3983,566.55 1622.8499,566.55 L1618.2233,566.55 Q1617.6749,566.55 1617.4358,566.3391 Q1617.1967,566.1281 1617.1967,565.7766 Q1617.1967,565.4391 1617.4358,565.2281 Q1617.6749,565.0172 1618.2233,565.0172 L1619.7702,565.0172 L1619.7702,559.0266 L1618.2233,559.0266 Q1617.6749,559.0266 1617.4358,558.8156 Q1617.1967,558.6047 1617.1967,558.2531 Q1617.1967,557.9156 1617.4358,557.7047 Q1617.6749,557.4938 1618.2233,557.4938 L1622.8499,557.4938 Q1623.3983,557.4938 1623.6374,557.7047 Q1623.8764,557.9156 1623.8764,558.2531 Q1623.8764,558.6047 1623.6374,558.8156 Q1623.3983,559.0266 1622.8499,559.0266 L1621.303,559.0266 Z " fill="#000000"/><text fill="#E0E0E0" font-family="sans-serif" font-size="12.6" font-style="italic" lengthAdjust="spacing" textLength="280.1224" x="1638.8952" y="566.9996">CreateCustomerRequestBodyToCustomerMapper</text><line style="stroke:#8A8A8A;stroke-width:0.45;" x1="1563.75" x2="1964.9127" y1="576.45" y2="576.45"/><line style="stroke:#8A8A8A;stroke-width:0.45;" x1="1563.75" x2="1964.9127" y1="583.65" y2="583.65"/><g data-visibility-modifier="PUBLIC_METHOD"><ellipse cx="1572.75" cy="596.3181" fill="#84BE84" rx="2.7" ry="2.7" style="stroke:#038048;stroke-width:0.9;"/></g><text fill="#FFFFFF" font-family="sans-serif" font-size="12.6" lengthAdjust="spacing" textLength="366.2552" x="1580.85" y="599.9177">void map(CreateCustomerRequestBody source, Customer target)</text><g data-visibility-modifier="PUBLIC_METHOD"><ellipse cx="1572.75" cy="611.7543" fill="#84BE84" rx="2.7" ry="2.7" style="stroke:#038048;stroke-width:0.9;"/></g><text fill="#FFFFFF" font-family="sans-serif" font-size="12.6" lengthAdjust="spacing" textLength="379.5627" x="1580.85" y="615.3539">Customer mapToEntity(CreateCustomerRequestBody requestBody)</text></g><!--class DefaultCreateCustomerRequestBodyToCustomerMapper--><g class="entity" data-qualified-name="DefaultCreateCustomerRequestBodyToCustomerMapper" data-source-line="25" id="ent0011"><rect fill="#2D2D2D" height="166.6898" rx="2.25" ry="2.25" style="stroke:#8A8A8A;stroke-width:0.45;" width="524.1085" x="1562.85" y="683.1"/><ellipse cx="1661.0568" cy="697.5" fill="#ADD1B2" rx="9.9" ry="9.9" style="stroke:#181818;stroke-width:0.9;"/><path d="M1663.5458,693.7875 Q1663.6865,693.5906 1663.8552,693.4922 Q1664.024,693.3938 1664.2208,693.3938 Q1664.5583,693.3938 1664.7693,693.6328 Q1664.9802,693.8578 1664.9802,694.4063 L1664.9802,695.7141 Q1664.9802,696.2625 1664.7693,696.5016 Q1664.5583,696.7406 1664.2208,696.7406 Q1663.9115,696.7406 1663.7287,696.5578 Q1663.5458,696.3891 1663.4474,695.925 Q1663.4052,695.6016 1663.2365,695.4328 Q1662.9412,695.0953 1662.3927,694.8984 Q1661.8443,694.7016 1661.2818,694.7016 Q1660.5927,694.7016 1660.0162,694.9969 Q1659.4537,695.2922 1659.0037,695.9672 Q1658.5677,696.6422 1658.5677,697.5703 L1658.5677,698.5547 Q1658.5677,699.6656 1659.3693,700.4109 Q1660.1708,701.1422 1661.6052,701.1422 Q1662.449,701.1422 1663.0396,700.9172 Q1663.3912,700.7766 1663.7708,700.3828 Q1664.0099,700.1438 1664.1365,700.0734 Q1664.2771,700.0031 1664.4599,700.0031 Q1664.7552,700.0031 1664.9802,700.2422 Q1665.2193,700.4672 1665.2193,700.7766 Q1665.2193,701.0859 1664.9099,701.4516 Q1664.4599,701.9719 1663.7427,702.2672 Q1662.7724,702.675 1661.6052,702.675 Q1660.2412,702.675 1659.1583,702.1125 Q1658.2724,701.6625 1657.6537,700.7063 Q1657.0349,699.7359 1657.0349,698.5828 L1657.0349,697.5422 Q1657.0349,696.3469 1657.5833,695.3203 Q1658.1458,694.2797 1659.1302,693.7313 Q1660.1146,693.1688 1661.2255,693.1688 Q1661.8865,693.1688 1662.463,693.3234 Q1663.0537,693.4641 1663.5458,693.7875 Z " fill="#000000"/><text fill="#E0E0E0" font-family="sans-serif" font-size="12.6" lengthAdjust="spacing" textLength="320.0449" x="1679.5068" y="702.4496">DefaultCreateCustomerRequestBodyToCustomerMapper</text><line style="stroke:#8A8A8A;stroke-width:0.45;" x1="1563.75" x2="2086.0585" y1="711.9" y2="711.9"/><line style="stroke:#8A8A8A;stroke-width:0.45;" x1="1563.75" x2="2086.0585" y1="719.1" y2="719.1"/><g data-visibility-modifier="PUBLIC_METHOD"><ellipse cx="1572.75" cy="731.7681" fill="#84BE84" rx="2.7" ry="2.7" style="stroke:#038048;stroke-width:0.9;"/></g><text fill="#FFFFFF" font-family="sans-serif" font-size="12.6" lengthAdjust="spacing" textLength="379.5627" x="1580.85" y="735.3677">Customer mapToEntity(CreateCustomerRequestBody requestBody)</text><g data-visibility-modifier="PUBLIC_METHOD"><ellipse cx="1572.75" cy="747.2043" fill="#84BE84" rx="2.7" ry="2.7" style="stroke:#038048;stroke-width:0.9;"/></g><text fill="#FFFFFF" font-family="sans-serif" font-size="12.6" lengthAdjust="spacing" textLength="418.7777" x="1580.85" y="750.8039">void map(CreateCustomerRequestBody requestBody, Customer customer)</text><g data-visibility-modifier="PRIVATE_METHOD"><rect fill="#F24D5C" height="5.4" style="stroke:#C82930;stroke-width:0.9;" width="5.4" x="1570.05" y="759.9406"/></g><text fill="#FFFFFF" font-family="sans-serif" font-size="12.6" lengthAdjust="spacing" textLength="476.8989" x="1580.85" y="766.2401">void mapUsername(CreateCustomerRequestBody requestBody, Customer customer)</text><g data-visibility-modifier="PRIVATE_METHOD"><rect fill="#F24D5C" height="5.4" style="stroke:#C82930;stroke-width:0.9;" width="5.4" x="1570.05" y="775.3768"/></g><text fill="#FFFFFF" font-family="sans-serif" font-size="12.6" lengthAdjust="spacing" textLength="474.0996" x="1580.85" y="781.6764">void mapPassword(CreateCustomerRequestBody requestBody, Customer customer)</text><g data-visibility-modifier="PRIVATE_METHOD"><rect fill="#F24D5C" height="5.4" style="stroke:#C82930;stroke-width:0.9;" width="5.4" x="1570.05" y="790.813"/></g><text fill="#FFFFFF" font-family="sans-serif" font-size="12.6" lengthAdjust="spacing" textLength="476.8805" x="1580.85" y="797.1126">void mapFirstName(CreateCustomerRequestBody requestBody, Customer customer)</text><g data-visibility-modifier="PRIVATE_METHOD"><rect fill="#F24D5C" height="5.4" style="stroke:#C82930;stroke-width:0.9;" width="5.4" x="1570.05" y="806.2493"/></g><text fill="#FFFFFF" font-family="sans-serif" font-size="12.6" lengthAdjust="spacing" textLength="476.2037" x="1580.85" y="812.5488">void mapLastName(CreateCustomerRequestBody requestBody, Customer customer)</text><g data-visibility-modifier="PRIVATE_METHOD"><rect fill="#F24D5C" height="5.4" style="stroke:#C82930;stroke-width:0.9;" width="5.4" x="1570.05" y="821.6855"/></g><text fill="#FFFFFF" font-family="sans-serif" font-size="12.6" lengthAdjust="spacing" textLength="450.2839" x="1580.85" y="827.9851">void mapEmail(CreateCustomerRequestBody requestBody, Customer customer)</text><g data-visibility-modifier="PRIVATE_METHOD"><rect fill="#F24D5C" height="5.4" style="stroke:#C82930;stroke-width:0.9;" width="5.4" x="1570.05" y="837.1217"/></g><text fill="#FFFFFF" font-family="sans-serif" font-size="12.6" lengthAdjust="spacing" textLength="500.7085" x="1580.85" y="843.4213">void mapMobileNumber(CreateCustomerRequestBody requestBody, Customer customer)</text></g><!--class UpdateCustomerDetailsRequestBodyToCustomerMapper--><g class="entity" data-qualified-name="UpdateCustomerDetailsRequestBodyToCustomerMapper" data-source-line="20" id="ent0013"><rect fill="#2D2D2D" height="74.0725" rx="2.25" ry="2.25" style="stroke:#8A8A8A;stroke-width:0.45;" width="444.288" x="1086.75" y="547.65"/><ellipse cx="1144.3452" cy="562.05" fill="#B4A7E5" rx="9.9" ry="9.9" style="stroke:#181818;stroke-width:0.9;"/><path d="M1145.203,559.0266 L1145.203,565.0172 L1146.7499,565.0172 Q1147.2983,565.0172 1147.5374,565.2281 Q1147.7764,565.4391 1147.7764,565.7906 Q1147.7764,566.1281 1147.5374,566.3391 Q1147.2983,566.55 1146.7499,566.55 L1142.1233,566.55 Q1141.5749,566.55 1141.3358,566.3391 Q1141.0967,566.1281 1141.0967,565.7766 Q1141.0967,565.4391 1141.3358,565.2281 Q1141.5749,565.0172 1142.1233,565.0172 L1143.6702,565.0172 L1143.6702,559.0266 L1142.1233,559.0266 Q1141.5749,559.0266 1141.3358,558.8156 Q1141.0967,558.6047 1141.0967,558.2531 Q1141.0967,557.9156 1141.3358,557.7047 Q1141.5749,557.4938 1142.1233,557.4938 L1146.7499,557.4938 Q1147.2983,557.4938 1147.5374,557.7047 Q1147.7764,557.9156 1147.7764,558.2531 Q1147.7764,558.6047 1147.5374,558.8156 Q1147.2983,559.0266 1146.7499,559.0266 L1145.203,559.0266 Z " fill="#000000"/><text fill="#E0E0E0" font-family="sans-serif" font-size="12.6" font-style="italic" lengthAdjust="spacing" textLength="321.4477" x="1162.7952" y="566.9996">UpdateCustomerDetailsRequestBodyToCustomerMapper</text><line style="stroke:#8A8A8A;stroke-width:0.45;" x1="1087.65" x2="1530.138" y1="576.45" y2="576.45"/><line style="stroke:#8A8A8A;stroke-width:0.45;" x1="1087.65" x2="1530.138" y1="583.65" y2="583.65"/><g data-visibility-modifier="PUBLIC_METHOD"><ellipse cx="1096.65" cy="596.3181" fill="#84BE84" rx="2.7" ry="2.7" style="stroke:#038048;stroke-width:0.9;"/></g><text fill="#FFFFFF" font-family="sans-serif" font-size="12.6" lengthAdjust="spacing" textLength="407.5805" x="1104.75" y="599.9177">void map(UpdateCustomerDetailsRequestBody source, Customer target)</text><g data-visibility-modifier="PUBLIC_METHOD"><ellipse cx="1096.65" cy="611.7543" fill="#84BE84" rx="2.7" ry="2.7" style="stroke:#038048;stroke-width:0.9;"/></g><text fill="#FFFFFF" font-family="sans-serif" font-size="12.6" lengthAdjust="spacing" textLength="420.888" x="1104.75" y="615.3539">Customer mapToEntity(UpdateCustomerDetailsRequestBody requestBody)</text></g><!--class DefaultUpdateCustomerDetailsRequestBodyToCustomerMapper--><g class="entity" data-qualified-name="DefaultUpdateCustomerDetailsRequestBodyToCustomerMapper" data-source-line="25" id="ent0016"><rect fill="#2D2D2D" height="135.8174" rx="2.25" ry="2.25" style="stroke:#8A8A8A;stroke-width:0.45;" width="565.4338" x="966.15" y="698.4"/><ellipse cx="1064.3568" cy="712.8" fill="#ADD1B2" rx="9.9" ry="9.9" style="stroke:#181818;stroke-width:0.9;"/><path d="M1066.8458,709.0875 Q1066.9865,708.8906 1067.1552,708.7922 Q1067.324,708.6938 1067.5208,708.6938 Q1067.8583,708.6938 1068.0693,708.9328 Q1068.2802,709.1578 1068.2802,709.7063 L1068.2802,711.0141 Q1068.2802,711.5625 1068.0693,711.8016 Q1067.8583,712.0406 1067.5208,712.0406 Q1067.2115,712.0406 1067.0287,711.8578 Q1066.8458,711.6891 1066.7474,711.225 Q1066.7052,710.9016 1066.5365,710.7328 Q1066.2412,710.3953 1065.6927,710.1984 Q1065.1443,710.0016 1064.5818,710.0016 Q1063.8927,710.0016 1063.3162,710.2969 Q1062.7537,710.5922 1062.3037,711.2672 Q1061.8677,711.9422 1061.8677,712.8703 L1061.8677,713.8547 Q1061.8677,714.9656 1062.6693,715.7109 Q1063.4708,716.4422 1064.9052,716.4422 Q1065.749,716.4422 1066.3396,716.2172 Q1066.6912,716.0766 1067.0708,715.6828 Q1067.3099,715.4438 1067.4365,715.3734 Q1067.5771,715.3031 1067.7599,715.3031 Q1068.0552,715.3031 1068.2802,715.5422 Q1068.5193,715.7672 1068.5193,716.0766 Q1068.5193,716.3859 1068.2099,716.7516 Q1067.7599,717.2719 1067.0427,717.5672 Q1066.0724,717.975 1064.9052,717.975 Q1063.5412,717.975 1062.4583,717.4125 Q1061.5724,716.9625 1060.9537,716.0063 Q1060.3349,715.0359 1060.3349,713.8828 L1060.3349,712.8422 Q1060.3349,711.6469 1060.8833,710.6203 Q1061.4458,709.5797 1062.4302,709.0313 Q1063.4146,708.4688 1064.5255,708.4688 Q1065.1865,708.4688 1065.763,708.6234 Q1066.3537,708.7641 1066.8458,709.0875 Z " fill="#000000"/><text fill="#E0E0E0" font-family="sans-serif" font-size="12.6" lengthAdjust="spacing" textLength="361.3702" x="1082.8068" y="717.7496">DefaultUpdateCustomerDetailsRequestBodyToCustomerMapper</text><line style="stroke:#8A8A8A;stroke-width:0.45;" x1="967.05" x2="1530.6838" y1="727.2" y2="727.2"/><line style="stroke:#8A8A8A;stroke-width:0.45;" x1="967.05" x2="1530.6838" y1="734.4" y2="734.4"/><g data-visibility-modifier="PUBLIC_METHOD"><ellipse cx="976.05" cy="747.0681" fill="#84BE84" rx="2.7" ry="2.7" style="stroke:#038048;stroke-width:0.9;"/></g><text fill="#FFFFFF" font-family="sans-serif" font-size="12.6" lengthAdjust="spacing" textLength="420.888" x="984.15" y="750.6677">Customer mapToEntity(UpdateCustomerDetailsRequestBody requestBody)</text><g data-visibility-modifier="PUBLIC_METHOD"><ellipse cx="976.05" cy="762.5043" fill="#84BE84" rx="2.7" ry="2.7" style="stroke:#038048;stroke-width:0.9;"/></g><text fill="#FFFFFF" font-family="sans-serif" font-size="12.6" lengthAdjust="spacing" textLength="460.103" x="984.15" y="766.1039">void map(UpdateCustomerDetailsRequestBody requestBody, Customer customer)</text><g data-visibility-modifier="PRIVATE_METHOD"><rect fill="#F24D5C" height="5.4" style="stroke:#C82930;stroke-width:0.9;" width="5.4" x="973.35" y="775.2406"/></g><text fill="#FFFFFF" font-family="sans-serif" font-size="12.6" lengthAdjust="spacing" textLength="518.2058" x="984.15" y="781.5401">void mapFirstName(UpdateCustomerDetailsRequestBody requestBody, Customer customer)</text><g data-visibility-modifier="PRIVATE_METHOD"><rect fill="#F24D5C" height="5.4" style="stroke:#C82930;stroke-width:0.9;" width="5.4" x="973.35" y="790.6768"/></g><text fill="#FFFFFF" font-family="sans-serif" font-size="12.6" lengthAdjust="spacing" textLength="517.529" x="984.15" y="796.9764">void mapLastName(UpdateCustomerDetailsRequestBody requestBody, Customer customer)</text><g data-visibility-modifier="PRIVATE_METHOD"><rect fill="#F24D5C" height="5.4" style="stroke:#C82930;stroke-width:0.9;" width="5.4" x="973.35" y="806.113"/></g><text fill="#FFFFFF" font-family="sans-serif" font-size="12.6" lengthAdjust="spacing" textLength="491.6092" x="984.15" y="812.4126">void mapEmail(UpdateCustomerDetailsRequestBody requestBody, Customer customer)</text><g data-visibility-modifier="PRIVATE_METHOD"><rect fill="#F24D5C" height="5.4" style="stroke:#C82930;stroke-width:0.9;" width="5.4" x="973.35" y="821.5493"/></g><text fill="#FFFFFF" font-family="sans-serif" font-size="12.6" lengthAdjust="spacing" textLength="542.0338" x="984.15" y="827.8488">void mapMobileNumber(UpdateCustomerDetailsRequestBody requestBody, Customer customer)</text></g><!--class CustomerServiceV1--><g class="entity" data-qualified-name="CustomerServiceV1" data-source-line="22" id="ent0018"><rect fill="#2D2D2D" height="166.6898" rx="2.25" ry="2.25" style="stroke:#8A8A8A;stroke-width:0.45;" width="606.7898" x="530.55" y="6.3"/><ellipse cx="774.0998" cy="20.7" fill="#B4A7E5" rx="9.9" ry="9.9" style="stroke:#181818;stroke-width:0.9;"/><path d="M774.9576,17.6766 L774.9576,23.6672 L776.5044,23.6672 Q777.0529,23.6672 777.2919,23.8781 Q777.531,24.0891 777.531,24.4406 Q777.531,24.7781 777.2919,24.9891 Q777.0529,25.2 776.5044,25.2 L771.8779,25.2 Q771.3294,25.2 771.0904,24.9891 Q770.8513,24.7781 770.8513,24.4266 Q770.8513,24.0891 771.0904,23.8781 Q771.3294,23.6672 771.8779,23.6672 L773.4248,23.6672 L773.4248,17.6766 L771.8779,17.6766 Q771.3294,17.6766 771.0904,17.4656 Q770.8513,17.2547 770.8513,16.9031 Q770.8513,16.5656 771.0904,16.3547 Q771.3294,16.1438 771.8779,16.1438 L776.5044,16.1438 Q777.0529,16.1438 777.2919,16.3547 Q777.531,16.5656 777.531,16.9031 Q777.531,17.2547 777.2919,17.4656 Q777.0529,17.6766 776.5044,17.6766 L774.9576,17.6766 Z " fill="#000000"/><text fill="#E0E0E0" font-family="sans-serif" font-size="12.6" font-style="italic" lengthAdjust="spacing" textLength="112.0403" x="792.5498" y="25.6496">CustomerServiceV1</text><line style="stroke:#8A8A8A;stroke-width:0.45;" x1="531.45" x2="1136.4398" y1="35.1" y2="35.1"/><line style="stroke:#8A8A8A;stroke-width:0.45;" x1="531.45" x2="1136.4398" y1="42.3" y2="42.3"/><g data-visibility-modifier="PUBLIC_METHOD"><ellipse cx="540.45" cy="54.9681" fill="#84BE84" rx="2.7" ry="2.7" style="stroke:#038048;stroke-width:0.9;"/></g><text fill="#FFFFFF" font-family="sans-serif" font-size="12.6" lengthAdjust="spacing" textLength="366.9688" x="548.55" y="58.5677">void createCustomer(CreateCustomerRequestBody requestBody)</text><g data-visibility-modifier="PUBLIC_METHOD"><ellipse cx="540.45" cy="70.4043" fill="#84BE84" rx="2.7" ry="2.7" style="stroke:#038048;stroke-width:0.9;"/></g><text fill="#FFFFFF" font-family="sans-serif" font-size="12.6" lengthAdjust="spacing" textLength="231.082" x="548.55" y="74.0039">Customer getCustomer(String username)</text><g data-visibility-modifier="PUBLIC_METHOD"><ellipse cx="540.45" cy="85.8406" fill="#84BE84" rx="2.7" ry="2.7" style="stroke:#038048;stroke-width:0.9;"/></g><text fill="#FFFFFF" font-family="sans-serif" font-size="12.6" lengthAdjust="spacing" textLength="393.627" x="548.55" y="89.4401">Page&lt;Customer&gt; findCustomer(String username, Pageable pageable)</text><g data-visibility-modifier="PUBLIC_METHOD"><ellipse cx="540.45" cy="101.2768" fill="#84BE84" rx="2.7" ry="2.7" style="stroke:#038048;stroke-width:0.9;"/></g><text fill="#FFFFFF" font-family="sans-serif" font-size="12.6" lengthAdjust="spacing" textLength="549.7734" x="548.55" y="104.8764">void updateCustomerDetails(String username, UpdateCustomerDetailsRequestBody requestBody)</text><g data-visibility-modifier="PUBLIC_METHOD"><ellipse cx="540.45" cy="116.713" fill="#84BE84" rx="2.7" ry="2.7" style="stroke:#038048;stroke-width:0.9;"/></g><text fill="#FFFFFF" font-family="sans-serif" font-size="12.6" lengthAdjust="spacing" textLength="583.3898" x="548.55" y="120.3126">void updateCustomerPassword(String username, UpdateCustomerPasswordRequestBody requestBody)</text><g data-visibility-modifier="PUBLIC_METHOD"><ellipse cx="540.45" cy="132.1493" fill="#84BE84" rx="2.7" ry="2.7" style="stroke:#038048;stroke-width:0.9;"/></g><text fill="#FFFFFF" font-family="sans-serif" font-size="12.6" lengthAdjust="spacing" textLength="369.0606" x="548.55" y="135.7488">void updateCustomerImage(String username, MultipartFile image)</text><g data-visibility-modifier="PUBLIC_METHOD"><ellipse cx="540.45" cy="147.5855" fill="#84BE84" rx="2.7" ry="2.7" style="stroke:#038048;stroke-width:0.9;"/></g><text fill="#FFFFFF" font-family="sans-serif" font-size="12.6" lengthAdjust="spacing" textLength="241.6087" x="548.55" y="151.1851">void restoreDefaultImage(String username)</text><g data-visibility-modifier="PUBLIC_METHOD"><ellipse cx="540.45" cy="163.0217" fill="#84BE84" rx="2.7" ry="2.7" style="stroke:#038048;stroke-width:0.9;"/></g><text fill="#FFFFFF" font-family="sans-serif" font-size="12.6" lengthAdjust="spacing" textLength="216.3964" x="548.55" y="166.6213">void deleteCustomer(String username)</text></g><!--class DefaultCustomerServiceV1--><g class="entity" data-qualified-name="DefaultCustomerServiceV1" data-source-line="33" id="ent0019"><rect fill="#2D2D2D" height="259.3072" rx="2.25" ry="2.25" style="stroke:#8A8A8A;stroke-width:0.45;" width="606.7898" x="530.55" y="226.8"/><ellipse cx="754.1385" cy="241.2" fill="#ADD1B2" rx="9.9" ry="9.9" style="stroke:#181818;stroke-width:0.9;"/><path d="M756.6275,237.4875 Q756.7682,237.2906 756.9369,237.1922 Q757.1057,237.0938 757.3025,237.0938 Q757.64,237.0938 757.851,237.3328 Q758.0619,237.5578 758.0619,238.1063 L758.0619,239.4141 Q758.0619,239.9625 757.851,240.2016 Q757.64,240.4406 757.3025,240.4406 Q756.9932,240.4406 756.8104,240.2578 Q756.6275,240.0891 756.5291,239.625 Q756.4869,239.3016 756.3182,239.1328 Q756.0229,238.7953 755.4744,238.5984 Q754.926,238.4016 754.3635,238.4016 Q753.6744,238.4016 753.0979,238.6969 Q752.5354,238.9922 752.0854,239.6672 Q751.6494,240.3422 751.6494,241.2703 L751.6494,242.2547 Q751.6494,243.3656 752.451,244.1109 Q753.2525,244.8422 754.6869,244.8422 Q755.5307,244.8422 756.1213,244.6172 Q756.4729,244.4766 756.8525,244.0828 Q757.0916,243.8438 757.2182,243.7734 Q757.3588,243.7031 757.5416,243.7031 Q757.8369,243.7031 758.0619,243.9422 Q758.301,244.1672 758.301,244.4766 Q758.301,244.7859 757.9916,245.1516 Q757.5416,245.6719 756.8244,245.9672 Q755.8541,246.375 754.6869,246.375 Q753.3229,246.375 752.24,245.8125 Q751.3541,245.3625 750.7354,244.4063 Q750.1166,243.4359 750.1166,242.2828 L750.1166,241.2422 Q750.1166,240.0469 750.665,239.0203 Q751.2275,237.9797 752.2119,237.4313 Q753.1963,236.8688 754.3072,236.8688 Q754.9682,236.8688 755.5447,237.0234 Q756.1354,237.1641 756.6275,237.4875 Z " fill="#000000"/><text fill="#E0E0E0" font-family="sans-serif" font-size="12.6" lengthAdjust="spacing" textLength="151.9629" x="772.5885" y="246.1496">DefaultCustomerServiceV1</text><line style="stroke:#8A8A8A;stroke-width:0.45;" x1="531.45" x2="1136.4398" y1="255.6" y2="255.6"/><g data-visibility-modifier="PRIVATE_FIELD"><rect fill="none" height="5.4" style="stroke:#C82930;stroke-width:0.9;" width="5.4" x="537.75" y="265.5681"/></g><text fill="#FFFFFF" font-family="sans-serif" font-size="12.6" lengthAdjust="spacing" textLength="189.0738" x="548.55" y="271.8677">CustomerRepositoryV1 repository</text><g data-visibility-modifier="PRIVATE_FIELD"><rect fill="none" height="5.4" style="stroke:#C82930;stroke-width:0.9;" width="5.4" x="537.75" y="281.0043"/></g><text fill="#FFFFFF" font-family="sans-serif" font-size="12.6" lengthAdjust="spacing" textLength="206.608" x="548.55" y="287.3039">PasswordEncoder passwordEncoder</text><g data-visibility-modifier="PRIVATE_FIELD"><rect fill="none" height="5.4" style="stroke:#C82930;stroke-width:0.9;" width="5.4" x="537.75" y="296.4406"/></g><text fill="#FFFFFF" font-family="sans-serif" font-size="12.6" lengthAdjust="spacing" textLength="437.0133" x="548.55" y="302.7401">CreateCustomerRequestBodyToCustomerMapper createRequestBodyMapper</text><g data-visibility-modifier="PRIVATE_FIELD"><rect fill="none" height="5.4" style="stroke:#C82930;stroke-width:0.9;" width="5.4" x="537.75" y="311.8768"/></g><text fill="#FFFFFF" font-family="sans-serif" font-size="12.6" lengthAdjust="spacing" textLength="481.8577" x="548.55" y="318.1764">UpdateCustomerDetailsRequestBodyToCustomerMapper updateRequestBodyMapper</text><g data-visibility-modifier="PRIVATE_FIELD"><rect fill="none" height="5.4" style="stroke:#C82930;stroke-width:0.9;" width="5.4" x="537.75" y="327.313"/></g><text fill="#FFFFFF" font-family="sans-serif" font-size="12.6" lengthAdjust="spacing" textLength="223.4039" x="548.55" y="333.6126">ClassPathResource classPathResource</text><line style="stroke:#8A8A8A;stroke-width:0.45;" x1="531.45" x2="1136.4398" y1="339.9812" y2="339.9812"/><g data-visibility-modifier="PUBLIC_METHOD"><ellipse cx="540.45" cy="352.6493" fill="#84BE84" rx="2.7" ry="2.7" style="stroke:#038048;stroke-width:0.9;"/></g><text fill="#FFFFFF" font-family="sans-serif" font-size="12.6" lengthAdjust="spacing" textLength="366.9688" x="548.55" y="356.2488">void createCustomer(CreateCustomerRequestBody requestBody)</text><g data-visibility-modifier="PUBLIC_METHOD"><ellipse cx="540.45" cy="368.0855" fill="#84BE84" rx="2.7" ry="2.7" style="stroke:#038048;stroke-width:0.9;"/></g><text fill="#FFFFFF" font-family="sans-serif" font-size="12.6" lengthAdjust="spacing" textLength="231.082" x="548.55" y="371.6851">Customer getCustomer(String username)</text><g data-visibility-modifier="PUBLIC_METHOD"><ellipse cx="540.45" cy="383.5217" fill="#84BE84" rx="2.7" ry="2.7" style="stroke:#038048;stroke-width:0.9;"/></g><text fill="#FFFFFF" font-family="sans-serif" font-size="12.6" lengthAdjust="spacing" textLength="275.2251" x="548.55" y="387.1213">Page&lt;Customer&gt; getCustomer(String username)</text><g data-visibility-modifier="PUBLIC_METHOD"><ellipse cx="540.45" cy="398.958" fill="#84BE84" rx="2.7" ry="2.7" style="stroke:#038048;stroke-width:0.9;"/></g><text fill="#FFFFFF" font-family="sans-serif" font-size="12.6" lengthAdjust="spacing" textLength="369.116" x="548.55" y="402.5575">Page&lt;Customer&gt; findCustomer(String query, Pageable pageable)</text><g data-visibility-modifier="PUBLIC_METHOD"><ellipse cx="540.45" cy="414.3942" fill="#84BE84" rx="2.7" ry="2.7" style="stroke:#038048;stroke-width:0.9;"/></g><text fill="#FFFFFF" font-family="sans-serif" font-size="12.6" lengthAdjust="spacing" textLength="549.7734" x="548.55" y="417.9938">void updateCustomerDetails(String username, UpdateCustomerDetailsRequestBody requestBody)</text><g data-visibility-modifier="PUBLIC_METHOD"><ellipse cx="540.45" cy="429.8304" fill="#84BE84" rx="2.7" ry="2.7" style="stroke:#038048;stroke-width:0.9;"/></g><text fill="#FFFFFF" font-family="sans-serif" font-size="12.6" lengthAdjust="spacing" textLength="583.3898" x="548.55" y="433.43">void updateCustomerPassword(String username, UpdateCustomerPasswordRequestBody requestBody)</text><g data-visibility-modifier="PUBLIC_METHOD"><ellipse cx="540.45" cy="445.2667" fill="#84BE84" rx="2.7" ry="2.7" style="stroke:#038048;stroke-width:0.9;"/></g><text fill="#FFFFFF" font-family="sans-serif" font-size="12.6" lengthAdjust="spacing" textLength="369.0606" x="548.55" y="448.8662">void updateCustomerImage(String username, MultipartFile image)</text><g data-visibility-modifier="PUBLIC_METHOD"><ellipse cx="540.45" cy="460.7029" fill="#84BE84" rx="2.7" ry="2.7" style="stroke:#038048;stroke-width:0.9;"/></g><text fill="#FFFFFF" font-family="sans-serif" font-size="12.6" lengthAdjust="spacing" textLength="241.6087" x="548.55" y="464.3024">void restoreDefaultImage(String username)</text><g data-visibility-modifier="PUBLIC_METHOD"><ellipse cx="540.45" cy="476.1391" fill="#84BE84" rx="2.7" ry="2.7" style="stroke:#038048;stroke-width:0.9;"/></g><text fill="#FFFFFF" font-family="sans-serif" font-size="12.6" lengthAdjust="spacing" textLength="216.3964" x="548.55" y="479.7387">void deleteCustomer(String username)</text></g><!--class ClassPathResource--><g class="entity" data-qualified-name="ClassPathResource" data-source-line="55" id="ent0025"><rect fill="#2D2D2D" height="43.2" rx="2.25" ry="2.25" style="stroke:#8A8A8A;stroke-width:0.45;" width="140.1513" x="440.55" y="562.95"/><ellipse cx="454.05" cy="577.35" fill="#ADD1B2" rx="9.9" ry="9.9" style="stroke:#181818;stroke-width:0.9;"/><path d="M456.5391,573.6375 Q456.6797,573.4406 456.8484,573.3422 Q457.0172,573.2438 457.2141,573.2438 Q457.5516,573.2438 457.7625,573.4828 Q457.9734,573.7078 457.9734,574.2563 L457.9734,575.5641 Q457.9734,576.1125 457.7625,576.3516 Q457.5516,576.5906 457.2141,576.5906 Q456.9047,576.5906 456.7219,576.4078 Q456.5391,576.2391 456.4406,575.775 Q456.3984,575.4516 456.2297,575.2828 Q455.9344,574.9453 455.3859,574.7484 Q454.8375,574.5516 454.275,574.5516 Q453.5859,574.5516 453.0094,574.8469 Q452.4469,575.1422 451.9969,575.8172 Q451.5609,576.4922 451.5609,577.4203 L451.5609,578.4047 Q451.5609,579.5156 452.3625,580.2609 Q453.1641,580.9922 454.5984,580.9922 Q455.4422,580.9922 456.0328,580.7672 Q456.3844,580.6266 456.7641,580.2328 Q457.0031,579.9938 457.1297,579.9234 Q457.2703,579.8531 457.4531,579.8531 Q457.7484,579.8531 457.9734,580.0922 Q458.2125,580.3172 458.2125,580.6266 Q458.2125,580.9359 457.9031,581.3016 Q457.4531,581.8219 456.7359,582.1172 Q455.7656,582.525 454.5984,582.525 Q453.2344,582.525 452.1516,581.9625 Q451.2656,581.5125 450.6469,580.5563 Q450.0281,579.5859 450.0281,578.4328 L450.0281,577.3922 Q450.0281,576.1969 450.5766,575.1703 Q451.1391,574.1297 452.1234,573.5813 Q453.1078,573.0188 454.2188,573.0188 Q454.8797,573.0188 455.4563,573.1734 Q456.0469,573.3141 456.5391,573.6375 Z " fill="#000000"/><text fill="#E0E0E0" font-family="sans-serif" font-size="12.6" lengthAdjust="spacing" textLength="111.3513" x="466.65" y="582.2996">ClassPathResource</text><line style="stroke:#8A8A8A;stroke-width:0.45;" x1="441.45" x2="579.8013" y1="591.75" y2="591.75"/><line style="stroke:#8A8A8A;stroke-width:0.45;" x1="441.45" x2="579.8013" y1="598.95" y2="598.95"/></g><!--reverse link JpaRepository to CustomerRepositoryV1--><g class="link" data-entity-1="ent0002" data-entity-2="ent0003" data-link-type="extension" data-source-line="20" id="lnk4"><path d="M207.45,394.479 C207.45,431.505 207.45,491.04 207.45,539.721" fill="none" id="JpaRepository-backto-CustomerRepositoryV1" style="stroke:#B0C4DE;stroke-width:0.9;"/><polygon fill="none" points="207.45,378.279,202.05,394.479,212.85,394.479,207.45,378.279" style="stroke:#B0C4DE;stroke-width:0.9;"/></g><!--reverse link Mapper to CreateCustomerRequestBodyToCustomerMapper--><g class="link" data-entity-1="ent0006" data-entity-2="ent0008" data-link-type="extension" data-source-line="21" id="lnk9"><path d="M1496.412,344.7 C1554.336,344.7 1594.953,344.7 1594.953,344.7 C1594.953,344.7 1594.953,480.321 1594.953,547.596" fill="none" id="Mapper-backto-CreateCustomerRequestBodyToCustomerMapper" style="stroke:#B0C4DE;stroke-width:0.9;"/><polygon fill="none" points="1480.212,344.7,1496.412,350.1,1496.412,339.3,1480.212,344.7" style="stroke:#B0C4DE;stroke-width:0.9;"/></g><!--reverse link ToEntityMapper to CreateCustomerRequestBodyToCustomerMapper--><g class="link" data-entity-1="ent0007" data-entity-2="ent0008" data-link-type="extension" data-source-line="21" id="lnk10"><path d="M1714.05,409.509 C1714.05,451.881 1714.05,504.801 1714.05,547.317" fill="none" id="ToEntityMapper-backto-CreateCustomerRequestBodyToCustomerMapper" style="stroke:#B0C4DE;stroke-width:0.9;"/><polygon fill="none" points="1714.05,393.309,1708.65,409.509,1719.45,409.509,1714.05,393.309" style="stroke:#B0C4DE;stroke-width:0.9;"/></g><!--reverse link CreateCustomerRequestBodyToCustomerMapper to DefaultCreateCustomerRequestBodyToCustomerMapper--><g class="link" data-entity-1="ent0008" data-entity-2="ent0011" data-link-type="extension" data-source-line="26" id="lnk12"><path d="M1764.45,637.983 C1764.45,655.74 1764.45,661.563 1764.45,683.028" fill="none" id="CreateCustomerRequestBodyToCustomerMapper-backto-DefaultCreateCustomerRequestBodyToCustomerMapper" style="stroke:#B0C4DE;stroke-width:0.9;stroke-dasharray:6.3,6.3;"/><polygon fill="none" points="1764.45,621.783,1759.05,637.983,1769.85,637.983,1764.45,621.783" style="stroke:#B0C4DE;stroke-width:0.9;"/></g><!--reverse link Mapper to UpdateCustomerDetailsRequestBodyToCustomerMapper--><g class="link" data-entity-1="ent0006" data-entity-2="ent0013" data-link-type="extension" data-source-line="21" id="lnk14"><path d="M1358.55,409.509 C1358.55,451.881 1358.55,504.801 1358.55,547.317" fill="none" id="Mapper-backto-UpdateCustomerDetailsRequestBodyToCustomerMapper" style="stroke:#B0C4DE;stroke-width:0.9;"/><polygon fill="none" points="1358.55,393.309,1353.15,409.509,1363.95,409.509,1358.55,393.309" style="stroke:#B0C4DE;stroke-width:0.9;"/></g><!--reverse link ToEntityMapper to UpdateCustomerDetailsRequestBodyToCustomerMapper--><g class="link" data-entity-1="ent0007" data-entity-2="ent0013" data-link-type="extension" data-source-line="21" id="lnk15"><path d="M1594.593,369 C1542.204,369 1505.7,369 1505.7,369 C1505.7,369 1505.7,485.865 1505.7,547.497" fill="none" id="ToEntityMapper-backto-UpdateCustomerDetailsRequestBodyToCustomerMapper" style="stroke:#B0C4DE;stroke-width:0.9;"/><polygon fill="none" points="1610.793,369,1594.593,363.6,1594.593,374.4,1610.793,369" style="stroke:#B0C4DE;stroke-width:0.9;"/></g><!--reverse link UpdateCustomerDetailsRequestBodyToCustomerMapper to DefaultUpdateCustomerDetailsRequestBodyToCustomerMapper--><g class="link" data-entity-1="ent0013" data-entity-2="ent0016" data-link-type="extension" data-source-line="26" id="lnk17"><path d="M1309.05,637.983 C1309.05,660.006 1309.05,672.372 1309.05,698.292" fill="none" id="UpdateCustomerDetailsRequestBodyToCustomerMapper-backto-DefaultUpdateCustomerDetailsRequestBodyToCustomerMapper" style="stroke:#B0C4DE;stroke-width:0.9;stroke-dasharray:6.3,6.3;"/><polygon fill="none" points="1309.05,621.783,1303.65,637.983,1314.45,637.983,1309.05,621.783" style="stroke:#B0C4DE;stroke-width:0.9;"/></g><!--reverse link CustomerServiceV1 to DefaultCustomerServiceV1--><g class="link" data-entity-1="ent0018" data-entity-2="ent0019" data-link-type="extension" data-source-line="34" id="lnk20"><path d="M833.85,189.081 C833.85,206.217 833.85,208.431 833.85,226.746" fill="none" id="CustomerServiceV1-backto-DefaultCustomerServiceV1" style="stroke:#B0C4DE;stroke-width:0.9;stroke-dasharray:6.3,6.3;"/><polygon fill="none" points="833.85,172.881,828.45,189.081,839.25,189.081,833.85,172.881" style="stroke:#B0C4DE;stroke-width:0.9;"/></g><!--link DefaultCustomerServiceV1 to CustomerRepositoryV1--><g class="link" data-entity-1="ent0019" data-entity-2="ent0003" data-link-type="dependency" data-source-line="51" id="lnk21"><path codeLine="51" d="M547.353,486.126 C547.353,522.198 547.353,551.7 547.353,551.7 C547.353,551.7 487.404,551.7 414.009,551.7" fill="none" id="DefaultCustomerServiceV1-to-CustomerRepositoryV1" style="stroke:#B0C4DE;stroke-width:0.9;"/><polygon fill="#B0C4DE" points="408.609,551.7,416.709,555.3,413.109,551.7,416.709,548.1,408.609,551.7" style="stroke:#B0C4DE;stroke-width:0.9;"/></g><!--link DefaultCustomerServiceV1 to PasswordEncoder--><g class="link" data-entity-1="ent0019" data-entity-2="ent0005" data-link-type="dependency" data-source-line="52" id="lnk22"><path codeLine="52" d="M833.85,486.135 C833.85,505.404 833.85,518.652 833.85,534.447" fill="none" id="DefaultCustomerServiceV1-to-PasswordEncoder" style="stroke:#B0C4DE;stroke-width:0.9;"/><polygon fill="#B0C4DE" points="833.85,539.847,837.45,531.747,833.85,535.347,830.25,531.747,833.85,539.847" style="stroke:#B0C4DE;stroke-width:0.9;"/></g><!--link DefaultCustomerServiceV1 to CreateCustomerRequestBodyToCustomerMapper--><g class="link" data-entity-1="ent0019" data-entity-2="ent0008" data-link-type="dependency" data-source-line="53" id="lnk23"><path codeLine="53" d="M1137.159,440.1 C1343.367,440.1 1578.897,440.1 1578.897,440.1 C1578.897,440.1 1578.897,499.149 1578.897,541.953" fill="none" id="DefaultCustomerServiceV1-to-CreateCustomerRequestBodyToCustomerMapper" style="stroke:#B0C4DE;stroke-width:0.9;"/><polygon fill="#B0C4DE" points="1578.897,547.353,1582.497,539.253,1578.897,542.853,1575.297,539.253,1578.897,547.353" style="stroke:#B0C4DE;stroke-width:0.9;"/></g><!--link DefaultCustomerServiceV1 to UpdateCustomerDetailsRequestBodyToCustomerMapper--><g class="link" data-entity-1="ent0019" data-entity-2="ent0013" data-link-type="dependency" data-source-line="54" id="lnk24"><path codeLine="54" d="M1111.95,486.135 C1111.95,508.608 1111.95,524.853 1111.95,542.097" fill="none" id="DefaultCustomerServiceV1-to-UpdateCustomerDetailsRequestBodyToCustomerMapper" style="stroke:#B0C4DE;stroke-width:0.9;"/><polygon fill="#B0C4DE" points="1111.95,547.497,1115.55,539.397,1111.95,542.997,1108.35,539.397,1111.95,547.497" style="stroke:#B0C4DE;stroke-width:0.9;"/></g><!--link DefaultCustomerServiceV1 to ClassPathResource--><g class="link" data-entity-1="ent0019" data-entity-2="ent0025" data-link-type="dependency" data-source-line="55" id="lnk26"><path codeLine="55" d="M564.147,486.135 C564.147,515.835 564.147,538.686 564.147,557.235" fill="none" id="DefaultCustomerServiceV1-to-ClassPathResource" style="stroke:#B0C4DE;stroke-width:0.9;"/><polygon fill="#B0C4DE" points="564.147,562.635,567.747,554.535,564.147,558.135,560.547,554.535,564.147,562.635" style="stroke:#B0C4DE;stroke-width:0.9;"/></g><?plantuml-src xLHDRzim3BtxLsZOPSMMeHbssA4ea3W9i4E0eErwLomc4IfB7YKr2uRzzz69t2Z-g1jWG7kO1HWo-VX4aNos3r8N77dEbDJWTWKmWsvZ4llaMFBiOOt6Qv4QPP2z7qxB5I44hBXNxWv-kP6IQvs3TYoZ5s246Y6QRQ0ONwPV9p65tN1XjbAlsOeh2v5dPhGBKRFz4_aonQtj1OoSGxdq3dgHSw2hYoQiZcE_4yR6zRfycPIhz1WKWC7wRLGkiaQqqyjo9N-Iv9tKcV82MEgjCpdW3HJ6IcTmTp_yNFXS7I4BEdbBr5ET6UAlULC4xk18yzE3TMCZTdUcCivvKJJYVXGYYfk0urBPtl14bjrTyUoO-ItWeypWVhYl3cCVsQEHWcKdUNteJ9FXSNyH22eOMuDxOhYbRjASU0keUGuLTi7NS5M1hjbAKbywGZxjmNofW1LXSn6dxDjAqYJfgrpRZLhugxRs7L3XpZ_XUqwtRDBFIREIfjhD95L2bg0J4YHcWp0vgBkLv0GlG47KwGQKnlsWdi3O71oP5mhAluVjdAf1gr8er-eZe6fYeKQVV5TSBnLD6EC8SR07ddD551hKHPUMPLfmjxa1QpoIoBAw9Na36litggICSFTVagyboKun3WRNhLfxFgAcknxwbyhlUPfprTUJL5rgVm40?></g></svg>