<svg xmlns="http://www.w3.org/2000/svg" contentStyleType="text/css" data-diagram-type="CLASS" height="434px"
     preserveAspectRatio="none" style="width:642px;height:434px;background:#1E1E1E;" version="1.1" viewBox="0 0 642 434"
     width="642px" zoomAndPan="magnify"><defs/><g><rect fill="#1E1E1E" height="434" style="stroke:none;stroke-width:1;" width="642" x="0" y="0"/><!--class Mapper--><g class="entity" data-entity="Mapper" data-source-line="17" data-uid="ent0002" id="entity_Mapper"><rect fill="#2D2D2D" height="65.1514" rx="2.5" ry="2.5" style="stroke:#8A8A8A;stroke-width:0.5;" width="270.3301" x="44" y="10"/><ellipse cx="109.4951" cy="26" fill="#B4A7E5" rx="11" ry="11" style="stroke:#181818;stroke-width:1;"/><path d="M110.4482,22.6406 L110.4482,29.2969 L112.167,29.2969 Q112.7764,29.2969 113.042,29.5313 Q113.3076,29.7656 113.3076,30.1563 Q113.3076,30.5313 113.042,30.7656 Q112.7764,31 112.167,31 L107.0264,31 Q106.417,31 106.1514,30.7656 Q105.8857,30.5313 105.8857,30.1406 Q105.8857,29.7656 106.1514,29.5313 Q106.417,29.2969 107.0264,29.2969 L108.7451,29.2969 L108.7451,22.6406 L107.0264,22.6406 Q106.417,22.6406 106.1514,22.4063 Q105.8857,22.1719 105.8857,21.7813 Q105.8857,21.4063 106.1514,21.1719 Q106.417,20.9375 107.0264,20.9375 L112.167,20.9375 Q112.7764,20.9375 113.042,21.1719 Q113.3076,21.4063 113.3076,21.7813 Q113.3076,22.1719 113.042,22.4063 Q112.7764,22.6406 112.167,22.6406 L110.4482,22.6406 Z " fill="#000000"/><text fill="#E0E0E0" font-family="sans-serif" font-size="14" font-style="italic" lengthAdjust="spacing" textLength="47.4688" x="129.9951" y="31.4995">Mapper</text><rect fill="#2D2D2D" height="16.7012" style="stroke:#8A8A8A;stroke-width:1;stroke-dasharray:2,2;" width="81.3711" x="235.959" y="7"/><text fill="#000000" font-family="sans-serif" font-size="12" font-style="italic" lengthAdjust="spacing" textLength="79.3711" x="236.959" y="20.0645">Source, Target</text><line style="stroke:#8A8A8A;stroke-width:0.5;" x1="45" x2="313.3301" y1="42" y2="42"/><line style="stroke:#8A8A8A;stroke-width:0.5;" x1="45" x2="313.3301" y1="50" y2="50"/><ellipse cx="55" cy="64.0757" fill="#84BE84" rx="3" ry="3" style="stroke:#038048;stroke-width:1;"/><text fill="#FFFFFF" font-family="sans-serif" font-size="14" lengthAdjust="spacing" textLength="244.3301" x="64" y="68.0752">void map(Source source, Target target)</text></g><!--class ToEntityMapper--><g class="entity" data-entity="ToEntityMapper" data-source-line="17" data-uid="ent0003" id="entity_ToEntityMapper"><rect fill="#2D2D2D" height="65.1514" rx="2.5" ry="2.5" style="stroke:#8A8A8A;stroke-width:0.5;" width="229.082" x="349.5" y="10"/><ellipse cx="373.3022" cy="26" fill="#B4A7E5" rx="11" ry="11" style="stroke:#181818;stroke-width:1;"/><path d="M374.2554,22.6406 L374.2554,29.2969 L375.9741,29.2969 Q376.5835,29.2969 376.8491,29.5313 Q377.1147,29.7656 377.1147,30.1563 Q377.1147,30.5313 376.8491,30.7656 Q376.5835,31 375.9741,31 L370.8335,31 Q370.2241,31 369.9585,30.7656 Q369.6929,30.5313 369.6929,30.1406 Q369.6929,29.7656 369.9585,29.5313 Q370.2241,29.2969 370.8335,29.2969 L372.5522,29.2969 L372.5522,22.6406 L370.8335,22.6406 Q370.2241,22.6406 369.9585,22.4063 Q369.6929,22.1719 369.6929,21.7813 Q369.6929,21.4063 369.9585,21.1719 Q370.2241,20.9375 370.8335,20.9375 L375.9741,20.9375 Q376.5835,20.9375 376.8491,21.1719 Q377.1147,21.4063 377.1147,21.7813 Q377.1147,22.1719 376.8491,22.4063 Q376.5835,22.6406 375.9741,22.6406 L374.2554,22.6406 Z " fill="#000000"/><text fill="#E0E0E0" font-family="sans-serif" font-size="14" font-style="italic" lengthAdjust="spacing" textLength="98.8203" x="389.2583" y="31.4995">ToEntityMapper</text><rect fill="#2D2D2D" height="16.7012" style="stroke:#8A8A8A;stroke-width:1;stroke-dasharray:2,2;" width="76.7012" x="504.8809" y="7"/><text fill="#000000" font-family="sans-serif" font-size="12" font-style="italic" lengthAdjust="spacing" textLength="74.7012" x="505.8809" y="20.0645">Source, Entity</text><line style="stroke:#8A8A8A;stroke-width:0.5;" x1="350.5" x2="577.582" y1="42" y2="42"/><line style="stroke:#8A8A8A;stroke-width:0.5;" x1="350.5" x2="577.582" y1="50" y2="50"/><text fill="#FFFFFF" font-family="sans-serif" font-size="14" lengthAdjust="spacing" textLength="217.082" x="355.5" y="68.0752">Entity mapToEntity(Source source)</text></g><!--class UpdateCustomerDetailsRequestBodyToCustomerMapper--><g class="entity" data-entity="UpdateCustomerDetailsRequestBodyToCustomerMapper" data-source-line="20" data-uid="ent0004" id="entity_UpdateCustomerDetailsRequestBodyToCustomerMapper"><rect fill="#2D2D2D" height="82.3027" rx="2.5" ry="2.5" style="stroke:#8A8A8A;stroke-width:0.5;" width="493.6533" x="74" y="135"/><ellipse cx="137.9946" cy="151" fill="#B4A7E5" rx="11" ry="11" style="stroke:#181818;stroke-width:1;"/><path d="M138.9478,147.6406 L138.9478,154.2969 L140.6665,154.2969 Q141.2759,154.2969 141.5415,154.5313 Q141.8071,154.7656 141.8071,155.1563 Q141.8071,155.5313 141.5415,155.7656 Q141.2759,156 140.6665,156 L135.5259,156 Q134.9165,156 134.6509,155.7656 Q134.3853,155.5313 134.3853,155.1406 Q134.3853,154.7656 134.6509,154.5313 Q134.9165,154.2969 135.5259,154.2969 L137.2446,154.2969 L137.2446,147.6406 L135.5259,147.6406 Q134.9165,147.6406 134.6509,147.4063 Q134.3853,147.1719 134.3853,146.7813 Q134.3853,146.4063 134.6509,146.1719 Q134.9165,145.9375 135.5259,145.9375 L140.6665,145.9375 Q141.2759,145.9375 141.5415,146.1719 Q141.8071,146.4063 141.8071,146.7813 Q141.8071,147.1719 141.5415,147.4063 Q141.2759,147.6406 140.6665,147.6406 L138.9478,147.6406 Z " fill="#000000"/><text fill="#E0E0E0" font-family="sans-serif" font-size="14" font-style="italic" lengthAdjust="spacing" textLength="357.1641" x="158.4946" y="156.4995">UpdateCustomerDetailsRequestBodyToCustomerMapper</text><line style="stroke:#8A8A8A;stroke-width:0.5;" x1="75" x2="566.6533" y1="167" y2="167"/><line style="stroke:#8A8A8A;stroke-width:0.5;" x1="75" x2="566.6533" y1="175" y2="175"/><ellipse cx="85" cy="189.0757" fill="#84BE84" rx="3" ry="3" style="stroke:#038048;stroke-width:1;"/><text fill="#FFFFFF" font-family="sans-serif" font-size="14" lengthAdjust="spacing" textLength="452.8672" x="94" y="193.0752">void map(UpdateCustomerDetailsRequestBody source, Customer target)</text><ellipse cx="85" cy="206.2271" fill="#84BE84" rx="3" ry="3" style="stroke:#038048;stroke-width:1;"/><text fill="#FFFFFF" font-family="sans-serif" font-size="14" lengthAdjust="spacing" textLength="467.6533" x="94" y="210.2266">Customer mapToEntity(UpdateCustomerDetailsRequestBody requestBody)</text></g><!--class DefaultUpdateCustomerDetailsRequestBodyToCustomerMapper--><g class="entity" data-entity="DefaultUpdateCustomerDetailsRequestBodyToCustomerMapper" data-source-line="25" data-uid="ent0007" id="entity_DefaultUpdateCustomerDetailsRequestBodyToCustomerMapper"><rect fill="#2D2D2D" height="150.9082" rx="2.5" ry="2.5" style="stroke:#8A8A8A;stroke-width:0.5;" width="628.2598" x="7" y="277"/><ellipse cx="116.1187" cy="293" fill="#ADD1B2" rx="11" ry="11" style="stroke:#181818;stroke-width:1;"/><path d="M118.8843,288.875 Q119.0405,288.6563 119.228,288.5469 Q119.4155,288.4375 119.6343,288.4375 Q120.0093,288.4375 120.2437,288.7031 Q120.478,288.9531 120.478,289.5625 L120.478,291.0156 Q120.478,291.625 120.2437,291.8906 Q120.0093,292.1563 119.6343,292.1563 Q119.2905,292.1563 119.0874,291.9531 Q118.8843,291.7656 118.7749,291.25 Q118.728,290.8906 118.5405,290.7031 Q118.2124,290.3281 117.603,290.1094 Q116.9937,289.8906 116.3687,289.8906 Q115.603,289.8906 114.9624,290.2188 Q114.3374,290.5469 113.8374,291.2969 Q113.353,292.0469 113.353,293.0781 L113.353,294.1719 Q113.353,295.4063 114.2437,296.2344 Q115.1343,297.0469 116.728,297.0469 Q117.6655,297.0469 118.3218,296.7969 Q118.7124,296.6406 119.1343,296.2031 Q119.3999,295.9375 119.5405,295.8594 Q119.6968,295.7813 119.8999,295.7813 Q120.228,295.7813 120.478,296.0469 Q120.7437,296.2969 120.7437,296.6406 Q120.7437,296.9844 120.3999,297.3906 Q119.8999,297.9688 119.103,298.2969 Q118.0249,298.75 116.728,298.75 Q115.2124,298.75 114.0093,298.125 Q113.0249,297.625 112.3374,296.5625 Q111.6499,295.4844 111.6499,294.2031 L111.6499,293.0469 Q111.6499,291.7188 112.2593,290.5781 Q112.8843,289.4219 113.978,288.8125 Q115.0718,288.1875 116.3062,288.1875 Q117.0405,288.1875 117.6812,288.3594 Q118.3374,288.5156 118.8843,288.875 Z " fill="#000000"/><text fill="#E0E0E0" font-family="sans-serif" font-size="14" lengthAdjust="spacing" textLength="401.5225" x="136.6187" y="298.4995">DefaultUpdateCustomerDetailsRequestBodyToCustomerMapper</text><line style="stroke:#8A8A8A;stroke-width:0.5;" x1="8" x2="634.2598" y1="309" y2="309"/><line style="stroke:#8A8A8A;stroke-width:0.5;" x1="8" x2="634.2598" y1="317" y2="317"/><ellipse cx="18" cy="331.0757" fill="#84BE84" rx="3" ry="3" style="stroke:#038048;stroke-width:1;"/><text fill="#FFFFFF" font-family="sans-serif" font-size="14" lengthAdjust="spacing" textLength="467.6533" x="27" y="335.0752">Customer mapToEntity(UpdateCustomerDetailsRequestBody requestBody)</text><ellipse cx="18" cy="348.2271" fill="#84BE84" rx="3" ry="3" style="stroke:#038048;stroke-width:1;"/><text fill="#FFFFFF" font-family="sans-serif" font-size="14" lengthAdjust="spacing" textLength="511.2256" x="27" y="352.2266">void map(UpdateCustomerDetailsRequestBody requestBody, Customer customer)</text><rect fill="#F24D5C" height="6" style="stroke:#C82930;stroke-width:1;" width="6" x="15" y="362.3784"/><text fill="#FFFFFF" font-family="sans-serif" font-size="14" lengthAdjust="spacing" textLength="575.7842" x="27" y="369.3779">void mapFirstName(UpdateCustomerDetailsRequestBody requestBody, Customer customer)</text><rect fill="#F24D5C" height="6" style="stroke:#C82930;stroke-width:1;" width="6" x="15" y="379.5298"/><text fill="#FFFFFF" font-family="sans-serif" font-size="14" lengthAdjust="spacing" textLength="575.0322" x="27" y="386.5293">void mapLastName(UpdateCustomerDetailsRequestBody requestBody, Customer customer)</text><rect fill="#F24D5C" height="6" style="stroke:#C82930;stroke-width:1;" width="6" x="15" y="396.6812"/><text fill="#FFFFFF" font-family="sans-serif" font-size="14" lengthAdjust="spacing" textLength="546.2324" x="27" y="403.6807">void mapEmail(UpdateCustomerDetailsRequestBody requestBody, Customer customer)</text><rect fill="#F24D5C" height="6" style="stroke:#C82930;stroke-width:1;" width="6" x="15" y="413.8325"/><text fill="#FFFFFF" font-family="sans-serif" font-size="14" lengthAdjust="spacing" textLength="602.2598" x="27" y="420.832">void mapMobileNumber(UpdateCustomerDetailsRequestBody requestBody, Customer customer)</text></g><!--reverse link Mapper to UpdateCustomerDetailsRequestBodyToCustomerMapper--><g class="link" data-entity-1="Mapper" data-entity-2="UpdateCustomerDetailsRequestBodyToCustomerMapper" data-source-line="21" data-uid="lnk5" id="link_Mapper_UpdateCustomerDetailsRequestBodyToCustomerMapper"><path d="M194,93.16 C194,111.07 194,115.45 194,134.58" fill="none" id="Mapper-backto-UpdateCustomerDetailsRequestBodyToCustomerMapper" style="stroke:#B0C4DE;stroke-width:1;"/><polygon fill="none" points="194,75.16,188,93.16,200,93.16,194,75.16" style="stroke:#B0C4DE;stroke-width:1;"/></g><!--reverse link ToEntityMapper to UpdateCustomerDetailsRequestBodyToCustomerMapper--><g class="link" data-entity-1="ToEntityMapper" data-entity-2="UpdateCustomerDetailsRequestBodyToCustomerMapper" data-source-line="21" data-uid="lnk6" id="link_ToEntityMapper_UpdateCustomerDetailsRequestBodyToCustomerMapper"><path d="M458.75,93.16 C458.75,111.07 458.75,115.45 458.75,134.58" fill="none" id="ToEntityMapper-backto-UpdateCustomerDetailsRequestBodyToCustomerMapper" style="stroke:#B0C4DE;stroke-width:1;"/><polygon fill="none" points="458.75,75.16,452.75,93.16,464.75,93.16,458.75,75.16" style="stroke:#B0C4DE;stroke-width:1;"/></g><!--reverse link UpdateCustomerDetailsRequestBodyToCustomerMapper to DefaultUpdateCustomerDetailsRequestBodyToCustomerMapper--><g class="link" data-entity-1="UpdateCustomerDetailsRequestBodyToCustomerMapper" data-entity-2="DefaultUpdateCustomerDetailsRequestBodyToCustomerMapper" data-source-line="26" data-uid="lnk8" id="link_UpdateCustomerDetailsRequestBodyToCustomerMapper_DefaultUpdateCustomerDetailsRequestBodyToCustomerMapper"><path d="M321,235.38 C321,253.11 321,256.39 321,276.77" fill="none" id="UpdateCustomerDetailsRequestBodyToCustomerMapper-backto-DefaultUpdateCustomerDetailsRequestBodyToCustomerMapper" style="stroke:#B0C4DE;stroke-width:1;stroke-dasharray:7,7;"/><polygon fill="none" points="321,217.38,315,235.38,327,235.38,321,217.38" style="stroke:#B0C4DE;stroke-width:1;"/></g><!--SRC=[jPBFJW8n4CRl-nHZl4X4WyQ3Ls3X91mCFa3P3j3GF-jqAXB2kxk51HeyR8YuasoQcMz-a_bQlrIs52GCQ6MHroM28rwup1yBKr4iv-I2bNsd7S7jqo16ef0u4q7p1B-vgzNS6hGCHVL3IbHT8hUg4RrE_oLF4NuXf5ifEuUPq1wJoj1Phhk6ko-f5LfutoZeCfEQ1iP6vGYhrULlsRaEDXb0xzoNvpn6h3YII7NsjHkZoYROGIT6jiso6sKB7IJ2I9GbqcCPZ3ub9svWMV4wBMOg-ZeJ1S97AGLZFtXs1Yb75ahxT_mCwBddv7hY3hKz0AeBGYjzFQnznjzj1N0FNqv9CAAyQne0tWKgi0q72R2WENAh1XtJ5UmmgnbAftChUhItFDy_iejtLgRK65-alzolpVNskDJPf3cnjwWFUzx3aJTKv7ai35uR_2R-XpimLV-reICtLHh7mKoH_ixU_W00]--></g></svg>