<svg xmlns="http://www.w3.org/2000/svg" contentStyleType="text/css" data-diagram-type="SEQUENCE" height="922.6667px"
     preserveAspectRatio="none" style="width:1288px;height:922px;background:#0E1117;" version="1.1"
     viewBox="0 0 1288 922" width="1288px" zoomAndPan="magnify"><title>Create Recipe - Sequence</title><defs/><g><rect fill="#0E1117" height="922.6667" style="stroke:none;stroke-width:1.3333;" width="1288" x="0" y="0"/><text fill="#C9D1D9" font-family="sans-serif" font-size="18.6667" font-weight="bold" lengthAdjust="spacing" textLength="229.2773" x="530.9987" y="40.1432">Create Recipe - Sequence</text><rect fill="none" height="465.1094" rx="8" ry="8" style="stroke:#30363D;stroke-width:2;" width="1265.9414" x="13.3333" y="321.487"/><g><title>Client</title><rect fill="#000000" fill-opacity="0.00000" height="643.6068" width="10.6667" x="58" y="165.6563"/><line style="stroke:#30363D;stroke-width:0.6667;stroke-dasharray:6.6667,6.6667;" x1="62.6667" x2="62.6667" y1="165.6563" y2="809.263"/></g><g><title>Application</title><rect fill="#000000" fill-opacity="0.00000" height="643.6068" width="10.6667" x="428.2214" y="165.6563"/><line style="stroke:#30363D;stroke-width:0.6667;stroke-dasharray:6.6667,6.6667;" x1="433.2285" x2="433.2285" y1="165.6563" y2="809.263"/></g><g><title>RecipeRestControllerV1</title><rect fill="#000000" fill-opacity="0.00000" height="643.6068" width="10.6667" x="633.1921" y="165.6563"/><line style="stroke:#30363D;stroke-width:0.6667;stroke-dasharray:6.6667,6.6667;" x1="638.4063" x2="638.4063" y1="165.6563" y2="809.263"/></g><g><title>RecipeServiceV1</title><rect fill="#000000" fill-opacity="0.00000" height="643.6068" width="10.6667" x="826.235" y="165.6563"/><line style="stroke:#30363D;stroke-width:0.6667;stroke-dasharray:6.6667,6.6667;" x1="830.6445" x2="830.6445" y1="165.6563" y2="809.263"/></g><g><title>database</title><rect fill="#000000" fill-opacity="0.00000" height="643.6068" width="10.6667" x="995.5658" y="165.6563"/><line style="stroke:#30363D;stroke-width:0.6667;stroke-dasharray:6.6667,6.6667;" x1="999.8281" x2="999.8281" y1="165.6563" y2="809.263"/></g><g><title>GlobalExceptionHandler</title><rect fill="#000000" fill-opacity="0.00000" height="643.6068" width="10.6667" x="1155.9557" y="165.6563"/><line style="stroke:#30363D;stroke-width:0.6667;stroke-dasharray:6.6667,6.6667;" x1="1160.6367" x2="1160.6367" y1="165.6563" y2="809.263"/></g><g class="participant participant-head" data-participant="Client"><text fill="#C9D1D9" font-family="sans-serif" font-size="18.6667" lengthAdjust="spacing" textLength="47.724" x="35.4714" y="160.9714">Client</text><ellipse cx="63.3333" cy="81.4948" fill="#0D1117" rx="21.3333" ry="21.3333" style="stroke:#58A6FF;stroke-width:0.6667;"/><path d="M63.3333,108.1615 C68.6667,108.1615 72.6667,108.1615 78,102.8281 C88.6667,102.8281 99.3333,113.4948 99.3333,124.1615 L99.3333,129.4948 C99.3333,134.8281 94,140.1615 88.6667,140.1615 L38,140.1615 C32.6667,140.1615 27.3333,134.8281 27.3333,129.4948 L27.3333,124.1615 C27.3333,113.4948 38,102.8281 48.6667,102.8281 C54,108.1615 58,108.1615 63.3333,108.1615" fill="#0D1117" style="stroke:#58A6FF;stroke-width:0.6667;"/></g><g class="participant participant-tail" data-participant="Client"><text fill="#C9D1D9" font-family="sans-serif" font-size="18.6667" lengthAdjust="spacing" textLength="47.724" x="35.4714" y="828.0729">Client</text><ellipse cx="63.3333" cy="854.7578" fill="#0D1117" rx="21.3333" ry="21.3333" style="stroke:#58A6FF;stroke-width:0.6667;"/><path d="M63.3333,881.4245 C68.6667,881.4245 72.6667,881.4245 78,876.0911 C88.6667,876.0911 99.3333,886.7578 99.3333,897.4245 L99.3333,902.7578 C99.3333,908.0911 94,913.4245 88.6667,913.4245 L38,913.4245 C32.6667,913.4245 27.3333,908.0911 27.3333,902.7578 L27.3333,897.4245 C27.3333,886.7578 38,876.0911 48.6667,876.0911 C54,881.4245 58,881.4245 63.3333,881.4245" fill="#0D1117" style="stroke:#58A6FF;stroke-width:0.6667;"/></g><g class="participant participant-head" data-participant="Application"><text fill="#C9D1D9" font-family="sans-serif" font-size="18.6667" lengthAdjust="spacing" textLength="91.319" x="383.8952" y="160.9714">Application</text><path d="M406.2214,103.4948 L406.2214,135.4948 M406.2214,119.4948 L428.888,119.4948" fill="none" style="stroke:#58A6FF;stroke-width:0.6667;"/><ellipse cx="444.888" cy="119.4948" fill="#0D1117" rx="16" ry="16" style="stroke:#58A6FF;stroke-width:0.6667;"/></g><g class="participant participant-tail" data-participant="Application"><text fill="#C9D1D9" font-family="sans-serif" font-size="18.6667" lengthAdjust="spacing" textLength="91.319" x="383.8952" y="828.0729">Application</text><path d="M406.2214,838.0911 L406.2214,870.0911 M406.2214,854.0911 L428.888,854.0911" fill="none" style="stroke:#58A6FF;stroke-width:0.6667;"/><ellipse cx="444.888" cy="854.0911" fill="#0D1117" rx="16" ry="16" style="stroke:#58A6FF;stroke-width:0.6667;"/></g><g class="participant participant-head" data-participant="RecipeRestControllerV1"><text fill="#C9D1D9" font-family="sans-serif" font-size="18.6667" lengthAdjust="spacing" textLength="200.2383" x="534.4063" y="160.9714">RecipeRestControllerV1</text><ellipse cx="638.5254" cy="119.4948" fill="#0D1117" rx="16" ry="16" style="stroke:#58A6FF;stroke-width:0.6667;"/><polygon fill="#58A6FF" points="633.1921,103.4948,641.1921,96.8281,638.5254,103.4948,641.1921,110.1615,633.1921,103.4948" style="stroke:#58A6FF;stroke-width:1.3333;"/></g><g class="participant participant-tail" data-participant="RecipeRestControllerV1"><text fill="#C9D1D9" font-family="sans-serif" font-size="18.6667" lengthAdjust="spacing" textLength="200.2383" x="534.4063" y="828.0729">RecipeRestControllerV1</text><ellipse cx="638.5254" cy="854.0911" fill="#0D1117" rx="16" ry="16" style="stroke:#58A6FF;stroke-width:0.6667;"/><polygon fill="#58A6FF" points="633.1921,838.0911,641.1921,831.4245,638.5254,838.0911,641.1921,844.7578,633.1921,838.0911" style="stroke:#58A6FF;stroke-width:1.3333;"/></g><g class="participant participant-head" data-participant="RecipeServiceV1"><text fill="#C9D1D9" font-family="sans-serif" font-size="18.6667" lengthAdjust="spacing" textLength="143.181" x="755.9779" y="160.9714">RecipeServiceV1</text><ellipse cx="831.5684" cy="119.4948" fill="#0D1117" rx="16" ry="16" style="stroke:#58A6FF;stroke-width:0.6667;"/><polygon fill="#58A6FF" points="826.235,103.4948,834.235,96.8281,831.5684,103.4948,834.235,110.1615,826.235,103.4948" style="stroke:#58A6FF;stroke-width:1.3333;"/></g><g class="participant participant-tail" data-participant="RecipeServiceV1"><text fill="#C9D1D9" font-family="sans-serif" font-size="18.6667" lengthAdjust="spacing" textLength="143.181" x="755.9779" y="828.0729">RecipeServiceV1</text><ellipse cx="831.5684" cy="854.0911" fill="#0D1117" rx="16" ry="16" style="stroke:#58A6FF;stroke-width:0.6667;"/><polygon fill="#58A6FF" points="826.235,838.0911,834.235,831.4245,831.5684,838.0911,834.235,844.7578,826.235,838.0911" style="stroke:#58A6FF;stroke-width:1.3333;"/></g><g class="participant participant-head" data-participant="database"><text fill="#C9D1D9" font-family="sans-serif" font-size="18.6667" lengthAdjust="spacing" textLength="76.8086" x="958.4948" y="160.9714">database</text><path d="M976.8991,92.8281 C976.8991,79.4948 1000.8991,79.4948 1000.8991,79.4948 C1000.8991,79.4948 1024.8991,79.4948 1024.8991,92.8281 L1024.8991,127.4948 C1024.8991,140.8281 1000.8991,140.8281 1000.8991,140.8281 C1000.8991,140.8281 976.8991,140.8281 976.8991,127.4948 L976.8991,92.8281" fill="#0D1117" style="stroke:#58A6FF;stroke-width:0.6667;"/><path d="M976.8991,92.8281 C976.8991,106.1615 1000.8991,106.1615 1000.8991,106.1615 C1000.8991,106.1615 1024.8991,106.1615 1024.8991,92.8281" fill="none" style="stroke:#58A6FF;stroke-width:0.6667;"/></g><g class="participant participant-tail" data-participant="database"><text fill="#C9D1D9" font-family="sans-serif" font-size="18.6667" lengthAdjust="spacing" textLength="76.8086" x="958.4948" y="828.0729">database</text><path d="M976.8991,846.0911 C976.8991,832.7578 1000.8991,832.7578 1000.8991,832.7578 C1000.8991,832.7578 1024.8991,832.7578 1024.8991,846.0911 L1024.8991,880.7578 C1024.8991,894.0911 1000.8991,894.0911 1000.8991,894.0911 C1000.8991,894.0911 976.8991,894.0911 976.8991,880.7578 L976.8991,846.0911" fill="#0D1117" style="stroke:#58A6FF;stroke-width:0.6667;"/><path d="M976.8991,846.0911 C976.8991,859.4245 1000.8991,859.4245 1000.8991,859.4245 C1000.8991,859.4245 1024.8991,859.4245 1024.8991,846.0911" fill="none" style="stroke:#58A6FF;stroke-width:0.6667;"/></g><g class="participant participant-head" data-participant="GlobalExceptionHandler"><text fill="#C9D1D9" font-family="sans-serif" font-size="18.6667" lengthAdjust="spacing" textLength="201.3047" x="1056.6367" y="160.9714">GlobalExceptionHandler</text><ellipse cx="1161.2891" cy="119.4948" fill="#0D1117" rx="16" ry="16" style="stroke:#58A6FF;stroke-width:0.6667;"/><polygon fill="#58A6FF" points="1155.9557,103.4948,1163.9557,96.8281,1161.2891,103.4948,1163.9557,110.1615,1155.9557,103.4948" style="stroke:#58A6FF;stroke-width:1.3333;"/></g><g class="participant participant-tail" data-participant="GlobalExceptionHandler"><text fill="#C9D1D9" font-family="sans-serif" font-size="18.6667" lengthAdjust="spacing" textLength="201.3047" x="1056.6367" y="828.0729">GlobalExceptionHandler</text><ellipse cx="1161.2891" cy="854.0911" fill="#0D1117" rx="16" ry="16" style="stroke:#58A6FF;stroke-width:0.6667;"/><polygon fill="#58A6FF" points="1155.9557,838.0911,1163.9557,831.4245,1161.2891,838.0911,1163.9557,844.7578,1155.9557,838.0911" style="stroke:#58A6FF;stroke-width:1.3333;"/></g><g class="message" data-participant-1="Client" data-participant-2="Application"><polygon fill="#58A6FF" points="417.5547,204.7109,430.888,210.0443,417.5547,215.3776,422.888,210.0443" style="stroke:#58A6FF;stroke-width:1.3333;"/><line style="stroke:#58A6FF;stroke-width:1.3333;" x1="63.3333" x2="425.5547" y1="210.0443" y2="210.0443"/><text fill="#C9D1D9" font-family="sans-serif" font-size="17.3333" font-weight="bold" lengthAdjust="spacing" textLength="9.64" x="159.0726" y="203.0273">1</text><text fill="#C9D1D9" font-family="sans-serif" font-size="17.3333" lengthAdjust="spacing" textLength="163.7695" x="174.0459" y="203.0273">POST /api/v1/recipes</text></g><g class="message" data-participant-1="Application" data-participant-2="RecipeRestControllerV1"><polygon fill="#58A6FF" points="622.5254,246.4323,635.8587,251.7656,622.5254,257.099,627.8587,251.7656" style="stroke:#58A6FF;stroke-width:1.3333;"/><line style="stroke:#58A6FF;stroke-width:1.3333;" x1="433.5547" x2="630.5254" y1="251.7656" y2="251.7656"/><text fill="#C9D1D9" font-family="sans-serif" font-size="17.3333" font-weight="bold" lengthAdjust="spacing" textLength="9.64" x="463.985" y="244.7487">2</text><text fill="#C9D1D9" font-family="sans-serif" font-size="17.3333" lengthAdjust="spacing" textLength="129.1367" x="478.9583" y="244.7487">delegate request</text></g><path d="M644,277.099 L644,297.099 A8,8 0 0 0 652,305.099 L836,305.099 A8,8 0 0 0 844,297.099 L844,282.4323 L830.6667,269.099 L652,269.099 A8,8 0 0 0 644,277.099" fill="#1C2330" style="stroke:#E7E7E7;stroke-width:0.6667;"/><path d="M830.6667,269.099 L830.6667,278.4323 A4,4 0 0 0 834.6667,282.4323 L844,282.4323 L830.6667,269.099" fill="#1C2330" style="stroke:#E7E7E7;stroke-width:0.6667;"/><text fill="#C9D1D9" font-family="sans-serif" font-size="17.3333" lengthAdjust="spacing" textLength="172.487" x="652" y="294.4701">Validates request data</text><path d="M21.3333,321.487 L93.5612,321.487 L93.5612,333.875 L80.2279,347.2083 L13.3333,347.2083 L13.3333,329.487 A8,8 0 0 1 21.3333,321.487" fill="#161B22" style="stroke:#30363D;stroke-width:2;"/><rect fill="none" height="465.1094" rx="8" ry="8" style="stroke:#30363D;stroke-width:2;" width="1265.9414" x="13.3333" y="321.487"/><text fill="#C9D1D9" font-family="sans-serif" font-size="17.3333" font-weight="bold" lengthAdjust="spacing" textLength="20.2279" x="33.3333" y="341.5247">alt</text><text fill="#C9D1D9" font-family="sans-serif" font-size="14.6667" font-weight="bold" lengthAdjust="spacing" textLength="105.9251" x="113.5612" y="339.9805">[Validation OK]</text><g class="message" data-participant-1="RecipeRestControllerV1" data-participant-2="RecipeServiceV1"><polygon fill="#58A6FF" points="815.5684,372.9297,828.9017,378.263,815.5684,383.5964,820.9017,378.263" style="stroke:#58A6FF;stroke-width:1.3333;"/><line style="stroke:#58A6FF;stroke-width:1.3333;" x1="638.5254" x2="823.5684" y1="378.263" y2="378.263"/><text fill="#C9D1D9" font-family="sans-serif" font-size="17.3333" font-weight="bold" lengthAdjust="spacing" textLength="9.64" x="662.9919" y="371.2461">3</text><text fill="#C9D1D9" font-family="sans-serif" font-size="17.3333" lengthAdjust="spacing" textLength="129.1367" x="677.9652" y="371.2461">delegate request</text></g><g class="message" data-participant-1="RecipeServiceV1" data-participant-2="database"><polygon fill="#58A6FF" points="984.8991,414.651,998.2324,419.9844,984.8991,425.3177,990.2324,419.9844" style="stroke:#58A6FF;stroke-width:1.3333;"/><line style="stroke:#58A6FF;stroke-width:1.3333;" x1="831.5684" x2="992.8991" y1="419.9844" y2="419.9844"/><text fill="#C9D1D9" font-family="sans-serif" font-size="17.3333" font-weight="bold" lengthAdjust="spacing" textLength="9.64" x="857.2083" y="412.9674">4</text><text fill="#C9D1D9" font-family="sans-serif" font-size="17.3333" lengthAdjust="spacing" textLength="103.0775" x="872.1816" y="412.9674">persist recipe</text></g><g class="message" data-participant-1="database" data-participant-2="RecipeServiceV1"><polygon fill="#58A6FF" points="846.235,456.3724,832.9017,461.7057,846.235,467.0391,840.9017,461.7057" style="stroke:#58A6FF;stroke-width:1.3333;"/><line style="stroke:#58A6FF;stroke-width:1.3333;" x1="838.235" x2="999.5658" y1="461.7057" y2="461.7057"/><text fill="#C9D1D9" font-family="sans-serif" font-size="17.3333" font-weight="bold" lengthAdjust="spacing" textLength="9.64" x="847.5684" y="454.6888">5</text><text fill="#C9D1D9" font-family="sans-serif" font-size="17.3333" lengthAdjust="spacing" textLength="122.3574" x="862.5417" y="454.6888">persisted recipe</text></g><g class="message" data-participant-1="RecipeServiceV1" data-participant-2="RecipeRestControllerV1"><polygon fill="#58A6FF" points="653.1921,498.0938,639.8587,503.4271,653.1921,508.7604,647.8587,503.4271" style="stroke:#58A6FF;stroke-width:1.3333;"/><line style="stroke:#58A6FF;stroke-width:1.3333;" x1="645.1921" x2="830.235" y1="503.4271" y2="503.4271"/><text fill="#C9D1D9" font-family="sans-serif" font-size="17.3333" font-weight="bold" lengthAdjust="spacing" textLength="9.64" x="666.3815" y="496.4102">6</text><text fill="#C9D1D9" font-family="sans-serif" font-size="17.3333" lengthAdjust="spacing" textLength="122.3574" x="681.3548" y="496.4102">persisted recipe</text></g><g class="message" data-participant-1="RecipeRestControllerV1" data-participant-2="Application"><polygon fill="#58A6FF" points="448.2214,539.8151,434.888,545.1484,448.2214,550.4818,442.888,545.1484" style="stroke:#58A6FF;stroke-width:1.3333;"/><line style="stroke:#58A6FF;stroke-width:1.3333;" x1="440.2214" x2="637.1921" y1="545.1484" y2="545.1484"/><text fill="#C9D1D9" font-family="sans-serif" font-size="17.3333" font-weight="bold" lengthAdjust="spacing" textLength="9.64" x="483.2819" y="538.1315">7</text><text fill="#C9D1D9" font-family="sans-serif" font-size="17.3333" lengthAdjust="spacing" textLength="90.543" x="498.2552" y="538.1315">RecipeDTO</text></g><g class="message" data-participant-1="Application" data-participant-2="Client"><polygon fill="#58A6FF" points="78,581.5365,64.6667,586.8698,78,592.2031,72.6667,586.8698" style="stroke:#58A6FF;stroke-width:1.3333;"/><line style="stroke:#58A6FF;stroke-width:1.3333;" x1="70" x2="432.2214" y1="586.8698" y2="586.8698"/><text fill="#C9D1D9" font-family="sans-serif" font-size="17.3333" font-weight="bold" lengthAdjust="spacing" textLength="9.64" x="132.3363" y="579.8529">8</text><text fill="#C9D1D9" font-family="sans-serif" font-size="17.3333" lengthAdjust="spacing" textLength="217.2422" x="147.3096" y="579.8529">Created (201) + RecipeDTO</text></g><line style="stroke:#30363D;stroke-width:1.3333;stroke-dasharray:2.6667,2.6667;" x1="13.3333" x2="1279.2747" y1="598.8698" y2="598.8698"/><text fill="#C9D1D9" font-family="sans-serif" font-size="14.6667" font-weight="bold" lengthAdjust="spacing" textLength="122.2318" x="20" y="614.6966">[Validation failed]</text><g class="message" data-participant-1="RecipeRestControllerV1" data-participant-2="GlobalExceptionHandler"><polygon fill="#58A6FF" points="1145.2891,645.4323,1158.6224,650.7656,1145.2891,656.099,1150.6224,650.7656" style="stroke:#58A6FF;stroke-width:1.3333;"/><line style="stroke:#58A6FF;stroke-width:1.3333;" x1="638.5254" x2="1153.2891" y1="650.7656" y2="650.7656"/><text fill="#C9D1D9" font-family="sans-serif" font-size="17.3333" font-weight="bold" lengthAdjust="spacing" textLength="9.64" x="855.3206" y="643.7487">9</text><text fill="#C9D1D9" font-family="sans-serif" font-size="17.3333" lengthAdjust="spacing" textLength="74.1999" x="870.2939" y="643.7487">exception</text></g><g class="message" data-participant-1="GlobalExceptionHandler" data-participant-2="RecipeRestControllerV1"><polygon fill="#58A6FF" points="653.1921,687.1536,639.8587,692.487,653.1921,697.8203,647.8587,692.487" style="stroke:#58A6FF;stroke-width:1.3333;"/><line style="stroke:#58A6FF;stroke-width:1.3333;" x1="645.1921" x2="1159.9557" y1="692.487" y2="692.487"/><text fill="#C9D1D9" font-family="sans-serif" font-size="17.3333" font-weight="bold" lengthAdjust="spacing" textLength="19.2799" x="813.4219" y="685.4701">10</text><text fill="#C9D1D9" font-family="sans-serif" font-size="17.3333" lengthAdjust="spacing" textLength="148.3574" x="838.0352" y="685.4701">ErrorHttpResponse</text></g><g class="message" data-participant-1="RecipeRestControllerV1" data-participant-2="Application"><polygon fill="#58A6FF" points="448.2214,728.875,434.888,734.2083,448.2214,739.5417,442.888,734.2083" style="stroke:#58A6FF;stroke-width:1.3333;"/><line style="stroke:#58A6FF;stroke-width:1.3333;" x1="440.2214" x2="637.1921" y1="734.2083" y2="734.2083"/><text fill="#C9D1D9" font-family="sans-serif" font-size="17.3333" font-weight="bold" lengthAdjust="spacing" textLength="19.2799" x="449.5547" y="727.1914">11</text><text fill="#C9D1D9" font-family="sans-serif" font-size="17.3333" lengthAdjust="spacing" textLength="148.3574" x="474.168" y="727.1914">ErrorHttpResponse</text></g><g class="message" data-participant-1="Application" data-participant-2="Client"><polygon fill="#58A6FF" points="78,770.5964,64.6667,775.9297,78,781.263,72.6667,775.9297" style="stroke:#58A6FF;stroke-width:1.3333;"/><line style="stroke:#58A6FF;stroke-width:1.3333;" x1="70" x2="432.2214" y1="775.9297" y2="775.9297"/><text fill="#C9D1D9" font-family="sans-serif" font-size="17.3333" font-weight="bold" lengthAdjust="spacing" textLength="19.2799" x="79.3333" y="768.9128">12</text><text fill="#C9D1D9" font-family="sans-serif" font-size="17.3333" lengthAdjust="spacing" textLength="313.6081" x="103.9466" y="768.9128">Bad Request (400) + ErrorHttpResponse</text></g><!--SRC=[bLLTRzem57tFhxZINZfD5GciTELX4YJGIkj6LL3VJN99hHexiqrfDUs_poOcDU20fhn0xZdtddFy4KqrGqWb4etmY3cj42vXXh_No7EC8hBMWgzN2vHHf5uehuWaArYG_AMKOisBL30XuLCyJfBasaEePrA83UKbB0bJw5Msj5n8ZXAIhbSeAWf9F_RdAAS3_aG0Fr4fKkAGqP93ZbmRJG13ASN6gRZwDknF9kRbFLtYFUKu4h90wQgzkDVlPNxrq4NIJqRThcsQQo7to4thkdJaFzlw1nY9j_1GMsXX_VKjp-s2J0JN3fFUP4bsum5sQtDhEbMXMMtG5hSVy5z21p99kxrUV8ZonuwlxNE0y1nChkpZrRSHplIxsNXaWqgi_EsHuPAicJvEmCECh3uYtqCh542rnEv1KpDD2dQwtmvqlbr6D5aGXQVxDQZp3H-8rDISJSBrwPu-iAqjiV53ogWvGj72XGJ3gc8q9veA7kMrKtSVFABIpZj3-PGSb6SeNscEvdtX3C7kHuEyPM91sFWjnyeEk2EyCAtEbQDQ8rn-zzN101wcipbqI4Kxhqb7RbMeo8SOHbYx8HV8iBItdRIdG-c82_k7biyQnBBDynDXrDX2jQDjJKR82x1yaohJu41MmVI7EVCj6XfrJNGXMN04ChmcuW5KA1KrEch_1jxKWlqT78iFGg1_Qsgjz92x_TMgSTbyQc_F_KLo2pnm7w02BhfnyXc-U1mqNmy_s2MX38kJuyFRoKp1tIj3Rm6Toc1iFZNoJklAr2h1rV-44EAsXJ4YXUbRxxABht5i0pdccwtt3m00]--></g></svg>