<svg xmlns="http://www.w3.org/2000/svg" contentStyleType="text/css" data-diagram-type="SEQUENCE" height="1153.3333px"
     preserveAspectRatio="none" style="width:1556px;height:1153px;background:#0E1117;" version="1.1"
     viewBox="0 0 1556 1153" width="1556.6667px" zoomAndPan="magnify"><title>Delete Recipe - Sequence</title><defs/><g><rect fill="#0E1117" height="1153.3333" style="stroke:none;stroke-width:1.6667;" width="1556.6667" x="0" y="0"/><text fill="#C9D1D9" font-family="sans-serif" font-size="23.3333" font-weight="bold" lengthAdjust="spacing" textLength="283.999" x="638.5563" y="50.179">Delete Recipe - Sequence</text><rect fill="none" height="529.235" rx="10" ry="10" style="stroke:#30363D;stroke-width:2.5;" width="1529.445" x="16.6667" y="454.0104"/><g><title>Client</title><rect fill="#000000" fill-opacity="0.00000" height="804.5085" width="13.3333" x="72.5" y="207.0703"/><line style="stroke:#30363D;stroke-width:0.8333;stroke-dasharray:8.3333,8.3333;" x1="78.3333" x2="78.3333" y1="207.0703" y2="1011.5788"/></g><g><title>Application</title><rect fill="#000000" fill-opacity="0.00000" height="804.5085" width="13.3333" x="511.1768" y="207.0703"/><line style="stroke:#30363D;stroke-width:0.8333;stroke-dasharray:8.3333,8.3333;" x1="517.4357" x2="517.4357" y1="207.0703" y2="1011.5788"/></g><g><title>RecipeRestControllerV1</title><rect fill="#000000" fill-opacity="0.00000" height="804.5085" width="13.3333" x="767.3901" y="207.0703"/><line style="stroke:#30363D;stroke-width:0.8333;stroke-dasharray:8.3333,8.3333;" x1="773.9079" x2="773.9079" y1="207.0703" y2="1011.5788"/></g><g><title>RecipeServiceV1</title><rect fill="#000000" fill-opacity="0.00000" height="804.5085" width="13.3333" x="1008.6938" y="207.0703"/><line style="stroke:#30363D;stroke-width:0.8333;stroke-dasharray:8.3333,8.3333;" x1="1014.2057" x2="1014.2057" y1="207.0703" y2="1011.5788"/></g><g><title>database</title><rect fill="#000000" fill-opacity="0.00000" height="804.5085" width="13.3333" x="1191.4754" y="207.0703"/><line style="stroke:#30363D;stroke-width:0.8333;stroke-dasharray:8.3333,8.3333;" x1="1196.8034" x2="1196.8034" y1="207.0703" y2="1011.5788"/></g><g><title>GlobalExceptionHandler</title><rect fill="#000000" fill-opacity="0.00000" height="804.5085" width="13.3333" x="1391.9629" y="207.0703"/><line style="stroke:#30363D;stroke-width:0.8333;stroke-dasharray:8.3333,8.3333;" x1="1397.8141" x2="1397.8141" y1="207.0703" y2="1011.5788"/></g><g class="participant participant-head" data-participant="Client"><text fill="#C9D1D9" font-family="sans-serif" font-size="23.3333" lengthAdjust="spacing" textLength="59.6549" x="44.3392" y="201.2142">Client</text><ellipse cx="79.1667" cy="101.8685" fill="#0D1117" rx="26.6667" ry="26.6667" style="stroke:#58A6FF;stroke-width:0.8333;"/><path d="M79.1667,135.2018 C85.8333,135.2018 90.8333,135.2018 97.5,128.5352 C110.8333,128.5352 124.1667,141.8685 124.1667,155.2018 L124.1667,161.8685 C124.1667,168.5352 117.5,175.2018 110.8333,175.2018 L47.5,175.2018 C40.8333,175.2018 34.1667,168.5352 34.1667,161.8685 L34.1667,155.2018 C34.1667,141.8685 47.5,128.5352 60.8333,128.5352 C67.5,135.2018 72.5,135.2018 79.1667,135.2018" fill="#0D1117" style="stroke:#58A6FF;stroke-width:0.8333;"/></g><g class="participant participant-tail" data-participant="Client"><text fill="#C9D1D9" font-family="sans-serif" font-size="23.3333" lengthAdjust="spacing" textLength="59.6549" x="44.3392" y="1035.0911">Client</text><ellipse cx="79.1667" cy="1068.4473" fill="#0D1117" rx="26.6667" ry="26.6667" style="stroke:#58A6FF;stroke-width:0.8333;"/><path d="M79.1667,1101.7806 C85.8333,1101.7806 90.8333,1101.7806 97.5,1095.1139 C110.8333,1095.1139 124.1667,1108.4473 124.1667,1121.7806 L124.1667,1128.4473 C124.1667,1135.1139 117.5,1141.7806 110.8333,1141.7806 L47.5,1141.7806 C40.8333,1141.7806 34.1667,1135.1139 34.1667,1128.4473 L34.1667,1121.7806 C34.1667,1108.4473 47.5,1095.1139 60.8333,1095.1139 C67.5,1101.7806 72.5,1101.7806 79.1667,1101.7806" fill="#0D1117" style="stroke:#58A6FF;stroke-width:0.8333;"/></g><g class="participant participant-head" data-participant="Application"><text fill="#C9D1D9" font-family="sans-serif" font-size="23.3333" lengthAdjust="spacing" textLength="114.1488" x="455.769" y="201.2142">Application</text><path d="M483.6768,129.3685 L483.6768,169.3685 M483.6768,149.3685 L512.0101,149.3685" fill="none" style="stroke:#58A6FF;stroke-width:0.8333;"/><ellipse cx="532.0101" cy="149.3685" fill="#0D1117" rx="20" ry="20" style="stroke:#58A6FF;stroke-width:0.8333;"/></g><g class="participant participant-tail" data-participant="Application"><text fill="#C9D1D9" font-family="sans-serif" font-size="23.3333" lengthAdjust="spacing" textLength="114.1488" x="455.769" y="1035.0911">Application</text><path d="M483.6768,1047.6139 L483.6768,1087.6139 M483.6768,1067.6139 L512.0101,1067.6139" fill="none" style="stroke:#58A6FF;stroke-width:0.8333;"/><ellipse cx="532.0101" cy="1067.6139" fill="#0D1117" rx="20" ry="20" style="stroke:#58A6FF;stroke-width:0.8333;"/></g><g class="participant participant-head" data-participant="RecipeRestControllerV1"><text fill="#C9D1D9" font-family="sans-serif" font-size="23.3333" lengthAdjust="spacing" textLength="250.2979" x="643.9079" y="201.2142">RecipeRestControllerV1</text><ellipse cx="774.0568" cy="149.3685" fill="#0D1117" rx="20" ry="20" style="stroke:#58A6FF;stroke-width:0.8333;"/><polygon fill="#58A6FF" points="767.3901,129.3685,777.3901,121.0352,774.0568,129.3685,777.3901,137.7018,767.3901,129.3685" style="stroke:#58A6FF;stroke-width:1.6667;"/></g><g class="participant participant-tail" data-participant="RecipeRestControllerV1"><text fill="#C9D1D9" font-family="sans-serif" font-size="23.3333" lengthAdjust="spacing" textLength="250.2979" x="643.9079" y="1035.0911">RecipeRestControllerV1</text><ellipse cx="774.0568" cy="1067.6139" fill="#0D1117" rx="20" ry="20" style="stroke:#58A6FF;stroke-width:0.8333;"/><polygon fill="#58A6FF" points="767.3901,1047.6139,777.3901,1039.2806,774.0568,1047.6139,777.3901,1055.9473,767.3901,1047.6139" style="stroke:#58A6FF;stroke-width:1.6667;"/></g><g class="participant participant-head" data-participant="RecipeServiceV1"><text fill="#C9D1D9" font-family="sans-serif" font-size="23.3333" lengthAdjust="spacing" textLength="178.9762" x="920.8724" y="201.2142">RecipeServiceV1</text><ellipse cx="1015.3605" cy="149.3685" fill="#0D1117" rx="20" ry="20" style="stroke:#58A6FF;stroke-width:0.8333;"/><polygon fill="#58A6FF" points="1008.6938,129.3685,1018.6938,121.0352,1015.3605,129.3685,1018.6938,137.7018,1008.6938,129.3685" style="stroke:#58A6FF;stroke-width:1.6667;"/></g><g class="participant participant-tail" data-participant="RecipeServiceV1"><text fill="#C9D1D9" font-family="sans-serif" font-size="23.3333" lengthAdjust="spacing" textLength="178.9762" x="920.8724" y="1035.0911">RecipeServiceV1</text><ellipse cx="1015.3605" cy="1067.6139" fill="#0D1117" rx="20" ry="20" style="stroke:#58A6FF;stroke-width:0.8333;"/><polygon fill="#58A6FF" points="1008.6938,1047.6139,1018.6938,1039.2806,1015.3605,1047.6139,1018.6938,1055.9473,1008.6938,1047.6139" style="stroke:#58A6FF;stroke-width:1.6667;"/></g><g class="participant participant-head" data-participant="database"><text fill="#C9D1D9" font-family="sans-serif" font-size="23.3333" lengthAdjust="spacing" textLength="96.0107" x="1145.1367" y="201.2142">database</text><path d="M1168.1421,116.0352 C1168.1421,99.3685 1198.1421,99.3685 1198.1421,99.3685 C1198.1421,99.3685 1228.1421,99.3685 1228.1421,116.0352 L1228.1421,159.3685 C1228.1421,176.0352 1198.1421,176.0352 1198.1421,176.0352 C1198.1421,176.0352 1168.1421,176.0352 1168.1421,159.3685 L1168.1421,116.0352" fill="#0D1117" style="stroke:#58A6FF;stroke-width:0.8333;"/><path d="M1168.1421,116.0352 C1168.1421,132.7018 1198.1421,132.7018 1198.1421,132.7018 C1198.1421,132.7018 1228.1421,132.7018 1228.1421,116.0352" fill="none" style="stroke:#58A6FF;stroke-width:0.8333;"/></g><g class="participant participant-tail" data-participant="database"><text fill="#C9D1D9" font-family="sans-serif" font-size="23.3333" lengthAdjust="spacing" textLength="96.0107" x="1145.1367" y="1035.0911">database</text><path d="M1168.1421,1057.6139 C1168.1421,1040.9473 1198.1421,1040.9473 1198.1421,1040.9473 C1198.1421,1040.9473 1228.1421,1040.9473 1228.1421,1057.6139 L1228.1421,1100.9473 C1228.1421,1117.6139 1198.1421,1117.6139 1198.1421,1117.6139 C1198.1421,1117.6139 1168.1421,1117.6139 1168.1421,1100.9473 L1168.1421,1057.6139" fill="#0D1117" style="stroke:#58A6FF;stroke-width:0.8333;"/><path d="M1168.1421,1057.6139 C1168.1421,1074.2806 1198.1421,1074.2806 1198.1421,1074.2806 C1198.1421,1074.2806 1228.1421,1074.2806 1228.1421,1057.6139" fill="none" style="stroke:#58A6FF;stroke-width:0.8333;"/></g><g class="participant participant-head" data-participant="GlobalExceptionHandler"><text fill="#C9D1D9" font-family="sans-serif" font-size="23.3333" lengthAdjust="spacing" textLength="251.6309" x="1267.8141" y="201.2142">GlobalExceptionHandler</text><ellipse cx="1398.6296" cy="149.3685" fill="#0D1117" rx="20" ry="20" style="stroke:#58A6FF;stroke-width:0.8333;"/><polygon fill="#58A6FF" points="1391.9629,129.3685,1401.9629,121.0352,1398.6296,129.3685,1401.9629,137.7018,1391.9629,129.3685" style="stroke:#58A6FF;stroke-width:1.6667;"/></g><g class="participant participant-tail" data-participant="GlobalExceptionHandler"><text fill="#C9D1D9" font-family="sans-serif" font-size="23.3333" lengthAdjust="spacing" textLength="251.6309" x="1267.8141" y="1035.0911">GlobalExceptionHandler</text><ellipse cx="1398.6296" cy="1067.6139" fill="#0D1117" rx="20" ry="20" style="stroke:#58A6FF;stroke-width:0.8333;"/><polygon fill="#58A6FF" points="1391.9629,1047.6139,1401.9629,1039.2806,1398.6296,1047.6139,1401.9629,1055.9473,1391.9629,1047.6139" style="stroke:#58A6FF;stroke-width:1.6667;"/></g><g class="message" data-participant-1="Client" data-participant-2="Application"><polygon fill="#58A6FF" points="497.8434,255.8887,514.5101,262.5553,497.8434,269.222,504.5101,262.5553" style="stroke:#58A6FF;stroke-width:1.6667;"/><line style="stroke:#58A6FF;stroke-width:1.6667;" x1="79.1667" x2="507.8434" y1="262.5553" y2="262.5553"/><text fill="#C9D1D9" font-family="sans-serif" font-size="21.6667" font-weight="bold" lengthAdjust="spacing" textLength="12.05" x="155.4651" y="253.7842">1</text><text fill="#C9D1D9" font-family="sans-serif" font-size="21.6667" lengthAdjust="spacing" textLength="267.3633" x="174.1817" y="253.7842">DELETE /api/v1/recipes/{id}</text></g><g class="message" data-participant-1="Application" data-participant-2="RecipeRestControllerV1"><polygon fill="#58A6FF" points="754.0568,308.0404,770.7235,314.707,754.0568,321.3737,760.7235,314.707" style="stroke:#58A6FF;stroke-width:1.6667;"/><line style="stroke:#58A6FF;stroke-width:1.6667;" x1="517.8434" x2="764.0568" y1="314.707" y2="314.707"/><text fill="#C9D1D9" font-family="sans-serif" font-size="21.6667" font-weight="bold" lengthAdjust="spacing" textLength="12.05" x="555.8813" y="305.9359">2</text><text fill="#C9D1D9" font-family="sans-serif" font-size="21.6667" lengthAdjust="spacing" textLength="161.4209" x="574.598" y="305.9359">delegate request</text></g><g class="message" data-participant-1="RecipeRestControllerV1" data-participant-2="RecipeServiceV1"><polygon fill="#58A6FF" points="995.3605,360.1921,1012.0272,366.8587,995.3605,373.5254,1002.0272,366.8587" style="stroke:#58A6FF;stroke-width:1.6667;"/><line style="stroke:#58A6FF;stroke-width:1.6667;" x1="774.0568" x2="1005.3605" y1="366.8587" y2="366.8587"/><text fill="#C9D1D9" font-family="sans-serif" font-size="21.6667" font-weight="bold" lengthAdjust="spacing" textLength="12.05" x="804.6399" y="358.0876">3</text><text fill="#C9D1D9" font-family="sans-serif" font-size="21.6667" lengthAdjust="spacing" textLength="161.4209" x="823.3565" y="358.0876">delegate request</text></g><path d="M1023.3333,398.5254 L1023.3333,423.5254 A10,10 0 0 0 1033.3333,433.5254 L1225,433.5254 A10,10 0 0 0 1235,423.5254 L1235,405.1921 L1218.3333,388.5254 L1033.3333,388.5254 A10,10 0 0 0 1023.3333,398.5254" fill="#1C2330" style="stroke:#E7E7E7;stroke-width:0.8333;"/><path d="M1218.3333,388.5254 L1218.3333,400.1921 A5,5 0 0 0 1223.3333,405.1921 L1235,405.1921 L1218.3333,388.5254" fill="#1C2330" style="stroke:#E7E7E7;stroke-width:0.8333;"/><text fill="#C9D1D9" font-family="sans-serif" font-size="21.6667" lengthAdjust="spacing" textLength="177.0361" x="1033.3333" y="420.2393">check id existence</text><path d="M26.6667,454.0104 L116.9515,454.0104 L116.9515,469.4954 L100.2848,486.1621 L16.6667,486.1621 L16.6667,464.0104 A10,10 0 0 1 26.6667,454.0104" fill="#161B22" style="stroke:#30363D;stroke-width:2.5;"/><rect fill="none" height="529.235" rx="10" ry="10" style="stroke:#30363D;stroke-width:2.5;" width="1529.445" x="16.6667" y="454.0104"/><text fill="#C9D1D9" font-family="sans-serif" font-size="21.6667" font-weight="bold" lengthAdjust="spacing" textLength="25.2848" x="41.6667" y="479.0576">alt</text><text fill="#C9D1D9" font-family="sans-serif" font-size="18.3333" font-weight="bold" lengthAdjust="spacing" textLength="85.5794" x="141.9515" y="477.1273">[id exists]</text><g class="message" data-participant-1="database" data-participant-2="RecipeServiceV1"><polygon fill="#58A6FF" points="1033.6938,518.3138,1017.0272,524.9805,1033.6938,531.6471,1027.0272,524.9805" style="stroke:#58A6FF;stroke-width:1.6667;"/><line style="stroke:#58A6FF;stroke-width:1.6667;" x1="1023.6938" x2="1196.4754" y1="524.9805" y2="524.9805"/><text fill="#C9D1D9" font-family="sans-serif" font-size="21.6667" font-weight="bold" lengthAdjust="spacing" textLength="12.05" x="1067.887" y="516.2093">4</text><text fill="#C9D1D9" font-family="sans-serif" font-size="21.6667" lengthAdjust="spacing" textLength="59.012" x="1086.6036" y="516.2093">recipe</text></g><g class="message" data-participant-1="RecipeServiceV1" data-participant-2="database"><polygon fill="#58A6FF" points="1178.1421,570.4655,1194.8088,577.1322,1178.1421,583.7988,1184.8088,577.1322" style="stroke:#58A6FF;stroke-width:1.6667;"/><line style="stroke:#58A6FF;stroke-width:1.6667;" x1="1015.3605" x2="1188.1421" y1="577.1322" y2="577.1322"/><text fill="#C9D1D9" font-family="sans-serif" font-size="21.6667" font-weight="bold" lengthAdjust="spacing" textLength="12.05" x="1035.3605" y="568.361">5</text><text fill="#C9D1D9" font-family="sans-serif" font-size="21.6667" lengthAdjust="spacing" textLength="124.0649" x="1054.0771" y="568.361">delete recipe</text></g><g class="message" data-participant-1="RecipeServiceV1" data-participant-2="RecipeRestControllerV1"><polygon fill="#58A6FF" points="792.3901,622.6172,775.7235,629.2839,792.3901,635.9505,785.7235,629.2839" style="stroke:#58A6FF;stroke-width:1.6667;"/><line style="stroke:#58A6FF;stroke-width:1.6667;" x1="782.3901" x2="1013.6938" y1="629.2839" y2="629.2839"/><text fill="#C9D1D9" font-family="sans-serif" font-size="21.6667" font-weight="bold" lengthAdjust="spacing" textLength="12.05" x="817.2929" y="620.5127">6</text><text fill="#C9D1D9" font-family="sans-serif" font-size="21.6667" lengthAdjust="spacing" textLength="136.1149" x="836.0095" y="620.5127">deleted recipe</text></g><g class="message" data-participant-1="RecipeRestControllerV1" data-participant-2="Application"><polygon fill="#58A6FF" points="536.1768,674.7689,519.5101,681.4355,536.1768,688.1022,529.5101,681.4355" style="stroke:#58A6FF;stroke-width:1.6667;"/><line style="stroke:#58A6FF;stroke-width:1.6667;" x1="526.1768" x2="772.3901" y1="681.4355" y2="681.4355"/><text fill="#C9D1D9" font-family="sans-serif" font-size="21.6667" font-weight="bold" lengthAdjust="spacing" textLength="12.05" x="580.0024" y="672.6644">7</text><text fill="#C9D1D9" font-family="sans-serif" font-size="21.6667" lengthAdjust="spacing" textLength="113.1787" x="598.7191" y="672.6644">RecipeDTO</text></g><g class="message" data-participant-1="Application" data-participant-2="Client"><polygon fill="#58A6FF" points="97.5,726.9206,80.8333,733.5872,97.5,740.2539,90.8333,733.5872" style="stroke:#58A6FF;stroke-width:1.6667;"/><line style="stroke:#58A6FF;stroke-width:1.6667;" x1="87.5" x2="516.1768" y1="733.5872" y2="733.5872"/><text fill="#C9D1D9" font-family="sans-serif" font-size="21.6667" font-weight="bold" lengthAdjust="spacing" textLength="12.05" x="176.259" y="724.8161">8</text><text fill="#C9D1D9" font-family="sans-serif" font-size="21.6667" lengthAdjust="spacing" textLength="225.7756" x="194.9756" y="724.8161">OK (200) + RecipeDTO</text></g><line style="stroke:#30363D;stroke-width:1.6667;stroke-dasharray:3.3333,3.3333;" x1="16.6667" x2="1546.1117" y1="748.5872" y2="748.5872"/><text fill="#C9D1D9" font-family="sans-serif" font-size="18.3333" font-weight="bold" lengthAdjust="spacing" textLength="144.93" x="25" y="768.3708">[id doesn't exist]</text><g class="message" data-participant-1="RecipeServiceV1" data-participant-2="GlobalExceptionHandler"><polygon fill="#58A6FF" points="1378.6296,806.7904,1395.2962,813.457,1378.6296,820.1237,1385.2962,813.457" style="stroke:#58A6FF;stroke-width:1.6667;"/><line style="stroke:#58A6FF;stroke-width:1.6667;" x1="1015.3605" x2="1388.6296" y1="813.457" y2="813.457"/><text fill="#C9D1D9" font-family="sans-serif" font-size="21.6667" font-weight="bold" lengthAdjust="spacing" textLength="12.05" x="1151.2618" y="804.6859">9</text><text fill="#C9D1D9" font-family="sans-serif" font-size="21.6667" lengthAdjust="spacing" textLength="92.7498" x="1169.9784" y="804.6859">exception</text></g><g class="message" data-participant-1="GlobalExceptionHandler" data-participant-2="RecipeRestControllerV1"><polygon fill="#58A6FF" points="792.3901,858.9421,775.7235,865.6087,792.3901,872.2754,785.7235,865.6087" style="stroke:#58A6FF;stroke-width:1.6667;"/><line style="stroke:#58A6FF;stroke-width:1.6667;" x1="782.3901" x2="1396.9629" y1="865.6087" y2="865.6087"/><text fill="#C9D1D9" font-family="sans-serif" font-size="21.6667" font-weight="bold" lengthAdjust="spacing" textLength="24.0999" x="978.2365" y="856.8376">10</text><text fill="#C9D1D9" font-family="sans-serif" font-size="21.6667" lengthAdjust="spacing" textLength="185.4468" x="1009.0031" y="856.8376">ErrorHttpResponse</text></g><g class="message" data-participant-1="RecipeRestControllerV1" data-participant-2="Application"><polygon fill="#58A6FF" points="536.1768,911.0938,519.5101,917.7604,536.1768,924.4271,529.5101,917.7604" style="stroke:#58A6FF;stroke-width:1.6667;"/><line style="stroke:#58A6FF;stroke-width:1.6667;" x1="526.1768" x2="772.3901" y1="917.7604" y2="917.7604"/><text fill="#C9D1D9" font-family="sans-serif" font-size="21.6667" font-weight="bold" lengthAdjust="spacing" textLength="24.0999" x="537.8434" y="908.9893">11</text><text fill="#C9D1D9" font-family="sans-serif" font-size="21.6667" lengthAdjust="spacing" textLength="185.4468" x="568.61" y="908.9893">ErrorHttpResponse</text></g><g class="message" data-participant-1="Application" data-participant-2="Client"><polygon fill="#58A6FF" points="97.5,963.2454,80.8333,969.9121,97.5,976.5788,90.8333,969.9121" style="stroke:#58A6FF;stroke-width:1.6667;"/><line style="stroke:#58A6FF;stroke-width:1.6667;" x1="87.5" x2="516.1768" y1="969.9121" y2="969.9121"/><text fill="#C9D1D9" font-family="sans-serif" font-size="21.6667" font-weight="bold" lengthAdjust="spacing" textLength="24.0999" x="99.1667" y="961.141">12</text><text fill="#C9D1D9" font-family="sans-serif" font-size="21.6667" lengthAdjust="spacing" textLength="367.9102" x="129.9333" y="961.141">Not Found (404) + ErrorHttpResponse</text></g><!--SRC=[bLLHRzem47xFhpXf3-iqLIJGqhKFau24LXfTfnRjtJW7M1WxiqsXglhVPoSXSqEIQieBvBxlxhxlx8jXXYF4oD4WF29b6S8vFE6V7GgAGK1sHehTTe4g2FI6YOmeieK5ePkLaZkHJYIN2Zw5IHH5Lnv2hqagzqoiO4cuHY-IqwXK0XL4VI-GPWoYOUZNqMKVy1e0tAFMP8KZpbO2A0fZUm8OAINtPHUNtqR3wTI-dB4bpfZ0iLGfgZ8w20V3GUn7wogYOJJkzrrIQgHwHwvI5w4J_N6k7s0i3yr5NQ25zUPBdhk1JAKm9MPo7KVnjGSupkRMPigQQhL1MzJ-W_-Kfi6JINym2EielsnovPuQmbCmlNIF5yyjV38lzk2HFMgvzOz7Z4kou-RK0GypTlqHzT8qeGPKY-qUT6AhAScxynr17wUBYI4Beh4xNuNwEE4leWopTvC8qvtJ1xQb9Sv-c71chr2mA4s2KPPnHebXKWIqK5hkWqVKfjJEKVsEQk4dLC-CedsVbeBW-AD2tdAv83mvKCnSWJiYKkusIj44d7_toyCDnCaicIVG8ndhFKSzbHVIlLUMlWK-qXARUxGvKhlJLiHkDULkWJP12xBAKGbf8Wlf_h3Lse1SdYYdQwGRO2dWWMcJRquKAJYIzPkRAgJj9e3Ad-RQXTeSM0zQVCKjcinRxC9t-cCmFQKtEVH-F0KkdZ_ahDf0ofdUmCCFEEk7uHVuwX7GVWoS6wb4BJwRmfMstfkFZKsDnrSvimNM9JwnNmrrPqncOvaK-l_qDxFRVB3h4ARkci7PHNZXx3ZbszFo5m00]--></g></svg>