<svg xmlns="http://www.w3.org/2000/svg" contentStyleType="text/css" data-diagram-type="SEQUENCE" height="990px"
     preserveAspectRatio="none" style="width:1384px;height:990px;background:#0E1117;" version="1.1"
     viewBox="0 0 1384 990" width="1384.5px" zoomAndPan="magnify"><title>Get Recipe - Sequence</title><defs/><g><rect fill="#0E1117" height="990" style="stroke:none;stroke-width:1.5;" width="1384.5" x="0" y="0"/><text fill="#C9D1D9" font-family="sans-serif" font-size="21" font-weight="bold" lengthAdjust="spacing" textLength="227.5752" x="580.333" y="45.1611">Get Recipe - Sequence</text><rect fill="none" height="429.375" rx="9" ry="9" style="stroke:#30363D;stroke-width:2.25;" width="1359.7412" x="15" y="408.6094"/><g><title>Client</title><rect fill="#000000" fill-opacity="0.00000" height="677.1211" width="12" x="65.25" y="186.3633"/><line style="stroke:#30363D;stroke-width:0.75;stroke-dasharray:7.5,7.5;" x1="70.5" x2="70.5" y1="186.3633" y2="863.4844"/></g><g><title>Application</title><rect fill="#000000" fill-opacity="0.00000" height="677.1211" width="12" x="460.0591" y="186.3633"/><line style="stroke:#30363D;stroke-width:0.75;stroke-dasharray:7.5,7.5;" x1="465.6921" x2="465.6921" y1="186.3633" y2="863.4844"/></g><g><title>RecipeRestControllerV1</title><rect fill="#000000" fill-opacity="0.00000" height="677.1211" width="12" x="690.6511" y="186.3633"/><line style="stroke:#30363D;stroke-width:0.75;stroke-dasharray:7.5,7.5;" x1="696.5171" x2="696.5171" y1="186.3633" y2="863.4844"/></g><g><title>RecipeServiceV1</title><rect fill="#000000" fill-opacity="0.00000" height="677.1211" width="12" x="907.8245" y="186.3633"/><line style="stroke:#30363D;stroke-width:0.75;stroke-dasharray:7.5,7.5;" x1="912.7852" x2="912.7852" y1="186.3633" y2="863.4844"/></g><g><title>database</title><rect fill="#000000" fill-opacity="0.00000" height="677.1211" width="12" x="1055.5686" y="186.3633"/><line style="stroke:#30363D;stroke-width:0.75;stroke-dasharray:7.5,7.5;" x1="1060.3638" x2="1060.3638" y1="186.3633" y2="863.4844"/></g><g><title>GlobalExceptionHandler</title><rect fill="#000000" fill-opacity="0.00000" height="677.1211" width="12" x="1236.0073" y="186.3633"/><line style="stroke:#30363D;stroke-width:0.75;stroke-dasharray:7.5,7.5;" x1="1241.2734" x2="1241.2734" y1="186.3633" y2="863.4844"/></g><g class="participant participant-head" data-participant="Client"><text fill="#C9D1D9" font-family="sans-serif" font-size="21" lengthAdjust="spacing" textLength="53.6895" x="39.9053" y="181.0928">Client</text><ellipse cx="71.25" cy="91.6816" fill="#0D1117" rx="24" ry="24" style="stroke:#58A6FF;stroke-width:0.75;"/><path d="M71.25,121.6816 C77.25,121.6816 81.75,121.6816 87.75,115.6816 C99.75,115.6816 111.75,127.6816 111.75,139.6816 L111.75,145.6816 C111.75,151.6816 105.75,157.6816 99.75,157.6816 L42.75,157.6816 C36.75,157.6816 30.75,151.6816 30.75,145.6816 L30.75,139.6816 C30.75,127.6816 42.75,115.6816 54.75,115.6816 C60.75,121.6816 65.25,121.6816 71.25,121.6816" fill="#0D1117" style="stroke:#58A6FF;stroke-width:0.75;"/></g><g class="participant participant-tail" data-participant="Client"><text fill="#C9D1D9" font-family="sans-serif" font-size="21" lengthAdjust="spacing" textLength="53.6895" x="39.9053" y="884.6455">Client</text><ellipse cx="71.25" cy="914.666" fill="#0D1117" rx="24" ry="24" style="stroke:#58A6FF;stroke-width:0.75;"/><path d="M71.25,944.666 C77.25,944.666 81.75,944.666 87.75,938.666 C99.75,938.666 111.75,950.666 111.75,962.666 L111.75,968.666 C111.75,974.666 105.75,980.666 99.75,980.666 L42.75,980.666 C36.75,980.666 30.75,974.666 30.75,968.666 L30.75,962.666 C30.75,950.666 42.75,938.666 54.75,938.666 C60.75,944.666 65.25,944.666 71.25,944.666" fill="#0D1117" style="stroke:#58A6FF;stroke-width:0.75;"/></g><g class="participant participant-head" data-participant="Application"><text fill="#C9D1D9" font-family="sans-serif" font-size="21" lengthAdjust="spacing" textLength="102.7339" x="410.1921" y="181.0928">Application</text><path d="M435.3091,116.4316 L435.3091,152.4316 M435.3091,134.4316 L460.8091,134.4316" fill="none" style="stroke:#58A6FF;stroke-width:0.75;"/><ellipse cx="478.8091" cy="134.4316" fill="#0D1117" rx="18" ry="18" style="stroke:#58A6FF;stroke-width:0.75;"/></g><g class="participant participant-tail" data-participant="Application"><text fill="#C9D1D9" font-family="sans-serif" font-size="21" lengthAdjust="spacing" textLength="102.7339" x="410.1921" y="884.6455">Application</text><path d="M435.3091,895.916 L435.3091,931.916 M435.3091,913.916 L460.8091,913.916" fill="none" style="stroke:#58A6FF;stroke-width:0.75;"/><ellipse cx="478.8091" cy="913.916" fill="#0D1117" rx="18" ry="18" style="stroke:#58A6FF;stroke-width:0.75;"/></g><g class="participant participant-head" data-participant="RecipeRestControllerV1"><text fill="#C9D1D9" font-family="sans-serif" font-size="21" lengthAdjust="spacing" textLength="225.2681" x="579.5171" y="181.0928">RecipeRestControllerV1</text><ellipse cx="696.6511" cy="134.4316" fill="#0D1117" rx="18" ry="18" style="stroke:#58A6FF;stroke-width:0.75;"/><polygon fill="#58A6FF" points="690.6511,116.4316,699.6511,108.9316,696.6511,116.4316,699.6511,123.9316,690.6511,116.4316" style="stroke:#58A6FF;stroke-width:1.5;"/></g><g class="participant participant-tail" data-participant="RecipeRestControllerV1"><text fill="#C9D1D9" font-family="sans-serif" font-size="21" lengthAdjust="spacing" textLength="225.2681" x="579.5171" y="884.6455">RecipeRestControllerV1</text><ellipse cx="696.6511" cy="913.916" fill="#0D1117" rx="18" ry="18" style="stroke:#58A6FF;stroke-width:0.75;"/><polygon fill="#58A6FF" points="690.6511,895.916,699.6511,888.416,696.6511,895.916,699.6511,903.416,690.6511,895.916" style="stroke:#58A6FF;stroke-width:1.5;"/></g><g class="participant participant-head" data-participant="RecipeServiceV1"><text fill="#C9D1D9" font-family="sans-serif" font-size="21" lengthAdjust="spacing" textLength="161.0786" x="828.7852" y="181.0928">RecipeServiceV1</text><ellipse cx="913.8245" cy="134.4316" fill="#0D1117" rx="18" ry="18" style="stroke:#58A6FF;stroke-width:0.75;"/><polygon fill="#58A6FF" points="907.8245,116.4316,916.8245,108.9316,913.8245,116.4316,916.8245,123.9316,907.8245,116.4316" style="stroke:#58A6FF;stroke-width:1.5;"/></g><g class="participant participant-tail" data-participant="RecipeServiceV1"><text fill="#C9D1D9" font-family="sans-serif" font-size="21" lengthAdjust="spacing" textLength="161.0786" x="828.7852" y="884.6455">RecipeServiceV1</text><ellipse cx="913.8245" cy="913.916" fill="#0D1117" rx="18" ry="18" style="stroke:#58A6FF;stroke-width:0.75;"/><polygon fill="#58A6FF" points="907.8245,895.916,916.8245,888.416,913.8245,895.916,916.8245,903.416,907.8245,895.916" style="stroke:#58A6FF;stroke-width:1.5;"/></g><g class="participant participant-head" data-participant="database"><text fill="#C9D1D9" font-family="sans-serif" font-size="21" lengthAdjust="spacing" textLength="86.4097" x="1013.8638" y="181.0928">database</text><path d="M1034.5686,104.4316 C1034.5686,89.4316 1061.5686,89.4316 1061.5686,89.4316 C1061.5686,89.4316 1088.5686,89.4316 1088.5686,104.4316 L1088.5686,143.4316 C1088.5686,158.4316 1061.5686,158.4316 1061.5686,158.4316 C1061.5686,158.4316 1034.5686,158.4316 1034.5686,143.4316 L1034.5686,104.4316" fill="#0D1117" style="stroke:#58A6FF;stroke-width:0.75;"/><path d="M1034.5686,104.4316 C1034.5686,119.4316 1061.5686,119.4316 1061.5686,119.4316 C1061.5686,119.4316 1088.5686,119.4316 1088.5686,104.4316" fill="none" style="stroke:#58A6FF;stroke-width:0.75;"/></g><g class="participant participant-tail" data-participant="database"><text fill="#C9D1D9" font-family="sans-serif" font-size="21" lengthAdjust="spacing" textLength="86.4097" x="1013.8638" y="884.6455">database</text><path d="M1034.5686,904.916 C1034.5686,889.916 1061.5686,889.916 1061.5686,889.916 C1061.5686,889.916 1088.5686,889.916 1088.5686,904.916 L1088.5686,943.916 C1088.5686,958.916 1061.5686,958.916 1061.5686,958.916 C1061.5686,958.916 1034.5686,958.916 1034.5686,943.916 L1034.5686,904.916" fill="#0D1117" style="stroke:#58A6FF;stroke-width:0.75;"/><path d="M1034.5686,904.916 C1034.5686,919.916 1061.5686,919.916 1061.5686,919.916 C1061.5686,919.916 1088.5686,919.916 1088.5686,904.916" fill="none" style="stroke:#58A6FF;stroke-width:0.75;"/></g><g class="participant participant-head" data-participant="GlobalExceptionHandler"><text fill="#C9D1D9" font-family="sans-serif" font-size="21" lengthAdjust="spacing" textLength="226.4678" x="1124.2734" y="181.0928">GlobalExceptionHandler</text><ellipse cx="1242.0073" cy="134.4316" fill="#0D1117" rx="18" ry="18" style="stroke:#58A6FF;stroke-width:0.75;"/><polygon fill="#58A6FF" points="1236.0073,116.4316,1245.0073,108.9316,1242.0073,116.4316,1245.0073,123.9316,1236.0073,116.4316" style="stroke:#58A6FF;stroke-width:1.5;"/></g><g class="participant participant-tail" data-participant="GlobalExceptionHandler"><text fill="#C9D1D9" font-family="sans-serif" font-size="21" lengthAdjust="spacing" textLength="226.4678" x="1124.2734" y="884.6455">GlobalExceptionHandler</text><ellipse cx="1242.0073" cy="913.916" fill="#0D1117" rx="18" ry="18" style="stroke:#58A6FF;stroke-width:0.75;"/><polygon fill="#58A6FF" points="1236.0073,895.916,1245.0073,888.416,1242.0073,895.916,1245.0073,903.416,1236.0073,895.916" style="stroke:#58A6FF;stroke-width:1.5;"/></g><g class="message" data-participant-1="Client" data-participant-2="Application"><polygon fill="#58A6FF" points="448.0591,230.2998,463.0591,236.2998,448.0591,242.2998,454.0591,236.2998" style="stroke:#58A6FF;stroke-width:1.5;"/><line style="stroke:#58A6FF;stroke-width:1.5;" x1="71.25" x2="457.0591" y1="236.2998" y2="236.2998"/><text fill="#C9D1D9" font-family="sans-serif" font-size="19.5" font-weight="bold" lengthAdjust="spacing" textLength="10.845" x="157.8047" y="228.4058">1</text><text fill="#C9D1D9" font-family="sans-serif" font-size="19.5" lengthAdjust="spacing" textLength="204.8547" x="174.6497" y="228.4058">GET /api/v1/recipes/{id}</text></g><g class="message" data-participant-1="Application" data-participant-2="RecipeRestControllerV1"><polygon fill="#58A6FF" points="678.6511,277.2363,693.6511,283.2363,678.6511,289.2363,684.6511,283.2363" style="stroke:#58A6FF;stroke-width:1.5;"/><line style="stroke:#58A6FF;stroke-width:1.5;" x1="466.0591" x2="687.6511" y1="283.2363" y2="283.2363"/><text fill="#C9D1D9" font-family="sans-serif" font-size="19.5" font-weight="bold" lengthAdjust="spacing" textLength="10.845" x="500.2932" y="275.3423">2</text><text fill="#C9D1D9" font-family="sans-serif" font-size="19.5" lengthAdjust="spacing" textLength="145.2788" x="517.1382" y="275.3423">delegate request</text></g><g class="message" data-participant-1="RecipeRestControllerV1" data-participant-2="RecipeServiceV1"><polygon fill="#58A6FF" points="895.8245,324.1729,910.8245,330.1729,895.8245,336.1729,901.8245,330.1729" style="stroke:#58A6FF;stroke-width:1.5;"/><line style="stroke:#58A6FF;stroke-width:1.5;" x1="696.6511" x2="904.8245" y1="330.1729" y2="330.1729"/><text fill="#C9D1D9" font-family="sans-serif" font-size="19.5" font-weight="bold" lengthAdjust="spacing" textLength="10.845" x="724.1759" y="322.2788">3</text><text fill="#C9D1D9" font-family="sans-serif" font-size="19.5" lengthAdjust="spacing" textLength="145.2788" x="741.0209" y="322.2788">delegate request</text></g><path d="M921,358.6729 L921,381.1729 A9,9 0 0 0 930,390.1729 L1102.5,390.1729 A9,9 0 0 0 1111.5,381.1729 L1111.5,364.6729 L1096.5,349.6729 L930,349.6729 A9,9 0 0 0 921,358.6729" fill="#1C2330" style="stroke:#E7E7E7;stroke-width:0.75;"/><path d="M1096.5,349.6729 L1096.5,360.1729 A4.5,4.5 0 0 0 1101,364.6729 L1111.5,364.6729 L1096.5,349.6729" fill="#1C2330" style="stroke:#E7E7E7;stroke-width:0.75;"/><text fill="#C9D1D9" font-family="sans-serif" font-size="19.5" lengthAdjust="spacing" textLength="159.3325" x="930" y="378.2153">check id existence</text><path d="M24,408.6094 L105.2563,408.6094 L105.2563,422.5459 L90.2563,437.5459 L15,437.5459 L15,417.6094 A9,9 0 0 1 24,408.6094" fill="#161B22" style="stroke:#30363D;stroke-width:2.25;"/><rect fill="none" height="429.375" rx="9" ry="9" style="stroke:#30363D;stroke-width:2.25;" width="1359.7412" x="15" y="408.6094"/><text fill="#C9D1D9" font-family="sans-serif" font-size="19.5" font-weight="bold" lengthAdjust="spacing" textLength="22.7563" x="37.5" y="431.1519">alt</text><text fill="#C9D1D9" font-family="sans-serif" font-size="16.5" font-weight="bold" lengthAdjust="spacing" textLength="77.0215" x="127.7563" y="429.4146">[id exists]</text><g class="message" data-participant-1="database" data-participant-2="RecipeServiceV1"><polygon fill="#58A6FF" points="930.3245,466.4824,915.3245,472.4824,930.3245,478.4824,924.3245,472.4824" style="stroke:#58A6FF;stroke-width:1.5;"/><line style="stroke:#58A6FF;stroke-width:1.5;" x1="921.3245" x2="1060.0686" y1="472.4824" y2="472.4824"/><text fill="#C9D1D9" font-family="sans-serif" font-size="19.5" font-weight="bold" lengthAdjust="spacing" textLength="10.845" x="952.7186" y="464.5884">4</text><text fill="#C9D1D9" font-family="sans-serif" font-size="19.5" lengthAdjust="spacing" textLength="53.1108" x="969.5636" y="464.5884">recipe</text></g><g class="message" data-participant-1="RecipeServiceV1" data-participant-2="RecipeRestControllerV1"><polygon fill="#58A6FF" points="713.1511,513.4189,698.1511,519.4189,713.1511,525.4189,707.1511,519.4189" style="stroke:#58A6FF;stroke-width:1.5;"/><line style="stroke:#58A6FF;stroke-width:1.5;" x1="704.1511" x2="912.3245" y1="519.4189" y2="519.4189"/><text fill="#C9D1D9" font-family="sans-serif" font-size="19.5" font-weight="bold" lengthAdjust="spacing" textLength="10.845" x="770.2599" y="511.5249">5</text><text fill="#C9D1D9" font-family="sans-serif" font-size="19.5" lengthAdjust="spacing" textLength="53.1108" x="787.1049" y="511.5249">recipe</text></g><g class="message" data-participant-1="RecipeRestControllerV1" data-participant-2="Application"><polygon fill="#58A6FF" points="482.5591,560.3555,467.5591,566.3555,482.5591,572.3555,476.5591,566.3555" style="stroke:#58A6FF;stroke-width:1.5;"/><line style="stroke:#58A6FF;stroke-width:1.5;" x1="473.5591" x2="695.1511" y1="566.3555" y2="566.3555"/><text fill="#C9D1D9" font-family="sans-serif" font-size="19.5" font-weight="bold" lengthAdjust="spacing" textLength="10.845" x="522.0022" y="558.4614">6</text><text fill="#C9D1D9" font-family="sans-serif" font-size="19.5" lengthAdjust="spacing" textLength="101.8608" x="538.8472" y="558.4614">RecipeDTO</text></g><g class="message" data-participant-1="Application" data-participant-2="Client"><polygon fill="#58A6FF" points="87.75,607.292,72.75,613.292,87.75,619.292,81.75,613.292" style="stroke:#58A6FF;stroke-width:1.5;"/><line style="stroke:#58A6FF;stroke-width:1.5;" x1="78.75" x2="464.5591" y1="613.292" y2="613.292"/><text fill="#C9D1D9" font-family="sans-serif" font-size="19.5" font-weight="bold" lengthAdjust="spacing" textLength="10.845" x="158.6331" y="605.3979">7</text><text fill="#C9D1D9" font-family="sans-serif" font-size="19.5" lengthAdjust="spacing" textLength="203.198" x="175.478" y="605.3979">OK (200) + RecipeDTO</text></g><line style="stroke:#30363D;stroke-width:1.5;stroke-dasharray:3,3;" x1="15" x2="1374.7412" y1="626.792" y2="626.792"/><text fill="#C9D1D9" font-family="sans-serif" font-size="16.5" font-weight="bold" lengthAdjust="spacing" textLength="130.437" x="22.5" y="644.5972">[id doesn't exist]</text><g class="message" data-participant-1="RecipeServiceV1" data-participant-2="GlobalExceptionHandler"><polygon fill="#58A6FF" points="1224.0073,679.1748,1239.0073,685.1748,1224.0073,691.1748,1230.0073,685.1748" style="stroke:#58A6FF;stroke-width:1.5;"/><line style="stroke:#58A6FF;stroke-width:1.5;" x1="913.8245" x2="1233.0073" y1="685.1748" y2="685.1748"/><text fill="#C9D1D9" font-family="sans-serif" font-size="19.5" font-weight="bold" lengthAdjust="spacing" textLength="10.845" x="1027.756" y="677.2808">8</text><text fill="#C9D1D9" font-family="sans-serif" font-size="19.5" lengthAdjust="spacing" textLength="83.4749" x="1044.601" y="677.2808">exception</text></g><g class="message" data-participant-1="GlobalExceptionHandler" data-participant-2="RecipeRestControllerV1"><polygon fill="#58A6FF" points="713.1511,726.1113,698.1511,732.1113,713.1511,738.1113,707.1511,732.1113" style="stroke:#58A6FF;stroke-width:1.5;"/><line style="stroke:#58A6FF;stroke-width:1.5;" x1="704.1511" x2="1240.5073" y1="732.1113" y2="732.1113"/><text fill="#C9D1D9" font-family="sans-serif" font-size="19.5" font-weight="bold" lengthAdjust="spacing" textLength="10.845" x="877.4557" y="724.2173">9</text><text fill="#C9D1D9" font-family="sans-serif" font-size="19.5" lengthAdjust="spacing" textLength="166.9021" x="894.3007" y="724.2173">ErrorHttpResponse</text></g><g class="message" data-participant-1="RecipeRestControllerV1" data-participant-2="Application"><polygon fill="#58A6FF" points="482.5591,773.0479,467.5591,779.0479,482.5591,785.0479,476.5591,779.0479" style="stroke:#58A6FF;stroke-width:1.5;"/><line style="stroke:#58A6FF;stroke-width:1.5;" x1="473.5591" x2="695.1511" y1="779.0479" y2="779.0479"/><text fill="#C9D1D9" font-family="sans-serif" font-size="19.5" font-weight="bold" lengthAdjust="spacing" textLength="21.6899" x="484.0591" y="771.1538">10</text><text fill="#C9D1D9" font-family="sans-serif" font-size="19.5" lengthAdjust="spacing" textLength="166.9021" x="511.749" y="771.1538">ErrorHttpResponse</text></g><g class="message" data-participant-1="Application" data-participant-2="Client"><polygon fill="#58A6FF" points="87.75,819.9844,72.75,825.9844,87.75,831.9844,81.75,825.9844" style="stroke:#58A6FF;stroke-width:1.5;"/><line style="stroke:#58A6FF;stroke-width:1.5;" x1="78.75" x2="464.5591" y1="825.9844" y2="825.9844"/><text fill="#C9D1D9" font-family="sans-serif" font-size="19.5" font-weight="bold" lengthAdjust="spacing" textLength="21.6899" x="89.25" y="818.0903">11</text><text fill="#C9D1D9" font-family="sans-serif" font-size="19.5" lengthAdjust="spacing" textLength="331.1191" x="116.9399" y="818.0903">Not Found (404) + ErrorHttpResponse</text></g><!--SRC=[bLHTRzem57tFhxZI7jPfgaYWfHyFau00bTQkKq5zDyubM1WxiqsXglhVPoSXSqD2DUK5SiyvzvxZ-1fcEC8K3JmXPHd2ESpmpnO5nI0WMoF5ThD05GHwpKH65Dd0Wj1rgkHM92F9fO8luJYAeYiFeLSaaJicKbWIhj6hv3GgbK05KTSh91c3g1_wVNGv1xm500-eDKbnm5agWA8mTYQ0WL9oLqvnUJteJoRsvJrRuZqJE9GgGLLMUs6ltulzQjr5r8-6tQuJfKQg3-HAkYWT-Ozp_m13kMzkwWejh7VVyjoTnaGAKs96Dt4KttY0mzbChLBMrAiDskBs7_oND0sPZBgzNbX7-Mt7L-wf8Jm7aqltUFKymfbvjLyTsQ6M6__pY759jjmS9-1XXcu-ebwRJgW1rHAx1ntPRahoqte7qEToCJ5aGJIUrgjGdml-9iemUpU9CASrVM2RB77nmuWpUuM2HHaI3BACCqeCaoAWXTDo7poXDgLtZkevgfLdg5uOHVi-AGt1uKU5d7Av87oyfvYv1dT49Dnjb688EF_XjuTRc8xdq24Pwxn47PLtqPqtbhm7FioocWUq0WboJ8b1KEuAQ1Eq82kDoaKJMKZtXwKh0t9vP9kkaAw19O1xfas-Db4au4WsR6wgahPh0AfmcdiNRdDWlNZAxn6joUd7Z0jSF7_CMRLWouEvXSUVSDODms_mtIEWtUZELI9HYw-cSDSsS_FPMsaylCgPBR1JfiTszQixOp9RowJG_-U_cTsMWzrfC75t1SukmWiNnp7VdlfV]--></g></svg>