<svg xmlns="http://www.w3.org/2000/svg" contentStyleType="text/css" data-diagram-type="SEQUENCE" height="718.5px"
     preserveAspectRatio="none" style="width:1306px;height:718px;background:#0E1117;" version="1.1"
     viewBox="0 0 1306 718" width="1306.5px" zoomAndPan="magnify"><title>Get all Recipes - Sequence</title><defs/><g><rect fill="#0E1117" height="718.5" style="stroke:none;stroke-width:1.5;" width="1306.5" x="0" y="0"/><text fill="#C9D1D9" font-family="sans-serif" font-size="21" font-weight="bold" lengthAdjust="spacing" textLength="268.437" x="519.887" y="45.1611">Get all Recipes - Sequence</text><g><title>Client</title><rect fill="#000000" fill-opacity="0.00000" height="405.4922" width="12" x="42.75" y="186.3633"/><line style="stroke:#30363D;stroke-width:0.75;stroke-dasharray:7.5,7.5;" x1="48" x2="48" y1="186.3633" y2="591.8555"/></g><g><title>Application</title><rect fill="#000000" fill-opacity="0.00000" height="405.4922" width="12" x="461.3533" y="186.3633"/><line style="stroke:#30363D;stroke-width:0.75;stroke-dasharray:7.5,7.5;" x1="466.9863" x2="466.9863" y1="186.3633" y2="591.8555"/></g><g><title>RecipeRestControllerV1</title><rect fill="#000000" fill-opacity="0.00000" height="405.4922" width="12" x="778.6194" y="186.3633"/><line style="stroke:#30363D;stroke-width:0.75;stroke-dasharray:7.5,7.5;" x1="784.4854" x2="784.4854" y1="186.3633" y2="591.8555"/></g><g><title>RecipeServiceV1</title><rect fill="#000000" fill-opacity="0.00000" height="405.4922" width="12" x="1013.5627" y="186.3633"/><line style="stroke:#30363D;stroke-width:0.75;stroke-dasharray:7.5,7.5;" x1="1018.5234" x2="1018.5234" y1="186.3633" y2="591.8555"/></g><g><title>database</title><rect fill="#000000" fill-opacity="0.00000" height="405.4922" width="12" x="1248.5061" y="186.3633"/><line style="stroke:#30363D;stroke-width:0.75;stroke-dasharray:7.5,7.5;" x1="1253.3013" x2="1253.3013" y1="186.3633" y2="591.8555"/></g><g class="participant participant-head" data-participant="Client"><text fill="#C9D1D9" font-family="sans-serif" font-size="21" lengthAdjust="spacing" textLength="53.6895" x="17.4053" y="181.0928">Client</text><ellipse cx="48.75" cy="91.6816" fill="#0D1117" rx="24" ry="24" style="stroke:#58A6FF;stroke-width:0.75;"/><path d="M48.75,121.6816 C54.75,121.6816 59.25,121.6816 65.25,115.6816 C77.25,115.6816 89.25,127.6816 89.25,139.6816 L89.25,145.6816 C89.25,151.6816 83.25,157.6816 77.25,157.6816 L20.25,157.6816 C14.25,157.6816 8.25,151.6816 8.25,145.6816 L8.25,139.6816 C8.25,127.6816 20.25,115.6816 32.25,115.6816 C38.25,121.6816 42.75,121.6816 48.75,121.6816" fill="#0D1117" style="stroke:#58A6FF;stroke-width:0.75;"/></g><g class="participant participant-tail" data-participant="Client"><text fill="#C9D1D9" font-family="sans-serif" font-size="21" lengthAdjust="spacing" textLength="53.6895" x="17.4053" y="613.0166">Client</text><ellipse cx="48.75" cy="643.0371" fill="#0D1117" rx="24" ry="24" style="stroke:#58A6FF;stroke-width:0.75;"/><path d="M48.75,673.0371 C54.75,673.0371 59.25,673.0371 65.25,667.0371 C77.25,667.0371 89.25,679.0371 89.25,691.0371 L89.25,697.0371 C89.25,703.0371 83.25,709.0371 77.25,709.0371 L20.25,709.0371 C14.25,709.0371 8.25,703.0371 8.25,697.0371 L8.25,691.0371 C8.25,679.0371 20.25,667.0371 32.25,667.0371 C38.25,673.0371 42.75,673.0371 48.75,673.0371" fill="#0D1117" style="stroke:#58A6FF;stroke-width:0.75;"/></g><g class="participant participant-head" data-participant="Application"><text fill="#C9D1D9" font-family="sans-serif" font-size="21" lengthAdjust="spacing" textLength="102.7339" x="411.4863" y="181.0928">Application</text><path d="M436.6033,116.4316 L436.6033,152.4316 M436.6033,134.4316 L462.1033,134.4316" fill="none" style="stroke:#58A6FF;stroke-width:0.75;"/><ellipse cx="480.1033" cy="134.4316" fill="#0D1117" rx="18" ry="18" style="stroke:#58A6FF;stroke-width:0.75;"/></g><g class="participant participant-tail" data-participant="Application"><text fill="#C9D1D9" font-family="sans-serif" font-size="21" lengthAdjust="spacing" textLength="102.7339" x="411.4863" y="613.0166">Application</text><path d="M436.6033,624.2871 L436.6033,660.2871 M436.6033,642.2871 L462.1033,642.2871" fill="none" style="stroke:#58A6FF;stroke-width:0.75;"/><ellipse cx="480.1033" cy="642.2871" fill="#0D1117" rx="18" ry="18" style="stroke:#58A6FF;stroke-width:0.75;"/></g><g class="participant participant-head" data-participant="RecipeRestControllerV1"><text fill="#C9D1D9" font-family="sans-serif" font-size="21" lengthAdjust="spacing" textLength="225.2681" x="667.4854" y="181.0928">RecipeRestControllerV1</text><ellipse cx="784.6194" cy="134.4316" fill="#0D1117" rx="18" ry="18" style="stroke:#58A6FF;stroke-width:0.75;"/><polygon fill="#58A6FF" points="778.6194,116.4316,787.6194,108.9316,784.6194,116.4316,787.6194,123.9316,778.6194,116.4316" style="stroke:#58A6FF;stroke-width:1.5;"/></g><g class="participant participant-tail" data-participant="RecipeRestControllerV1"><text fill="#C9D1D9" font-family="sans-serif" font-size="21" lengthAdjust="spacing" textLength="225.2681" x="667.4854" y="613.0166">RecipeRestControllerV1</text><ellipse cx="784.6194" cy="642.2871" fill="#0D1117" rx="18" ry="18" style="stroke:#58A6FF;stroke-width:0.75;"/><polygon fill="#58A6FF" points="778.6194,624.2871,787.6194,616.7871,784.6194,624.2871,787.6194,631.7871,778.6194,624.2871" style="stroke:#58A6FF;stroke-width:1.5;"/></g><g class="participant participant-head" data-participant="RecipeServiceV1"><text fill="#C9D1D9" font-family="sans-serif" font-size="21" lengthAdjust="spacing" textLength="161.0786" x="934.5234" y="181.0928">RecipeServiceV1</text><ellipse cx="1019.5627" cy="134.4316" fill="#0D1117" rx="18" ry="18" style="stroke:#58A6FF;stroke-width:0.75;"/><polygon fill="#58A6FF" points="1013.5627,116.4316,1022.5627,108.9316,1019.5627,116.4316,1022.5627,123.9316,1013.5627,116.4316" style="stroke:#58A6FF;stroke-width:1.5;"/></g><g class="participant participant-tail" data-participant="RecipeServiceV1"><text fill="#C9D1D9" font-family="sans-serif" font-size="21" lengthAdjust="spacing" textLength="161.0786" x="934.5234" y="613.0166">RecipeServiceV1</text><ellipse cx="1019.5627" cy="642.2871" fill="#0D1117" rx="18" ry="18" style="stroke:#58A6FF;stroke-width:0.75;"/><polygon fill="#58A6FF" points="1013.5627,624.2871,1022.5627,616.7871,1019.5627,624.2871,1022.5627,631.7871,1013.5627,624.2871" style="stroke:#58A6FF;stroke-width:1.5;"/></g><g class="participant participant-head" data-participant="database"><text fill="#C9D1D9" font-family="sans-serif" font-size="21" lengthAdjust="spacing" textLength="86.4097" x="1206.8013" y="181.0928">database</text><path d="M1227.5061,104.4316 C1227.5061,89.4316 1254.5061,89.4316 1254.5061,89.4316 C1254.5061,89.4316 1281.5061,89.4316 1281.5061,104.4316 L1281.5061,143.4316 C1281.5061,158.4316 1254.5061,158.4316 1254.5061,158.4316 C1254.5061,158.4316 1227.5061,158.4316 1227.5061,143.4316 L1227.5061,104.4316" fill="#0D1117" style="stroke:#58A6FF;stroke-width:0.75;"/><path d="M1227.5061,104.4316 C1227.5061,119.4316 1254.5061,119.4316 1254.5061,119.4316 C1254.5061,119.4316 1281.5061,119.4316 1281.5061,104.4316" fill="none" style="stroke:#58A6FF;stroke-width:0.75;"/></g><g class="participant participant-tail" data-participant="database"><text fill="#C9D1D9" font-family="sans-serif" font-size="21" lengthAdjust="spacing" textLength="86.4097" x="1206.8013" y="613.0166">database</text><path d="M1227.5061,633.2871 C1227.5061,618.2871 1254.5061,618.2871 1254.5061,618.2871 C1254.5061,618.2871 1281.5061,618.2871 1281.5061,633.2871 L1281.5061,672.2871 C1281.5061,687.2871 1254.5061,687.2871 1254.5061,687.2871 C1254.5061,687.2871 1227.5061,687.2871 1227.5061,672.2871 L1227.5061,633.2871" fill="#0D1117" style="stroke:#58A6FF;stroke-width:0.75;"/><path d="M1227.5061,633.2871 C1227.5061,648.2871 1254.5061,648.2871 1254.5061,648.2871 C1254.5061,648.2871 1281.5061,648.2871 1281.5061,633.2871" fill="none" style="stroke:#58A6FF;stroke-width:0.75;"/></g><g class="message" data-participant-1="Client" data-participant-2="Application"><polygon fill="#58A6FF" points="449.3533,230.2998,464.3533,236.2998,449.3533,242.2998,455.3533,236.2998" style="stroke:#58A6FF;stroke-width:1.5;"/><line style="stroke:#58A6FF;stroke-width:1.5;" x1="48.75" x2="458.3533" y1="236.2998" y2="236.2998"/><text fill="#C9D1D9" font-family="sans-serif" font-size="19.5" font-weight="bold" lengthAdjust="spacing" textLength="10.845" x="164.012" y="228.4058">1</text><text fill="#C9D1D9" font-family="sans-serif" font-size="19.5" lengthAdjust="spacing" textLength="171.2344" x="180.8569" y="228.4058">GET /api/v1/recipes</text></g><g class="message" data-participant-1="Application" data-participant-2="RecipeRestControllerV1"><polygon fill="#58A6FF" points="766.6194,277.2363,781.6194,283.2363,766.6194,289.2363,772.6194,283.2363" style="stroke:#58A6FF;stroke-width:1.5;"/><line style="stroke:#58A6FF;stroke-width:1.5;" x1="467.3533" x2="775.6194" y1="283.2363" y2="283.2363"/><text fill="#C9D1D9" font-family="sans-serif" font-size="19.5" font-weight="bold" lengthAdjust="spacing" textLength="10.845" x="544.9244" y="275.3423">2</text><text fill="#C9D1D9" font-family="sans-serif" font-size="19.5" lengthAdjust="spacing" textLength="145.2788" x="561.7694" y="275.3423">delegate request</text></g><g class="message" data-participant-1="RecipeRestControllerV1" data-participant-2="RecipeServiceV1"><polygon fill="#58A6FF" points="1001.5627,324.1729,1016.5627,330.1729,1001.5627,336.1729,1007.5627,330.1729" style="stroke:#58A6FF;stroke-width:1.5;"/><line style="stroke:#58A6FF;stroke-width:1.5;" x1="784.6194" x2="1010.5627" y1="330.1729" y2="330.1729"/><text fill="#C9D1D9" font-family="sans-serif" font-size="19.5" font-weight="bold" lengthAdjust="spacing" textLength="10.845" x="821.0292" y="322.2788">3</text><text fill="#C9D1D9" font-family="sans-serif" font-size="19.5" lengthAdjust="spacing" textLength="145.2788" x="837.8741" y="322.2788">delegate request</text></g><g class="message" data-participant-1="RecipeServiceV1" data-participant-2="database"><polygon fill="#58A6FF" points="1236.5061,371.1094,1251.5061,377.1094,1236.5061,383.1094,1242.5061,377.1094" style="stroke:#58A6FF;stroke-width:1.5;"/><line style="stroke:#58A6FF;stroke-width:1.5;" x1="1019.5627" x2="1245.5061" y1="377.1094" y2="377.1094"/><text fill="#C9D1D9" font-family="sans-serif" font-size="19.5" font-weight="bold" lengthAdjust="spacing" textLength="10.845" x="1095.0106" y="369.2153">4</text><text fill="#C9D1D9" font-family="sans-serif" font-size="19.5" lengthAdjust="spacing" textLength="67.2026" x="1111.8556" y="369.2153">fetch all</text></g><g class="message" data-participant-1="database" data-participant-2="RecipeServiceV1"><polygon fill="#58A6FF" points="1036.0627,418.0459,1021.0627,424.0459,1036.0627,430.0459,1030.0627,424.0459" style="stroke:#58A6FF;stroke-width:1.5;"/><line style="stroke:#58A6FF;stroke-width:1.5;" x1="1027.0627" x2="1253.0061" y1="424.0459" y2="424.0459"/><text fill="#C9D1D9" font-family="sans-serif" font-size="19.5" font-weight="bold" lengthAdjust="spacing" textLength="10.845" x="1037.5627" y="416.1519">5</text><text fill="#C9D1D9" font-family="sans-serif" font-size="19.5" lengthAdjust="spacing" textLength="182.0984" x="1054.4077" y="416.1519">List&lt;Recipe&gt; recipes</text></g><g class="message" data-participant-1="RecipeServiceV1" data-participant-2="RecipeRestControllerV1"><polygon fill="#58A6FF" points="801.1194,464.9824,786.1194,470.9824,801.1194,476.9824,795.1194,470.9824" style="stroke:#58A6FF;stroke-width:1.5;"/><line style="stroke:#58A6FF;stroke-width:1.5;" x1="792.1194" x2="1018.0627" y1="470.9824" y2="470.9824"/><text fill="#C9D1D9" font-family="sans-serif" font-size="19.5" font-weight="bold" lengthAdjust="spacing" textLength="10.845" x="802.6194" y="463.0884">6</text><text fill="#C9D1D9" font-family="sans-serif" font-size="19.5" lengthAdjust="spacing" textLength="182.0984" x="819.4644" y="463.0884">List&lt;Recipe&gt; recipes</text></g><g class="message" data-participant-1="RecipeRestControllerV1" data-participant-2="Application"><polygon fill="#58A6FF" points="483.8533,511.9189,468.8533,517.9189,483.8533,523.9189,477.8533,517.9189" style="stroke:#58A6FF;stroke-width:1.5;"/><line style="stroke:#58A6FF;stroke-width:1.5;" x1="474.8533" x2="783.1194" y1="517.9189" y2="517.9189"/><text fill="#C9D1D9" font-family="sans-serif" font-size="19.5" font-weight="bold" lengthAdjust="spacing" textLength="10.845" x="485.3533" y="510.0249">7</text><text fill="#C9D1D9" font-family="sans-serif" font-size="19.5" lengthAdjust="spacing" textLength="264.4211" x="502.1982" y="510.0249">List&lt;RecipeDTO&gt; recipeDTOs</text></g><g class="message" data-participant-1="Application" data-participant-2="Client"><polygon fill="#58A6FF" points="65.25,558.8555,50.25,564.8555,65.25,570.8555,59.25,564.8555" style="stroke:#58A6FF;stroke-width:1.5;"/><line style="stroke:#58A6FF;stroke-width:1.5;" x1="56.25" x2="465.8533" y1="564.8555" y2="564.8555"/><text fill="#C9D1D9" font-family="sans-serif" font-size="19.5" font-weight="bold" lengthAdjust="spacing" textLength="10.845" x="66.75" y="556.9614">8</text><text fill="#C9D1D9" font-family="sans-serif" font-size="19.5" lengthAdjust="spacing" textLength="365.7583" x="83.595" y="556.9614">OK (200) + List&lt;RecipeDTO&gt; recipeDTOs</text></g><!--SRC=[XLJBRjim4BppAnRe9KKHM0_4QOmWW2tPFjHjYjZedPRM2X6QL4agRb3qtqjP3pEsf80NWZipkxDBqZ334PPeW78EJvYm73LSmnf_5oWI98GMHefYlqL5Y7vX8gUAxc5BavTCoKAaaUHImITlxll-hOFGppIL1oOos56kqOaSQObK0XNuWHD8SmR-s7FpwBeE-4i0lgFMDCCfPvc018MnDG5CbPA7kegRhzFnOc4FLso7AoPm9bMAgew6NZWEOpTwxi8V-xCWA4KJ8zKxSYjTXIxynqV_03Fvfpjf6UXX_NCjRygHBAGmDIQwY_tupW4qirbQfRmhLn-qn-q9_aEQZfv4GHXwvoWtxVosN6S8ny7YfbnE_DZ2jNcpLuyUKCkzUprYtD62cyiEE9XPMHzLRrqJwa3rjDs1HZQRadnOhm5zB1TJGxTKux1UY_fOy2TLXjd7IOKPrdI1VRAqR3z4dDadHBPras2Qvvmbr30fI58vhJ-49zIczivH_VBFmcjKhon1UvxMXg3P459bWUi7Lnyci9nlO4HpDdhrHwhwTeYBi8Jkv9QR8iUC6WHLNczjI0-orMWhx2UV89RL-fZ03atoN7wE9tETiYkcpNrr_02DeGxfNbC30bt6tdVJ8SURnuPljnTDhUSnWSTlS1LutcVuCi3-3m00]--></g></svg>