<svg xmlns="http://www.w3.org/2000/svg" contentStyleType="text/css" data-diagram-type="CLASS" height="1085px"
     preserveAspectRatio="none" style="width:2350px;height:1085px;background:#1E1E1E;" version="1.1"
     viewBox="0 0 2350 1085" width="2350px" zoomAndPan="magnify"><defs/><g><rect fill="#1E1E1E" height="1085" style="stroke:none;stroke-width:1;" width="2350" x="0" y="0"/><!--class Mapper--><g class="entity" data-entity="Mapper" data-source-line="17" data-uid="ent0002" id="entity_Mapper"><rect fill="#2D2D2D" height="66.6211" rx="2.5" ry="2.5" style="stroke:#8A8A8A;stroke-width:0.5;" width="270.3301" x="760.5" y="10"/><ellipse cx="825.9951" cy="26" fill="#B4A7E5" rx="11" ry="11" style="stroke:#181818;stroke-width:1;"/><path d="M826.9482,22.6406 L826.9482,29.2969 L828.667,29.2969 Q829.2764,29.2969 829.542,29.5313 Q829.8076,29.7656 829.8076,30.1563 Q829.8076,30.5313 829.542,30.7656 Q829.2764,31 828.667,31 L823.5264,31 Q822.917,31 822.6514,30.7656 Q822.3857,30.5313 822.3857,30.1406 Q822.3857,29.7656 822.6514,29.5313 Q822.917,29.2969 823.5264,29.2969 L825.2451,29.2969 L825.2451,22.6406 L823.5264,22.6406 Q822.917,22.6406 822.6514,22.4063 Q822.3857,22.1719 822.3857,21.7813 Q822.3857,21.4063 822.6514,21.1719 Q822.917,20.9375 823.5264,20.9375 L828.667,20.9375 Q829.2764,20.9375 829.542,21.1719 Q829.8076,21.4063 829.8076,21.7813 Q829.8076,22.1719 829.542,22.4063 Q829.2764,22.6406 828.667,22.6406 L826.9482,22.6406 Z " fill="#000000"/><text fill="#E0E0E0" font-family="sans-serif" font-size="14" font-style="italic" lengthAdjust="spacing" textLength="47.4688" x="846.4951" y="31.7969">Mapper</text><rect fill="#2D2D2D" height="17.9609" style="stroke:#8A8A8A;stroke-width:1;stroke-dasharray:2,2;" width="81.3711" x="952.459" y="7"/><text fill="#000000" font-family="sans-serif" font-size="12" font-style="italic" lengthAdjust="spacing" textLength="79.3711" x="953.459" y="20.9492">Source, Target</text><line style="stroke:#8A8A8A;stroke-width:0.5;" x1="761.5" x2="1029.8301" y1="42" y2="42"/><line style="stroke:#8A8A8A;stroke-width:0.5;" x1="761.5" x2="1029.8301" y1="50" y2="50"/><ellipse cx="771.5" cy="64.8105" fill="#84BE84" rx="3" ry="3" style="stroke:#038048;stroke-width:1;"/><text fill="#FFFFFF" font-family="sans-serif" font-size="14" lengthAdjust="spacing" textLength="244.3301" x="780.5" y="69.1074">void map(Source source, Target target)</text></g><!--class ToEntityMapper--><g class="entity" data-entity="ToEntityMapper" data-source-line="17" data-uid="ent0003" id="entity_ToEntityMapper"><rect fill="#2D2D2D" height="66.6211" rx="2.5" ry="2.5" style="stroke:#8A8A8A;stroke-width:0.5;" width="229.082" x="254" y="10"/><ellipse cx="277.8022" cy="26" fill="#B4A7E5" rx="11" ry="11" style="stroke:#181818;stroke-width:1;"/><path d="M278.7554,22.6406 L278.7554,29.2969 L280.4741,29.2969 Q281.0835,29.2969 281.3491,29.5313 Q281.6147,29.7656 281.6147,30.1563 Q281.6147,30.5313 281.3491,30.7656 Q281.0835,31 280.4741,31 L275.3335,31 Q274.7241,31 274.4585,30.7656 Q274.1929,30.5313 274.1929,30.1406 Q274.1929,29.7656 274.4585,29.5313 Q274.7241,29.2969 275.3335,29.2969 L277.0522,29.2969 L277.0522,22.6406 L275.3335,22.6406 Q274.7241,22.6406 274.4585,22.4063 Q274.1929,22.1719 274.1929,21.7813 Q274.1929,21.4063 274.4585,21.1719 Q274.7241,20.9375 275.3335,20.9375 L280.4741,20.9375 Q281.0835,20.9375 281.3491,21.1719 Q281.6147,21.4063 281.6147,21.7813 Q281.6147,22.1719 281.3491,22.4063 Q281.0835,22.6406 280.4741,22.6406 L278.7554,22.6406 Z " fill="#000000"/><text fill="#E0E0E0" font-family="sans-serif" font-size="14" font-style="italic" lengthAdjust="spacing" textLength="98.8203" x="293.7583" y="31.7969">ToEntityMapper</text><rect fill="#2D2D2D" height="17.9609" style="stroke:#8A8A8A;stroke-width:1;stroke-dasharray:2,2;" width="76.7012" x="409.3809" y="7"/><text fill="#000000" font-family="sans-serif" font-size="12" font-style="italic" lengthAdjust="spacing" textLength="74.7012" x="410.3809" y="20.9492">Source, Entity</text><line style="stroke:#8A8A8A;stroke-width:0.5;" x1="255" x2="482.082" y1="42" y2="42"/><line style="stroke:#8A8A8A;stroke-width:0.5;" x1="255" x2="482.082" y1="50" y2="50"/><text fill="#FFFFFF" font-family="sans-serif" font-size="14" lengthAdjust="spacing" textLength="217.082" x="260" y="69.1074">Entity mapToEntity(Source source)</text></g><!--class LongIdValidator--><g class="entity" data-entity="LongIdValidator" data-source-line="17" data-uid="ent0004" id="entity_LongIdValidator"><rect fill="#2D2D2D" height="66.6211" rx="2.5" ry="2.5" style="stroke:#8A8A8A;stroke-width:0.5;" width="271.9434" x="292.5" y="848"/><ellipse cx="375.1841" cy="864" fill="#B4A7E5" rx="11" ry="11" style="stroke:#181818;stroke-width:1;"/><path d="M376.1372,860.6406 L376.1372,867.2969 L377.856,867.2969 Q378.4653,867.2969 378.731,867.5313 Q378.9966,867.7656 378.9966,868.1563 Q378.9966,868.5313 378.731,868.7656 Q378.4653,869 377.856,869 L372.7153,869 Q372.106,869 371.8403,868.7656 Q371.5747,868.5313 371.5747,868.1406 Q371.5747,867.7656 371.8403,867.5313 Q372.106,867.2969 372.7153,867.2969 L374.4341,867.2969 L374.4341,860.6406 L372.7153,860.6406 Q372.106,860.6406 371.8403,860.4063 Q371.5747,860.1719 371.5747,859.7813 Q371.5747,859.4063 371.8403,859.1719 Q372.106,858.9375 372.7153,858.9375 L377.856,858.9375 Q378.4653,858.9375 378.731,859.1719 Q378.9966,859.4063 378.9966,859.7813 Q378.9966,860.1719 378.731,860.4063 Q378.4653,860.6406 377.856,860.6406 L376.1372,860.6406 Z " fill="#000000"/><text fill="#E0E0E0" font-family="sans-serif" font-size="14" font-style="italic" lengthAdjust="spacing" textLength="98.0752" x="395.6841" y="869.7969">LongIdValidator</text><line style="stroke:#8A8A8A;stroke-width:0.5;" x1="293.5" x2="563.4434" y1="880" y2="880"/><line style="stroke:#8A8A8A;stroke-width:0.5;" x1="293.5" x2="563.4434" y1="888" y2="888"/><ellipse cx="303.5" cy="902.8105" fill="#84BE84" rx="3" ry="3" style="stroke:#038048;stroke-width:1;"/><text fill="#FFFFFF" font-family="sans-serif" font-size="14" lengthAdjust="spacing" textLength="245.9434" x="312.5" y="907.1074">boolean isValid(HasLongId hasLongId))</text></g><!--class Validator--><g class="entity" data-entity="Validator" data-source-line="18" data-uid="ent0005" id="entity_Validator"><rect fill="#2D2D2D" height="66.6211" rx="2.5" ry="2.5" style="stroke:#8A8A8A;stroke-width:0.5;" width="254.0127" x="1169.5" y="693.5"/><ellipse cx="1236.6162" cy="709.5" fill="#B4A7E5" rx="11" ry="11" style="stroke:#181818;stroke-width:1;"/><path d="M1237.5693,706.1406 L1237.5693,712.7969 L1239.2881,712.7969 Q1239.8975,712.7969 1240.1631,713.0313 Q1240.4287,713.2656 1240.4287,713.6563 Q1240.4287,714.0313 1240.1631,714.2656 Q1239.8975,714.5 1239.2881,714.5 L1234.1475,714.5 Q1233.5381,714.5 1233.2725,714.2656 Q1233.0068,714.0313 1233.0068,713.6406 Q1233.0068,713.2656 1233.2725,713.0313 Q1233.5381,712.7969 1234.1475,712.7969 L1235.8662,712.7969 L1235.8662,706.1406 L1234.1475,706.1406 Q1233.5381,706.1406 1233.2725,705.9063 Q1233.0068,705.6719 1233.0068,705.2813 Q1233.0068,704.9063 1233.2725,704.6719 Q1233.5381,704.4375 1234.1475,704.4375 L1239.2881,704.4375 Q1239.8975,704.4375 1240.1631,704.6719 Q1240.4287,704.9063 1240.4287,705.2813 Q1240.4287,705.6719 1240.1631,705.9063 Q1239.8975,706.1406 1239.2881,706.1406 L1237.5693,706.1406 Z " fill="#000000"/><text fill="#E0E0E0" font-family="sans-serif" font-size="14" font-style="italic" lengthAdjust="spacing" textLength="55.2549" x="1257.1162" y="715.2969">Validator</text><rect fill="#2D2D2D" height="17.9609" style="stroke:#8A8A8A;stroke-width:1;stroke-dasharray:2,2;" width="54.0254" x="1372.4873" y="690.5"/><text fill="#000000" font-family="sans-serif" font-size="12" font-style="italic" lengthAdjust="spacing" textLength="52.0254" x="1373.4873" y="704.4492">Argument</text><line style="stroke:#8A8A8A;stroke-width:0.5;" x1="1170.5" x2="1422.5127" y1="725.5" y2="725.5"/><line style="stroke:#8A8A8A;stroke-width:0.5;" x1="1170.5" x2="1422.5127" y1="733.5" y2="733.5"/><ellipse cx="1180.5" cy="748.3105" fill="#84BE84" rx="3" ry="3" style="stroke:#038048;stroke-width:1;"/><text fill="#FFFFFF" font-family="sans-serif" font-size="14" lengthAdjust="spacing" textLength="228.0127" x="1189.5" y="752.6074">boolean isValid(Argument argument)</text></g><!--class PositiveLongIdValidator--><g class="entity" data-entity="PositiveLongIdValidator" data-source-line="21" data-uid="ent0007" id="entity_PositiveLongIdValidator"><rect fill="#2D2D2D" height="85.2422" rx="2.5" ry="2.5" style="stroke:#8A8A8A;stroke-width:0.5;" width="309.3086" x="274" y="984.5"/><ellipse cx="350.8564" cy="1000.5" fill="#ADD1B2" rx="11" ry="11" style="stroke:#181818;stroke-width:1;"/><path d="M353.6221,996.375 Q353.7783,996.1563 353.9658,996.0469 Q354.1533,995.9375 354.3721,995.9375 Q354.7471,995.9375 354.9814,996.2031 Q355.2158,996.4531 355.2158,997.0625 L355.2158,998.5156 Q355.2158,999.125 354.9814,999.3906 Q354.7471,999.6563 354.3721,999.6563 Q354.0283,999.6563 353.8252,999.4531 Q353.6221,999.2656 353.5127,998.75 Q353.4658,998.3906 353.2783,998.2031 Q352.9502,997.8281 352.3408,997.6094 Q351.7314,997.3906 351.1064,997.3906 Q350.3408,997.3906 349.7002,997.7188 Q349.0752,998.0469 348.5752,998.7969 Q348.0908,999.5469 348.0908,1000.5781 L348.0908,1001.6719 Q348.0908,1002.9063 348.9814,1003.7344 Q349.8721,1004.5469 351.4658,1004.5469 Q352.4033,1004.5469 353.0596,1004.2969 Q353.4502,1004.1406 353.8721,1003.7031 Q354.1377,1003.4375 354.2783,1003.3594 Q354.4346,1003.2813 354.6377,1003.2813 Q354.9658,1003.2813 355.2158,1003.5469 Q355.4814,1003.7969 355.4814,1004.1406 Q355.4814,1004.4844 355.1377,1004.8906 Q354.6377,1005.4688 353.8408,1005.7969 Q352.7627,1006.25 351.4658,1006.25 Q349.9502,1006.25 348.7471,1005.625 Q347.7627,1005.125 347.0752,1004.0625 Q346.3877,1002.9844 346.3877,1001.7031 L346.3877,1000.5469 Q346.3877,999.2188 346.9971,998.0781 Q347.6221,996.9219 348.7158,996.3125 Q349.8096,995.6875 351.0439,995.6875 Q351.7783,995.6875 352.4189,995.8594 Q353.0752,996.0156 353.6221,996.375 Z " fill="#000000"/><text fill="#E0E0E0" font-family="sans-serif" font-size="14" lengthAdjust="spacing" textLength="147.0957" x="371.3564" y="1006.2969">PositiveLongIdValidator</text><line style="stroke:#8A8A8A;stroke-width:0.5;" x1="275" x2="582.3086" y1="1016.5" y2="1016.5"/><line style="stroke:#8A8A8A;stroke-width:0.5;" x1="275" x2="582.3086" y1="1024.5" y2="1024.5"/><ellipse cx="285" cy="1039.3105" fill="#84BE84" rx="3" ry="3" style="stroke:#038048;stroke-width:1;"/><text fill="#FFFFFF" font-family="sans-serif" font-size="14" lengthAdjust="spacing" textLength="241.2813" x="294" y="1043.6074">boolean isValid(HasLongId hasLongId)</text><rect fill="#F24D5C" height="6" style="stroke:#C82930;stroke-width:1;" width="6" x="282" y="1054.9316"/><text fill="#FFFFFF" font-family="sans-serif" font-size="14" lengthAdjust="spacing" textLength="283.3086" x="294" y="1062.2285">boolean hasPositiveId(HasLongId hasLongId)</text></g><!--class LongIdMapper--><g class="entity" data-entity="LongIdMapper" data-source-line="20" data-uid="ent0009" id="entity_LongIdMapper"><rect fill="#2D2D2D" height="66.6211" rx="2.5" ry="2.5" style="stroke:#8A8A8A;stroke-width:0.5;" width="320.9434" x="386" y="539"/><ellipse cx="497.0771" cy="555" fill="#B4A7E5" rx="11" ry="11" style="stroke:#181818;stroke-width:1;"/><path d="M498.0303,551.6406 L498.0303,558.2969 L499.749,558.2969 Q500.3584,558.2969 500.624,558.5313 Q500.8896,558.7656 500.8896,559.1563 Q500.8896,559.5313 500.624,559.7656 Q500.3584,560 499.749,560 L494.6084,560 Q493.999,560 493.7334,559.7656 Q493.4678,559.5313 493.4678,559.1406 Q493.4678,558.7656 493.7334,558.5313 Q493.999,558.2969 494.6084,558.2969 L496.3271,558.2969 L496.3271,551.6406 L494.6084,551.6406 Q493.999,551.6406 493.7334,551.4063 Q493.4678,551.1719 493.4678,550.7813 Q493.4678,550.4063 493.7334,550.1719 Q493.999,549.9375 494.6084,549.9375 L499.749,549.9375 Q500.3584,549.9375 500.624,550.1719 Q500.8896,550.4063 500.8896,550.7813 Q500.8896,551.1719 500.624,551.4063 Q500.3584,551.6406 499.749,551.6406 L498.0303,551.6406 Z " fill="#000000"/><text fill="#E0E0E0" font-family="sans-serif" font-size="14" font-style="italic" lengthAdjust="spacing" textLength="90.2891" x="517.5771" y="560.7969">LongIdMapper</text><line style="stroke:#8A8A8A;stroke-width:0.5;" x1="387" x2="705.9434" y1="571" y2="571"/><line style="stroke:#8A8A8A;stroke-width:0.5;" x1="387" x2="705.9434" y1="579" y2="579"/><ellipse cx="397" cy="593.8105" fill="#84BE84" rx="3" ry="3" style="stroke:#038048;stroke-width:1;"/><text fill="#FFFFFF" font-family="sans-serif" font-size="14" lengthAdjust="spacing" textLength="294.9434" x="406" y="598.1074">void map(HasLongId source, HasLongId target)</text></g><!--class SimpleLongIdMapper--><g class="entity" data-entity="SimpleLongIdMapper" data-source-line="24" data-uid="ent0011" id="entity_SimpleLongIdMapper"><rect fill="#2D2D2D" height="85.2422" rx="2.5" ry="2.5" style="stroke:#8A8A8A;stroke-width:0.5;" width="332.6191" x="375" y="684.5"/><ellipse cx="470.5186" cy="700.5" fill="#ADD1B2" rx="11" ry="11" style="stroke:#181818;stroke-width:1;"/><path d="M473.2842,696.375 Q473.4404,696.1563 473.6279,696.0469 Q473.8154,695.9375 474.0342,695.9375 Q474.4092,695.9375 474.6436,696.2031 Q474.8779,696.4531 474.8779,697.0625 L474.8779,698.5156 Q474.8779,699.125 474.6436,699.3906 Q474.4092,699.6563 474.0342,699.6563 Q473.6904,699.6563 473.4873,699.4531 Q473.2842,699.2656 473.1748,698.75 Q473.1279,698.3906 472.9404,698.2031 Q472.6123,697.8281 472.0029,697.6094 Q471.3936,697.3906 470.7686,697.3906 Q470.0029,697.3906 469.3623,697.7188 Q468.7373,698.0469 468.2373,698.7969 Q467.7529,699.5469 467.7529,700.5781 L467.7529,701.6719 Q467.7529,702.9063 468.6436,703.7344 Q469.5342,704.5469 471.1279,704.5469 Q472.0654,704.5469 472.7217,704.2969 Q473.1123,704.1406 473.5342,703.7031 Q473.7998,703.4375 473.9404,703.3594 Q474.0967,703.2813 474.2998,703.2813 Q474.6279,703.2813 474.8779,703.5469 Q475.1436,703.7969 475.1436,704.1406 Q475.1436,704.4844 474.7998,704.8906 Q474.2998,705.4688 473.5029,705.7969 Q472.4248,706.25 471.1279,706.25 Q469.6123,706.25 468.4092,705.625 Q467.4248,705.125 466.7373,704.0625 Q466.0498,702.9844 466.0498,701.7031 L466.0498,700.5469 Q466.0498,699.2188 466.6592,698.0781 Q467.2842,696.9219 468.3779,696.3125 Q469.4717,695.6875 470.7061,695.6875 Q471.4404,695.6875 472.0811,695.8594 Q472.7373,696.0156 473.2842,696.375 Z " fill="#000000"/><text fill="#E0E0E0" font-family="sans-serif" font-size="14" lengthAdjust="spacing" textLength="133.082" x="491.0186" y="706.2969">SimpleLongIdMapper</text><line style="stroke:#8A8A8A;stroke-width:0.5;" x1="376" x2="706.6191" y1="716.5" y2="716.5"/><line style="stroke:#8A8A8A;stroke-width:0.5;" x1="376" x2="706.6191" y1="724.5" y2="724.5"/><ellipse cx="386" cy="739.3105" fill="#84BE84" rx="3" ry="3" style="stroke:#038048;stroke-width:1;"/><text fill="#FFFFFF" font-family="sans-serif" font-size="14" lengthAdjust="spacing" textLength="294.9434" x="395" y="743.6074">void map(HasLongId source, HasLongId target)</text><rect fill="#F24D5C" height="6" style="stroke:#C82930;stroke-width:1;" width="6" x="383" y="754.9316"/><text fill="#FFFFFF" font-family="sans-serif" font-size="14" lengthAdjust="spacing" textLength="306.6191" x="395" y="762.2285">void mapId(HasLongId source, HasLongId target)</text></g><!--class ValidatedLongIdMapper--><g class="entity" data-entity="ValidatedLongIdMapper" data-source-line="29" data-uid="ent0013" id="entity_ValidatedLongIdMapper"><rect fill="#2D2D2D" height="122.4844" rx="2.5" ry="2.5" style="stroke:#8A8A8A;stroke-width:0.5;" width="332.6191" x="7" y="666"/><ellipse cx="94.7256" cy="682" fill="#ADD1B2" rx="11" ry="11" style="stroke:#181818;stroke-width:1;"/><path d="M97.4912,677.875 Q97.6475,677.6563 97.835,677.5469 Q98.0225,677.4375 98.2412,677.4375 Q98.6162,677.4375 98.8506,677.7031 Q99.085,677.9531 99.085,678.5625 L99.085,680.0156 Q99.085,680.625 98.8506,680.8906 Q98.6162,681.1563 98.2412,681.1563 Q97.8975,681.1563 97.6943,680.9531 Q97.4912,680.7656 97.3818,680.25 Q97.335,679.8906 97.1475,679.7031 Q96.8193,679.3281 96.21,679.1094 Q95.6006,678.8906 94.9756,678.8906 Q94.21,678.8906 93.5693,679.2188 Q92.9443,679.5469 92.4443,680.2969 Q91.96,681.0469 91.96,682.0781 L91.96,683.1719 Q91.96,684.4063 92.8506,685.2344 Q93.7412,686.0469 95.335,686.0469 Q96.2725,686.0469 96.9287,685.7969 Q97.3193,685.6406 97.7412,685.2031 Q98.0068,684.9375 98.1475,684.8594 Q98.3037,684.7813 98.5068,684.7813 Q98.835,684.7813 99.085,685.0469 Q99.3506,685.2969 99.3506,685.6406 Q99.3506,685.9844 99.0068,686.3906 Q98.5068,686.9688 97.71,687.2969 Q96.6318,687.75 95.335,687.75 Q93.8193,687.75 92.6162,687.125 Q91.6318,686.625 90.9443,685.5625 Q90.2568,684.4844 90.2568,683.2031 L90.2568,682.0469 Q90.2568,680.7188 90.8662,679.5781 Q91.4912,678.4219 92.585,677.8125 Q93.6787,677.1875 94.9131,677.1875 Q95.6475,677.1875 96.2881,677.3594 Q96.9443,677.5156 97.4912,677.875 Z " fill="#000000"/><text fill="#E0E0E0" font-family="sans-serif" font-size="14" lengthAdjust="spacing" textLength="148.668" x="115.2256" y="687.7969">ValidatedLongIdMapper</text><line style="stroke:#8A8A8A;stroke-width:0.5;" x1="8" x2="338.6191" y1="698" y2="698"/><rect fill="none" height="6" style="stroke:#C82930;stroke-width:1;" width="6" x="15" y="709.8105"/><text fill="#FFFFFF" font-family="sans-serif" font-size="14" lengthAdjust="spacing" textLength="195.3643" x="27" y="717.1074">LongIdValidator longIdValidator</text><line style="stroke:#8A8A8A;stroke-width:0.5;" x1="8" x2="338.6191" y1="724.6211" y2="724.6211"/><ellipse cx="18" cy="739.4316" fill="#84BE84" rx="3" ry="3" style="stroke:#038048;stroke-width:1;"/><text fill="#FFFFFF" font-family="sans-serif" font-size="14" lengthAdjust="spacing" textLength="294.9434" x="27" y="743.7285">void map(HasLongId source, HasLongId target)</text><rect fill="#F24D5C" height="6" style="stroke:#C82930;stroke-width:1;" width="6" x="15" y="755.0527"/><text fill="#FFFFFF" font-family="sans-serif" font-size="14" lengthAdjust="spacing" textLength="241.2813" x="27" y="762.3496">boolean isValid(HasLongId hasLongId)</text><rect fill="#F24D5C" height="6" style="stroke:#C82930;stroke-width:1;" width="6" x="15" y="773.6738"/><text fill="#FFFFFF" font-family="sans-serif" font-size="14" lengthAdjust="spacing" textLength="306.6191" x="27" y="780.9707">void mapId(HasLongId source, HasLongId target)</text></g><!--class StringNameValidator--><g class="entity" data-entity="StringNameValidator" data-source-line="19" data-uid="ent0016" id="entity_StringNameValidator"><rect fill="#2D2D2D" height="66.6211" rx="2.5" ry="2.5" style="stroke:#8A8A8A;stroke-width:0.5;" width="329.4746" x="843" y="848"/><ellipse cx="938.9014" cy="864" fill="#B4A7E5" rx="11" ry="11" style="stroke:#181818;stroke-width:1;"/><path d="M939.8545,860.6406 L939.8545,867.2969 L941.5732,867.2969 Q942.1826,867.2969 942.4482,867.5313 Q942.7139,867.7656 942.7139,868.1563 Q942.7139,868.5313 942.4482,868.7656 Q942.1826,869 941.5732,869 L936.4326,869 Q935.8232,869 935.5576,868.7656 Q935.292,868.5313 935.292,868.1406 Q935.292,867.7656 935.5576,867.5313 Q935.8232,867.2969 936.4326,867.2969 L938.1514,867.2969 L938.1514,860.6406 L936.4326,860.6406 Q935.8232,860.6406 935.5576,860.4063 Q935.292,860.1719 935.292,859.7813 Q935.292,859.4063 935.5576,859.1719 Q935.8232,858.9375 936.4326,858.9375 L941.5732,858.9375 Q942.1826,858.9375 942.4482,859.1719 Q942.7139,859.4063 942.7139,859.7813 Q942.7139,860.1719 942.4482,860.4063 Q942.1826,860.6406 941.5732,860.6406 L939.8545,860.6406 Z " fill="#000000"/><text fill="#E0E0E0" font-family="sans-serif" font-size="14" font-style="italic" lengthAdjust="spacing" textLength="129.1719" x="959.4014" y="869.7969">StringNameValidator</text><line style="stroke:#8A8A8A;stroke-width:0.5;" x1="844" x2="1171.4746" y1="880" y2="880"/><line style="stroke:#8A8A8A;stroke-width:0.5;" x1="844" x2="1171.4746" y1="888" y2="888"/><ellipse cx="854" cy="902.8105" fill="#84BE84" rx="3" ry="3" style="stroke:#038048;stroke-width:1;"/><text fill="#FFFFFF" font-family="sans-serif" font-size="14" lengthAdjust="spacing" textLength="303.4746" x="863" y="907.1074">boolean isValid(HasStringName hasStringName)</text></g><!--class NonBlankStringNameValidator--><g class="entity" data-entity="NonBlankStringNameValidator" data-source-line="23" data-uid="ent0018" id="entity_NonBlankStringNameValidator"><rect fill="#2D2D2D" height="103.8633" rx="2.5" ry="2.5" style="stroke:#8A8A8A;stroke-width:0.5;" width="408.8535" x="803" y="975"/><ellipse cx="908.2393" cy="991" fill="#ADD1B2" rx="11" ry="11" style="stroke:#181818;stroke-width:1;"/><path d="M911.0049,986.875 Q911.1611,986.6563 911.3486,986.5469 Q911.5361,986.4375 911.7549,986.4375 Q912.1299,986.4375 912.3643,986.7031 Q912.5986,986.9531 912.5986,987.5625 L912.5986,989.0156 Q912.5986,989.625 912.3643,989.8906 Q912.1299,990.1563 911.7549,990.1563 Q911.4111,990.1563 911.208,989.9531 Q911.0049,989.7656 910.8955,989.25 Q910.8486,988.8906 910.6611,988.7031 Q910.333,988.3281 909.7236,988.1094 Q909.1143,987.8906 908.4893,987.8906 Q907.7236,987.8906 907.083,988.2188 Q906.458,988.5469 905.958,989.2969 Q905.4736,990.0469 905.4736,991.0781 L905.4736,992.1719 Q905.4736,993.4063 906.3643,994.2344 Q907.2549,995.0469 908.8486,995.0469 Q909.7861,995.0469 910.4424,994.7969 Q910.833,994.6406 911.2549,994.2031 Q911.5205,993.9375 911.6611,993.8594 Q911.8174,993.7813 912.0205,993.7813 Q912.3486,993.7813 912.5986,994.0469 Q912.8643,994.2969 912.8643,994.6406 Q912.8643,994.9844 912.5205,995.3906 Q912.0205,995.9688 911.2236,996.2969 Q910.1455,996.75 908.8486,996.75 Q907.333,996.75 906.1299,996.125 Q905.1455,995.625 904.458,994.5625 Q903.7705,993.4844 903.7705,992.2031 L903.7705,991.0469 Q903.7705,989.7188 904.3799,988.5781 Q905.0049,987.4219 906.0986,986.8125 Q907.1924,986.1875 908.4268,986.1875 Q909.1611,986.1875 909.8018,986.3594 Q910.458,986.5156 911.0049,986.875 Z " fill="#000000"/><text fill="#E0E0E0" font-family="sans-serif" font-size="14" lengthAdjust="spacing" textLength="189.875" x="928.7393" y="996.7969">NonBlankStringNameValidator</text><line style="stroke:#8A8A8A;stroke-width:0.5;" x1="804" x2="1210.8535" y1="1007" y2="1007"/><line style="stroke:#8A8A8A;stroke-width:0.5;" x1="804" x2="1210.8535" y1="1015" y2="1015"/><ellipse cx="814" cy="1029.8105" fill="#84BE84" rx="3" ry="3" style="stroke:#038048;stroke-width:1;"/><text fill="#FFFFFF" font-family="sans-serif" font-size="14" lengthAdjust="spacing" textLength="308.1367" x="823" y="1034.1074">boolean isValid((HasStringName hasStringName)</text><rect fill="#F24D5C" height="6" style="stroke:#C82930;stroke-width:1;" width="6" x="811" y="1045.4316"/><text fill="#FFFFFF" font-family="sans-serif" font-size="14" lengthAdjust="spacing" textLength="382.8535" x="823" y="1052.7285">boolean hasNonBlankName(HasStringName hasStringName)</text><rect fill="#F24D5C" height="6" style="stroke:#C82930;stroke-width:1;" width="6" x="811" y="1064.0527"/><text fill="#FFFFFF" font-family="sans-serif" font-size="14" lengthAdjust="spacing" textLength="357.1709" x="823" y="1071.3496">boolean hasBlankName(HasStringName hasStringName)</text></g><!--class StringNameMapper--><g class="entity" data-entity="StringNameMapper" data-source-line="20" data-uid="ent0020" id="entity_StringNameMapper"><rect fill="#2D2D2D" height="66.6211" rx="2.5" ry="2.5" style="stroke:#8A8A8A;stroke-width:0.5;" width="383.1367" x="747" y="539"/><ellipse cx="873.6255" cy="555" fill="#B4A7E5" rx="11" ry="11" style="stroke:#181818;stroke-width:1;"/><path d="M874.5786,551.6406 L874.5786,558.2969 L876.2974,558.2969 Q876.9067,558.2969 877.1724,558.5313 Q877.438,558.7656 877.438,559.1563 Q877.438,559.5313 877.1724,559.7656 Q876.9067,560 876.2974,560 L871.1567,560 Q870.5474,560 870.2817,559.7656 Q870.0161,559.5313 870.0161,559.1406 Q870.0161,558.7656 870.2817,558.5313 Q870.5474,558.2969 871.1567,558.2969 L872.8755,558.2969 L872.8755,551.6406 L871.1567,551.6406 Q870.5474,551.6406 870.2817,551.4063 Q870.0161,551.1719 870.0161,550.7813 Q870.0161,550.4063 870.2817,550.1719 Q870.5474,549.9375 871.1567,549.9375 L876.2974,549.9375 Q876.9067,549.9375 877.1724,550.1719 Q877.438,550.4063 877.438,550.7813 Q877.438,551.1719 877.1724,551.4063 Q876.9067,551.6406 876.2974,551.6406 L874.5786,551.6406 Z " fill="#000000"/><text fill="#E0E0E0" font-family="sans-serif" font-size="14" font-style="italic" lengthAdjust="spacing" textLength="121.3857" x="894.1255" y="560.7969">StringNameMapper</text><line style="stroke:#8A8A8A;stroke-width:0.5;" x1="748" x2="1129.1367" y1="571" y2="571"/><line style="stroke:#8A8A8A;stroke-width:0.5;" x1="748" x2="1129.1367" y1="579" y2="579"/><ellipse cx="758" cy="593.8105" fill="#84BE84" rx="3" ry="3" style="stroke:#038048;stroke-width:1;"/><text fill="#FFFFFF" font-family="sans-serif" font-size="14" lengthAdjust="spacing" textLength="357.1367" x="767" y="598.1074">void map(HasStringName source, HasStringName target)</text></g><!--class ValidatedStringNameMapper--><g class="entity" data-entity="ValidatedStringNameMapper" data-source-line="24" data-uid="ent0022" id="entity_ValidatedStringNameMapper"><rect fill="#2D2D2D" height="122.4844" rx="2.5" ry="2.5" style="stroke:#8A8A8A;stroke-width:0.5;" width="390.9092" x="743" y="666"/><ellipse cx="844.3223" cy="682" fill="#ADD1B2" rx="11" ry="11" style="stroke:#181818;stroke-width:1;"/><path d="M847.0879,677.875 Q847.2441,677.6563 847.4316,677.5469 Q847.6191,677.4375 847.8379,677.4375 Q848.2129,677.4375 848.4473,677.7031 Q848.6816,677.9531 848.6816,678.5625 L848.6816,680.0156 Q848.6816,680.625 848.4473,680.8906 Q848.2129,681.1563 847.8379,681.1563 Q847.4941,681.1563 847.291,680.9531 Q847.0879,680.7656 846.9785,680.25 Q846.9316,679.8906 846.7441,679.7031 Q846.416,679.3281 845.8066,679.1094 Q845.1973,678.8906 844.5723,678.8906 Q843.8066,678.8906 843.166,679.2188 Q842.541,679.5469 842.041,680.2969 Q841.5566,681.0469 841.5566,682.0781 L841.5566,683.1719 Q841.5566,684.4063 842.4473,685.2344 Q843.3379,686.0469 844.9316,686.0469 Q845.8691,686.0469 846.5254,685.7969 Q846.916,685.6406 847.3379,685.2031 Q847.6035,684.9375 847.7441,684.8594 Q847.9004,684.7813 848.1035,684.7813 Q848.4316,684.7813 848.6816,685.0469 Q848.9473,685.2969 848.9473,685.6406 Q848.9473,685.9844 848.6035,686.3906 Q848.1035,686.9688 847.3066,687.2969 Q846.2285,687.75 844.9316,687.75 Q843.416,687.75 842.2129,687.125 Q841.2285,686.625 840.541,685.5625 Q839.8535,684.4844 839.8535,683.2031 L839.8535,682.0469 Q839.8535,680.7188 840.4629,679.5781 Q841.0879,678.4219 842.1816,677.8125 Q843.2754,677.1875 844.5098,677.1875 Q845.2441,677.1875 845.8848,677.3594 Q846.541,677.5156 847.0879,677.875 Z " fill="#000000"/><text fill="#E0E0E0" font-family="sans-serif" font-size="14" lengthAdjust="spacing" textLength="179.7646" x="864.8223" y="687.7969">ValidatedStringNameMapper</text><line style="stroke:#8A8A8A;stroke-width:0.5;" x1="744" x2="1132.9092" y1="698" y2="698"/><rect fill="none" height="6" style="stroke:#C82930;stroke-width:1;" width="6" x="751" y="709.8105"/><text fill="#FFFFFF" font-family="sans-serif" font-size="14" lengthAdjust="spacing" textLength="259.8955" x="763" y="717.1074">StringNameValidator stringNameValidator</text><line style="stroke:#8A8A8A;stroke-width:0.5;" x1="744" x2="1132.9092" y1="724.6211" y2="724.6211"/><ellipse cx="754" cy="739.4316" fill="#84BE84" rx="3" ry="3" style="stroke:#038048;stroke-width:1;"/><text fill="#FFFFFF" font-family="sans-serif" font-size="14" lengthAdjust="spacing" textLength="357.1367" x="763" y="743.7285">void map(HasStringName source, HasStringName target)</text><rect fill="#F24D5C" height="6" style="stroke:#C82930;stroke-width:1;" width="6" x="751" y="755.0527"/><text fill="#FFFFFF" font-family="sans-serif" font-size="14" lengthAdjust="spacing" textLength="303.4746" x="763" y="762.3496">boolean isValid(HasStringName hasStringName)</text><rect fill="#F24D5C" height="6" style="stroke:#C82930;stroke-width:1;" width="6" x="751" y="773.6738"/><text fill="#FFFFFF" font-family="sans-serif" font-size="14" lengthAdjust="spacing" textLength="364.9092" x="763" y="780.9707">mapName(HasStringName source, HasStringName target)</text></g><!--class LongVersionValidator--><g class="entity" data-entity="LongVersionValidator" data-source-line="19" data-uid="ent0025" id="entity_LongVersionValidator"><rect fill="#2D2D2D" height="66.6211" rx="2.5" ry="2.5" style="stroke:#8A8A8A;stroke-width:0.5;" width="338.8672" x="1424" y="848"/><ellipse cx="1522.2495" cy="864" fill="#B4A7E5" rx="11" ry="11" style="stroke:#181818;stroke-width:1;"/><path d="M1523.2026,860.6406 L1523.2026,867.2969 L1524.9214,867.2969 Q1525.5308,867.2969 1525.7964,867.5313 Q1526.062,867.7656 1526.062,868.1563 Q1526.062,868.5313 1525.7964,868.7656 Q1525.5308,869 1524.9214,869 L1519.7808,869 Q1519.1714,869 1518.9058,868.7656 Q1518.6401,868.5313 1518.6401,868.1406 Q1518.6401,867.7656 1518.9058,867.5313 Q1519.1714,867.2969 1519.7808,867.2969 L1521.4995,867.2969 L1521.4995,860.6406 L1519.7808,860.6406 Q1519.1714,860.6406 1518.9058,860.4063 Q1518.6401,860.1719 1518.6401,859.7813 Q1518.6401,859.4063 1518.9058,859.1719 Q1519.1714,858.9375 1519.7808,858.9375 L1524.9214,858.9375 Q1525.5308,858.9375 1525.7964,859.1719 Q1526.062,859.4063 1526.062,859.7813 Q1526.062,860.1719 1525.7964,860.4063 Q1525.5308,860.6406 1524.9214,860.6406 L1523.2026,860.6406 Z " fill="#000000"/><text fill="#E0E0E0" font-family="sans-serif" font-size="14" font-style="italic" lengthAdjust="spacing" textLength="133.8682" x="1542.7495" y="869.7969">LongVersionValidator</text><line style="stroke:#8A8A8A;stroke-width:0.5;" x1="1425" x2="1761.8672" y1="880" y2="880"/><line style="stroke:#8A8A8A;stroke-width:0.5;" x1="1425" x2="1761.8672" y1="888" y2="888"/><ellipse cx="1435" cy="902.8105" fill="#84BE84" rx="3" ry="3" style="stroke:#038048;stroke-width:1;"/><text fill="#FFFFFF" font-family="sans-serif" font-size="14" lengthAdjust="spacing" textLength="312.8672" x="1444" y="907.1074">boolean isValid(HasLongVersion hasLongVersion)</text></g><!--class PositiveLongVersionValidator--><g class="entity" data-entity="PositiveLongVersionValidator" data-source-line="23" data-uid="ent0027" id="entity_PositiveLongVersionValidator"><rect fill="#2D2D2D" height="85.2422" rx="2.5" ry="2.5" style="stroke:#8A8A8A;stroke-width:0.5;" width="416.6875" x="1385" y="984.5"/><ellipse cx="1497.6494" cy="1000.5" fill="#ADD1B2" rx="11" ry="11" style="stroke:#181818;stroke-width:1;"/><path d="M1500.415,996.375 Q1500.5713,996.1563 1500.7588,996.0469 Q1500.9463,995.9375 1501.165,995.9375 Q1501.54,995.9375 1501.7744,996.2031 Q1502.0088,996.4531 1502.0088,997.0625 L1502.0088,998.5156 Q1502.0088,999.125 1501.7744,999.3906 Q1501.54,999.6563 1501.165,999.6563 Q1500.8213,999.6563 1500.6182,999.4531 Q1500.415,999.2656 1500.3057,998.75 Q1500.2588,998.3906 1500.0713,998.2031 Q1499.7432,997.8281 1499.1338,997.6094 Q1498.5244,997.3906 1497.8994,997.3906 Q1497.1338,997.3906 1496.4932,997.7188 Q1495.8682,998.0469 1495.3682,998.7969 Q1494.8838,999.5469 1494.8838,1000.5781 L1494.8838,1001.6719 Q1494.8838,1002.9063 1495.7744,1003.7344 Q1496.665,1004.5469 1498.2588,1004.5469 Q1499.1963,1004.5469 1499.8525,1004.2969 Q1500.2432,1004.1406 1500.665,1003.7031 Q1500.9307,1003.4375 1501.0713,1003.3594 Q1501.2275,1003.2813 1501.4307,1003.2813 Q1501.7588,1003.2813 1502.0088,1003.5469 Q1502.2744,1003.7969 1502.2744,1004.1406 Q1502.2744,1004.4844 1501.9307,1004.8906 Q1501.4307,1005.4688 1500.6338,1005.7969 Q1499.5557,1006.25 1498.2588,1006.25 Q1496.7432,1006.25 1495.54,1005.625 Q1494.5557,1005.125 1493.8682,1004.0625 Q1493.1807,1002.9844 1493.1807,1001.7031 L1493.1807,1000.5469 Q1493.1807,999.2188 1493.79,998.0781 Q1494.415,996.9219 1495.5088,996.3125 Q1496.6025,995.6875 1497.8369,995.6875 Q1498.5713,995.6875 1499.2119,995.8594 Q1499.8682,996.0156 1500.415,996.375 Z " fill="#000000"/><text fill="#E0E0E0" font-family="sans-serif" font-size="14" lengthAdjust="spacing" textLength="182.8887" x="1518.1494" y="1006.2969">PositiveLongVersionValidator</text><line style="stroke:#8A8A8A;stroke-width:0.5;" x1="1386" x2="1800.6875" y1="1016.5" y2="1016.5"/><line style="stroke:#8A8A8A;stroke-width:0.5;" x1="1386" x2="1800.6875" y1="1024.5" y2="1024.5"/><ellipse cx="1396" cy="1039.3105" fill="#84BE84" rx="3" ry="3" style="stroke:#038048;stroke-width:1;"/><text fill="#FFFFFF" font-family="sans-serif" font-size="14" lengthAdjust="spacing" textLength="312.8672" x="1405" y="1043.6074">boolean isValid(HasLongVersion hasLongVersion)</text><rect fill="#F24D5C" height="6" style="stroke:#C82930;stroke-width:1;" width="6" x="1393" y="1054.9316"/><text fill="#FFFFFF" font-family="sans-serif" font-size="14" lengthAdjust="spacing" textLength="390.6875" x="1405" y="1062.2285">boolean hasPositiveVersion(HasLongVersion hasLongVersion)</text></g><!--class LongVersionMapper--><g class="entity" data-entity="LongVersionMapper" data-source-line="20" data-uid="ent0029" id="entity_LongVersionMapper"><rect fill="#2D2D2D" height="66.6211" rx="2.5" ry="2.5" style="stroke:#8A8A8A;stroke-width:0.5;" width="392.5293" x="1316" y="539"/><ellipse cx="1444.9736" cy="555" fill="#B4A7E5" rx="11" ry="11" style="stroke:#181818;stroke-width:1;"/><path d="M1445.9268,551.6406 L1445.9268,558.2969 L1447.6455,558.2969 Q1448.2549,558.2969 1448.5205,558.5313 Q1448.7861,558.7656 1448.7861,559.1563 Q1448.7861,559.5313 1448.5205,559.7656 Q1448.2549,560 1447.6455,560 L1442.5049,560 Q1441.8955,560 1441.6299,559.7656 Q1441.3643,559.5313 1441.3643,559.1406 Q1441.3643,558.7656 1441.6299,558.5313 Q1441.8955,558.2969 1442.5049,558.2969 L1444.2236,558.2969 L1444.2236,551.6406 L1442.5049,551.6406 Q1441.8955,551.6406 1441.6299,551.4063 Q1441.3643,551.1719 1441.3643,550.7813 Q1441.3643,550.4063 1441.6299,550.1719 Q1441.8955,549.9375 1442.5049,549.9375 L1447.6455,549.9375 Q1448.2549,549.9375 1448.5205,550.1719 Q1448.7861,550.4063 1448.7861,550.7813 Q1448.7861,551.1719 1448.5205,551.4063 Q1448.2549,551.6406 1447.6455,551.6406 L1445.9268,551.6406 Z " fill="#000000"/><text fill="#E0E0E0" font-family="sans-serif" font-size="14" font-style="italic" lengthAdjust="spacing" textLength="126.082" x="1465.4736" y="560.7969">LongVersionMapper</text><line style="stroke:#8A8A8A;stroke-width:0.5;" x1="1317" x2="1707.5293" y1="571" y2="571"/><line style="stroke:#8A8A8A;stroke-width:0.5;" x1="1317" x2="1707.5293" y1="579" y2="579"/><ellipse cx="1327" cy="593.8105" fill="#84BE84" rx="3" ry="3" style="stroke:#038048;stroke-width:1;"/><text fill="#FFFFFF" font-family="sans-serif" font-size="14" lengthAdjust="spacing" textLength="366.5293" x="1336" y="598.1074">void map(HasLongVersion source, HasLongVersion target)</text></g><!--class SimpleLongVersionMapper--><g class="entity" data-entity="SimpleLongVersionMapper" data-source-line="24" data-uid="ent0031" id="entity_SimpleLongVersionMapper"><rect fill="#2D2D2D" height="85.2422" rx="2.5" ry="2.5" style="stroke:#8A8A8A;stroke-width:0.5;" width="439.998" x="1903.5" y="684.5"/><ellipse cx="2034.8115" cy="700.5" fill="#ADD1B2" rx="11" ry="11" style="stroke:#181818;stroke-width:1;"/><path d="M2037.5771,696.375 Q2037.7334,696.1563 2037.9209,696.0469 Q2038.1084,695.9375 2038.3271,695.9375 Q2038.7021,695.9375 2038.9365,696.2031 Q2039.1709,696.4531 2039.1709,697.0625 L2039.1709,698.5156 Q2039.1709,699.125 2038.9365,699.3906 Q2038.7021,699.6563 2038.3271,699.6563 Q2037.9834,699.6563 2037.7803,699.4531 Q2037.5771,699.2656 2037.4678,698.75 Q2037.4209,698.3906 2037.2334,698.2031 Q2036.9053,697.8281 2036.2959,697.6094 Q2035.6865,697.3906 2035.0615,697.3906 Q2034.2959,697.3906 2033.6553,697.7188 Q2033.0303,698.0469 2032.5303,698.7969 Q2032.0459,699.5469 2032.0459,700.5781 L2032.0459,701.6719 Q2032.0459,702.9063 2032.9365,703.7344 Q2033.8271,704.5469 2035.4209,704.5469 Q2036.3584,704.5469 2037.0146,704.2969 Q2037.4053,704.1406 2037.8271,703.7031 Q2038.0928,703.4375 2038.2334,703.3594 Q2038.3896,703.2813 2038.5928,703.2813 Q2038.9209,703.2813 2039.1709,703.5469 Q2039.4365,703.7969 2039.4365,704.1406 Q2039.4365,704.4844 2039.0928,704.8906 Q2038.5928,705.4688 2037.7959,705.7969 Q2036.7178,706.25 2035.4209,706.25 Q2033.9053,706.25 2032.7021,705.625 Q2031.7178,705.125 2031.0303,704.0625 Q2030.3428,702.9844 2030.3428,701.7031 L2030.3428,700.5469 Q2030.3428,699.2188 2030.9521,698.0781 Q2031.5771,696.9219 2032.6709,696.3125 Q2033.7646,695.6875 2034.999,695.6875 Q2035.7334,695.6875 2036.374,695.8594 Q2037.0303,696.0156 2037.5771,696.375 Z " fill="#000000"/><text fill="#E0E0E0" font-family="sans-serif" font-size="14" lengthAdjust="spacing" textLength="168.875" x="2055.3115" y="706.2969">SimpleLongVersionMapper</text><line style="stroke:#8A8A8A;stroke-width:0.5;" x1="1904.5" x2="2342.498" y1="716.5" y2="716.5"/><line style="stroke:#8A8A8A;stroke-width:0.5;" x1="1904.5" x2="2342.498" y1="724.5" y2="724.5"/><ellipse cx="1914.5" cy="739.3105" fill="#84BE84" rx="3" ry="3" style="stroke:#038048;stroke-width:1;"/><text fill="#FFFFFF" font-family="sans-serif" font-size="14" lengthAdjust="spacing" textLength="366.5293" x="1923.5" y="743.6074">void map(HasLongVersion source, HasLongVersion target)</text><rect fill="#F24D5C" height="6" style="stroke:#C82930;stroke-width:1;" width="6" x="1911.5" y="754.9316"/><text fill="#FFFFFF" font-family="sans-serif" font-size="14" lengthAdjust="spacing" textLength="413.998" x="1923.5" y="762.2285">void mapVersion(HasLongVersion source, HasLongVersion target)</text></g><!--class ValidatedLongVersionMapper--><g class="entity" data-entity="ValidatedLongVersionMapper" data-source-line="29" data-uid="ent0033" id="entity_ValidatedLongVersionMapper"><rect fill="#2D2D2D" height="122.4844" rx="2.5" ry="2.5" style="stroke:#8A8A8A;stroke-width:0.5;" width="410.4258" x="1458.5" y="666"/><ellipse cx="1567.2324" cy="682" fill="#ADD1B2" rx="11" ry="11" style="stroke:#181818;stroke-width:1;"/><path d="M1569.998,677.875 Q1570.1543,677.6563 1570.3418,677.5469 Q1570.5293,677.4375 1570.748,677.4375 Q1571.123,677.4375 1571.3574,677.7031 Q1571.5918,677.9531 1571.5918,678.5625 L1571.5918,680.0156 Q1571.5918,680.625 1571.3574,680.8906 Q1571.123,681.1563 1570.748,681.1563 Q1570.4043,681.1563 1570.2012,680.9531 Q1569.998,680.7656 1569.8887,680.25 Q1569.8418,679.8906 1569.6543,679.7031 Q1569.3262,679.3281 1568.7168,679.1094 Q1568.1074,678.8906 1567.4824,678.8906 Q1566.7168,678.8906 1566.0762,679.2188 Q1565.4512,679.5469 1564.9512,680.2969 Q1564.4668,681.0469 1564.4668,682.0781 L1564.4668,683.1719 Q1564.4668,684.4063 1565.3574,685.2344 Q1566.248,686.0469 1567.8418,686.0469 Q1568.7793,686.0469 1569.4355,685.7969 Q1569.8262,685.6406 1570.248,685.2031 Q1570.5137,684.9375 1570.6543,684.8594 Q1570.8105,684.7813 1571.0137,684.7813 Q1571.3418,684.7813 1571.5918,685.0469 Q1571.8574,685.2969 1571.8574,685.6406 Q1571.8574,685.9844 1571.5137,686.3906 Q1571.0137,686.9688 1570.2168,687.2969 Q1569.1387,687.75 1567.8418,687.75 Q1566.3262,687.75 1565.123,687.125 Q1564.1387,686.625 1563.4512,685.5625 Q1562.7637,684.4844 1562.7637,683.2031 L1562.7637,682.0469 Q1562.7637,680.7188 1563.373,679.5781 Q1563.998,678.4219 1565.0918,677.8125 Q1566.1855,677.1875 1567.4199,677.1875 Q1568.1543,677.1875 1568.7949,677.3594 Q1569.4512,677.5156 1569.998,677.875 Z " fill="#000000"/><text fill="#E0E0E0" font-family="sans-serif" font-size="14" lengthAdjust="spacing" textLength="184.4609" x="1587.7324" y="687.7969">ValidatedLongVersionMapper</text><line style="stroke:#8A8A8A;stroke-width:0.5;" x1="1459.5" x2="1867.9258" y1="698" y2="698"/><rect fill="none" height="6" style="stroke:#C82930;stroke-width:1;" width="6" x="1466.5" y="709.8105"/><text fill="#FFFFFF" font-family="sans-serif" font-size="14" lengthAdjust="spacing" textLength="266.9502" x="1478.5" y="717.1074">LongVersionValidator longVersionValidator</text><line style="stroke:#8A8A8A;stroke-width:0.5;" x1="1459.5" x2="1867.9258" y1="724.6211" y2="724.6211"/><ellipse cx="1469.5" cy="739.4316" fill="#84BE84" rx="3" ry="3" style="stroke:#038048;stroke-width:1;"/><text fill="#FFFFFF" font-family="sans-serif" font-size="14" lengthAdjust="spacing" textLength="366.5293" x="1478.5" y="743.7285">void map(HasLongVersion source, HasLongVersion target)</text><rect fill="#F24D5C" height="6" style="stroke:#C82930;stroke-width:1;" width="6" x="1466.5" y="755.0527"/><text fill="#FFFFFF" font-family="sans-serif" font-size="14" lengthAdjust="spacing" textLength="312.8672" x="1478.5" y="762.3496">boolean isValid(HasLongVersion hasLongVersion)</text><rect fill="#F24D5C" height="6" style="stroke:#C82930;stroke-width:1;" width="6" x="1466.5" y="773.6738"/><text fill="#FFFFFF" font-family="sans-serif" font-size="14" lengthAdjust="spacing" textLength="384.4258" x="1478.5" y="780.9707">mapVersion(HasLongVersion source, HasLongVersion target)</text></g><!--class CategoryDTOToCategoryMapper--><g class="entity" data-entity="CategoryDTOToCategoryMapper" data-source-line="23" data-uid="ent0036" id="entity_CategoryDTOToCategoryMapper"><rect fill="#2D2D2D" height="85.2422" rx="2.5" ry="2.5" style="stroke:#8A8A8A;stroke-width:0.5;" width="348.1025" x="194.5" y="137"/><ellipse cx="260.8154" cy="153" fill="#B4A7E5" rx="11" ry="11" style="stroke:#181818;stroke-width:1;"/><path d="M261.7686,149.6406 L261.7686,156.2969 L263.4873,156.2969 Q264.0967,156.2969 264.3623,156.5313 Q264.6279,156.7656 264.6279,157.1563 Q264.6279,157.5313 264.3623,157.7656 Q264.0967,158 263.4873,158 L258.3467,158 Q257.7373,158 257.4717,157.7656 Q257.2061,157.5313 257.2061,157.1406 Q257.2061,156.7656 257.4717,156.5313 Q257.7373,156.2969 258.3467,156.2969 L260.0654,156.2969 L260.0654,149.6406 L258.3467,149.6406 Q257.7373,149.6406 257.4717,149.4063 Q257.2061,149.1719 257.2061,148.7813 Q257.2061,148.4063 257.4717,148.1719 Q257.7373,147.9375 258.3467,147.9375 L263.4873,147.9375 Q264.0967,147.9375 264.3623,148.1719 Q264.6279,148.4063 264.6279,148.7813 Q264.6279,149.1719 264.3623,149.4063 Q264.0967,149.6406 263.4873,149.6406 L261.7686,149.6406 Z " fill="#000000"/><text fill="#E0E0E0" font-family="sans-serif" font-size="14" font-style="italic" lengthAdjust="spacing" textLength="206.9717" x="281.3154" y="158.7969">CategoryDTOToCategoryMapper</text><line style="stroke:#8A8A8A;stroke-width:0.5;" x1="195.5" x2="541.6025" y1="169" y2="169"/><line style="stroke:#8A8A8A;stroke-width:0.5;" x1="195.5" x2="541.6025" y1="177" y2="177"/><ellipse cx="205.5" cy="191.8105" fill="#84BE84" rx="3" ry="3" style="stroke:#038048;stroke-width:1;"/><text fill="#FFFFFF" font-family="sans-serif" font-size="14" lengthAdjust="spacing" textLength="302.6748" x="214.5" y="196.1074">void map(CategoryDTO source, Category target)</text><ellipse cx="205.5" cy="210.4316" fill="#84BE84" rx="3" ry="3" style="stroke:#038048;stroke-width:1;"/><text fill="#FFFFFF" font-family="sans-serif" font-size="14" lengthAdjust="spacing" textLength="322.1025" x="214.5" y="214.7285">Category mapToEntity(CategoryDTO categoryDTO)</text></g><!--class SimpleCategoryDTOToCategoryMapper--><g class="entity" data-entity="SimpleCategoryDTOToCategoryMapper" data-source-line="28" data-uid="ent0039" id="entity_SimpleCategoryDTOToCategoryMapper"><rect fill="#2D2D2D" height="196.9688" rx="2.5" ry="2.5" style="stroke:#8A8A8A;stroke-width:0.5;" width="435.2676" x="649" y="282"/><ellipse cx="737.5015" cy="298" fill="#ADD1B2" rx="11" ry="11" style="stroke:#181818;stroke-width:1;"/><path d="M740.2671,293.875 Q740.4233,293.6563 740.6108,293.5469 Q740.7983,293.4375 741.0171,293.4375 Q741.3921,293.4375 741.6265,293.7031 Q741.8608,293.9531 741.8608,294.5625 L741.8608,296.0156 Q741.8608,296.625 741.6265,296.8906 Q741.3921,297.1563 741.0171,297.1563 Q740.6733,297.1563 740.4702,296.9531 Q740.2671,296.7656 740.1577,296.25 Q740.1108,295.8906 739.9233,295.7031 Q739.5952,295.3281 738.9858,295.1094 Q738.3765,294.8906 737.7515,294.8906 Q736.9858,294.8906 736.3452,295.2188 Q735.7202,295.5469 735.2202,296.2969 Q734.7358,297.0469 734.7358,298.0781 L734.7358,299.1719 Q734.7358,300.4063 735.6265,301.2344 Q736.5171,302.0469 738.1108,302.0469 Q739.0483,302.0469 739.7046,301.7969 Q740.0952,301.6406 740.5171,301.2031 Q740.7827,300.9375 740.9233,300.8594 Q741.0796,300.7813 741.2827,300.7813 Q741.6108,300.7813 741.8608,301.0469 Q742.1265,301.2969 742.1265,301.6406 Q742.1265,301.9844 741.7827,302.3906 Q741.2827,302.9688 740.4858,303.2969 Q739.4077,303.75 738.1108,303.75 Q736.5952,303.75 735.3921,303.125 Q734.4077,302.625 733.7202,301.5625 Q733.0327,300.4844 733.0327,299.2031 L733.0327,298.0469 Q733.0327,296.7188 733.6421,295.5781 Q734.2671,294.4219 735.3608,293.8125 Q736.4546,293.1875 737.689,293.1875 Q738.4233,293.1875 739.064,293.3594 Q739.7202,293.5156 740.2671,293.875 Z " fill="#000000"/><text fill="#E0E0E0" font-family="sans-serif" font-size="14" lengthAdjust="spacing" textLength="249.7646" x="758.0015" y="303.7969">SimpleCategoryDTOToCategoryMapper</text><line style="stroke:#8A8A8A;stroke-width:0.5;" x1="650" x2="1083.2676" y1="314" y2="314"/><rect fill="none" height="6" style="stroke:#C82930;stroke-width:1;" width="6" x="657" y="325.8105"/><text fill="#FFFFFF" font-family="sans-serif" font-size="14" lengthAdjust="spacing" textLength="179.792" x="669" y="333.1074">LongIdMapper longIdMapper</text><rect fill="none" height="6" style="stroke:#C82930;stroke-width:1;" width="6" x="657" y="344.4316"/><text fill="#FFFFFF" font-family="sans-serif" font-size="14" lengthAdjust="spacing" textLength="244.3232" x="669" y="351.7285">StringNameMapper stringNameMapper</text><rect fill="none" height="6" style="stroke:#C82930;stroke-width:1;" width="6" x="657" y="363.0527"/><text fill="#FFFFFF" font-family="sans-serif" font-size="14" lengthAdjust="spacing" textLength="251.3779" x="669" y="370.3496">LongVersionMapper longVersionMapper</text><line style="stroke:#8A8A8A;stroke-width:0.5;" x1="650" x2="1083.2676" y1="377.8633" y2="377.8633"/><ellipse cx="660" cy="392.6738" fill="#84BE84" rx="3" ry="3" style="stroke:#038048;stroke-width:1;"/><text fill="#FFFFFF" font-family="sans-serif" font-size="14" lengthAdjust="spacing" textLength="322.1025" x="669" y="396.9707">Category mapToEntity(CategoryDTO categoryDTO)</text><ellipse cx="660" cy="411.2949" fill="#84BE84" rx="3" ry="3" style="stroke:#038048;stroke-width:1;"/><text fill="#FFFFFF" font-family="sans-serif" font-size="14" lengthAdjust="spacing" textLength="361.7988" x="669" y="415.5918">void map(CategoryDTO categoryDTO, Category category)</text><rect fill="#F24D5C" height="6" style="stroke:#C82930;stroke-width:1;" width="6" x="657" y="426.916"/><text fill="#FFFFFF" font-family="sans-serif" font-size="14" lengthAdjust="spacing" textLength="373.4746" x="669" y="434.2129">void mapId(CategoryDTO categoryDTO, Category category)</text><rect fill="#F24D5C" height="6" style="stroke:#C82930;stroke-width:1;" width="6" x="657" y="445.5371"/><text fill="#FFFFFF" font-family="sans-serif" font-size="14" lengthAdjust="spacing" textLength="399.1436" x="669" y="452.834">void mapName(CategoryDTO categoryDTO, Category category)</text><rect fill="#F24D5C" height="6" style="stroke:#C82930;stroke-width:1;" width="6" x="657" y="464.1582"/><text fill="#FFFFFF" font-family="sans-serif" font-size="14" lengthAdjust="spacing" textLength="409.2676" x="669" y="471.4551">void mapVersion(CategoryDTO categoryDTO, Category category)</text></g><!--reverse link Validator to LongIdValidator--><g class="link" data-entity-1="Validator" data-entity-2="LongIdValidator" data-source-line="18" data-uid="lnk6" id="link_Validator_LongIdValidator"><path d="M1192,778.63 C1192,804.55 1192,818 1192,818 C1192,818 469.75,818 469.75,818 C469.75,818 469.75,832.66 469.75,847.89" fill="none" id="Validator-backto-LongIdValidator" style="stroke:#B0C4DE;stroke-width:1;"/><polygon fill="none" points="1192,760.63,1186,778.63,1198,778.63,1192,760.63" style="stroke:#B0C4DE;stroke-width:1;"/></g><!--reverse link LongIdValidator to PositiveLongIdValidator--><g class="link" data-entity-1="LongIdValidator" data-entity-2="PositiveLongIdValidator" data-source-line="22" data-uid="lnk8" id="link_LongIdValidator_PositiveLongIdValidator"><path d="M428.5,933.25 C428.5,953.81 428.5,962.29 428.5,984.3" fill="none" id="LongIdValidator-backto-PositiveLongIdValidator" style="stroke:#B0C4DE;stroke-width:1;stroke-dasharray:7,7;"/><polygon fill="none" points="428.5,915.25,422.5,933.25,434.5,933.25,428.5,915.25" style="stroke:#B0C4DE;stroke-width:1;"/></g><!--reverse link Mapper to LongIdMapper--><g class="link" data-entity-1="Mapper" data-entity-2="LongIdMapper" data-source-line="21" data-uid="lnk10" id="link_Mapper_LongIdMapper"><path d="M742.09,55 C662.66,55 595.75,55 595.75,55 C595.75,55 595.75,424.27 595.75,538.94" fill="none" id="Mapper-backto-LongIdMapper" style="stroke:#B0C4DE;stroke-width:1;"/><polygon fill="none" points="760.09,55,742.09,49,742.09,61,760.09,55" style="stroke:#B0C4DE;stroke-width:1;"/></g><!--reverse link LongIdMapper to SimpleLongIdMapper--><g class="link" data-entity-1="LongIdMapper" data-entity-2="SimpleLongIdMapper" data-source-line="25" data-uid="lnk12" id="link_LongIdMapper_SimpleLongIdMapper"><path d="M546.5,624.02 C546.5,647.01 546.5,659.7 546.5,684.41" fill="none" id="LongIdMapper-backto-SimpleLongIdMapper" style="stroke:#B0C4DE;stroke-width:1;stroke-dasharray:7,7;"/><polygon fill="none" points="546.5,606.02,540.5,624.02,552.5,624.02,546.5,606.02" style="stroke:#B0C4DE;stroke-width:1;"/></g><!--reverse link LongIdMapper to ValidatedLongIdMapper--><g class="link" data-entity-1="LongIdMapper" data-entity-2="ValidatedLongIdMapper" data-source-line="30" data-uid="lnk14" id="link_LongIdMapper_ValidatedLongIdMapper"><path d="M367.68,573 C305.6,573 267.25,573 267.25,573 C267.25,573 267.25,622.75 267.25,665.69" fill="none" id="LongIdMapper-backto-ValidatedLongIdMapper" style="stroke:#B0C4DE;stroke-width:1;stroke-dasharray:7,7;"/><polygon fill="none" points="385.68,573,367.68,567,367.68,579,385.68,573" style="stroke:#B0C4DE;stroke-width:1;"/></g><!--link ValidatedLongIdMapper to LongIdValidator--><g class="link" data-entity-1="ValidatedLongIdMapper" data-entity-2="LongIdValidator" data-source-line="37" data-uid="lnk15" id="link_ValidatedLongIdMapper_LongIdValidator"><path codeLine="37" d="M316.25,788.06 C316.25,808.47 316.25,824.46 316.25,841.98" fill="none" id="ValidatedLongIdMapper-to-LongIdValidator" style="stroke:#B0C4DE;stroke-width:1;"/><polygon fill="#B0C4DE" points="316.25,847.98,320.25,838.98,316.25,842.98,312.25,838.98,316.25,847.98" style="stroke:#B0C4DE;stroke-width:1;"/></g><!--reverse link Validator to StringNameValidator--><g class="link" data-entity-1="Validator" data-entity-2="StringNameValidator" data-source-line="20" data-uid="lnk17" id="link_Validator_StringNameValidator"><path d="M1151.5,727 C1151.5,727 1151.75,802.54 1151.75,847.98" fill="none" id="Validator-backto-StringNameValidator" style="stroke:#B0C4DE;stroke-width:1;"/><polygon fill="none" points="1169.5,727,1151.5,721,1151.5,733,1169.5,727" style="stroke:#B0C4DE;stroke-width:1;"/></g><!--reverse link StringNameValidator to NonBlankStringNameValidator--><g class="link" data-entity-1="StringNameValidator" data-entity-2="NonBlankStringNameValidator" data-source-line="24" data-uid="lnk19" id="link_StringNameValidator_NonBlankStringNameValidator"><path d="M1007.5,933.25 C1007.5,950.96 1007.5,955.05 1007.5,974.91" fill="none" id="StringNameValidator-backto-NonBlankStringNameValidator" style="stroke:#B0C4DE;stroke-width:1;stroke-dasharray:7,7;"/><polygon fill="none" points="1007.5,915.25,1001.5,933.25,1013.5,933.25,1007.5,915.25" style="stroke:#B0C4DE;stroke-width:1;"/></g><!--reverse link Mapper to StringNameMapper--><g class="link" data-entity-1="Mapper" data-entity-2="StringNameMapper" data-source-line="21" data-uid="lnk21" id="link_Mapper_StringNameMapper"><path d="M1048.64,55 C1090.09,55 1107,55 1107,55 C1107,55 1107,424.27 1107,538.94" fill="none" id="Mapper-backto-StringNameMapper" style="stroke:#B0C4DE;stroke-width:1;"/><polygon fill="none" points="1030.64,55,1048.64,61,1048.64,49,1030.64,55" style="stroke:#B0C4DE;stroke-width:1;"/></g><!--reverse link StringNameMapper to ValidatedStringNameMapper--><g class="link" data-entity-1="StringNameMapper" data-entity-2="ValidatedStringNameMapper" data-source-line="25" data-uid="lnk23" id="link_StringNameMapper_ValidatedStringNameMapper"><path d="M938.5,624.02 C938.5,641.51 938.5,645.45 938.5,665.82" fill="none" id="StringNameMapper-backto-ValidatedStringNameMapper" style="stroke:#B0C4DE;stroke-width:1;stroke-dasharray:7,7;"/><polygon fill="none" points="938.5,606.02,932.5,624.02,944.5,624.02,938.5,606.02" style="stroke:#B0C4DE;stroke-width:1;"/></g><!--link ValidatedStringNameMapper to StringNameValidator--><g class="link" data-entity-1="ValidatedStringNameMapper" data-entity-2="StringNameValidator" data-source-line="32" data-uid="lnk24" id="link_ValidatedStringNameMapper_StringNameValidator"><path codeLine="32" d="M988.5,788.06 C988.5,808.47 988.5,824.46 988.5,841.98" fill="none" id="ValidatedStringNameMapper-to-StringNameValidator" style="stroke:#B0C4DE;stroke-width:1;"/><polygon fill="#B0C4DE" points="988.5,847.98,992.5,838.98,988.5,842.98,984.5,838.98,988.5,847.98" style="stroke:#B0C4DE;stroke-width:1;"/></g><!--reverse link Validator to LongVersionValidator--><g class="link" data-entity-1="Validator" data-entity-2="LongVersionValidator" data-source-line="20" data-uid="lnk26" id="link_Validator_LongVersionValidator"><path d="M1441.5,727 C1441.5,727 1441.25,802.54 1441.25,847.98" fill="none" id="Validator-backto-LongVersionValidator" style="stroke:#B0C4DE;stroke-width:1;"/><polygon fill="none" points="1423.5,727,1441.5,733,1441.5,721,1423.5,727" style="stroke:#B0C4DE;stroke-width:1;"/></g><!--reverse link LongVersionValidator to PositiveLongVersionValidator--><g class="link" data-entity-1="LongVersionValidator" data-entity-2="PositiveLongVersionValidator" data-source-line="24" data-uid="lnk28" id="link_LongVersionValidator_PositiveLongVersionValidator"><path d="M1593.5,933.25 C1593.5,953.81 1593.5,962.29 1593.5,984.3" fill="none" id="LongVersionValidator-backto-PositiveLongVersionValidator" style="stroke:#B0C4DE;stroke-width:1;stroke-dasharray:7,7;"/><polygon fill="none" points="1593.5,915.25,1587.5,933.25,1599.5,933.25,1593.5,915.25" style="stroke:#B0C4DE;stroke-width:1;"/></g><!--reverse link Mapper to LongVersionMapper--><g class="link" data-entity-1="Mapper" data-entity-2="LongVersionMapper" data-source-line="21" data-uid="lnk30" id="link_Mapper_LongVersionMapper"><path d="M1048.75,33 C1247.72,33 1578,33 1578,33 C1578,33 1578,420.64 1578,538.75" fill="none" id="Mapper-backto-LongVersionMapper" style="stroke:#B0C4DE;stroke-width:1;"/><polygon fill="none" points="1030.75,33,1048.75,39,1048.75,27,1030.75,33" style="stroke:#B0C4DE;stroke-width:1;"/></g><!--reverse link LongVersionMapper to SimpleLongVersionMapper--><g class="link" data-entity-1="LongVersionMapper" data-entity-2="SimpleLongVersionMapper" data-source-line="25" data-uid="lnk32" id="link_LongVersionMapper_SimpleLongVersionMapper"><path d="M1727.19,573 C1905.8,573 2123.5,573 2123.5,573 C2123.5,573 2123.5,638.54 2123.5,684.1" fill="none" id="LongVersionMapper-backto-SimpleLongVersionMapper" style="stroke:#B0C4DE;stroke-width:1;stroke-dasharray:7,7;"/><polygon fill="none" points="1709.19,573,1727.19,579,1727.19,567,1709.19,573" style="stroke:#B0C4DE;stroke-width:1;"/></g><!--reverse link LongVersionMapper to ValidatedLongVersionMapper--><g class="link" data-entity-1="LongVersionMapper" data-entity-2="ValidatedLongVersionMapper" data-source-line="30" data-uid="lnk34" id="link_LongVersionMapper_ValidatedLongVersionMapper"><path d="M1583.75,624.02 C1583.75,641.51 1583.75,645.45 1583.75,665.82" fill="none" id="LongVersionMapper-backto-ValidatedLongVersionMapper" style="stroke:#B0C4DE;stroke-width:1;stroke-dasharray:7,7;"/><polygon fill="none" points="1583.75,606.02,1577.75,624.02,1589.75,624.02,1583.75,606.02" style="stroke:#B0C4DE;stroke-width:1;"/></g><!--link ValidatedLongVersionMapper to LongVersionValidator--><g class="link" data-entity-1="ValidatedLongVersionMapper" data-entity-2="LongVersionValidator" data-source-line="37" data-uid="lnk35" id="link_ValidatedLongVersionMapper_LongVersionValidator"><path codeLine="37" d="M1610.75,788.06 C1610.75,808.47 1610.75,824.46 1610.75,841.98" fill="none" id="ValidatedLongVersionMapper-to-LongVersionValidator" style="stroke:#B0C4DE;stroke-width:1;"/><polygon fill="#B0C4DE" points="1610.75,847.98,1614.75,838.98,1610.75,842.98,1606.75,838.98,1610.75,847.98" style="stroke:#B0C4DE;stroke-width:1;"/></g><!--reverse link Mapper to CategoryDTOToCategoryMapper--><g class="link" data-entity-1="Mapper" data-entity-2="CategoryDTOToCategoryMapper" data-source-line="24" data-uid="lnk37" id="link_Mapper_CategoryDTOToCategoryMapper"><path d="M742.29,33 C632.14,33 512.75,33 512.75,33 C512.75,33 512.75,93.49 512.75,136.73" fill="none" id="Mapper-backto-CategoryDTOToCategoryMapper" style="stroke:#B0C4DE;stroke-width:1;"/><polygon fill="none" points="760.29,33,742.29,27,742.29,39,760.29,33" style="stroke:#B0C4DE;stroke-width:1;"/></g><!--reverse link ToEntityMapper to CategoryDTOToCategoryMapper--><g class="link" data-entity-1="ToEntityMapper" data-entity-2="CategoryDTOToCategoryMapper" data-source-line="24" data-uid="lnk38" id="link_ToEntityMapper_CategoryDTOToCategoryMapper"><path d="M368.5,95.12 C368.5,113.13 368.5,117.51 368.5,136.75" fill="none" id="ToEntityMapper-backto-CategoryDTOToCategoryMapper" style="stroke:#B0C4DE;stroke-width:1;"/><polygon fill="none" points="368.5,77.12,362.5,95.12,374.5,95.12,368.5,77.12" style="stroke:#B0C4DE;stroke-width:1;"/></g><!--reverse link CategoryDTOToCategoryMapper to SimpleCategoryDTOToCategoryMapper--><g class="link" data-entity-1="CategoryDTOToCategoryMapper" data-entity-2="SimpleCategoryDTOToCategoryMapper" data-source-line="29" data-uid="lnk40" id="link_CategoryDTOToCategoryMapper_SimpleCategoryDTOToCategoryMapper"><path d="M560.53,180 C642.58,180 704.75,180 704.75,180 C704.75,180 704.75,231.11 704.75,281.72" fill="none" id="CategoryDTOToCategoryMapper-backto-SimpleCategoryDTOToCategoryMapper" style="stroke:#B0C4DE;stroke-width:1;stroke-dasharray:7,7;"/><polygon fill="none" points="542.53,180,560.53,186,560.53,174,542.53,180" style="stroke:#B0C4DE;stroke-width:1;"/></g><!--link SimpleCategoryDTOToCategoryMapper to LongIdMapper--><g class="link" data-entity-1="SimpleCategoryDTOToCategoryMapper" data-entity-2="LongIdMapper" data-source-line="40" data-uid="lnk41" id="link_SimpleCategoryDTOToCategoryMapper_LongIdMapper"><path codeLine="40" d="M678,479.03 C678,500.58 678,515.95 678,532.81" fill="none" id="SimpleCategoryDTOToCategoryMapper-to-LongIdMapper" style="stroke:#B0C4DE;stroke-width:1;"/><polygon fill="#B0C4DE" points="678,538.81,682,529.81,678,533.81,674,529.81,678,538.81" style="stroke:#B0C4DE;stroke-width:1;"/></g><!--link SimpleCategoryDTOToCategoryMapper to StringNameMapper--><g class="link" data-entity-1="SimpleCategoryDTOToCategoryMapper" data-entity-2="StringNameMapper" data-source-line="41" data-uid="lnk42" id="link_SimpleCategoryDTOToCategoryMapper_StringNameMapper"><path codeLine="41" d="M915.5,479.03 C915.5,500.58 915.5,515.95 915.5,532.81" fill="none" id="SimpleCategoryDTOToCategoryMapper-to-StringNameMapper" style="stroke:#B0C4DE;stroke-width:1;"/><polygon fill="#B0C4DE" points="915.5,538.81,919.5,529.81,915.5,533.81,911.5,529.81,915.5,538.81" style="stroke:#B0C4DE;stroke-width:1;"/></g><!--link SimpleCategoryDTOToCategoryMapper to LongVersionMapper--><g class="link" data-entity-1="SimpleCategoryDTOToCategoryMapper" data-entity-2="LongVersionMapper" data-source-line="42" data-uid="lnk43" id="link_SimpleCategoryDTOToCategoryMapper_LongVersionMapper"><path codeLine="42" d="M1084.31,381 C1249.03,381 1447,381 1447,381 C1447,381 1447,477.73 1447,532.7" fill="none" id="SimpleCategoryDTOToCategoryMapper-to-LongVersionMapper" style="stroke:#B0C4DE;stroke-width:1;"/><polygon fill="#B0C4DE" points="1447,538.7,1451,529.7,1447,533.7,1443,529.7,1447,538.7" style="stroke:#B0C4DE;stroke-width:1;"/></g><!--SRC=[fL9DJy904BttLupn8X4C6W-UJCfNGY9wa7XVkaFPiDrfThSYCVvtkwM5RKKGwIPDE_FUwynxDKkXKgPP0b8ejEiKWRHTK62sZHcBbh6cJF4-IT9mUJjqnqDmdBDCsYb-s52AM2MeB4Jv3RM72hMcLIdHw_Rl1xw4MJ1EAw5Yc3DfqEkCIDcIDIekhnT9PinHG6Yj5hFCub7a1FFL-KzO4mUV0K2lwSlTm1tN8SrHbzM7q9sywiaEk-u4Nq5m8LGaCuumOMcA-YRD4hahJccehB3hlSqdKl6OxsszvWkh-9ab-2lp3RKHfFn-85nYSnOXz9d5cFHwC7sPKlMomKAUCYfkoedRZI4BQm2kuPq4XuIbLvuM6CfqXEsjFbYcOxIjahCjvxnAjiQFTiyjPzycZLUHf18FpLm0t6zf3gwscRrJinQazrBsc_w2QHGydPhHXLYj4lnhzGCMUpZFvwhQAYUhg6D-1jdjUmQzzE4aXJppusbtEe-r2Fz8QQPwmfTgaNu3]--></g></svg>