<svg xmlns="http://www.w3.org/2000/svg" contentStyleType="text/css" data-diagram-type="CLASS" height="374px"
     preserveAspectRatio="none" style="width:447px;height:374px;background:#1E1E1E;" version="1.1" viewBox="0 0 447 374"
     width="447px" zoomAndPan="magnify"><defs/><g><rect fill="#1E1E1E" height="374" style="stroke:none;stroke-width:1;" width="447" x="0" y="0"/><!--class Validator--><g class="entity" data-entity="Validator" data-source-line="17" data-uid="ent0002" id="entity_Validator"><rect fill="#2D2D2D" height="66.6211" rx="2.5" ry="2.5" style="stroke:#8A8A8A;stroke-width:0.5;" width="254.0127" x="97" y="10"/><ellipse cx="164.1162" cy="26" fill="#B4A7E5" rx="11" ry="11" style="stroke:#181818;stroke-width:1;"/><path d="M165.0693,22.6406 L165.0693,29.2969 L166.7881,29.2969 Q167.3975,29.2969 167.6631,29.5313 Q167.9287,29.7656 167.9287,30.1563 Q167.9287,30.5313 167.6631,30.7656 Q167.3975,31 166.7881,31 L161.6475,31 Q161.0381,31 160.7725,30.7656 Q160.5068,30.5313 160.5068,30.1406 Q160.5068,29.7656 160.7725,29.5313 Q161.0381,29.2969 161.6475,29.2969 L163.3662,29.2969 L163.3662,22.6406 L161.6475,22.6406 Q161.0381,22.6406 160.7725,22.4063 Q160.5068,22.1719 160.5068,21.7813 Q160.5068,21.4063 160.7725,21.1719 Q161.0381,20.9375 161.6475,20.9375 L166.7881,20.9375 Q167.3975,20.9375 167.6631,21.1719 Q167.9287,21.4063 167.9287,21.7813 Q167.9287,22.1719 167.6631,22.4063 Q167.3975,22.6406 166.7881,22.6406 L165.0693,22.6406 Z " fill="#000000"/><text fill="#E0E0E0" font-family="sans-serif" font-size="14" font-style="italic" lengthAdjust="spacing" textLength="55.2549" x="184.6162" y="31.7969">Validator</text><rect fill="#2D2D2D" height="17.9609" style="stroke:#8A8A8A;stroke-width:1;stroke-dasharray:2,2;" width="54.0254" x="299.9873" y="7"/><text fill="#000000" font-family="sans-serif" font-size="12" font-style="italic" lengthAdjust="spacing" textLength="52.0254" x="300.9873" y="20.9492">Argument</text><line style="stroke:#8A8A8A;stroke-width:0.5;" x1="98" x2="350.0127" y1="42" y2="42"/><line style="stroke:#8A8A8A;stroke-width:0.5;" x1="98" x2="350.0127" y1="50" y2="50"/><ellipse cx="108" cy="64.8105" fill="#84BE84" rx="3" ry="3" style="stroke:#038048;stroke-width:1;"/><text fill="#FFFFFF" font-family="sans-serif" font-size="14" lengthAdjust="spacing" textLength="228.0127" x="117" y="69.1074">boolean isValid(Argument argument)</text></g><!--class DescriptionValidator--><g class="entity" data-entity="DescriptionValidator" data-source-line="19" data-uid="ent0003" id="entity_DescriptionValidator"><rect fill="#2D2D2D" height="66.6211" rx="2.5" ry="2.5" style="stroke:#8A8A8A;stroke-width:0.5;" width="321.6953" x="63" y="137"/><ellipse cx="156.9565" cy="153" fill="#B4A7E5" rx="11" ry="11" style="stroke:#181818;stroke-width:1;"/><path d="M157.9097,149.6406 L157.9097,156.2969 L159.6284,156.2969 Q160.2378,156.2969 160.5034,156.5313 Q160.769,156.7656 160.769,157.1563 Q160.769,157.5313 160.5034,157.7656 Q160.2378,158 159.6284,158 L154.4878,158 Q153.8784,158 153.6128,157.7656 Q153.3472,157.5313 153.3472,157.1406 Q153.3472,156.7656 153.6128,156.5313 Q153.8784,156.2969 154.4878,156.2969 L156.2065,156.2969 L156.2065,149.6406 L154.4878,149.6406 Q153.8784,149.6406 153.6128,149.4063 Q153.3472,149.1719 153.3472,148.7813 Q153.3472,148.4063 153.6128,148.1719 Q153.8784,147.9375 154.4878,147.9375 L159.6284,147.9375 Q160.2378,147.9375 160.5034,148.1719 Q160.769,148.4063 160.769,148.7813 Q160.769,149.1719 160.5034,149.4063 Q160.2378,149.6406 159.6284,149.6406 L157.9097,149.6406 Z " fill="#000000"/><text fill="#E0E0E0" font-family="sans-serif" font-size="14" font-style="italic" lengthAdjust="spacing" textLength="125.2822" x="177.4565" y="158.7969">DescriptionValidator</text><line style="stroke:#8A8A8A;stroke-width:0.5;" x1="64" x2="383.6953" y1="169" y2="169"/><line style="stroke:#8A8A8A;stroke-width:0.5;" x1="64" x2="383.6953" y1="177" y2="177"/><ellipse cx="74" cy="191.8105" fill="#84BE84" rx="3" ry="3" style="stroke:#038048;stroke-width:1;"/><text fill="#FFFFFF" font-family="sans-serif" font-size="14" lengthAdjust="spacing" textLength="295.6953" x="83" y="196.1074">boolean isValid(HasDescription hasDescription)</text></g><!--class NonBlankDescriptionValidator--><g class="entity" data-entity="NonBlankDescriptionValidator" data-source-line="23" data-uid="ent0005" id="entity_NonBlankDescriptionValidator"><rect fill="#2D2D2D" height="103.8633" rx="2.5" ry="2.5" style="stroke:#8A8A8A;stroke-width:0.5;" width="433.7568" x="7" y="264"/><ellipse cx="126.6357" cy="280" fill="#ADD1B2" rx="11" ry="11" style="stroke:#181818;stroke-width:1;"/><path d="M129.4014,275.875 Q129.5576,275.6563 129.7451,275.5469 Q129.9326,275.4375 130.1514,275.4375 Q130.5264,275.4375 130.7607,275.7031 Q130.9951,275.9531 130.9951,276.5625 L130.9951,278.0156 Q130.9951,278.625 130.7607,278.8906 Q130.5264,279.1563 130.1514,279.1563 Q129.8076,279.1563 129.6045,278.9531 Q129.4014,278.7656 129.292,278.25 Q129.2451,277.8906 129.0576,277.7031 Q128.7295,277.3281 128.1201,277.1094 Q127.5107,276.8906 126.8857,276.8906 Q126.1201,276.8906 125.4795,277.2188 Q124.8545,277.5469 124.3545,278.2969 Q123.8701,279.0469 123.8701,280.0781 L123.8701,281.1719 Q123.8701,282.4063 124.7607,283.2344 Q125.6514,284.0469 127.2451,284.0469 Q128.1826,284.0469 128.8389,283.7969 Q129.2295,283.6406 129.6514,283.2031 Q129.917,282.9375 130.0576,282.8594 Q130.2139,282.7813 130.417,282.7813 Q130.7451,282.7813 130.9951,283.0469 Q131.2607,283.2969 131.2607,283.6406 Q131.2607,283.9844 130.917,284.3906 Q130.417,284.9688 129.6201,285.2969 Q128.542,285.75 127.2451,285.75 Q125.7295,285.75 124.5264,285.125 Q123.542,284.625 122.8545,283.5625 Q122.167,282.4844 122.167,281.2031 L122.167,280.0469 Q122.167,278.7188 122.7764,277.5781 Q123.4014,276.4219 124.4951,275.8125 Q125.5889,275.1875 126.8232,275.1875 Q127.5576,275.1875 128.1982,275.3594 Q128.8545,275.5156 129.4014,275.875 Z " fill="#000000"/><text fill="#E0E0E0" font-family="sans-serif" font-size="14" lengthAdjust="spacing" textLength="185.9854" x="147.1357" y="285.7969">NonBlankDescriptionValidator</text><line style="stroke:#8A8A8A;stroke-width:0.5;" x1="8" x2="439.7568" y1="296" y2="296"/><line style="stroke:#8A8A8A;stroke-width:0.5;" x1="8" x2="439.7568" y1="304" y2="304"/><ellipse cx="18" cy="318.8105" fill="#84BE84" rx="3" ry="3" style="stroke:#038048;stroke-width:1;"/><text fill="#FFFFFF" font-family="sans-serif" font-size="14" lengthAdjust="spacing" textLength="295.6953" x="27" y="323.1074">boolean isValid(HasDescription hasDescription)</text><rect fill="#F24D5C" height="6" style="stroke:#C82930;stroke-width:1;" width="6" x="15" y="334.4316"/><text fill="#FFFFFF" font-family="sans-serif" font-size="14" lengthAdjust="spacing" textLength="407.7568" x="27" y="341.7285">boolean hasNonBlankDescription(HasDescription hasDescription)</text><rect fill="#F24D5C" height="6" style="stroke:#C82930;stroke-width:1;" width="6" x="15" y="353.0527"/><text fill="#FFFFFF" font-family="sans-serif" font-size="14" lengthAdjust="spacing" textLength="382.0742" x="27" y="360.3496">boolean hasBlankDescription(HasDescription hasDescription)</text></g><!--reverse link Validator to DescriptionValidator--><g class="link" data-entity-1="Validator" data-entity-2="DescriptionValidator" data-source-line="20" data-uid="lnk4" id="link_Validator_DescriptionValidator"><path d="M224,95.2 C224,113.57 224,118.25 224,136.64" fill="none" id="Validator-backto-DescriptionValidator" style="stroke:#B0C4DE;stroke-width:1;"/><polygon fill="none" points="224,77.2,218,95.2,230,95.2,224,77.2" style="stroke:#B0C4DE;stroke-width:1;"/></g><!--reverse link DescriptionValidator to NonBlankDescriptionValidator--><g class="link" data-entity-1="DescriptionValidator" data-entity-2="NonBlankDescriptionValidator" data-source-line="24" data-uid="lnk6" id="link_DescriptionValidator_NonBlankDescriptionValidator"><path d="M224,222.25 C224,239.96 224,244.05 224,263.91" fill="none" id="DescriptionValidator-backto-NonBlankDescriptionValidator" style="stroke:#B0C4DE;stroke-width:1;stroke-dasharray:7,7;"/><polygon fill="none" points="224,204.25,218,222.25,230,222.25,224,204.25" style="stroke:#B0C4DE;stroke-width:1;"/></g><!--SRC=[dL5BJyCm3BxdLnXn0I7GG1oujkicBd12tDt6RQEbTfMa6WZjlzECQeGnQTfYALByFVo8NndkqM47rZ25pvv0N6X5-HrGOhLgd0oivsB5mUNz8aR2q5JZOCCRVOJCceOxuW3LU95BM9bpifuiyjdyiKWjV8jQreORgD5wIf2bS9XKo-r9iCgYzqS9MGZEb4EWeymN6aVN_sdxFFXI0Fd-NXwA614HfybDsQSinfXDR1Up66gZr8NXoWwQu1sjqHZ4tVL3PvKoSNirLWG5-SgPFXZX7Gd6LHDh_olRjWHm0wM89MGmVejTFQDF7A3zyxoEFVoCz2gSM-JLmNAcwot5R_M7spcpU1JTxaGZUg29aprEDTXy0m00]--></g></svg>