<svg xmlns="http://www.w3.org/2000/svg" contentStyleType="text/css" data-diagram-type="CLASS" height="356px"
     preserveAspectRatio="none" style="width:373px;height:356px;background:#1E1E1E;" version="1.1" viewBox="0 0 373 356"
     width="373px" zoomAndPan="magnify"><defs/><g><rect fill="#1E1E1E" height="356" style="stroke:none;stroke-width:1;" width="373" x="0" y="0"/><!--class ToValueMapper--><g class="entity" data-entity="ToValueMapper" data-source-line="17" data-uid="ent0002" id="entity_ToValueMapper"><rect fill="#2D2D2D" height="66.6211" rx="2.5" ry="2.5" style="stroke:#8A8A8A;stroke-width:0.5;" width="244.668" x="64.5" y="10"/><ellipse cx="94.6532" cy="26" fill="#B4A7E5" rx="11" ry="11" style="stroke:#181818;stroke-width:1;"/><path d="M95.6063,22.6406 L95.6063,29.2969 L97.3251,29.2969 Q97.9345,29.2969 98.2001,29.5313 Q98.4657,29.7656 98.4657,30.1563 Q98.4657,30.5313 98.2001,30.7656 Q97.9345,31 97.3251,31 L92.1845,31 Q91.5751,31 91.3095,30.7656 Q91.0438,30.5313 91.0438,30.1406 Q91.0438,29.7656 91.3095,29.5313 Q91.5751,29.2969 92.1845,29.2969 L93.9032,29.2969 L93.9032,22.6406 L92.1845,22.6406 Q91.5751,22.6406 91.3095,22.4063 Q91.0438,22.1719 91.0438,21.7813 Q91.0438,21.4063 91.3095,21.1719 Q91.5751,20.9375 92.1845,20.9375 L97.3251,20.9375 Q97.9345,20.9375 98.2001,21.1719 Q98.4657,21.4063 98.4657,21.7813 Q98.4657,22.1719 98.2001,22.4063 Q97.9345,22.6406 97.3251,22.6406 L95.6063,22.6406 Z " fill="#000000"/><text fill="#E0E0E0" font-family="sans-serif" font-size="14" font-style="italic" lengthAdjust="spacing" textLength="99.6133" x="112.0206" y="31.7969">ToValueMapper</text><rect fill="#2D2D2D" height="17.9609" style="stroke:#8A8A8A;stroke-width:1;stroke-dasharray:2,2;" width="77.3809" x="234.7871" y="7"/><text fill="#000000" font-family="sans-serif" font-size="12" font-style="italic" lengthAdjust="spacing" textLength="75.3809" x="235.7871" y="20.9492">Source, Value</text><line style="stroke:#8A8A8A;stroke-width:0.5;" x1="65.5" x2="308.168" y1="42" y2="42"/><line style="stroke:#8A8A8A;stroke-width:0.5;" x1="65.5" x2="308.168" y1="50" y2="50"/><ellipse cx="75.5" cy="64.8105" fill="#84BE84" rx="3" ry="3" style="stroke:#038048;stroke-width:1;"/><text fill="#FFFFFF" font-family="sans-serif" font-size="14" lengthAdjust="spacing" textLength="218.668" x="84.5" y="69.1074">Value mapToValue(Source source)</text></g><!--class DifficultyToDifficultyDTOMapper--><g class="entity" data-entity="DifficultyToDifficultyDTOMapper" data-source-line="19" data-uid="ent0003" id="entity_DifficultyToDifficultyDTOMapper"><rect fill="#2D2D2D" height="66.6211" rx="2.5" ry="2.5" style="stroke:#8A8A8A;stroke-width:0.5;" width="308.3994" x="33" y="137"/><ellipse cx="83.374" cy="153" fill="#B4A7E5" rx="11" ry="11" style="stroke:#181818;stroke-width:1;"/><path d="M84.3271,149.6406 L84.3271,156.2969 L86.0459,156.2969 Q86.6553,156.2969 86.9209,156.5313 Q87.1865,156.7656 87.1865,157.1563 Q87.1865,157.5313 86.9209,157.7656 Q86.6553,158 86.0459,158 L80.9053,158 Q80.2959,158 80.0303,157.7656 Q79.7646,157.5313 79.7646,157.1406 Q79.7646,156.7656 80.0303,156.5313 Q80.2959,156.2969 80.9053,156.2969 L82.624,156.2969 L82.624,149.6406 L80.9053,149.6406 Q80.2959,149.6406 80.0303,149.4063 Q79.7646,149.1719 79.7646,148.7813 Q79.7646,148.4063 80.0303,148.1719 Q80.2959,147.9375 80.9053,147.9375 L86.0459,147.9375 Q86.6553,147.9375 86.9209,148.1719 Q87.1865,148.4063 87.1865,148.7813 Q87.1865,149.1719 86.9209,149.4063 Q86.6553,149.6406 86.0459,149.6406 L84.3271,149.6406 Z " fill="#000000"/><text fill="#E0E0E0" font-family="sans-serif" font-size="14" font-style="italic" lengthAdjust="spacing" textLength="199.1514" x="103.874" y="158.7969">DifficultyToDifficultyDTOMapper</text><line style="stroke:#8A8A8A;stroke-width:0.5;" x1="34" x2="340.3994" y1="169" y2="169"/><line style="stroke:#8A8A8A;stroke-width:0.5;" x1="34" x2="340.3994" y1="177" y2="177"/><ellipse cx="44" cy="191.8105" fill="#84BE84" rx="3" ry="3" style="stroke:#038048;stroke-width:1;"/><text fill="#FFFFFF" font-family="sans-serif" font-size="14" lengthAdjust="spacing" textLength="282.3994" x="53" y="196.1074">DifficultyDTO mapToValue(Difficulty difficulty)</text></g><!--class SimpleDifficultyToDifficultyDTOMapper--><g class="entity" data-entity="SimpleDifficultyToDifficultyDTOMapper" data-source-line="23" data-uid="ent0005" id="entity_SimpleDifficultyToDifficultyDTOMapper"><rect fill="#2D2D2D" height="85.2422" rx="2.5" ry="2.5" style="stroke:#8A8A8A;stroke-width:0.5;" width="359.7031" x="7" y="264"/><ellipse cx="61.6294" cy="280" fill="#ADD1B2" rx="11" ry="11" style="stroke:#181818;stroke-width:1;"/><path d="M64.395,275.875 Q64.5513,275.6563 64.7388,275.5469 Q64.9263,275.4375 65.145,275.4375 Q65.52,275.4375 65.7544,275.7031 Q65.9888,275.9531 65.9888,276.5625 L65.9888,278.0156 Q65.9888,278.625 65.7544,278.8906 Q65.52,279.1563 65.145,279.1563 Q64.8013,279.1563 64.5981,278.9531 Q64.395,278.7656 64.2856,278.25 Q64.2388,277.8906 64.0513,277.7031 Q63.7231,277.3281 63.1138,277.1094 Q62.5044,276.8906 61.8794,276.8906 Q61.1138,276.8906 60.4731,277.2188 Q59.8481,277.5469 59.3481,278.2969 Q58.8638,279.0469 58.8638,280.0781 L58.8638,281.1719 Q58.8638,282.4063 59.7544,283.2344 Q60.645,284.0469 62.2388,284.0469 Q63.1763,284.0469 63.8325,283.7969 Q64.2231,283.6406 64.645,283.2031 Q64.9106,282.9375 65.0513,282.8594 Q65.2075,282.7813 65.4106,282.7813 Q65.7388,282.7813 65.9888,283.0469 Q66.2544,283.2969 66.2544,283.6406 Q66.2544,283.9844 65.9106,284.3906 Q65.4106,284.9688 64.6138,285.2969 Q63.5356,285.75 62.2388,285.75 Q60.7231,285.75 59.52,285.125 Q58.5356,284.625 57.8481,283.5625 Q57.1606,282.4844 57.1606,281.2031 L57.1606,280.0469 Q57.1606,278.7188 57.77,277.5781 Q58.395,276.4219 59.4888,275.8125 Q60.5825,275.1875 61.8169,275.1875 Q62.5513,275.1875 63.1919,275.3594 Q63.8481,275.5156 64.395,275.875 Z " fill="#000000"/><text fill="#E0E0E0" font-family="sans-serif" font-size="14" lengthAdjust="spacing" textLength="241.9443" x="82.1294" y="285.7969">SimpleDifficultyToDifficultyDTOMapper</text><line style="stroke:#8A8A8A;stroke-width:0.5;" x1="8" x2="365.7031" y1="296" y2="296"/><line style="stroke:#8A8A8A;stroke-width:0.5;" x1="8" x2="365.7031" y1="304" y2="304"/><ellipse cx="18" cy="318.8105" fill="#84BE84" rx="3" ry="3" style="stroke:#038048;stroke-width:1;"/><text fill="#FFFFFF" font-family="sans-serif" font-size="14" lengthAdjust="spacing" textLength="282.3994" x="27" y="323.1074">DifficultyDTO mapToValue(Difficulty difficulty)</text><rect fill="#F24D5C" height="6" style="stroke:#C82930;stroke-width:1;" width="6" x="15" y="334.4316"/><text fill="#FFFFFF" font-family="sans-serif" font-size="14" lengthAdjust="spacing" textLength="333.7031" x="27" y="341.7285">DifficultyDTO mapToDifficultyDTO((Difficulty difficulty)</text></g><!--reverse link ToValueMapper to DifficultyToDifficultyDTOMapper--><g class="link" data-entity-1="ToValueMapper" data-entity-2="DifficultyToDifficultyDTOMapper" data-source-line="20" data-uid="lnk4" id="link_ToValueMapper_DifficultyToDifficultyDTOMapper"><path d="M187,95.2 C187,113.57 187,118.25 187,136.64" fill="none" id="ToValueMapper-backto-DifficultyToDifficultyDTOMapper" style="stroke:#B0C4DE;stroke-width:1;"/><polygon fill="none" points="187,77.2,181,95.2,193,95.2,187,77.2" style="stroke:#B0C4DE;stroke-width:1;"/></g><!--reverse link DifficultyToDifficultyDTOMapper to SimpleDifficultyToDifficultyDTOMapper--><g class="link" data-entity-1="DifficultyToDifficultyDTOMapper" data-entity-2="SimpleDifficultyToDifficultyDTOMapper" data-source-line="24" data-uid="lnk6" id="link_DifficultyToDifficultyDTOMapper_SimpleDifficultyToDifficultyDTOMapper"><path d="M187,222.12 C187,240.13 187,244.51 187,263.75" fill="none" id="DifficultyToDifficultyDTOMapper-backto-SimpleDifficultyToDifficultyDTOMapper" style="stroke:#B0C4DE;stroke-width:1;stroke-dasharray:7,7;"/><polygon fill="none" points="187,204.12,181,222.12,193,222.12,187,204.12" style="stroke:#B0C4DE;stroke-width:1;"/></g><!--SRC=[dP71JiCm38RlUGeZBaC8D107hjswtIOELDopnEsYfKda91eJujrfkchB1gZIOYco_7zsRCTlbN6SU0jQ6GnxXs0fR2ppHs7DnROX6usSMsq9RfyMoJ92OisZ3XL-XaAhnhHe0eZkGigeWiZkXXApwVobp4lu3PTsfqm3DTSUCsLfJHYoblt9DA6vzwD04GAfTGmuIgwm6rt-nYuv-680iykzF9V9ac998WtHro9P5ytABgR9s3TZDye87IL2PJ-uZhZYpY4zkjXgnbJQOCq5GgdgMebkn_lAdlooUZlmq6qUZVJdLVek0UxXB0DQxWPiSX907jsxrDTXp7VLEerZZ_TG-dC_skUr7QMiXx-opaAJVmVw0G00]--></g></svg>