<svg xmlns="http://www.w3.org/2000/svg" contentStyleType="text/css" data-diagram-type="CLASS" height="1561px"
     preserveAspectRatio="none" style="width:2425px;height:1561px;background:#1E1E1E;" version="1.1"
     viewBox="0 0 2425 1561" width="2425px" zoomAndPan="magnify"><defs/><g><rect fill="#1E1E1E" height="1561" style="stroke:none;stroke-width:1;" width="2425" x="0" y="0"/><!--class Mapper--><g class="entity" data-entity="Mapper" data-source-line="17" data-uid="ent0002" id="entity_Mapper"><rect fill="#2D2D2D" height="66.6211" rx="2.5" ry="2.5" style="stroke:#8A8A8A;stroke-width:0.5;" width="270.3301" x="1075.5" y="10"/><ellipse cx="1140.9951" cy="26" fill="#B4A7E5" rx="11" ry="11" style="stroke:#181818;stroke-width:1;"/><path d="M1141.9482,22.6406 L1141.9482,29.2969 L1143.667,29.2969 Q1144.2764,29.2969 1144.542,29.5313 Q1144.8076,29.7656 1144.8076,30.1563 Q1144.8076,30.5313 1144.542,30.7656 Q1144.2764,31 1143.667,31 L1138.5264,31 Q1137.917,31 1137.6514,30.7656 Q1137.3857,30.5313 1137.3857,30.1406 Q1137.3857,29.7656 1137.6514,29.5313 Q1137.917,29.2969 1138.5264,29.2969 L1140.2451,29.2969 L1140.2451,22.6406 L1138.5264,22.6406 Q1137.917,22.6406 1137.6514,22.4063 Q1137.3857,22.1719 1137.3857,21.7813 Q1137.3857,21.4063 1137.6514,21.1719 Q1137.917,20.9375 1138.5264,20.9375 L1143.667,20.9375 Q1144.2764,20.9375 1144.542,21.1719 Q1144.8076,21.4063 1144.8076,21.7813 Q1144.8076,22.1719 1144.542,22.4063 Q1144.2764,22.6406 1143.667,22.6406 L1141.9482,22.6406 Z " fill="#000000"/><text fill="#E0E0E0" font-family="sans-serif" font-size="14" font-style="italic" lengthAdjust="spacing" textLength="47.4688" x="1161.4951" y="31.7969">Mapper</text><rect fill="#2D2D2D" height="17.9609" style="stroke:#8A8A8A;stroke-width:1;stroke-dasharray:2,2;" width="81.3711" x="1267.459" y="7"/><text fill="#000000" font-family="sans-serif" font-size="12" font-style="italic" lengthAdjust="spacing" textLength="79.3711" x="1268.459" y="20.9492">Source, Target</text><line style="stroke:#8A8A8A;stroke-width:0.5;" x1="1076.5" x2="1344.8301" y1="42" y2="42"/><line style="stroke:#8A8A8A;stroke-width:0.5;" x1="1076.5" x2="1344.8301" y1="50" y2="50"/><ellipse cx="1086.5" cy="64.8105" fill="#84BE84" rx="3" ry="3" style="stroke:#038048;stroke-width:1;"/><text fill="#FFFFFF" font-family="sans-serif" font-size="14" lengthAdjust="spacing" textLength="244.3301" x="1095.5" y="69.1074">void map(Source source, Target target)</text></g><!--class ToDTOMapper--><g class="entity" data-entity="ToDTOMapper" data-source-line="17" data-uid="ent0003" id="entity_ToDTOMapper"><rect fill="#2D2D2D" height="66.6211" rx="2.5" ry="2.5" style="stroke:#8A8A8A;stroke-width:0.5;" width="232.1582" x="473.5" y="10"/><ellipse cx="503.2511" cy="26" fill="#B4A7E5" rx="11" ry="11" style="stroke:#181818;stroke-width:1;"/><path d="M504.2042,22.6406 L504.2042,29.2969 L505.923,29.2969 Q506.5324,29.2969 506.798,29.5313 Q507.0636,29.7656 507.0636,30.1563 Q507.0636,30.5313 506.798,30.7656 Q506.5324,31 505.923,31 L500.7824,31 Q500.173,31 499.9074,30.7656 Q499.6417,30.5313 499.6417,30.1406 Q499.6417,29.7656 499.9074,29.5313 Q500.173,29.2969 500.7824,29.2969 L502.5011,29.2969 L502.5011,22.6406 L500.7824,22.6406 Q500.173,22.6406 499.9074,22.4063 Q499.6417,22.1719 499.6417,21.7813 Q499.6417,21.4063 499.9074,21.1719 Q500.173,20.9375 500.7824,20.9375 L505.923,20.9375 Q506.5324,20.9375 506.798,21.1719 Q507.0636,21.4063 507.0636,21.7813 Q507.0636,22.1719 506.798,22.4063 Q506.5324,22.6406 505.923,22.6406 L504.2042,22.6406 Z " fill="#000000"/><text fill="#E0E0E0" font-family="sans-serif" font-size="14" font-style="italic" lengthAdjust="spacing" textLength="93.3584" x="520.5292" y="31.7969">ToDTOMapper</text><rect fill="#2D2D2D" height="17.9609" style="stroke:#8A8A8A;stroke-width:1;stroke-dasharray:2,2;" width="72.0195" x="636.6387" y="7"/><text fill="#000000" font-family="sans-serif" font-size="12" font-style="italic" lengthAdjust="spacing" textLength="70.0195" x="637.6387" y="20.9492">Source, DTO</text><line style="stroke:#8A8A8A;stroke-width:0.5;" x1="474.5" x2="704.6582" y1="42" y2="42"/><line style="stroke:#8A8A8A;stroke-width:0.5;" x1="474.5" x2="704.6582" y1="50" y2="50"/><ellipse cx="484.5" cy="64.8105" fill="#84BE84" rx="3" ry="3" style="stroke:#038048;stroke-width:1;"/><text fill="#FFFFFF" font-family="sans-serif" font-size="14" lengthAdjust="spacing" textLength="206.1582" x="493.5" y="69.1074">DTO mapToDTO(Source source)</text></g><!--class LongIdValidator--><g class="entity" data-entity="LongIdValidator" data-source-line="17" data-uid="ent0004" id="entity_LongIdValidator"><rect fill="#2D2D2D" height="66.6211" rx="2.5" ry="2.5" style="stroke:#8A8A8A;stroke-width:0.5;" width="271.9434" x="476.5" y="1324"/><ellipse cx="559.1841" cy="1340" fill="#B4A7E5" rx="11" ry="11" style="stroke:#181818;stroke-width:1;"/><path d="M560.1372,1336.6406 L560.1372,1343.2969 L561.856,1343.2969 Q562.4653,1343.2969 562.731,1343.5313 Q562.9966,1343.7656 562.9966,1344.1563 Q562.9966,1344.5313 562.731,1344.7656 Q562.4653,1345 561.856,1345 L556.7153,1345 Q556.106,1345 555.8403,1344.7656 Q555.5747,1344.5313 555.5747,1344.1406 Q555.5747,1343.7656 555.8403,1343.5313 Q556.106,1343.2969 556.7153,1343.2969 L558.4341,1343.2969 L558.4341,1336.6406 L556.7153,1336.6406 Q556.106,1336.6406 555.8403,1336.4063 Q555.5747,1336.1719 555.5747,1335.7813 Q555.5747,1335.4063 555.8403,1335.1719 Q556.106,1334.9375 556.7153,1334.9375 L561.856,1334.9375 Q562.4653,1334.9375 562.731,1335.1719 Q562.9966,1335.4063 562.9966,1335.7813 Q562.9966,1336.1719 562.731,1336.4063 Q562.4653,1336.6406 561.856,1336.6406 L560.1372,1336.6406 Z " fill="#000000"/><text fill="#E0E0E0" font-family="sans-serif" font-size="14" font-style="italic" lengthAdjust="spacing" textLength="98.0752" x="579.6841" y="1345.7969">LongIdValidator</text><line style="stroke:#8A8A8A;stroke-width:0.5;" x1="477.5" x2="747.4434" y1="1356" y2="1356"/><line style="stroke:#8A8A8A;stroke-width:0.5;" x1="477.5" x2="747.4434" y1="1364" y2="1364"/><ellipse cx="487.5" cy="1378.8105" fill="#84BE84" rx="3" ry="3" style="stroke:#038048;stroke-width:1;"/><text fill="#FFFFFF" font-family="sans-serif" font-size="14" lengthAdjust="spacing" textLength="245.9434" x="496.5" y="1383.1074">boolean isValid(HasLongId hasLongId))</text></g><!--class Validator--><g class="entity" data-entity="Validator" data-source-line="18" data-uid="ent0005" id="entity_Validator"><rect fill="#2D2D2D" height="66.6211" rx="2.5" ry="2.5" style="stroke:#8A8A8A;stroke-width:0.5;" width="254.0127" x="1169.5" y="1169.5"/><ellipse cx="1236.6162" cy="1185.5" fill="#B4A7E5" rx="11" ry="11" style="stroke:#181818;stroke-width:1;"/><path d="M1237.5693,1182.1406 L1237.5693,1188.7969 L1239.2881,1188.7969 Q1239.8975,1188.7969 1240.1631,1189.0313 Q1240.4287,1189.2656 1240.4287,1189.6563 Q1240.4287,1190.0313 1240.1631,1190.2656 Q1239.8975,1190.5 1239.2881,1190.5 L1234.1475,1190.5 Q1233.5381,1190.5 1233.2725,1190.2656 Q1233.0068,1190.0313 1233.0068,1189.6406 Q1233.0068,1189.2656 1233.2725,1189.0313 Q1233.5381,1188.7969 1234.1475,1188.7969 L1235.8662,1188.7969 L1235.8662,1182.1406 L1234.1475,1182.1406 Q1233.5381,1182.1406 1233.2725,1181.9063 Q1233.0068,1181.6719 1233.0068,1181.2813 Q1233.0068,1180.9063 1233.2725,1180.6719 Q1233.5381,1180.4375 1234.1475,1180.4375 L1239.2881,1180.4375 Q1239.8975,1180.4375 1240.1631,1180.6719 Q1240.4287,1180.9063 1240.4287,1181.2813 Q1240.4287,1181.6719 1240.1631,1181.9063 Q1239.8975,1182.1406 1239.2881,1182.1406 L1237.5693,1182.1406 Z " fill="#000000"/><text fill="#E0E0E0" font-family="sans-serif" font-size="14" font-style="italic" lengthAdjust="spacing" textLength="55.2549" x="1257.1162" y="1191.2969">Validator</text><rect fill="#2D2D2D" height="17.9609" style="stroke:#8A8A8A;stroke-width:1;stroke-dasharray:2,2;" width="54.0254" x="1372.4873" y="1166.5"/><text fill="#000000" font-family="sans-serif" font-size="12" font-style="italic" lengthAdjust="spacing" textLength="52.0254" x="1373.4873" y="1180.4492">Argument</text><line style="stroke:#8A8A8A;stroke-width:0.5;" x1="1170.5" x2="1422.5127" y1="1201.5" y2="1201.5"/><line style="stroke:#8A8A8A;stroke-width:0.5;" x1="1170.5" x2="1422.5127" y1="1209.5" y2="1209.5"/><ellipse cx="1180.5" cy="1224.3105" fill="#84BE84" rx="3" ry="3" style="stroke:#038048;stroke-width:1;"/><text fill="#FFFFFF" font-family="sans-serif" font-size="14" lengthAdjust="spacing" textLength="228.0127" x="1189.5" y="1228.6074">boolean isValid(Argument argument)</text></g><!--class PositiveLongIdValidator--><g class="entity" data-entity="PositiveLongIdValidator" data-source-line="21" data-uid="ent0007" id="entity_PositiveLongIdValidator"><rect fill="#2D2D2D" height="85.2422" rx="2.5" ry="2.5" style="stroke:#8A8A8A;stroke-width:0.5;" width="309.3086" x="458" y="1460.5"/><ellipse cx="534.8564" cy="1476.5" fill="#ADD1B2" rx="11" ry="11" style="stroke:#181818;stroke-width:1;"/><path d="M537.6221,1472.375 Q537.7783,1472.1563 537.9658,1472.0469 Q538.1533,1471.9375 538.3721,1471.9375 Q538.7471,1471.9375 538.9814,1472.2031 Q539.2158,1472.4531 539.2158,1473.0625 L539.2158,1474.5156 Q539.2158,1475.125 538.9814,1475.3906 Q538.7471,1475.6563 538.3721,1475.6563 Q538.0283,1475.6563 537.8252,1475.4531 Q537.6221,1475.2656 537.5127,1474.75 Q537.4658,1474.3906 537.2783,1474.2031 Q536.9502,1473.8281 536.3408,1473.6094 Q535.7314,1473.3906 535.1064,1473.3906 Q534.3408,1473.3906 533.7002,1473.7188 Q533.0752,1474.0469 532.5752,1474.7969 Q532.0908,1475.5469 532.0908,1476.5781 L532.0908,1477.6719 Q532.0908,1478.9063 532.9814,1479.7344 Q533.8721,1480.5469 535.4658,1480.5469 Q536.4033,1480.5469 537.0596,1480.2969 Q537.4502,1480.1406 537.8721,1479.7031 Q538.1377,1479.4375 538.2783,1479.3594 Q538.4346,1479.2813 538.6377,1479.2813 Q538.9658,1479.2813 539.2158,1479.5469 Q539.4814,1479.7969 539.4814,1480.1406 Q539.4814,1480.4844 539.1377,1480.8906 Q538.6377,1481.4688 537.8408,1481.7969 Q536.7627,1482.25 535.4658,1482.25 Q533.9502,1482.25 532.7471,1481.625 Q531.7627,1481.125 531.0752,1480.0625 Q530.3877,1478.9844 530.3877,1477.7031 L530.3877,1476.5469 Q530.3877,1475.2188 530.9971,1474.0781 Q531.6221,1472.9219 532.7158,1472.3125 Q533.8096,1471.6875 535.0439,1471.6875 Q535.7783,1471.6875 536.4189,1471.8594 Q537.0752,1472.0156 537.6221,1472.375 Z " fill="#000000"/><text fill="#E0E0E0" font-family="sans-serif" font-size="14" lengthAdjust="spacing" textLength="147.0957" x="555.3564" y="1482.2969">PositiveLongIdValidator</text><line style="stroke:#8A8A8A;stroke-width:0.5;" x1="459" x2="766.3086" y1="1492.5" y2="1492.5"/><line style="stroke:#8A8A8A;stroke-width:0.5;" x1="459" x2="766.3086" y1="1500.5" y2="1500.5"/><ellipse cx="469" cy="1515.3105" fill="#84BE84" rx="3" ry="3" style="stroke:#038048;stroke-width:1;"/><text fill="#FFFFFF" font-family="sans-serif" font-size="14" lengthAdjust="spacing" textLength="241.2813" x="478" y="1519.6074">boolean isValid(HasLongId hasLongId)</text><rect fill="#F24D5C" height="6" style="stroke:#C82930;stroke-width:1;" width="6" x="466" y="1530.9316"/><text fill="#FFFFFF" font-family="sans-serif" font-size="14" lengthAdjust="spacing" textLength="283.3086" x="478" y="1538.2285">boolean hasPositiveId(HasLongId hasLongId)</text></g><!--class LongIdMapper--><g class="entity" data-entity="LongIdMapper" data-source-line="20" data-uid="ent0009" id="entity_LongIdMapper"><rect fill="#2D2D2D" height="66.6211" rx="2.5" ry="2.5" style="stroke:#8A8A8A;stroke-width:0.5;" width="320.9434" x="389" y="1015"/><ellipse cx="500.0771" cy="1031" fill="#B4A7E5" rx="11" ry="11" style="stroke:#181818;stroke-width:1;"/><path d="M501.0303,1027.6406 L501.0303,1034.2969 L502.749,1034.2969 Q503.3584,1034.2969 503.624,1034.5313 Q503.8896,1034.7656 503.8896,1035.1563 Q503.8896,1035.5313 503.624,1035.7656 Q503.3584,1036 502.749,1036 L497.6084,1036 Q496.999,1036 496.7334,1035.7656 Q496.4678,1035.5313 496.4678,1035.1406 Q496.4678,1034.7656 496.7334,1034.5313 Q496.999,1034.2969 497.6084,1034.2969 L499.3271,1034.2969 L499.3271,1027.6406 L497.6084,1027.6406 Q496.999,1027.6406 496.7334,1027.4063 Q496.4678,1027.1719 496.4678,1026.7813 Q496.4678,1026.4063 496.7334,1026.1719 Q496.999,1025.9375 497.6084,1025.9375 L502.749,1025.9375 Q503.3584,1025.9375 503.624,1026.1719 Q503.8896,1026.4063 503.8896,1026.7813 Q503.8896,1027.1719 503.624,1027.4063 Q503.3584,1027.6406 502.749,1027.6406 L501.0303,1027.6406 Z " fill="#000000"/><text fill="#E0E0E0" font-family="sans-serif" font-size="14" font-style="italic" lengthAdjust="spacing" textLength="90.2891" x="520.5771" y="1036.7969">LongIdMapper</text><line style="stroke:#8A8A8A;stroke-width:0.5;" x1="390" x2="708.9434" y1="1047" y2="1047"/><line style="stroke:#8A8A8A;stroke-width:0.5;" x1="390" x2="708.9434" y1="1055" y2="1055"/><ellipse cx="400" cy="1069.8105" fill="#84BE84" rx="3" ry="3" style="stroke:#038048;stroke-width:1;"/><text fill="#FFFFFF" font-family="sans-serif" font-size="14" lengthAdjust="spacing" textLength="294.9434" x="409" y="1074.1074">void map(HasLongId source, HasLongId target)</text></g><!--class SimpleLongIdMapper--><g class="entity" data-entity="SimpleLongIdMapper" data-source-line="24" data-uid="ent0011" id="entity_SimpleLongIdMapper"><rect fill="#2D2D2D" height="85.2422" rx="2.5" ry="2.5" style="stroke:#8A8A8A;stroke-width:0.5;" width="332.6191" x="7" y="1160.5"/><ellipse cx="102.5186" cy="1176.5" fill="#ADD1B2" rx="11" ry="11" style="stroke:#181818;stroke-width:1;"/><path d="M105.2842,1172.375 Q105.4404,1172.1563 105.6279,1172.0469 Q105.8154,1171.9375 106.0342,1171.9375 Q106.4092,1171.9375 106.6436,1172.2031 Q106.8779,1172.4531 106.8779,1173.0625 L106.8779,1174.5156 Q106.8779,1175.125 106.6436,1175.3906 Q106.4092,1175.6563 106.0342,1175.6563 Q105.6904,1175.6563 105.4873,1175.4531 Q105.2842,1175.2656 105.1748,1174.75 Q105.1279,1174.3906 104.9404,1174.2031 Q104.6123,1173.8281 104.0029,1173.6094 Q103.3936,1173.3906 102.7686,1173.3906 Q102.0029,1173.3906 101.3623,1173.7188 Q100.7373,1174.0469 100.2373,1174.7969 Q99.7529,1175.5469 99.7529,1176.5781 L99.7529,1177.6719 Q99.7529,1178.9063 100.6436,1179.7344 Q101.5342,1180.5469 103.1279,1180.5469 Q104.0654,1180.5469 104.7217,1180.2969 Q105.1123,1180.1406 105.5342,1179.7031 Q105.7998,1179.4375 105.9404,1179.3594 Q106.0967,1179.2813 106.2998,1179.2813 Q106.6279,1179.2813 106.8779,1179.5469 Q107.1436,1179.7969 107.1436,1180.1406 Q107.1436,1180.4844 106.7998,1180.8906 Q106.2998,1181.4688 105.5029,1181.7969 Q104.4248,1182.25 103.1279,1182.25 Q101.6123,1182.25 100.4092,1181.625 Q99.4248,1181.125 98.7373,1180.0625 Q98.0498,1178.9844 98.0498,1177.7031 L98.0498,1176.5469 Q98.0498,1175.2188 98.6592,1174.0781 Q99.2842,1172.9219 100.3779,1172.3125 Q101.4717,1171.6875 102.7061,1171.6875 Q103.4404,1171.6875 104.0811,1171.8594 Q104.7373,1172.0156 105.2842,1172.375 Z " fill="#000000"/><text fill="#E0E0E0" font-family="sans-serif" font-size="14" lengthAdjust="spacing" textLength="133.082" x="123.0186" y="1182.2969">SimpleLongIdMapper</text><line style="stroke:#8A8A8A;stroke-width:0.5;" x1="8" x2="338.6191" y1="1192.5" y2="1192.5"/><line style="stroke:#8A8A8A;stroke-width:0.5;" x1="8" x2="338.6191" y1="1200.5" y2="1200.5"/><ellipse cx="18" cy="1215.3105" fill="#84BE84" rx="3" ry="3" style="stroke:#038048;stroke-width:1;"/><text fill="#FFFFFF" font-family="sans-serif" font-size="14" lengthAdjust="spacing" textLength="294.9434" x="27" y="1219.6074">void map(HasLongId source, HasLongId target)</text><rect fill="#F24D5C" height="6" style="stroke:#C82930;stroke-width:1;" width="6" x="15" y="1230.9316"/><text fill="#FFFFFF" font-family="sans-serif" font-size="14" lengthAdjust="spacing" textLength="306.6191" x="27" y="1238.2285">void mapId(HasLongId source, HasLongId target)</text></g><!--class ValidatedLongIdMapper--><g class="entity" data-entity="ValidatedLongIdMapper" data-source-line="29" data-uid="ent0013" id="entity_ValidatedLongIdMapper"><rect fill="#2D2D2D" height="122.4844" rx="2.5" ry="2.5" style="stroke:#8A8A8A;stroke-width:0.5;" width="332.6191" x="375" y="1142"/><ellipse cx="462.7256" cy="1158" fill="#ADD1B2" rx="11" ry="11" style="stroke:#181818;stroke-width:1;"/><path d="M465.4912,1153.875 Q465.6475,1153.6563 465.835,1153.5469 Q466.0225,1153.4375 466.2412,1153.4375 Q466.6162,1153.4375 466.8506,1153.7031 Q467.085,1153.9531 467.085,1154.5625 L467.085,1156.0156 Q467.085,1156.625 466.8506,1156.8906 Q466.6162,1157.1563 466.2412,1157.1563 Q465.8975,1157.1563 465.6943,1156.9531 Q465.4912,1156.7656 465.3818,1156.25 Q465.335,1155.8906 465.1475,1155.7031 Q464.8193,1155.3281 464.21,1155.1094 Q463.6006,1154.8906 462.9756,1154.8906 Q462.21,1154.8906 461.5693,1155.2188 Q460.9443,1155.5469 460.4443,1156.2969 Q459.96,1157.0469 459.96,1158.0781 L459.96,1159.1719 Q459.96,1160.4063 460.8506,1161.2344 Q461.7412,1162.0469 463.335,1162.0469 Q464.2725,1162.0469 464.9287,1161.7969 Q465.3193,1161.6406 465.7412,1161.2031 Q466.0068,1160.9375 466.1475,1160.8594 Q466.3037,1160.7813 466.5068,1160.7813 Q466.835,1160.7813 467.085,1161.0469 Q467.3506,1161.2969 467.3506,1161.6406 Q467.3506,1161.9844 467.0068,1162.3906 Q466.5068,1162.9688 465.71,1163.2969 Q464.6318,1163.75 463.335,1163.75 Q461.8193,1163.75 460.6162,1163.125 Q459.6318,1162.625 458.9443,1161.5625 Q458.2568,1160.4844 458.2568,1159.2031 L458.2568,1158.0469 Q458.2568,1156.7188 458.8662,1155.5781 Q459.4912,1154.4219 460.585,1153.8125 Q461.6787,1153.1875 462.9131,1153.1875 Q463.6475,1153.1875 464.2881,1153.3594 Q464.9443,1153.5156 465.4912,1153.875 Z " fill="#000000"/><text fill="#E0E0E0" font-family="sans-serif" font-size="14" lengthAdjust="spacing" textLength="148.668" x="483.2256" y="1163.7969">ValidatedLongIdMapper</text><line style="stroke:#8A8A8A;stroke-width:0.5;" x1="376" x2="706.6191" y1="1174" y2="1174"/><rect fill="none" height="6" style="stroke:#C82930;stroke-width:1;" width="6" x="383" y="1185.8105"/><text fill="#FFFFFF" font-family="sans-serif" font-size="14" lengthAdjust="spacing" textLength="195.3643" x="395" y="1193.1074">LongIdValidator longIdValidator</text><line style="stroke:#8A8A8A;stroke-width:0.5;" x1="376" x2="706.6191" y1="1200.6211" y2="1200.6211"/><ellipse cx="386" cy="1215.4316" fill="#84BE84" rx="3" ry="3" style="stroke:#038048;stroke-width:1;"/><text fill="#FFFFFF" font-family="sans-serif" font-size="14" lengthAdjust="spacing" textLength="294.9434" x="395" y="1219.7285">void map(HasLongId source, HasLongId target)</text><rect fill="#F24D5C" height="6" style="stroke:#C82930;stroke-width:1;" width="6" x="383" y="1231.0527"/><text fill="#FFFFFF" font-family="sans-serif" font-size="14" lengthAdjust="spacing" textLength="241.2813" x="395" y="1238.3496">boolean isValid(HasLongId hasLongId)</text><rect fill="#F24D5C" height="6" style="stroke:#C82930;stroke-width:1;" width="6" x="383" y="1249.6738"/><text fill="#FFFFFF" font-family="sans-serif" font-size="14" lengthAdjust="spacing" textLength="306.6191" x="395" y="1256.9707">void mapId(HasLongId source, HasLongId target)</text></g><!--class StringNameValidator--><g class="entity" data-entity="StringNameValidator" data-source-line="19" data-uid="ent0016" id="entity_StringNameValidator"><rect fill="#2D2D2D" height="66.6211" rx="2.5" ry="2.5" style="stroke:#8A8A8A;stroke-width:0.5;" width="329.4746" x="843" y="1324"/><ellipse cx="938.9014" cy="1340" fill="#B4A7E5" rx="11" ry="11" style="stroke:#181818;stroke-width:1;"/><path d="M939.8545,1336.6406 L939.8545,1343.2969 L941.5732,1343.2969 Q942.1826,1343.2969 942.4482,1343.5313 Q942.7139,1343.7656 942.7139,1344.1563 Q942.7139,1344.5313 942.4482,1344.7656 Q942.1826,1345 941.5732,1345 L936.4326,1345 Q935.8232,1345 935.5576,1344.7656 Q935.292,1344.5313 935.292,1344.1406 Q935.292,1343.7656 935.5576,1343.5313 Q935.8232,1343.2969 936.4326,1343.2969 L938.1514,1343.2969 L938.1514,1336.6406 L936.4326,1336.6406 Q935.8232,1336.6406 935.5576,1336.4063 Q935.292,1336.1719 935.292,1335.7813 Q935.292,1335.4063 935.5576,1335.1719 Q935.8232,1334.9375 936.4326,1334.9375 L941.5732,1334.9375 Q942.1826,1334.9375 942.4482,1335.1719 Q942.7139,1335.4063 942.7139,1335.7813 Q942.7139,1336.1719 942.4482,1336.4063 Q942.1826,1336.6406 941.5732,1336.6406 L939.8545,1336.6406 Z " fill="#000000"/><text fill="#E0E0E0" font-family="sans-serif" font-size="14" font-style="italic" lengthAdjust="spacing" textLength="129.1719" x="959.4014" y="1345.7969">StringNameValidator</text><line style="stroke:#8A8A8A;stroke-width:0.5;" x1="844" x2="1171.4746" y1="1356" y2="1356"/><line style="stroke:#8A8A8A;stroke-width:0.5;" x1="844" x2="1171.4746" y1="1364" y2="1364"/><ellipse cx="854" cy="1378.8105" fill="#84BE84" rx="3" ry="3" style="stroke:#038048;stroke-width:1;"/><text fill="#FFFFFF" font-family="sans-serif" font-size="14" lengthAdjust="spacing" textLength="303.4746" x="863" y="1383.1074">boolean isValid(HasStringName hasStringName)</text></g><!--class NonBlankStringNameValidator--><g class="entity" data-entity="NonBlankStringNameValidator" data-source-line="23" data-uid="ent0018" id="entity_NonBlankStringNameValidator"><rect fill="#2D2D2D" height="103.8633" rx="2.5" ry="2.5" style="stroke:#8A8A8A;stroke-width:0.5;" width="408.8535" x="803" y="1451"/><ellipse cx="908.2393" cy="1467" fill="#ADD1B2" rx="11" ry="11" style="stroke:#181818;stroke-width:1;"/><path d="M911.0049,1462.875 Q911.1611,1462.6563 911.3486,1462.5469 Q911.5361,1462.4375 911.7549,1462.4375 Q912.1299,1462.4375 912.3643,1462.7031 Q912.5986,1462.9531 912.5986,1463.5625 L912.5986,1465.0156 Q912.5986,1465.625 912.3643,1465.8906 Q912.1299,1466.1563 911.7549,1466.1563 Q911.4111,1466.1563 911.208,1465.9531 Q911.0049,1465.7656 910.8955,1465.25 Q910.8486,1464.8906 910.6611,1464.7031 Q910.333,1464.3281 909.7236,1464.1094 Q909.1143,1463.8906 908.4893,1463.8906 Q907.7236,1463.8906 907.083,1464.2188 Q906.458,1464.5469 905.958,1465.2969 Q905.4736,1466.0469 905.4736,1467.0781 L905.4736,1468.1719 Q905.4736,1469.4063 906.3643,1470.2344 Q907.2549,1471.0469 908.8486,1471.0469 Q909.7861,1471.0469 910.4424,1470.7969 Q910.833,1470.6406 911.2549,1470.2031 Q911.5205,1469.9375 911.6611,1469.8594 Q911.8174,1469.7813 912.0205,1469.7813 Q912.3486,1469.7813 912.5986,1470.0469 Q912.8643,1470.2969 912.8643,1470.6406 Q912.8643,1470.9844 912.5205,1471.3906 Q912.0205,1471.9688 911.2236,1472.2969 Q910.1455,1472.75 908.8486,1472.75 Q907.333,1472.75 906.1299,1472.125 Q905.1455,1471.625 904.458,1470.5625 Q903.7705,1469.4844 903.7705,1468.2031 L903.7705,1467.0469 Q903.7705,1465.7188 904.3799,1464.5781 Q905.0049,1463.4219 906.0986,1462.8125 Q907.1924,1462.1875 908.4268,1462.1875 Q909.1611,1462.1875 909.8018,1462.3594 Q910.458,1462.5156 911.0049,1462.875 Z " fill="#000000"/><text fill="#E0E0E0" font-family="sans-serif" font-size="14" lengthAdjust="spacing" textLength="189.875" x="928.7393" y="1472.7969">NonBlankStringNameValidator</text><line style="stroke:#8A8A8A;stroke-width:0.5;" x1="804" x2="1210.8535" y1="1483" y2="1483"/><line style="stroke:#8A8A8A;stroke-width:0.5;" x1="804" x2="1210.8535" y1="1491" y2="1491"/><ellipse cx="814" cy="1505.8105" fill="#84BE84" rx="3" ry="3" style="stroke:#038048;stroke-width:1;"/><text fill="#FFFFFF" font-family="sans-serif" font-size="14" lengthAdjust="spacing" textLength="308.1367" x="823" y="1510.1074">boolean isValid((HasStringName hasStringName)</text><rect fill="#F24D5C" height="6" style="stroke:#C82930;stroke-width:1;" width="6" x="811" y="1521.4316"/><text fill="#FFFFFF" font-family="sans-serif" font-size="14" lengthAdjust="spacing" textLength="382.8535" x="823" y="1528.7285">boolean hasNonBlankName(HasStringName hasStringName)</text><rect fill="#F24D5C" height="6" style="stroke:#C82930;stroke-width:1;" width="6" x="811" y="1540.0527"/><text fill="#FFFFFF" font-family="sans-serif" font-size="14" lengthAdjust="spacing" textLength="357.1709" x="823" y="1547.3496">boolean hasBlankName(HasStringName hasStringName)</text></g><!--class StringNameMapper--><g class="entity" data-entity="StringNameMapper" data-source-line="20" data-uid="ent0020" id="entity_StringNameMapper"><rect fill="#2D2D2D" height="66.6211" rx="2.5" ry="2.5" style="stroke:#8A8A8A;stroke-width:0.5;" width="383.1367" x="979" y="1015"/><ellipse cx="1105.6255" cy="1031" fill="#B4A7E5" rx="11" ry="11" style="stroke:#181818;stroke-width:1;"/><path d="M1106.5786,1027.6406 L1106.5786,1034.2969 L1108.2974,1034.2969 Q1108.9067,1034.2969 1109.1724,1034.5313 Q1109.438,1034.7656 1109.438,1035.1563 Q1109.438,1035.5313 1109.1724,1035.7656 Q1108.9067,1036 1108.2974,1036 L1103.1567,1036 Q1102.5474,1036 1102.2817,1035.7656 Q1102.0161,1035.5313 1102.0161,1035.1406 Q1102.0161,1034.7656 1102.2817,1034.5313 Q1102.5474,1034.2969 1103.1567,1034.2969 L1104.8755,1034.2969 L1104.8755,1027.6406 L1103.1567,1027.6406 Q1102.5474,1027.6406 1102.2817,1027.4063 Q1102.0161,1027.1719 1102.0161,1026.7813 Q1102.0161,1026.4063 1102.2817,1026.1719 Q1102.5474,1025.9375 1103.1567,1025.9375 L1108.2974,1025.9375 Q1108.9067,1025.9375 1109.1724,1026.1719 Q1109.438,1026.4063 1109.438,1026.7813 Q1109.438,1027.1719 1109.1724,1027.4063 Q1108.9067,1027.6406 1108.2974,1027.6406 L1106.5786,1027.6406 Z " fill="#000000"/><text fill="#E0E0E0" font-family="sans-serif" font-size="14" font-style="italic" lengthAdjust="spacing" textLength="121.3857" x="1126.1255" y="1036.7969">StringNameMapper</text><line style="stroke:#8A8A8A;stroke-width:0.5;" x1="980" x2="1361.1367" y1="1047" y2="1047"/><line style="stroke:#8A8A8A;stroke-width:0.5;" x1="980" x2="1361.1367" y1="1055" y2="1055"/><ellipse cx="990" cy="1069.8105" fill="#84BE84" rx="3" ry="3" style="stroke:#038048;stroke-width:1;"/><text fill="#FFFFFF" font-family="sans-serif" font-size="14" lengthAdjust="spacing" textLength="357.1367" x="999" y="1074.1074">void map(HasStringName source, HasStringName target)</text></g><!--class ValidatedStringNameMapper--><g class="entity" data-entity="ValidatedStringNameMapper" data-source-line="24" data-uid="ent0022" id="entity_ValidatedStringNameMapper"><rect fill="#2D2D2D" height="122.4844" rx="2.5" ry="2.5" style="stroke:#8A8A8A;stroke-width:0.5;" width="390.9092" x="743" y="1142"/><ellipse cx="844.3223" cy="1158" fill="#ADD1B2" rx="11" ry="11" style="stroke:#181818;stroke-width:1;"/><path d="M847.0879,1153.875 Q847.2441,1153.6563 847.4316,1153.5469 Q847.6191,1153.4375 847.8379,1153.4375 Q848.2129,1153.4375 848.4473,1153.7031 Q848.6816,1153.9531 848.6816,1154.5625 L848.6816,1156.0156 Q848.6816,1156.625 848.4473,1156.8906 Q848.2129,1157.1563 847.8379,1157.1563 Q847.4941,1157.1563 847.291,1156.9531 Q847.0879,1156.7656 846.9785,1156.25 Q846.9316,1155.8906 846.7441,1155.7031 Q846.416,1155.3281 845.8066,1155.1094 Q845.1973,1154.8906 844.5723,1154.8906 Q843.8066,1154.8906 843.166,1155.2188 Q842.541,1155.5469 842.041,1156.2969 Q841.5566,1157.0469 841.5566,1158.0781 L841.5566,1159.1719 Q841.5566,1160.4063 842.4473,1161.2344 Q843.3379,1162.0469 844.9316,1162.0469 Q845.8691,1162.0469 846.5254,1161.7969 Q846.916,1161.6406 847.3379,1161.2031 Q847.6035,1160.9375 847.7441,1160.8594 Q847.9004,1160.7813 848.1035,1160.7813 Q848.4316,1160.7813 848.6816,1161.0469 Q848.9473,1161.2969 848.9473,1161.6406 Q848.9473,1161.9844 848.6035,1162.3906 Q848.1035,1162.9688 847.3066,1163.2969 Q846.2285,1163.75 844.9316,1163.75 Q843.416,1163.75 842.2129,1163.125 Q841.2285,1162.625 840.541,1161.5625 Q839.8535,1160.4844 839.8535,1159.2031 L839.8535,1158.0469 Q839.8535,1156.7188 840.4629,1155.5781 Q841.0879,1154.4219 842.1816,1153.8125 Q843.2754,1153.1875 844.5098,1153.1875 Q845.2441,1153.1875 845.8848,1153.3594 Q846.541,1153.5156 847.0879,1153.875 Z " fill="#000000"/><text fill="#E0E0E0" font-family="sans-serif" font-size="14" lengthAdjust="spacing" textLength="179.7646" x="864.8223" y="1163.7969">ValidatedStringNameMapper</text><line style="stroke:#8A8A8A;stroke-width:0.5;" x1="744" x2="1132.9092" y1="1174" y2="1174"/><rect fill="none" height="6" style="stroke:#C82930;stroke-width:1;" width="6" x="751" y="1185.8105"/><text fill="#FFFFFF" font-family="sans-serif" font-size="14" lengthAdjust="spacing" textLength="259.8955" x="763" y="1193.1074">StringNameValidator stringNameValidator</text><line style="stroke:#8A8A8A;stroke-width:0.5;" x1="744" x2="1132.9092" y1="1200.6211" y2="1200.6211"/><ellipse cx="754" cy="1215.4316" fill="#84BE84" rx="3" ry="3" style="stroke:#038048;stroke-width:1;"/><text fill="#FFFFFF" font-family="sans-serif" font-size="14" lengthAdjust="spacing" textLength="357.1367" x="763" y="1219.7285">void map(HasStringName source, HasStringName target)</text><rect fill="#F24D5C" height="6" style="stroke:#C82930;stroke-width:1;" width="6" x="751" y="1231.0527"/><text fill="#FFFFFF" font-family="sans-serif" font-size="14" lengthAdjust="spacing" textLength="303.4746" x="763" y="1238.3496">boolean isValid(HasStringName hasStringName)</text><rect fill="#F24D5C" height="6" style="stroke:#C82930;stroke-width:1;" width="6" x="751" y="1249.6738"/><text fill="#FFFFFF" font-family="sans-serif" font-size="14" lengthAdjust="spacing" textLength="364.9092" x="763" y="1256.9707">mapName(HasStringName source, HasStringName target)</text></g><!--class AmountValidator--><g class="entity" data-entity="AmountValidator" data-source-line="19" data-uid="ent0025" id="entity_AmountValidator"><rect fill="#2D2D2D" height="66.6211" rx="2.5" ry="2.5" style="stroke:#8A8A8A;stroke-width:0.5;" width="278.1367" x="2101.5" y="1324"/><ellipse cx="2184.5669" cy="1340" fill="#B4A7E5" rx="11" ry="11" style="stroke:#181818;stroke-width:1;"/><path d="M2185.52,1336.6406 L2185.52,1343.2969 L2187.2388,1343.2969 Q2187.8481,1343.2969 2188.1138,1343.5313 Q2188.3794,1343.7656 2188.3794,1344.1563 Q2188.3794,1344.5313 2188.1138,1344.7656 Q2187.8481,1345 2187.2388,1345 L2182.0981,1345 Q2181.4888,1345 2181.2231,1344.7656 Q2180.9575,1344.5313 2180.9575,1344.1406 Q2180.9575,1343.7656 2181.2231,1343.5313 Q2181.4888,1343.2969 2182.0981,1343.2969 L2183.8169,1343.2969 L2183.8169,1336.6406 L2182.0981,1336.6406 Q2181.4888,1336.6406 2181.2231,1336.4063 Q2180.9575,1336.1719 2180.9575,1335.7813 Q2180.9575,1335.4063 2181.2231,1335.1719 Q2181.4888,1334.9375 2182.0981,1334.9375 L2187.2388,1334.9375 Q2187.8481,1334.9375 2188.1138,1335.1719 Q2188.3794,1335.4063 2188.3794,1335.7813 Q2188.3794,1336.1719 2188.1138,1336.4063 Q2187.8481,1336.6406 2187.2388,1336.6406 L2185.52,1336.6406 Z " fill="#000000"/><text fill="#E0E0E0" font-family="sans-serif" font-size="14" font-style="italic" lengthAdjust="spacing" textLength="103.5029" x="2205.0669" y="1345.7969">AmountValidator</text><line style="stroke:#8A8A8A;stroke-width:0.5;" x1="2102.5" x2="2378.6367" y1="1356" y2="1356"/><line style="stroke:#8A8A8A;stroke-width:0.5;" x1="2102.5" x2="2378.6367" y1="1364" y2="1364"/><ellipse cx="2112.5" cy="1378.8105" fill="#84BE84" rx="3" ry="3" style="stroke:#038048;stroke-width:1;"/><text fill="#FFFFFF" font-family="sans-serif" font-size="14" lengthAdjust="spacing" textLength="252.1367" x="2121.5" y="1383.1074">boolean isValid(HasAmount hasAmount)</text></g><!--class PositiveAmountValidator--><g class="entity" data-entity="PositiveAmountValidator" data-source-line="23" data-uid="ent0027" id="entity_PositiveAmountValidator"><rect fill="#2D2D2D" height="85.2422" rx="2.5" ry="2.5" style="stroke:#8A8A8A;stroke-width:0.5;" width="356.7363" x="2062" y="1460.5"/><ellipse cx="2159.8564" cy="1476.5" fill="#ADD1B2" rx="11" ry="11" style="stroke:#181818;stroke-width:1;"/><path d="M2162.6221,1472.375 Q2162.7783,1472.1563 2162.9658,1472.0469 Q2163.1533,1471.9375 2163.3721,1471.9375 Q2163.7471,1471.9375 2163.9814,1472.2031 Q2164.2158,1472.4531 2164.2158,1473.0625 L2164.2158,1474.5156 Q2164.2158,1475.125 2163.9814,1475.3906 Q2163.7471,1475.6563 2163.3721,1475.6563 Q2163.0283,1475.6563 2162.8252,1475.4531 Q2162.6221,1475.2656 2162.5127,1474.75 Q2162.4658,1474.3906 2162.2783,1474.2031 Q2161.9502,1473.8281 2161.3408,1473.6094 Q2160.7314,1473.3906 2160.1064,1473.3906 Q2159.3408,1473.3906 2158.7002,1473.7188 Q2158.0752,1474.0469 2157.5752,1474.7969 Q2157.0908,1475.5469 2157.0908,1476.5781 L2157.0908,1477.6719 Q2157.0908,1478.9063 2157.9814,1479.7344 Q2158.8721,1480.5469 2160.4658,1480.5469 Q2161.4033,1480.5469 2162.0596,1480.2969 Q2162.4502,1480.1406 2162.8721,1479.7031 Q2163.1377,1479.4375 2163.2783,1479.3594 Q2163.4346,1479.2813 2163.6377,1479.2813 Q2163.9658,1479.2813 2164.2158,1479.5469 Q2164.4814,1479.7969 2164.4814,1480.1406 Q2164.4814,1480.4844 2164.1377,1480.8906 Q2163.6377,1481.4688 2162.8408,1481.7969 Q2161.7627,1482.25 2160.4658,1482.25 Q2158.9502,1482.25 2157.7471,1481.625 Q2156.7627,1481.125 2156.0752,1480.0625 Q2155.3877,1478.9844 2155.3877,1477.7031 L2155.3877,1476.5469 Q2155.3877,1475.2188 2155.9971,1474.0781 Q2156.6221,1472.9219 2157.7158,1472.3125 Q2158.8096,1471.6875 2160.0439,1471.6875 Q2160.7783,1471.6875 2161.4189,1471.8594 Q2162.0752,1472.0156 2162.6221,1472.375 Z " fill="#000000"/><text fill="#E0E0E0" font-family="sans-serif" font-size="14" lengthAdjust="spacing" textLength="152.5234" x="2180.3564" y="1482.2969">PositiveAmountValidator</text><line style="stroke:#8A8A8A;stroke-width:0.5;" x1="2063" x2="2417.7363" y1="1492.5" y2="1492.5"/><line style="stroke:#8A8A8A;stroke-width:0.5;" x1="2063" x2="2417.7363" y1="1500.5" y2="1500.5"/><ellipse cx="2073" cy="1515.3105" fill="#84BE84" rx="3" ry="3" style="stroke:#038048;stroke-width:1;"/><text fill="#FFFFFF" font-family="sans-serif" font-size="14" lengthAdjust="spacing" textLength="252.1367" x="2082" y="1519.6074">boolean isValid(HasAmount hasAmount)</text><rect fill="#F24D5C" height="6" style="stroke:#C82930;stroke-width:1;" width="6" x="2070" y="1530.9316"/><text fill="#FFFFFF" font-family="sans-serif" font-size="14" lengthAdjust="spacing" textLength="330.7363" x="2082" y="1538.2285">boolean hasPositiveAmount(HasAmount hasAmount)</text></g><!--class AmountMapper--><g class="entity" data-entity="AmountMapper" data-source-line="20" data-uid="ent0029" id="entity_AmountMapper"><rect fill="#2D2D2D" height="66.6211" rx="2.5" ry="2.5" style="stroke:#8A8A8A;stroke-width:0.5;" width="331.7988" x="1701.5" y="622"/><ellipse cx="1815.291" cy="638" fill="#B4A7E5" rx="11" ry="11" style="stroke:#181818;stroke-width:1;"/><path d="M1816.2441,634.6406 L1816.2441,641.2969 L1817.9629,641.2969 Q1818.5723,641.2969 1818.8379,641.5313 Q1819.1035,641.7656 1819.1035,642.1563 Q1819.1035,642.5313 1818.8379,642.7656 Q1818.5723,643 1817.9629,643 L1812.8223,643 Q1812.2129,643 1811.9473,642.7656 Q1811.6816,642.5313 1811.6816,642.1406 Q1811.6816,641.7656 1811.9473,641.5313 Q1812.2129,641.2969 1812.8223,641.2969 L1814.541,641.2969 L1814.541,634.6406 L1812.8223,634.6406 Q1812.2129,634.6406 1811.9473,634.4063 Q1811.6816,634.1719 1811.6816,633.7813 Q1811.6816,633.4063 1811.9473,633.1719 Q1812.2129,632.9375 1812.8223,632.9375 L1817.9629,632.9375 Q1818.5723,632.9375 1818.8379,633.1719 Q1819.1035,633.4063 1819.1035,633.7813 Q1819.1035,634.1719 1818.8379,634.4063 Q1818.5723,634.6406 1817.9629,634.6406 L1816.2441,634.6406 Z " fill="#000000"/><text fill="#E0E0E0" font-family="sans-serif" font-size="14" font-style="italic" lengthAdjust="spacing" textLength="95.7168" x="1835.791" y="643.7969">AmountMapper</text><line style="stroke:#8A8A8A;stroke-width:0.5;" x1="1702.5" x2="2032.2988" y1="654" y2="654"/><line style="stroke:#8A8A8A;stroke-width:0.5;" x1="1702.5" x2="2032.2988" y1="662" y2="662"/><ellipse cx="1712.5" cy="676.8105" fill="#84BE84" rx="3" ry="3" style="stroke:#038048;stroke-width:1;"/><text fill="#FFFFFF" font-family="sans-serif" font-size="14" lengthAdjust="spacing" textLength="305.7988" x="1721.5" y="681.1074">void map(HasAmount source, HasAmount target)</text></g><!--class ValidatedAmountMapper--><g class="entity" data-entity="ValidatedAmountMapper" data-source-line="24" data-uid="ent0031" id="entity_ValidatedAmountMapper"><rect fill="#2D2D2D" height="122.4844" rx="2.5" ry="2.5" style="stroke:#8A8A8A;stroke-width:0.5;" width="380.0469" x="1954.5" y="795.5"/><ellipse cx="2063.2256" cy="811.5" fill="#ADD1B2" rx="11" ry="11" style="stroke:#181818;stroke-width:1;"/><path d="M2065.9912,807.375 Q2066.1475,807.1563 2066.335,807.0469 Q2066.5225,806.9375 2066.7412,806.9375 Q2067.1162,806.9375 2067.3506,807.2031 Q2067.585,807.4531 2067.585,808.0625 L2067.585,809.5156 Q2067.585,810.125 2067.3506,810.3906 Q2067.1162,810.6563 2066.7412,810.6563 Q2066.3975,810.6563 2066.1943,810.4531 Q2065.9912,810.2656 2065.8818,809.75 Q2065.835,809.3906 2065.6475,809.2031 Q2065.3193,808.8281 2064.71,808.6094 Q2064.1006,808.3906 2063.4756,808.3906 Q2062.71,808.3906 2062.0693,808.7188 Q2061.4443,809.0469 2060.9443,809.7969 Q2060.46,810.5469 2060.46,811.5781 L2060.46,812.6719 Q2060.46,813.9063 2061.3506,814.7344 Q2062.2412,815.5469 2063.835,815.5469 Q2064.7725,815.5469 2065.4287,815.2969 Q2065.8193,815.1406 2066.2412,814.7031 Q2066.5068,814.4375 2066.6475,814.3594 Q2066.8037,814.2813 2067.0068,814.2813 Q2067.335,814.2813 2067.585,814.5469 Q2067.8506,814.7969 2067.8506,815.1406 Q2067.8506,815.4844 2067.5068,815.8906 Q2067.0068,816.4688 2066.21,816.7969 Q2065.1318,817.25 2063.835,817.25 Q2062.3193,817.25 2061.1162,816.625 Q2060.1318,816.125 2059.4443,815.0625 Q2058.7568,813.9844 2058.7568,812.7031 L2058.7568,811.5469 Q2058.7568,810.2188 2059.3662,809.0781 Q2059.9912,807.9219 2061.085,807.3125 Q2062.1787,806.6875 2063.4131,806.6875 Q2064.1475,806.6875 2064.7881,806.8594 Q2065.4443,807.0156 2065.9912,807.375 Z " fill="#000000"/><text fill="#E0E0E0" font-family="sans-serif" font-size="14" lengthAdjust="spacing" textLength="154.0957" x="2083.7256" y="817.2969">ValidatedAmountMapper</text><line style="stroke:#8A8A8A;stroke-width:0.5;" x1="1955.5" x2="2333.5469" y1="827.5" y2="827.5"/><rect fill="none" height="6" style="stroke:#C82930;stroke-width:1;" width="6" x="1962.5" y="839.3105"/><text fill="#FFFFFF" font-family="sans-serif" font-size="14" lengthAdjust="spacing" textLength="209.3438" x="1974.5" y="846.6074">AmountValidator amountValidator</text><line style="stroke:#8A8A8A;stroke-width:0.5;" x1="1955.5" x2="2333.5469" y1="854.1211" y2="854.1211"/><ellipse cx="1965.5" cy="868.9316" fill="#84BE84" rx="3" ry="3" style="stroke:#038048;stroke-width:1;"/><text fill="#FFFFFF" font-family="sans-serif" font-size="14" lengthAdjust="spacing" textLength="305.7988" x="1974.5" y="873.2285">void map(HasAmount source, HasAmount target)</text><rect fill="#F24D5C" height="6" style="stroke:#C82930;stroke-width:1;" width="6" x="1962.5" y="884.5527"/><text fill="#FFFFFF" font-family="sans-serif" font-size="14" lengthAdjust="spacing" textLength="252.1367" x="1974.5" y="891.8496">boolean isValid(HasAmount hasAmount)</text><rect fill="#F24D5C" height="6" style="stroke:#C82930;stroke-width:1;" width="6" x="1962.5" y="903.1738"/><text fill="#FFFFFF" font-family="sans-serif" font-size="14" lengthAdjust="spacing" textLength="354.0469" x="1974.5" y="910.4707">void mapAmount(HasAmount source, HasAmount target)</text></g><!--class LongVersionValidator--><g class="entity" data-entity="LongVersionValidator" data-source-line="19" data-uid="ent0034" id="entity_LongVersionValidator"><rect fill="#2D2D2D" height="66.6211" rx="2.5" ry="2.5" style="stroke:#8A8A8A;stroke-width:0.5;" width="338.8672" x="1424" y="1324"/><ellipse cx="1522.2495" cy="1340" fill="#B4A7E5" rx="11" ry="11" style="stroke:#181818;stroke-width:1;"/><path d="M1523.2026,1336.6406 L1523.2026,1343.2969 L1524.9214,1343.2969 Q1525.5308,1343.2969 1525.7964,1343.5313 Q1526.062,1343.7656 1526.062,1344.1563 Q1526.062,1344.5313 1525.7964,1344.7656 Q1525.5308,1345 1524.9214,1345 L1519.7808,1345 Q1519.1714,1345 1518.9058,1344.7656 Q1518.6401,1344.5313 1518.6401,1344.1406 Q1518.6401,1343.7656 1518.9058,1343.5313 Q1519.1714,1343.2969 1519.7808,1343.2969 L1521.4995,1343.2969 L1521.4995,1336.6406 L1519.7808,1336.6406 Q1519.1714,1336.6406 1518.9058,1336.4063 Q1518.6401,1336.1719 1518.6401,1335.7813 Q1518.6401,1335.4063 1518.9058,1335.1719 Q1519.1714,1334.9375 1519.7808,1334.9375 L1524.9214,1334.9375 Q1525.5308,1334.9375 1525.7964,1335.1719 Q1526.062,1335.4063 1526.062,1335.7813 Q1526.062,1336.1719 1525.7964,1336.4063 Q1525.5308,1336.6406 1524.9214,1336.6406 L1523.2026,1336.6406 Z " fill="#000000"/><text fill="#E0E0E0" font-family="sans-serif" font-size="14" font-style="italic" lengthAdjust="spacing" textLength="133.8682" x="1542.7495" y="1345.7969">LongVersionValidator</text><line style="stroke:#8A8A8A;stroke-width:0.5;" x1="1425" x2="1761.8672" y1="1356" y2="1356"/><line style="stroke:#8A8A8A;stroke-width:0.5;" x1="1425" x2="1761.8672" y1="1364" y2="1364"/><ellipse cx="1435" cy="1378.8105" fill="#84BE84" rx="3" ry="3" style="stroke:#038048;stroke-width:1;"/><text fill="#FFFFFF" font-family="sans-serif" font-size="14" lengthAdjust="spacing" textLength="312.8672" x="1444" y="1383.1074">boolean isValid(HasLongVersion hasLongVersion)</text></g><!--class PositiveLongVersionValidator--><g class="entity" data-entity="PositiveLongVersionValidator" data-source-line="23" data-uid="ent0036" id="entity_PositiveLongVersionValidator"><rect fill="#2D2D2D" height="85.2422" rx="2.5" ry="2.5" style="stroke:#8A8A8A;stroke-width:0.5;" width="416.6875" x="1385" y="1460.5"/><ellipse cx="1497.6494" cy="1476.5" fill="#ADD1B2" rx="11" ry="11" style="stroke:#181818;stroke-width:1;"/><path d="M1500.415,1472.375 Q1500.5713,1472.1563 1500.7588,1472.0469 Q1500.9463,1471.9375 1501.165,1471.9375 Q1501.54,1471.9375 1501.7744,1472.2031 Q1502.0088,1472.4531 1502.0088,1473.0625 L1502.0088,1474.5156 Q1502.0088,1475.125 1501.7744,1475.3906 Q1501.54,1475.6563 1501.165,1475.6563 Q1500.8213,1475.6563 1500.6182,1475.4531 Q1500.415,1475.2656 1500.3057,1474.75 Q1500.2588,1474.3906 1500.0713,1474.2031 Q1499.7432,1473.8281 1499.1338,1473.6094 Q1498.5244,1473.3906 1497.8994,1473.3906 Q1497.1338,1473.3906 1496.4932,1473.7188 Q1495.8682,1474.0469 1495.3682,1474.7969 Q1494.8838,1475.5469 1494.8838,1476.5781 L1494.8838,1477.6719 Q1494.8838,1478.9063 1495.7744,1479.7344 Q1496.665,1480.5469 1498.2588,1480.5469 Q1499.1963,1480.5469 1499.8525,1480.2969 Q1500.2432,1480.1406 1500.665,1479.7031 Q1500.9307,1479.4375 1501.0713,1479.3594 Q1501.2275,1479.2813 1501.4307,1479.2813 Q1501.7588,1479.2813 1502.0088,1479.5469 Q1502.2744,1479.7969 1502.2744,1480.1406 Q1502.2744,1480.4844 1501.9307,1480.8906 Q1501.4307,1481.4688 1500.6338,1481.7969 Q1499.5557,1482.25 1498.2588,1482.25 Q1496.7432,1482.25 1495.54,1481.625 Q1494.5557,1481.125 1493.8682,1480.0625 Q1493.1807,1478.9844 1493.1807,1477.7031 L1493.1807,1476.5469 Q1493.1807,1475.2188 1493.79,1474.0781 Q1494.415,1472.9219 1495.5088,1472.3125 Q1496.6025,1471.6875 1497.8369,1471.6875 Q1498.5713,1471.6875 1499.2119,1471.8594 Q1499.8682,1472.0156 1500.415,1472.375 Z " fill="#000000"/><text fill="#E0E0E0" font-family="sans-serif" font-size="14" lengthAdjust="spacing" textLength="182.8887" x="1518.1494" y="1482.2969">PositiveLongVersionValidator</text><line style="stroke:#8A8A8A;stroke-width:0.5;" x1="1386" x2="1800.6875" y1="1492.5" y2="1492.5"/><line style="stroke:#8A8A8A;stroke-width:0.5;" x1="1386" x2="1800.6875" y1="1500.5" y2="1500.5"/><ellipse cx="1396" cy="1515.3105" fill="#84BE84" rx="3" ry="3" style="stroke:#038048;stroke-width:1;"/><text fill="#FFFFFF" font-family="sans-serif" font-size="14" lengthAdjust="spacing" textLength="312.8672" x="1405" y="1519.6074">boolean isValid(HasLongVersion hasLongVersion)</text><rect fill="#F24D5C" height="6" style="stroke:#C82930;stroke-width:1;" width="6" x="1393" y="1530.9316"/><text fill="#FFFFFF" font-family="sans-serif" font-size="14" lengthAdjust="spacing" textLength="390.6875" x="1405" y="1538.2285">boolean hasPositiveVersion(HasLongVersion hasLongVersion)</text></g><!--class LongVersionMapper--><g class="entity" data-entity="LongVersionMapper" data-source-line="20" data-uid="ent0038" id="entity_LongVersionMapper"><rect fill="#2D2D2D" height="66.6211" rx="2.5" ry="2.5" style="stroke:#8A8A8A;stroke-width:0.5;" width="392.5293" x="1452" y="1015"/><ellipse cx="1580.9736" cy="1031" fill="#B4A7E5" rx="11" ry="11" style="stroke:#181818;stroke-width:1;"/><path d="M1581.9268,1027.6406 L1581.9268,1034.2969 L1583.6455,1034.2969 Q1584.2549,1034.2969 1584.5205,1034.5313 Q1584.7861,1034.7656 1584.7861,1035.1563 Q1584.7861,1035.5313 1584.5205,1035.7656 Q1584.2549,1036 1583.6455,1036 L1578.5049,1036 Q1577.8955,1036 1577.6299,1035.7656 Q1577.3643,1035.5313 1577.3643,1035.1406 Q1577.3643,1034.7656 1577.6299,1034.5313 Q1577.8955,1034.2969 1578.5049,1034.2969 L1580.2236,1034.2969 L1580.2236,1027.6406 L1578.5049,1027.6406 Q1577.8955,1027.6406 1577.6299,1027.4063 Q1577.3643,1027.1719 1577.3643,1026.7813 Q1577.3643,1026.4063 1577.6299,1026.1719 Q1577.8955,1025.9375 1578.5049,1025.9375 L1583.6455,1025.9375 Q1584.2549,1025.9375 1584.5205,1026.1719 Q1584.7861,1026.4063 1584.7861,1026.7813 Q1584.7861,1027.1719 1584.5205,1027.4063 Q1584.2549,1027.6406 1583.6455,1027.6406 L1581.9268,1027.6406 Z " fill="#000000"/><text fill="#E0E0E0" font-family="sans-serif" font-size="14" font-style="italic" lengthAdjust="spacing" textLength="126.082" x="1601.4736" y="1036.7969">LongVersionMapper</text><line style="stroke:#8A8A8A;stroke-width:0.5;" x1="1453" x2="1843.5293" y1="1047" y2="1047"/><line style="stroke:#8A8A8A;stroke-width:0.5;" x1="1453" x2="1843.5293" y1="1055" y2="1055"/><ellipse cx="1463" cy="1069.8105" fill="#84BE84" rx="3" ry="3" style="stroke:#038048;stroke-width:1;"/><text fill="#FFFFFF" font-family="sans-serif" font-size="14" lengthAdjust="spacing" textLength="366.5293" x="1472" y="1074.1074">void map(HasLongVersion source, HasLongVersion target)</text></g><!--class SimpleLongVersionMapper--><g class="entity" data-entity="SimpleLongVersionMapper" data-source-line="24" data-uid="ent0040" id="entity_SimpleLongVersionMapper"><rect fill="#2D2D2D" height="85.2422" rx="2.5" ry="2.5" style="stroke:#8A8A8A;stroke-width:0.5;" width="439.998" x="1903.5" y="1160.5"/><ellipse cx="2034.8115" cy="1176.5" fill="#ADD1B2" rx="11" ry="11" style="stroke:#181818;stroke-width:1;"/><path d="M2037.5771,1172.375 Q2037.7334,1172.1563 2037.9209,1172.0469 Q2038.1084,1171.9375 2038.3271,1171.9375 Q2038.7021,1171.9375 2038.9365,1172.2031 Q2039.1709,1172.4531 2039.1709,1173.0625 L2039.1709,1174.5156 Q2039.1709,1175.125 2038.9365,1175.3906 Q2038.7021,1175.6563 2038.3271,1175.6563 Q2037.9834,1175.6563 2037.7803,1175.4531 Q2037.5771,1175.2656 2037.4678,1174.75 Q2037.4209,1174.3906 2037.2334,1174.2031 Q2036.9053,1173.8281 2036.2959,1173.6094 Q2035.6865,1173.3906 2035.0615,1173.3906 Q2034.2959,1173.3906 2033.6553,1173.7188 Q2033.0303,1174.0469 2032.5303,1174.7969 Q2032.0459,1175.5469 2032.0459,1176.5781 L2032.0459,1177.6719 Q2032.0459,1178.9063 2032.9365,1179.7344 Q2033.8271,1180.5469 2035.4209,1180.5469 Q2036.3584,1180.5469 2037.0146,1180.2969 Q2037.4053,1180.1406 2037.8271,1179.7031 Q2038.0928,1179.4375 2038.2334,1179.3594 Q2038.3896,1179.2813 2038.5928,1179.2813 Q2038.9209,1179.2813 2039.1709,1179.5469 Q2039.4365,1179.7969 2039.4365,1180.1406 Q2039.4365,1180.4844 2039.0928,1180.8906 Q2038.5928,1181.4688 2037.7959,1181.7969 Q2036.7178,1182.25 2035.4209,1182.25 Q2033.9053,1182.25 2032.7021,1181.625 Q2031.7178,1181.125 2031.0303,1180.0625 Q2030.3428,1178.9844 2030.3428,1177.7031 L2030.3428,1176.5469 Q2030.3428,1175.2188 2030.9521,1174.0781 Q2031.5771,1172.9219 2032.6709,1172.3125 Q2033.7646,1171.6875 2034.999,1171.6875 Q2035.7334,1171.6875 2036.374,1171.8594 Q2037.0303,1172.0156 2037.5771,1172.375 Z " fill="#000000"/><text fill="#E0E0E0" font-family="sans-serif" font-size="14" lengthAdjust="spacing" textLength="168.875" x="2055.3115" y="1182.2969">SimpleLongVersionMapper</text><line style="stroke:#8A8A8A;stroke-width:0.5;" x1="1904.5" x2="2342.498" y1="1192.5" y2="1192.5"/><line style="stroke:#8A8A8A;stroke-width:0.5;" x1="1904.5" x2="2342.498" y1="1200.5" y2="1200.5"/><ellipse cx="1914.5" cy="1215.3105" fill="#84BE84" rx="3" ry="3" style="stroke:#038048;stroke-width:1;"/><text fill="#FFFFFF" font-family="sans-serif" font-size="14" lengthAdjust="spacing" textLength="366.5293" x="1923.5" y="1219.6074">void map(HasLongVersion source, HasLongVersion target)</text><rect fill="#F24D5C" height="6" style="stroke:#C82930;stroke-width:1;" width="6" x="1911.5" y="1230.9316"/><text fill="#FFFFFF" font-family="sans-serif" font-size="14" lengthAdjust="spacing" textLength="413.998" x="1923.5" y="1238.2285">void mapVersion(HasLongVersion source, HasLongVersion target)</text></g><!--class ValidatedLongVersionMapper--><g class="entity" data-entity="ValidatedLongVersionMapper" data-source-line="29" data-uid="ent0042" id="entity_ValidatedLongVersionMapper"><rect fill="#2D2D2D" height="122.4844" rx="2.5" ry="2.5" style="stroke:#8A8A8A;stroke-width:0.5;" width="410.4258" x="1458.5" y="1142"/><ellipse cx="1567.2324" cy="1158" fill="#ADD1B2" rx="11" ry="11" style="stroke:#181818;stroke-width:1;"/><path d="M1569.998,1153.875 Q1570.1543,1153.6563 1570.3418,1153.5469 Q1570.5293,1153.4375 1570.748,1153.4375 Q1571.123,1153.4375 1571.3574,1153.7031 Q1571.5918,1153.9531 1571.5918,1154.5625 L1571.5918,1156.0156 Q1571.5918,1156.625 1571.3574,1156.8906 Q1571.123,1157.1563 1570.748,1157.1563 Q1570.4043,1157.1563 1570.2012,1156.9531 Q1569.998,1156.7656 1569.8887,1156.25 Q1569.8418,1155.8906 1569.6543,1155.7031 Q1569.3262,1155.3281 1568.7168,1155.1094 Q1568.1074,1154.8906 1567.4824,1154.8906 Q1566.7168,1154.8906 1566.0762,1155.2188 Q1565.4512,1155.5469 1564.9512,1156.2969 Q1564.4668,1157.0469 1564.4668,1158.0781 L1564.4668,1159.1719 Q1564.4668,1160.4063 1565.3574,1161.2344 Q1566.248,1162.0469 1567.8418,1162.0469 Q1568.7793,1162.0469 1569.4355,1161.7969 Q1569.8262,1161.6406 1570.248,1161.2031 Q1570.5137,1160.9375 1570.6543,1160.8594 Q1570.8105,1160.7813 1571.0137,1160.7813 Q1571.3418,1160.7813 1571.5918,1161.0469 Q1571.8574,1161.2969 1571.8574,1161.6406 Q1571.8574,1161.9844 1571.5137,1162.3906 Q1571.0137,1162.9688 1570.2168,1163.2969 Q1569.1387,1163.75 1567.8418,1163.75 Q1566.3262,1163.75 1565.123,1163.125 Q1564.1387,1162.625 1563.4512,1161.5625 Q1562.7637,1160.4844 1562.7637,1159.2031 L1562.7637,1158.0469 Q1562.7637,1156.7188 1563.373,1155.5781 Q1563.998,1154.4219 1565.0918,1153.8125 Q1566.1855,1153.1875 1567.4199,1153.1875 Q1568.1543,1153.1875 1568.7949,1153.3594 Q1569.4512,1153.5156 1569.998,1153.875 Z " fill="#000000"/><text fill="#E0E0E0" font-family="sans-serif" font-size="14" lengthAdjust="spacing" textLength="184.4609" x="1587.7324" y="1163.7969">ValidatedLongVersionMapper</text><line style="stroke:#8A8A8A;stroke-width:0.5;" x1="1459.5" x2="1867.9258" y1="1174" y2="1174"/><rect fill="none" height="6" style="stroke:#C82930;stroke-width:1;" width="6" x="1466.5" y="1185.8105"/><text fill="#FFFFFF" font-family="sans-serif" font-size="14" lengthAdjust="spacing" textLength="266.9502" x="1478.5" y="1193.1074">LongVersionValidator longVersionValidator</text><line style="stroke:#8A8A8A;stroke-width:0.5;" x1="1459.5" x2="1867.9258" y1="1200.6211" y2="1200.6211"/><ellipse cx="1469.5" cy="1215.4316" fill="#84BE84" rx="3" ry="3" style="stroke:#038048;stroke-width:1;"/><text fill="#FFFFFF" font-family="sans-serif" font-size="14" lengthAdjust="spacing" textLength="366.5293" x="1478.5" y="1219.7285">void map(HasLongVersion source, HasLongVersion target)</text><rect fill="#F24D5C" height="6" style="stroke:#C82930;stroke-width:1;" width="6" x="1466.5" y="1231.0527"/><text fill="#FFFFFF" font-family="sans-serif" font-size="14" lengthAdjust="spacing" textLength="312.8672" x="1478.5" y="1238.3496">boolean isValid(HasLongVersion hasLongVersion)</text><rect fill="#F24D5C" height="6" style="stroke:#C82930;stroke-width:1;" width="6" x="1466.5" y="1249.6738"/><text fill="#FFFFFF" font-family="sans-serif" font-size="14" lengthAdjust="spacing" textLength="384.4258" x="1478.5" y="1256.9707">mapVersion(HasLongVersion source, HasLongVersion target)</text></g><!--class MeasureUnitToMeasureUnitDTOMapper--><g class="entity" data-entity="MeasureUnitToMeasureUnitDTOMapper" data-source-line="23" data-uid="ent0045" id="entity_MeasureUnitToMeasureUnitDTOMapper"><rect fill="#2D2D2D" height="85.2422" rx="2.5" ry="2.5" style="stroke:#8A8A8A;stroke-width:0.5;" width="484.2539" x="602.5" y="613"/><ellipse cx="714.3325" cy="629" fill="#B4A7E5" rx="11" ry="11" style="stroke:#181818;stroke-width:1;"/><path d="M715.2856,625.6406 L715.2856,632.2969 L717.0044,632.2969 Q717.6138,632.2969 717.8794,632.5313 Q718.145,632.7656 718.145,633.1563 Q718.145,633.5313 717.8794,633.7656 Q717.6138,634 717.0044,634 L711.8638,634 Q711.2544,634 710.9888,633.7656 Q710.7231,633.5313 710.7231,633.1406 Q710.7231,632.7656 710.9888,632.5313 Q711.2544,632.2969 711.8638,632.2969 L713.5825,632.2969 L713.5825,625.6406 L711.8638,625.6406 Q711.2544,625.6406 710.9888,625.4063 Q710.7231,625.1719 710.7231,624.7813 Q710.7231,624.4063 710.9888,624.1719 Q711.2544,623.9375 711.8638,623.9375 L717.0044,623.9375 Q717.6138,623.9375 717.8794,624.1719 Q718.145,624.4063 718.145,624.7813 Q718.145,625.1719 717.8794,625.4063 Q717.6138,625.6406 717.0044,625.6406 L715.2856,625.6406 Z " fill="#000000"/><text fill="#E0E0E0" font-family="sans-serif" font-size="14" font-style="italic" lengthAdjust="spacing" textLength="252.0889" x="734.8325" y="634.7969">MeasureUnitToMeasureUnitDTOMapper</text><line style="stroke:#8A8A8A;stroke-width:0.5;" x1="603.5" x2="1085.7539" y1="645" y2="645"/><line style="stroke:#8A8A8A;stroke-width:0.5;" x1="603.5" x2="1085.7539" y1="653" y2="653"/><ellipse cx="613.5" cy="667.8105" fill="#84BE84" rx="3" ry="3" style="stroke:#038048;stroke-width:1;"/><text fill="#FFFFFF" font-family="sans-serif" font-size="14" lengthAdjust="spacing" textLength="458.2539" x="622.5" y="672.1074">void map(MeasureUnit measureUnit, MeasureUnitDTO measureUnitDTO)</text><ellipse cx="613.5" cy="686.4316" fill="#84BE84" rx="3" ry="3" style="stroke:#038048;stroke-width:1;"/><text fill="#FFFFFF" font-family="sans-serif" font-size="14" lengthAdjust="spacing" textLength="357.875" x="622.5" y="690.7285">MeasureUnitDTO mapToDTO(MeasureUnit measureUnit)</text></g><!--class SimpleMeasureUnitToMeasureUnitDTOMapper--><g class="entity" data-entity="SimpleMeasureUnitToMeasureUnitDTOMapper" data-source-line="28" data-uid="ent0048" id="entity_SimpleMeasureUnitToMeasureUnitDTOMapper"><rect fill="#2D2D2D" height="196.9688" rx="2.5" ry="2.5" style="stroke:#8A8A8A;stroke-width:0.5;" width="531.7227" x="850.5" y="758"/><ellipse cx="964.6704" cy="774" fill="#ADD1B2" rx="11" ry="11" style="stroke:#181818;stroke-width:1;"/><path d="M967.436,769.875 Q967.5923,769.6563 967.7798,769.5469 Q967.9673,769.4375 968.186,769.4375 Q968.561,769.4375 968.7954,769.7031 Q969.0298,769.9531 969.0298,770.5625 L969.0298,772.0156 Q969.0298,772.625 968.7954,772.8906 Q968.561,773.1563 968.186,773.1563 Q967.8423,773.1563 967.6392,772.9531 Q967.436,772.7656 967.3267,772.25 Q967.2798,771.8906 967.0923,771.7031 Q966.7642,771.3281 966.1548,771.1094 Q965.5454,770.8906 964.9204,770.8906 Q964.1548,770.8906 963.5142,771.2188 Q962.8892,771.5469 962.3892,772.2969 Q961.9048,773.0469 961.9048,774.0781 L961.9048,775.1719 Q961.9048,776.4063 962.7954,777.2344 Q963.686,778.0469 965.2798,778.0469 Q966.2173,778.0469 966.8735,777.7969 Q967.2642,777.6406 967.686,777.2031 Q967.9517,776.9375 968.0923,776.8594 Q968.2485,776.7813 968.4517,776.7813 Q968.7798,776.7813 969.0298,777.0469 Q969.2954,777.2969 969.2954,777.6406 Q969.2954,777.9844 968.9517,778.3906 Q968.4517,778.9688 967.6548,779.2969 Q966.5767,779.75 965.2798,779.75 Q963.7642,779.75 962.561,779.125 Q961.5767,778.625 960.8892,777.5625 Q960.2017,776.4844 960.2017,775.2031 L960.2017,774.0469 Q960.2017,772.7188 960.811,771.5781 Q961.436,770.4219 962.5298,769.8125 Q963.6235,769.1875 964.8579,769.1875 Q965.5923,769.1875 966.2329,769.3594 Q966.8892,769.5156 967.436,769.875 Z " fill="#000000"/><text fill="#E0E0E0" font-family="sans-serif" font-size="14" lengthAdjust="spacing" textLength="294.8818" x="985.1704" y="779.7969">SimpleMeasureUnitToMeasureUnitDTOMapper</text><line style="stroke:#8A8A8A;stroke-width:0.5;" x1="851.5" x2="1381.2227" y1="790" y2="790"/><rect fill="none" height="6" style="stroke:#C82930;stroke-width:1;" width="6" x="858.5" y="801.8105"/><text fill="#FFFFFF" font-family="sans-serif" font-size="14" lengthAdjust="spacing" textLength="179.792" x="870.5" y="809.1074">LongIdMapper longIdMapper</text><rect fill="none" height="6" style="stroke:#C82930;stroke-width:1;" width="6" x="858.5" y="820.4316"/><text fill="#FFFFFF" font-family="sans-serif" font-size="14" lengthAdjust="spacing" textLength="244.3232" x="870.5" y="827.7285">StringNameMapper stringNameMapper</text><rect fill="none" height="6" style="stroke:#C82930;stroke-width:1;" width="6" x="858.5" y="839.0527"/><text fill="#FFFFFF" font-family="sans-serif" font-size="14" lengthAdjust="spacing" textLength="251.3779" x="870.5" y="846.3496">LongVersionMapper longVersionMapper</text><line style="stroke:#8A8A8A;stroke-width:0.5;" x1="851.5" x2="1381.2227" y1="853.8633" y2="853.8633"/><ellipse cx="861.5" cy="868.6738" fill="#84BE84" rx="3" ry="3" style="stroke:#038048;stroke-width:1;"/><text fill="#FFFFFF" font-family="sans-serif" font-size="14" lengthAdjust="spacing" textLength="357.875" x="870.5" y="872.9707">MeasureUnitDTO mapToDTO(MeasureUnit measureUnit)</text><ellipse cx="861.5" cy="887.2949" fill="#84BE84" rx="3" ry="3" style="stroke:#038048;stroke-width:1;"/><text fill="#FFFFFF" font-family="sans-serif" font-size="14" lengthAdjust="spacing" textLength="458.2539" x="870.5" y="891.5918">void map(MeasureUnit measureUnit, MeasureUnitDTO measureUnitDTO)</text><rect fill="#F24D5C" height="6" style="stroke:#C82930;stroke-width:1;" width="6" x="858.5" y="902.916"/><text fill="#FFFFFF" font-family="sans-serif" font-size="14" lengthAdjust="spacing" textLength="469.9297" x="870.5" y="910.2129">void mapId(MeasureUnit measureUnit, MeasureUnitDTO measureUnitDTO)</text><rect fill="#F24D5C" height="6" style="stroke:#C82930;stroke-width:1;" width="6" x="858.5" y="921.5371"/><text fill="#FFFFFF" font-family="sans-serif" font-size="14" lengthAdjust="spacing" textLength="495.5986" x="870.5" y="928.834">void mapName(MeasureUnit measureUnit, MeasureUnitDTO measureUnitDTO)</text><rect fill="#F24D5C" height="6" style="stroke:#C82930;stroke-width:1;" width="6" x="858.5" y="940.1582"/><text fill="#FFFFFF" font-family="sans-serif" font-size="14" lengthAdjust="spacing" textLength="505.7227" x="870.5" y="947.4551">void mapVersion(MeasureUnit measureUnit, MeasureUnitDTO measureUnitDTO)</text></g><!--class IngredientToIngredientDTOMapper--><g class="entity" data-entity="IngredientToIngredientDTOMapper" data-source-line="25" data-uid="ent0053" id="entity_IngredientToIngredientDTOMapper"><rect fill="#2D2D2D" height="85.2422" rx="2.5" ry="2.5" style="stroke:#8A8A8A;stroke-width:0.5;" width="339.5986" x="530.5" y="137"/><ellipse cx="587.1016" cy="153" fill="#B4A7E5" rx="11" ry="11" style="stroke:#181818;stroke-width:1;"/><path d="M588.0547,149.6406 L588.0547,156.2969 L589.7734,156.2969 Q590.3828,156.2969 590.6484,156.5313 Q590.9141,156.7656 590.9141,157.1563 Q590.9141,157.5313 590.6484,157.7656 Q590.3828,158 589.7734,158 L584.6328,158 Q584.0234,158 583.7578,157.7656 Q583.4922,157.5313 583.4922,157.1406 Q583.4922,156.7656 583.7578,156.5313 Q584.0234,156.2969 584.6328,156.2969 L586.3516,156.2969 L586.3516,149.6406 L584.6328,149.6406 Q584.0234,149.6406 583.7578,149.4063 Q583.4922,149.1719 583.4922,148.7813 Q583.4922,148.4063 583.7578,148.1719 Q584.0234,147.9375 584.6328,147.9375 L589.7734,147.9375 Q590.3828,147.9375 590.6484,148.1719 Q590.9141,148.4063 590.9141,148.7813 Q590.9141,149.1719 590.6484,149.4063 Q590.3828,149.6406 589.7734,149.6406 L588.0547,149.6406 Z " fill="#000000"/><text fill="#E0E0E0" font-family="sans-serif" font-size="14" font-style="italic" lengthAdjust="spacing" textLength="217.8955" x="607.6016" y="158.7969">IngredientToIngredientDTOMapper</text><line style="stroke:#8A8A8A;stroke-width:0.5;" x1="531.5" x2="869.0986" y1="169" y2="169"/><line style="stroke:#8A8A8A;stroke-width:0.5;" x1="531.5" x2="869.0986" y1="177" y2="177"/><ellipse cx="541.5" cy="191.8105" fill="#84BE84" rx="3" ry="3" style="stroke:#038048;stroke-width:1;"/><text fill="#FFFFFF" font-family="sans-serif" font-size="14" lengthAdjust="spacing" textLength="313.5986" x="550.5" y="196.1074">void map(Ingredient source, IngredientDTO target)</text><ellipse cx="541.5" cy="210.4316" fill="#84BE84" rx="3" ry="3" style="stroke:#038048;stroke-width:1;"/><text fill="#FFFFFF" font-family="sans-serif" font-size="14" lengthAdjust="spacing" textLength="305.8057" x="550.5" y="214.7285">IngredientDTO mapToDTO(Ingredient ingredient)</text></g><!--class SimpleIngredientToIngredientDTOMapper--><g class="entity" data-entity="SimpleIngredientToIngredientDTOMapper" data-source-line="30" data-uid="ent0056" id="entity_SimpleIngredientToIngredientDTOMapper"><rect fill="#2D2D2D" height="271.4531" rx="2.5" ry="2.5" style="stroke:#8A8A8A;stroke-width:0.5;" width="618.9287" x="905" y="282"/><ellipse cx="1079.8701" cy="298" fill="#ADD1B2" rx="11" ry="11" style="stroke:#181818;stroke-width:1;"/><path d="M1082.6357,293.875 Q1082.792,293.6563 1082.9795,293.5469 Q1083.167,293.4375 1083.3857,293.4375 Q1083.7607,293.4375 1083.9951,293.7031 Q1084.2295,293.9531 1084.2295,294.5625 L1084.2295,296.0156 Q1084.2295,296.625 1083.9951,296.8906 Q1083.7607,297.1563 1083.3857,297.1563 Q1083.042,297.1563 1082.8389,296.9531 Q1082.6357,296.7656 1082.5264,296.25 Q1082.4795,295.8906 1082.292,295.7031 Q1081.9639,295.3281 1081.3545,295.1094 Q1080.7451,294.8906 1080.1201,294.8906 Q1079.3545,294.8906 1078.7139,295.2188 Q1078.0889,295.5469 1077.5889,296.2969 Q1077.1045,297.0469 1077.1045,298.0781 L1077.1045,299.1719 Q1077.1045,300.4063 1077.9951,301.2344 Q1078.8857,302.0469 1080.4795,302.0469 Q1081.417,302.0469 1082.0732,301.7969 Q1082.4639,301.6406 1082.8857,301.2031 Q1083.1514,300.9375 1083.292,300.8594 Q1083.4482,300.7813 1083.6514,300.7813 Q1083.9795,300.7813 1084.2295,301.0469 Q1084.4951,301.2969 1084.4951,301.6406 Q1084.4951,301.9844 1084.1514,302.3906 Q1083.6514,302.9688 1082.8545,303.2969 Q1081.7764,303.75 1080.4795,303.75 Q1078.9639,303.75 1077.7607,303.125 Q1076.7764,302.625 1076.0889,301.5625 Q1075.4014,300.4844 1075.4014,299.2031 L1075.4014,298.0469 Q1075.4014,296.7188 1076.0107,295.5781 Q1076.6357,294.4219 1077.7295,293.8125 Q1078.8232,293.1875 1080.0576,293.1875 Q1080.792,293.1875 1081.4326,293.3594 Q1082.0889,293.5156 1082.6357,293.875 Z " fill="#000000"/><text fill="#E0E0E0" font-family="sans-serif" font-size="14" lengthAdjust="spacing" textLength="260.6885" x="1100.3701" y="303.7969">SimpleIngredientToIngredientDTOMapper</text><line style="stroke:#8A8A8A;stroke-width:0.5;" x1="906" x2="1522.9287" y1="314" y2="314"/><rect fill="none" height="6" style="stroke:#C82930;stroke-width:1;" width="6" x="913" y="325.8105"/><text fill="#FFFFFF" font-family="sans-serif" font-size="14" lengthAdjust="spacing" textLength="179.792" x="925" y="333.1074">LongIdMapper longIdMapper</text><rect fill="none" height="6" style="stroke:#C82930;stroke-width:1;" width="6" x="913" y="344.4316"/><text fill="#FFFFFF" font-family="sans-serif" font-size="14" lengthAdjust="spacing" textLength="244.3232" x="925" y="351.7285">StringNameMapper stringNameMapper</text><rect fill="none" height="6" style="stroke:#C82930;stroke-width:1;" width="6" x="913" y="363.0527"/><text fill="#FFFFFF" font-family="sans-serif" font-size="14" lengthAdjust="spacing" textLength="193.7715" x="925" y="370.3496">AmountMapper amountMapper</text><rect fill="none" height="6" style="stroke:#C82930;stroke-width:1;" width="6" x="913" y="381.6738"/><text fill="#FFFFFF" font-family="sans-serif" font-size="14" lengthAdjust="spacing" textLength="508.0674" x="925" y="388.9707">MeasureUnitToMeasureUnitDTOMapper measureUnitToMeasureUnitDTOMapper</text><rect fill="none" height="6" style="stroke:#C82930;stroke-width:1;" width="6" x="913" y="400.2949"/><text fill="#FFFFFF" font-family="sans-serif" font-size="14" lengthAdjust="spacing" textLength="251.3779" x="925" y="407.5918">LongVersionMapper longVersionMapper</text><line style="stroke:#8A8A8A;stroke-width:0.5;" x1="906" x2="1522.9287" y1="415.1055" y2="415.1055"/><ellipse cx="916" cy="429.916" fill="#84BE84" rx="3" ry="3" style="stroke:#038048;stroke-width:1;"/><text fill="#FFFFFF" font-family="sans-serif" font-size="14" lengthAdjust="spacing" textLength="305.8057" x="925" y="434.2129">IngredientDTO mapToDTO(Ingredient ingredient)</text><ellipse cx="916" cy="448.5371" fill="#84BE84" rx="3" ry="3" style="stroke:#038048;stroke-width:1;"/><text fill="#FFFFFF" font-family="sans-serif" font-size="14" lengthAdjust="spacing" textLength="388.3086" x="925" y="452.834">void map(Ingredient ingredient, IngredientDTO ingredientDTO)</text><rect fill="#F24D5C" height="6" style="stroke:#C82930;stroke-width:1;" width="6" x="913" y="464.1582"/><text fill="#FFFFFF" font-family="sans-serif" font-size="14" lengthAdjust="spacing" textLength="399.9844" x="925" y="471.4551">void mapId(Ingredient ingredient, IngredientDTO ingredientDTO)</text><rect fill="#F24D5C" height="6" style="stroke:#C82930;stroke-width:1;" width="6" x="913" y="482.7793"/><text fill="#FFFFFF" font-family="sans-serif" font-size="14" lengthAdjust="spacing" textLength="425.6533" x="925" y="490.0762">void mapName(Ingredient ingredient, IngredientDTO ingredientDTO)</text><rect fill="#F24D5C" height="6" style="stroke:#C82930;stroke-width:1;" width="6" x="913" y="501.4004"/><text fill="#FFFFFF" font-family="sans-serif" font-size="14" lengthAdjust="spacing" textLength="436.5566" x="925" y="508.6973">void mapAmount(Ingredient ingredient, IngredientDTO ingredientDTO)</text><rect fill="#F24D5C" height="6" style="stroke:#C82930;stroke-width:1;" width="6" x="913" y="520.0215"/><text fill="#FFFFFF" font-family="sans-serif" font-size="14" lengthAdjust="spacing" textLength="592.9287" x="925" y="527.3184">void mapMeasureUnitToMeasureUnitDTO(Ingredient ingredient, IngredientDTO ingredientDTO)</text><rect fill="#F24D5C" height="6" style="stroke:#C82930;stroke-width:1;" width="6" x="913" y="538.6426"/><text fill="#FFFFFF" font-family="sans-serif" font-size="14" lengthAdjust="spacing" textLength="435.7773" x="925" y="545.9395">void mapVersion(Ingredient ingredient, IngredientDTO ingredientDTO)</text></g><!--reverse link Validator to LongIdValidator--><g class="link" data-entity-1="Validator" data-entity-2="LongIdValidator" data-source-line="18" data-uid="lnk6" id="link_Validator_LongIdValidator"><path d="M1192,1254.63 C1192,1284.01 1192,1304 1192,1304 C1192,1304 726.5,1304 726.5,1304 C726.5,1304 726.5,1313.17 726.5,1323.92" fill="none" id="Validator-backto-LongIdValidator" style="stroke:#B0C4DE;stroke-width:1;"/><polygon fill="none" points="1192,1236.63,1186,1254.63,1198,1254.63,1192,1236.63" style="stroke:#B0C4DE;stroke-width:1;"/></g><!--reverse link LongIdValidator to PositiveLongIdValidator--><g class="link" data-entity-1="LongIdValidator" data-entity-2="PositiveLongIdValidator" data-source-line="22" data-uid="lnk8" id="link_LongIdValidator_PositiveLongIdValidator"><path d="M612.5,1409.25 C612.5,1429.81 612.5,1438.29 612.5,1460.3" fill="none" id="LongIdValidator-backto-PositiveLongIdValidator" style="stroke:#B0C4DE;stroke-width:1;stroke-dasharray:7,7;"/><polygon fill="none" points="612.5,1391.25,606.5,1409.25,618.5,1409.25,612.5,1391.25" style="stroke:#B0C4DE;stroke-width:1;"/></g><!--reverse link Mapper to LongIdMapper--><g class="link" data-entity-1="Mapper" data-entity-2="LongIdMapper" data-source-line="21" data-uid="lnk10" id="link_Mapper_LongIdMapper"><path d="M1210.5,95.46 C1210.5,154.54 1210.5,252 1210.5,252 C1210.5,252 554.5,252 554.5,252 C554.5,252 554.5,863.18 554.5,1014.78" fill="none" id="Mapper-backto-LongIdMapper" style="stroke:#B0C4DE;stroke-width:1;"/><polygon fill="none" points="1210.5,77.46,1204.5,95.46,1216.5,95.46,1210.5,77.46" style="stroke:#B0C4DE;stroke-width:1;"/></g><!--reverse link LongIdMapper to SimpleLongIdMapper--><g class="link" data-entity-1="LongIdMapper" data-entity-2="SimpleLongIdMapper" data-source-line="25" data-uid="lnk12" id="link_LongIdMapper_SimpleLongIdMapper"><path d="M370.95,1049 C268.76,1049 173.5,1049 173.5,1049 C173.5,1049 173.5,1114.54 173.5,1160.1" fill="none" id="LongIdMapper-backto-SimpleLongIdMapper" style="stroke:#B0C4DE;stroke-width:1;stroke-dasharray:7,7;"/><polygon fill="none" points="388.95,1049,370.95,1043,370.95,1055,388.95,1049" style="stroke:#B0C4DE;stroke-width:1;"/></g><!--reverse link LongIdMapper to ValidatedLongIdMapper--><g class="link" data-entity-1="LongIdMapper" data-entity-2="ValidatedLongIdMapper" data-source-line="30" data-uid="lnk14" id="link_LongIdMapper_ValidatedLongIdMapper"><path d="M548.5,1100.02 C548.5,1117.51 548.5,1121.45 548.5,1141.82" fill="none" id="LongIdMapper-backto-ValidatedLongIdMapper" style="stroke:#B0C4DE;stroke-width:1;stroke-dasharray:7,7;"/><polygon fill="none" points="548.5,1082.02,542.5,1100.02,554.5,1100.02,548.5,1082.02" style="stroke:#B0C4DE;stroke-width:1;"/></g><!--link ValidatedLongIdMapper to LongIdValidator--><g class="link" data-entity-1="ValidatedLongIdMapper" data-entity-2="LongIdValidator" data-source-line="37" data-uid="lnk15" id="link_ValidatedLongIdMapper_LongIdValidator"><path codeLine="37" d="M592.25,1264.06 C592.25,1284.47 592.25,1300.46 592.25,1317.98" fill="none" id="ValidatedLongIdMapper-to-LongIdValidator" style="stroke:#B0C4DE;stroke-width:1;"/><polygon fill="#B0C4DE" points="592.25,1323.98,596.25,1314.98,592.25,1318.98,588.25,1314.98,592.25,1323.98" style="stroke:#B0C4DE;stroke-width:1;"/></g><!--reverse link Validator to StringNameValidator--><g class="link" data-entity-1="Validator" data-entity-2="StringNameValidator" data-source-line="20" data-uid="lnk17" id="link_Validator_StringNameValidator"><path d="M1151.5,1203 C1151.5,1203 1151.75,1278.54 1151.75,1323.98" fill="none" id="Validator-backto-StringNameValidator" style="stroke:#B0C4DE;stroke-width:1;"/><polygon fill="none" points="1169.5,1203,1151.5,1197,1151.5,1209,1169.5,1203" style="stroke:#B0C4DE;stroke-width:1;"/></g><!--reverse link StringNameValidator to NonBlankStringNameValidator--><g class="link" data-entity-1="StringNameValidator" data-entity-2="NonBlankStringNameValidator" data-source-line="24" data-uid="lnk19" id="link_StringNameValidator_NonBlankStringNameValidator"><path d="M1007.5,1409.25 C1007.5,1426.96 1007.5,1431.05 1007.5,1450.91" fill="none" id="StringNameValidator-backto-NonBlankStringNameValidator" style="stroke:#B0C4DE;stroke-width:1;stroke-dasharray:7,7;"/><polygon fill="none" points="1007.5,1391.25,1001.5,1409.25,1013.5,1409.25,1007.5,1391.25" style="stroke:#B0C4DE;stroke-width:1;"/></g><!--reverse link Mapper to StringNameMapper--><g class="link" data-entity-1="Mapper" data-entity-2="StringNameMapper" data-source-line="21" data-uid="lnk21" id="link_Mapper_StringNameMapper"><path d="M1363.57,61 C1470.22,61 1583.17,61 1583.17,61 C1583.17,61 1583.17,985 1583.17,985 C1583.17,985 1234.33,985 1234.33,985 C1234.33,985 1234.33,999.66 1234.33,1014.89" fill="none" id="Mapper-backto-StringNameMapper" style="stroke:#B0C4DE;stroke-width:1;"/><polygon fill="none" points="1345.57,61,1363.57,67,1363.57,55,1345.57,61" style="stroke:#B0C4DE;stroke-width:1;"/></g><!--reverse link StringNameMapper to ValidatedStringNameMapper--><g class="link" data-entity-1="StringNameMapper" data-entity-2="ValidatedStringNameMapper" data-source-line="25" data-uid="lnk23" id="link_StringNameMapper_ValidatedStringNameMapper"><path d="M1056.5,1100.02 C1056.5,1117.51 1056.5,1121.45 1056.5,1141.82" fill="none" id="StringNameMapper-backto-ValidatedStringNameMapper" style="stroke:#B0C4DE;stroke-width:1;stroke-dasharray:7,7;"/><polygon fill="none" points="1056.5,1082.02,1050.5,1100.02,1062.5,1100.02,1056.5,1082.02" style="stroke:#B0C4DE;stroke-width:1;"/></g><!--link ValidatedStringNameMapper to StringNameValidator--><g class="link" data-entity-1="ValidatedStringNameMapper" data-entity-2="StringNameValidator" data-source-line="32" data-uid="lnk24" id="link_ValidatedStringNameMapper_StringNameValidator"><path codeLine="32" d="M988.5,1264.06 C988.5,1284.47 988.5,1300.46 988.5,1317.98" fill="none" id="ValidatedStringNameMapper-to-StringNameValidator" style="stroke:#B0C4DE;stroke-width:1;"/><polygon fill="#B0C4DE" points="988.5,1323.98,992.5,1314.98,988.5,1318.98,984.5,1314.98,988.5,1323.98" style="stroke:#B0C4DE;stroke-width:1;"/></g><!--reverse link Validator to AmountValidator--><g class="link" data-entity-1="Validator" data-entity-2="AmountValidator" data-source-line="20" data-uid="lnk26" id="link_Validator_AmountValidator"><path d="M1404.25,1254.88 C1404.25,1277.08 1404.25,1284 1404.25,1284 C1404.25,1284 2222.5,1284 2222.5,1284 C2222.5,1284 2222.5,1304.44 2222.5,1323.76" fill="none" id="Validator-backto-AmountValidator" style="stroke:#B0C4DE;stroke-width:1;"/><polygon fill="none" points="1404.25,1236.88,1398.25,1254.88,1410.25,1254.88,1404.25,1236.88" style="stroke:#B0C4DE;stroke-width:1;"/></g><!--reverse link AmountValidator to PositiveAmountValidator--><g class="link" data-entity-1="AmountValidator" data-entity-2="PositiveAmountValidator" data-source-line="24" data-uid="lnk28" id="link_AmountValidator_PositiveAmountValidator"><path d="M2240.5,1409.25 C2240.5,1429.81 2240.5,1438.29 2240.5,1460.3" fill="none" id="AmountValidator-backto-PositiveAmountValidator" style="stroke:#B0C4DE;stroke-width:1;"/><polygon fill="none" points="2240.5,1391.25,2234.5,1409.25,2246.5,1409.25,2240.5,1391.25" style="stroke:#B0C4DE;stroke-width:1;"/></g><!--reverse link Mapper to AmountMapper--><g class="link" data-entity-1="Mapper" data-entity-2="AmountMapper" data-source-line="21" data-uid="lnk30" id="link_Mapper_AmountMapper"><path d="M1363.83,27 C1556.16,27 1867.5,27 1867.5,27 C1867.5,27 1867.5,491.16 1867.5,621.71" fill="none" id="Mapper-backto-AmountMapper" style="stroke:#B0C4DE;stroke-width:1;"/><polygon fill="none" points="1345.83,27,1363.83,33,1363.83,21,1345.83,27" style="stroke:#B0C4DE;stroke-width:1;"/></g><!--reverse link AmountMapper to ValidatedAmountMapper--><g class="link" data-entity-1="AmountMapper" data-entity-2="ValidatedAmountMapper" data-source-line="25" data-uid="lnk32" id="link_AmountMapper_ValidatedAmountMapper"><path d="M1994,707.14 C1994,736.09 1994,760.57 1994,795.5" fill="none" id="AmountMapper-backto-ValidatedAmountMapper" style="stroke:#B0C4DE;stroke-width:1;stroke-dasharray:7,7;"/><polygon fill="none" points="1994,689.14,1988,707.14,2000,707.14,1994,689.14" style="stroke:#B0C4DE;stroke-width:1;"/></g><!--link ValidatedAmountMapper to AmountValidator--><g class="link" data-entity-1="ValidatedAmountMapper" data-entity-2="AmountValidator" data-source-line="32" data-uid="lnk33" id="link_ValidatedAmountMapper_AmountValidator"><path codeLine="32" d="M2334.89,857 C2351.12,857 2361.5,857 2361.5,857 C2361.5,857 2361.5,1205.67 2361.5,1317.88" fill="none" id="ValidatedAmountMapper-to-AmountValidator" style="stroke:#B0C4DE;stroke-width:1;"/><polygon fill="#B0C4DE" points="2361.5,1323.88,2365.5,1314.88,2361.5,1318.88,2357.5,1314.88,2361.5,1323.88" style="stroke:#B0C4DE;stroke-width:1;"/></g><!--reverse link Validator to LongVersionValidator--><g class="link" data-entity-1="Validator" data-entity-2="LongVersionValidator" data-source-line="20" data-uid="lnk35" id="link_Validator_LongVersionValidator"><path d="M1441.65,1203 C1441.65,1203 1438,1278.54 1438,1323.98" fill="none" id="Validator-backto-LongVersionValidator" style="stroke:#B0C4DE;stroke-width:1;"/><polygon fill="none" points="1423.65,1203,1441.65,1209,1441.65,1197,1423.65,1203" style="stroke:#B0C4DE;stroke-width:1;"/></g><!--reverse link LongVersionValidator to PositiveLongVersionValidator--><g class="link" data-entity-1="LongVersionValidator" data-entity-2="PositiveLongVersionValidator" data-source-line="24" data-uid="lnk37" id="link_LongVersionValidator_PositiveLongVersionValidator"><path d="M1593.5,1409.25 C1593.5,1429.81 1593.5,1438.29 1593.5,1460.3" fill="none" id="LongVersionValidator-backto-PositiveLongVersionValidator" style="stroke:#B0C4DE;stroke-width:1;stroke-dasharray:7,7;"/><polygon fill="none" points="1593.5,1391.25,1587.5,1409.25,1599.5,1409.25,1593.5,1391.25" style="stroke:#B0C4DE;stroke-width:1;"/></g><!--reverse link Mapper to LongVersionMapper--><g class="link" data-entity-1="Mapper" data-entity-2="LongVersionMapper" data-source-line="21" data-uid="lnk39" id="link_Mapper_LongVersionMapper"><path d="M1363.65,44 C1490.33,44 1642.33,44 1642.33,44 C1642.33,44 1642.33,839.91 1642.33,1014.79" fill="none" id="Mapper-backto-LongVersionMapper" style="stroke:#B0C4DE;stroke-width:1;"/><polygon fill="none" points="1345.65,44,1363.65,50,1363.65,38,1345.65,44" style="stroke:#B0C4DE;stroke-width:1;"/></g><!--reverse link LongVersionMapper to SimpleLongVersionMapper--><g class="link" data-entity-1="LongVersionMapper" data-entity-2="SimpleLongVersionMapper" data-source-line="25" data-uid="lnk41" id="link_LongVersionMapper_SimpleLongVersionMapper"><path d="M1863.22,1049 C1910.18,1049 1929,1049 1929,1049 C1929,1049 1929,1114.54 1929,1160.1" fill="none" id="LongVersionMapper-backto-SimpleLongVersionMapper" style="stroke:#B0C4DE;stroke-width:1;stroke-dasharray:7,7;"/><polygon fill="none" points="1845.22,1049,1863.22,1055,1863.22,1043,1845.22,1049" style="stroke:#B0C4DE;stroke-width:1;"/></g><!--reverse link LongVersionMapper to ValidatedLongVersionMapper--><g class="link" data-entity-1="LongVersionMapper" data-entity-2="ValidatedLongVersionMapper" data-source-line="30" data-uid="lnk43" id="link_LongVersionMapper_ValidatedLongVersionMapper"><path d="M1651.75,1100.02 C1651.75,1117.51 1651.75,1121.45 1651.75,1141.82" fill="none" id="LongVersionMapper-backto-ValidatedLongVersionMapper" style="stroke:#B0C4DE;stroke-width:1;stroke-dasharray:7,7;"/><polygon fill="none" points="1651.75,1082.02,1645.75,1100.02,1657.75,1100.02,1651.75,1082.02" style="stroke:#B0C4DE;stroke-width:1;"/></g><!--link ValidatedLongVersionMapper to LongVersionValidator--><g class="link" data-entity-1="ValidatedLongVersionMapper" data-entity-2="LongVersionValidator" data-source-line="37" data-uid="lnk44" id="link_ValidatedLongVersionMapper_LongVersionValidator"><path codeLine="37" d="M1610.75,1264.06 C1610.75,1284.47 1610.75,1300.46 1610.75,1317.98" fill="none" id="ValidatedLongVersionMapper-to-LongVersionValidator" style="stroke:#B0C4DE;stroke-width:1;"/><polygon fill="#B0C4DE" points="1610.75,1323.98,1614.75,1314.98,1610.75,1318.98,1606.75,1314.98,1610.75,1323.98" style="stroke:#B0C4DE;stroke-width:1;"/></g><!--reverse link Mapper to MeasureUnitToMeasureUnitDTOMapper--><g class="link" data-entity-1="Mapper" data-entity-2="MeasureUnitToMeasureUnitDTOMapper" data-source-line="24" data-uid="lnk46" id="link_Mapper_MeasureUnitToMeasureUnitDTOMapper"><path d="M1057.5,55 C969.05,55 887.75,55 887.75,55 C887.75,55 887.75,475.61 887.75,612.79" fill="none" id="Mapper-backto-MeasureUnitToMeasureUnitDTOMapper" style="stroke:#B0C4DE;stroke-width:1;"/><polygon fill="none" points="1075.5,55,1057.5,49,1057.5,61,1075.5,55" style="stroke:#B0C4DE;stroke-width:1;"/></g><!--reverse link ToDTOMapper to MeasureUnitToMeasureUnitDTOMapper--><g class="link" data-entity-1="ToDTOMapper" data-entity-2="MeasureUnitToMeasureUnitDTOMapper" data-source-line="24" data-uid="lnk47" id="link_ToDTOMapper_MeasureUnitToMeasureUnitDTOMapper"><path d="M502,95.3 C502,223.71 502,656 502,656 C502,656 545.99,656 602.45,656" fill="none" id="ToDTOMapper-backto-MeasureUnitToMeasureUnitDTOMapper" style="stroke:#B0C4DE;stroke-width:1;"/><polygon fill="none" points="502,77.3,496,95.3,508,95.3,502,77.3" style="stroke:#B0C4DE;stroke-width:1;"/></g><!--reverse link MeasureUnitToMeasureUnitDTOMapper to SimpleMeasureUnitToMeasureUnitDTOMapper--><g class="link" data-entity-1="MeasureUnitToMeasureUnitDTOMapper" data-entity-2="SimpleMeasureUnitToMeasureUnitDTOMapper" data-source-line="29" data-uid="lnk49" id="link_MeasureUnitToMeasureUnitDTOMapper_SimpleMeasureUnitToMeasureUnitDTOMapper"><path d="M968.5,716.13 C968.5,733.64 968.5,736.72 968.5,757.69" fill="none" id="MeasureUnitToMeasureUnitDTOMapper-backto-SimpleMeasureUnitToMeasureUnitDTOMapper" style="stroke:#B0C4DE;stroke-width:1;stroke-dasharray:7,7;"/><polygon fill="none" points="968.5,698.13,962.5,716.13,974.5,716.13,968.5,698.13" style="stroke:#B0C4DE;stroke-width:1;"/></g><!--link SimpleMeasureUnitToMeasureUnitDTOMapper to LongIdMapper--><g class="link" data-entity-1="SimpleMeasureUnitToMeasureUnitDTOMapper" data-entity-2="LongIdMapper" data-source-line="40" data-uid="lnk50" id="link_SimpleMeasureUnitToMeasureUnitDTOMapper_LongIdMapper"><path codeLine="40" d="M914.75,955.01 C914.75,1002.37 914.75,1049 914.75,1049 C914.75,1049 814.23,1049 716.24,1049" fill="none" id="SimpleMeasureUnitToMeasureUnitDTOMapper-to-LongIdMapper" style="stroke:#B0C4DE;stroke-width:1;"/><polygon fill="#B0C4DE" points="710.24,1049,719.24,1053,715.24,1049,719.24,1045,710.24,1049" style="stroke:#B0C4DE;stroke-width:1;"/></g><!--link SimpleMeasureUnitToMeasureUnitDTOMapper to StringNameMapper--><g class="link" data-entity-1="SimpleMeasureUnitToMeasureUnitDTOMapper" data-entity-2="StringNameMapper" data-source-line="41" data-uid="lnk51" id="link_SimpleMeasureUnitToMeasureUnitDTOMapper_StringNameMapper"><path codeLine="41" d="M1106.67,955.03 C1106.67,976.58 1106.67,991.95 1106.67,1008.81" fill="none" id="SimpleMeasureUnitToMeasureUnitDTOMapper-to-StringNameMapper" style="stroke:#B0C4DE;stroke-width:1;"/><polygon fill="#B0C4DE" points="1106.67,1014.81,1110.67,1005.81,1106.67,1009.81,1102.67,1005.81,1106.67,1014.81" style="stroke:#B0C4DE;stroke-width:1;"/></g><!--link SimpleMeasureUnitToMeasureUnitDTOMapper to LongVersionMapper--><g class="link" data-entity-1="SimpleMeasureUnitToMeasureUnitDTOMapper" data-entity-2="LongVersionMapper" data-source-line="42" data-uid="lnk52" id="link_SimpleMeasureUnitToMeasureUnitDTOMapper_LongVersionMapper"><path codeLine="42" d="M1372.25,955.27 C1372.25,1007.12 1372.25,1060 1372.25,1060 C1372.25,1060 1400.96,1060 1445.78,1060" fill="none" id="SimpleMeasureUnitToMeasureUnitDTOMapper-to-LongVersionMapper" style="stroke:#B0C4DE;stroke-width:1;"/><polygon fill="#B0C4DE" points="1451.78,1060,1442.78,1056,1446.78,1060,1442.78,1064,1451.78,1060" style="stroke:#B0C4DE;stroke-width:1;"/></g><!--reverse link Mapper to IngredientToIngredientDTOMapper--><g class="link" data-entity-1="Mapper" data-entity-2="IngredientToIngredientDTOMapper" data-source-line="26" data-uid="lnk54" id="link_Mapper_IngredientToIngredientDTOMapper"><path d="M1057.37,33 C933.75,33 788,33 788,33 C788,33 788,93.49 788,136.73" fill="none" id="Mapper-backto-IngredientToIngredientDTOMapper" style="stroke:#B0C4DE;stroke-width:1;"/><polygon fill="none" points="1075.37,33,1057.37,27,1057.37,39,1075.37,33" style="stroke:#B0C4DE;stroke-width:1;"/></g><!--reverse link ToDTOMapper to IngredientToIngredientDTOMapper--><g class="link" data-entity-1="ToDTOMapper" data-entity-2="IngredientToIngredientDTOMapper" data-source-line="26" data-uid="lnk55" id="link_ToDTOMapper_IngredientToIngredientDTOMapper"><path d="M618,95.12 C618,113.13 618,117.51 618,136.75" fill="none" id="ToDTOMapper-backto-IngredientToIngredientDTOMapper" style="stroke:#B0C4DE;stroke-width:1;"/><polygon fill="none" points="618,77.12,612,95.12,624,95.12,618,77.12" style="stroke:#B0C4DE;stroke-width:1;"/></g><!--reverse link IngredientToIngredientDTOMapper to SimpleIngredientToIngredientDTOMapper--><g class="link" data-entity-1="IngredientToIngredientDTOMapper" data-entity-2="SimpleIngredientToIngredientDTOMapper" data-source-line="31" data-uid="lnk57" id="link_IngredientToIngredientDTOMapper_SimpleIngredientToIngredientDTOMapper"><path d="M888.72,180 C951.8,180 990.25,180 990.25,180 C990.25,180 990.25,228.55 990.25,281.75" fill="none" id="IngredientToIngredientDTOMapper-backto-SimpleIngredientToIngredientDTOMapper" style="stroke:#B0C4DE;stroke-width:1;stroke-dasharray:7,7;"/><polygon fill="none" points="870.72,180,888.72,186,888.72,174,870.72,180" style="stroke:#B0C4DE;stroke-width:1;"/></g><!--link SimpleIngredientToIngredientDTOMapper to LongIdMapper--><g class="link" data-entity-1="SimpleIngredientToIngredientDTOMapper" data-entity-2="LongIdMapper" data-source-line="46" data-uid="lnk58" id="link_SimpleIngredientToIngredientDTOMapper_LongIdMapper"><path codeLine="46" d="M904.88,418 C743.14,418 578.5,418 578.5,418 C578.5,418 578.5,877.64 578.5,1008.6" fill="none" id="SimpleIngredientToIngredientDTOMapper-to-LongIdMapper" style="stroke:#B0C4DE;stroke-width:1;"/><polygon fill="#B0C4DE" points="578.5,1014.6,582.5,1005.6,578.5,1009.6,574.5,1005.6,578.5,1014.6" style="stroke:#B0C4DE;stroke-width:1;"/></g><!--link SimpleIngredientToIngredientDTOMapper to StringNameMapper--><g class="link" data-entity-1="SimpleIngredientToIngredientDTOMapper" data-entity-2="StringNameMapper" data-source-line="47" data-uid="lnk59" id="link_SimpleIngredientToIngredientDTOMapper_StringNameMapper"><path codeLine="47" d="M1403,553.29 C1403,735.9 1403,1038 1403,1038 C1403,1038 1392.47,1038 1368.24,1038" fill="none" id="SimpleIngredientToIngredientDTOMapper-to-StringNameMapper" style="stroke:#B0C4DE;stroke-width:1;"/><polygon fill="#B0C4DE" points="1362.24,1038,1371.24,1042,1367.24,1038,1371.24,1034,1362.24,1038" style="stroke:#B0C4DE;stroke-width:1;"/></g><!--link SimpleIngredientToIngredientDTOMapper to AmountMapper--><g class="link" data-entity-1="SimpleIngredientToIngredientDTOMapper" data-entity-2="AmountMapper" data-source-line="48" data-uid="lnk60" id="link_SimpleIngredientToIngredientDTOMapper_AmountMapper"><path codeLine="48" d="M1500,553.12 C1500,606.82 1500,656 1500,656 C1500,656 1598.1,656 1695.49,656" fill="none" id="SimpleIngredientToIngredientDTOMapper-to-AmountMapper" style="stroke:#B0C4DE;stroke-width:1;"/><polygon fill="#B0C4DE" points="1701.49,656,1692.49,652,1696.49,656,1692.49,660,1701.49,656" style="stroke:#B0C4DE;stroke-width:1;"/></g><!--link SimpleIngredientToIngredientDTOMapper to MeasureUnitToMeasureUnitDTOMapper--><g class="link" data-entity-1="SimpleIngredientToIngredientDTOMapper" data-entity-2="MeasureUnitToMeasureUnitDTOMapper" data-source-line="49" data-uid="lnk61" id="link_SimpleIngredientToIngredientDTOMapper_MeasureUnitToMeasureUnitDTOMapper"><path codeLine="49" d="M995.75,553.19 C995.75,574.79 995.75,589.65 995.75,606.84" fill="none" id="SimpleIngredientToIngredientDTOMapper-to-MeasureUnitToMeasureUnitDTOMapper" style="stroke:#B0C4DE;stroke-width:1;"/><polygon fill="#B0C4DE" points="995.75,612.84,999.75,603.84,995.75,607.84,991.75,603.84,995.75,612.84" style="stroke:#B0C4DE;stroke-width:1;"/></g><!--link SimpleIngredientToIngredientDTOMapper to LongVersionMapper--><g class="link" data-entity-1="SimpleIngredientToIngredientDTOMapper" data-entity-2="LongVersionMapper" data-source-line="50" data-uid="lnk62" id="link_SimpleIngredientToIngredientDTOMapper_LongVersionMapper"><path codeLine="50" d="M1476,553.25 C1476,701.58 1476,923.44 1476,1008.74" fill="none" id="SimpleIngredientToIngredientDTOMapper-to-LongVersionMapper" style="stroke:#B0C4DE;stroke-width:1;"/><polygon fill="#B0C4DE" points="1476,1014.74,1480,1005.74,1476,1009.74,1472,1005.74,1476,1014.74" style="stroke:#B0C4DE;stroke-width:1;"/></g><!--SRC=[hLFBJiCm4BpdAnPneO8YG1mu8QKjI9Ke70ZSJRnDhJfsP3iyXFXtxDGqJYWDgHfBaRqpEzhrUFMIYO8eaWDd0ir7WI2LMSX8hu4NaYup9Kj1nv9B1OVdDsu538fpKdAJuBk9ESj4Zi90Qd-e0bQib7pp4gEpyUKabD0BGkKR4ndC2TSO8BTI69zrMtq1bdAYTISXDaQnbz9W9tE6jdNwczRcmMS4C6hVoyN4BOT8HL7vw5Nibeq6iZTdRaLVKNJ0HCfBYZ0ZHO7gj2XpNWSJEKaUDY9tKcHJkX5wjDsAx9xak16ESrkosGZDaEXIuPDW9f71OLiHpwWqaoB48-QSdvCKOIeoXPJPfv38Uh_M0_jYK53jkpy96wxk6E0ONYMZa9FYg1O0BKkLuWaqDC4GbQ4P-BmcPWKgyL25hRS3vyNAsaUM5nox2gz8xfthpXvNVGmRbW4F3Xvl-mQw5V2yq40WmS7ZdIv2tiK8AcxuMvNTY4GxNVRVnjQijhaiF0ryXJyIKxe74NVJUv1P-RC7eIr6xa7TsxYJaXsM_ut9S7ZTUFSzqjhZq2Crd90UQPs3qxFfng1y0m00]--></g></svg>