<svg xmlns="http://www.w3.org/2000/svg" contentStyleType="text/css" data-diagram-type="CLASS" height="683px"
     preserveAspectRatio="none" style="width:757px;height:683px;background:#1E1E1E;" version="1.1" viewBox="0 0 757 683"
     width="757px" zoomAndPan="magnify"><defs/><g><rect fill="#1E1E1E" height="683" style="stroke:none;stroke-width:1;" width="757" x="0" y="0"/><!--class Mapper--><g class="entity" data-entity="Mapper" data-source-line="17" data-uid="ent0002" id="entity_Mapper"><rect fill="#2D2D2D" height="66.6211" rx="2.5" ry="2.5" style="stroke:#8A8A8A;stroke-width:0.5;" width="270.3301" x="97" y="10"/><ellipse cx="162.4951" cy="26" fill="#B4A7E5" rx="11" ry="11" style="stroke:#181818;stroke-width:1;"/><path d="M163.4482,22.6406 L163.4482,29.2969 L165.167,29.2969 Q165.7764,29.2969 166.042,29.5313 Q166.3076,29.7656 166.3076,30.1563 Q166.3076,30.5313 166.042,30.7656 Q165.7764,31 165.167,31 L160.0264,31 Q159.417,31 159.1514,30.7656 Q158.8857,30.5313 158.8857,30.1406 Q158.8857,29.7656 159.1514,29.5313 Q159.417,29.2969 160.0264,29.2969 L161.7451,29.2969 L161.7451,22.6406 L160.0264,22.6406 Q159.417,22.6406 159.1514,22.4063 Q158.8857,22.1719 158.8857,21.7813 Q158.8857,21.4063 159.1514,21.1719 Q159.417,20.9375 160.0264,20.9375 L165.167,20.9375 Q165.7764,20.9375 166.042,21.1719 Q166.3076,21.4063 166.3076,21.7813 Q166.3076,22.1719 166.042,22.4063 Q165.7764,22.6406 165.167,22.6406 L163.4482,22.6406 Z " fill="#000000"/><text fill="#E0E0E0" font-family="sans-serif" font-size="14" font-style="italic" lengthAdjust="spacing" textLength="47.4688" x="182.9951" y="31.7969">Mapper</text><rect fill="#2D2D2D" height="17.9609" style="stroke:#8A8A8A;stroke-width:1;stroke-dasharray:2,2;" width="81.3711" x="288.959" y="7"/><text fill="#000000" font-family="sans-serif" font-size="12" font-style="italic" lengthAdjust="spacing" textLength="79.3711" x="289.959" y="20.9492">Source, Target</text><line style="stroke:#8A8A8A;stroke-width:0.5;" x1="98" x2="366.3301" y1="42" y2="42"/><line style="stroke:#8A8A8A;stroke-width:0.5;" x1="98" x2="366.3301" y1="50" y2="50"/><ellipse cx="108" cy="64.8105" fill="#84BE84" rx="3" ry="3" style="stroke:#038048;stroke-width:1;"/><text fill="#FFFFFF" font-family="sans-serif" font-size="14" lengthAdjust="spacing" textLength="244.3301" x="117" y="69.1074">void map(Source source, Target target)</text></g><!--class Validator--><g class="entity" data-entity="Validator" data-source-line="17" data-uid="ent0003" id="entity_Validator"><rect fill="#2D2D2D" height="66.6211" rx="2.5" ry="2.5" style="stroke:#8A8A8A;stroke-width:0.5;" width="254.0127" x="492" y="291.5"/><ellipse cx="559.1162" cy="307.5" fill="#B4A7E5" rx="11" ry="11" style="stroke:#181818;stroke-width:1;"/><path d="M560.0693,304.1406 L560.0693,310.7969 L561.7881,310.7969 Q562.3975,310.7969 562.6631,311.0313 Q562.9287,311.2656 562.9287,311.6563 Q562.9287,312.0313 562.6631,312.2656 Q562.3975,312.5 561.7881,312.5 L556.6475,312.5 Q556.0381,312.5 555.7725,312.2656 Q555.5068,312.0313 555.5068,311.6406 Q555.5068,311.2656 555.7725,311.0313 Q556.0381,310.7969 556.6475,310.7969 L558.3662,310.7969 L558.3662,304.1406 L556.6475,304.1406 Q556.0381,304.1406 555.7725,303.9063 Q555.5068,303.6719 555.5068,303.2813 Q555.5068,302.9063 555.7725,302.6719 Q556.0381,302.4375 556.6475,302.4375 L561.7881,302.4375 Q562.3975,302.4375 562.6631,302.6719 Q562.9287,302.9063 562.9287,303.2813 Q562.9287,303.6719 562.6631,303.9063 Q562.3975,304.1406 561.7881,304.1406 L560.0693,304.1406 Z " fill="#000000"/><text fill="#E0E0E0" font-family="sans-serif" font-size="14" font-style="italic" lengthAdjust="spacing" textLength="55.2549" x="579.6162" y="313.2969">Validator</text><rect fill="#2D2D2D" height="17.9609" style="stroke:#8A8A8A;stroke-width:1;stroke-dasharray:2,2;" width="54.0254" x="694.9873" y="288.5"/><text fill="#000000" font-family="sans-serif" font-size="12" font-style="italic" lengthAdjust="spacing" textLength="52.0254" x="695.9873" y="302.4492">Argument</text><line style="stroke:#8A8A8A;stroke-width:0.5;" x1="493" x2="745.0127" y1="323.5" y2="323.5"/><line style="stroke:#8A8A8A;stroke-width:0.5;" x1="493" x2="745.0127" y1="331.5" y2="331.5"/><ellipse cx="503" cy="346.3105" fill="#84BE84" rx="3" ry="3" style="stroke:#038048;stroke-width:1;"/><text fill="#FFFFFF" font-family="sans-serif" font-size="14" lengthAdjust="spacing" textLength="228.0127" x="512" y="350.6074">boolean isValid(Argument argument)</text></g><!--class InstructionsValidator--><g class="entity" data-entity="InstructionsValidator" data-source-line="19" data-uid="ent0004" id="entity_InstructionsValidator"><rect fill="#2D2D2D" height="66.6211" rx="2.5" ry="2.5" style="stroke:#8A8A8A;stroke-width:0.5;" width="324.8125" x="262.5" y="446"/><ellipse cx="357.2358" cy="462" fill="#B4A7E5" rx="11" ry="11" style="stroke:#181818;stroke-width:1;"/><path d="M358.189,458.6406 L358.189,465.2969 L359.9077,465.2969 Q360.5171,465.2969 360.7827,465.5313 Q361.0483,465.7656 361.0483,466.1563 Q361.0483,466.5313 360.7827,466.7656 Q360.5171,467 359.9077,467 L354.7671,467 Q354.1577,467 353.8921,466.7656 Q353.6265,466.5313 353.6265,466.1406 Q353.6265,465.7656 353.8921,465.5313 Q354.1577,465.2969 354.7671,465.2969 L356.4858,465.2969 L356.4858,458.6406 L354.7671,458.6406 Q354.1577,458.6406 353.8921,458.4063 Q353.6265,458.1719 353.6265,457.7813 Q353.6265,457.4063 353.8921,457.1719 Q354.1577,456.9375 354.7671,456.9375 L359.9077,456.9375 Q360.5171,456.9375 360.7827,457.1719 Q361.0483,457.4063 361.0483,457.7813 Q361.0483,458.1719 360.7827,458.4063 Q360.5171,458.6406 359.9077,458.6406 L358.189,458.6406 Z " fill="#000000"/><text fill="#E0E0E0" font-family="sans-serif" font-size="14" font-style="italic" lengthAdjust="spacing" textLength="126.8408" x="377.7358" y="467.7969">InstructionsValidator</text><line style="stroke:#8A8A8A;stroke-width:0.5;" x1="263.5" x2="586.3125" y1="478" y2="478"/><line style="stroke:#8A8A8A;stroke-width:0.5;" x1="263.5" x2="586.3125" y1="486" y2="486"/><ellipse cx="273.5" cy="500.8105" fill="#84BE84" rx="3" ry="3" style="stroke:#038048;stroke-width:1;"/><text fill="#FFFFFF" font-family="sans-serif" font-size="14" lengthAdjust="spacing" textLength="298.8125" x="282.5" y="505.1074">boolean isValid(HasInstructions hasInstructions)</text></g><!--class NonBlankInstructionsValidator--><g class="entity" data-entity="NonBlankInstructionsValidator" data-source-line="23" data-uid="ent0006" id="entity_NonBlankInstructionsValidator"><rect fill="#2D2D2D" height="103.8633" rx="2.5" ry="2.5" style="stroke:#8A8A8A;stroke-width:0.5;" width="438.4326" x="206" y="573"/><ellipse cx="327.1943" cy="589" fill="#ADD1B2" rx="11" ry="11" style="stroke:#181818;stroke-width:1;"/><path d="M329.96,584.875 Q330.1162,584.6563 330.3037,584.5469 Q330.4912,584.4375 330.71,584.4375 Q331.085,584.4375 331.3193,584.7031 Q331.5537,584.9531 331.5537,585.5625 L331.5537,587.0156 Q331.5537,587.625 331.3193,587.8906 Q331.085,588.1563 330.71,588.1563 Q330.3662,588.1563 330.1631,587.9531 Q329.96,587.7656 329.8506,587.25 Q329.8037,586.8906 329.6162,586.7031 Q329.2881,586.3281 328.6787,586.1094 Q328.0693,585.8906 327.4443,585.8906 Q326.6787,585.8906 326.0381,586.2188 Q325.4131,586.5469 324.9131,587.2969 Q324.4287,588.0469 324.4287,589.0781 L324.4287,590.1719 Q324.4287,591.4063 325.3193,592.2344 Q326.21,593.0469 327.8037,593.0469 Q328.7412,593.0469 329.3975,592.7969 Q329.7881,592.6406 330.21,592.2031 Q330.4756,591.9375 330.6162,591.8594 Q330.7725,591.7813 330.9756,591.7813 Q331.3037,591.7813 331.5537,592.0469 Q331.8193,592.2969 331.8193,592.6406 Q331.8193,592.9844 331.4756,593.3906 Q330.9756,593.9688 330.1787,594.2969 Q329.1006,594.75 327.8037,594.75 Q326.2881,594.75 325.085,594.125 Q324.1006,593.625 323.4131,592.5625 Q322.7256,591.4844 322.7256,590.2031 L322.7256,589.0469 Q322.7256,587.7188 323.335,586.5781 Q323.96,585.4219 325.0537,584.8125 Q326.1475,584.1875 327.3818,584.1875 Q328.1162,584.1875 328.7568,584.3594 Q329.4131,584.5156 329.96,584.875 Z " fill="#000000"/><text fill="#E0E0E0" font-family="sans-serif" font-size="14" lengthAdjust="spacing" textLength="187.5439" x="347.6943" y="594.7969">NonBlankInstructionsValidator</text><line style="stroke:#8A8A8A;stroke-width:0.5;" x1="207" x2="643.4326" y1="605" y2="605"/><line style="stroke:#8A8A8A;stroke-width:0.5;" x1="207" x2="643.4326" y1="613" y2="613"/><ellipse cx="217" cy="627.8105" fill="#84BE84" rx="3" ry="3" style="stroke:#038048;stroke-width:1;"/><text fill="#FFFFFF" font-family="sans-serif" font-size="14" lengthAdjust="spacing" textLength="298.8125" x="226" y="632.1074">boolean isValid(HasInstructions hasInstructions)</text><rect fill="#F24D5C" height="6" style="stroke:#C82930;stroke-width:1;" width="6" x="214" y="643.4316"/><text fill="#FFFFFF" font-family="sans-serif" font-size="14" lengthAdjust="spacing" textLength="412.4326" x="226" y="650.7285">boolean hasNonBlankInstructions(HasInstructions hasInstructions)</text><rect fill="#F24D5C" height="6" style="stroke:#C82930;stroke-width:1;" width="6" x="214" y="662.0527"/><text fill="#FFFFFF" font-family="sans-serif" font-size="14" lengthAdjust="spacing" textLength="386.75" x="226" y="669.3496">boolean hasBlankInstructions(HasInstructions hasInstructions)</text></g><!--class InstructionsMapper--><g class="entity" data-entity="InstructionsMapper" data-source-line="20" data-uid="ent0008" id="entity_InstructionsMapper"><rect fill="#2D2D2D" height="66.6211" rx="2.5" ry="2.5" style="stroke:#8A8A8A;stroke-width:0.5;" width="378.4746" x="43" y="137"/><ellipse cx="168.46" cy="153" fill="#B4A7E5" rx="11" ry="11" style="stroke:#181818;stroke-width:1;"/><path d="M169.4131,149.6406 L169.4131,156.2969 L171.1318,156.2969 Q171.7412,156.2969 172.0068,156.5313 Q172.2725,156.7656 172.2725,157.1563 Q172.2725,157.5313 172.0068,157.7656 Q171.7412,158 171.1318,158 L165.9912,158 Q165.3818,158 165.1162,157.7656 Q164.8506,157.5313 164.8506,157.1406 Q164.8506,156.7656 165.1162,156.5313 Q165.3818,156.2969 165.9912,156.2969 L167.71,156.2969 L167.71,149.6406 L165.9912,149.6406 Q165.3818,149.6406 165.1162,149.4063 Q164.8506,149.1719 164.8506,148.7813 Q164.8506,148.4063 165.1162,148.1719 Q165.3818,147.9375 165.9912,147.9375 L171.1318,147.9375 Q171.7412,147.9375 172.0068,148.1719 Q172.2725,148.4063 172.2725,148.7813 Q172.2725,149.1719 172.0068,149.4063 Q171.7412,149.6406 171.1318,149.6406 L169.4131,149.6406 Z " fill="#000000"/><text fill="#E0E0E0" font-family="sans-serif" font-size="14" font-style="italic" lengthAdjust="spacing" textLength="119.0547" x="188.96" y="158.7969">InstructionsMapper</text><line style="stroke:#8A8A8A;stroke-width:0.5;" x1="44" x2="420.4746" y1="169" y2="169"/><line style="stroke:#8A8A8A;stroke-width:0.5;" x1="44" x2="420.4746" y1="177" y2="177"/><ellipse cx="54" cy="191.8105" fill="#84BE84" rx="3" ry="3" style="stroke:#038048;stroke-width:1;"/><text fill="#FFFFFF" font-family="sans-serif" font-size="14" lengthAdjust="spacing" textLength="352.4746" x="63" y="196.1074">void map(HasInstructions source, HasInstructions target)</text></g><!--class ValidatedInstructionsMapper--><g class="entity" data-entity="ValidatedInstructionsMapper" data-source-line="24" data-uid="ent0010" id="entity_ValidatedInstructionsMapper"><rect fill="#2D2D2D" height="122.4844" rx="2.5" ry="2.5" style="stroke:#8A8A8A;stroke-width:0.5;" width="450.0605" x="7" y="264"/><ellipse cx="139.0635" cy="280" fill="#ADD1B2" rx="11" ry="11" style="stroke:#181818;stroke-width:1;"/><path d="M141.8291,275.875 Q141.9854,275.6563 142.1729,275.5469 Q142.3604,275.4375 142.5791,275.4375 Q142.9541,275.4375 143.1885,275.7031 Q143.4229,275.9531 143.4229,276.5625 L143.4229,278.0156 Q143.4229,278.625 143.1885,278.8906 Q142.9541,279.1563 142.5791,279.1563 Q142.2354,279.1563 142.0322,278.9531 Q141.8291,278.7656 141.7197,278.25 Q141.6729,277.8906 141.4854,277.7031 Q141.1572,277.3281 140.5479,277.1094 Q139.9385,276.8906 139.3135,276.8906 Q138.5479,276.8906 137.9072,277.2188 Q137.2822,277.5469 136.7822,278.2969 Q136.2979,279.0469 136.2979,280.0781 L136.2979,281.1719 Q136.2979,282.4063 137.1885,283.2344 Q138.0791,284.0469 139.6729,284.0469 Q140.6104,284.0469 141.2666,283.7969 Q141.6572,283.6406 142.0791,283.2031 Q142.3447,282.9375 142.4854,282.8594 Q142.6416,282.7813 142.8447,282.7813 Q143.1729,282.7813 143.4229,283.0469 Q143.6885,283.2969 143.6885,283.6406 Q143.6885,283.9844 143.3447,284.3906 Q142.8447,284.9688 142.0479,285.2969 Q140.9697,285.75 139.6729,285.75 Q138.1572,285.75 136.9541,285.125 Q135.9697,284.625 135.2822,283.5625 Q134.5947,282.4844 134.5947,281.2031 L134.5947,280.0469 Q134.5947,278.7188 135.2041,277.5781 Q135.8291,276.4219 136.9229,275.8125 Q138.0166,275.1875 139.251,275.1875 Q139.9854,275.1875 140.626,275.3594 Q141.2822,275.5156 141.8291,275.875 Z " fill="#000000"/><text fill="#E0E0E0" font-family="sans-serif" font-size="14" lengthAdjust="spacing" textLength="177.4336" x="159.5635" y="285.7969">ValidatedInstructionsMapper</text><line style="stroke:#8A8A8A;stroke-width:0.5;" x1="8" x2="456.0605" y1="296" y2="296"/><rect fill="none" height="6" style="stroke:#C82930;stroke-width:1;" width="6" x="15" y="307.8105"/><text fill="#FFFFFF" font-family="sans-serif" font-size="14" lengthAdjust="spacing" textLength="256.792" x="27" y="315.1074">InstructionsValidator instructionsValidator</text><line style="stroke:#8A8A8A;stroke-width:0.5;" x1="8" x2="456.0605" y1="322.6211" y2="322.6211"/><ellipse cx="18" cy="337.4316" fill="#84BE84" rx="3" ry="3" style="stroke:#038048;stroke-width:1;"/><text fill="#FFFFFF" font-family="sans-serif" font-size="14" lengthAdjust="spacing" textLength="352.4746" x="27" y="341.7285">void map(HasInstructions source, HasInstructions target)</text><rect fill="#F24D5C" height="6" style="stroke:#C82930;stroke-width:1;" width="6" x="15" y="353.0527"/><text fill="#FFFFFF" font-family="sans-serif" font-size="14" lengthAdjust="spacing" textLength="298.8125" x="27" y="360.3496">boolean isValid(HasInstructions hasInstructions)</text><rect fill="#F24D5C" height="6" style="stroke:#C82930;stroke-width:1;" width="6" x="15" y="371.6738"/><text fill="#FFFFFF" font-family="sans-serif" font-size="14" lengthAdjust="spacing" textLength="424.0605" x="27" y="378.9707">void mapInstructions(HasInstructions source, HasInstructions target)</text></g><!--reverse link Validator to InstructionsValidator--><g class="link" data-entity-1="Validator" data-entity-2="InstructionsValidator" data-source-line="20" data-uid="lnk5" id="link_Validator_InstructionsValidator"><path d="M539.75,376.52 C539.75,402.35 539.75,419.9 539.75,445.77" fill="none" id="Validator-backto-InstructionsValidator" style="stroke:#B0C4DE;stroke-width:1;"/><polygon fill="none" points="539.75,358.52,533.75,376.52,545.75,376.52,539.75,358.52" style="stroke:#B0C4DE;stroke-width:1;"/></g><!--reverse link InstructionsValidator to NonBlankInstructionsValidator--><g class="link" data-entity-1="InstructionsValidator" data-entity-2="NonBlankInstructionsValidator" data-source-line="24" data-uid="lnk7" id="link_InstructionsValidator_NonBlankInstructionsValidator"><path d="M425,531.25 C425,548.96 425,553.05 425,572.91" fill="none" id="InstructionsValidator-backto-NonBlankInstructionsValidator" style="stroke:#B0C4DE;stroke-width:1;stroke-dasharray:7,7;"/><polygon fill="none" points="425,513.25,419,531.25,431,531.25,425,513.25" style="stroke:#B0C4DE;stroke-width:1;"/></g><!--reverse link Mapper to InstructionsMapper--><g class="link" data-entity-1="Mapper" data-entity-2="InstructionsMapper" data-source-line="21" data-uid="lnk9" id="link_Mapper_InstructionsMapper"><path d="M232,95.2 C232,113.57 232,118.25 232,136.64" fill="none" id="Mapper-backto-InstructionsMapper" style="stroke:#B0C4DE;stroke-width:1;"/><polygon fill="none" points="232,77.2,226,95.2,238,95.2,232,77.2" style="stroke:#B0C4DE;stroke-width:1;"/></g><!--reverse link InstructionsMapper to ValidatedInstructionsMapper--><g class="link" data-entity-1="InstructionsMapper" data-entity-2="ValidatedInstructionsMapper" data-source-line="25" data-uid="lnk11" id="link_InstructionsMapper_ValidatedInstructionsMapper"><path d="M232,222.02 C232,239.51 232,243.45 232,263.82" fill="none" id="InstructionsMapper-backto-ValidatedInstructionsMapper" style="stroke:#B0C4DE;stroke-width:1;stroke-dasharray:7,7;"/><polygon fill="none" points="232,204.02,226,222.02,238,222.02,232,204.02" style="stroke:#B0C4DE;stroke-width:1;"/></g><!--link ValidatedInstructionsMapper to InstructionsValidator--><g class="link" data-entity-1="ValidatedInstructionsMapper" data-entity-2="InstructionsValidator" data-source-line="32" data-uid="lnk12" id="link_ValidatedInstructionsMapper_InstructionsValidator"><path codeLine="32" d="M359.75,386.06 C359.75,406.47 359.75,422.46 359.75,439.98" fill="none" id="ValidatedInstructionsMapper-to-InstructionsValidator" style="stroke:#B0C4DE;stroke-width:1;"/><polygon fill="#B0C4DE" points="359.75,445.98,363.75,436.98,359.75,440.98,355.75,436.98,359.75,445.98" style="stroke:#B0C4DE;stroke-width:1;"/></g><!--SRC=[fL5DImCn4BtdLunuKRHInOCdOVk57deJxzDakWtDPaAIjOhutzrqjnhRnO9c890tRzwycOIrjWuzLc2qfVZc2DZ75OlmbLYWN9UUQwl6RDZ3wVKqHSPGjCJQn2TwZONHfQt8Hf3DHJvZ5TxpffCO3SUtarmYh53nHjiIbcW2PPaPszXLpROdoqc38Hmb535wlQWZ7MNEgHbT7TBsUV0k04RxUxcPf4WPzefyXzuLAHeqavqEKuWF8KwqbQPM17DqZloLgolp3JxQ47qjesORdj5eXP4xZj1flKkKFrcj33G_GLQ5JdLh5-02NbWhgD2TFM38go1mxILTmZuUqPSKpvFJTl3E1QcUfhfoXjBVXpvBhOT1_qoW-r3nNzjjnmMp8RIWM-K3bTNFzwvirpNF_MLnlwriCBZlNyWd]--></g></svg>