<svg xmlns="http://www.w3.org/2000/svg" contentStyleType="text/css" data-diagram-type="CLASS" height="665px"
     preserveAspectRatio="none" style="width:837px;height:665px;background:#1E1E1E;" version="1.1" viewBox="0 0 837 665"
     width="837px" zoomAndPan="magnify"><defs/><g><rect fill="#1E1E1E" height="665" style="stroke:none;stroke-width:1;" width="837" x="0" y="0"/><!--class Mapper--><g class="entity" data-entity="Mapper" data-source-line="17" data-uid="ent0002" id="entity_Mapper"><rect fill="#2D2D2D" height="66.6211" rx="2.5" ry="2.5" style="stroke:#8A8A8A;stroke-width:0.5;" width="270.3301" x="222.5" y="10"/><ellipse cx="287.9951" cy="26" fill="#B4A7E5" rx="11" ry="11" style="stroke:#181818;stroke-width:1;"/><path d="M288.9482,22.6406 L288.9482,29.2969 L290.667,29.2969 Q291.2764,29.2969 291.542,29.5313 Q291.8076,29.7656 291.8076,30.1563 Q291.8076,30.5313 291.542,30.7656 Q291.2764,31 290.667,31 L285.5264,31 Q284.917,31 284.6514,30.7656 Q284.3857,30.5313 284.3857,30.1406 Q284.3857,29.7656 284.6514,29.5313 Q284.917,29.2969 285.5264,29.2969 L287.2451,29.2969 L287.2451,22.6406 L285.5264,22.6406 Q284.917,22.6406 284.6514,22.4063 Q284.3857,22.1719 284.3857,21.7813 Q284.3857,21.4063 284.6514,21.1719 Q284.917,20.9375 285.5264,20.9375 L290.667,20.9375 Q291.2764,20.9375 291.542,21.1719 Q291.8076,21.4063 291.8076,21.7813 Q291.8076,22.1719 291.542,22.4063 Q291.2764,22.6406 290.667,22.6406 L288.9482,22.6406 Z " fill="#000000"/><text fill="#E0E0E0" font-family="sans-serif" font-size="14" font-style="italic" lengthAdjust="spacing" textLength="47.4688" x="308.4951" y="31.7969">Mapper</text><rect fill="#2D2D2D" height="17.9609" style="stroke:#8A8A8A;stroke-width:1;stroke-dasharray:2,2;" width="81.3711" x="414.459" y="7"/><text fill="#000000" font-family="sans-serif" font-size="12" font-style="italic" lengthAdjust="spacing" textLength="79.3711" x="415.459" y="20.9492">Source, Target</text><line style="stroke:#8A8A8A;stroke-width:0.5;" x1="223.5" x2="491.8301" y1="42" y2="42"/><line style="stroke:#8A8A8A;stroke-width:0.5;" x1="223.5" x2="491.8301" y1="50" y2="50"/><ellipse cx="233.5" cy="64.8105" fill="#84BE84" rx="3" ry="3" style="stroke:#038048;stroke-width:1;"/><text fill="#FFFFFF" font-family="sans-serif" font-size="14" lengthAdjust="spacing" textLength="244.3301" x="242.5" y="69.1074">void map(Source source, Target target)</text></g><!--class LongIdValidator--><g class="entity" data-entity="LongIdValidator" data-source-line="17" data-uid="ent0003" id="entity_LongIdValidator"><rect fill="#2D2D2D" height="66.6211" rx="2.5" ry="2.5" style="stroke:#8A8A8A;stroke-width:0.5;" width="271.9434" x="527.5" y="446"/><ellipse cx="610.1841" cy="462" fill="#B4A7E5" rx="11" ry="11" style="stroke:#181818;stroke-width:1;"/><path d="M611.1372,458.6406 L611.1372,465.2969 L612.856,465.2969 Q613.4653,465.2969 613.731,465.5313 Q613.9966,465.7656 613.9966,466.1563 Q613.9966,466.5313 613.731,466.7656 Q613.4653,467 612.856,467 L607.7153,467 Q607.106,467 606.8403,466.7656 Q606.5747,466.5313 606.5747,466.1406 Q606.5747,465.7656 606.8403,465.5313 Q607.106,465.2969 607.7153,465.2969 L609.4341,465.2969 L609.4341,458.6406 L607.7153,458.6406 Q607.106,458.6406 606.8403,458.4063 Q606.5747,458.1719 606.5747,457.7813 Q606.5747,457.4063 606.8403,457.1719 Q607.106,456.9375 607.7153,456.9375 L612.856,456.9375 Q613.4653,456.9375 613.731,457.1719 Q613.9966,457.4063 613.9966,457.7813 Q613.9966,458.1719 613.731,458.4063 Q613.4653,458.6406 612.856,458.6406 L611.1372,458.6406 Z " fill="#000000"/><text fill="#E0E0E0" font-family="sans-serif" font-size="14" font-style="italic" lengthAdjust="spacing" textLength="98.0752" x="630.6841" y="467.7969">LongIdValidator</text><line style="stroke:#8A8A8A;stroke-width:0.5;" x1="528.5" x2="798.4434" y1="478" y2="478"/><line style="stroke:#8A8A8A;stroke-width:0.5;" x1="528.5" x2="798.4434" y1="486" y2="486"/><ellipse cx="538.5" cy="500.8105" fill="#84BE84" rx="3" ry="3" style="stroke:#038048;stroke-width:1;"/><text fill="#FFFFFF" font-family="sans-serif" font-size="14" lengthAdjust="spacing" textLength="245.9434" x="547.5" y="505.1074">boolean isValid(HasLongId hasLongId))</text></g><!--class Validator--><g class="entity" data-entity="Validator" data-source-line="18" data-uid="ent0004" id="entity_Validator"><rect fill="#2D2D2D" height="48" rx="2.5" ry="2.5" style="stroke:#8A8A8A;stroke-width:0.5;" width="87.2549" x="743" y="301"/><ellipse cx="758" cy="317" fill="#B4A7E5" rx="11" ry="11" style="stroke:#181818;stroke-width:1;"/><path d="M758.9531,313.6406 L758.9531,320.2969 L760.6719,320.2969 Q761.2813,320.2969 761.5469,320.5313 Q761.8125,320.7656 761.8125,321.1563 Q761.8125,321.5313 761.5469,321.7656 Q761.2813,322 760.6719,322 L755.5313,322 Q754.9219,322 754.6563,321.7656 Q754.3906,321.5313 754.3906,321.1406 Q754.3906,320.7656 754.6563,320.5313 Q754.9219,320.2969 755.5313,320.2969 L757.25,320.2969 L757.25,313.6406 L755.5313,313.6406 Q754.9219,313.6406 754.6563,313.4063 Q754.3906,313.1719 754.3906,312.7813 Q754.3906,312.4063 754.6563,312.1719 Q754.9219,311.9375 755.5313,311.9375 L760.6719,311.9375 Q761.2813,311.9375 761.5469,312.1719 Q761.8125,312.4063 761.8125,312.7813 Q761.8125,313.1719 761.5469,313.4063 Q761.2813,313.6406 760.6719,313.6406 L758.9531,313.6406 Z " fill="#000000"/><text fill="#E0E0E0" font-family="sans-serif" font-size="14" font-style="italic" lengthAdjust="spacing" textLength="55.2549" x="772" y="322.7969">Validator</text><line style="stroke:#8A8A8A;stroke-width:0.5;" x1="744" x2="829.2549" y1="333" y2="333"/><line style="stroke:#8A8A8A;stroke-width:0.5;" x1="744" x2="829.2549" y1="341" y2="341"/></g><!--class PositiveLongIdValidator--><g class="entity" data-entity="PositiveLongIdValidator" data-source-line="21" data-uid="ent0006" id="entity_PositiveLongIdValidator"><rect fill="#2D2D2D" height="85.2422" rx="2.5" ry="2.5" style="stroke:#8A8A8A;stroke-width:0.5;" width="309.3086" x="509" y="573"/><ellipse cx="585.8564" cy="589" fill="#ADD1B2" rx="11" ry="11" style="stroke:#181818;stroke-width:1;"/><path d="M588.6221,584.875 Q588.7783,584.6563 588.9658,584.5469 Q589.1533,584.4375 589.3721,584.4375 Q589.7471,584.4375 589.9814,584.7031 Q590.2158,584.9531 590.2158,585.5625 L590.2158,587.0156 Q590.2158,587.625 589.9814,587.8906 Q589.7471,588.1563 589.3721,588.1563 Q589.0283,588.1563 588.8252,587.9531 Q588.6221,587.7656 588.5127,587.25 Q588.4658,586.8906 588.2783,586.7031 Q587.9502,586.3281 587.3408,586.1094 Q586.7314,585.8906 586.1064,585.8906 Q585.3408,585.8906 584.7002,586.2188 Q584.0752,586.5469 583.5752,587.2969 Q583.0908,588.0469 583.0908,589.0781 L583.0908,590.1719 Q583.0908,591.4063 583.9814,592.2344 Q584.8721,593.0469 586.4658,593.0469 Q587.4033,593.0469 588.0596,592.7969 Q588.4502,592.6406 588.8721,592.2031 Q589.1377,591.9375 589.2783,591.8594 Q589.4346,591.7813 589.6377,591.7813 Q589.9658,591.7813 590.2158,592.0469 Q590.4814,592.2969 590.4814,592.6406 Q590.4814,592.9844 590.1377,593.3906 Q589.6377,593.9688 588.8408,594.2969 Q587.7627,594.75 586.4658,594.75 Q584.9502,594.75 583.7471,594.125 Q582.7627,593.625 582.0752,592.5625 Q581.3877,591.4844 581.3877,590.2031 L581.3877,589.0469 Q581.3877,587.7188 581.9971,586.5781 Q582.6221,585.4219 583.7158,584.8125 Q584.8096,584.1875 586.0439,584.1875 Q586.7783,584.1875 587.4189,584.3594 Q588.0752,584.5156 588.6221,584.875 Z " fill="#000000"/><text fill="#E0E0E0" font-family="sans-serif" font-size="14" lengthAdjust="spacing" textLength="147.0957" x="606.3564" y="594.7969">PositiveLongIdValidator</text><line style="stroke:#8A8A8A;stroke-width:0.5;" x1="510" x2="817.3086" y1="605" y2="605"/><line style="stroke:#8A8A8A;stroke-width:0.5;" x1="510" x2="817.3086" y1="613" y2="613"/><ellipse cx="520" cy="627.8105" fill="#84BE84" rx="3" ry="3" style="stroke:#038048;stroke-width:1;"/><text fill="#FFFFFF" font-family="sans-serif" font-size="14" lengthAdjust="spacing" textLength="241.2813" x="529" y="632.1074">boolean isValid(HasLongId hasLongId)</text><rect fill="#F24D5C" height="6" style="stroke:#C82930;stroke-width:1;" width="6" x="517" y="643.4316"/><text fill="#FFFFFF" font-family="sans-serif" font-size="14" lengthAdjust="spacing" textLength="283.3086" x="529" y="650.7285">boolean hasPositiveId(HasLongId hasLongId)</text></g><!--class LongIdMapper--><g class="entity" data-entity="LongIdMapper" data-source-line="20" data-uid="ent0008" id="entity_LongIdMapper"><rect fill="#2D2D2D" height="66.6211" rx="2.5" ry="2.5" style="stroke:#8A8A8A;stroke-width:0.5;" width="320.9434" x="197" y="137"/><ellipse cx="308.0771" cy="153" fill="#B4A7E5" rx="11" ry="11" style="stroke:#181818;stroke-width:1;"/><path d="M309.0303,149.6406 L309.0303,156.2969 L310.749,156.2969 Q311.3584,156.2969 311.624,156.5313 Q311.8896,156.7656 311.8896,157.1563 Q311.8896,157.5313 311.624,157.7656 Q311.3584,158 310.749,158 L305.6084,158 Q304.999,158 304.7334,157.7656 Q304.4678,157.5313 304.4678,157.1406 Q304.4678,156.7656 304.7334,156.5313 Q304.999,156.2969 305.6084,156.2969 L307.3271,156.2969 L307.3271,149.6406 L305.6084,149.6406 Q304.999,149.6406 304.7334,149.4063 Q304.4678,149.1719 304.4678,148.7813 Q304.4678,148.4063 304.7334,148.1719 Q304.999,147.9375 305.6084,147.9375 L310.749,147.9375 Q311.3584,147.9375 311.624,148.1719 Q311.8896,148.4063 311.8896,148.7813 Q311.8896,149.1719 311.624,149.4063 Q311.3584,149.6406 310.749,149.6406 L309.0303,149.6406 Z " fill="#000000"/><text fill="#E0E0E0" font-family="sans-serif" font-size="14" font-style="italic" lengthAdjust="spacing" textLength="90.2891" x="328.5771" y="158.7969">LongIdMapper</text><line style="stroke:#8A8A8A;stroke-width:0.5;" x1="198" x2="516.9434" y1="169" y2="169"/><line style="stroke:#8A8A8A;stroke-width:0.5;" x1="198" x2="516.9434" y1="177" y2="177"/><ellipse cx="208" cy="191.8105" fill="#84BE84" rx="3" ry="3" style="stroke:#038048;stroke-width:1;"/><text fill="#FFFFFF" font-family="sans-serif" font-size="14" lengthAdjust="spacing" textLength="294.9434" x="217" y="196.1074">void map(HasLongId source, HasLongId target)</text></g><!--class SimpleLongIdMapper--><g class="entity" data-entity="SimpleLongIdMapper" data-source-line="24" data-uid="ent0010" id="entity_SimpleLongIdMapper"><rect fill="#2D2D2D" height="85.2422" rx="2.5" ry="2.5" style="stroke:#8A8A8A;stroke-width:0.5;" width="332.6191" x="7" y="282.5"/><ellipse cx="102.5186" cy="298.5" fill="#ADD1B2" rx="11" ry="11" style="stroke:#181818;stroke-width:1;"/><path d="M105.2842,294.375 Q105.4404,294.1563 105.6279,294.0469 Q105.8154,293.9375 106.0342,293.9375 Q106.4092,293.9375 106.6436,294.2031 Q106.8779,294.4531 106.8779,295.0625 L106.8779,296.5156 Q106.8779,297.125 106.6436,297.3906 Q106.4092,297.6563 106.0342,297.6563 Q105.6904,297.6563 105.4873,297.4531 Q105.2842,297.2656 105.1748,296.75 Q105.1279,296.3906 104.9404,296.2031 Q104.6123,295.8281 104.0029,295.6094 Q103.3936,295.3906 102.7686,295.3906 Q102.0029,295.3906 101.3623,295.7188 Q100.7373,296.0469 100.2373,296.7969 Q99.7529,297.5469 99.7529,298.5781 L99.7529,299.6719 Q99.7529,300.9063 100.6436,301.7344 Q101.5342,302.5469 103.1279,302.5469 Q104.0654,302.5469 104.7217,302.2969 Q105.1123,302.1406 105.5342,301.7031 Q105.7998,301.4375 105.9404,301.3594 Q106.0967,301.2813 106.2998,301.2813 Q106.6279,301.2813 106.8779,301.5469 Q107.1436,301.7969 107.1436,302.1406 Q107.1436,302.4844 106.7998,302.8906 Q106.2998,303.4688 105.5029,303.7969 Q104.4248,304.25 103.1279,304.25 Q101.6123,304.25 100.4092,303.625 Q99.4248,303.125 98.7373,302.0625 Q98.0498,300.9844 98.0498,299.7031 L98.0498,298.5469 Q98.0498,297.2188 98.6592,296.0781 Q99.2842,294.9219 100.3779,294.3125 Q101.4717,293.6875 102.7061,293.6875 Q103.4404,293.6875 104.0811,293.8594 Q104.7373,294.0156 105.2842,294.375 Z " fill="#000000"/><text fill="#E0E0E0" font-family="sans-serif" font-size="14" lengthAdjust="spacing" textLength="133.082" x="123.0186" y="304.2969">SimpleLongIdMapper</text><line style="stroke:#8A8A8A;stroke-width:0.5;" x1="8" x2="338.6191" y1="314.5" y2="314.5"/><line style="stroke:#8A8A8A;stroke-width:0.5;" x1="8" x2="338.6191" y1="322.5" y2="322.5"/><ellipse cx="18" cy="337.3105" fill="#84BE84" rx="3" ry="3" style="stroke:#038048;stroke-width:1;"/><text fill="#FFFFFF" font-family="sans-serif" font-size="14" lengthAdjust="spacing" textLength="294.9434" x="27" y="341.6074">void map(HasLongId source, HasLongId target)</text><rect fill="#F24D5C" height="6" style="stroke:#C82930;stroke-width:1;" width="6" x="15" y="352.9316"/><text fill="#FFFFFF" font-family="sans-serif" font-size="14" lengthAdjust="spacing" textLength="306.6191" x="27" y="360.2285">void mapId(HasLongId source, HasLongId target)</text></g><!--class ValidatedLongIdMapper--><g class="entity" data-entity="ValidatedLongIdMapper" data-source-line="29" data-uid="ent0012" id="entity_ValidatedLongIdMapper"><rect fill="#2D2D2D" height="122.4844" rx="2.5" ry="2.5" style="stroke:#8A8A8A;stroke-width:0.5;" width="332.6191" x="375" y="264"/><ellipse cx="462.7256" cy="280" fill="#ADD1B2" rx="11" ry="11" style="stroke:#181818;stroke-width:1;"/><path d="M465.4912,275.875 Q465.6475,275.6563 465.835,275.5469 Q466.0225,275.4375 466.2412,275.4375 Q466.6162,275.4375 466.8506,275.7031 Q467.085,275.9531 467.085,276.5625 L467.085,278.0156 Q467.085,278.625 466.8506,278.8906 Q466.6162,279.1563 466.2412,279.1563 Q465.8975,279.1563 465.6943,278.9531 Q465.4912,278.7656 465.3818,278.25 Q465.335,277.8906 465.1475,277.7031 Q464.8193,277.3281 464.21,277.1094 Q463.6006,276.8906 462.9756,276.8906 Q462.21,276.8906 461.5693,277.2188 Q460.9443,277.5469 460.4443,278.2969 Q459.96,279.0469 459.96,280.0781 L459.96,281.1719 Q459.96,282.4063 460.8506,283.2344 Q461.7412,284.0469 463.335,284.0469 Q464.2725,284.0469 464.9287,283.7969 Q465.3193,283.6406 465.7412,283.2031 Q466.0068,282.9375 466.1475,282.8594 Q466.3037,282.7813 466.5068,282.7813 Q466.835,282.7813 467.085,283.0469 Q467.3506,283.2969 467.3506,283.6406 Q467.3506,283.9844 467.0068,284.3906 Q466.5068,284.9688 465.71,285.2969 Q464.6318,285.75 463.335,285.75 Q461.8193,285.75 460.6162,285.125 Q459.6318,284.625 458.9443,283.5625 Q458.2568,282.4844 458.2568,281.2031 L458.2568,280.0469 Q458.2568,278.7188 458.8662,277.5781 Q459.4912,276.4219 460.585,275.8125 Q461.6787,275.1875 462.9131,275.1875 Q463.6475,275.1875 464.2881,275.3594 Q464.9443,275.5156 465.4912,275.875 Z " fill="#000000"/><text fill="#E0E0E0" font-family="sans-serif" font-size="14" lengthAdjust="spacing" textLength="148.668" x="483.2256" y="285.7969">ValidatedLongIdMapper</text><line style="stroke:#8A8A8A;stroke-width:0.5;" x1="376" x2="706.6191" y1="296" y2="296"/><rect fill="none" height="6" style="stroke:#C82930;stroke-width:1;" width="6" x="383" y="307.8105"/><text fill="#FFFFFF" font-family="sans-serif" font-size="14" lengthAdjust="spacing" textLength="195.3643" x="395" y="315.1074">LongIdValidator longIdValidator</text><line style="stroke:#8A8A8A;stroke-width:0.5;" x1="376" x2="706.6191" y1="322.6211" y2="322.6211"/><ellipse cx="386" cy="337.4316" fill="#84BE84" rx="3" ry="3" style="stroke:#038048;stroke-width:1;"/><text fill="#FFFFFF" font-family="sans-serif" font-size="14" lengthAdjust="spacing" textLength="294.9434" x="395" y="341.7285">void map(HasLongId source, HasLongId target)</text><rect fill="#F24D5C" height="6" style="stroke:#C82930;stroke-width:1;" width="6" x="383" y="353.0527"/><text fill="#FFFFFF" font-family="sans-serif" font-size="14" lengthAdjust="spacing" textLength="241.2813" x="395" y="360.3496">boolean isValid(HasLongId hasLongId)</text><rect fill="#F24D5C" height="6" style="stroke:#C82930;stroke-width:1;" width="6" x="383" y="371.6738"/><text fill="#FFFFFF" font-family="sans-serif" font-size="14" lengthAdjust="spacing" textLength="306.6191" x="395" y="378.9707">void mapId(HasLongId source, HasLongId target)</text></g><!--reverse link Validator to LongIdValidator--><g class="link" data-entity-1="Validator" data-entity-2="LongIdValidator" data-source-line="18" data-uid="lnk5" id="link_Validator_LongIdValidator"><path d="M771.25,367.14 C771.25,393.11 771.25,416.6 771.25,445.79" fill="none" id="Validator-backto-LongIdValidator" style="stroke:#B0C4DE;stroke-width:1;"/><polygon fill="none" points="771.25,349.14,765.25,367.14,777.25,367.14,771.25,349.14" style="stroke:#B0C4DE;stroke-width:1;"/></g><!--reverse link LongIdValidator to PositiveLongIdValidator--><g class="link" data-entity-1="LongIdValidator" data-entity-2="PositiveLongIdValidator" data-source-line="22" data-uid="lnk7" id="link_LongIdValidator_PositiveLongIdValidator"><path d="M663.5,531.12 C663.5,549.13 663.5,553.51 663.5,572.75" fill="none" id="LongIdValidator-backto-PositiveLongIdValidator" style="stroke:#B0C4DE;stroke-width:1;stroke-dasharray:7,7;"/><polygon fill="none" points="663.5,513.12,657.5,531.12,669.5,531.12,663.5,513.12" style="stroke:#B0C4DE;stroke-width:1;"/></g><!--reverse link Mapper to LongIdMapper--><g class="link" data-entity-1="Mapper" data-entity-2="LongIdMapper" data-source-line="21" data-uid="lnk9" id="link_Mapper_LongIdMapper"><path d="M357.5,95.2 C357.5,113.57 357.5,118.25 357.5,136.64" fill="none" id="Mapper-backto-LongIdMapper" style="stroke:#B0C4DE;stroke-width:1;"/><polygon fill="none" points="357.5,77.2,351.5,95.2,363.5,95.2,357.5,77.2" style="stroke:#B0C4DE;stroke-width:1;"/></g><!--reverse link LongIdMapper to SimpleLongIdMapper--><g class="link" data-entity-1="LongIdMapper" data-entity-2="SimpleLongIdMapper" data-source-line="25" data-uid="lnk11" id="link_LongIdMapper_SimpleLongIdMapper"><path d="M268.5,222.02 C268.5,245.01 268.5,257.7 268.5,282.41" fill="none" id="LongIdMapper-backto-SimpleLongIdMapper" style="stroke:#B0C4DE;stroke-width:1;stroke-dasharray:7,7;"/><polygon fill="none" points="268.5,204.02,262.5,222.02,274.5,222.02,268.5,204.02" style="stroke:#B0C4DE;stroke-width:1;"/></g><!--reverse link LongIdMapper to ValidatedLongIdMapper--><g class="link" data-entity-1="LongIdMapper" data-entity-2="ValidatedLongIdMapper" data-source-line="30" data-uid="lnk13" id="link_LongIdMapper_ValidatedLongIdMapper"><path d="M446.5,222.02 C446.5,239.51 446.5,243.45 446.5,263.82" fill="none" id="LongIdMapper-backto-ValidatedLongIdMapper" style="stroke:#B0C4DE;stroke-width:1;stroke-dasharray:7,7;"/><polygon fill="none" points="446.5,204.02,440.5,222.02,452.5,222.02,446.5,204.02" style="stroke:#B0C4DE;stroke-width:1;"/></g><!--link ValidatedLongIdMapper to LongIdValidator--><g class="link" data-entity-1="ValidatedLongIdMapper" data-entity-2="LongIdValidator" data-source-line="37" data-uid="lnk14" id="link_ValidatedLongIdMapper_LongIdValidator"><path codeLine="37" d="M617.75,386.06 C617.75,406.47 617.75,422.46 617.75,439.98" fill="none" id="ValidatedLongIdMapper-to-LongIdValidator" style="stroke:#B0C4DE;stroke-width:1;"/><polygon fill="#B0C4DE" points="617.75,445.98,621.75,436.98,617.75,440.98,613.75,436.98,617.75,445.98" style="stroke:#B0C4DE;stroke-width:1;"/></g><!--SRC=[dL5BJyCm3BxdLnXn0K7HG1mu8NKlCOcTGDoznkkYfN6Kf0o4-EyqNRTr7TAqrLAL-dl4d-kNobXqM81MXiAt9M0N5Ypy5fXXjimTbqOEMBE3o_jHh1P3qXnB7TxfAwHQvQOW4o2hNkHQhDGvNZKM_TxWSTYsy0kKl58cXpbgJorap2Oqgd7zjB1Ce_T72Ma8JitAG4UPKwgYoqDQbmS_0g3VtSl3C5P4s4boJVSfZLLrMxQZNYpnAyI5Cfak9S4KhILtPyj2xvglRFA9_42j90PkKA7YOkUORV2r5Ahjav6-SQf71BY1JrOI2hHNB-ZNVF1SkenkOTS9w78Art6YTS0tLLXDU_vr9_vQlt_lMHT5IRALJEHfqpKR8Nd2W4btcw3tlyNvEMRCcj20yhLRIxdOdCwF_7_O97dk1le3]--></g></svg>