<svg xmlns="http://www.w3.org/2000/svg" contentStyleType="text/css" data-diagram-type="CLASS" height="665px"
     preserveAspectRatio="none" style="width:1192px;height:665px;background:#1E1E1E;" version="1.1"
     viewBox="0 0 1192 665" width="1192px" zoomAndPan="magnify"><defs/><g><rect fill="#1E1E1E" height="665" style="stroke:none;stroke-width:1;" width="1192" x="0" y="0"/><!--class Mapper--><g class="entity" data-entity="Mapper" data-source-line="17" data-uid="ent0002" id="entity_Mapper"><rect fill="#2D2D2D" height="66.6211" rx="2.5" ry="2.5" style="stroke:#8A8A8A;stroke-width:0.5;" width="270.3301" x="322" y="10"/><ellipse cx="387.4951" cy="26" fill="#B4A7E5" rx="11" ry="11" style="stroke:#181818;stroke-width:1;"/><path d="M388.4482,22.6406 L388.4482,29.2969 L390.167,29.2969 Q390.7764,29.2969 391.042,29.5313 Q391.3076,29.7656 391.3076,30.1563 Q391.3076,30.5313 391.042,30.7656 Q390.7764,31 390.167,31 L385.0264,31 Q384.417,31 384.1514,30.7656 Q383.8857,30.5313 383.8857,30.1406 Q383.8857,29.7656 384.1514,29.5313 Q384.417,29.2969 385.0264,29.2969 L386.7451,29.2969 L386.7451,22.6406 L385.0264,22.6406 Q384.417,22.6406 384.1514,22.4063 Q383.8857,22.1719 383.8857,21.7813 Q383.8857,21.4063 384.1514,21.1719 Q384.417,20.9375 385.0264,20.9375 L390.167,20.9375 Q390.7764,20.9375 391.042,21.1719 Q391.3076,21.4063 391.3076,21.7813 Q391.3076,22.1719 391.042,22.4063 Q390.7764,22.6406 390.167,22.6406 L388.4482,22.6406 Z " fill="#000000"/><text fill="#E0E0E0" font-family="sans-serif" font-size="14" font-style="italic" lengthAdjust="spacing" textLength="47.4688" x="407.9951" y="31.7969">Mapper</text><rect fill="#2D2D2D" height="17.9609" style="stroke:#8A8A8A;stroke-width:1;stroke-dasharray:2,2;" width="81.3711" x="513.959" y="7"/><text fill="#000000" font-family="sans-serif" font-size="12" font-style="italic" lengthAdjust="spacing" textLength="79.3711" x="514.959" y="20.9492">Source, Target</text><line style="stroke:#8A8A8A;stroke-width:0.5;" x1="323" x2="591.3301" y1="42" y2="42"/><line style="stroke:#8A8A8A;stroke-width:0.5;" x1="323" x2="591.3301" y1="50" y2="50"/><ellipse cx="333" cy="64.8105" fill="#84BE84" rx="3" ry="3" style="stroke:#038048;stroke-width:1;"/><text fill="#FFFFFF" font-family="sans-serif" font-size="14" lengthAdjust="spacing" textLength="244.3301" x="342" y="69.1074">void map(Source source, Target target)</text></g><!--class Validator--><g class="entity" data-entity="Validator" data-source-line="17" data-uid="ent0003" id="entity_Validator"><rect fill="#2D2D2D" height="66.6211" rx="2.5" ry="2.5" style="stroke:#8A8A8A;stroke-width:0.5;" width="254.0127" x="927" y="291.5"/><ellipse cx="994.1162" cy="307.5" fill="#B4A7E5" rx="11" ry="11" style="stroke:#181818;stroke-width:1;"/><path d="M995.0693,304.1406 L995.0693,310.7969 L996.7881,310.7969 Q997.3975,310.7969 997.6631,311.0313 Q997.9287,311.2656 997.9287,311.6563 Q997.9287,312.0313 997.6631,312.2656 Q997.3975,312.5 996.7881,312.5 L991.6475,312.5 Q991.0381,312.5 990.7725,312.2656 Q990.5068,312.0313 990.5068,311.6406 Q990.5068,311.2656 990.7725,311.0313 Q991.0381,310.7969 991.6475,310.7969 L993.3662,310.7969 L993.3662,304.1406 L991.6475,304.1406 Q991.0381,304.1406 990.7725,303.9063 Q990.5068,303.6719 990.5068,303.2813 Q990.5068,302.9063 990.7725,302.6719 Q991.0381,302.4375 991.6475,302.4375 L996.7881,302.4375 Q997.3975,302.4375 997.6631,302.6719 Q997.9287,302.9063 997.9287,303.2813 Q997.9287,303.6719 997.6631,303.9063 Q997.3975,304.1406 996.7881,304.1406 L995.0693,304.1406 Z " fill="#000000"/><text fill="#E0E0E0" font-family="sans-serif" font-size="14" font-style="italic" lengthAdjust="spacing" textLength="55.2549" x="1014.6162" y="313.2969">Validator</text><rect fill="#2D2D2D" height="17.9609" style="stroke:#8A8A8A;stroke-width:1;stroke-dasharray:2,2;" width="54.0254" x="1129.9873" y="288.5"/><text fill="#000000" font-family="sans-serif" font-size="12" font-style="italic" lengthAdjust="spacing" textLength="52.0254" x="1130.9873" y="302.4492">Argument</text><line style="stroke:#8A8A8A;stroke-width:0.5;" x1="928" x2="1180.0127" y1="323.5" y2="323.5"/><line style="stroke:#8A8A8A;stroke-width:0.5;" x1="928" x2="1180.0127" y1="331.5" y2="331.5"/><ellipse cx="938" cy="346.3105" fill="#84BE84" rx="3" ry="3" style="stroke:#038048;stroke-width:1;"/><text fill="#FFFFFF" font-family="sans-serif" font-size="14" lengthAdjust="spacing" textLength="228.0127" x="947" y="350.6074">boolean isValid(Argument argument)</text></g><!--class LongVersionValidator--><g class="entity" data-entity="LongVersionValidator" data-source-line="19" data-uid="ent0004" id="entity_LongVersionValidator"><rect fill="#2D2D2D" height="66.6211" rx="2.5" ry="2.5" style="stroke:#8A8A8A;stroke-width:0.5;" width="338.8672" x="700.5" y="446"/><ellipse cx="798.7495" cy="462" fill="#B4A7E5" rx="11" ry="11" style="stroke:#181818;stroke-width:1;"/><path d="M799.7026,458.6406 L799.7026,465.2969 L801.4214,465.2969 Q802.0308,465.2969 802.2964,465.5313 Q802.562,465.7656 802.562,466.1563 Q802.562,466.5313 802.2964,466.7656 Q802.0308,467 801.4214,467 L796.2808,467 Q795.6714,467 795.4058,466.7656 Q795.1401,466.5313 795.1401,466.1406 Q795.1401,465.7656 795.4058,465.5313 Q795.6714,465.2969 796.2808,465.2969 L797.9995,465.2969 L797.9995,458.6406 L796.2808,458.6406 Q795.6714,458.6406 795.4058,458.4063 Q795.1401,458.1719 795.1401,457.7813 Q795.1401,457.4063 795.4058,457.1719 Q795.6714,456.9375 796.2808,456.9375 L801.4214,456.9375 Q802.0308,456.9375 802.2964,457.1719 Q802.562,457.4063 802.562,457.7813 Q802.562,458.1719 802.2964,458.4063 Q802.0308,458.6406 801.4214,458.6406 L799.7026,458.6406 Z " fill="#000000"/><text fill="#E0E0E0" font-family="sans-serif" font-size="14" font-style="italic" lengthAdjust="spacing" textLength="133.8682" x="819.2495" y="467.7969">LongVersionValidator</text><line style="stroke:#8A8A8A;stroke-width:0.5;" x1="701.5" x2="1038.3672" y1="478" y2="478"/><line style="stroke:#8A8A8A;stroke-width:0.5;" x1="701.5" x2="1038.3672" y1="486" y2="486"/><ellipse cx="711.5" cy="500.8105" fill="#84BE84" rx="3" ry="3" style="stroke:#038048;stroke-width:1;"/><text fill="#FFFFFF" font-family="sans-serif" font-size="14" lengthAdjust="spacing" textLength="312.8672" x="720.5" y="505.1074">boolean isValid(HasLongVersion hasLongVersion)</text></g><!--class PositiveLongVersionValidator--><g class="entity" data-entity="PositiveLongVersionValidator" data-source-line="23" data-uid="ent0006" id="entity_PositiveLongVersionValidator"><rect fill="#2D2D2D" height="85.2422" rx="2.5" ry="2.5" style="stroke:#8A8A8A;stroke-width:0.5;" width="416.6875" x="661.5" y="573"/><ellipse cx="774.1494" cy="589" fill="#ADD1B2" rx="11" ry="11" style="stroke:#181818;stroke-width:1;"/><path d="M776.915,584.875 Q777.0713,584.6563 777.2588,584.5469 Q777.4463,584.4375 777.665,584.4375 Q778.04,584.4375 778.2744,584.7031 Q778.5088,584.9531 778.5088,585.5625 L778.5088,587.0156 Q778.5088,587.625 778.2744,587.8906 Q778.04,588.1563 777.665,588.1563 Q777.3213,588.1563 777.1182,587.9531 Q776.915,587.7656 776.8057,587.25 Q776.7588,586.8906 776.5713,586.7031 Q776.2432,586.3281 775.6338,586.1094 Q775.0244,585.8906 774.3994,585.8906 Q773.6338,585.8906 772.9932,586.2188 Q772.3682,586.5469 771.8682,587.2969 Q771.3838,588.0469 771.3838,589.0781 L771.3838,590.1719 Q771.3838,591.4063 772.2744,592.2344 Q773.165,593.0469 774.7588,593.0469 Q775.6963,593.0469 776.3525,592.7969 Q776.7432,592.6406 777.165,592.2031 Q777.4307,591.9375 777.5713,591.8594 Q777.7275,591.7813 777.9307,591.7813 Q778.2588,591.7813 778.5088,592.0469 Q778.7744,592.2969 778.7744,592.6406 Q778.7744,592.9844 778.4307,593.3906 Q777.9307,593.9688 777.1338,594.2969 Q776.0557,594.75 774.7588,594.75 Q773.2432,594.75 772.04,594.125 Q771.0557,593.625 770.3682,592.5625 Q769.6807,591.4844 769.6807,590.2031 L769.6807,589.0469 Q769.6807,587.7188 770.29,586.5781 Q770.915,585.4219 772.0088,584.8125 Q773.1025,584.1875 774.3369,584.1875 Q775.0713,584.1875 775.7119,584.3594 Q776.3682,584.5156 776.915,584.875 Z " fill="#000000"/><text fill="#E0E0E0" font-family="sans-serif" font-size="14" lengthAdjust="spacing" textLength="182.8887" x="794.6494" y="594.7969">PositiveLongVersionValidator</text><line style="stroke:#8A8A8A;stroke-width:0.5;" x1="662.5" x2="1077.1875" y1="605" y2="605"/><line style="stroke:#8A8A8A;stroke-width:0.5;" x1="662.5" x2="1077.1875" y1="613" y2="613"/><ellipse cx="672.5" cy="627.8105" fill="#84BE84" rx="3" ry="3" style="stroke:#038048;stroke-width:1;"/><text fill="#FFFFFF" font-family="sans-serif" font-size="14" lengthAdjust="spacing" textLength="312.8672" x="681.5" y="632.1074">boolean isValid(HasLongVersion hasLongVersion)</text><rect fill="#F24D5C" height="6" style="stroke:#C82930;stroke-width:1;" width="6" x="669.5" y="643.4316"/><text fill="#FFFFFF" font-family="sans-serif" font-size="14" lengthAdjust="spacing" textLength="390.6875" x="681.5" y="650.7285">boolean hasPositiveVersion(HasLongVersion hasLongVersion)</text></g><!--class LongVersionMapper--><g class="entity" data-entity="LongVersionMapper" data-source-line="20" data-uid="ent0008" id="entity_LongVersionMapper"><rect fill="#2D2D2D" height="66.6211" rx="2.5" ry="2.5" style="stroke:#8A8A8A;stroke-width:0.5;" width="392.5293" x="260.5" y="137"/><ellipse cx="389.4736" cy="153" fill="#B4A7E5" rx="11" ry="11" style="stroke:#181818;stroke-width:1;"/><path d="M390.4268,149.6406 L390.4268,156.2969 L392.1455,156.2969 Q392.7549,156.2969 393.0205,156.5313 Q393.2861,156.7656 393.2861,157.1563 Q393.2861,157.5313 393.0205,157.7656 Q392.7549,158 392.1455,158 L387.0049,158 Q386.3955,158 386.1299,157.7656 Q385.8643,157.5313 385.8643,157.1406 Q385.8643,156.7656 386.1299,156.5313 Q386.3955,156.2969 387.0049,156.2969 L388.7236,156.2969 L388.7236,149.6406 L387.0049,149.6406 Q386.3955,149.6406 386.1299,149.4063 Q385.8643,149.1719 385.8643,148.7813 Q385.8643,148.4063 386.1299,148.1719 Q386.3955,147.9375 387.0049,147.9375 L392.1455,147.9375 Q392.7549,147.9375 393.0205,148.1719 Q393.2861,148.4063 393.2861,148.7813 Q393.2861,149.1719 393.0205,149.4063 Q392.7549,149.6406 392.1455,149.6406 L390.4268,149.6406 Z " fill="#000000"/><text fill="#E0E0E0" font-family="sans-serif" font-size="14" font-style="italic" lengthAdjust="spacing" textLength="126.082" x="409.9736" y="158.7969">LongVersionMapper</text><line style="stroke:#8A8A8A;stroke-width:0.5;" x1="261.5" x2="652.0293" y1="169" y2="169"/><line style="stroke:#8A8A8A;stroke-width:0.5;" x1="261.5" x2="652.0293" y1="177" y2="177"/><ellipse cx="271.5" cy="191.8105" fill="#84BE84" rx="3" ry="3" style="stroke:#038048;stroke-width:1;"/><text fill="#FFFFFF" font-family="sans-serif" font-size="14" lengthAdjust="spacing" textLength="366.5293" x="280.5" y="196.1074">void map(HasLongVersion source, HasLongVersion target)</text></g><!--class SimpleLongVersionMapper--><g class="entity" data-entity="SimpleLongVersionMapper" data-source-line="24" data-uid="ent0010" id="entity_SimpleLongVersionMapper"><rect fill="#2D2D2D" height="85.2422" rx="2.5" ry="2.5" style="stroke:#8A8A8A;stroke-width:0.5;" width="439.998" x="7" y="282.5"/><ellipse cx="138.3115" cy="298.5" fill="#ADD1B2" rx="11" ry="11" style="stroke:#181818;stroke-width:1;"/><path d="M141.0771,294.375 Q141.2334,294.1563 141.4209,294.0469 Q141.6084,293.9375 141.8271,293.9375 Q142.2021,293.9375 142.4365,294.2031 Q142.6709,294.4531 142.6709,295.0625 L142.6709,296.5156 Q142.6709,297.125 142.4365,297.3906 Q142.2021,297.6563 141.8271,297.6563 Q141.4834,297.6563 141.2803,297.4531 Q141.0771,297.2656 140.9678,296.75 Q140.9209,296.3906 140.7334,296.2031 Q140.4053,295.8281 139.7959,295.6094 Q139.1865,295.3906 138.5615,295.3906 Q137.7959,295.3906 137.1553,295.7188 Q136.5303,296.0469 136.0303,296.7969 Q135.5459,297.5469 135.5459,298.5781 L135.5459,299.6719 Q135.5459,300.9063 136.4365,301.7344 Q137.3271,302.5469 138.9209,302.5469 Q139.8584,302.5469 140.5146,302.2969 Q140.9053,302.1406 141.3271,301.7031 Q141.5928,301.4375 141.7334,301.3594 Q141.8896,301.2813 142.0928,301.2813 Q142.4209,301.2813 142.6709,301.5469 Q142.9365,301.7969 142.9365,302.1406 Q142.9365,302.4844 142.5928,302.8906 Q142.0928,303.4688 141.2959,303.7969 Q140.2178,304.25 138.9209,304.25 Q137.4053,304.25 136.2021,303.625 Q135.2178,303.125 134.5303,302.0625 Q133.8428,300.9844 133.8428,299.7031 L133.8428,298.5469 Q133.8428,297.2188 134.4521,296.0781 Q135.0771,294.9219 136.1709,294.3125 Q137.2646,293.6875 138.499,293.6875 Q139.2334,293.6875 139.874,293.8594 Q140.5303,294.0156 141.0771,294.375 Z " fill="#000000"/><text fill="#E0E0E0" font-family="sans-serif" font-size="14" lengthAdjust="spacing" textLength="168.875" x="158.8115" y="304.2969">SimpleLongVersionMapper</text><line style="stroke:#8A8A8A;stroke-width:0.5;" x1="8" x2="445.998" y1="314.5" y2="314.5"/><line style="stroke:#8A8A8A;stroke-width:0.5;" x1="8" x2="445.998" y1="322.5" y2="322.5"/><ellipse cx="18" cy="337.3105" fill="#84BE84" rx="3" ry="3" style="stroke:#038048;stroke-width:1;"/><text fill="#FFFFFF" font-family="sans-serif" font-size="14" lengthAdjust="spacing" textLength="366.5293" x="27" y="341.6074">void map(HasLongVersion source, HasLongVersion target)</text><rect fill="#F24D5C" height="6" style="stroke:#C82930;stroke-width:1;" width="6" x="15" y="352.9316"/><text fill="#FFFFFF" font-family="sans-serif" font-size="14" lengthAdjust="spacing" textLength="413.998" x="27" y="360.2285">void mapVersion(HasLongVersion source, HasLongVersion target)</text></g><!--class ValidatedLongVersionMapper--><g class="entity" data-entity="ValidatedLongVersionMapper" data-source-line="29" data-uid="ent0012" id="entity_ValidatedLongVersionMapper"><rect fill="#2D2D2D" height="122.4844" rx="2.5" ry="2.5" style="stroke:#8A8A8A;stroke-width:0.5;" width="410.4258" x="482" y="264"/><ellipse cx="590.7324" cy="280" fill="#ADD1B2" rx="11" ry="11" style="stroke:#181818;stroke-width:1;"/><path d="M593.498,275.875 Q593.6543,275.6563 593.8418,275.5469 Q594.0293,275.4375 594.248,275.4375 Q594.623,275.4375 594.8574,275.7031 Q595.0918,275.9531 595.0918,276.5625 L595.0918,278.0156 Q595.0918,278.625 594.8574,278.8906 Q594.623,279.1563 594.248,279.1563 Q593.9043,279.1563 593.7012,278.9531 Q593.498,278.7656 593.3887,278.25 Q593.3418,277.8906 593.1543,277.7031 Q592.8262,277.3281 592.2168,277.1094 Q591.6074,276.8906 590.9824,276.8906 Q590.2168,276.8906 589.5762,277.2188 Q588.9512,277.5469 588.4512,278.2969 Q587.9668,279.0469 587.9668,280.0781 L587.9668,281.1719 Q587.9668,282.4063 588.8574,283.2344 Q589.748,284.0469 591.3418,284.0469 Q592.2793,284.0469 592.9355,283.7969 Q593.3262,283.6406 593.748,283.2031 Q594.0137,282.9375 594.1543,282.8594 Q594.3105,282.7813 594.5137,282.7813 Q594.8418,282.7813 595.0918,283.0469 Q595.3574,283.2969 595.3574,283.6406 Q595.3574,283.9844 595.0137,284.3906 Q594.5137,284.9688 593.7168,285.2969 Q592.6387,285.75 591.3418,285.75 Q589.8262,285.75 588.623,285.125 Q587.6387,284.625 586.9512,283.5625 Q586.2637,282.4844 586.2637,281.2031 L586.2637,280.0469 Q586.2637,278.7188 586.873,277.5781 Q587.498,276.4219 588.5918,275.8125 Q589.6855,275.1875 590.9199,275.1875 Q591.6543,275.1875 592.2949,275.3594 Q592.9512,275.5156 593.498,275.875 Z " fill="#000000"/><text fill="#E0E0E0" font-family="sans-serif" font-size="14" lengthAdjust="spacing" textLength="184.4609" x="611.2324" y="285.7969">ValidatedLongVersionMapper</text><line style="stroke:#8A8A8A;stroke-width:0.5;" x1="483" x2="891.4258" y1="296" y2="296"/><rect fill="none" height="6" style="stroke:#C82930;stroke-width:1;" width="6" x="490" y="307.8105"/><text fill="#FFFFFF" font-family="sans-serif" font-size="14" lengthAdjust="spacing" textLength="266.9502" x="502" y="315.1074">LongVersionValidator longVersionValidator</text><line style="stroke:#8A8A8A;stroke-width:0.5;" x1="483" x2="891.4258" y1="322.6211" y2="322.6211"/><ellipse cx="493" cy="337.4316" fill="#84BE84" rx="3" ry="3" style="stroke:#038048;stroke-width:1;"/><text fill="#FFFFFF" font-family="sans-serif" font-size="14" lengthAdjust="spacing" textLength="366.5293" x="502" y="341.7285">void map(HasLongVersion source, HasLongVersion target)</text><rect fill="#F24D5C" height="6" style="stroke:#C82930;stroke-width:1;" width="6" x="490" y="353.0527"/><text fill="#FFFFFF" font-family="sans-serif" font-size="14" lengthAdjust="spacing" textLength="312.8672" x="502" y="360.3496">boolean isValid(HasLongVersion hasLongVersion)</text><rect fill="#F24D5C" height="6" style="stroke:#C82930;stroke-width:1;" width="6" x="490" y="371.6738"/><text fill="#FFFFFF" font-family="sans-serif" font-size="14" lengthAdjust="spacing" textLength="384.4258" x="502" y="378.9707">mapVersion(HasLongVersion source, HasLongVersion target)</text></g><!--reverse link Validator to LongVersionValidator--><g class="link" data-entity-1="Validator" data-entity-2="LongVersionValidator" data-source-line="20" data-uid="lnk5" id="link_Validator_LongVersionValidator"><path d="M983.25,376.52 C983.25,402.35 983.25,419.9 983.25,445.77" fill="none" id="Validator-backto-LongVersionValidator" style="stroke:#B0C4DE;stroke-width:1;"/><polygon fill="none" points="983.25,358.52,977.25,376.52,989.25,376.52,983.25,358.52" style="stroke:#B0C4DE;stroke-width:1;"/></g><!--reverse link LongVersionValidator to PositiveLongVersionValidator--><g class="link" data-entity-1="LongVersionValidator" data-entity-2="PositiveLongVersionValidator" data-source-line="24" data-uid="lnk7" id="link_LongVersionValidator_PositiveLongVersionValidator"><path d="M870,531.12 C870,549.13 870,553.51 870,572.75" fill="none" id="LongVersionValidator-backto-PositiveLongVersionValidator" style="stroke:#B0C4DE;stroke-width:1;stroke-dasharray:7,7;"/><polygon fill="none" points="870,513.12,864,531.12,876,531.12,870,513.12" style="stroke:#B0C4DE;stroke-width:1;"/></g><!--reverse link Mapper to LongVersionMapper--><g class="link" data-entity-1="Mapper" data-entity-2="LongVersionMapper" data-source-line="21" data-uid="lnk9" id="link_Mapper_LongVersionMapper"><path d="M457,95.2 C457,113.57 457,118.25 457,136.64" fill="none" id="Mapper-backto-LongVersionMapper" style="stroke:#B0C4DE;stroke-width:1;"/><polygon fill="none" points="457,77.2,451,95.2,463,95.2,457,77.2" style="stroke:#B0C4DE;stroke-width:1;"/></g><!--reverse link LongVersionMapper to SimpleLongVersionMapper--><g class="link" data-entity-1="LongVersionMapper" data-entity-2="SimpleLongVersionMapper" data-source-line="25" data-uid="lnk11" id="link_LongVersionMapper_SimpleLongVersionMapper"><path d="M353.75,222.02 C353.75,245.01 353.75,257.7 353.75,282.41" fill="none" id="LongVersionMapper-backto-SimpleLongVersionMapper" style="stroke:#B0C4DE;stroke-width:1;stroke-dasharray:7,7;"/><polygon fill="none" points="353.75,204.02,347.75,222.02,359.75,222.02,353.75,204.02" style="stroke:#B0C4DE;stroke-width:1;"/></g><!--reverse link LongVersionMapper to ValidatedLongVersionMapper--><g class="link" data-entity-1="LongVersionMapper" data-entity-2="ValidatedLongVersionMapper" data-source-line="30" data-uid="lnk13" id="link_LongVersionMapper_ValidatedLongVersionMapper"><path d="M567.75,222.02 C567.75,239.51 567.75,243.45 567.75,263.82" fill="none" id="LongVersionMapper-backto-ValidatedLongVersionMapper" style="stroke:#B0C4DE;stroke-width:1;stroke-dasharray:7,7;"/><polygon fill="none" points="567.75,204.02,561.75,222.02,573.75,222.02,567.75,204.02" style="stroke:#B0C4DE;stroke-width:1;"/></g><!--link ValidatedLongVersionMapper to LongVersionValidator--><g class="link" data-entity-1="ValidatedLongVersionMapper" data-entity-2="LongVersionValidator" data-source-line="37" data-uid="lnk14" id="link_ValidatedLongVersionMapper_LongVersionValidator"><path codeLine="37" d="M796.25,386.06 C796.25,406.47 796.25,422.46 796.25,439.98" fill="none" id="ValidatedLongVersionMapper-to-LongVersionValidator" style="stroke:#B0C4DE;stroke-width:1;"/><polygon fill="#B0C4DE" points="796.25,445.98,800.25,436.98,796.25,440.98,792.25,436.98,796.25,445.98" style="stroke:#B0C4DE;stroke-width:1;"/></g><!--SRC=[hL5DJyCm3BtdLnXn0K7HG1mu8NLVui1EeDsznckZfN6Lf0o4-EyqNHbTLp5f8vOYvVdvnSzsAsKAj9Y3LeRyHq70rcSit3Qnm6ILMYwD7B5c2-Utan0jXgGbbjg_qhkFjKfDJiP3KbraMwpOMbut4iF1w7xSbd0PIbuhay8IjQDMPih6DrNJ-hHoYKRd3X9YxwrQb9uECcTKMPVxj2uFFWN0i3kNkt68a64hoJReGnoYGbkoaq48yIN4cJA9BYN138k2x4rHvleNV6QJpiawnMQEMadqt5242jDTOh93seX0jGSoqZMQTRC0L_36IaAEnSKJkbOHE2vjGjVGWJtQbFnbw79Z-aNbXQRzxseuxDprz7BYvw4usXOtsMCDD3CaUPI7g7STe7j0yH-c5yoQq81ojMvN8zjv_XITCgG_nXD5Zxtklm40]--></g></svg>