<svg xmlns="http://www.w3.org/2000/svg" xmlns:xlink="http://www.w3.org/1999/xlink" contentStyleType="text/css" data-diagram-type="CLASS" height="665px" preserveAspectRatio="none" style="width:706px;height:665px;background:#1E1E1E;" version="1.1" viewBox="0 0 706 665" width="706px" zoomAndPan="magnify"><defs/><g><rect fill="#1E1E1E" height="665" style="stroke:none;stroke-width:1;" width="706" x="0" y="0"/><!--class Mapper--><g class="entity" data-entity="Mapper" data-source-line="17" data-uid="ent0002" id="entity_Mapper"><rect fill="#2D2D2D" height="66.6211" rx="2.5" ry="2.5" style="stroke:#8A8A8A;stroke-width:0.5;" width="270.3301" x="71.5" y="10"/><ellipse cx="136.9951" cy="26" fill="#B4A7E5" rx="11" ry="11" style="stroke:#181818;stroke-width:1;"/><path d="M137.9482,22.6406 L137.9482,29.2969 L139.667,29.2969 Q140.2764,29.2969 140.542,29.5313 Q140.8076,29.7656 140.8076,30.1563 Q140.8076,30.5313 140.542,30.7656 Q140.2764,31 139.667,31 L134.5264,31 Q133.917,31 133.6514,30.7656 Q133.3857,30.5313 133.3857,30.1406 Q133.3857,29.7656 133.6514,29.5313 Q133.917,29.2969 134.5264,29.2969 L136.2451,29.2969 L136.2451,22.6406 L134.5264,22.6406 Q133.917,22.6406 133.6514,22.4063 Q133.3857,22.1719 133.3857,21.7813 Q133.3857,21.4063 133.6514,21.1719 Q133.917,20.9375 134.5264,20.9375 L139.667,20.9375 Q140.2764,20.9375 140.542,21.1719 Q140.8076,21.4063 140.8076,21.7813 Q140.8076,22.1719 140.542,22.4063 Q140.2764,22.6406 139.667,22.6406 L137.9482,22.6406 Z " fill="#000000"/><text fill="#E0E0E0" font-family="sans-serif" font-size="14" font-style="italic" lengthAdjust="spacing" textLength="47.4688" x="157.4951" y="31.7969">Mapper</text><rect fill="#2D2D2D" height="17.9609" style="stroke:#8A8A8A;stroke-width:1;stroke-dasharray:2,2;" width="81.3711" x="263.459" y="7"/><text fill="#000000" font-family="sans-serif" font-size="12" font-style="italic" lengthAdjust="spacing" textLength="79.3711" x="264.459" y="20.9492">Source, Target</text><line style="stroke:#8A8A8A;stroke-width:0.5;" x1="72.5" x2="340.8301" y1="42" y2="42"/><line style="stroke:#8A8A8A;stroke-width:0.5;" x1="72.5" x2="340.8301" y1="50" y2="50"/><ellipse cx="82.5" cy="64.8105" fill="#84BE84" rx="3" ry="3" style="stroke:#038048;stroke-width:1;"/><text fill="#FFFFFF" font-family="sans-serif" font-size="14" lengthAdjust="spacing" textLength="244.3301" x="91.5" y="69.1074">void map(Source source, Target target)</text></g><!--class Validator--><g class="entity" data-entity="Validator" data-source-line="17" data-uid="ent0003" id="entity_Validator"><rect fill="#2D2D2D" height="66.6211" rx="2.5" ry="2.5" style="stroke:#8A8A8A;stroke-width:0.5;" width="254.0127" x="441.5" y="291.5"/><ellipse cx="508.6162" cy="307.5" fill="#B4A7E5" rx="11" ry="11" style="stroke:#181818;stroke-width:1;"/><path d="M509.5693,304.1406 L509.5693,310.7969 L511.2881,310.7969 Q511.8975,310.7969 512.1631,311.0313 Q512.4287,311.2656 512.4287,311.6563 Q512.4287,312.0313 512.1631,312.2656 Q511.8975,312.5 511.2881,312.5 L506.1475,312.5 Q505.5381,312.5 505.2725,312.2656 Q505.0068,312.0313 505.0068,311.6406 Q505.0068,311.2656 505.2725,311.0313 Q505.5381,310.7969 506.1475,310.7969 L507.8662,310.7969 L507.8662,304.1406 L506.1475,304.1406 Q505.5381,304.1406 505.2725,303.9063 Q505.0068,303.6719 505.0068,303.2813 Q505.0068,302.9063 505.2725,302.6719 Q505.5381,302.4375 506.1475,302.4375 L511.2881,302.4375 Q511.8975,302.4375 512.1631,302.6719 Q512.4287,302.9063 512.4287,303.2813 Q512.4287,303.6719 512.1631,303.9063 Q511.8975,304.1406 511.2881,304.1406 L509.5693,304.1406 Z " fill="#000000"/><text fill="#E0E0E0" font-family="sans-serif" font-size="14" font-style="italic" lengthAdjust="spacing" textLength="55.2549" x="529.1162" y="313.2969">Validator</text><rect fill="#2D2D2D" height="17.9609" style="stroke:#8A8A8A;stroke-width:1;stroke-dasharray:2,2;" width="54.0254" x="644.4873" y="288.5"/><text fill="#000000" font-family="sans-serif" font-size="12" font-style="italic" lengthAdjust="spacing" textLength="52.0254" x="645.4873" y="302.4492">Argument</text><line style="stroke:#8A8A8A;stroke-width:0.5;" x1="442.5" x2="694.5127" y1="323.5" y2="323.5"/><line style="stroke:#8A8A8A;stroke-width:0.5;" x1="442.5" x2="694.5127" y1="331.5" y2="331.5"/><ellipse cx="452.5" cy="346.3105" fill="#84BE84" rx="3" ry="3" style="stroke:#038048;stroke-width:1;"/><text fill="#FFFFFF" font-family="sans-serif" font-size="14" lengthAdjust="spacing" textLength="228.0127" x="461.5" y="350.6074">boolean isValid(Argument argument)</text></g><!--class ServingsValidator--><g class="entity" data-entity="ServingsValidator" data-source-line="19" data-uid="ent0004" id="entity_ServingsValidator"><rect fill="#2D2D2D" height="66.6211" rx="2.5" ry="2.5" style="stroke:#8A8A8A;stroke-width:0.5;" width="290.5781" x="242" y="446"/><ellipse cx="328.1772" cy="462" fill="#B4A7E5" rx="11" ry="11" style="stroke:#181818;stroke-width:1;"/><path d="M329.1304,458.6406 L329.1304,465.2969 L330.8491,465.2969 Q331.4585,465.2969 331.7241,465.5313 Q331.9897,465.7656 331.9897,466.1563 Q331.9897,466.5313 331.7241,466.7656 Q331.4585,467 330.8491,467 L325.7085,467 Q325.0991,467 324.8335,466.7656 Q324.5679,466.5313 324.5679,466.1406 Q324.5679,465.7656 324.8335,465.5313 Q325.0991,465.2969 325.7085,465.2969 L327.4272,465.2969 L327.4272,458.6406 L325.7085,458.6406 Q325.0991,458.6406 324.8335,458.4063 Q324.5679,458.1719 324.5679,457.7813 Q324.5679,457.4063 324.8335,457.1719 Q325.0991,456.9375 325.7085,456.9375 L330.8491,456.9375 Q331.4585,456.9375 331.7241,457.1719 Q331.9897,457.4063 331.9897,457.7813 Q331.9897,458.1719 331.7241,458.4063 Q331.4585,458.6406 330.8491,458.6406 L329.1304,458.6406 Z " fill="#000000"/><text fill="#E0E0E0" font-family="sans-serif" font-size="14" font-style="italic" lengthAdjust="spacing" textLength="109.7236" x="348.6772" y="467.7969">ServingsValidator</text><line style="stroke:#8A8A8A;stroke-width:0.5;" x1="243" x2="531.5781" y1="478" y2="478"/><line style="stroke:#8A8A8A;stroke-width:0.5;" x1="243" x2="531.5781" y1="486" y2="486"/><ellipse cx="253" cy="500.8105" fill="#84BE84" rx="3" ry="3" style="stroke:#038048;stroke-width:1;"/><text fill="#FFFFFF" font-family="sans-serif" font-size="14" lengthAdjust="spacing" textLength="264.5781" x="262" y="505.1074">boolean isValid(HasServings hasServings)</text></g><!--class PositiveServingsValidator--><g class="entity" data-entity="PositiveServingsValidator" data-source-line="23" data-uid="ent0006" id="entity_PositiveServingsValidator"><rect fill="#2D2D2D" height="85.2422" rx="2.5" ry="2.5" style="stroke:#8A8A8A;stroke-width:0.5;" width="375.3984" x="200" y="573"/><ellipse cx="304.0771" cy="589" fill="#ADD1B2" rx="11" ry="11" style="stroke:#181818;stroke-width:1;"/><path d="M306.8428,584.875 Q306.999,584.6563 307.1865,584.5469 Q307.374,584.4375 307.5928,584.4375 Q307.9678,584.4375 308.2021,584.7031 Q308.4365,584.9531 308.4365,585.5625 L308.4365,587.0156 Q308.4365,587.625 308.2021,587.8906 Q307.9678,588.1563 307.5928,588.1563 Q307.249,588.1563 307.0459,587.9531 Q306.8428,587.7656 306.7334,587.25 Q306.6865,586.8906 306.499,586.7031 Q306.1709,586.3281 305.5615,586.1094 Q304.9521,585.8906 304.3271,585.8906 Q303.5615,585.8906 302.9209,586.2188 Q302.2959,586.5469 301.7959,587.2969 Q301.3115,588.0469 301.3115,589.0781 L301.3115,590.1719 Q301.3115,591.4063 302.2021,592.2344 Q303.0928,593.0469 304.6865,593.0469 Q305.624,593.0469 306.2803,592.7969 Q306.6709,592.6406 307.0928,592.2031 Q307.3584,591.9375 307.499,591.8594 Q307.6553,591.7813 307.8584,591.7813 Q308.1865,591.7813 308.4365,592.0469 Q308.7021,592.2969 308.7021,592.6406 Q308.7021,592.9844 308.3584,593.3906 Q307.8584,593.9688 307.0615,594.2969 Q305.9834,594.75 304.6865,594.75 Q303.1709,594.75 301.9678,594.125 Q300.9834,593.625 300.2959,592.5625 Q299.6084,591.4844 299.6084,590.2031 L299.6084,589.0469 Q299.6084,587.7188 300.2178,586.5781 Q300.8428,585.4219 301.9365,584.8125 Q303.0303,584.1875 304.2646,584.1875 Q304.999,584.1875 305.6396,584.3594 Q306.2959,584.5156 306.8428,584.875 Z " fill="#000000"/><text fill="#E0E0E0" font-family="sans-serif" font-size="14" lengthAdjust="spacing" textLength="158.7441" x="324.5771" y="594.7969">PositiveServingsValidator</text><line style="stroke:#8A8A8A;stroke-width:0.5;" x1="201" x2="574.3984" y1="605" y2="605"/><line style="stroke:#8A8A8A;stroke-width:0.5;" x1="201" x2="574.3984" y1="613" y2="613"/><ellipse cx="211" cy="627.8105" fill="#84BE84" rx="3" ry="3" style="stroke:#038048;stroke-width:1;"/><text fill="#FFFFFF" font-family="sans-serif" font-size="14" lengthAdjust="spacing" textLength="264.5781" x="220" y="632.1074">boolean isValid(HasServings hasServings)</text><rect fill="#F24D5C" height="6" style="stroke:#C82930;stroke-width:1;" width="6" x="208" y="643.4316"/><text fill="#FFFFFF" font-family="sans-serif" font-size="14" lengthAdjust="spacing" textLength="349.3984" x="220" y="650.7285">boolean hasPositiveServings(HasServings hasServings)</text></g><!--class ServingsMapper--><g class="entity" data-entity="ServingsMapper" data-source-line="20" data-uid="ent0008" id="entity_ServingsMapper"><rect fill="#2D2D2D" height="66.6211" rx="2.5" ry="2.5" style="stroke:#8A8A8A;stroke-width:0.5;" width="344.2402" x="34.5" y="137"/><ellipse cx="151.4014" cy="153" fill="#B4A7E5" rx="11" ry="11" style="stroke:#181818;stroke-width:1;"/><path d="M152.3545,149.6406 L152.3545,156.2969 L154.0732,156.2969 Q154.6826,156.2969 154.9482,156.5313 Q155.2139,156.7656 155.2139,157.1563 Q155.2139,157.5313 154.9482,157.7656 Q154.6826,158 154.0732,158 L148.9326,158 Q148.3232,158 148.0576,157.7656 Q147.792,157.5313 147.792,157.1406 Q147.792,156.7656 148.0576,156.5313 Q148.3232,156.2969 148.9326,156.2969 L150.6514,156.2969 L150.6514,149.6406 L148.9326,149.6406 Q148.3232,149.6406 148.0576,149.4063 Q147.792,149.1719 147.792,148.7813 Q147.792,148.4063 148.0576,148.1719 Q148.3232,147.9375 148.9326,147.9375 L154.0732,147.9375 Q154.6826,147.9375 154.9482,148.1719 Q155.2139,148.4063 155.2139,148.7813 Q155.2139,149.1719 154.9482,149.4063 Q154.6826,149.6406 154.0732,149.6406 L152.3545,149.6406 Z " fill="#000000"/><text fill="#E0E0E0" font-family="sans-serif" font-size="14" font-style="italic" lengthAdjust="spacing" textLength="101.9375" x="171.9014" y="158.7969">ServingsMapper</text><line style="stroke:#8A8A8A;stroke-width:0.5;" x1="35.5" x2="377.7402" y1="169" y2="169"/><line style="stroke:#8A8A8A;stroke-width:0.5;" x1="35.5" x2="377.7402" y1="177" y2="177"/><ellipse cx="45.5" cy="191.8105" fill="#84BE84" rx="3" ry="3" style="stroke:#038048;stroke-width:1;"/><text fill="#FFFFFF" font-family="sans-serif" font-size="14" lengthAdjust="spacing" textLength="318.2402" x="54.5" y="196.1074">void map(HasServings source, HasServings target)</text></g><!--class ValidatedServingsMapper--><g class="entity" data-entity="ValidatedServingsMapper" data-source-line="24" data-uid="ent0010" id="entity_ValidatedServingsMapper"><rect fill="#2D2D2D" height="122.4844" rx="2.5" ry="2.5" style="stroke:#8A8A8A;stroke-width:0.5;" width="398.709" x="7" y="264"/><ellipse cx="121.9463" cy="280" fill="#ADD1B2" rx="11" ry="11" style="stroke:#181818;stroke-width:1;"/><path d="M124.7119,275.875 Q124.8682,275.6563 125.0557,275.5469 Q125.2432,275.4375 125.4619,275.4375 Q125.8369,275.4375 126.0713,275.7031 Q126.3057,275.9531 126.3057,276.5625 L126.3057,278.0156 Q126.3057,278.625 126.0713,278.8906 Q125.8369,279.1563 125.4619,279.1563 Q125.1182,279.1563 124.915,278.9531 Q124.7119,278.7656 124.6025,278.25 Q124.5557,277.8906 124.3682,277.7031 Q124.04,277.3281 123.4307,277.1094 Q122.8213,276.8906 122.1963,276.8906 Q121.4307,276.8906 120.79,277.2188 Q120.165,277.5469 119.665,278.2969 Q119.1807,279.0469 119.1807,280.0781 L119.1807,281.1719 Q119.1807,282.4063 120.0713,283.2344 Q120.9619,284.0469 122.5557,284.0469 Q123.4932,284.0469 124.1494,283.7969 Q124.54,283.6406 124.9619,283.2031 Q125.2275,282.9375 125.3682,282.8594 Q125.5244,282.7813 125.7275,282.7813 Q126.0557,282.7813 126.3057,283.0469 Q126.5713,283.2969 126.5713,283.6406 Q126.5713,283.9844 126.2275,284.3906 Q125.7275,284.9688 124.9307,285.2969 Q123.8525,285.75 122.5557,285.75 Q121.04,285.75 119.8369,285.125 Q118.8525,284.625 118.165,283.5625 Q117.4775,282.4844 117.4775,281.2031 L117.4775,280.0469 Q117.4775,278.7188 118.0869,277.5781 Q118.7119,276.4219 119.8057,275.8125 Q120.8994,275.1875 122.1338,275.1875 Q122.8682,275.1875 123.5088,275.3594 Q124.165,275.5156 124.7119,275.875 Z " fill="#000000"/><text fill="#E0E0E0" font-family="sans-serif" font-size="14" lengthAdjust="spacing" textLength="160.3164" x="142.4463" y="285.7969">ValidatedServingsMapper</text><line style="stroke:#8A8A8A;stroke-width:0.5;" x1="8" x2="404.709" y1="296" y2="296"/><rect fill="none" height="6" style="stroke:#C82930;stroke-width:1;" width="6" x="15" y="307.8105"/><text fill="#FFFFFF" font-family="sans-serif" font-size="14" lengthAdjust="spacing" textLength="220.999" x="27" y="315.1074">ServingsValidator servingsValidator</text><line style="stroke:#8A8A8A;stroke-width:0.5;" x1="8" x2="404.709" y1="322.6211" y2="322.6211"/><ellipse cx="18" cy="337.4316" fill="#84BE84" rx="3" ry="3" style="stroke:#038048;stroke-width:1;"/><text fill="#FFFFFF" font-family="sans-serif" font-size="14" lengthAdjust="spacing" textLength="318.2402" x="27" y="341.7285">void map(HasServings source, HasServings target)</text><rect fill="#F24D5C" height="6" style="stroke:#C82930;stroke-width:1;" width="6" x="15" y="353.0527"/><text fill="#FFFFFF" font-family="sans-serif" font-size="14" lengthAdjust="spacing" textLength="264.5781" x="27" y="360.3496">boolean isValid(HasServings hasServings)</text><rect fill="#F24D5C" height="6" style="stroke:#C82930;stroke-width:1;" width="6" x="15" y="371.6738"/><text fill="#FFFFFF" font-family="sans-serif" font-size="14" lengthAdjust="spacing" textLength="372.709" x="27" y="378.9707">void mapServings(HasServings source, HasServings target)</text></g><!--reverse link Validator to ServingsValidator--><g class="link" data-entity-1="Validator" data-entity-2="ServingsValidator" data-source-line="20" data-uid="lnk5" id="link_Validator_ServingsValidator"><path d="M487.25,376.52 C487.25,402.35 487.25,419.9 487.25,445.77" fill="none" id="Validator-backto-ServingsValidator" style="stroke:#B0C4DE;stroke-width:1;"/><polygon fill="none" points="487.25,358.52,481.25,376.52,493.25,376.52,487.25,358.52" style="stroke:#B0C4DE;stroke-width:1;"/></g><!--reverse link ServingsValidator to PositiveServingsValidator--><g class="link" data-entity-1="ServingsValidator" data-entity-2="PositiveServingsValidator" data-source-line="24" data-uid="lnk7" id="link_ServingsValidator_PositiveServingsValidator"><path d="M387.5,531.12 C387.5,549.13 387.5,553.51 387.5,572.75" fill="none" id="ServingsValidator-backto-PositiveServingsValidator" style="stroke:#B0C4DE;stroke-width:1;stroke-dasharray:7,7;"/><polygon fill="none" points="387.5,513.12,381.5,531.12,393.5,531.12,387.5,513.12" style="stroke:#B0C4DE;stroke-width:1;"/></g><!--reverse link Mapper to ServingsMapper--><g class="link" data-entity-1="Mapper" data-entity-2="ServingsMapper" data-source-line="21" data-uid="lnk9" id="link_Mapper_ServingsMapper"><path d="M206.5,95.2 C206.5,113.57 206.5,118.25 206.5,136.64" fill="none" id="Mapper-backto-ServingsMapper" style="stroke:#B0C4DE;stroke-width:1;"/><polygon fill="none" points="206.5,77.2,200.5,95.2,212.5,95.2,206.5,77.2" style="stroke:#B0C4DE;stroke-width:1;"/></g><!--reverse link ServingsMapper to ValidatedServingsMapper--><g class="link" data-entity-1="ServingsMapper" data-entity-2="ValidatedServingsMapper" data-source-line="25" data-uid="lnk11" id="link_ServingsMapper_ValidatedServingsMapper"><path d="M206.5,222.02 C206.5,239.51 206.5,243.45 206.5,263.82" fill="none" id="ServingsMapper-backto-ValidatedServingsMapper" style="stroke:#B0C4DE;stroke-width:1;stroke-dasharray:7,7;"/><polygon fill="none" points="206.5,204.02,200.5,222.02,212.5,222.02,206.5,204.02" style="stroke:#B0C4DE;stroke-width:1;"/></g><!--link ValidatedServingsMapper to ServingsValidator--><g class="link" data-entity-1="ValidatedServingsMapper" data-entity-2="ServingsValidator" data-source-line="32" data-uid="lnk12" id="link_ValidatedServingsMapper_ServingsValidator"><path codeLine="32" d="M324,386.06 C324,406.47 324,422.46 324,439.98" fill="none" id="ValidatedServingsMapper-to-ServingsValidator" style="stroke:#B0C4DE;stroke-width:1;"/><polygon fill="#B0C4DE" points="324,445.98,328,436.98,324,440.98,320,436.98,324,445.98" style="stroke:#B0C4DE;stroke-width:1;"/></g><!--SRC=[dL5DJyCm3BtdLnXn0S7GG1mu8NLVuh8JYBlNU5sqD8wIT0CX_ZlDshBG2aqGIr7q_6m_l_YjCXOTbg2LeV1k2TY53Gl_dLXXlYqSLqPEMRE3yzjvZ8GXQOsL3Y_q5ZAj2bEI2P3N5xc4bJd7-xR5P3ozdwKj_0ObxvKfO8tQKv9Pi0bjrU9mabokqVkJX2m4frPLe9FC9TMhoo6jpuCF0J3f-t8tYn4px2Iv5dt8OjHeqdO-ZY4-XJXJ9jUL95YYjUHkR5Ng8_XCRbTxubzHAuc1sxnGqTervaT6Kmxr3v2Hlkrsa0bm1JjM4agq5q_ekmhmNBcShY750hg2mcLKrYpQJYRP6wHAgod-i-zBQ6QEXjh1zn7nNtdDX1Mp9ZIWceu_gZV7TqVlfdJuNypupORHw76uw1S0]--></g></svg>