<svg xmlns="http://www.w3.org/2000/svg" xmlns:xlink="http://www.w3.org/1999/xlink" contentStyleType="text/css" data-diagram-type="CLASS" height="356px" preserveAspectRatio="none" style="width:389px;height:356px;background:#1E1E1E;" version="1.1" viewBox="0 0 389 356" width="389px" zoomAndPan="magnify"><defs/><g><rect fill="#1E1E1E" height="356" style="stroke:none;stroke-width:1;" width="389" x="0" y="0"/><!--class Validator--><g class="entity" data-entity="Validator" data-source-line="17" data-uid="ent0002" id="entity_Validator"><rect fill="#2D2D2D" height="66.6211" rx="2.5" ry="2.5" style="stroke:#8A8A8A;stroke-width:0.5;" width="254.0127" x="67.5" y="10"/><ellipse cx="134.6162" cy="26" fill="#B4A7E5" rx="11" ry="11" style="stroke:#181818;stroke-width:1;"/><path d="M135.5693,22.6406 L135.5693,29.2969 L137.2881,29.2969 Q137.8975,29.2969 138.1631,29.5313 Q138.4287,29.7656 138.4287,30.1563 Q138.4287,30.5313 138.1631,30.7656 Q137.8975,31 137.2881,31 L132.1475,31 Q131.5381,31 131.2725,30.7656 Q131.0068,30.5313 131.0068,30.1406 Q131.0068,29.7656 131.2725,29.5313 Q131.5381,29.2969 132.1475,29.2969 L133.8662,29.2969 L133.8662,22.6406 L132.1475,22.6406 Q131.5381,22.6406 131.2725,22.4063 Q131.0068,22.1719 131.0068,21.7813 Q131.0068,21.4063 131.2725,21.1719 Q131.5381,20.9375 132.1475,20.9375 L137.2881,20.9375 Q137.8975,20.9375 138.1631,21.1719 Q138.4287,21.4063 138.4287,21.7813 Q138.4287,22.1719 138.1631,22.4063 Q137.8975,22.6406 137.2881,22.6406 L135.5693,22.6406 Z " fill="#000000"/><text fill="#E0E0E0" font-family="sans-serif" font-size="14" font-style="italic" lengthAdjust="spacing" textLength="55.2549" x="155.1162" y="31.7969">Validator</text><rect fill="#2D2D2D" height="17.9609" style="stroke:#8A8A8A;stroke-width:1;stroke-dasharray:2,2;" width="54.0254" x="270.4873" y="7"/><text fill="#000000" font-family="sans-serif" font-size="12" font-style="italic" lengthAdjust="spacing" textLength="52.0254" x="271.4873" y="20.9492">Argument</text><line style="stroke:#8A8A8A;stroke-width:0.5;" x1="68.5" x2="320.5127" y1="42" y2="42"/><line style="stroke:#8A8A8A;stroke-width:0.5;" x1="68.5" x2="320.5127" y1="50" y2="50"/><ellipse cx="78.5" cy="64.8105" fill="#84BE84" rx="3" ry="3" style="stroke:#038048;stroke-width:1;"/><text fill="#FFFFFF" font-family="sans-serif" font-size="14" lengthAdjust="spacing" textLength="228.0127" x="87.5" y="69.1074">boolean isValid(Argument argument)</text></g><!--class ServingsValidator--><g class="entity" data-entity="ServingsValidator" data-source-line="19" data-uid="ent0003" id="entity_ServingsValidator"><rect fill="#2D2D2D" height="66.6211" rx="2.5" ry="2.5" style="stroke:#8A8A8A;stroke-width:0.5;" width="290.5781" x="49" y="137"/><ellipse cx="135.1772" cy="153" fill="#B4A7E5" rx="11" ry="11" style="stroke:#181818;stroke-width:1;"/><path d="M136.1304,149.6406 L136.1304,156.2969 L137.8491,156.2969 Q138.4585,156.2969 138.7241,156.5313 Q138.9897,156.7656 138.9897,157.1563 Q138.9897,157.5313 138.7241,157.7656 Q138.4585,158 137.8491,158 L132.7085,158 Q132.0991,158 131.8335,157.7656 Q131.5679,157.5313 131.5679,157.1406 Q131.5679,156.7656 131.8335,156.5313 Q132.0991,156.2969 132.7085,156.2969 L134.4272,156.2969 L134.4272,149.6406 L132.7085,149.6406 Q132.0991,149.6406 131.8335,149.4063 Q131.5679,149.1719 131.5679,148.7813 Q131.5679,148.4063 131.8335,148.1719 Q132.0991,147.9375 132.7085,147.9375 L137.8491,147.9375 Q138.4585,147.9375 138.7241,148.1719 Q138.9897,148.4063 138.9897,148.7813 Q138.9897,149.1719 138.7241,149.4063 Q138.4585,149.6406 137.8491,149.6406 L136.1304,149.6406 Z " fill="#000000"/><text fill="#E0E0E0" font-family="sans-serif" font-size="14" font-style="italic" lengthAdjust="spacing" textLength="109.7236" x="155.6772" y="158.7969">ServingsValidator</text><line style="stroke:#8A8A8A;stroke-width:0.5;" x1="50" x2="338.5781" y1="169" y2="169"/><line style="stroke:#8A8A8A;stroke-width:0.5;" x1="50" x2="338.5781" y1="177" y2="177"/><ellipse cx="60" cy="191.8105" fill="#84BE84" rx="3" ry="3" style="stroke:#038048;stroke-width:1;"/><text fill="#FFFFFF" font-family="sans-serif" font-size="14" lengthAdjust="spacing" textLength="264.5781" x="69" y="196.1074">boolean isValid(HasServings hasServings)</text></g><!--class PositiveServingsValidator--><g class="entity" data-entity="PositiveServingsValidator" data-source-line="23" data-uid="ent0005" id="entity_PositiveServingsValidator"><rect fill="#2D2D2D" height="85.2422" rx="2.5" ry="2.5" style="stroke:#8A8A8A;stroke-width:0.5;" width="375.3984" x="7" y="264"/><ellipse cx="111.0771" cy="280" fill="#ADD1B2" rx="11" ry="11" style="stroke:#181818;stroke-width:1;"/><path d="M113.8428,275.875 Q113.999,275.6563 114.1865,275.5469 Q114.374,275.4375 114.5928,275.4375 Q114.9678,275.4375 115.2021,275.7031 Q115.4365,275.9531 115.4365,276.5625 L115.4365,278.0156 Q115.4365,278.625 115.2021,278.8906 Q114.9678,279.1563 114.5928,279.1563 Q114.249,279.1563 114.0459,278.9531 Q113.8428,278.7656 113.7334,278.25 Q113.6865,277.8906 113.499,277.7031 Q113.1709,277.3281 112.5615,277.1094 Q111.9521,276.8906 111.3271,276.8906 Q110.5615,276.8906 109.9209,277.2188 Q109.2959,277.5469 108.7959,278.2969 Q108.3115,279.0469 108.3115,280.0781 L108.3115,281.1719 Q108.3115,282.4063 109.2021,283.2344 Q110.0928,284.0469 111.6865,284.0469 Q112.624,284.0469 113.2803,283.7969 Q113.6709,283.6406 114.0928,283.2031 Q114.3584,282.9375 114.499,282.8594 Q114.6553,282.7813 114.8584,282.7813 Q115.1865,282.7813 115.4365,283.0469 Q115.7021,283.2969 115.7021,283.6406 Q115.7021,283.9844 115.3584,284.3906 Q114.8584,284.9688 114.0615,285.2969 Q112.9834,285.75 111.6865,285.75 Q110.1709,285.75 108.9678,285.125 Q107.9834,284.625 107.2959,283.5625 Q106.6084,282.4844 106.6084,281.2031 L106.6084,280.0469 Q106.6084,278.7188 107.2178,277.5781 Q107.8428,276.4219 108.9365,275.8125 Q110.0303,275.1875 111.2646,275.1875 Q111.999,275.1875 112.6396,275.3594 Q113.2959,275.5156 113.8428,275.875 Z " fill="#000000"/><text fill="#E0E0E0" font-family="sans-serif" font-size="14" lengthAdjust="spacing" textLength="158.7441" x="131.5771" y="285.7969">PositiveServingsValidator</text><line style="stroke:#8A8A8A;stroke-width:0.5;" x1="8" x2="381.3984" y1="296" y2="296"/><line style="stroke:#8A8A8A;stroke-width:0.5;" x1="8" x2="381.3984" y1="304" y2="304"/><ellipse cx="18" cy="318.8105" fill="#84BE84" rx="3" ry="3" style="stroke:#038048;stroke-width:1;"/><text fill="#FFFFFF" font-family="sans-serif" font-size="14" lengthAdjust="spacing" textLength="264.5781" x="27" y="323.1074">boolean isValid(HasServings hasServings)</text><rect fill="#F24D5C" height="6" style="stroke:#C82930;stroke-width:1;" width="6" x="15" y="334.4316"/><text fill="#FFFFFF" font-family="sans-serif" font-size="14" lengthAdjust="spacing" textLength="349.3984" x="27" y="341.7285">boolean hasPositiveServings(HasServings hasServings)</text></g><!--reverse link Validator to ServingsValidator--><g class="link" data-entity-1="Validator" data-entity-2="ServingsValidator" data-source-line="20" data-uid="lnk4" id="link_Validator_ServingsValidator"><path d="M194.5,95.2 C194.5,113.57 194.5,118.25 194.5,136.64" fill="none" id="Validator-backto-ServingsValidator" style="stroke:#B0C4DE;stroke-width:1;"/><polygon fill="none" points="194.5,77.2,188.5,95.2,200.5,95.2,194.5,77.2" style="stroke:#B0C4DE;stroke-width:1;"/></g><!--reverse link ServingsValidator to PositiveServingsValidator--><g class="link" data-entity-1="ServingsValidator" data-entity-2="PositiveServingsValidator" data-source-line="24" data-uid="lnk6" id="link_ServingsValidator_PositiveServingsValidator"><path d="M194.5,222.12 C194.5,240.13 194.5,244.51 194.5,263.75" fill="none" id="ServingsValidator-backto-PositiveServingsValidator" style="stroke:#B0C4DE;stroke-width:1;stroke-dasharray:7,7;"/><polygon fill="none" points="194.5,204.12,188.5,222.12,200.5,222.12,194.5,204.12" style="stroke:#B0C4DE;stroke-width:1;"/></g><!--SRC=[bP5DIyGm48Rl-HKZNXHHLl7WjVk55q5GlAVDj1qspPH9kgk8_zrajtRBhhYOWH3cVUOpVaMkrQ8RiEGmVBG8BA5cvGSXryMg4kwScR5bWVFRHR8HOR3KdGsl-1uoIvLhq0KeueKoeZ8HtlGfffFP_NoSmjVQy8PS1QMs7aVAabteevRRCz8Agxq_2MGX2ELTm9Fa4yRHpJ5soC6d0fWUxkLkdYmfB0QbzpvaoQ9tb7OnIQQ-b3eZLzZE8BnfIqO7bfksQwnIbBPNwWBX1MKT5-C70kAUqHc_Zzds0t05ERD5xO1szCMZzZ_XKE_VbwdqRf9dzXHeZSTLg6ajfg_qlxJmxu89lnxmA1qM_gFNRm00]--></g></svg>