<svg xmlns="http://www.w3.org/2000/svg" xmlns:xlink="http://www.w3.org/1999/xlink" contentStyleType="text/css" data-diagram-type="CLASS" height="374px" preserveAspectRatio="none" style="width:422px;height:374px;background:#1E1E1E;" version="1.1" viewBox="0 0 422 374" width="422px" zoomAndPan="magnify"><defs/><g><rect fill="#1E1E1E" height="374" style="stroke:none;stroke-width:1;" width="422" x="0" y="0"/><!--class Validator--><g class="entity" data-entity="Validator" data-source-line="17" data-uid="ent0002" id="entity_Validator"><rect fill="#2D2D2D" height="66.6211" rx="2.5" ry="2.5" style="stroke:#8A8A8A;stroke-width:0.5;" width="254.0127" x="84.5" y="10"/><ellipse cx="151.6162" cy="26" fill="#B4A7E5" rx="11" ry="11" style="stroke:#181818;stroke-width:1;"/><path d="M152.5693,22.6406 L152.5693,29.2969 L154.2881,29.2969 Q154.8975,29.2969 155.1631,29.5313 Q155.4287,29.7656 155.4287,30.1563 Q155.4287,30.5313 155.1631,30.7656 Q154.8975,31 154.2881,31 L149.1475,31 Q148.5381,31 148.2725,30.7656 Q148.0068,30.5313 148.0068,30.1406 Q148.0068,29.7656 148.2725,29.5313 Q148.5381,29.2969 149.1475,29.2969 L150.8662,29.2969 L150.8662,22.6406 L149.1475,22.6406 Q148.5381,22.6406 148.2725,22.4063 Q148.0068,22.1719 148.0068,21.7813 Q148.0068,21.4063 148.2725,21.1719 Q148.5381,20.9375 149.1475,20.9375 L154.2881,20.9375 Q154.8975,20.9375 155.1631,21.1719 Q155.4287,21.4063 155.4287,21.7813 Q155.4287,22.1719 155.1631,22.4063 Q154.8975,22.6406 154.2881,22.6406 L152.5693,22.6406 Z " fill="#000000"/><text fill="#E0E0E0" font-family="sans-serif" font-size="14" font-style="italic" lengthAdjust="spacing" textLength="55.2549" x="172.1162" y="31.7969">Validator</text><rect fill="#2D2D2D" height="17.9609" style="stroke:#8A8A8A;stroke-width:1;stroke-dasharray:2,2;" width="54.0254" x="287.4873" y="7"/><text fill="#000000" font-family="sans-serif" font-size="12" font-style="italic" lengthAdjust="spacing" textLength="52.0254" x="288.4873" y="20.9492">Argument</text><line style="stroke:#8A8A8A;stroke-width:0.5;" x1="85.5" x2="337.5127" y1="42" y2="42"/><line style="stroke:#8A8A8A;stroke-width:0.5;" x1="85.5" x2="337.5127" y1="50" y2="50"/><ellipse cx="95.5" cy="64.8105" fill="#84BE84" rx="3" ry="3" style="stroke:#038048;stroke-width:1;"/><text fill="#FFFFFF" font-family="sans-serif" font-size="14" lengthAdjust="spacing" textLength="228.0127" x="104.5" y="69.1074">boolean isValid(Argument argument)</text></g><!--class StringNameValidator--><g class="entity" data-entity="StringNameValidator" data-source-line="19" data-uid="ent0003" id="entity_StringNameValidator"><rect fill="#2D2D2D" height="66.6211" rx="2.5" ry="2.5" style="stroke:#8A8A8A;stroke-width:0.5;" width="329.4746" x="47" y="137"/><ellipse cx="142.9014" cy="153" fill="#B4A7E5" rx="11" ry="11" style="stroke:#181818;stroke-width:1;"/><path d="M143.8545,149.6406 L143.8545,156.2969 L145.5732,156.2969 Q146.1826,156.2969 146.4482,156.5313 Q146.7139,156.7656 146.7139,157.1563 Q146.7139,157.5313 146.4482,157.7656 Q146.1826,158 145.5732,158 L140.4326,158 Q139.8232,158 139.5576,157.7656 Q139.292,157.5313 139.292,157.1406 Q139.292,156.7656 139.5576,156.5313 Q139.8232,156.2969 140.4326,156.2969 L142.1514,156.2969 L142.1514,149.6406 L140.4326,149.6406 Q139.8232,149.6406 139.5576,149.4063 Q139.292,149.1719 139.292,148.7813 Q139.292,148.4063 139.5576,148.1719 Q139.8232,147.9375 140.4326,147.9375 L145.5732,147.9375 Q146.1826,147.9375 146.4482,148.1719 Q146.7139,148.4063 146.7139,148.7813 Q146.7139,149.1719 146.4482,149.4063 Q146.1826,149.6406 145.5732,149.6406 L143.8545,149.6406 Z " fill="#000000"/><text fill="#E0E0E0" font-family="sans-serif" font-size="14" font-style="italic" lengthAdjust="spacing" textLength="129.1719" x="163.4014" y="158.7969">StringNameValidator</text><line style="stroke:#8A8A8A;stroke-width:0.5;" x1="48" x2="375.4746" y1="169" y2="169"/><line style="stroke:#8A8A8A;stroke-width:0.5;" x1="48" x2="375.4746" y1="177" y2="177"/><ellipse cx="58" cy="191.8105" fill="#84BE84" rx="3" ry="3" style="stroke:#038048;stroke-width:1;"/><text fill="#FFFFFF" font-family="sans-serif" font-size="14" lengthAdjust="spacing" textLength="303.4746" x="67" y="196.1074">boolean isValid(HasStringName hasStringName)</text></g><!--class NonBlankStringNameValidator--><g class="entity" data-entity="NonBlankStringNameValidator" data-source-line="23" data-uid="ent0005" id="entity_NonBlankStringNameValidator"><rect fill="#2D2D2D" height="103.8633" rx="2.5" ry="2.5" style="stroke:#8A8A8A;stroke-width:0.5;" width="408.8535" x="7" y="264"/><ellipse cx="112.2393" cy="280" fill="#ADD1B2" rx="11" ry="11" style="stroke:#181818;stroke-width:1;"/><path d="M115.0049,275.875 Q115.1611,275.6563 115.3486,275.5469 Q115.5361,275.4375 115.7549,275.4375 Q116.1299,275.4375 116.3643,275.7031 Q116.5986,275.9531 116.5986,276.5625 L116.5986,278.0156 Q116.5986,278.625 116.3643,278.8906 Q116.1299,279.1563 115.7549,279.1563 Q115.4111,279.1563 115.208,278.9531 Q115.0049,278.7656 114.8955,278.25 Q114.8486,277.8906 114.6611,277.7031 Q114.333,277.3281 113.7236,277.1094 Q113.1143,276.8906 112.4893,276.8906 Q111.7236,276.8906 111.083,277.2188 Q110.458,277.5469 109.958,278.2969 Q109.4736,279.0469 109.4736,280.0781 L109.4736,281.1719 Q109.4736,282.4063 110.3643,283.2344 Q111.2549,284.0469 112.8486,284.0469 Q113.7861,284.0469 114.4424,283.7969 Q114.833,283.6406 115.2549,283.2031 Q115.5205,282.9375 115.6611,282.8594 Q115.8174,282.7813 116.0205,282.7813 Q116.3486,282.7813 116.5986,283.0469 Q116.8643,283.2969 116.8643,283.6406 Q116.8643,283.9844 116.5205,284.3906 Q116.0205,284.9688 115.2236,285.2969 Q114.1455,285.75 112.8486,285.75 Q111.333,285.75 110.1299,285.125 Q109.1455,284.625 108.458,283.5625 Q107.7705,282.4844 107.7705,281.2031 L107.7705,280.0469 Q107.7705,278.7188 108.3799,277.5781 Q109.0049,276.4219 110.0986,275.8125 Q111.1924,275.1875 112.4268,275.1875 Q113.1611,275.1875 113.8018,275.3594 Q114.458,275.5156 115.0049,275.875 Z " fill="#000000"/><text fill="#E0E0E0" font-family="sans-serif" font-size="14" lengthAdjust="spacing" textLength="189.875" x="132.7393" y="285.7969">NonBlankStringNameValidator</text><line style="stroke:#8A8A8A;stroke-width:0.5;" x1="8" x2="414.8535" y1="296" y2="296"/><line style="stroke:#8A8A8A;stroke-width:0.5;" x1="8" x2="414.8535" y1="304" y2="304"/><ellipse cx="18" cy="318.8105" fill="#84BE84" rx="3" ry="3" style="stroke:#038048;stroke-width:1;"/><text fill="#FFFFFF" font-family="sans-serif" font-size="14" lengthAdjust="spacing" textLength="308.1367" x="27" y="323.1074">boolean isValid((HasStringName hasStringName)</text><rect fill="#F24D5C" height="6" style="stroke:#C82930;stroke-width:1;" width="6" x="15" y="334.4316"/><text fill="#FFFFFF" font-family="sans-serif" font-size="14" lengthAdjust="spacing" textLength="382.8535" x="27" y="341.7285">boolean hasNonBlankName(HasStringName hasStringName)</text><rect fill="#F24D5C" height="6" style="stroke:#C82930;stroke-width:1;" width="6" x="15" y="353.0527"/><text fill="#FFFFFF" font-family="sans-serif" font-size="14" lengthAdjust="spacing" textLength="357.1709" x="27" y="360.3496">boolean hasBlankName(HasStringName hasStringName)</text></g><!--reverse link Validator to StringNameValidator--><g class="link" data-entity-1="Validator" data-entity-2="StringNameValidator" data-source-line="20" data-uid="lnk4" id="link_Validator_StringNameValidator"><path d="M211.5,95.2 C211.5,113.57 211.5,118.25 211.5,136.64" fill="none" id="Validator-backto-StringNameValidator" style="stroke:#B0C4DE;stroke-width:1;"/><polygon fill="none" points="211.5,77.2,205.5,95.2,217.5,95.2,211.5,77.2" style="stroke:#B0C4DE;stroke-width:1;"/></g><!--reverse link StringNameValidator to NonBlankStringNameValidator--><g class="link" data-entity-1="StringNameValidator" data-entity-2="NonBlankStringNameValidator" data-source-line="24" data-uid="lnk6" id="link_StringNameValidator_NonBlankStringNameValidator"><path d="M211.5,222.25 C211.5,239.96 211.5,244.05 211.5,263.91" fill="none" id="StringNameValidator-backto-NonBlankStringNameValidator" style="stroke:#B0C4DE;stroke-width:1;stroke-dasharray:7,7;"/><polygon fill="none" points="211.5,204.25,205.5,222.25,217.5,222.25,211.5,204.25" style="stroke:#B0C4DE;stroke-width:1;"/></g><!--SRC=[bL5DJyCm3BtdLnXn0I7GG1ouTb_YmYuWxcxZjj5IkqfI3OJstsdAsA8nDeYbIF5xptvs_D9mYmuRi8OflBS4ua8joc-178jbvQHZFH4h3ivlPp4IXgOIEnjUw2rarbJS40Se-ejSmigSazMcn7WqkP-c9NoDMbQ6AoZHUagGkN3OgER3IR32elSd2La8pkHTe9FC9-f7rpzf-ppuK03Z_RtSJMD4H9mcjya-P37wR59sDegXragT6IvifmbUqHgDGTnDspLMAHEtLs91yDoxvsg13Mqvq6-QMFkTQd04S0MvY2LaC7x0BXxHxmf0dRukeu6lUHR2OukyFDJBDAsb-AN-e9NV6X_l73NNMqqFVZk8y3-bVzIjFm40]--></g></svg>