<svg xmlns="http://www.w3.org/2000/svg" xmlns:xlink="http://www.w3.org/1999/xlink" contentStyleType="text/css" data-diagram-type="CLASS" height="683px" preserveAspectRatio="none" style="width:698px;height:683px;background:#1E1E1E;" version="1.1" viewBox="0 0 698 683" width="698px" zoomAndPan="magnify"><defs/><g><rect fill="#1E1E1E" height="683" style="stroke:none;stroke-width:1;" width="698" x="0" y="0"/><!--class Mapper--><g class="entity" data-entity="Mapper" data-source-line="17" data-uid="ent0002" id="entity_Mapper"><rect fill="#2D2D2D" height="66.6211" rx="2.5" ry="2.5" style="stroke:#8A8A8A;stroke-width:0.5;" width="270.3301" x="67.5" y="10"/><ellipse cx="132.9951" cy="26" fill="#B4A7E5" rx="11" ry="11" style="stroke:#181818;stroke-width:1;"/><path d="M133.9482,22.6406 L133.9482,29.2969 L135.667,29.2969 Q136.2764,29.2969 136.542,29.5313 Q136.8076,29.7656 136.8076,30.1563 Q136.8076,30.5313 136.542,30.7656 Q136.2764,31 135.667,31 L130.5264,31 Q129.917,31 129.6514,30.7656 Q129.3857,30.5313 129.3857,30.1406 Q129.3857,29.7656 129.6514,29.5313 Q129.917,29.2969 130.5264,29.2969 L132.2451,29.2969 L132.2451,22.6406 L130.5264,22.6406 Q129.917,22.6406 129.6514,22.4063 Q129.3857,22.1719 129.3857,21.7813 Q129.3857,21.4063 129.6514,21.1719 Q129.917,20.9375 130.5264,20.9375 L135.667,20.9375 Q136.2764,20.9375 136.542,21.1719 Q136.8076,21.4063 136.8076,21.7813 Q136.8076,22.1719 136.542,22.4063 Q136.2764,22.6406 135.667,22.6406 L133.9482,22.6406 Z " fill="#000000"/><text fill="#E0E0E0" font-family="sans-serif" font-size="14" font-style="italic" lengthAdjust="spacing" textLength="47.4688" x="153.4951" y="31.7969">Mapper</text><rect fill="#2D2D2D" height="17.9609" style="stroke:#8A8A8A;stroke-width:1;stroke-dasharray:2,2;" width="81.3711" x="259.459" y="7"/><text fill="#000000" font-family="sans-serif" font-size="12" font-style="italic" lengthAdjust="spacing" textLength="79.3711" x="260.459" y="20.9492">Source, Target</text><line style="stroke:#8A8A8A;stroke-width:0.5;" x1="68.5" x2="336.8301" y1="42" y2="42"/><line style="stroke:#8A8A8A;stroke-width:0.5;" x1="68.5" x2="336.8301" y1="50" y2="50"/><ellipse cx="78.5" cy="64.8105" fill="#84BE84" rx="3" ry="3" style="stroke:#038048;stroke-width:1;"/><text fill="#FFFFFF" font-family="sans-serif" font-size="14" lengthAdjust="spacing" textLength="244.3301" x="87.5" y="69.1074">void map(Source source, Target target)</text></g><!--class Validator--><g class="entity" data-entity="Validator" data-source-line="17" data-uid="ent0003" id="entity_Validator"><rect fill="#2D2D2D" height="66.6211" rx="2.5" ry="2.5" style="stroke:#8A8A8A;stroke-width:0.5;" width="254.0127" x="433.5" y="291.5"/><ellipse cx="500.6162" cy="307.5" fill="#B4A7E5" rx="11" ry="11" style="stroke:#181818;stroke-width:1;"/><path d="M501.5693,304.1406 L501.5693,310.7969 L503.2881,310.7969 Q503.8975,310.7969 504.1631,311.0313 Q504.4287,311.2656 504.4287,311.6563 Q504.4287,312.0313 504.1631,312.2656 Q503.8975,312.5 503.2881,312.5 L498.1475,312.5 Q497.5381,312.5 497.2725,312.2656 Q497.0068,312.0313 497.0068,311.6406 Q497.0068,311.2656 497.2725,311.0313 Q497.5381,310.7969 498.1475,310.7969 L499.8662,310.7969 L499.8662,304.1406 L498.1475,304.1406 Q497.5381,304.1406 497.2725,303.9063 Q497.0068,303.6719 497.0068,303.2813 Q497.0068,302.9063 497.2725,302.6719 Q497.5381,302.4375 498.1475,302.4375 L503.2881,302.4375 Q503.8975,302.4375 504.1631,302.6719 Q504.4287,302.9063 504.4287,303.2813 Q504.4287,303.6719 504.1631,303.9063 Q503.8975,304.1406 503.2881,304.1406 L501.5693,304.1406 Z " fill="#000000"/><text fill="#E0E0E0" font-family="sans-serif" font-size="14" font-style="italic" lengthAdjust="spacing" textLength="55.2549" x="521.1162" y="313.2969">Validator</text><rect fill="#2D2D2D" height="17.9609" style="stroke:#8A8A8A;stroke-width:1;stroke-dasharray:2,2;" width="54.0254" x="636.4873" y="288.5"/><text fill="#000000" font-family="sans-serif" font-size="12" font-style="italic" lengthAdjust="spacing" textLength="52.0254" x="637.4873" y="302.4492">Argument</text><line style="stroke:#8A8A8A;stroke-width:0.5;" x1="434.5" x2="686.5127" y1="323.5" y2="323.5"/><line style="stroke:#8A8A8A;stroke-width:0.5;" x1="434.5" x2="686.5127" y1="331.5" y2="331.5"/><ellipse cx="444.5" cy="346.3105" fill="#84BE84" rx="3" ry="3" style="stroke:#038048;stroke-width:1;"/><text fill="#FFFFFF" font-family="sans-serif" font-size="14" lengthAdjust="spacing" textLength="228.0127" x="453.5" y="350.6074">boolean isValid(Argument argument)</text></g><!--class StringNameValidator--><g class="entity" data-entity="StringNameValidator" data-source-line="19" data-uid="ent0004" id="entity_StringNameValidator"><rect fill="#2D2D2D" height="66.6211" rx="2.5" ry="2.5" style="stroke:#8A8A8A;stroke-width:0.5;" width="329.4746" x="217" y="446"/><ellipse cx="312.9014" cy="462" fill="#B4A7E5" rx="11" ry="11" style="stroke:#181818;stroke-width:1;"/><path d="M313.8545,458.6406 L313.8545,465.2969 L315.5732,465.2969 Q316.1826,465.2969 316.4482,465.5313 Q316.7139,465.7656 316.7139,466.1563 Q316.7139,466.5313 316.4482,466.7656 Q316.1826,467 315.5732,467 L310.4326,467 Q309.8232,467 309.5576,466.7656 Q309.292,466.5313 309.292,466.1406 Q309.292,465.7656 309.5576,465.5313 Q309.8232,465.2969 310.4326,465.2969 L312.1514,465.2969 L312.1514,458.6406 L310.4326,458.6406 Q309.8232,458.6406 309.5576,458.4063 Q309.292,458.1719 309.292,457.7813 Q309.292,457.4063 309.5576,457.1719 Q309.8232,456.9375 310.4326,456.9375 L315.5732,456.9375 Q316.1826,456.9375 316.4482,457.1719 Q316.7139,457.4063 316.7139,457.7813 Q316.7139,458.1719 316.4482,458.4063 Q316.1826,458.6406 315.5732,458.6406 L313.8545,458.6406 Z " fill="#000000"/><text fill="#E0E0E0" font-family="sans-serif" font-size="14" font-style="italic" lengthAdjust="spacing" textLength="129.1719" x="333.4014" y="467.7969">StringNameValidator</text><line style="stroke:#8A8A8A;stroke-width:0.5;" x1="218" x2="545.4746" y1="478" y2="478"/><line style="stroke:#8A8A8A;stroke-width:0.5;" x1="218" x2="545.4746" y1="486" y2="486"/><ellipse cx="228" cy="500.8105" fill="#84BE84" rx="3" ry="3" style="stroke:#038048;stroke-width:1;"/><text fill="#FFFFFF" font-family="sans-serif" font-size="14" lengthAdjust="spacing" textLength="303.4746" x="237" y="505.1074">boolean isValid(HasStringName hasStringName)</text></g><!--class NonBlankStringNameValidator--><g class="entity" data-entity="NonBlankStringNameValidator" data-source-line="23" data-uid="ent0006" id="entity_NonBlankStringNameValidator"><rect fill="#2D2D2D" height="103.8633" rx="2.5" ry="2.5" style="stroke:#8A8A8A;stroke-width:0.5;" width="408.8535" x="177" y="573"/><ellipse cx="282.2393" cy="589" fill="#ADD1B2" rx="11" ry="11" style="stroke:#181818;stroke-width:1;"/><path d="M285.0049,584.875 Q285.1611,584.6563 285.3486,584.5469 Q285.5361,584.4375 285.7549,584.4375 Q286.1299,584.4375 286.3643,584.7031 Q286.5986,584.9531 286.5986,585.5625 L286.5986,587.0156 Q286.5986,587.625 286.3643,587.8906 Q286.1299,588.1563 285.7549,588.1563 Q285.4111,588.1563 285.208,587.9531 Q285.0049,587.7656 284.8955,587.25 Q284.8486,586.8906 284.6611,586.7031 Q284.333,586.3281 283.7236,586.1094 Q283.1143,585.8906 282.4893,585.8906 Q281.7236,585.8906 281.083,586.2188 Q280.458,586.5469 279.958,587.2969 Q279.4736,588.0469 279.4736,589.0781 L279.4736,590.1719 Q279.4736,591.4063 280.3643,592.2344 Q281.2549,593.0469 282.8486,593.0469 Q283.7861,593.0469 284.4424,592.7969 Q284.833,592.6406 285.2549,592.2031 Q285.5205,591.9375 285.6611,591.8594 Q285.8174,591.7813 286.0205,591.7813 Q286.3486,591.7813 286.5986,592.0469 Q286.8643,592.2969 286.8643,592.6406 Q286.8643,592.9844 286.5205,593.3906 Q286.0205,593.9688 285.2236,594.2969 Q284.1455,594.75 282.8486,594.75 Q281.333,594.75 280.1299,594.125 Q279.1455,593.625 278.458,592.5625 Q277.7705,591.4844 277.7705,590.2031 L277.7705,589.0469 Q277.7705,587.7188 278.3799,586.5781 Q279.0049,585.4219 280.0986,584.8125 Q281.1924,584.1875 282.4268,584.1875 Q283.1611,584.1875 283.8018,584.3594 Q284.458,584.5156 285.0049,584.875 Z " fill="#000000"/><text fill="#E0E0E0" font-family="sans-serif" font-size="14" lengthAdjust="spacing" textLength="189.875" x="302.7393" y="594.7969">NonBlankStringNameValidator</text><line style="stroke:#8A8A8A;stroke-width:0.5;" x1="178" x2="584.8535" y1="605" y2="605"/><line style="stroke:#8A8A8A;stroke-width:0.5;" x1="178" x2="584.8535" y1="613" y2="613"/><ellipse cx="188" cy="627.8105" fill="#84BE84" rx="3" ry="3" style="stroke:#038048;stroke-width:1;"/><text fill="#FFFFFF" font-family="sans-serif" font-size="14" lengthAdjust="spacing" textLength="308.1367" x="197" y="632.1074">boolean isValid((HasStringName hasStringName)</text><rect fill="#F24D5C" height="6" style="stroke:#C82930;stroke-width:1;" width="6" x="185" y="643.4316"/><text fill="#FFFFFF" font-family="sans-serif" font-size="14" lengthAdjust="spacing" textLength="382.8535" x="197" y="650.7285">boolean hasNonBlankName(HasStringName hasStringName)</text><rect fill="#F24D5C" height="6" style="stroke:#C82930;stroke-width:1;" width="6" x="185" y="662.0527"/><text fill="#FFFFFF" font-family="sans-serif" font-size="14" lengthAdjust="spacing" textLength="357.1709" x="197" y="669.3496">boolean hasBlankName(HasStringName hasStringName)</text></g><!--class StringNameMapper--><g class="entity" data-entity="StringNameMapper" data-source-line="20" data-uid="ent0008" id="entity_StringNameMapper"><rect fill="#2D2D2D" height="66.6211" rx="2.5" ry="2.5" style="stroke:#8A8A8A;stroke-width:0.5;" width="383.1367" x="11" y="137"/><ellipse cx="137.6255" cy="153" fill="#B4A7E5" rx="11" ry="11" style="stroke:#181818;stroke-width:1;"/><path d="M138.5786,149.6406 L138.5786,156.2969 L140.2974,156.2969 Q140.9067,156.2969 141.1724,156.5313 Q141.438,156.7656 141.438,157.1563 Q141.438,157.5313 141.1724,157.7656 Q140.9067,158 140.2974,158 L135.1567,158 Q134.5474,158 134.2817,157.7656 Q134.0161,157.5313 134.0161,157.1406 Q134.0161,156.7656 134.2817,156.5313 Q134.5474,156.2969 135.1567,156.2969 L136.8755,156.2969 L136.8755,149.6406 L135.1567,149.6406 Q134.5474,149.6406 134.2817,149.4063 Q134.0161,149.1719 134.0161,148.7813 Q134.0161,148.4063 134.2817,148.1719 Q134.5474,147.9375 135.1567,147.9375 L140.2974,147.9375 Q140.9067,147.9375 141.1724,148.1719 Q141.438,148.4063 141.438,148.7813 Q141.438,149.1719 141.1724,149.4063 Q140.9067,149.6406 140.2974,149.6406 L138.5786,149.6406 Z " fill="#000000"/><text fill="#E0E0E0" font-family="sans-serif" font-size="14" font-style="italic" lengthAdjust="spacing" textLength="121.3857" x="158.1255" y="158.7969">StringNameMapper</text><line style="stroke:#8A8A8A;stroke-width:0.5;" x1="12" x2="393.1367" y1="169" y2="169"/><line style="stroke:#8A8A8A;stroke-width:0.5;" x1="12" x2="393.1367" y1="177" y2="177"/><ellipse cx="22" cy="191.8105" fill="#84BE84" rx="3" ry="3" style="stroke:#038048;stroke-width:1;"/><text fill="#FFFFFF" font-family="sans-serif" font-size="14" lengthAdjust="spacing" textLength="357.1367" x="31" y="196.1074">void map(HasStringName source, HasStringName target)</text></g><!--class ValidatedStringNameMapper--><g class="entity" data-entity="ValidatedStringNameMapper" data-source-line="24" data-uid="ent0010" id="entity_ValidatedStringNameMapper"><rect fill="#2D2D2D" height="122.4844" rx="2.5" ry="2.5" style="stroke:#8A8A8A;stroke-width:0.5;" width="390.9092" x="7" y="264"/><ellipse cx="108.3223" cy="280" fill="#ADD1B2" rx="11" ry="11" style="stroke:#181818;stroke-width:1;"/><path d="M111.0879,275.875 Q111.2441,275.6563 111.4316,275.5469 Q111.6191,275.4375 111.8379,275.4375 Q112.2129,275.4375 112.4473,275.7031 Q112.6816,275.9531 112.6816,276.5625 L112.6816,278.0156 Q112.6816,278.625 112.4473,278.8906 Q112.2129,279.1563 111.8379,279.1563 Q111.4941,279.1563 111.291,278.9531 Q111.0879,278.7656 110.9785,278.25 Q110.9316,277.8906 110.7441,277.7031 Q110.416,277.3281 109.8066,277.1094 Q109.1973,276.8906 108.5723,276.8906 Q107.8066,276.8906 107.166,277.2188 Q106.541,277.5469 106.041,278.2969 Q105.5566,279.0469 105.5566,280.0781 L105.5566,281.1719 Q105.5566,282.4063 106.4473,283.2344 Q107.3379,284.0469 108.9316,284.0469 Q109.8691,284.0469 110.5254,283.7969 Q110.916,283.6406 111.3379,283.2031 Q111.6035,282.9375 111.7441,282.8594 Q111.9004,282.7813 112.1035,282.7813 Q112.4316,282.7813 112.6816,283.0469 Q112.9473,283.2969 112.9473,283.6406 Q112.9473,283.9844 112.6035,284.3906 Q112.1035,284.9688 111.3066,285.2969 Q110.2285,285.75 108.9316,285.75 Q107.416,285.75 106.2129,285.125 Q105.2285,284.625 104.541,283.5625 Q103.8535,282.4844 103.8535,281.2031 L103.8535,280.0469 Q103.8535,278.7188 104.4629,277.5781 Q105.0879,276.4219 106.1816,275.8125 Q107.2754,275.1875 108.5098,275.1875 Q109.2441,275.1875 109.8848,275.3594 Q110.541,275.5156 111.0879,275.875 Z " fill="#000000"/><text fill="#E0E0E0" font-family="sans-serif" font-size="14" lengthAdjust="spacing" textLength="179.7646" x="128.8223" y="285.7969">ValidatedStringNameMapper</text><line style="stroke:#8A8A8A;stroke-width:0.5;" x1="8" x2="396.9092" y1="296" y2="296"/><rect fill="none" height="6" style="stroke:#C82930;stroke-width:1;" width="6" x="15" y="307.8105"/><text fill="#FFFFFF" font-family="sans-serif" font-size="14" lengthAdjust="spacing" textLength="259.8955" x="27" y="315.1074">StringNameValidator stringNameValidator</text><line style="stroke:#8A8A8A;stroke-width:0.5;" x1="8" x2="396.9092" y1="322.6211" y2="322.6211"/><ellipse cx="18" cy="337.4316" fill="#84BE84" rx="3" ry="3" style="stroke:#038048;stroke-width:1;"/><text fill="#FFFFFF" font-family="sans-serif" font-size="14" lengthAdjust="spacing" textLength="357.1367" x="27" y="341.7285">void map(HasStringName source, HasStringName target)</text><rect fill="#F24D5C" height="6" style="stroke:#C82930;stroke-width:1;" width="6" x="15" y="353.0527"/><text fill="#FFFFFF" font-family="sans-serif" font-size="14" lengthAdjust="spacing" textLength="303.4746" x="27" y="360.3496">boolean isValid(HasStringName hasStringName)</text><rect fill="#F24D5C" height="6" style="stroke:#C82930;stroke-width:1;" width="6" x="15" y="371.6738"/><text fill="#FFFFFF" font-family="sans-serif" font-size="14" lengthAdjust="spacing" textLength="364.9092" x="27" y="378.9707">mapName(HasStringName source, HasStringName target)</text></g><!--reverse link Validator to StringNameValidator--><g class="link" data-entity-1="Validator" data-entity-2="StringNameValidator" data-source-line="20" data-uid="lnk5" id="link_Validator_StringNameValidator"><path d="M489.75,376.52 C489.75,402.35 489.75,419.9 489.75,445.77" fill="none" id="Validator-backto-StringNameValidator" style="stroke:#B0C4DE;stroke-width:1;"/><polygon fill="none" points="489.75,358.52,483.75,376.52,495.75,376.52,489.75,358.52" style="stroke:#B0C4DE;stroke-width:1;"/></g><!--reverse link StringNameValidator to NonBlankStringNameValidator--><g class="link" data-entity-1="StringNameValidator" data-entity-2="NonBlankStringNameValidator" data-source-line="24" data-uid="lnk7" id="link_StringNameValidator_NonBlankStringNameValidator"><path d="M381.5,531.25 C381.5,548.96 381.5,553.05 381.5,572.91" fill="none" id="StringNameValidator-backto-NonBlankStringNameValidator" style="stroke:#B0C4DE;stroke-width:1;stroke-dasharray:7,7;"/><polygon fill="none" points="381.5,513.25,375.5,531.25,387.5,531.25,381.5,513.25" style="stroke:#B0C4DE;stroke-width:1;"/></g><!--reverse link Mapper to StringNameMapper--><g class="link" data-entity-1="Mapper" data-entity-2="StringNameMapper" data-source-line="21" data-uid="lnk9" id="link_Mapper_StringNameMapper"><path d="M202.5,95.2 C202.5,113.57 202.5,118.25 202.5,136.64" fill="none" id="Mapper-backto-StringNameMapper" style="stroke:#B0C4DE;stroke-width:1;"/><polygon fill="none" points="202.5,77.2,196.5,95.2,208.5,95.2,202.5,77.2" style="stroke:#B0C4DE;stroke-width:1;"/></g><!--reverse link StringNameMapper to ValidatedStringNameMapper--><g class="link" data-entity-1="StringNameMapper" data-entity-2="ValidatedStringNameMapper" data-source-line="25" data-uid="lnk11" id="link_StringNameMapper_ValidatedStringNameMapper"><path d="M202.5,222.02 C202.5,239.51 202.5,243.45 202.5,263.82" fill="none" id="StringNameMapper-backto-ValidatedStringNameMapper" style="stroke:#B0C4DE;stroke-width:1;stroke-dasharray:7,7;"/><polygon fill="none" points="202.5,204.02,196.5,222.02,208.5,222.02,202.5,204.02" style="stroke:#B0C4DE;stroke-width:1;"/></g><!--link ValidatedStringNameMapper to StringNameValidator--><g class="link" data-entity-1="ValidatedStringNameMapper" data-entity-2="StringNameValidator" data-source-line="32" data-uid="lnk12" id="link_ValidatedStringNameMapper_StringNameValidator"><path codeLine="32" d="M307.5,386.06 C307.5,406.47 307.5,422.46 307.5,439.98" fill="none" id="ValidatedStringNameMapper-to-StringNameValidator" style="stroke:#B0C4DE;stroke-width:1;"/><polygon fill="#B0C4DE" points="307.5,445.98,311.5,436.98,307.5,440.98,303.5,436.98,307.5,445.98" style="stroke:#B0C4DE;stroke-width:1;"/></g><!--SRC=[fL5DJyCm3BtdLnXn0S7GG1mu8NLVuZ8k8EvUuxNHqZXAKWP2_7UQjR1i7PeGiHGfpy_lsOvVAMFHOGLQ6Ghlbe1TA5dudyG2yrNXk3Pop9eTd5vFOoGCIKkiTNYcjv1fLPYAJ82ykSWbhCmvNdSIe-7uTf9A-18bhvKfO8dQKvAPiGbTrMnpabokqVkZX2m4fnPreAFCEJMZopvjdmSV0c2qlvURIOoOOIV9TUXT5gD14zdfC8Ru5E94cLpNac2ErfAxidMbj-1JqxWf7h6Y5zHAOk2E8LHSxXBpbDDAGFCBPAJl53Uj0bp0Aoi95Tgp1_JR6l1SkvmkOHSDw0eAvx73Tk3EdsJFJbLMK_nnts-bzHuScWDy7nF_QRLrMZ1hGWFARrJt5ChqzLtI6CNdN_Vo-qO6W_j34ty1]--></g></svg>