<svg xmlns="http://www.w3.org/2000/svg" contentStyleType="text/css" data-diagram-type="SEQUENCE" height="1046.5px"
     preserveAspectRatio="none" style="width:1465px;height:1046px;background:#0E1117;" version="1.1"
     viewBox="0 0 1465 1046" width="1465.3333px" zoomAndPan="magnify"><title>Create Recipe - Sequence</title><defs/><g><rect fill="#0E1117" height="1046.5" style="stroke:none;stroke-width:1.1667;" width="1465.3333" x="0" y="0"/><text fill="#C9D1D9" font-family="sans-serif" font-size="16.3333" font-weight="bold" lengthAdjust="spacing" textLength="200.6177" x="633.7808" y="35.1253">Create Recipe - Sequence</text><rect fill="none" height="682.7438" rx="7" ry="7" style="stroke:#30363D;stroke-width:1.75;" width="1446.0127" x="11.6667" y="244.7949"/><rect fill="none" height="507.9831" rx="7" ry="7" style="stroke:#30363D;stroke-width:1.75;" width="1422.6794" x="23.3333" y="355.4801"/><g><title>User</title><rect fill="#000000" fill-opacity="0.00000" height="802.4229" width="9.3333" x="62.4167" y="144.9492"/><line style="stroke:#30363D;stroke-width:0.5833;stroke-dasharray:5.8333,5.8333;" x1="66.5" x2="66.5" y1="144.9492" y2="947.3721"/></g><g><title>Application</title><rect fill="#000000" fill-opacity="0.00000" height="802.4229" width="9.3333" x="349.2583" y="144.9492"/><line style="stroke:#30363D;stroke-width:0.5833;stroke-dasharray:5.8333,5.8333;" x1="353.6396" x2="353.6396" y1="144.9492" y2="947.3721"/></g><g><title>RecipeRestControllerV2</title><rect fill="#000000" fill-opacity="0.00000" height="802.4229" width="9.3333" x="542.1155" y="144.9492"/><line style="stroke:#30363D;stroke-width:0.5833;stroke-dasharray:5.8333,5.8333;" x1="546.6779" x2="546.6779" y1="144.9492" y2="947.3721"/></g><g><title>RecipeServiceV2</title><rect fill="#000000" fill-opacity="0.00000" height="802.4229" width="9.3333" x="711.0281" y="144.9492"/><line style="stroke:#30363D;stroke-width:0.5833;stroke-dasharray:5.8333,5.8333;" x1="714.8864" x2="714.8864" y1="144.9492" y2="947.3721"/></g><g><title>RecipesDatabase</title><rect fill="#000000" fill-opacity="0.00000" height="802.4229" width="9.3333" x="856.8005" y="144.9492"/><line style="stroke:#30363D;stroke-width:0.5833;stroke-dasharray:5.8333,5.8333;" x1="861.1698" x2="861.1698" y1="144.9492" y2="947.3721"/></g><g><title>RecipeRestControllerV2LoggingAspect</title><rect fill="#000000" fill-opacity="0.00000" height="802.4229" width="9.3333" x="1081.5678" y="144.9492"/><line style="stroke:#30363D;stroke-width:0.5833;stroke-dasharray:5.8333,5.8333;" x1="1085.7645" x2="1085.7645" y1="144.9492" y2="947.3721"/></g><g><title>GlobalExceptionsHandler</title><rect fill="#000000" fill-opacity="0.00000" height="802.4229" width="9.3333" x="1334.0252" y="144.9492"/><line style="stroke:#30363D;stroke-width:0.5833;stroke-dasharray:5.8333,5.8333;" x1="1337.5378" x2="1337.5378" y1="144.9492" y2="947.3721"/></g><g class="participant participant-head" data-participant="User"><text fill="#C9D1D9" font-family="sans-serif" font-size="16.3333" lengthAdjust="spacing" textLength="34.485" x="46.3408" y="140.8499">User</text><ellipse cx="67.0833" cy="71.3079" fill="#0D1117" rx="18.6667" ry="18.6667" style="stroke:#58A6FF;stroke-width:0.5833;"/><path d="M67.0833,94.6413 C71.75,94.6413 75.25,94.6413 79.9167,89.9746 C89.25,89.9746 98.5833,99.3079 98.5833,108.6413 L98.5833,113.3079 C98.5833,117.9746 93.9167,122.6413 89.25,122.6413 L44.9167,122.6413 C40.25,122.6413 35.5833,117.9746 35.5833,113.3079 L35.5833,108.6413 C35.5833,99.3079 44.9167,89.9746 54.25,89.9746 C58.9167,94.6413 62.4167,94.6413 67.0833,94.6413" fill="#0D1117" style="stroke:#58A6FF;stroke-width:0.5833;"/></g><g class="participant participant-tail" data-participant="User"><text fill="#C9D1D9" font-family="sans-serif" font-size="16.3333" lengthAdjust="spacing" textLength="34.485" x="46.3408" y="963.8307">User</text><ellipse cx="67.0833" cy="987.18" fill="#0D1117" rx="18.6667" ry="18.6667" style="stroke:#58A6FF;stroke-width:0.5833;"/><path d="M67.0833,1010.5133 C71.75,1010.5133 75.25,1010.5133 79.9167,1005.8467 C89.25,1005.8467 98.5833,1015.18 98.5833,1024.5133 L98.5833,1029.18 C98.5833,1033.8467 93.9167,1038.5133 89.25,1038.5133 L44.9167,1038.5133 C40.25,1038.5133 35.5833,1033.8467 35.5833,1029.18 L35.5833,1024.5133 C35.5833,1015.18 44.9167,1005.8467 54.25,1005.8467 C58.9167,1010.5133 62.4167,1010.5133 67.0833,1010.5133" fill="#0D1117" style="stroke:#58A6FF;stroke-width:0.5833;"/></g><g class="participant participant-head" data-participant="Application"><text fill="#C9D1D9" font-family="sans-serif" font-size="16.3333" lengthAdjust="spacing" textLength="79.9041" x="310.4729" y="140.8499">Application</text><path d="M330.0083,90.5579 L330.0083,118.5579 M330.0083,104.5579 L349.8416,104.5579" fill="none" style="stroke:#58A6FF;stroke-width:0.5833;"/><ellipse cx="363.8416" cy="104.5579" fill="#0D1117" rx="14" ry="14" style="stroke:#58A6FF;stroke-width:0.5833;"/></g><g class="participant participant-tail" data-participant="Application"><text fill="#C9D1D9" font-family="sans-serif" font-size="16.3333" lengthAdjust="spacing" textLength="79.9041" x="310.4729" y="963.8307">Application</text><path d="M330.0083,972.5967 L330.0083,1000.5967 M330.0083,986.5967 L349.8416,986.5967" fill="none" style="stroke:#58A6FF;stroke-width:0.5833;"/><ellipse cx="363.8416" cy="986.5967" fill="#0D1117" rx="14" ry="14" style="stroke:#58A6FF;stroke-width:0.5833;"/></g><g class="participant participant-head" data-participant="RecipeRestControllerV2"><text fill="#C9D1D9" font-family="sans-serif" font-size="16.3333" lengthAdjust="spacing" textLength="175.2085" x="455.6779" y="140.8499">RecipeRestControllerV2</text><ellipse cx="546.7821" cy="104.5579" fill="#0D1117" rx="14" ry="14" style="stroke:#58A6FF;stroke-width:0.5833;"/><polygon fill="#58A6FF" points="542.1155,90.5579,549.1155,84.7246,546.7821,90.5579,549.1155,96.3913,542.1155,90.5579" style="stroke:#58A6FF;stroke-width:1.1667;"/></g><g class="participant participant-tail" data-participant="RecipeRestControllerV2"><text fill="#C9D1D9" font-family="sans-serif" font-size="16.3333" lengthAdjust="spacing" textLength="175.2085" x="455.6779" y="963.8307">RecipeRestControllerV2</text><ellipse cx="546.7821" cy="986.5967" fill="#0D1117" rx="14" ry="14" style="stroke:#58A6FF;stroke-width:0.5833;"/><polygon fill="#58A6FF" points="542.1155,972.5967,549.1155,966.7633,546.7821,972.5967,549.1155,978.43,542.1155,972.5967" style="stroke:#58A6FF;stroke-width:1.1667;"/></g><g class="participant participant-head" data-participant="RecipeServiceV2"><text fill="#C9D1D9" font-family="sans-serif" font-size="16.3333" lengthAdjust="spacing" textLength="125.2834" x="649.5531" y="140.8499">RecipeServiceV2</text><ellipse cx="715.6947" cy="104.5579" fill="#0D1117" rx="14" ry="14" style="stroke:#58A6FF;stroke-width:0.5833;"/><polygon fill="#58A6FF" points="711.0281,90.5579,718.0281,84.7246,715.6947,90.5579,718.0281,96.3913,711.0281,90.5579" style="stroke:#58A6FF;stroke-width:1.1667;"/></g><g class="participant participant-tail" data-participant="RecipeServiceV2"><text fill="#C9D1D9" font-family="sans-serif" font-size="16.3333" lengthAdjust="spacing" textLength="125.2834" x="649.5531" y="963.8307">RecipeServiceV2</text><ellipse cx="715.6947" cy="986.5967" fill="#0D1117" rx="14" ry="14" style="stroke:#58A6FF;stroke-width:0.5833;"/><polygon fill="#58A6FF" points="711.0281,972.5967,718.0281,966.7633,715.6947,972.5967,718.0281,978.43,711.0281,972.5967" style="stroke:#58A6FF;stroke-width:1.1667;"/></g><g class="participant participant-head" data-participant="RecipesDatabase"><text fill="#C9D1D9" font-family="sans-serif" font-size="16.3333" lengthAdjust="spacing" textLength="128.9281" x="793.5031" y="140.8499">RecipesDatabase</text><path d="M840.4671,81.2246 C840.4671,69.5579 861.4671,69.5579 861.4671,69.5579 C861.4671,69.5579 882.4671,69.5579 882.4671,81.2246 L882.4671,111.5579 C882.4671,123.2246 861.4671,123.2246 861.4671,123.2246 C861.4671,123.2246 840.4671,123.2246 840.4671,111.5579 L840.4671,81.2246" fill="#0D1117" style="stroke:#58A6FF;stroke-width:0.5833;"/><path d="M840.4671,81.2246 C840.4671,92.8913 861.4671,92.8913 861.4671,92.8913 C861.4671,92.8913 882.4671,92.8913 882.4671,81.2246" fill="none" style="stroke:#58A6FF;stroke-width:0.5833;"/></g><g class="participant participant-tail" data-participant="RecipesDatabase"><text fill="#C9D1D9" font-family="sans-serif" font-size="16.3333" lengthAdjust="spacing" textLength="128.9281" x="793.5031" y="963.8307">RecipesDatabase</text><path d="M840.4671,979.5967 C840.4671,967.93 861.4671,967.93 861.4671,967.93 C861.4671,967.93 882.4671,967.93 882.4671,979.5967 L882.4671,1009.93 C882.4671,1021.5967 861.4671,1021.5967 861.4671,1021.5967 C861.4671,1021.5967 840.4671,1021.5967 840.4671,1009.93 L840.4671,979.5967" fill="#0D1117" style="stroke:#58A6FF;stroke-width:0.5833;"/><path d="M840.4671,979.5967 C840.4671,991.2633 861.4671,991.2633 861.4671,991.2633 C861.4671,991.2633 882.4671,991.2633 882.4671,979.5967" fill="none" style="stroke:#58A6FF;stroke-width:0.5833;"/></g><g class="participant participant-head" data-participant="RecipeRestControllerV2LoggingAspect"><text fill="#C9D1D9" font-family="sans-serif" font-size="16.3333" lengthAdjust="spacing" textLength="283.2733" x="941.0978" y="140.8499">RecipeRestControllerV2LoggingAspect</text><ellipse cx="1086.2345" cy="104.5579" fill="#0D1117" rx="14" ry="14" style="stroke:#58A6FF;stroke-width:0.5833;"/><polygon fill="#58A6FF" points="1081.5678,90.5579,1088.5678,84.7246,1086.2345,90.5579,1088.5678,96.3913,1081.5678,90.5579" style="stroke:#58A6FF;stroke-width:1.1667;"/></g><g class="participant participant-tail" data-participant="RecipeRestControllerV2LoggingAspect"><text fill="#C9D1D9" font-family="sans-serif" font-size="16.3333" lengthAdjust="spacing" textLength="283.2733" x="941.0978" y="963.8307">RecipeRestControllerV2LoggingAspect</text><ellipse cx="1086.2345" cy="986.5967" fill="#0D1117" rx="14" ry="14" style="stroke:#58A6FF;stroke-width:0.5833;"/><polygon fill="#58A6FF" points="1081.5678,972.5967,1088.5678,966.7633,1086.2345,972.5967,1088.5678,978.43,1081.5678,972.5967" style="stroke:#58A6FF;stroke-width:1.1667;"/></g><g class="participant participant-head" data-participant="GlobalExceptionsHandler"><text fill="#C9D1D9" font-family="sans-serif" font-size="16.3333" lengthAdjust="spacing" textLength="184.3083" x="1243.0378" y="140.8499">GlobalExceptionsHandler</text><ellipse cx="1338.6919" cy="104.5579" fill="#0D1117" rx="14" ry="14" style="stroke:#58A6FF;stroke-width:0.5833;"/><polygon fill="#58A6FF" points="1334.0252,90.5579,1341.0252,84.7246,1338.6919,90.5579,1341.0252,96.3913,1334.0252,90.5579" style="stroke:#58A6FF;stroke-width:1.1667;"/></g><g class="participant participant-tail" data-participant="GlobalExceptionsHandler"><text fill="#C9D1D9" font-family="sans-serif" font-size="16.3333" lengthAdjust="spacing" textLength="184.3083" x="1243.0378" y="963.8307">GlobalExceptionsHandler</text><ellipse cx="1338.6919" cy="986.5967" fill="#0D1117" rx="14" ry="14" style="stroke:#58A6FF;stroke-width:0.5833;"/><polygon fill="#58A6FF" points="1334.0252,972.5967,1341.0252,966.7633,1338.6919,972.5967,1341.0252,978.43,1334.0252,972.5967" style="stroke:#58A6FF;stroke-width:1.1667;"/></g><g class="message" data-participant-1="User" data-participant-2="Application"><polygon fill="#58A6FF" points="339.925,179.1221,351.5916,183.7887,339.925,188.4554,344.5916,183.7887" style="stroke:#58A6FF;stroke-width:1.1667;"/><line style="stroke:#58A6FF;stroke-width:1.1667;" x1="67.0833" x2="346.925" y1="183.7887" y2="183.7887"/><text fill="#C9D1D9" font-family="sans-serif" font-size="15.1667" font-weight="bold" lengthAdjust="spacing" textLength="8.435" x="81.0833" y="177.6489">1</text><text fill="#C9D1D9" font-family="sans-serif" font-size="15.1667" lengthAdjust="spacing" textLength="245.74" x="94.185" y="177.6489">POST /api/v2/recipes + requestBody</text></g><path d="M359.3333,205.9554 L359.3333,223.4554 A7,7 0 0 0 366.3333,230.4554 L500.5,230.4554 A7,7 0 0 0 507.5,223.4554 L507.5,210.6221 L495.8333,198.9554 L366.3333,198.9554 A7,7 0 0 0 359.3333,205.9554" fill="#1C2330" style="stroke:#E7E7E7;stroke-width:0.5833;"/><path d="M495.8333,198.9554 L495.8333,207.1221 A3.5,3.5 0 0 0 499.3333,210.6221 L507.5,210.6221 L495.8333,198.9554" fill="#1C2330" style="stroke:#E7E7E7;stroke-width:0.5833;"/><text fill="#C9D1D9" font-family="sans-serif" font-size="15.1667" lengthAdjust="spacing" textLength="123.9401" x="366.3333" y="221.1551">authenticates user</text><path d="M18.6667,244.7949 L81.866,244.7949 L81.866,255.6344 L70.1994,267.3011 L11.6667,267.3011 L11.6667,251.7949 A7,7 0 0 1 18.6667,244.7949" fill="#161B22" style="stroke:#30363D;stroke-width:1.75;"/><rect fill="none" height="682.7438" rx="7" ry="7" style="stroke:#30363D;stroke-width:1.75;" width="1446.0127" x="11.6667" y="244.7949"/><text fill="#C9D1D9" font-family="sans-serif" font-size="15.1667" font-weight="bold" lengthAdjust="spacing" textLength="17.6994" x="29.1667" y="262.328">alt</text><text fill="#C9D1D9" font-family="sans-serif" font-size="12.8333" font-weight="bold" lengthAdjust="spacing" textLength="124.0785" x="99.366" y="260.9767">[User authenticated]</text><g class="message" data-participant-1="Application" data-participant-2="RecipeRestControllerV2"><polygon fill="#58A6FF" points="532.7821,289.8073,544.4488,294.474,532.7821,299.1406,537.4488,294.474" style="stroke:#58A6FF;stroke-width:1.1667;"/><line style="stroke:#58A6FF;stroke-width:1.1667;" x1="353.925" x2="539.7821" y1="294.474" y2="294.474"/><text fill="#C9D1D9" font-family="sans-serif" font-size="15.1667" font-weight="bold" lengthAdjust="spacing" textLength="8.435" x="387.3054" y="288.3341">2</text><text fill="#C9D1D9" font-family="sans-serif" font-size="15.1667" lengthAdjust="spacing" textLength="112.9946" x="400.4071" y="288.3341">delegate request</text></g><path d="M551.8333,316.6406 L551.8333,334.1406 A7,7 0 0 0 558.8333,341.1406 L719.8333,341.1406 A7,7 0 0 0 726.8333,334.1406 L726.8333,321.3073 L715.1667,309.6406 L558.8333,309.6406 A7,7 0 0 0 551.8333,316.6406" fill="#1C2330" style="stroke:#E7E7E7;stroke-width:0.5833;"/><path d="M715.1667,309.6406 L715.1667,317.8073 A3.5,3.5 0 0 0 718.6667,321.3073 L726.8333,321.3073 L715.1667,309.6406" fill="#1C2330" style="stroke:#E7E7E7;stroke-width:0.5833;"/><text fill="#C9D1D9" font-family="sans-serif" font-size="15.1667" lengthAdjust="spacing" textLength="150.9261" x="558.8333" y="331.8403">Validates request data</text><path d="M30.3333,355.4801 L93.5327,355.4801 L93.5327,366.3197 L81.866,377.9863 L23.3333,377.9863 L23.3333,362.4801 A7,7 0 0 1 30.3333,355.4801" fill="#161B22" style="stroke:#30363D;stroke-width:1.75;"/><rect fill="none" height="507.9831" rx="7" ry="7" style="stroke:#30363D;stroke-width:1.75;" width="1422.6794" x="23.3333" y="355.4801"/><text fill="#C9D1D9" font-family="sans-serif" font-size="15.1667" font-weight="bold" lengthAdjust="spacing" textLength="17.6994" x="40.8333" y="373.0132">alt</text><text fill="#C9D1D9" font-family="sans-serif" font-size="12.8333" font-weight="bold" lengthAdjust="spacing" textLength="92.6845" x="111.0327" y="371.6619">[Validation OK]</text><path d="M1092,390.8197 L1092,408.3197 A7,7 0 0 0 1099,415.3197 L1166.6667,415.3197 A7,7 0 0 0 1173.6667,408.3197 L1173.6667,395.4863 L1162,383.8197 L1099,383.8197 A7,7 0 0 0 1092,390.8197" fill="#1C2330" style="stroke:#E7E7E7;stroke-width:0.5833;"/><path d="M1162,383.8197 L1162,391.9863 A3.5,3.5 0 0 0 1165.5,395.4863 L1173.6667,395.4863 L1162,383.8197" fill="#1C2330" style="stroke:#E7E7E7;stroke-width:0.5833;"/><text fill="#C9D1D9" font-family="sans-serif" font-size="15.1667" lengthAdjust="spacing" textLength="58.171" x="1099" y="406.0194">log entry</text><g class="message" data-participant-1="RecipeRestControllerV2" data-participant-2="RecipeServiceV2"><polygon fill="#58A6FF" points="701.6947,443.9987,713.3614,448.6654,701.6947,453.332,706.3614,448.6654" style="stroke:#58A6FF;stroke-width:1.1667;"/><line style="stroke:#58A6FF;stroke-width:1.1667;" x1="546.7821" x2="708.6947" y1="448.6654" y2="448.6654"/><text fill="#C9D1D9" font-family="sans-serif" font-size="15.1667" font-weight="bold" lengthAdjust="spacing" textLength="8.435" x="568.1903" y="442.5256">3</text><text fill="#C9D1D9" font-family="sans-serif" font-size="15.1667" lengthAdjust="spacing" textLength="112.9946" x="581.292" y="442.5256">delegate request</text></g><g class="message" data-participant-1="RecipeServiceV2" data-participant-2="RecipesDatabase"><polygon fill="#58A6FF" points="847.4671,480.5049,859.1338,485.1715,847.4671,489.8382,852.1338,485.1715" style="stroke:#58A6FF;stroke-width:1.1667;"/><line style="stroke:#58A6FF;stroke-width:1.1667;" x1="715.6947" x2="854.4671" y1="485.1715" y2="485.1715"/><text fill="#C9D1D9" font-family="sans-serif" font-size="15.1667" font-weight="bold" lengthAdjust="spacing" textLength="8.435" x="743.2507" y="479.0317">4</text><text fill="#C9D1D9" font-family="sans-serif" font-size="15.1667" lengthAdjust="spacing" textLength="77.5588" x="756.3523" y="479.0317">save recipe</text></g><path d="M1092,507.3382 L1092,524.8382 A7,7 0 0 0 1099,531.8382 L1195.8333,531.8382 A7,7 0 0 0 1202.8333,524.8382 L1202.8333,512.0049 L1191.1667,500.3382 L1099,500.3382 A7,7 0 0 0 1092,507.3382" fill="#1C2330" style="stroke:#E7E7E7;stroke-width:0.5833;"/><path d="M1191.1667,500.3382 L1191.1667,508.5049 A3.5,3.5 0 0 0 1194.6667,512.0049 L1202.8333,512.0049 L1191.1667,500.3382" fill="#1C2330" style="stroke:#E7E7E7;stroke-width:0.5833;"/><text fill="#C9D1D9" font-family="sans-serif" font-size="15.1667" lengthAdjust="spacing" textLength="86.8455" x="1099" y="522.5379">log response</text><g class="message" data-participant-1="RecipeRestControllerV2" data-participant-2="Application"><polygon fill="#58A6FF" points="366.7583,560.5173,355.0916,565.1839,366.7583,569.8506,362.0916,565.1839" style="stroke:#58A6FF;stroke-width:1.1667;"/><line style="stroke:#58A6FF;stroke-width:1.1667;" x1="359.7583" x2="545.6155" y1="565.1839" y2="565.1839"/><text fill="#C9D1D9" font-family="sans-serif" font-size="15.1667" font-weight="bold" lengthAdjust="spacing" textLength="8.435" x="382.6843" y="559.0441">5</text><text fill="#C9D1D9" font-family="sans-serif" font-size="15.1667" lengthAdjust="spacing" textLength="122.2368" x="395.786" y="559.0441">Http created (201)</text></g><g class="message" data-participant-1="Application" data-participant-2="User"><polygon fill="#58A6FF" points="79.9167,597.0234,68.25,601.6901,79.9167,606.3568,75.25,601.6901" style="stroke:#58A6FF;stroke-width:1.1667;"/><line style="stroke:#58A6FF;stroke-width:1.1667;" x1="72.9167" x2="352.7583" y1="601.6901" y2="601.6901"/><text fill="#C9D1D9" font-family="sans-serif" font-size="15.1667" font-weight="bold" lengthAdjust="spacing" textLength="8.435" x="142.8349" y="595.5503">6</text><text fill="#C9D1D9" font-family="sans-serif" font-size="15.1667" lengthAdjust="spacing" textLength="122.2368" x="155.9366" y="595.5503">Http created (201)</text></g><line style="stroke:#30363D;stroke-width:1.1667;stroke-dasharray:2.3333,2.3333;" x1="23.3333" x2="1446.0127" y1="612.1901" y2="612.1901"/><text fill="#C9D1D9" font-family="sans-serif" font-size="12.8333" font-weight="bold" lengthAdjust="spacing" textLength="106.9528" x="29.1667" y="626.0386">[Validation failed]</text><g class="message" data-participant-1="RecipeRestControllerV2" data-participant-2="RecipeRestControllerV2LoggingAspect"><polygon fill="#58A6FF" points="1072.2345,652.9323,1083.9011,657.599,1072.2345,662.2656,1076.9011,657.599" style="stroke:#58A6FF;stroke-width:1.1667;"/><line style="stroke:#58A6FF;stroke-width:1.1667;" x1="546.7821" x2="1079.2345" y1="657.599" y2="657.599"/><text fill="#C9D1D9" font-family="sans-serif" font-size="15.1667" font-weight="bold" lengthAdjust="spacing" textLength="8.435" x="756.8445" y="651.4591">7</text><text fill="#C9D1D9" font-family="sans-serif" font-size="15.1667" lengthAdjust="spacing" textLength="106.2259" x="769.9462" y="651.4591">throw exception</text></g><path d="M1092,679.7656 L1092,697.2656 A7,7 0 0 0 1099,704.2656 L1165.5,704.2656 A7,7 0 0 0 1172.5,697.2656 L1172.5,684.4323 L1160.8333,672.7656 L1099,672.7656 A7,7 0 0 0 1092,679.7656" fill="#1C2330" style="stroke:#E7E7E7;stroke-width:0.5833;"/><path d="M1160.8333,672.7656 L1160.8333,680.9323 A3.5,3.5 0 0 0 1164.3333,684.4323 L1172.5,684.4323 L1160.8333,672.7656" fill="#1C2330" style="stroke:#E7E7E7;stroke-width:0.5833;"/><text fill="#C9D1D9" font-family="sans-serif" font-size="15.1667" lengthAdjust="spacing" textLength="56.4751" x="1099" y="694.9653">log error</text><g class="message" data-participant-1="RecipeRestControllerV2LoggingAspect" data-participant-2="GlobalExceptionsHandler"><polygon fill="#58A6FF" points="1324.6919,732.9447,1336.3586,737.6113,1324.6919,742.278,1329.3586,737.6113" style="stroke:#58A6FF;stroke-width:1.1667;"/><line style="stroke:#58A6FF;stroke-width:1.1667;" x1="1086.2345" x2="1331.6919" y1="737.6113" y2="737.6113"/><text fill="#C9D1D9" font-family="sans-serif" font-size="15.1667" font-weight="bold" lengthAdjust="spacing" textLength="8.435" x="1143.5313" y="731.4715">8</text><text fill="#C9D1D9" font-family="sans-serif" font-size="15.1667" lengthAdjust="spacing" textLength="124.7621" x="1156.6329" y="731.4715">re-throw exception</text></g><path d="M1344,759.778 L1344,777.278 A7,7 0 0 0 1351,784.278 L1417.5,784.278 A7,7 0 0 0 1424.5,777.278 L1424.5,764.4447 L1412.8333,752.778 L1351,752.778 A7,7 0 0 0 1344,759.778" fill="#1C2330" style="stroke:#E7E7E7;stroke-width:0.5833;"/><path d="M1412.8333,752.778 L1412.8333,760.9447 A3.5,3.5 0 0 0 1416.3333,764.4447 L1424.5,764.4447 L1412.8333,752.778" fill="#1C2330" style="stroke:#E7E7E7;stroke-width:0.5833;"/><text fill="#C9D1D9" font-family="sans-serif" font-size="15.1667" lengthAdjust="spacing" textLength="56.4751" x="1351" y="774.9777">log error</text><g class="message" data-participant-1="RecipeRestControllerV2" data-participant-2="Application"><polygon fill="#58A6FF" points="366.7583,812.957,355.0916,817.6237,366.7583,822.2904,362.0916,817.6237" style="stroke:#58A6FF;stroke-width:1.1667;"/><line style="stroke:#58A6FF;stroke-width:1.1667;" x1="359.7583" x2="545.6155" y1="817.6237" y2="817.6237"/><text fill="#C9D1D9" font-family="sans-serif" font-size="15.1667" font-weight="bold" lengthAdjust="spacing" textLength="8.435" x="367.925" y="811.4839">9</text><text fill="#C9D1D9" font-family="sans-serif" font-size="15.1667" lengthAdjust="spacing" textLength="151.7555" x="381.0266" y="811.4839">Http bad request (400)</text></g><g class="message" data-participant-1="Application" data-participant-2="User"><polygon fill="#58A6FF" points="79.9167,849.4632,68.25,854.1299,79.9167,858.7965,75.25,854.1299" style="stroke:#58A6FF;stroke-width:1.1667;"/><line style="stroke:#58A6FF;stroke-width:1.1667;" x1="72.9167" x2="352.7583" y1="854.1299" y2="854.1299"/><text fill="#C9D1D9" font-family="sans-serif" font-size="15.1667" font-weight="bold" lengthAdjust="spacing" textLength="16.87" x="123.8581" y="847.9901">10</text><text fill="#C9D1D9" font-family="sans-serif" font-size="15.1667" lengthAdjust="spacing" textLength="151.7555" x="145.3947" y="847.9901">Http bad request (400)</text></g><line style="stroke:#30363D;stroke-width:1.1667;stroke-dasharray:2.3333,2.3333;" x1="11.6667" x2="1457.6794" y1="872.7965" y2="872.7965"/><text fill="#C9D1D9" font-family="sans-serif" font-size="12.8333" font-weight="bold" lengthAdjust="spacing" textLength="147.5959" x="17.5" y="886.645">[User not authenticated]</text><g class="message" data-participant-1="Application" data-participant-2="User"><polygon fill="#58A6FF" points="79.9167,913.5387,68.25,918.2054,79.9167,922.8721,75.25,918.2054" style="stroke:#58A6FF;stroke-width:1.1667;"/><line style="stroke:#58A6FF;stroke-width:1.1667;" x1="72.9167" x2="352.7583" y1="918.2054" y2="918.2054"/><text fill="#C9D1D9" font-family="sans-serif" font-size="15.1667" font-weight="bold" lengthAdjust="spacing" textLength="16.87" x="132.2893" y="912.0656">11</text><text fill="#C9D1D9" font-family="sans-serif" font-size="15.1667" lengthAdjust="spacing" textLength="134.893" x="153.826" y="912.0656">Http forbidden (403)</text></g><!--SRC=[fLLTJzim57tFhxZINa0Jeab76NkOr0yAqjX0bF7knBUfXR4psmMgQVzzrsaQd9BGQclVSiyvFkTUVpZX9CBO87C8jvY90k48PlXhYIh3A69BfzNoCKKJHVP1g88PzWWfonvoevUAZxNK1ZxqpkCuFWqGTi6uVXOgXpcJ5eDAISkqKMWWJe82BmJ4WrwuZgrymEy8u3jQot8SIf4ho50vyWGmD4O_LovEFWy7qobzl19pl18AHzfmD5Mrt-iF-fEmkfqY7iIZ9F6YcTEcGQwbrwKt-ITbVe2HVcbVr1SwM7_2o7T-85EjN8KPdqtYoLa0sCpcWfIAjhMwe1rfN-4_j6lfoJZfztlRg73PyrF_tq842QOd_X_KonREt8es7dj6gn_3xJ71ELjAzxO30MRa_J6pQfjG2wgZxG5qJAiPBT_Nsu1soqsOOocp-BvUZTejUCEC4tGscNBlQuR0Bbdcsmy_BHsVj6eH38j2YemveLMKhNDMjy4jMbSbbsZkawto3CsJo92-yofELR2RU3lqhdIUqpKnj0LchiPUI9qoUVwIOU4zsKkckFHtaBSDHrz3m_05RgvdTt3C2d7yb1oRzVhm4OpV_vPQnbUHeaq9HkGB1tg-HQTBRa7tYVz0lANlJCIaAtlKA78woD0WavNsN2JBKMBkxzNAHqbk-kZatZCfU6cd8eFlRrHAU6jLtLku_hQtSAFPj8hKEL0sioeL_A_3K1spddTNlbUHLsZDhZS5iIrxyap_kIR-QmQ3jg1TWdl4Q4x-qha2ilBrut2GzEB3Mc9hokLUw2GWlN7XJEPCo6gtxDFLNHdTWXuvmCrn-Ez-8JsQPeUx9e-iTfn9aZHuj9_3RebzNNMCC6MyFYW7dtgzlSROJaB5etAS9PJyxxu1Gj6vDgdW79MNx1z69FSN]--></g></svg>