<svg xmlns="http://www.w3.org/2000/svg" contentStyleType="text/css" data-diagram-type="SEQUENCE" height="981.1667px"
     preserveAspectRatio="none" style="width:1554px;height:981px;background:#0E1117;" version="1.1"
     viewBox="0 0 1554 981" width="1554px" zoomAndPan="magnify"><title>Get recipe by id - Sequence</title><defs/><g><rect fill="#0E1117" height="981.1667" style="stroke:none;stroke-width:1.1667;" width="1554" x="0" y="0"/><text fill="#C9D1D9" font-family="sans-serif" font-size="16.3333" font-weight="bold" lengthAdjust="spacing" textLength="214.2155" x="671.5941" y="35.1253">Get recipe by id - Sequence</text><rect fill="none" height="500.9831" rx="7" ry="7" style="stroke:#30363D;stroke-width:1.75;" width="1535.2371" x="11.6667" y="361.3135"/><g><title>User</title><rect fill="#000000" fill-opacity="0.00000" height="737.1807" width="9.3333" x="50.75" y="144.9492"/><line style="stroke:#30363D;stroke-width:0.5833;stroke-dasharray:5.8333,5.8333;" x1="54.8333" x2="54.8333" y1="144.9492" y2="882.1299"/></g><g><title>Application</title><rect fill="#000000" fill-opacity="0.00000" height="737.1807" width="9.3333" x="346.8783" y="144.9492"/><line style="stroke:#30363D;stroke-width:0.5833;stroke-dasharray:5.8333,5.8333;" x1="351.2595" x2="351.2595" y1="144.9492" y2="882.1299"/></g><g><title>RecipeRestControllerV2</title><rect fill="#000000" fill-opacity="0.00000" height="737.1807" width="9.3333" x="643.0065" y="144.9492"/><line style="stroke:#30363D;stroke-width:0.5833;stroke-dasharray:5.8333,5.8333;" x1="647.5689" x2="647.5689" y1="144.9492" y2="882.1299"/></g><g><title>RecipeServiceV2</title><rect fill="#000000" fill-opacity="0.00000" height="737.1807" width="9.3333" x="811.9191" y="144.9492"/><line style="stroke:#30363D;stroke-width:0.5833;stroke-dasharray:5.8333,5.8333;" x1="815.7774" x2="815.7774" y1="144.9492" y2="882.1299"/></g><g><title>RecipesDatabase</title><rect fill="#000000" fill-opacity="0.00000" height="737.1807" width="9.3333" x="957.6915" y="144.9492"/><line style="stroke:#30363D;stroke-width:0.5833;stroke-dasharray:5.8333,5.8333;" x1="962.0608" x2="962.0608" y1="144.9492" y2="882.1299"/></g><g><title>RecipeRestControllerV2LoggingAspect</title><rect fill="#000000" fill-opacity="0.00000" height="737.1807" width="9.3333" x="1182.4588" y="144.9492"/><line style="stroke:#30363D;stroke-width:0.5833;stroke-dasharray:5.8333,5.8333;" x1="1186.6555" x2="1186.6555" y1="144.9492" y2="882.1299"/></g><g><title>GlobalExceptionsHandler</title><rect fill="#000000" fill-opacity="0.00000" height="737.1807" width="9.3333" x="1434.9163" y="144.9492"/><line style="stroke:#30363D;stroke-width:0.5833;stroke-dasharray:5.8333,5.8333;" x1="1438.4288" x2="1438.4288" y1="144.9492" y2="882.1299"/></g><g class="participant participant-head" data-participant="User"><text fill="#C9D1D9" font-family="sans-serif" font-size="16.3333" lengthAdjust="spacing" textLength="34.485" x="34.6742" y="140.8499">User</text><ellipse cx="55.4167" cy="71.3079" fill="#0D1117" rx="18.6667" ry="18.6667" style="stroke:#58A6FF;stroke-width:0.5833;"/><path d="M55.4167,94.6413 C60.0833,94.6413 63.5833,94.6413 68.25,89.9746 C77.5833,89.9746 86.9167,99.3079 86.9167,108.6413 L86.9167,113.3079 C86.9167,117.9746 82.25,122.6413 77.5833,122.6413 L33.25,122.6413 C28.5833,122.6413 23.9167,117.9746 23.9167,113.3079 L23.9167,108.6413 C23.9167,99.3079 33.25,89.9746 42.5833,89.9746 C47.25,94.6413 50.75,94.6413 55.4167,94.6413" fill="#0D1117" style="stroke:#58A6FF;stroke-width:0.5833;"/></g><g class="participant participant-tail" data-participant="User"><text fill="#C9D1D9" font-family="sans-serif" font-size="16.3333" lengthAdjust="spacing" textLength="34.485" x="34.6742" y="898.5885">User</text><ellipse cx="55.4167" cy="921.9378" fill="#0D1117" rx="18.6667" ry="18.6667" style="stroke:#58A6FF;stroke-width:0.5833;"/><path d="M55.4167,945.2712 C60.0833,945.2712 63.5833,945.2712 68.25,940.6045 C77.5833,940.6045 86.9167,949.9378 86.9167,959.2712 L86.9167,963.9378 C86.9167,968.6045 82.25,973.2712 77.5833,973.2712 L33.25,973.2712 C28.5833,973.2712 23.9167,968.6045 23.9167,963.9378 L23.9167,959.2712 C23.9167,949.9378 33.25,940.6045 42.5833,940.6045 C47.25,945.2712 50.75,945.2712 55.4167,945.2712" fill="#0D1117" style="stroke:#58A6FF;stroke-width:0.5833;"/></g><g class="participant participant-head" data-participant="Application"><text fill="#C9D1D9" font-family="sans-serif" font-size="16.3333" lengthAdjust="spacing" textLength="79.9041" x="308.0929" y="140.8499">Application</text><path d="M327.6283,90.5579 L327.6283,118.5579 M327.6283,104.5579 L347.4616,104.5579" fill="none" style="stroke:#58A6FF;stroke-width:0.5833;"/><ellipse cx="361.4616" cy="104.5579" fill="#0D1117" rx="14" ry="14" style="stroke:#58A6FF;stroke-width:0.5833;"/></g><g class="participant participant-tail" data-participant="Application"><text fill="#C9D1D9" font-family="sans-serif" font-size="16.3333" lengthAdjust="spacing" textLength="79.9041" x="308.0929" y="898.5885">Application</text><path d="M327.6283,907.3545 L327.6283,935.3545 M327.6283,921.3545 L347.4616,921.3545" fill="none" style="stroke:#58A6FF;stroke-width:0.5833;"/><ellipse cx="361.4616" cy="921.3545" fill="#0D1117" rx="14" ry="14" style="stroke:#58A6FF;stroke-width:0.5833;"/></g><g class="participant participant-head" data-participant="RecipeRestControllerV2"><text fill="#C9D1D9" font-family="sans-serif" font-size="16.3333" lengthAdjust="spacing" textLength="175.2085" x="556.5689" y="140.8499">RecipeRestControllerV2</text><ellipse cx="647.6732" cy="104.5579" fill="#0D1117" rx="14" ry="14" style="stroke:#58A6FF;stroke-width:0.5833;"/><polygon fill="#58A6FF" points="643.0065,90.5579,650.0065,84.7246,647.6732,90.5579,650.0065,96.3913,643.0065,90.5579" style="stroke:#58A6FF;stroke-width:1.1667;"/></g><g class="participant participant-tail" data-participant="RecipeRestControllerV2"><text fill="#C9D1D9" font-family="sans-serif" font-size="16.3333" lengthAdjust="spacing" textLength="175.2085" x="556.5689" y="898.5885">RecipeRestControllerV2</text><ellipse cx="647.6732" cy="921.3545" fill="#0D1117" rx="14" ry="14" style="stroke:#58A6FF;stroke-width:0.5833;"/><polygon fill="#58A6FF" points="643.0065,907.3545,650.0065,901.5212,647.6732,907.3545,650.0065,913.1878,643.0065,907.3545" style="stroke:#58A6FF;stroke-width:1.1667;"/></g><g class="participant participant-head" data-participant="RecipeServiceV2"><text fill="#C9D1D9" font-family="sans-serif" font-size="16.3333" lengthAdjust="spacing" textLength="125.2834" x="750.4441" y="140.8499">RecipeServiceV2</text><ellipse cx="816.5858" cy="104.5579" fill="#0D1117" rx="14" ry="14" style="stroke:#58A6FF;stroke-width:0.5833;"/><polygon fill="#58A6FF" points="811.9191,90.5579,818.9191,84.7246,816.5858,90.5579,818.9191,96.3913,811.9191,90.5579" style="stroke:#58A6FF;stroke-width:1.1667;"/></g><g class="participant participant-tail" data-participant="RecipeServiceV2"><text fill="#C9D1D9" font-family="sans-serif" font-size="16.3333" lengthAdjust="spacing" textLength="125.2834" x="750.4441" y="898.5885">RecipeServiceV2</text><ellipse cx="816.5858" cy="921.3545" fill="#0D1117" rx="14" ry="14" style="stroke:#58A6FF;stroke-width:0.5833;"/><polygon fill="#58A6FF" points="811.9191,907.3545,818.9191,901.5212,816.5858,907.3545,818.9191,913.1878,811.9191,907.3545" style="stroke:#58A6FF;stroke-width:1.1667;"/></g><g class="participant participant-head" data-participant="RecipesDatabase"><text fill="#C9D1D9" font-family="sans-serif" font-size="16.3333" lengthAdjust="spacing" textLength="128.9281" x="894.3941" y="140.8499">RecipesDatabase</text><path d="M941.3582,81.2246 C941.3582,69.5579 962.3582,69.5579 962.3582,69.5579 C962.3582,69.5579 983.3582,69.5579 983.3582,81.2246 L983.3582,111.5579 C983.3582,123.2246 962.3582,123.2246 962.3582,123.2246 C962.3582,123.2246 941.3582,123.2246 941.3582,111.5579 L941.3582,81.2246" fill="#0D1117" style="stroke:#58A6FF;stroke-width:0.5833;"/><path d="M941.3582,81.2246 C941.3582,92.8913 962.3582,92.8913 962.3582,92.8913 C962.3582,92.8913 983.3582,92.8913 983.3582,81.2246" fill="none" style="stroke:#58A6FF;stroke-width:0.5833;"/></g><g class="participant participant-tail" data-participant="RecipesDatabase"><text fill="#C9D1D9" font-family="sans-serif" font-size="16.3333" lengthAdjust="spacing" textLength="128.9281" x="894.3941" y="898.5885">RecipesDatabase</text><path d="M941.3582,914.3545 C941.3582,902.6878 962.3582,902.6878 962.3582,902.6878 C962.3582,902.6878 983.3582,902.6878 983.3582,914.3545 L983.3582,944.6878 C983.3582,956.3545 962.3582,956.3545 962.3582,956.3545 C962.3582,956.3545 941.3582,956.3545 941.3582,944.6878 L941.3582,914.3545" fill="#0D1117" style="stroke:#58A6FF;stroke-width:0.5833;"/><path d="M941.3582,914.3545 C941.3582,926.0212 962.3582,926.0212 962.3582,926.0212 C962.3582,926.0212 983.3582,926.0212 983.3582,914.3545" fill="none" style="stroke:#58A6FF;stroke-width:0.5833;"/></g><g class="participant participant-head" data-participant="RecipeRestControllerV2LoggingAspect"><text fill="#C9D1D9" font-family="sans-serif" font-size="16.3333" lengthAdjust="spacing" textLength="283.2733" x="1041.9889" y="140.8499">RecipeRestControllerV2LoggingAspect</text><ellipse cx="1187.1255" cy="104.5579" fill="#0D1117" rx="14" ry="14" style="stroke:#58A6FF;stroke-width:0.5833;"/><polygon fill="#58A6FF" points="1182.4588,90.5579,1189.4588,84.7246,1187.1255,90.5579,1189.4588,96.3913,1182.4588,90.5579" style="stroke:#58A6FF;stroke-width:1.1667;"/></g><g class="participant participant-tail" data-participant="RecipeRestControllerV2LoggingAspect"><text fill="#C9D1D9" font-family="sans-serif" font-size="16.3333" lengthAdjust="spacing" textLength="283.2733" x="1041.9889" y="898.5885">RecipeRestControllerV2LoggingAspect</text><ellipse cx="1187.1255" cy="921.3545" fill="#0D1117" rx="14" ry="14" style="stroke:#58A6FF;stroke-width:0.5833;"/><polygon fill="#58A6FF" points="1182.4588,907.3545,1189.4588,901.5212,1187.1255,907.3545,1189.4588,913.1878,1182.4588,907.3545" style="stroke:#58A6FF;stroke-width:1.1667;"/></g><g class="participant participant-head" data-participant="GlobalExceptionsHandler"><text fill="#C9D1D9" font-family="sans-serif" font-size="16.3333" lengthAdjust="spacing" textLength="184.3083" x="1343.9288" y="140.8499">GlobalExceptionsHandler</text><ellipse cx="1439.5829" cy="104.5579" fill="#0D1117" rx="14" ry="14" style="stroke:#58A6FF;stroke-width:0.5833;"/><polygon fill="#58A6FF" points="1434.9163,90.5579,1441.9163,84.7246,1439.5829,90.5579,1441.9163,96.3913,1434.9163,90.5579" style="stroke:#58A6FF;stroke-width:1.1667;"/></g><g class="participant participant-tail" data-participant="GlobalExceptionsHandler"><text fill="#C9D1D9" font-family="sans-serif" font-size="16.3333" lengthAdjust="spacing" textLength="184.3083" x="1343.9288" y="898.5885">GlobalExceptionsHandler</text><ellipse cx="1439.5829" cy="921.3545" fill="#0D1117" rx="14" ry="14" style="stroke:#58A6FF;stroke-width:0.5833;"/><polygon fill="#58A6FF" points="1434.9163,907.3545,1441.9163,901.5212,1439.5829,907.3545,1441.9163,913.1878,1434.9163,907.3545" style="stroke:#58A6FF;stroke-width:1.1667;"/></g><g class="message" data-participant-1="User" data-participant-2="Application"><polygon fill="#58A6FF" points="337.5449,179.1221,349.2116,183.7887,337.5449,188.4554,342.2116,183.7887" style="stroke:#58A6FF;stroke-width:1.1667;"/><line style="stroke:#58A6FF;stroke-width:1.1667;" x1="55.4167" x2="344.5449" y1="183.7887" y2="183.7887"/><text fill="#C9D1D9" font-family="sans-serif" font-size="15.1667" font-weight="bold" lengthAdjust="spacing" textLength="8.435" x="117.2642" y="177.6489">1</text><text fill="#C9D1D9" font-family="sans-serif" font-size="15.1667" lengthAdjust="spacing" textLength="159.3315" x="130.3659" y="177.6489">GET /api/v2/recipes/{id}</text></g><g class="message" data-participant-1="Application" data-participant-2="RecipeRestControllerV2"><polygon fill="#58A6FF" points="633.6732,215.6283,645.3398,220.2949,633.6732,224.9616,638.3398,220.2949" style="stroke:#58A6FF;stroke-width:1.1667;"/><line style="stroke:#58A6FF;stroke-width:1.1667;" x1="351.5449" x2="640.6732" y1="220.2949" y2="220.2949"/><text fill="#C9D1D9" font-family="sans-serif" font-size="15.1667" font-weight="bold" lengthAdjust="spacing" textLength="8.435" x="436.5609" y="214.1551">2</text><text fill="#C9D1D9" font-family="sans-serif" font-size="15.1667" lengthAdjust="spacing" textLength="112.9946" x="449.6626" y="214.1551">delegate request</text></g><path d="M1192.3333,242.4616 L1192.3333,259.9616 A7,7 0 0 0 1199.3333,266.9616 L1267,266.9616 A7,7 0 0 0 1274,259.9616 L1274,247.1283 L1262.3333,235.4616 L1199.3333,235.4616 A7,7 0 0 0 1192.3333,242.4616" fill="#1C2330" style="stroke:#E7E7E7;stroke-width:0.5833;"/><path d="M1262.3333,235.4616 L1262.3333,243.6283 A3.5,3.5 0 0 0 1265.8333,247.1283 L1274,247.1283 L1262.3333,235.4616" fill="#1C2330" style="stroke:#E7E7E7;stroke-width:0.5833;"/><text fill="#C9D1D9" font-family="sans-serif" font-size="15.1667" lengthAdjust="spacing" textLength="58.171" x="1199.3333" y="257.6613">log entry</text><g class="message" data-participant-1="RecipeRestControllerV2" data-participant-2="RecipeServiceV2"><polygon fill="#58A6FF" points="802.5858,295.6406,814.2524,300.3073,802.5858,304.974,807.2524,300.3073" style="stroke:#58A6FF;stroke-width:1.1667;"/><line style="stroke:#58A6FF;stroke-width:1.1667;" x1="647.6732" x2="809.5858" y1="300.3073" y2="300.3073"/><text fill="#C9D1D9" font-family="sans-serif" font-size="15.1667" font-weight="bold" lengthAdjust="spacing" textLength="8.435" x="669.0813" y="294.1675">3</text><text fill="#C9D1D9" font-family="sans-serif" font-size="15.1667" lengthAdjust="spacing" textLength="112.9946" x="682.183" y="294.1675">delegate request</text></g><path d="M821.3333,322.474 L821.3333,339.974 A7,7 0 0 0 828.3333,346.974 L914.6667,346.974 A7,7 0 0 0 921.6667,339.974 L921.6667,327.1406 L910,315.474 L828.3333,315.474 A7,7 0 0 0 821.3333,322.474" fill="#1C2330" style="stroke:#E7E7E7;stroke-width:0.5833;"/><path d="M910,315.474 L910,323.6406 A3.5,3.5 0 0 0 913.5,327.1406 L921.6667,327.1406 L910,315.474" fill="#1C2330" style="stroke:#E7E7E7;stroke-width:0.5833;"/><text fill="#C9D1D9" font-family="sans-serif" font-size="15.1667" lengthAdjust="spacing" textLength="75.8778" x="828.3333" y="337.6737">validates id</text><path d="M18.6667,361.3135 L81.866,361.3135 L81.866,372.153 L70.1994,383.8197 L11.6667,383.8197 L11.6667,368.3135 A7,7 0 0 1 18.6667,361.3135" fill="#161B22" style="stroke:#30363D;stroke-width:1.75;"/><rect fill="none" height="500.9831" rx="7" ry="7" style="stroke:#30363D;stroke-width:1.75;" width="1535.2371" x="11.6667" y="361.3135"/><text fill="#C9D1D9" font-family="sans-serif" font-size="15.1667" font-weight="bold" lengthAdjust="spacing" textLength="17.6994" x="29.1667" y="378.8465">alt</text><text fill="#C9D1D9" font-family="sans-serif" font-size="12.8333" font-weight="bold" lengthAdjust="spacing" textLength="59.9056" x="99.366" y="377.4953">[id exists]</text><g class="message" data-participant-1="RecipeServiceV2" data-participant-2="RecipesDatabase"><polygon fill="#58A6FF" points="948.3582,406.3258,960.0248,410.9925,948.3582,415.6592,953.0248,410.9925" style="stroke:#58A6FF;stroke-width:1.1667;"/><line style="stroke:#58A6FF;stroke-width:1.1667;" x1="816.5858" x2="955.3582" y1="410.9925" y2="410.9925"/><text fill="#C9D1D9" font-family="sans-serif" font-size="15.1667" font-weight="bold" lengthAdjust="spacing" textLength="8.435" x="831.493" y="404.8527">4</text><text fill="#C9D1D9" font-family="sans-serif" font-size="15.1667" lengthAdjust="spacing" textLength="102.8564" x="844.5946" y="404.8527">get recipe by id</text></g><g class="message" data-participant-1="RecipesDatabase" data-participant-2="RecipeServiceV2"><polygon fill="#58A6FF" points="829.4191,442.832,817.7524,447.4987,829.4191,452.1654,824.7524,447.4987" style="stroke:#58A6FF;stroke-width:1.1667;"/><line style="stroke:#58A6FF;stroke-width:1.1667;" x1="822.4191" x2="961.1915" y1="447.4987" y2="447.4987"/><text fill="#C9D1D9" font-family="sans-serif" font-size="15.1667" font-weight="bold" lengthAdjust="spacing" textLength="8.435" x="862.2669" y="441.3589">5</text><text fill="#C9D1D9" font-family="sans-serif" font-size="15.1667" lengthAdjust="spacing" textLength="41.3084" x="875.3686" y="441.3589">recipe</text></g><g class="message" data-participant-1="RecipeServiceV2" data-participant-2="RecipeRestControllerV2"><polygon fill="#58A6FF" points="660.5065,479.3382,648.8398,484.0049,660.5065,488.6715,655.8398,484.0049" style="stroke:#58A6FF;stroke-width:1.1667;"/><line style="stroke:#58A6FF;stroke-width:1.1667;" x1="653.5065" x2="815.4191" y1="484.0049" y2="484.0049"/><text fill="#C9D1D9" font-family="sans-serif" font-size="15.1667" font-weight="bold" lengthAdjust="spacing" textLength="8.435" x="704.9244" y="477.8651">6</text><text fill="#C9D1D9" font-family="sans-serif" font-size="15.1667" lengthAdjust="spacing" textLength="41.3084" x="718.0261" y="477.8651">recipe</text></g><g class="message" data-participant-1="RecipeRestControllerV2" data-participant-2="Application"><polygon fill="#58A6FF" points="364.3783,515.8444,352.7116,520.5111,364.3783,525.1777,359.7116,520.5111" style="stroke:#58A6FF;stroke-width:1.1667;"/><line style="stroke:#58A6FF;stroke-width:1.1667;" x1="357.3783" x2="646.5065" y1="520.5111" y2="520.5111"/><text fill="#C9D1D9" font-family="sans-serif" font-size="15.1667" font-weight="bold" lengthAdjust="spacing" textLength="8.435" x="365.5449" y="514.3713">7</text><text fill="#C9D1D9" font-family="sans-serif" font-size="15.1667" lengthAdjust="spacing" textLength="255.0266" x="378.6466" y="514.3713">Http ok (200) + RecipeResponseBody</text></g><path d="M1192.3333,542.6777 L1192.3333,560.1777 A7,7 0 0 0 1199.3333,567.1777 L1296.1667,567.1777 A7,7 0 0 0 1303.1667,560.1777 L1303.1667,547.3444 L1291.5,535.6777 L1199.3333,535.6777 A7,7 0 0 0 1192.3333,542.6777" fill="#1C2330" style="stroke:#E7E7E7;stroke-width:0.5833;"/><path d="M1291.5,535.6777 L1291.5,543.8444 A3.5,3.5 0 0 0 1295,547.3444 L1303.1667,547.3444 L1291.5,535.6777" fill="#1C2330" style="stroke:#E7E7E7;stroke-width:0.5833;"/><text fill="#C9D1D9" font-family="sans-serif" font-size="15.1667" lengthAdjust="spacing" textLength="86.8455" x="1199.3333" y="557.8774">log response</text><g class="message" data-participant-1="Application" data-participant-2="User"><polygon fill="#58A6FF" points="68.25,595.8568,56.5833,600.5234,68.25,605.1901,63.5833,600.5234" style="stroke:#58A6FF;stroke-width:1.1667;"/><line style="stroke:#58A6FF;stroke-width:1.1667;" x1="61.25" x2="350.3783" y1="600.5234" y2="600.5234"/><text fill="#C9D1D9" font-family="sans-serif" font-size="15.1667" font-weight="bold" lengthAdjust="spacing" textLength="8.435" x="69.4167" y="594.3836">8</text><text fill="#C9D1D9" font-family="sans-serif" font-size="15.1667" lengthAdjust="spacing" textLength="255.0266" x="82.5183" y="594.3836">Http ok (200) + RecipeResponseBody</text></g><line style="stroke:#30363D;stroke-width:1.1667;stroke-dasharray:2.3333,2.3333;" x1="11.6667" x2="1546.9037" y1="611.0234" y2="611.0234"/><text fill="#C9D1D9" font-family="sans-serif" font-size="12.8333" font-weight="bold" lengthAdjust="spacing" textLength="101.451" x="17.5" y="624.8719">[id doesn't exist]</text><g class="message" data-participant-1="RecipeRestControllerV2" data-participant-2="RecipeRestControllerV2LoggingAspect"><polygon fill="#58A6FF" points="1173.1255,651.7656,1184.7922,656.4323,1173.1255,661.099,1177.7922,656.4323" style="stroke:#58A6FF;stroke-width:1.1667;"/><line style="stroke:#58A6FF;stroke-width:1.1667;" x1="647.6732" x2="1180.1255" y1="656.4323" y2="656.4323"/><text fill="#C9D1D9" font-family="sans-serif" font-size="15.1667" font-weight="bold" lengthAdjust="spacing" textLength="8.435" x="857.7356" y="650.2925">9</text><text fill="#C9D1D9" font-family="sans-serif" font-size="15.1667" lengthAdjust="spacing" textLength="106.2259" x="870.8372" y="650.2925">throw exception</text></g><path d="M1192.3333,678.599 L1192.3333,696.099 A7,7 0 0 0 1199.3333,703.099 L1265.8333,703.099 A7,7 0 0 0 1272.8333,696.099 L1272.8333,683.2656 L1261.1667,671.599 L1199.3333,671.599 A7,7 0 0 0 1192.3333,678.599" fill="#1C2330" style="stroke:#E7E7E7;stroke-width:0.5833;"/><path d="M1261.1667,671.599 L1261.1667,679.7656 A3.5,3.5 0 0 0 1264.6667,683.2656 L1272.8333,683.2656 L1261.1667,671.599" fill="#1C2330" style="stroke:#E7E7E7;stroke-width:0.5833;"/><text fill="#C9D1D9" font-family="sans-serif" font-size="15.1667" lengthAdjust="spacing" textLength="56.4751" x="1199.3333" y="693.7987">log error</text><g class="message" data-participant-1="RecipeRestControllerV2LoggingAspect" data-participant-2="GlobalExceptionsHandler"><polygon fill="#58A6FF" points="1425.5829,731.778,1437.2496,736.4447,1425.5829,741.1113,1430.2496,736.4447" style="stroke:#58A6FF;stroke-width:1.1667;"/><line style="stroke:#58A6FF;stroke-width:1.1667;" x1="1187.1255" x2="1432.5829" y1="736.4447" y2="736.4447"/><text fill="#C9D1D9" font-family="sans-serif" font-size="15.1667" font-weight="bold" lengthAdjust="spacing" textLength="16.87" x="1240.2048" y="730.3049">10</text><text fill="#C9D1D9" font-family="sans-serif" font-size="15.1667" lengthAdjust="spacing" textLength="124.7621" x="1261.7415" y="730.3049">re-throw exception</text></g><path d="M1444.3333,758.6113 L1444.3333,776.1113 A7,7 0 0 0 1451.3333,783.1113 L1517.8333,783.1113 A7,7 0 0 0 1524.8333,776.1113 L1524.8333,763.278 L1513.1667,751.6113 L1451.3333,751.6113 A7,7 0 0 0 1444.3333,758.6113" fill="#1C2330" style="stroke:#E7E7E7;stroke-width:0.5833;"/><path d="M1513.1667,751.6113 L1513.1667,759.778 A3.5,3.5 0 0 0 1516.6667,763.278 L1524.8333,763.278 L1513.1667,751.6113" fill="#1C2330" style="stroke:#E7E7E7;stroke-width:0.5833;"/><text fill="#C9D1D9" font-family="sans-serif" font-size="15.1667" lengthAdjust="spacing" textLength="56.4751" x="1451.3333" y="773.811">log error</text><g class="message" data-participant-1="RecipeRestControllerV2" data-participant-2="Application"><polygon fill="#58A6FF" points="364.3783,811.7904,352.7116,816.457,364.3783,821.1237,359.7116,816.457" style="stroke:#58A6FF;stroke-width:1.1667;"/><line style="stroke:#58A6FF;stroke-width:1.1667;" x1="357.3783" x2="646.5065" y1="816.457" y2="816.457"/><text fill="#C9D1D9" font-family="sans-serif" font-size="15.1667" font-weight="bold" lengthAdjust="spacing" textLength="16.87" x="421.3905" y="810.3172">11</text><text fill="#C9D1D9" font-family="sans-serif" font-size="15.1667" lengthAdjust="spacing" textLength="134.9004" x="442.9272" y="810.3172">Http not found (404)</text></g><g class="message" data-participant-1="Application" data-participant-2="User"><polygon fill="#58A6FF" points="68.25,848.2965,56.5833,852.9632,68.25,857.6299,63.5833,852.9632" style="stroke:#58A6FF;stroke-width:1.1667;"/><line style="stroke:#58A6FF;stroke-width:1.1667;" x1="61.25" x2="350.3783" y1="852.9632" y2="852.9632"/><text fill="#C9D1D9" font-family="sans-serif" font-size="15.1667" font-weight="bold" lengthAdjust="spacing" textLength="16.87" x="125.2623" y="846.8234">12</text><text fill="#C9D1D9" font-family="sans-serif" font-size="15.1667" lengthAdjust="spacing" textLength="134.9004" x="146.7989" y="846.8234">Http not found (404)</text></g><!--SRC=[fLLDJzj04BtxLupKGq5L5Dk1K7geb6yEjAg0zhwn9sR5iklkRe08yT-PTOopSUmaQkMJFM_UlFcqvLOWpD22neJd2FCLy1GwS8j_boWJ30Asj4ek7-UeWy0yS9appHvXpfA7JAkbJ4TAA0sVmaaKHHSUmjopL3rpcS622OEUfN1Bb9Qe8OezGvfpYFgX7yUKEk0r0FY1nh0C1u9d4XAKbZG13BHMpwMAyw-3_dHA7w_v0g-vnA7IAUhIsWjx_TxOjzQpYFhHC8uTQMALtdAkgDUcdVp7HVu0G_NI7DGPMhpU_9JlN4-cIjeICxeSH-DB3_3HcnanvKsnsg0jsMxWFvLjgCaexlN2EieFExbmJmtXPJ0zTuzdBqfuQrSqU-mPZNhqnsEC2xOKThS27cRez36zQkfG0wgbx1vqHD6q4llvFa27wSRCiZapk9-lGXqc_CMqvRIXJDhzd3wmZPQvyiDlG-ipBqi4WpmNF66MAnaawppXfhW9DsXicRb0_IUkcMzHF_44wNjQfbCQp4Tw1_YkLPRHcHYO71DROMT2pPcOl2IOEqtcYibKk1laP4FdkoyOli5iSWTTblFkKznTdpBJVUNfM-33oAjP0X6aA31Z5kaGqieO6qZbNdXsRq4jZf5E949bG6T9huAME9M2gch7XlOTdfZWL6mqTAkfcyAwcuqlt5X3TmPsFAgeLKk89AiTVSzp0slKk_RQ7wcXmZjkJTNPxkgLjJce1pY9m_0KlcpySfe8MgvqLT3zQwjqILIGr0Qb6BEZ523ztLm3KeL6VhRhHXn8ypYDzfx-RCHNxi1_vOhqbzHxL6txaCIM1ImQsJcihDtz63Kjeq0XOE4k5foSXMUdX_fMXwDCtm40]--></g></svg>