<svg xmlns="http://www.w3.org/2000/svg" contentStyleType="text/css" data-diagram-type="CLASS" height="356px"
     preserveAspectRatio="none" style="width:370px;height:356px;background:#1E1E1E;" version="1.1" viewBox="0 0 370 356"
     width="370px" zoomAndPan="magnify"><defs/><g><rect fill="#1E1E1E" height="356" style="stroke:none;stroke-width:1;" width="370" x="0" y="0"/><!--class Validator--><g class="entity" data-entity="Validator" data-source-line="17" data-uid="ent0002" id="entity_Validator"><rect fill="#2D2D2D" height="66.6211" rx="2.5" ry="2.5" style="stroke:#8A8A8A;stroke-width:0.5;" width="254.0127" x="58.5" y="10"/><ellipse cx="125.6162" cy="26" fill="#B4A7E5" rx="11" ry="11" style="stroke:#181818;stroke-width:1;"/><path d="M126.5693,22.6406 L126.5693,29.2969 L128.2881,29.2969 Q128.8975,29.2969 129.1631,29.5313 Q129.4287,29.7656 129.4287,30.1563 Q129.4287,30.5313 129.1631,30.7656 Q128.8975,31 128.2881,31 L123.1475,31 Q122.5381,31 122.2725,30.7656 Q122.0068,30.5313 122.0068,30.1406 Q122.0068,29.7656 122.2725,29.5313 Q122.5381,29.2969 123.1475,29.2969 L124.8662,29.2969 L124.8662,22.6406 L123.1475,22.6406 Q122.5381,22.6406 122.2725,22.4063 Q122.0068,22.1719 122.0068,21.7813 Q122.0068,21.4063 122.2725,21.1719 Q122.5381,20.9375 123.1475,20.9375 L128.2881,20.9375 Q128.8975,20.9375 129.1631,21.1719 Q129.4287,21.4063 129.4287,21.7813 Q129.4287,22.1719 129.1631,22.4063 Q128.8975,22.6406 128.2881,22.6406 L126.5693,22.6406 Z " fill="#000000"/><text fill="#E0E0E0" font-family="sans-serif" font-size="14" font-style="italic" lengthAdjust="spacing" textLength="55.2549" x="146.1162" y="31.7969">Validator</text><rect fill="#2D2D2D" height="17.9609" style="stroke:#8A8A8A;stroke-width:1;stroke-dasharray:2,2;" width="54.0254" x="261.4873" y="7"/><text fill="#000000" font-family="sans-serif" font-size="12" font-style="italic" lengthAdjust="spacing" textLength="52.0254" x="262.4873" y="20.9492">Argument</text><line style="stroke:#8A8A8A;stroke-width:0.5;" x1="59.5" x2="311.5127" y1="42" y2="42"/><line style="stroke:#8A8A8A;stroke-width:0.5;" x1="59.5" x2="311.5127" y1="50" y2="50"/><ellipse cx="69.5" cy="64.8105" fill="#84BE84" rx="3" ry="3" style="stroke:#038048;stroke-width:1;"/><text fill="#FFFFFF" font-family="sans-serif" font-size="14" lengthAdjust="spacing" textLength="228.0127" x="78.5" y="69.1074">boolean isValid(Argument argument)</text></g><!--class AmountValidator--><g class="entity" data-entity="AmountValidator" data-source-line="19" data-uid="ent0003" id="entity_AmountValidator"><rect fill="#2D2D2D" height="66.6211" rx="2.5" ry="2.5" style="stroke:#8A8A8A;stroke-width:0.5;" width="278.1367" x="46.5" y="137"/><ellipse cx="129.5669" cy="153" fill="#B4A7E5" rx="11" ry="11" style="stroke:#181818;stroke-width:1;"/><path d="M130.52,149.6406 L130.52,156.2969 L132.2388,156.2969 Q132.8481,156.2969 133.1138,156.5313 Q133.3794,156.7656 133.3794,157.1563 Q133.3794,157.5313 133.1138,157.7656 Q132.8481,158 132.2388,158 L127.0981,158 Q126.4888,158 126.2231,157.7656 Q125.9575,157.5313 125.9575,157.1406 Q125.9575,156.7656 126.2231,156.5313 Q126.4888,156.2969 127.0981,156.2969 L128.8169,156.2969 L128.8169,149.6406 L127.0981,149.6406 Q126.4888,149.6406 126.2231,149.4063 Q125.9575,149.1719 125.9575,148.7813 Q125.9575,148.4063 126.2231,148.1719 Q126.4888,147.9375 127.0981,147.9375 L132.2388,147.9375 Q132.8481,147.9375 133.1138,148.1719 Q133.3794,148.4063 133.3794,148.7813 Q133.3794,149.1719 133.1138,149.4063 Q132.8481,149.6406 132.2388,149.6406 L130.52,149.6406 Z " fill="#000000"/><text fill="#E0E0E0" font-family="sans-serif" font-size="14" font-style="italic" lengthAdjust="spacing" textLength="103.5029" x="150.0669" y="158.7969">AmountValidator</text><line style="stroke:#8A8A8A;stroke-width:0.5;" x1="47.5" x2="323.6367" y1="169" y2="169"/><line style="stroke:#8A8A8A;stroke-width:0.5;" x1="47.5" x2="323.6367" y1="177" y2="177"/><ellipse cx="57.5" cy="191.8105" fill="#84BE84" rx="3" ry="3" style="stroke:#038048;stroke-width:1;"/><text fill="#FFFFFF" font-family="sans-serif" font-size="14" lengthAdjust="spacing" textLength="252.1367" x="66.5" y="196.1074">boolean isValid(HasAmount hasAmount)</text></g><!--class PositiveAmountValidator--><g class="entity" data-entity="PositiveAmountValidator" data-source-line="23" data-uid="ent0005" id="entity_PositiveAmountValidator"><rect fill="#2D2D2D" height="85.2422" rx="2.5" ry="2.5" style="stroke:#8A8A8A;stroke-width:0.5;" width="356.7363" x="7" y="264"/><ellipse cx="104.8564" cy="280" fill="#ADD1B2" rx="11" ry="11" style="stroke:#181818;stroke-width:1;"/><path d="M107.6221,275.875 Q107.7783,275.6563 107.9658,275.5469 Q108.1533,275.4375 108.3721,275.4375 Q108.7471,275.4375 108.9814,275.7031 Q109.2158,275.9531 109.2158,276.5625 L109.2158,278.0156 Q109.2158,278.625 108.9814,278.8906 Q108.7471,279.1563 108.3721,279.1563 Q108.0283,279.1563 107.8252,278.9531 Q107.6221,278.7656 107.5127,278.25 Q107.4658,277.8906 107.2783,277.7031 Q106.9502,277.3281 106.3408,277.1094 Q105.7314,276.8906 105.1064,276.8906 Q104.3408,276.8906 103.7002,277.2188 Q103.0752,277.5469 102.5752,278.2969 Q102.0908,279.0469 102.0908,280.0781 L102.0908,281.1719 Q102.0908,282.4063 102.9814,283.2344 Q103.8721,284.0469 105.4658,284.0469 Q106.4033,284.0469 107.0596,283.7969 Q107.4502,283.6406 107.8721,283.2031 Q108.1377,282.9375 108.2783,282.8594 Q108.4346,282.7813 108.6377,282.7813 Q108.9658,282.7813 109.2158,283.0469 Q109.4814,283.2969 109.4814,283.6406 Q109.4814,283.9844 109.1377,284.3906 Q108.6377,284.9688 107.8408,285.2969 Q106.7627,285.75 105.4658,285.75 Q103.9502,285.75 102.7471,285.125 Q101.7627,284.625 101.0752,283.5625 Q100.3877,282.4844 100.3877,281.2031 L100.3877,280.0469 Q100.3877,278.7188 100.9971,277.5781 Q101.6221,276.4219 102.7158,275.8125 Q103.8096,275.1875 105.0439,275.1875 Q105.7783,275.1875 106.4189,275.3594 Q107.0752,275.5156 107.6221,275.875 Z " fill="#000000"/><text fill="#E0E0E0" font-family="sans-serif" font-size="14" lengthAdjust="spacing" textLength="152.5234" x="125.3564" y="285.7969">PositiveAmountValidator</text><line style="stroke:#8A8A8A;stroke-width:0.5;" x1="8" x2="362.7363" y1="296" y2="296"/><line style="stroke:#8A8A8A;stroke-width:0.5;" x1="8" x2="362.7363" y1="304" y2="304"/><ellipse cx="18" cy="318.8105" fill="#84BE84" rx="3" ry="3" style="stroke:#038048;stroke-width:1;"/><text fill="#FFFFFF" font-family="sans-serif" font-size="14" lengthAdjust="spacing" textLength="252.1367" x="27" y="323.1074">boolean isValid(HasAmount hasAmount)</text><rect fill="#F24D5C" height="6" style="stroke:#C82930;stroke-width:1;" width="6" x="15" y="334.4316"/><text fill="#FFFFFF" font-family="sans-serif" font-size="14" lengthAdjust="spacing" textLength="330.7363" x="27" y="341.7285">boolean hasPositiveAmount(HasAmount hasAmount)</text></g><!--reverse link Validator to AmountValidator--><g class="link" data-entity-1="Validator" data-entity-2="AmountValidator" data-source-line="20" data-uid="lnk4" id="link_Validator_AmountValidator"><path d="M185.5,95.2 C185.5,113.57 185.5,118.25 185.5,136.64" fill="none" id="Validator-backto-AmountValidator" style="stroke:#B0C4DE;stroke-width:1;"/><polygon fill="none" points="185.5,77.2,179.5,95.2,191.5,95.2,185.5,77.2" style="stroke:#B0C4DE;stroke-width:1;"/></g><!--reverse link AmountValidator to PositiveAmountValidator--><g class="link" data-entity-1="AmountValidator" data-entity-2="PositiveAmountValidator" data-source-line="24" data-uid="lnk6" id="link_AmountValidator_PositiveAmountValidator"><path d="M185.5,222.12 C185.5,240.13 185.5,244.51 185.5,263.75" fill="none" id="AmountValidator-backto-PositiveAmountValidator" style="stroke:#B0C4DE;stroke-width:1;"/><polygon fill="none" points="185.5,204.12,179.5,222.12,191.5,222.12,185.5,204.12" style="stroke:#B0C4DE;stroke-width:1;"/></g><!--SRC=[bL1DIyGm4BtdLunuKKHPnOFNxXTU10_YVTfCks7JJ4cchYB-TvDkhRMoB9i78SnxyzvamjQu1ZtMO8qZ-MW8sCk6LHY878jjvRbrUi6MFPpVhX962aqbjbPUw5qoQofNanCeuaL-fCgyvrrlCPyjxfTZYx11pJlZAYZH1XenQtRITwsxC-8AYo4S5MGYtkIjq57b4yMlw_-ogGu-5S1ykfUxPK9Ys6loVVKXIuZLaUrgbg2-b3ephh2j9dX5QpGA-vkchQrI9csln88WgsE633p4BPFJuRUZcmRW2d9cI-Z0X8wxUCImRuRDp-ioXUx_yCp1Y7cZG_xJ-aafINezI2FnD-t0QDy0]--></g></svg>