<svg xmlns="http://www.w3.org/2000/svg" contentStyleType="text/css" data-diagram-type="CLASS" height="665px"
     preserveAspectRatio="none" style="width:687px;height:665px;background:#1E1E1E;" version="1.1" viewBox="0 0 687 665"
     width="687px" zoomAndPan="magnify"><defs/><g><rect fill="#1E1E1E" height="665" style="stroke:none;stroke-width:1;" width="687" x="0" y="0"/><!--class Mapper--><g class="entity" data-entity="Mapper" data-source-line="17" data-uid="ent0002" id="entity_Mapper"><rect fill="#2D2D2D" height="66.6211" rx="2.5" ry="2.5" style="stroke:#8A8A8A;stroke-width:0.5;" width="270.3301" x="62" y="10"/><ellipse cx="127.4951" cy="26" fill="#B4A7E5" rx="11" ry="11" style="stroke:#181818;stroke-width:1;"/><path d="M128.4482,22.6406 L128.4482,29.2969 L130.167,29.2969 Q130.7764,29.2969 131.042,29.5313 Q131.3076,29.7656 131.3076,30.1563 Q131.3076,30.5313 131.042,30.7656 Q130.7764,31 130.167,31 L125.0264,31 Q124.417,31 124.1514,30.7656 Q123.8857,30.5313 123.8857,30.1406 Q123.8857,29.7656 124.1514,29.5313 Q124.417,29.2969 125.0264,29.2969 L126.7451,29.2969 L126.7451,22.6406 L125.0264,22.6406 Q124.417,22.6406 124.1514,22.4063 Q123.8857,22.1719 123.8857,21.7813 Q123.8857,21.4063 124.1514,21.1719 Q124.417,20.9375 125.0264,20.9375 L130.167,20.9375 Q130.7764,20.9375 131.042,21.1719 Q131.3076,21.4063 131.3076,21.7813 Q131.3076,22.1719 131.042,22.4063 Q130.7764,22.6406 130.167,22.6406 L128.4482,22.6406 Z " fill="#000000"/><text fill="#E0E0E0" font-family="sans-serif" font-size="14" font-style="italic" lengthAdjust="spacing" textLength="47.4688" x="147.9951" y="31.7969">Mapper</text><rect fill="#2D2D2D" height="17.9609" style="stroke:#8A8A8A;stroke-width:1;stroke-dasharray:2,2;" width="81.3711" x="253.959" y="7"/><text fill="#000000" font-family="sans-serif" font-size="12" font-style="italic" lengthAdjust="spacing" textLength="79.3711" x="254.959" y="20.9492">Source, Target</text><line style="stroke:#8A8A8A;stroke-width:0.5;" x1="63" x2="331.3301" y1="42" y2="42"/><line style="stroke:#8A8A8A;stroke-width:0.5;" x1="63" x2="331.3301" y1="50" y2="50"/><ellipse cx="73" cy="64.8105" fill="#84BE84" rx="3" ry="3" style="stroke:#038048;stroke-width:1;"/><text fill="#FFFFFF" font-family="sans-serif" font-size="14" lengthAdjust="spacing" textLength="244.3301" x="82" y="69.1074">void map(Source source, Target target)</text></g><!--class Validator--><g class="entity" data-entity="Validator" data-source-line="17" data-uid="ent0003" id="entity_Validator"><rect fill="#2D2D2D" height="66.6211" rx="2.5" ry="2.5" style="stroke:#8A8A8A;stroke-width:0.5;" width="254.0127" x="422" y="291.5"/><ellipse cx="489.1162" cy="307.5" fill="#B4A7E5" rx="11" ry="11" style="stroke:#181818;stroke-width:1;"/><path d="M490.0693,304.1406 L490.0693,310.7969 L491.7881,310.7969 Q492.3975,310.7969 492.6631,311.0313 Q492.9287,311.2656 492.9287,311.6563 Q492.9287,312.0313 492.6631,312.2656 Q492.3975,312.5 491.7881,312.5 L486.6475,312.5 Q486.0381,312.5 485.7725,312.2656 Q485.5068,312.0313 485.5068,311.6406 Q485.5068,311.2656 485.7725,311.0313 Q486.0381,310.7969 486.6475,310.7969 L488.3662,310.7969 L488.3662,304.1406 L486.6475,304.1406 Q486.0381,304.1406 485.7725,303.9063 Q485.5068,303.6719 485.5068,303.2813 Q485.5068,302.9063 485.7725,302.6719 Q486.0381,302.4375 486.6475,302.4375 L491.7881,302.4375 Q492.3975,302.4375 492.6631,302.6719 Q492.9287,302.9063 492.9287,303.2813 Q492.9287,303.6719 492.6631,303.9063 Q492.3975,304.1406 491.7881,304.1406 L490.0693,304.1406 Z " fill="#000000"/><text fill="#E0E0E0" font-family="sans-serif" font-size="14" font-style="italic" lengthAdjust="spacing" textLength="55.2549" x="509.6162" y="313.2969">Validator</text><rect fill="#2D2D2D" height="17.9609" style="stroke:#8A8A8A;stroke-width:1;stroke-dasharray:2,2;" width="54.0254" x="624.9873" y="288.5"/><text fill="#000000" font-family="sans-serif" font-size="12" font-style="italic" lengthAdjust="spacing" textLength="52.0254" x="625.9873" y="302.4492">Argument</text><line style="stroke:#8A8A8A;stroke-width:0.5;" x1="423" x2="675.0127" y1="323.5" y2="323.5"/><line style="stroke:#8A8A8A;stroke-width:0.5;" x1="423" x2="675.0127" y1="331.5" y2="331.5"/><ellipse cx="433" cy="346.3105" fill="#84BE84" rx="3" ry="3" style="stroke:#038048;stroke-width:1;"/><text fill="#FFFFFF" font-family="sans-serif" font-size="14" lengthAdjust="spacing" textLength="228.0127" x="442" y="350.6074">boolean isValid(Argument argument)</text></g><!--class AmountValidator--><g class="entity" data-entity="AmountValidator" data-source-line="19" data-uid="ent0004" id="entity_AmountValidator"><rect fill="#2D2D2D" height="66.6211" rx="2.5" ry="2.5" style="stroke:#8A8A8A;stroke-width:0.5;" width="278.1367" x="234" y="446"/><ellipse cx="317.0669" cy="462" fill="#B4A7E5" rx="11" ry="11" style="stroke:#181818;stroke-width:1;"/><path d="M318.02,458.6406 L318.02,465.2969 L319.7388,465.2969 Q320.3481,465.2969 320.6138,465.5313 Q320.8794,465.7656 320.8794,466.1563 Q320.8794,466.5313 320.6138,466.7656 Q320.3481,467 319.7388,467 L314.5981,467 Q313.9888,467 313.7231,466.7656 Q313.4575,466.5313 313.4575,466.1406 Q313.4575,465.7656 313.7231,465.5313 Q313.9888,465.2969 314.5981,465.2969 L316.3169,465.2969 L316.3169,458.6406 L314.5981,458.6406 Q313.9888,458.6406 313.7231,458.4063 Q313.4575,458.1719 313.4575,457.7813 Q313.4575,457.4063 313.7231,457.1719 Q313.9888,456.9375 314.5981,456.9375 L319.7388,456.9375 Q320.3481,456.9375 320.6138,457.1719 Q320.8794,457.4063 320.8794,457.7813 Q320.8794,458.1719 320.6138,458.4063 Q320.3481,458.6406 319.7388,458.6406 L318.02,458.6406 Z " fill="#000000"/><text fill="#E0E0E0" font-family="sans-serif" font-size="14" font-style="italic" lengthAdjust="spacing" textLength="103.5029" x="337.5669" y="467.7969">AmountValidator</text><line style="stroke:#8A8A8A;stroke-width:0.5;" x1="235" x2="511.1367" y1="478" y2="478"/><line style="stroke:#8A8A8A;stroke-width:0.5;" x1="235" x2="511.1367" y1="486" y2="486"/><ellipse cx="245" cy="500.8105" fill="#84BE84" rx="3" ry="3" style="stroke:#038048;stroke-width:1;"/><text fill="#FFFFFF" font-family="sans-serif" font-size="14" lengthAdjust="spacing" textLength="252.1367" x="254" y="505.1074">boolean isValid(HasAmount hasAmount)</text></g><!--class PositiveAmountValidator--><g class="entity" data-entity="PositiveAmountValidator" data-source-line="23" data-uid="ent0006" id="entity_PositiveAmountValidator"><rect fill="#2D2D2D" height="85.2422" rx="2.5" ry="2.5" style="stroke:#8A8A8A;stroke-width:0.5;" width="356.7363" x="194.5" y="573"/><ellipse cx="292.3564" cy="589" fill="#ADD1B2" rx="11" ry="11" style="stroke:#181818;stroke-width:1;"/><path d="M295.1221,584.875 Q295.2783,584.6563 295.4658,584.5469 Q295.6533,584.4375 295.8721,584.4375 Q296.2471,584.4375 296.4814,584.7031 Q296.7158,584.9531 296.7158,585.5625 L296.7158,587.0156 Q296.7158,587.625 296.4814,587.8906 Q296.2471,588.1563 295.8721,588.1563 Q295.5283,588.1563 295.3252,587.9531 Q295.1221,587.7656 295.0127,587.25 Q294.9658,586.8906 294.7783,586.7031 Q294.4502,586.3281 293.8408,586.1094 Q293.2314,585.8906 292.6064,585.8906 Q291.8408,585.8906 291.2002,586.2188 Q290.5752,586.5469 290.0752,587.2969 Q289.5908,588.0469 289.5908,589.0781 L289.5908,590.1719 Q289.5908,591.4063 290.4814,592.2344 Q291.3721,593.0469 292.9658,593.0469 Q293.9033,593.0469 294.5596,592.7969 Q294.9502,592.6406 295.3721,592.2031 Q295.6377,591.9375 295.7783,591.8594 Q295.9346,591.7813 296.1377,591.7813 Q296.4658,591.7813 296.7158,592.0469 Q296.9814,592.2969 296.9814,592.6406 Q296.9814,592.9844 296.6377,593.3906 Q296.1377,593.9688 295.3408,594.2969 Q294.2627,594.75 292.9658,594.75 Q291.4502,594.75 290.2471,594.125 Q289.2627,593.625 288.5752,592.5625 Q287.8877,591.4844 287.8877,590.2031 L287.8877,589.0469 Q287.8877,587.7188 288.4971,586.5781 Q289.1221,585.4219 290.2158,584.8125 Q291.3096,584.1875 292.5439,584.1875 Q293.2783,584.1875 293.9189,584.3594 Q294.5752,584.5156 295.1221,584.875 Z " fill="#000000"/><text fill="#E0E0E0" font-family="sans-serif" font-size="14" lengthAdjust="spacing" textLength="152.5234" x="312.8564" y="594.7969">PositiveAmountValidator</text><line style="stroke:#8A8A8A;stroke-width:0.5;" x1="195.5" x2="550.2363" y1="605" y2="605"/><line style="stroke:#8A8A8A;stroke-width:0.5;" x1="195.5" x2="550.2363" y1="613" y2="613"/><ellipse cx="205.5" cy="627.8105" fill="#84BE84" rx="3" ry="3" style="stroke:#038048;stroke-width:1;"/><text fill="#FFFFFF" font-family="sans-serif" font-size="14" lengthAdjust="spacing" textLength="252.1367" x="214.5" y="632.1074">boolean isValid(HasAmount hasAmount)</text><rect fill="#F24D5C" height="6" style="stroke:#C82930;stroke-width:1;" width="6" x="202.5" y="643.4316"/><text fill="#FFFFFF" font-family="sans-serif" font-size="14" lengthAdjust="spacing" textLength="330.7363" x="214.5" y="650.7285">boolean hasPositiveAmount(HasAmount hasAmount)</text></g><!--class AmountMapper--><g class="entity" data-entity="AmountMapper" data-source-line="20" data-uid="ent0008" id="entity_AmountMapper"><rect fill="#2D2D2D" height="66.6211" rx="2.5" ry="2.5" style="stroke:#8A8A8A;stroke-width:0.5;" width="331.7988" x="31" y="137"/><ellipse cx="144.791" cy="153" fill="#B4A7E5" rx="11" ry="11" style="stroke:#181818;stroke-width:1;"/><path d="M145.7441,149.6406 L145.7441,156.2969 L147.4629,156.2969 Q148.0723,156.2969 148.3379,156.5313 Q148.6035,156.7656 148.6035,157.1563 Q148.6035,157.5313 148.3379,157.7656 Q148.0723,158 147.4629,158 L142.3223,158 Q141.7129,158 141.4473,157.7656 Q141.1816,157.5313 141.1816,157.1406 Q141.1816,156.7656 141.4473,156.5313 Q141.7129,156.2969 142.3223,156.2969 L144.041,156.2969 L144.041,149.6406 L142.3223,149.6406 Q141.7129,149.6406 141.4473,149.4063 Q141.1816,149.1719 141.1816,148.7813 Q141.1816,148.4063 141.4473,148.1719 Q141.7129,147.9375 142.3223,147.9375 L147.4629,147.9375 Q148.0723,147.9375 148.3379,148.1719 Q148.6035,148.4063 148.6035,148.7813 Q148.6035,149.1719 148.3379,149.4063 Q148.0723,149.6406 147.4629,149.6406 L145.7441,149.6406 Z " fill="#000000"/><text fill="#E0E0E0" font-family="sans-serif" font-size="14" font-style="italic" lengthAdjust="spacing" textLength="95.7168" x="165.291" y="158.7969">AmountMapper</text><line style="stroke:#8A8A8A;stroke-width:0.5;" x1="32" x2="361.7988" y1="169" y2="169"/><line style="stroke:#8A8A8A;stroke-width:0.5;" x1="32" x2="361.7988" y1="177" y2="177"/><ellipse cx="42" cy="191.8105" fill="#84BE84" rx="3" ry="3" style="stroke:#038048;stroke-width:1;"/><text fill="#FFFFFF" font-family="sans-serif" font-size="14" lengthAdjust="spacing" textLength="305.7988" x="51" y="196.1074">void map(HasAmount source, HasAmount target)</text></g><!--class ValidatedAmountMapper--><g class="entity" data-entity="ValidatedAmountMapper" data-source-line="24" data-uid="ent0010" id="entity_ValidatedAmountMapper"><rect fill="#2D2D2D" height="122.4844" rx="2.5" ry="2.5" style="stroke:#8A8A8A;stroke-width:0.5;" width="380.0469" x="7" y="264"/><ellipse cx="115.7256" cy="280" fill="#ADD1B2" rx="11" ry="11" style="stroke:#181818;stroke-width:1;"/><path d="M118.4912,275.875 Q118.6475,275.6563 118.835,275.5469 Q119.0225,275.4375 119.2412,275.4375 Q119.6162,275.4375 119.8506,275.7031 Q120.085,275.9531 120.085,276.5625 L120.085,278.0156 Q120.085,278.625 119.8506,278.8906 Q119.6162,279.1563 119.2412,279.1563 Q118.8975,279.1563 118.6943,278.9531 Q118.4912,278.7656 118.3818,278.25 Q118.335,277.8906 118.1475,277.7031 Q117.8193,277.3281 117.21,277.1094 Q116.6006,276.8906 115.9756,276.8906 Q115.21,276.8906 114.5693,277.2188 Q113.9443,277.5469 113.4443,278.2969 Q112.96,279.0469 112.96,280.0781 L112.96,281.1719 Q112.96,282.4063 113.8506,283.2344 Q114.7412,284.0469 116.335,284.0469 Q117.2725,284.0469 117.9287,283.7969 Q118.3193,283.6406 118.7412,283.2031 Q119.0068,282.9375 119.1475,282.8594 Q119.3037,282.7813 119.5068,282.7813 Q119.835,282.7813 120.085,283.0469 Q120.3506,283.2969 120.3506,283.6406 Q120.3506,283.9844 120.0068,284.3906 Q119.5068,284.9688 118.71,285.2969 Q117.6318,285.75 116.335,285.75 Q114.8193,285.75 113.6162,285.125 Q112.6318,284.625 111.9443,283.5625 Q111.2568,282.4844 111.2568,281.2031 L111.2568,280.0469 Q111.2568,278.7188 111.8662,277.5781 Q112.4912,276.4219 113.585,275.8125 Q114.6787,275.1875 115.9131,275.1875 Q116.6475,275.1875 117.2881,275.3594 Q117.9443,275.5156 118.4912,275.875 Z " fill="#000000"/><text fill="#E0E0E0" font-family="sans-serif" font-size="14" lengthAdjust="spacing" textLength="154.0957" x="136.2256" y="285.7969">ValidatedAmountMapper</text><line style="stroke:#8A8A8A;stroke-width:0.5;" x1="8" x2="386.0469" y1="296" y2="296"/><rect fill="none" height="6" style="stroke:#C82930;stroke-width:1;" width="6" x="15" y="307.8105"/><text fill="#FFFFFF" font-family="sans-serif" font-size="14" lengthAdjust="spacing" textLength="209.3438" x="27" y="315.1074">AmountValidator amountValidator</text><line style="stroke:#8A8A8A;stroke-width:0.5;" x1="8" x2="386.0469" y1="322.6211" y2="322.6211"/><ellipse cx="18" cy="337.4316" fill="#84BE84" rx="3" ry="3" style="stroke:#038048;stroke-width:1;"/><text fill="#FFFFFF" font-family="sans-serif" font-size="14" lengthAdjust="spacing" textLength="305.7988" x="27" y="341.7285">void map(HasAmount source, HasAmount target)</text><rect fill="#F24D5C" height="6" style="stroke:#C82930;stroke-width:1;" width="6" x="15" y="353.0527"/><text fill="#FFFFFF" font-family="sans-serif" font-size="14" lengthAdjust="spacing" textLength="252.1367" x="27" y="360.3496">boolean isValid(HasAmount hasAmount)</text><rect fill="#F24D5C" height="6" style="stroke:#C82930;stroke-width:1;" width="6" x="15" y="371.6738"/><text fill="#FFFFFF" font-family="sans-serif" font-size="14" lengthAdjust="spacing" textLength="354.0469" x="27" y="378.9707">void mapAmount(HasAmount source, HasAmount target)</text></g><!--reverse link Validator to AmountValidator--><g class="link" data-entity-1="Validator" data-entity-2="AmountValidator" data-source-line="20" data-uid="lnk5" id="link_Validator_AmountValidator"><path d="M467,376.52 C467,402.35 467,419.9 467,445.77" fill="none" id="Validator-backto-AmountValidator" style="stroke:#B0C4DE;stroke-width:1;"/><polygon fill="none" points="467,358.52,461,376.52,473,376.52,467,358.52" style="stroke:#B0C4DE;stroke-width:1;"/></g><!--reverse link AmountValidator to PositiveAmountValidator--><g class="link" data-entity-1="AmountValidator" data-entity-2="PositiveAmountValidator" data-source-line="24" data-uid="lnk7" id="link_AmountValidator_PositiveAmountValidator"><path d="M373,531.12 C373,549.13 373,553.51 373,572.75" fill="none" id="AmountValidator-backto-PositiveAmountValidator" style="stroke:#B0C4DE;stroke-width:1;"/><polygon fill="none" points="373,513.12,367,531.12,379,531.12,373,513.12" style="stroke:#B0C4DE;stroke-width:1;"/></g><!--reverse link Mapper to AmountMapper--><g class="link" data-entity-1="Mapper" data-entity-2="AmountMapper" data-source-line="21" data-uid="lnk9" id="link_Mapper_AmountMapper"><path d="M197,95.2 C197,113.57 197,118.25 197,136.64" fill="none" id="Mapper-backto-AmountMapper" style="stroke:#B0C4DE;stroke-width:1;"/><polygon fill="none" points="197,77.2,191,95.2,203,95.2,197,77.2" style="stroke:#B0C4DE;stroke-width:1;"/></g><!--reverse link AmountMapper to ValidatedAmountMapper--><g class="link" data-entity-1="AmountMapper" data-entity-2="ValidatedAmountMapper" data-source-line="25" data-uid="lnk11" id="link_AmountMapper_ValidatedAmountMapper"><path d="M197,222.02 C197,239.51 197,243.45 197,263.82" fill="none" id="AmountMapper-backto-ValidatedAmountMapper" style="stroke:#B0C4DE;stroke-width:1;stroke-dasharray:7,7;"/><polygon fill="none" points="197,204.02,191,222.02,203,222.02,197,204.02" style="stroke:#B0C4DE;stroke-width:1;"/></g><!--link ValidatedAmountMapper to AmountValidator--><g class="link" data-entity-1="ValidatedAmountMapper" data-entity-2="AmountValidator" data-source-line="32" data-uid="lnk12" id="link_ValidatedAmountMapper_AmountValidator"><path codeLine="32" d="M310.5,386.06 C310.5,406.47 310.5,422.46 310.5,439.98" fill="none" id="ValidatedAmountMapper-to-AmountValidator" style="stroke:#B0C4DE;stroke-width:1;"/><polygon fill="#B0C4DE" points="310.5,445.98,314.5,436.98,310.5,440.98,306.5,436.98,310.5,445.98" style="stroke:#B0C4DE;stroke-width:1;"/></g><!--SRC=[dL7BJiCm4BpxAnPn0K5HGHmu8QKlSUaDST_6czIguxLiXu8G_qwS1tK3KX5PAR9dPcSVzZjbB3giG2j3uTqIi0jR5lwRs62-AntNHivPiuFpssMCH26fm5g7PteBcLQbgSW4o9iVkKILESVxtc8sdTylKWk_HSbxPKeeK7jAc1MRq6UjsY_XSetUdnHa8JYrgGETLAwf6Lt-b8rry240PkEzt2rYH8QT9DUZ3rcC1aribzCOubE8CsLoNKk2DLfBxiRMbJw0MTNOXnVKIcBWdXKgBhR0VE2xL6YsJqRwtgbj4U0ANbb9gD1UFA7lzE2vTZbTmm49w4eAbx6ZRi2-9icZ4ggockBh-kFINQt9k5_0uxluJqkTyuPP4nfGldLBChV3QP0ExXtwrx5_7tWoUHmFzGK0]--></g></svg>