<svg xmlns="http://www.w3.org/2000/svg" contentStyleType="text/css" data-diagram-type="CLASS" height="665px"
     preserveAspectRatio="none" style="width:790px;height:665px;background:#1E1E1E;" version="1.1" viewBox="0 0 790 665"
     width="790px" zoomAndPan="magnify"><defs/><g><rect fill="#1E1E1E" height="665" style="stroke:none;stroke-width:1;" width="790" x="0" y="0"/><!--class Mapper--><g class="entity" data-entity="Mapper" data-source-line="17" data-uid="ent0002" id="entity_Mapper"><rect fill="#2D2D2D" height="66.6211" rx="2.5" ry="2.5" style="stroke:#8A8A8A;stroke-width:0.5;" width="270.3301" x="113.5" y="10"/><ellipse cx="178.9951" cy="26" fill="#B4A7E5" rx="11" ry="11" style="stroke:#181818;stroke-width:1;"/><path d="M179.9482,22.6406 L179.9482,29.2969 L181.667,29.2969 Q182.2764,29.2969 182.542,29.5313 Q182.8076,29.7656 182.8076,30.1563 Q182.8076,30.5313 182.542,30.7656 Q182.2764,31 181.667,31 L176.5264,31 Q175.917,31 175.6514,30.7656 Q175.3857,30.5313 175.3857,30.1406 Q175.3857,29.7656 175.6514,29.5313 Q175.917,29.2969 176.5264,29.2969 L178.2451,29.2969 L178.2451,22.6406 L176.5264,22.6406 Q175.917,22.6406 175.6514,22.4063 Q175.3857,22.1719 175.3857,21.7813 Q175.3857,21.4063 175.6514,21.1719 Q175.917,20.9375 176.5264,20.9375 L181.667,20.9375 Q182.2764,20.9375 182.542,21.1719 Q182.8076,21.4063 182.8076,21.7813 Q182.8076,22.1719 182.542,22.4063 Q182.2764,22.6406 181.667,22.6406 L179.9482,22.6406 Z " fill="#000000"/><text fill="#E0E0E0" font-family="sans-serif" font-size="14" font-style="italic" lengthAdjust="spacing" textLength="47.4688" x="199.4951" y="31.7969">Mapper</text><rect fill="#2D2D2D" height="17.9609" style="stroke:#8A8A8A;stroke-width:1;stroke-dasharray:2,2;" width="81.3711" x="305.459" y="7"/><text fill="#000000" font-family="sans-serif" font-size="12" font-style="italic" lengthAdjust="spacing" textLength="79.3711" x="306.459" y="20.9492">Source, Target</text><line style="stroke:#8A8A8A;stroke-width:0.5;" x1="114.5" x2="382.8301" y1="42" y2="42"/><line style="stroke:#8A8A8A;stroke-width:0.5;" x1="114.5" x2="382.8301" y1="50" y2="50"/><ellipse cx="124.5" cy="64.8105" fill="#84BE84" rx="3" ry="3" style="stroke:#038048;stroke-width:1;"/><text fill="#FFFFFF" font-family="sans-serif" font-size="14" lengthAdjust="spacing" textLength="244.3301" x="133.5" y="69.1074">void map(Source source, Target target)</text></g><!--class Validator--><g class="entity" data-entity="Validator" data-source-line="17" data-uid="ent0003" id="entity_Validator"><rect fill="#2D2D2D" height="66.6211" rx="2.5" ry="2.5" style="stroke:#8A8A8A;stroke-width:0.5;" width="254.0127" x="525.5" y="291.5"/><ellipse cx="592.6162" cy="307.5" fill="#B4A7E5" rx="11" ry="11" style="stroke:#181818;stroke-width:1;"/><path d="M593.5693,304.1406 L593.5693,310.7969 L595.2881,310.7969 Q595.8975,310.7969 596.1631,311.0313 Q596.4287,311.2656 596.4287,311.6563 Q596.4287,312.0313 596.1631,312.2656 Q595.8975,312.5 595.2881,312.5 L590.1475,312.5 Q589.5381,312.5 589.2725,312.2656 Q589.0068,312.0313 589.0068,311.6406 Q589.0068,311.2656 589.2725,311.0313 Q589.5381,310.7969 590.1475,310.7969 L591.8662,310.7969 L591.8662,304.1406 L590.1475,304.1406 Q589.5381,304.1406 589.2725,303.9063 Q589.0068,303.6719 589.0068,303.2813 Q589.0068,302.9063 589.2725,302.6719 Q589.5381,302.4375 590.1475,302.4375 L595.2881,302.4375 Q595.8975,302.4375 596.1631,302.6719 Q596.4287,302.9063 596.4287,303.2813 Q596.4287,303.6719 596.1631,303.9063 Q595.8975,304.1406 595.2881,304.1406 L593.5693,304.1406 Z " fill="#000000"/><text fill="#E0E0E0" font-family="sans-serif" font-size="14" font-style="italic" lengthAdjust="spacing" textLength="55.2549" x="613.1162" y="313.2969">Validator</text><rect fill="#2D2D2D" height="17.9609" style="stroke:#8A8A8A;stroke-width:1;stroke-dasharray:2,2;" width="54.0254" x="728.4873" y="288.5"/><text fill="#000000" font-family="sans-serif" font-size="12" font-style="italic" lengthAdjust="spacing" textLength="52.0254" x="729.4873" y="302.4492">Argument</text><line style="stroke:#8A8A8A;stroke-width:0.5;" x1="526.5" x2="778.5127" y1="323.5" y2="323.5"/><line style="stroke:#8A8A8A;stroke-width:0.5;" x1="526.5" x2="778.5127" y1="331.5" y2="331.5"/><ellipse cx="536.5" cy="346.3105" fill="#84BE84" rx="3" ry="3" style="stroke:#038048;stroke-width:1;"/><text fill="#FFFFFF" font-family="sans-serif" font-size="14" lengthAdjust="spacing" textLength="228.0127" x="545.5" y="350.6074">boolean isValid(Argument argument)</text></g><!--class CookingTimeValidator--><g class="entity" data-entity="CookingTimeValidator" data-source-line="19" data-uid="ent0004" id="entity_CookingTimeValidator"><rect fill="#2D2D2D" height="66.6211" rx="2.5" ry="2.5" style="stroke:#8A8A8A;stroke-width:0.5;" width="346.5918" x="277" y="446"/><ellipse cx="377.1807" cy="462" fill="#B4A7E5" rx="11" ry="11" style="stroke:#181818;stroke-width:1;"/><path d="M378.1338,458.6406 L378.1338,465.2969 L379.8525,465.2969 Q380.4619,465.2969 380.7275,465.5313 Q380.9932,465.7656 380.9932,466.1563 Q380.9932,466.5313 380.7275,466.7656 Q380.4619,467 379.8525,467 L374.7119,467 Q374.1025,467 373.8369,466.7656 Q373.5713,466.5313 373.5713,466.1406 Q373.5713,465.7656 373.8369,465.5313 Q374.1025,465.2969 374.7119,465.2969 L376.4307,465.2969 L376.4307,458.6406 L374.7119,458.6406 Q374.1025,458.6406 373.8369,458.4063 Q373.5713,458.1719 373.5713,457.7813 Q373.5713,457.4063 373.8369,457.1719 Q374.1025,456.9375 374.7119,456.9375 L379.8525,456.9375 Q380.4619,456.9375 380.7275,457.1719 Q380.9932,457.4063 380.9932,457.7813 Q380.9932,458.1719 380.7275,458.4063 Q380.4619,458.6406 379.8525,458.6406 L378.1338,458.6406 Z " fill="#000000"/><text fill="#E0E0E0" font-family="sans-serif" font-size="14" font-style="italic" lengthAdjust="spacing" textLength="137.7305" x="397.6807" y="467.7969">CookingTimeValidator</text><line style="stroke:#8A8A8A;stroke-width:0.5;" x1="278" x2="622.5918" y1="478" y2="478"/><line style="stroke:#8A8A8A;stroke-width:0.5;" x1="278" x2="622.5918" y1="486" y2="486"/><ellipse cx="288" cy="500.8105" fill="#84BE84" rx="3" ry="3" style="stroke:#038048;stroke-width:1;"/><text fill="#FFFFFF" font-family="sans-serif" font-size="14" lengthAdjust="spacing" textLength="320.5918" x="297" y="505.1074">boolean isValid(HasCookingTime hasCookingTime)</text></g><!--class PositiveCookingTimeValidator--><g class="entity" data-entity="PositiveCookingTimeValidator" data-source-line="23" data-uid="ent0006" id="entity_PositiveCookingTimeValidator"><rect fill="#2D2D2D" height="85.2422" rx="2.5" ry="2.5" style="stroke:#8A8A8A;stroke-width:0.5;" width="459.4189" x="221" y="573"/><ellipse cx="353.084" cy="589" fill="#ADD1B2" rx="11" ry="11" style="stroke:#181818;stroke-width:1;"/><path d="M355.8496,584.875 Q356.0059,584.6563 356.1934,584.5469 Q356.3809,584.4375 356.5996,584.4375 Q356.9746,584.4375 357.209,584.7031 Q357.4434,584.9531 357.4434,585.5625 L357.4434,587.0156 Q357.4434,587.625 357.209,587.8906 Q356.9746,588.1563 356.5996,588.1563 Q356.2559,588.1563 356.0527,587.9531 Q355.8496,587.7656 355.7402,587.25 Q355.6934,586.8906 355.5059,586.7031 Q355.1777,586.3281 354.5684,586.1094 Q353.959,585.8906 353.334,585.8906 Q352.5684,585.8906 351.9277,586.2188 Q351.3027,586.5469 350.8027,587.2969 Q350.3184,588.0469 350.3184,589.0781 L350.3184,590.1719 Q350.3184,591.4063 351.209,592.2344 Q352.0996,593.0469 353.6934,593.0469 Q354.6309,593.0469 355.2871,592.7969 Q355.6777,592.6406 356.0996,592.2031 Q356.3652,591.9375 356.5059,591.8594 Q356.6621,591.7813 356.8652,591.7813 Q357.1934,591.7813 357.4434,592.0469 Q357.709,592.2969 357.709,592.6406 Q357.709,592.9844 357.3652,593.3906 Q356.8652,593.9688 356.0684,594.2969 Q354.9902,594.75 353.6934,594.75 Q352.1777,594.75 350.9746,594.125 Q349.9902,593.625 349.3027,592.5625 Q348.6152,591.4844 348.6152,590.2031 L348.6152,589.0469 Q348.6152,587.7188 349.2246,586.5781 Q349.8496,585.4219 350.9434,584.8125 Q352.0371,584.1875 353.2715,584.1875 Q354.0059,584.1875 354.6465,584.3594 Q355.3027,584.5156 355.8496,584.875 Z " fill="#000000"/><text fill="#E0E0E0" font-family="sans-serif" font-size="14" lengthAdjust="spacing" textLength="186.751" x="373.584" y="594.7969">PositiveCookingTimeValidator</text><line style="stroke:#8A8A8A;stroke-width:0.5;" x1="222" x2="679.4189" y1="605" y2="605"/><line style="stroke:#8A8A8A;stroke-width:0.5;" x1="222" x2="679.4189" y1="613" y2="613"/><ellipse cx="232" cy="627.8105" fill="#84BE84" rx="3" ry="3" style="stroke:#038048;stroke-width:1;"/><text fill="#FFFFFF" font-family="sans-serif" font-size="14" lengthAdjust="spacing" textLength="320.5918" x="241" y="632.1074">boolean isValid(HasCookingTime hasCookingTime)</text><rect fill="#F24D5C" height="6" style="stroke:#C82930;stroke-width:1;" width="6" x="229" y="643.4316"/><text fill="#FFFFFF" font-family="sans-serif" font-size="14" lengthAdjust="spacing" textLength="433.4189" x="241" y="650.7285">boolean hasPositiveCookingTime(HasCookingTime hasCookingTime)</text></g><!--class CookingTimeMapper--><g class="entity" data-entity="CookingTimeMapper" data-source-line="20" data-uid="ent0008" id="entity_CookingTimeMapper"><rect fill="#2D2D2D" height="66.6211" rx="2.5" ry="2.5" style="stroke:#8A8A8A;stroke-width:0.5;" width="400.2539" x="48.5" y="137"/><ellipse cx="179.4048" cy="153" fill="#B4A7E5" rx="11" ry="11" style="stroke:#181818;stroke-width:1;"/><path d="M180.3579,149.6406 L180.3579,156.2969 L182.0767,156.2969 Q182.686,156.2969 182.9517,156.5313 Q183.2173,156.7656 183.2173,157.1563 Q183.2173,157.5313 182.9517,157.7656 Q182.686,158 182.0767,158 L176.936,158 Q176.3267,158 176.061,157.7656 Q175.7954,157.5313 175.7954,157.1406 Q175.7954,156.7656 176.061,156.5313 Q176.3267,156.2969 176.936,156.2969 L178.6548,156.2969 L178.6548,149.6406 L176.936,149.6406 Q176.3267,149.6406 176.061,149.4063 Q175.7954,149.1719 175.7954,148.7813 Q175.7954,148.4063 176.061,148.1719 Q176.3267,147.9375 176.936,147.9375 L182.0767,147.9375 Q182.686,147.9375 182.9517,148.1719 Q183.2173,148.4063 183.2173,148.7813 Q183.2173,149.1719 182.9517,149.4063 Q182.686,149.6406 182.0767,149.6406 L180.3579,149.6406 Z " fill="#000000"/><text fill="#E0E0E0" font-family="sans-serif" font-size="14" font-style="italic" lengthAdjust="spacing" textLength="129.9443" x="199.9048" y="158.7969">CookingTimeMapper</text><line style="stroke:#8A8A8A;stroke-width:0.5;" x1="49.5" x2="447.7539" y1="169" y2="169"/><line style="stroke:#8A8A8A;stroke-width:0.5;" x1="49.5" x2="447.7539" y1="177" y2="177"/><ellipse cx="59.5" cy="191.8105" fill="#84BE84" rx="3" ry="3" style="stroke:#038048;stroke-width:1;"/><text fill="#FFFFFF" font-family="sans-serif" font-size="14" lengthAdjust="spacing" textLength="374.2539" x="68.5" y="196.1074">void map(HasCookingTime source, HasCookingTime target)</text></g><!--class ValidatedCookingTimeMapper--><g class="entity" data-entity="ValidatedCookingTimeMapper" data-source-line="24" data-uid="ent0010" id="entity_ValidatedCookingTimeMapper"><rect fill="#2D2D2D" height="122.4844" rx="2.5" ry="2.5" style="stroke:#8A8A8A;stroke-width:0.5;" width="482.7295" x="7" y="264"/><ellipse cx="149.9531" cy="280" fill="#ADD1B2" rx="11" ry="11" style="stroke:#181818;stroke-width:1;"/><path d="M152.7188,275.875 Q152.875,275.6563 153.0625,275.5469 Q153.25,275.4375 153.4688,275.4375 Q153.8438,275.4375 154.0781,275.7031 Q154.3125,275.9531 154.3125,276.5625 L154.3125,278.0156 Q154.3125,278.625 154.0781,278.8906 Q153.8438,279.1563 153.4688,279.1563 Q153.125,279.1563 152.9219,278.9531 Q152.7188,278.7656 152.6094,278.25 Q152.5625,277.8906 152.375,277.7031 Q152.0469,277.3281 151.4375,277.1094 Q150.8281,276.8906 150.2031,276.8906 Q149.4375,276.8906 148.7969,277.2188 Q148.1719,277.5469 147.6719,278.2969 Q147.1875,279.0469 147.1875,280.0781 L147.1875,281.1719 Q147.1875,282.4063 148.0781,283.2344 Q148.9688,284.0469 150.5625,284.0469 Q151.5,284.0469 152.1563,283.7969 Q152.5469,283.6406 152.9688,283.2031 Q153.2344,282.9375 153.375,282.8594 Q153.5313,282.7813 153.7344,282.7813 Q154.0625,282.7813 154.3125,283.0469 Q154.5781,283.2969 154.5781,283.6406 Q154.5781,283.9844 154.2344,284.3906 Q153.7344,284.9688 152.9375,285.2969 Q151.8594,285.75 150.5625,285.75 Q149.0469,285.75 147.8438,285.125 Q146.8594,284.625 146.1719,283.5625 Q145.4844,282.4844 145.4844,281.2031 L145.4844,280.0469 Q145.4844,278.7188 146.0938,277.5781 Q146.7188,276.4219 147.8125,275.8125 Q148.9063,275.1875 150.1406,275.1875 Q150.875,275.1875 151.5156,275.3594 Q152.1719,275.5156 152.7188,275.875 Z " fill="#000000"/><text fill="#E0E0E0" font-family="sans-serif" font-size="14" lengthAdjust="spacing" textLength="188.3232" x="170.4531" y="285.7969">ValidatedCookingTimeMapper</text><line style="stroke:#8A8A8A;stroke-width:0.5;" x1="8" x2="488.7295" y1="296" y2="296"/><rect fill="none" height="6" style="stroke:#C82930;stroke-width:1;" width="6" x="15" y="307.8105"/><text fill="#FFFFFF" font-family="sans-serif" font-size="14" lengthAdjust="spacing" textLength="276.2402" x="27" y="315.1074">CookingTimeValidator cookingTimeValidator</text><line style="stroke:#8A8A8A;stroke-width:0.5;" x1="8" x2="488.7295" y1="322.6211" y2="322.6211"/><ellipse cx="18" cy="337.4316" fill="#84BE84" rx="3" ry="3" style="stroke:#038048;stroke-width:1;"/><text fill="#FFFFFF" font-family="sans-serif" font-size="14" lengthAdjust="spacing" textLength="374.2539" x="27" y="341.7285">void map(HasCookingTime source, HasCookingTime target)</text><rect fill="#F24D5C" height="6" style="stroke:#C82930;stroke-width:1;" width="6" x="15" y="353.0527"/><text fill="#FFFFFF" font-family="sans-serif" font-size="14" lengthAdjust="spacing" textLength="320.5918" x="27" y="360.3496">boolean isValid(HasCookingTime hasCookingTime)</text><rect fill="#F24D5C" height="6" style="stroke:#C82930;stroke-width:1;" width="6" x="15" y="371.6738"/><text fill="#FFFFFF" font-family="sans-serif" font-size="14" lengthAdjust="spacing" textLength="456.7295" x="27" y="378.9707">void mapCookingTime(HasCookingTime source, HasCookingTime target)</text></g><!--reverse link Validator to CookingTimeValidator--><g class="link" data-entity-1="Validator" data-entity-2="CookingTimeValidator" data-source-line="20" data-uid="lnk5" id="link_Validator_CookingTimeValidator"><path d="M574.75,376.52 C574.75,402.35 574.75,419.9 574.75,445.77" fill="none" id="Validator-backto-CookingTimeValidator" style="stroke:#B0C4DE;stroke-width:1;"/><polygon fill="none" points="574.75,358.52,568.75,376.52,580.75,376.52,574.75,358.52" style="stroke:#B0C4DE;stroke-width:1;"/></g><!--reverse link CookingTimeValidator to PositiveCookingTimeValidator--><g class="link" data-entity-1="CookingTimeValidator" data-entity-2="PositiveCookingTimeValidator" data-source-line="24" data-uid="lnk7" id="link_CookingTimeValidator_PositiveCookingTimeValidator"><path d="M450.5,531.12 C450.5,549.13 450.5,553.51 450.5,572.75" fill="none" id="CookingTimeValidator-backto-PositiveCookingTimeValidator" style="stroke:#B0C4DE;stroke-width:1;stroke-dasharray:7,7;"/><polygon fill="none" points="450.5,513.12,444.5,531.12,456.5,531.12,450.5,513.12" style="stroke:#B0C4DE;stroke-width:1;"/></g><!--reverse link Mapper to CookingTimeMapper--><g class="link" data-entity-1="Mapper" data-entity-2="CookingTimeMapper" data-source-line="21" data-uid="lnk9" id="link_Mapper_CookingTimeMapper"><path d="M248.5,95.2 C248.5,113.57 248.5,118.25 248.5,136.64" fill="none" id="Mapper-backto-CookingTimeMapper" style="stroke:#B0C4DE;stroke-width:1;"/><polygon fill="none" points="248.5,77.2,242.5,95.2,254.5,95.2,248.5,77.2" style="stroke:#B0C4DE;stroke-width:1;"/></g><!--reverse link CookingTimeMapper to ValidatedCookingTimeMapper--><g class="link" data-entity-1="CookingTimeMapper" data-entity-2="ValidatedCookingTimeMapper" data-source-line="25" data-uid="lnk11" id="link_CookingTimeMapper_ValidatedCookingTimeMapper"><path d="M248.5,222.02 C248.5,239.51 248.5,243.45 248.5,263.82" fill="none" id="CookingTimeMapper-backto-ValidatedCookingTimeMapper" style="stroke:#B0C4DE;stroke-width:1;stroke-dasharray:7,7;"/><polygon fill="none" points="248.5,204.02,242.5,222.02,254.5,222.02,248.5,204.02" style="stroke:#B0C4DE;stroke-width:1;"/></g><!--link ValidatedCookingTimeMapper to CookingTimeValidator--><g class="link" data-entity-1="ValidatedCookingTimeMapper" data-entity-2="CookingTimeValidator" data-source-line="32" data-uid="lnk12" id="link_ValidatedCookingTimeMapper_CookingTimeValidator"><path codeLine="32" d="M383.5,386.06 C383.5,406.47 383.5,422.46 383.5,439.98" fill="none" id="ValidatedCookingTimeMapper-to-CookingTimeValidator" style="stroke:#B0C4DE;stroke-width:1;"/><polygon fill="#B0C4DE" points="383.5,445.98,387.5,436.98,383.5,440.98,379.5,436.98,383.5,445.98" style="stroke:#B0C4DE;stroke-width:1;"/></g><!--SRC=[fL5DJyCm3BttLnXn0S7GG1mu8NLVuhBRnDrBl2vQ6aT9oa28_qwpTf1rrIP4B4NAy_Ep_U8tobXqM89MXiA79M0NrfpvdyGInQPmN1avPiqEBk-dCHA6f1LMEYpeFUHQ5QOa4q3K5xc4bJl7srPYD1m_Jb89lqR9MsKAMA7sb6HcR49RDTkT92SqUd-Ma8VWrB8AT9OvftfrUKphyk0p0nXrVNcOn8WPTf9SYpxbCMeqaPqEOsHVMNQXZD2L99YZjUJkR5NgNt3CN3Sk5ggaLzHAOk2MagdexWh50QaHWVeVo4ZVQkw61RY1DrOIIhHNB-YJ8l1SEK6tq843keB2TPooMReTWUHnHrLQJV7RVSyuJVz1xpOWUi3iVmCttPRCcj20yZlThiRwuBalsdTCKdztwuHFWy5phmtV]--></g></svg>