<svg xmlns="http://www.w3.org/2000/svg" contentStyleType="text/css" data-diagram-type="CLASS" height="356px"
     preserveAspectRatio="none" style="width:473px;height:356px;background:#1E1E1E;" version="1.1" viewBox="0 0 473 356"
     width="473px" zoomAndPan="magnify"><defs/><g><rect fill="#1E1E1E" height="356" style="stroke:none;stroke-width:1;" width="473" x="0" y="0"/><!--class Validator--><g class="entity" data-entity="Validator" data-source-line="17" data-uid="ent0002" id="entity_Validator"><rect fill="#2D2D2D" height="66.6211" rx="2.5" ry="2.5" style="stroke:#8A8A8A;stroke-width:0.5;" width="254.0127" x="109.5" y="10"/><ellipse cx="176.6162" cy="26" fill="#B4A7E5" rx="11" ry="11" style="stroke:#181818;stroke-width:1;"/><path d="M177.5693,22.6406 L177.5693,29.2969 L179.2881,29.2969 Q179.8975,29.2969 180.1631,29.5313 Q180.4287,29.7656 180.4287,30.1563 Q180.4287,30.5313 180.1631,30.7656 Q179.8975,31 179.2881,31 L174.1475,31 Q173.5381,31 173.2725,30.7656 Q173.0068,30.5313 173.0068,30.1406 Q173.0068,29.7656 173.2725,29.5313 Q173.5381,29.2969 174.1475,29.2969 L175.8662,29.2969 L175.8662,22.6406 L174.1475,22.6406 Q173.5381,22.6406 173.2725,22.4063 Q173.0068,22.1719 173.0068,21.7813 Q173.0068,21.4063 173.2725,21.1719 Q173.5381,20.9375 174.1475,20.9375 L179.2881,20.9375 Q179.8975,20.9375 180.1631,21.1719 Q180.4287,21.4063 180.4287,21.7813 Q180.4287,22.1719 180.1631,22.4063 Q179.8975,22.6406 179.2881,22.6406 L177.5693,22.6406 Z " fill="#000000"/><text fill="#E0E0E0" font-family="sans-serif" font-size="14" font-style="italic" lengthAdjust="spacing" textLength="55.2549" x="197.1162" y="31.7969">Validator</text><rect fill="#2D2D2D" height="17.9609" style="stroke:#8A8A8A;stroke-width:1;stroke-dasharray:2,2;" width="54.0254" x="312.4873" y="7"/><text fill="#000000" font-family="sans-serif" font-size="12" font-style="italic" lengthAdjust="spacing" textLength="52.0254" x="313.4873" y="20.9492">Argument</text><line style="stroke:#8A8A8A;stroke-width:0.5;" x1="110.5" x2="362.5127" y1="42" y2="42"/><line style="stroke:#8A8A8A;stroke-width:0.5;" x1="110.5" x2="362.5127" y1="50" y2="50"/><ellipse cx="120.5" cy="64.8105" fill="#84BE84" rx="3" ry="3" style="stroke:#038048;stroke-width:1;"/><text fill="#FFFFFF" font-family="sans-serif" font-size="14" lengthAdjust="spacing" textLength="228.0127" x="129.5" y="69.1074">boolean isValid(Argument argument)</text></g><!--class CookingTimeValidator--><g class="entity" data-entity="CookingTimeValidator" data-source-line="19" data-uid="ent0003" id="entity_CookingTimeValidator"><rect fill="#2D2D2D" height="66.6211" rx="2.5" ry="2.5" style="stroke:#8A8A8A;stroke-width:0.5;" width="346.5918" x="63" y="137"/><ellipse cx="163.1807" cy="153" fill="#B4A7E5" rx="11" ry="11" style="stroke:#181818;stroke-width:1;"/><path d="M164.1338,149.6406 L164.1338,156.2969 L165.8525,156.2969 Q166.4619,156.2969 166.7275,156.5313 Q166.9932,156.7656 166.9932,157.1563 Q166.9932,157.5313 166.7275,157.7656 Q166.4619,158 165.8525,158 L160.7119,158 Q160.1025,158 159.8369,157.7656 Q159.5713,157.5313 159.5713,157.1406 Q159.5713,156.7656 159.8369,156.5313 Q160.1025,156.2969 160.7119,156.2969 L162.4307,156.2969 L162.4307,149.6406 L160.7119,149.6406 Q160.1025,149.6406 159.8369,149.4063 Q159.5713,149.1719 159.5713,148.7813 Q159.5713,148.4063 159.8369,148.1719 Q160.1025,147.9375 160.7119,147.9375 L165.8525,147.9375 Q166.4619,147.9375 166.7275,148.1719 Q166.9932,148.4063 166.9932,148.7813 Q166.9932,149.1719 166.7275,149.4063 Q166.4619,149.6406 165.8525,149.6406 L164.1338,149.6406 Z " fill="#000000"/><text fill="#E0E0E0" font-family="sans-serif" font-size="14" font-style="italic" lengthAdjust="spacing" textLength="137.7305" x="183.6807" y="158.7969">CookingTimeValidator</text><line style="stroke:#8A8A8A;stroke-width:0.5;" x1="64" x2="408.5918" y1="169" y2="169"/><line style="stroke:#8A8A8A;stroke-width:0.5;" x1="64" x2="408.5918" y1="177" y2="177"/><ellipse cx="74" cy="191.8105" fill="#84BE84" rx="3" ry="3" style="stroke:#038048;stroke-width:1;"/><text fill="#FFFFFF" font-family="sans-serif" font-size="14" lengthAdjust="spacing" textLength="320.5918" x="83" y="196.1074">boolean isValid(HasCookingTime hasCookingTime)</text></g><!--class PositiveCookingTimeValidator--><g class="entity" data-entity="PositiveCookingTimeValidator" data-source-line="23" data-uid="ent0005" id="entity_PositiveCookingTimeValidator"><rect fill="#2D2D2D" height="85.2422" rx="2.5" ry="2.5" style="stroke:#8A8A8A;stroke-width:0.5;" width="459.4189" x="7" y="264"/><ellipse cx="139.084" cy="280" fill="#ADD1B2" rx="11" ry="11" style="stroke:#181818;stroke-width:1;"/><path d="M141.8496,275.875 Q142.0059,275.6563 142.1934,275.5469 Q142.3809,275.4375 142.5996,275.4375 Q142.9746,275.4375 143.209,275.7031 Q143.4434,275.9531 143.4434,276.5625 L143.4434,278.0156 Q143.4434,278.625 143.209,278.8906 Q142.9746,279.1563 142.5996,279.1563 Q142.2559,279.1563 142.0527,278.9531 Q141.8496,278.7656 141.7402,278.25 Q141.6934,277.8906 141.5059,277.7031 Q141.1777,277.3281 140.5684,277.1094 Q139.959,276.8906 139.334,276.8906 Q138.5684,276.8906 137.9277,277.2188 Q137.3027,277.5469 136.8027,278.2969 Q136.3184,279.0469 136.3184,280.0781 L136.3184,281.1719 Q136.3184,282.4063 137.209,283.2344 Q138.0996,284.0469 139.6934,284.0469 Q140.6309,284.0469 141.2871,283.7969 Q141.6777,283.6406 142.0996,283.2031 Q142.3652,282.9375 142.5059,282.8594 Q142.6621,282.7813 142.8652,282.7813 Q143.1934,282.7813 143.4434,283.0469 Q143.709,283.2969 143.709,283.6406 Q143.709,283.9844 143.3652,284.3906 Q142.8652,284.9688 142.0684,285.2969 Q140.9902,285.75 139.6934,285.75 Q138.1777,285.75 136.9746,285.125 Q135.9902,284.625 135.3027,283.5625 Q134.6152,282.4844 134.6152,281.2031 L134.6152,280.0469 Q134.6152,278.7188 135.2246,277.5781 Q135.8496,276.4219 136.9434,275.8125 Q138.0371,275.1875 139.2715,275.1875 Q140.0059,275.1875 140.6465,275.3594 Q141.3027,275.5156 141.8496,275.875 Z " fill="#000000"/><text fill="#E0E0E0" font-family="sans-serif" font-size="14" lengthAdjust="spacing" textLength="186.751" x="159.584" y="285.7969">PositiveCookingTimeValidator</text><line style="stroke:#8A8A8A;stroke-width:0.5;" x1="8" x2="465.4189" y1="296" y2="296"/><line style="stroke:#8A8A8A;stroke-width:0.5;" x1="8" x2="465.4189" y1="304" y2="304"/><ellipse cx="18" cy="318.8105" fill="#84BE84" rx="3" ry="3" style="stroke:#038048;stroke-width:1;"/><text fill="#FFFFFF" font-family="sans-serif" font-size="14" lengthAdjust="spacing" textLength="320.5918" x="27" y="323.1074">boolean isValid(HasCookingTime hasCookingTime)</text><rect fill="#F24D5C" height="6" style="stroke:#C82930;stroke-width:1;" width="6" x="15" y="334.4316"/><text fill="#FFFFFF" font-family="sans-serif" font-size="14" lengthAdjust="spacing" textLength="433.4189" x="27" y="341.7285">boolean hasPositiveCookingTime(HasCookingTime hasCookingTime)</text></g><!--reverse link Validator to CookingTimeValidator--><g class="link" data-entity-1="Validator" data-entity-2="CookingTimeValidator" data-source-line="20" data-uid="lnk4" id="link_Validator_CookingTimeValidator"><path d="M236.5,95.2 C236.5,113.57 236.5,118.25 236.5,136.64" fill="none" id="Validator-backto-CookingTimeValidator" style="stroke:#B0C4DE;stroke-width:1;"/><polygon fill="none" points="236.5,77.2,230.5,95.2,242.5,95.2,236.5,77.2" style="stroke:#B0C4DE;stroke-width:1;"/></g><!--reverse link CookingTimeValidator to PositiveCookingTimeValidator--><g class="link" data-entity-1="CookingTimeValidator" data-entity-2="PositiveCookingTimeValidator" data-source-line="24" data-uid="lnk6" id="link_CookingTimeValidator_PositiveCookingTimeValidator"><path d="M236.5,222.12 C236.5,240.13 236.5,244.51 236.5,263.75" fill="none" id="CookingTimeValidator-backto-PositiveCookingTimeValidator" style="stroke:#B0C4DE;stroke-width:1;stroke-dasharray:7,7;"/><polygon fill="none" points="236.5,204.12,230.5,222.12,242.5,222.12,236.5,204.12" style="stroke:#B0C4DE;stroke-width:1;"/></g><!--SRC=[dL5BIyGm4BxdLunuKKHPnOFNRdSNBuA7nNlQJDjXqqn9KbSH_xj9BJMkXO8P26I-nppY3cGwQMKBcWpwzmw1hMzOk0aeP7ceBVT6vQpPmldjDaR2K5Z9NlizllbCKsrQD1xASA5DM9crV1mjrglyVfDQk4OgFfAfePBQOOBisFXHjHjEWfLQEhT8oBotLFGU5vbF64PNVscdFFWG0ElJlTnjOaI4hK8xPX-o626Rs6vNCSId46TaIjqhX1UfIKdFzgRhMoq4nUrLiaJ8cKFrUayjJYG8gqQZt8ziQ0dW2WfcZT80kG6xU9GkSO3cr_Cozl0zqZCxylIAi-MexJJ6RtNpxVopU1HTJwA0pZInEC0N]--></g></svg>