<svg xmlns="http://www.w3.org/2000/svg" contentStyleType="text/css" data-diagram-type="CLASS" height="683px"
     preserveAspectRatio="none" style="width:752px;height:683px;background:#1E1E1E;" version="1.1" viewBox="0 0 752 683"
     width="752px" zoomAndPan="magnify"><defs/><g><rect fill="#1E1E1E" height="683" style="stroke:none;stroke-width:1;" width="752" x="0" y="0"/><!--class Mapper--><g class="entity" data-entity="Mapper" data-source-line="17" data-uid="ent0002" id="entity_Mapper"><rect fill="#2D2D2D" height="66.6211" rx="2.5" ry="2.5" style="stroke:#8A8A8A;stroke-width:0.5;" width="270.3301" x="94.5" y="10"/><ellipse cx="159.9951" cy="26" fill="#B4A7E5" rx="11" ry="11" style="stroke:#181818;stroke-width:1;"/><path d="M160.9482,22.6406 L160.9482,29.2969 L162.667,29.2969 Q163.2764,29.2969 163.542,29.5313 Q163.8076,29.7656 163.8076,30.1563 Q163.8076,30.5313 163.542,30.7656 Q163.2764,31 162.667,31 L157.5264,31 Q156.917,31 156.6514,30.7656 Q156.3857,30.5313 156.3857,30.1406 Q156.3857,29.7656 156.6514,29.5313 Q156.917,29.2969 157.5264,29.2969 L159.2451,29.2969 L159.2451,22.6406 L157.5264,22.6406 Q156.917,22.6406 156.6514,22.4063 Q156.3857,22.1719 156.3857,21.7813 Q156.3857,21.4063 156.6514,21.1719 Q156.917,20.9375 157.5264,20.9375 L162.667,20.9375 Q163.2764,20.9375 163.542,21.1719 Q163.8076,21.4063 163.8076,21.7813 Q163.8076,22.1719 163.542,22.4063 Q163.2764,22.6406 162.667,22.6406 L160.9482,22.6406 Z " fill="#000000"/><text fill="#E0E0E0" font-family="sans-serif" font-size="14" font-style="italic" lengthAdjust="spacing" textLength="47.4688" x="180.4951" y="31.7969">Mapper</text><rect fill="#2D2D2D" height="17.9609" style="stroke:#8A8A8A;stroke-width:1;stroke-dasharray:2,2;" width="81.3711" x="286.459" y="7"/><text fill="#000000" font-family="sans-serif" font-size="12" font-style="italic" lengthAdjust="spacing" textLength="79.3711" x="287.459" y="20.9492">Source, Target</text><line style="stroke:#8A8A8A;stroke-width:0.5;" x1="95.5" x2="363.8301" y1="42" y2="42"/><line style="stroke:#8A8A8A;stroke-width:0.5;" x1="95.5" x2="363.8301" y1="50" y2="50"/><ellipse cx="105.5" cy="64.8105" fill="#84BE84" rx="3" ry="3" style="stroke:#038048;stroke-width:1;"/><text fill="#FFFFFF" font-family="sans-serif" font-size="14" lengthAdjust="spacing" textLength="244.3301" x="114.5" y="69.1074">void map(Source source, Target target)</text></g><!--class Validator--><g class="entity" data-entity="Validator" data-source-line="17" data-uid="ent0003" id="entity_Validator"><rect fill="#2D2D2D" height="66.6211" rx="2.5" ry="2.5" style="stroke:#8A8A8A;stroke-width:0.5;" width="254.0127" x="487.5" y="291.5"/><ellipse cx="554.6162" cy="307.5" fill="#B4A7E5" rx="11" ry="11" style="stroke:#181818;stroke-width:1;"/><path d="M555.5693,304.1406 L555.5693,310.7969 L557.2881,310.7969 Q557.8975,310.7969 558.1631,311.0313 Q558.4287,311.2656 558.4287,311.6563 Q558.4287,312.0313 558.1631,312.2656 Q557.8975,312.5 557.2881,312.5 L552.1475,312.5 Q551.5381,312.5 551.2725,312.2656 Q551.0068,312.0313 551.0068,311.6406 Q551.0068,311.2656 551.2725,311.0313 Q551.5381,310.7969 552.1475,310.7969 L553.8662,310.7969 L553.8662,304.1406 L552.1475,304.1406 Q551.5381,304.1406 551.2725,303.9063 Q551.0068,303.6719 551.0068,303.2813 Q551.0068,302.9063 551.2725,302.6719 Q551.5381,302.4375 552.1475,302.4375 L557.2881,302.4375 Q557.8975,302.4375 558.1631,302.6719 Q558.4287,302.9063 558.4287,303.2813 Q558.4287,303.6719 558.1631,303.9063 Q557.8975,304.1406 557.2881,304.1406 L555.5693,304.1406 Z " fill="#000000"/><text fill="#E0E0E0" font-family="sans-serif" font-size="14" font-style="italic" lengthAdjust="spacing" textLength="55.2549" x="575.1162" y="313.2969">Validator</text><rect fill="#2D2D2D" height="17.9609" style="stroke:#8A8A8A;stroke-width:1;stroke-dasharray:2,2;" width="54.0254" x="690.4873" y="288.5"/><text fill="#000000" font-family="sans-serif" font-size="12" font-style="italic" lengthAdjust="spacing" textLength="52.0254" x="691.4873" y="302.4492">Argument</text><line style="stroke:#8A8A8A;stroke-width:0.5;" x1="488.5" x2="740.5127" y1="323.5" y2="323.5"/><line style="stroke:#8A8A8A;stroke-width:0.5;" x1="488.5" x2="740.5127" y1="331.5" y2="331.5"/><ellipse cx="498.5" cy="346.3105" fill="#84BE84" rx="3" ry="3" style="stroke:#038048;stroke-width:1;"/><text fill="#FFFFFF" font-family="sans-serif" font-size="14" lengthAdjust="spacing" textLength="228.0127" x="507.5" y="350.6074">boolean isValid(Argument argument)</text></g><!--class DescriptionValidator--><g class="entity" data-entity="DescriptionValidator" data-source-line="19" data-uid="ent0004" id="entity_DescriptionValidator"><rect fill="#2D2D2D" height="66.6211" rx="2.5" ry="2.5" style="stroke:#8A8A8A;stroke-width:0.5;" width="321.6953" x="260.5" y="446"/><ellipse cx="354.4565" cy="462" fill="#B4A7E5" rx="11" ry="11" style="stroke:#181818;stroke-width:1;"/><path d="M355.4097,458.6406 L355.4097,465.2969 L357.1284,465.2969 Q357.7378,465.2969 358.0034,465.5313 Q358.269,465.7656 358.269,466.1563 Q358.269,466.5313 358.0034,466.7656 Q357.7378,467 357.1284,467 L351.9878,467 Q351.3784,467 351.1128,466.7656 Q350.8472,466.5313 350.8472,466.1406 Q350.8472,465.7656 351.1128,465.5313 Q351.3784,465.2969 351.9878,465.2969 L353.7065,465.2969 L353.7065,458.6406 L351.9878,458.6406 Q351.3784,458.6406 351.1128,458.4063 Q350.8472,458.1719 350.8472,457.7813 Q350.8472,457.4063 351.1128,457.1719 Q351.3784,456.9375 351.9878,456.9375 L357.1284,456.9375 Q357.7378,456.9375 358.0034,457.1719 Q358.269,457.4063 358.269,457.7813 Q358.269,458.1719 358.0034,458.4063 Q357.7378,458.6406 357.1284,458.6406 L355.4097,458.6406 Z " fill="#000000"/><text fill="#E0E0E0" font-family="sans-serif" font-size="14" font-style="italic" lengthAdjust="spacing" textLength="125.2822" x="374.9565" y="467.7969">DescriptionValidator</text><line style="stroke:#8A8A8A;stroke-width:0.5;" x1="261.5" x2="581.1953" y1="478" y2="478"/><line style="stroke:#8A8A8A;stroke-width:0.5;" x1="261.5" x2="581.1953" y1="486" y2="486"/><ellipse cx="271.5" cy="500.8105" fill="#84BE84" rx="3" ry="3" style="stroke:#038048;stroke-width:1;"/><text fill="#FFFFFF" font-family="sans-serif" font-size="14" lengthAdjust="spacing" textLength="295.6953" x="280.5" y="505.1074">boolean isValid(HasDescription hasDescription)</text></g><!--class NonBlankDescriptionValidator--><g class="entity" data-entity="NonBlankDescriptionValidator" data-source-line="23" data-uid="ent0006" id="entity_NonBlankDescriptionValidator"><rect fill="#2D2D2D" height="103.8633" rx="2.5" ry="2.5" style="stroke:#8A8A8A;stroke-width:0.5;" width="433.7568" x="204.5" y="573"/><ellipse cx="324.1357" cy="589" fill="#ADD1B2" rx="11" ry="11" style="stroke:#181818;stroke-width:1;"/><path d="M326.9014,584.875 Q327.0576,584.6563 327.2451,584.5469 Q327.4326,584.4375 327.6514,584.4375 Q328.0264,584.4375 328.2607,584.7031 Q328.4951,584.9531 328.4951,585.5625 L328.4951,587.0156 Q328.4951,587.625 328.2607,587.8906 Q328.0264,588.1563 327.6514,588.1563 Q327.3076,588.1563 327.1045,587.9531 Q326.9014,587.7656 326.792,587.25 Q326.7451,586.8906 326.5576,586.7031 Q326.2295,586.3281 325.6201,586.1094 Q325.0107,585.8906 324.3857,585.8906 Q323.6201,585.8906 322.9795,586.2188 Q322.3545,586.5469 321.8545,587.2969 Q321.3701,588.0469 321.3701,589.0781 L321.3701,590.1719 Q321.3701,591.4063 322.2607,592.2344 Q323.1514,593.0469 324.7451,593.0469 Q325.6826,593.0469 326.3389,592.7969 Q326.7295,592.6406 327.1514,592.2031 Q327.417,591.9375 327.5576,591.8594 Q327.7139,591.7813 327.917,591.7813 Q328.2451,591.7813 328.4951,592.0469 Q328.7607,592.2969 328.7607,592.6406 Q328.7607,592.9844 328.417,593.3906 Q327.917,593.9688 327.1201,594.2969 Q326.042,594.75 324.7451,594.75 Q323.2295,594.75 322.0264,594.125 Q321.042,593.625 320.3545,592.5625 Q319.667,591.4844 319.667,590.2031 L319.667,589.0469 Q319.667,587.7188 320.2764,586.5781 Q320.9014,585.4219 321.9951,584.8125 Q323.0889,584.1875 324.3232,584.1875 Q325.0576,584.1875 325.6982,584.3594 Q326.3545,584.5156 326.9014,584.875 Z " fill="#000000"/><text fill="#E0E0E0" font-family="sans-serif" font-size="14" lengthAdjust="spacing" textLength="185.9854" x="344.6357" y="594.7969">NonBlankDescriptionValidator</text><line style="stroke:#8A8A8A;stroke-width:0.5;" x1="205.5" x2="637.2568" y1="605" y2="605"/><line style="stroke:#8A8A8A;stroke-width:0.5;" x1="205.5" x2="637.2568" y1="613" y2="613"/><ellipse cx="215.5" cy="627.8105" fill="#84BE84" rx="3" ry="3" style="stroke:#038048;stroke-width:1;"/><text fill="#FFFFFF" font-family="sans-serif" font-size="14" lengthAdjust="spacing" textLength="295.6953" x="224.5" y="632.1074">boolean isValid(HasDescription hasDescription)</text><rect fill="#F24D5C" height="6" style="stroke:#C82930;stroke-width:1;" width="6" x="212.5" y="643.4316"/><text fill="#FFFFFF" font-family="sans-serif" font-size="14" lengthAdjust="spacing" textLength="407.7568" x="224.5" y="650.7285">boolean hasNonBlankDescription(HasDescription hasDescription)</text><rect fill="#F24D5C" height="6" style="stroke:#C82930;stroke-width:1;" width="6" x="212.5" y="662.0527"/><text fill="#FFFFFF" font-family="sans-serif" font-size="14" lengthAdjust="spacing" textLength="382.0742" x="224.5" y="669.3496">boolean hasBlankDescription(HasDescription hasDescription)</text></g><!--class DescriptionMapper--><g class="entity" data-entity="DescriptionMapper" data-source-line="20" data-uid="ent0008" id="entity_DescriptionMapper"><rect fill="#2D2D2D" height="66.6211" rx="2.5" ry="2.5" style="stroke:#8A8A8A;stroke-width:0.5;" width="375.3574" x="42" y="137"/><ellipse cx="166.6807" cy="153" fill="#B4A7E5" rx="11" ry="11" style="stroke:#181818;stroke-width:1;"/><path d="M167.6338,149.6406 L167.6338,156.2969 L169.3525,156.2969 Q169.9619,156.2969 170.2275,156.5313 Q170.4932,156.7656 170.4932,157.1563 Q170.4932,157.5313 170.2275,157.7656 Q169.9619,158 169.3525,158 L164.2119,158 Q163.6025,158 163.3369,157.7656 Q163.0713,157.5313 163.0713,157.1406 Q163.0713,156.7656 163.3369,156.5313 Q163.6025,156.2969 164.2119,156.2969 L165.9307,156.2969 L165.9307,149.6406 L164.2119,149.6406 Q163.6025,149.6406 163.3369,149.4063 Q163.0713,149.1719 163.0713,148.7813 Q163.0713,148.4063 163.3369,148.1719 Q163.6025,147.9375 164.2119,147.9375 L169.3525,147.9375 Q169.9619,147.9375 170.2275,148.1719 Q170.4932,148.4063 170.4932,148.7813 Q170.4932,149.1719 170.2275,149.4063 Q169.9619,149.6406 169.3525,149.6406 L167.6338,149.6406 Z " fill="#000000"/><text fill="#E0E0E0" font-family="sans-serif" font-size="14" font-style="italic" lengthAdjust="spacing" textLength="117.4961" x="187.1807" y="158.7969">DescriptionMapper</text><line style="stroke:#8A8A8A;stroke-width:0.5;" x1="43" x2="416.3574" y1="169" y2="169"/><line style="stroke:#8A8A8A;stroke-width:0.5;" x1="43" x2="416.3574" y1="177" y2="177"/><ellipse cx="53" cy="191.8105" fill="#84BE84" rx="3" ry="3" style="stroke:#038048;stroke-width:1;"/><text fill="#FFFFFF" font-family="sans-serif" font-size="14" lengthAdjust="spacing" textLength="349.3574" x="62" y="196.1074">void map(HasDescription source, HasDescription target)</text></g><!--class ValidatedDescriptionMapper--><g class="entity" data-entity="ValidatedDescriptionMapper" data-source-line="24" data-uid="ent0010" id="entity_ValidatedDescriptionMapper"><rect fill="#2D2D2D" height="122.4844" rx="2.5" ry="2.5" style="stroke:#8A8A8A;stroke-width:0.5;" width="445.3848" x="7" y="264"/><ellipse cx="137.5049" cy="280" fill="#ADD1B2" rx="11" ry="11" style="stroke:#181818;stroke-width:1;"/><path d="M140.2705,275.875 Q140.4268,275.6563 140.6143,275.5469 Q140.8018,275.4375 141.0205,275.4375 Q141.3955,275.4375 141.6299,275.7031 Q141.8643,275.9531 141.8643,276.5625 L141.8643,278.0156 Q141.8643,278.625 141.6299,278.8906 Q141.3955,279.1563 141.0205,279.1563 Q140.6768,279.1563 140.4736,278.9531 Q140.2705,278.7656 140.1611,278.25 Q140.1143,277.8906 139.9268,277.7031 Q139.5986,277.3281 138.9893,277.1094 Q138.3799,276.8906 137.7549,276.8906 Q136.9893,276.8906 136.3486,277.2188 Q135.7236,277.5469 135.2236,278.2969 Q134.7393,279.0469 134.7393,280.0781 L134.7393,281.1719 Q134.7393,282.4063 135.6299,283.2344 Q136.5205,284.0469 138.1143,284.0469 Q139.0518,284.0469 139.708,283.7969 Q140.0986,283.6406 140.5205,283.2031 Q140.7861,282.9375 140.9268,282.8594 Q141.083,282.7813 141.2861,282.7813 Q141.6143,282.7813 141.8643,283.0469 Q142.1299,283.2969 142.1299,283.6406 Q142.1299,283.9844 141.7861,284.3906 Q141.2861,284.9688 140.4893,285.2969 Q139.4111,285.75 138.1143,285.75 Q136.5986,285.75 135.3955,285.125 Q134.4111,284.625 133.7236,283.5625 Q133.0361,282.4844 133.0361,281.2031 L133.0361,280.0469 Q133.0361,278.7188 133.6455,277.5781 Q134.2705,276.4219 135.3643,275.8125 Q136.458,275.1875 137.6924,275.1875 Q138.4268,275.1875 139.0674,275.3594 Q139.7236,275.5156 140.2705,275.875 Z " fill="#000000"/><text fill="#E0E0E0" font-family="sans-serif" font-size="14" lengthAdjust="spacing" textLength="175.875" x="158.0049" y="285.7969">ValidatedDescriptionMapper</text><line style="stroke:#8A8A8A;stroke-width:0.5;" x1="8" x2="451.3848" y1="296" y2="296"/><rect fill="none" height="6" style="stroke:#C82930;stroke-width:1;" width="6" x="15" y="307.8105"/><text fill="#FFFFFF" font-family="sans-serif" font-size="14" lengthAdjust="spacing" textLength="252.1299" x="27" y="315.1074">DescriptionValidator descriptionValidator</text><line style="stroke:#8A8A8A;stroke-width:0.5;" x1="8" x2="451.3848" y1="322.6211" y2="322.6211"/><ellipse cx="18" cy="337.4316" fill="#84BE84" rx="3" ry="3" style="stroke:#038048;stroke-width:1;"/><text fill="#FFFFFF" font-family="sans-serif" font-size="14" lengthAdjust="spacing" textLength="349.3574" x="27" y="341.7285">void map(HasDescription source, HasDescription target)</text><rect fill="#F24D5C" height="6" style="stroke:#C82930;stroke-width:1;" width="6" x="15" y="353.0527"/><text fill="#FFFFFF" font-family="sans-serif" font-size="14" lengthAdjust="spacing" textLength="295.6953" x="27" y="360.3496">boolean isValid(HasDescription hasDescription)</text><rect fill="#F24D5C" height="6" style="stroke:#C82930;stroke-width:1;" width="6" x="15" y="371.6738"/><text fill="#FFFFFF" font-family="sans-serif" font-size="14" lengthAdjust="spacing" textLength="419.3848" x="27" y="378.9707">void mapDescription(HasDescription source, HasDescription target)</text></g><!--reverse link Validator to DescriptionValidator--><g class="link" data-entity-1="Validator" data-entity-2="DescriptionValidator" data-source-line="20" data-uid="lnk5" id="link_Validator_DescriptionValidator"><path d="M535,376.52 C535,402.35 535,419.9 535,445.77" fill="none" id="Validator-backto-DescriptionValidator" style="stroke:#B0C4DE;stroke-width:1;"/><polygon fill="none" points="535,358.52,529,376.52,541,376.52,535,358.52" style="stroke:#B0C4DE;stroke-width:1;"/></g><!--reverse link DescriptionValidator to NonBlankDescriptionValidator--><g class="link" data-entity-1="DescriptionValidator" data-entity-2="NonBlankDescriptionValidator" data-source-line="24" data-uid="lnk7" id="link_DescriptionValidator_NonBlankDescriptionValidator"><path d="M421.5,531.25 C421.5,548.96 421.5,553.05 421.5,572.91" fill="none" id="DescriptionValidator-backto-NonBlankDescriptionValidator" style="stroke:#B0C4DE;stroke-width:1;stroke-dasharray:7,7;"/><polygon fill="none" points="421.5,513.25,415.5,531.25,427.5,531.25,421.5,513.25" style="stroke:#B0C4DE;stroke-width:1;"/></g><!--reverse link Mapper to DescriptionMapper--><g class="link" data-entity-1="Mapper" data-entity-2="DescriptionMapper" data-source-line="21" data-uid="lnk9" id="link_Mapper_DescriptionMapper"><path d="M229.5,95.2 C229.5,113.57 229.5,118.25 229.5,136.64" fill="none" id="Mapper-backto-DescriptionMapper" style="stroke:#B0C4DE;stroke-width:1;"/><polygon fill="none" points="229.5,77.2,223.5,95.2,235.5,95.2,229.5,77.2" style="stroke:#B0C4DE;stroke-width:1;"/></g><!--reverse link DescriptionMapper to ValidatedDescriptionMapper--><g class="link" data-entity-1="DescriptionMapper" data-entity-2="ValidatedDescriptionMapper" data-source-line="25" data-uid="lnk11" id="link_DescriptionMapper_ValidatedDescriptionMapper"><path d="M229.5,222.02 C229.5,239.51 229.5,243.45 229.5,263.82" fill="none" id="DescriptionMapper-backto-ValidatedDescriptionMapper" style="stroke:#B0C4DE;stroke-width:1;stroke-dasharray:7,7;"/><polygon fill="none" points="229.5,204.02,223.5,222.02,235.5,222.02,229.5,204.02" style="stroke:#B0C4DE;stroke-width:1;"/></g><!--link ValidatedDescriptionMapper to DescriptionValidator--><g class="link" data-entity-1="ValidatedDescriptionMapper" data-entity-2="DescriptionValidator" data-source-line="32" data-uid="lnk12" id="link_ValidatedDescriptionMapper_DescriptionValidator"><path codeLine="32" d="M356.25,386.06 C356.25,406.47 356.25,422.46 356.25,439.98" fill="none" id="ValidatedDescriptionMapper-to-DescriptionValidator" style="stroke:#B0C4DE;stroke-width:1;"/><polygon fill="#B0C4DE" points="356.25,445.98,360.25,436.98,356.25,440.98,352.25,436.98,356.25,445.98" style="stroke:#B0C4DE;stroke-width:1;"/></g><!--SRC=[fL9DJyCm3BtdLnXn0S7GG1mu8NLVuh8RukubNXSjZQCaPI34VwTPEyYwYGaHIv7w_Fpyx3IijNNeiGAZBSLtHy0-hbY4xyG2vRhqN5irPiCUpc-dAJA6eYNM9ZxJMooCBcr5De9iBl8Pg_2UDvt4Q3Y-d-GIOOMADzgMi4GJAClCsCQkQhOzMKuQ3E4aeOZHwqKTwIHpJitewf3Mvy6701Zrzt8tIP4ox1Nv3dqeKZHe9ZiTfX2VGfnfAqsj2ERe7FaRLrVc1vnGa5wxgDc-eD4A8tSKeTDsboZtIAq8DEz0LeLESsiMu0fUMIkeq5qyOSYA873j9Lr33uxeIugNoMKxT6U1r657NJb3wTd34Jjj_y7HQPf_vn0K_pFSTbim6q8BEcnr-nghlSzTqQvZblhxjdxPqs3mU7GDNm00]--></g></svg>