<svg xmlns="http://www.w3.org/2000/svg" contentStyleType="text/css" data-diagram-type="CLASS" height="356px"
     preserveAspectRatio="none" style="width:369px;height:356px;background:#1E1E1E;" version="1.1" viewBox="0 0 369 356"
     width="369px" zoomAndPan="magnify"><defs/><g><rect fill="#1E1E1E" height="356" style="stroke:none;stroke-width:1;" width="369" x="0" y="0"/><!--class ToValueMapper--><g class="entity" data-entity="ToValueMapper" data-source-line="17" data-uid="ent0002" id="entity_ToValueMapper"><rect fill="#2D2D2D" height="66.6211" rx="2.5" ry="2.5" style="stroke:#8A8A8A;stroke-width:0.5;" width="244.668" x="62" y="10"/><ellipse cx="92.1532" cy="26" fill="#B4A7E5" rx="11" ry="11" style="stroke:#181818;stroke-width:1;"/><path d="M93.1063,22.6406 L93.1063,29.2969 L94.8251,29.2969 Q95.4345,29.2969 95.7001,29.5313 Q95.9657,29.7656 95.9657,30.1563 Q95.9657,30.5313 95.7001,30.7656 Q95.4345,31 94.8251,31 L89.6845,31 Q89.0751,31 88.8095,30.7656 Q88.5438,30.5313 88.5438,30.1406 Q88.5438,29.7656 88.8095,29.5313 Q89.0751,29.2969 89.6845,29.2969 L91.4032,29.2969 L91.4032,22.6406 L89.6845,22.6406 Q89.0751,22.6406 88.8095,22.4063 Q88.5438,22.1719 88.5438,21.7813 Q88.5438,21.4063 88.8095,21.1719 Q89.0751,20.9375 89.6845,20.9375 L94.8251,20.9375 Q95.4345,20.9375 95.7001,21.1719 Q95.9657,21.4063 95.9657,21.7813 Q95.9657,22.1719 95.7001,22.4063 Q95.4345,22.6406 94.8251,22.6406 L93.1063,22.6406 Z " fill="#000000"/><text fill="#E0E0E0" font-family="sans-serif" font-size="14" font-style="italic" lengthAdjust="spacing" textLength="99.6133" x="109.5206" y="31.7969">ToValueMapper</text><rect fill="#2D2D2D" height="17.9609" style="stroke:#8A8A8A;stroke-width:1;stroke-dasharray:2,2;" width="77.3809" x="232.2871" y="7"/><text fill="#000000" font-family="sans-serif" font-size="12" font-style="italic" lengthAdjust="spacing" textLength="75.3809" x="233.2871" y="20.9492">Source, Value</text><line style="stroke:#8A8A8A;stroke-width:0.5;" x1="63" x2="305.668" y1="42" y2="42"/><line style="stroke:#8A8A8A;stroke-width:0.5;" x1="63" x2="305.668" y1="50" y2="50"/><ellipse cx="73" cy="64.8105" fill="#84BE84" rx="3" ry="3" style="stroke:#038048;stroke-width:1;"/><text fill="#FFFFFF" font-family="sans-serif" font-size="14" lengthAdjust="spacing" textLength="218.668" x="82" y="69.1074">Value mapToValue(Source source)</text></g><!--class DifficultyDTOToDifficultyMapper--><g class="entity" data-entity="DifficultyDTOToDifficultyMapper" data-source-line="19" data-uid="ent0003" id="entity_DifficultyDTOToDifficultyMapper"><rect fill="#2D2D2D" height="66.6211" rx="2.5" ry="2.5" style="stroke:#8A8A8A;stroke-width:0.5;" width="337.9512" x="15.5" y="137"/><ellipse cx="80.6499" cy="153" fill="#B4A7E5" rx="11" ry="11" style="stroke:#181818;stroke-width:1;"/><path d="M81.603,149.6406 L81.603,156.2969 L83.3218,156.2969 Q83.9312,156.2969 84.1968,156.5313 Q84.4624,156.7656 84.4624,157.1563 Q84.4624,157.5313 84.1968,157.7656 Q83.9312,158 83.3218,158 L78.1812,158 Q77.5718,158 77.3062,157.7656 Q77.0405,157.5313 77.0405,157.1406 Q77.0405,156.7656 77.3062,156.5313 Q77.5718,156.2969 78.1812,156.2969 L79.8999,156.2969 L79.8999,149.6406 L78.1812,149.6406 Q77.5718,149.6406 77.3062,149.4063 Q77.0405,149.1719 77.0405,148.7813 Q77.0405,148.4063 77.3062,148.1719 Q77.5718,147.9375 78.1812,147.9375 L83.3218,147.9375 Q83.9312,147.9375 84.1968,148.1719 Q84.4624,148.4063 84.4624,148.7813 Q84.4624,149.1719 84.1968,149.4063 Q83.9312,149.6406 83.3218,149.6406 L81.603,149.6406 Z " fill="#000000"/><text fill="#E0E0E0" font-family="sans-serif" font-size="14" font-style="italic" lengthAdjust="spacing" textLength="199.1514" x="101.1499" y="158.7969">DifficultyDTOToDifficultyMapper</text><line style="stroke:#8A8A8A;stroke-width:0.5;" x1="16.5" x2="352.4512" y1="169" y2="169"/><line style="stroke:#8A8A8A;stroke-width:0.5;" x1="16.5" x2="352.4512" y1="177" y2="177"/><ellipse cx="26.5" cy="191.8105" fill="#84BE84" rx="3" ry="3" style="stroke:#038048;stroke-width:1;"/><text fill="#FFFFFF" font-family="sans-serif" font-size="14" lengthAdjust="spacing" textLength="311.9512" x="35.5" y="196.1074">Difficulty mapToValue(DifficultyDTO difficultyDTO)</text></g><!--class SimpleDifficultyDTOToDifficultyMapper--><g class="entity" data-entity="SimpleDifficultyDTOToDifficultyMapper" data-source-line="23" data-uid="ent0005" id="entity_SimpleDifficultyDTOToDifficultyMapper"><rect fill="#2D2D2D" height="85.2422" rx="2.5" ry="2.5" style="stroke:#8A8A8A;stroke-width:0.5;" width="355.041" x="7" y="264"/><ellipse cx="59.2983" cy="280" fill="#ADD1B2" rx="11" ry="11" style="stroke:#181818;stroke-width:1;"/><path d="M62.064,275.875 Q62.2202,275.6563 62.4077,275.5469 Q62.5952,275.4375 62.814,275.4375 Q63.189,275.4375 63.4233,275.7031 Q63.6577,275.9531 63.6577,276.5625 L63.6577,278.0156 Q63.6577,278.625 63.4233,278.8906 Q63.189,279.1563 62.814,279.1563 Q62.4702,279.1563 62.2671,278.9531 Q62.064,278.7656 61.9546,278.25 Q61.9077,277.8906 61.7202,277.7031 Q61.3921,277.3281 60.7827,277.1094 Q60.1733,276.8906 59.5483,276.8906 Q58.7827,276.8906 58.1421,277.2188 Q57.5171,277.5469 57.0171,278.2969 Q56.5327,279.0469 56.5327,280.0781 L56.5327,281.1719 Q56.5327,282.4063 57.4233,283.2344 Q58.314,284.0469 59.9077,284.0469 Q60.8452,284.0469 61.5015,283.7969 Q61.8921,283.6406 62.314,283.2031 Q62.5796,282.9375 62.7202,282.8594 Q62.8765,282.7813 63.0796,282.7813 Q63.4077,282.7813 63.6577,283.0469 Q63.9233,283.2969 63.9233,283.6406 Q63.9233,283.9844 63.5796,284.3906 Q63.0796,284.9688 62.2827,285.2969 Q61.2046,285.75 59.9077,285.75 Q58.3921,285.75 57.189,285.125 Q56.2046,284.625 55.5171,283.5625 Q54.8296,282.4844 54.8296,281.2031 L54.8296,280.0469 Q54.8296,278.7188 55.439,277.5781 Q56.064,276.4219 57.1577,275.8125 Q58.2515,275.1875 59.4858,275.1875 Q60.2202,275.1875 60.8608,275.3594 Q61.5171,275.5156 62.064,275.875 Z " fill="#000000"/><text fill="#E0E0E0" font-family="sans-serif" font-size="14" lengthAdjust="spacing" textLength="241.9443" x="79.7983" y="285.7969">SimpleDifficultyDTOToDifficultyMapper</text><line style="stroke:#8A8A8A;stroke-width:0.5;" x1="8" x2="361.041" y1="296" y2="296"/><line style="stroke:#8A8A8A;stroke-width:0.5;" x1="8" x2="361.041" y1="304" y2="304"/><ellipse cx="18" cy="318.8105" fill="#84BE84" rx="3" ry="3" style="stroke:#038048;stroke-width:1;"/><text fill="#FFFFFF" font-family="sans-serif" font-size="14" lengthAdjust="spacing" textLength="311.9512" x="27" y="323.1074">Difficulty mapToValue(DifficultyDTO difficultyDTO)</text><rect fill="#F24D5C" height="6" style="stroke:#C82930;stroke-width:1;" width="6" x="15" y="334.4316"/><text fill="#FFFFFF" font-family="sans-serif" font-size="14" lengthAdjust="spacing" textLength="329.041" x="27" y="341.7285">Difficulty mapToDifficulty(DifficultyDTO difficultyDTO)</text></g><!--reverse link ToValueMapper to DifficultyDTOToDifficultyMapper--><g class="link" data-entity-1="ToValueMapper" data-entity-2="DifficultyDTOToDifficultyMapper" data-source-line="20" data-uid="lnk4" id="link_ToValueMapper_DifficultyDTOToDifficultyMapper"><path d="M184.5,95.2 C184.5,113.57 184.5,118.25 184.5,136.64" fill="none" id="ToValueMapper-backto-DifficultyDTOToDifficultyMapper" style="stroke:#B0C4DE;stroke-width:1;"/><polygon fill="none" points="184.5,77.2,178.5,95.2,190.5,95.2,184.5,77.2" style="stroke:#B0C4DE;stroke-width:1;"/></g><!--reverse link DifficultyDTOToDifficultyMapper to SimpleDifficultyDTOToDifficultyMapper--><g class="link" data-entity-1="DifficultyDTOToDifficultyMapper" data-entity-2="SimpleDifficultyDTOToDifficultyMapper" data-source-line="24" data-uid="lnk6" id="link_DifficultyDTOToDifficultyMapper_SimpleDifficultyDTOToDifficultyMapper"><path d="M184.5,222.12 C184.5,240.13 184.5,244.51 184.5,263.75" fill="none" id="DifficultyDTOToDifficultyMapper-backto-SimpleDifficultyDTOToDifficultyMapper" style="stroke:#B0C4DE;stroke-width:1;stroke-dasharray:7,7;"/><polygon fill="none" points="184.5,204.12,178.5,222.12,190.5,222.12,184.5,204.12" style="stroke:#B0C4DE;stroke-width:1;"/></g><!--SRC=[fP4zJmCn38Rt_0eZ5X025SJ0UksrMyN0YJrDVDUe-PAJg5I8_yxbUg9fEzn0B4Mo_VYDxOITifuJDw2LnNZm28xYrh7mbzXmiUl89IiNJZk2s-TbjeAGsFAaOuDViTAgimPj1D5VI0LL4RdzA36VBLxhKY9ikNHxPJjekGvOP5REnh5gDPmY9pGFOHAeOYIrIH4doJNseyjhx9A3RmOmlzpBIvqjPnn9f37wLcNheuNiSfQD_J1sewpGII8qxfFhX6lkFTAJJqOpfl86MouGQjMsIlGxFjJDU-DExf67VlDePJXN6Re4U2YgmN0_CdTdcY1BxpwtTfpqGnclSUhz0ShV7YPR_KTJkV3ngl3aJupq2m00]--></g></svg>