<svg xmlns="http://www.w3.org/2000/svg" contentStyleType="text/css" data-diagram-type="CLASS" height="366px"
     preserveAspectRatio="none" style="width:451px;height:366px;background:#1E1E1E;" version="1.1" viewBox="0 0 451 366"
     width="451px" zoomAndPan="magnify"><defs/><g><rect fill="#1E1E1E" height="366" style="stroke:none;stroke-width:1;" width="451" x="0" y="0"/><!--class Validator--><g class="entity" data-entity="Validator" data-source-line="17" data-uid="ent0002" id="entity_Validator"><rect fill="#2D2D2D" height="65.1514" rx="2.5" ry="2.5" style="stroke:#8A8A8A;stroke-width:0.5;" width="254.0127" x="99" y="10"/><ellipse cx="166.1162" cy="26" fill="#B4A7E5" rx="11" ry="11" style="stroke:#181818;stroke-width:1;"/><path d="M167.0693,22.6406 L167.0693,29.2969 L168.7881,29.2969 Q169.3975,29.2969 169.6631,29.5313 Q169.9287,29.7656 169.9287,30.1563 Q169.9287,30.5313 169.6631,30.7656 Q169.3975,31 168.7881,31 L163.6475,31 Q163.0381,31 162.7725,30.7656 Q162.5068,30.5313 162.5068,30.1406 Q162.5068,29.7656 162.7725,29.5313 Q163.0381,29.2969 163.6475,29.2969 L165.3662,29.2969 L165.3662,22.6406 L163.6475,22.6406 Q163.0381,22.6406 162.7725,22.4063 Q162.5068,22.1719 162.5068,21.7813 Q162.5068,21.4063 162.7725,21.1719 Q163.0381,20.9375 163.6475,20.9375 L168.7881,20.9375 Q169.3975,20.9375 169.6631,21.1719 Q169.9287,21.4063 169.9287,21.7813 Q169.9287,22.1719 169.6631,22.4063 Q169.3975,22.6406 168.7881,22.6406 L167.0693,22.6406 Z " fill="#000000"/><text fill="#E0E0E0" font-family="sans-serif" font-size="14" font-style="italic" lengthAdjust="spacing" textLength="55.2549" x="186.6162" y="31.4995">Validator</text><rect fill="#2D2D2D" height="16.7012" style="stroke:#8A8A8A;stroke-width:1;stroke-dasharray:2,2;" width="54.0254" x="301.9873" y="7"/><text fill="#000000" font-family="sans-serif" font-size="12" font-style="italic" lengthAdjust="spacing" textLength="52.0254" x="302.9873" y="20.0645">Argument</text><line style="stroke:#8A8A8A;stroke-width:0.5;" x1="100" x2="352.0127" y1="42" y2="42"/><line style="stroke:#8A8A8A;stroke-width:0.5;" x1="100" x2="352.0127" y1="50" y2="50"/><ellipse cx="110" cy="64.0757" fill="#84BE84" rx="3" ry="3" style="stroke:#038048;stroke-width:1;"/><text fill="#FFFFFF" font-family="sans-serif" font-size="14" lengthAdjust="spacing" textLength="228.0127" x="119" y="68.0752">boolean isValid(Argument argument)</text></g><!--class ImageValidator--><g class="entity" data-entity="ImageValidator" data-source-line="19" data-uid="ent0003" id="entity_ImageValidator"><rect fill="#2D2D2D" height="65.1514" rx="2.5" ry="2.5" style="stroke:#8A8A8A;stroke-width:0.5;" width="259.4609" x="96.5" y="135"/><ellipse cx="174.8979" cy="151" fill="#B4A7E5" rx="11" ry="11" style="stroke:#181818;stroke-width:1;"/><path d="M175.8511,147.6406 L175.8511,154.2969 L177.5698,154.2969 Q178.1792,154.2969 178.4448,154.5313 Q178.7104,154.7656 178.7104,155.1563 Q178.7104,155.5313 178.4448,155.7656 Q178.1792,156 177.5698,156 L172.4292,156 Q171.8198,156 171.5542,155.7656 Q171.2886,155.5313 171.2886,155.1406 Q171.2886,154.7656 171.5542,154.5313 Q171.8198,154.2969 172.4292,154.2969 L174.1479,154.2969 L174.1479,147.6406 L172.4292,147.6406 Q171.8198,147.6406 171.5542,147.4063 Q171.2886,147.1719 171.2886,146.7813 Q171.2886,146.4063 171.5542,146.1719 Q171.8198,145.9375 172.4292,145.9375 L177.5698,145.9375 Q178.1792,145.9375 178.4448,146.1719 Q178.7104,146.4063 178.7104,146.7813 Q178.7104,147.1719 178.4448,147.4063 Q178.1792,147.6406 177.5698,147.6406 L175.8511,147.6406 Z " fill="#000000"/><text fill="#E0E0E0" font-family="sans-serif" font-size="14" font-style="italic" lengthAdjust="spacing" textLength="94.165" x="195.3979" y="156.4995">ImageValidator</text><line style="stroke:#8A8A8A;stroke-width:0.5;" x1="97.5" x2="354.9609" y1="167" y2="167"/><line style="stroke:#8A8A8A;stroke-width:0.5;" x1="97.5" x2="354.9609" y1="175" y2="175"/><ellipse cx="107.5" cy="189.0757" fill="#84BE84" rx="3" ry="3" style="stroke:#038048;stroke-width:1;"/><text fill="#FFFFFF" font-family="sans-serif" font-size="14" lengthAdjust="spacing" textLength="233.4609" x="116.5" y="193.0752">boolean isValid(HasImage hasImage)</text></g><!--class FiveMegaBytesImageValidator--><g class="entity" data-entity="FiveMegaBytesImageValidator" data-source-line="23" data-uid="ent0005" id="entity_FiveMegaBytesImageValidator"><rect fill="#2D2D2D" height="99.4541" rx="2.5" ry="2.5" style="stroke:#8A8A8A;stroke-width:0.5;" width="437.6533" x="7" y="260"/><ellipse cx="126.2529" cy="276" fill="#ADD1B2" rx="11" ry="11" style="stroke:#181818;stroke-width:1;"/><path d="M129.0186,271.875 Q129.1748,271.6563 129.3623,271.5469 Q129.5498,271.4375 129.7686,271.4375 Q130.1436,271.4375 130.3779,271.7031 Q130.6123,271.9531 130.6123,272.5625 L130.6123,274.0156 Q130.6123,274.625 130.3779,274.8906 Q130.1436,275.1563 129.7686,275.1563 Q129.4248,275.1563 129.2217,274.9531 Q129.0186,274.7656 128.9092,274.25 Q128.8623,273.8906 128.6748,273.7031 Q128.3467,273.3281 127.7373,273.1094 Q127.1279,272.8906 126.5029,272.8906 Q125.7373,272.8906 125.0967,273.2188 Q124.4717,273.5469 123.9717,274.2969 Q123.4873,275.0469 123.4873,276.0781 L123.4873,277.1719 Q123.4873,278.4063 124.3779,279.2344 Q125.2686,280.0469 126.8623,280.0469 Q127.7998,280.0469 128.4561,279.7969 Q128.8467,279.6406 129.2686,279.2031 Q129.5342,278.9375 129.6748,278.8594 Q129.8311,278.7813 130.0342,278.7813 Q130.3623,278.7813 130.6123,279.0469 Q130.8779,279.2969 130.8779,279.6406 Q130.8779,279.9844 130.5342,280.3906 Q130.0342,280.9688 129.2373,281.2969 Q128.1592,281.75 126.8623,281.75 Q125.3467,281.75 124.1436,281.125 Q123.1592,280.625 122.4717,279.5625 Q121.7842,278.4844 121.7842,277.2031 L121.7842,276.0469 Q121.7842,274.7188 122.3936,273.5781 Q123.0186,272.4219 124.1123,271.8125 Q125.2061,271.1875 126.4404,271.1875 Q127.1748,271.1875 127.8154,271.3594 Q128.4717,271.5156 129.0186,271.875 Z " fill="#000000"/><text fill="#E0E0E0" font-family="sans-serif" font-size="14" lengthAdjust="spacing" textLength="190.6475" x="146.7529" y="281.4995">FiveMegaBytesImageValidator</text><line style="stroke:#8A8A8A;stroke-width:0.5;" x1="8" x2="443.6533" y1="292" y2="292"/><rect fill="none" height="6" style="stroke:#C82930;stroke-width:1;" width="6" x="15" y="303.0757"/><text fill="#FFFFFF" font-family="sans-serif" font-size="14" lengthAdjust="spacing" textLength="286.7676" x="27" y="310.0752">String FIVE_MEGA_BYTES = 5 * 1024 * 1024</text><line style="stroke:#8A8A8A;stroke-width:0.5;" x1="8" x2="443.6533" y1="317.1514" y2="317.1514"/><ellipse cx="18" cy="331.2271" fill="#84BE84" rx="3" ry="3" style="stroke:#038048;stroke-width:1;"/><text fill="#FFFFFF" font-family="sans-serif" font-size="14" lengthAdjust="spacing" textLength="233.4609" x="27" y="335.2266">boolean isValid(HasImage hasImage)</text><rect fill="#F24D5C" height="6" style="stroke:#C82930;stroke-width:1;" width="6" x="15" y="345.3784"/><text fill="#FFFFFF" font-family="sans-serif" font-size="14" lengthAdjust="spacing" textLength="411.6533" x="27" y="352.3779">boolean hasImageSizeUpToFiveMegaBytes(HasImage hasImage)</text></g><!--reverse link Validator to ImageValidator--><g class="link" data-entity-1="Validator" data-entity-2="ImageValidator" data-source-line="20" data-uid="lnk4" id="link_Validator_ImageValidator"><path d="M226,93.02 C226,111.39 226,116.29 226,134.71" fill="none" id="Validator-backto-ImageValidator" style="stroke:#B0C4DE;stroke-width:1;"/><polygon fill="none" points="226,75.02,220,93.02,232,93.02,226,75.02" style="stroke:#B0C4DE;stroke-width:1;"/></g><!--reverse link ImageValidator to FiveMegaBytesImageValidator--><g class="link" data-entity-1="ImageValidator" data-entity-2="FiveMegaBytesImageValidator" data-source-line="24" data-uid="lnk6" id="link_ImageValidator_FiveMegaBytesImageValidator"><path d="M226,218.08 C226,235.76 226,240 226,259.8" fill="none" id="ImageValidator-backto-FiveMegaBytesImageValidator" style="stroke:#B0C4DE;stroke-width:1;stroke-dasharray:7,7;"/><polygon fill="none" points="226,200.08,220,218.08,232,218.08,226,200.08" style="stroke:#B0C4DE;stroke-width:1;"/></g><!--SRC=[ZL7BJiCm4BpxAnPnuI5GMnM92uUaJQ27dbegSQgsyJQrwjYHxL0Auj-9axI4W5IyactjpCw-x5Qe70rc88KYjyy9j74RpUmHM66oJOqk51zfgGsSzoDlBGQdDHRIpUdD1LAaAYFb82alCYrMO8pUDH9XRpGSjoNi1hdU2PN26gMb5X9hvPgek3ejB95exKb2u9mHgyBHIUQKojRvRrgN1nyC8EpEPJ3svX5jE9d6UnzuAxqjsQZdZNqoTYPK8WjEi40fE3fjRlCYaum9Fxqr9WIJ35Cwmb0EcHIttm5LCG3NiD9Q4YeGji8kdj1MiR1fFfS-Ozr0B5vfIYc6UqUsaq5akII_GzlDNMUwWLavq79LyMGHBQVHOx0CN-RH31xW3gwWtniCcuVzlx9Q-40y-6VYdPxpkVvHxf-DVG40]--></g></svg>