<svg xmlns="http://www.w3.org/2000/svg" contentStyleType="text/css" data-diagram-type="CLASS" height="668px"
     preserveAspectRatio="none" style="width:629px;height:668px;background:#1E1E1E;" version="1.1" viewBox="0 0 629 668"
     width="629px" zoomAndPan="magnify"><defs/><g><rect fill="#1E1E1E" height="668" style="stroke:none;stroke-width:1;" width="629" x="0" y="0"/><!--class Mapper--><g class="entity" data-entity="Mapper" data-source-line="17" data-uid="ent0002" id="entity_Mapper"><rect fill="#2D2D2D" height="65.1514" rx="2.5" ry="2.5" style="stroke:#8A8A8A;stroke-width:0.5;" width="270.3301" x="33" y="10"/><ellipse cx="98.4951" cy="26" fill="#B4A7E5" rx="11" ry="11" style="stroke:#181818;stroke-width:1;"/><path d="M99.4482,22.6406 L99.4482,29.2969 L101.167,29.2969 Q101.7764,29.2969 102.042,29.5313 Q102.3076,29.7656 102.3076,30.1563 Q102.3076,30.5313 102.042,30.7656 Q101.7764,31 101.167,31 L96.0264,31 Q95.417,31 95.1514,30.7656 Q94.8857,30.5313 94.8857,30.1406 Q94.8857,29.7656 95.1514,29.5313 Q95.417,29.2969 96.0264,29.2969 L97.7451,29.2969 L97.7451,22.6406 L96.0264,22.6406 Q95.417,22.6406 95.1514,22.4063 Q94.8857,22.1719 94.8857,21.7813 Q94.8857,21.4063 95.1514,21.1719 Q95.417,20.9375 96.0264,20.9375 L101.167,20.9375 Q101.7764,20.9375 102.042,21.1719 Q102.3076,21.4063 102.3076,21.7813 Q102.3076,22.1719 102.042,22.4063 Q101.7764,22.6406 101.167,22.6406 L99.4482,22.6406 Z " fill="#000000"/><text fill="#E0E0E0" font-family="sans-serif" font-size="14" font-style="italic" lengthAdjust="spacing" textLength="47.4688" x="118.9951" y="31.4995">Mapper</text><rect fill="#2D2D2D" height="16.7012" style="stroke:#8A8A8A;stroke-width:1;stroke-dasharray:2,2;" width="81.3711" x="224.959" y="7"/><text fill="#000000" font-family="sans-serif" font-size="12" font-style="italic" lengthAdjust="spacing" textLength="79.3711" x="225.959" y="20.0645">Source, Target</text><line style="stroke:#8A8A8A;stroke-width:0.5;" x1="34" x2="302.3301" y1="42" y2="42"/><line style="stroke:#8A8A8A;stroke-width:0.5;" x1="34" x2="302.3301" y1="50" y2="50"/><ellipse cx="44" cy="64.0757" fill="#84BE84" rx="3" ry="3" style="stroke:#038048;stroke-width:1;"/><text fill="#FFFFFF" font-family="sans-serif" font-size="14" lengthAdjust="spacing" textLength="244.3301" x="53" y="68.0752">void map(Source source, Target target)</text></g><!--class Validator--><g class="entity" data-entity="Validator" data-source-line="17" data-uid="ent0003" id="entity_Validator"><rect fill="#2D2D2D" height="65.1514" rx="2.5" ry="2.5" style="stroke:#8A8A8A;stroke-width:0.5;" width="254.0127" x="364" y="286"/><ellipse cx="431.1162" cy="302" fill="#B4A7E5" rx="11" ry="11" style="stroke:#181818;stroke-width:1;"/><path d="M432.0693,298.6406 L432.0693,305.2969 L433.7881,305.2969 Q434.3975,305.2969 434.6631,305.5313 Q434.9287,305.7656 434.9287,306.1563 Q434.9287,306.5313 434.6631,306.7656 Q434.3975,307 433.7881,307 L428.6475,307 Q428.0381,307 427.7725,306.7656 Q427.5068,306.5313 427.5068,306.1406 Q427.5068,305.7656 427.7725,305.5313 Q428.0381,305.2969 428.6475,305.2969 L430.3662,305.2969 L430.3662,298.6406 L428.6475,298.6406 Q428.0381,298.6406 427.7725,298.4063 Q427.5068,298.1719 427.5068,297.7813 Q427.5068,297.4063 427.7725,297.1719 Q428.0381,296.9375 428.6475,296.9375 L433.7881,296.9375 Q434.3975,296.9375 434.6631,297.1719 Q434.9287,297.4063 434.9287,297.7813 Q434.9287,298.1719 434.6631,298.4063 Q434.3975,298.6406 433.7881,298.6406 L432.0693,298.6406 Z " fill="#000000"/><text fill="#E0E0E0" font-family="sans-serif" font-size="14" font-style="italic" lengthAdjust="spacing" textLength="55.2549" x="451.6162" y="307.4995">Validator</text><rect fill="#2D2D2D" height="16.7012" style="stroke:#8A8A8A;stroke-width:1;stroke-dasharray:2,2;" width="54.0254" x="566.9873" y="283"/><text fill="#000000" font-family="sans-serif" font-size="12" font-style="italic" lengthAdjust="spacing" textLength="52.0254" x="567.9873" y="296.0645">Argument</text><line style="stroke:#8A8A8A;stroke-width:0.5;" x1="365" x2="617.0127" y1="318" y2="318"/><line style="stroke:#8A8A8A;stroke-width:0.5;" x1="365" x2="617.0127" y1="326" y2="326"/><ellipse cx="375" cy="340.0757" fill="#84BE84" rx="3" ry="3" style="stroke:#038048;stroke-width:1;"/><text fill="#FFFFFF" font-family="sans-serif" font-size="14" lengthAdjust="spacing" textLength="228.0127" x="384" y="344.0752">boolean isValid(Argument argument)</text></g><!--class ImageValidator--><g class="entity" data-entity="ImageValidator" data-source-line="19" data-uid="ent0004" id="entity_ImageValidator"><rect fill="#2D2D2D" height="65.1514" rx="2.5" ry="2.5" style="stroke:#8A8A8A;stroke-width:0.5;" width="259.4609" x="199.5" y="437"/><ellipse cx="277.8979" cy="453" fill="#B4A7E5" rx="11" ry="11" style="stroke:#181818;stroke-width:1;"/><path d="M278.8511,449.6406 L278.8511,456.2969 L280.5698,456.2969 Q281.1792,456.2969 281.4448,456.5313 Q281.7104,456.7656 281.7104,457.1563 Q281.7104,457.5313 281.4448,457.7656 Q281.1792,458 280.5698,458 L275.4292,458 Q274.8198,458 274.5542,457.7656 Q274.2886,457.5313 274.2886,457.1406 Q274.2886,456.7656 274.5542,456.5313 Q274.8198,456.2969 275.4292,456.2969 L277.1479,456.2969 L277.1479,449.6406 L275.4292,449.6406 Q274.8198,449.6406 274.5542,449.4063 Q274.2886,449.1719 274.2886,448.7813 Q274.2886,448.4063 274.5542,448.1719 Q274.8198,447.9375 275.4292,447.9375 L280.5698,447.9375 Q281.1792,447.9375 281.4448,448.1719 Q281.7104,448.4063 281.7104,448.7813 Q281.7104,449.1719 281.4448,449.4063 Q281.1792,449.6406 280.5698,449.6406 L278.8511,449.6406 Z " fill="#000000"/><text fill="#E0E0E0" font-family="sans-serif" font-size="14" font-style="italic" lengthAdjust="spacing" textLength="94.165" x="298.3979" y="458.4995">ImageValidator</text><line style="stroke:#8A8A8A;stroke-width:0.5;" x1="200.5" x2="457.9609" y1="469" y2="469"/><line style="stroke:#8A8A8A;stroke-width:0.5;" x1="200.5" x2="457.9609" y1="477" y2="477"/><ellipse cx="210.5" cy="491.0757" fill="#84BE84" rx="3" ry="3" style="stroke:#038048;stroke-width:1;"/><text fill="#FFFFFF" font-family="sans-serif" font-size="14" lengthAdjust="spacing" textLength="233.4609" x="219.5" y="495.0752">boolean isValid(HasImage hasImage)</text></g><!--class FiveMegaBytesImageValidator--><g class="entity" data-entity="FiveMegaBytesImageValidator" data-source-line="23" data-uid="ent0006" id="entity_FiveMegaBytesImageValidator"><rect fill="#2D2D2D" height="99.4541" rx="2.5" ry="2.5" style="stroke:#8A8A8A;stroke-width:0.5;" width="437.6533" x="110" y="562"/><ellipse cx="229.2529" cy="578" fill="#ADD1B2" rx="11" ry="11" style="stroke:#181818;stroke-width:1;"/><path d="M232.0186,573.875 Q232.1748,573.6563 232.3623,573.5469 Q232.5498,573.4375 232.7686,573.4375 Q233.1436,573.4375 233.3779,573.7031 Q233.6123,573.9531 233.6123,574.5625 L233.6123,576.0156 Q233.6123,576.625 233.3779,576.8906 Q233.1436,577.1563 232.7686,577.1563 Q232.4248,577.1563 232.2217,576.9531 Q232.0186,576.7656 231.9092,576.25 Q231.8623,575.8906 231.6748,575.7031 Q231.3467,575.3281 230.7373,575.1094 Q230.1279,574.8906 229.5029,574.8906 Q228.7373,574.8906 228.0967,575.2188 Q227.4717,575.5469 226.9717,576.2969 Q226.4873,577.0469 226.4873,578.0781 L226.4873,579.1719 Q226.4873,580.4063 227.3779,581.2344 Q228.2686,582.0469 229.8623,582.0469 Q230.7998,582.0469 231.4561,581.7969 Q231.8467,581.6406 232.2686,581.2031 Q232.5342,580.9375 232.6748,580.8594 Q232.8311,580.7813 233.0342,580.7813 Q233.3623,580.7813 233.6123,581.0469 Q233.8779,581.2969 233.8779,581.6406 Q233.8779,581.9844 233.5342,582.3906 Q233.0342,582.9688 232.2373,583.2969 Q231.1592,583.75 229.8623,583.75 Q228.3467,583.75 227.1436,583.125 Q226.1592,582.625 225.4717,581.5625 Q224.7842,580.4844 224.7842,579.2031 L224.7842,578.0469 Q224.7842,576.7188 225.3936,575.5781 Q226.0186,574.4219 227.1123,573.8125 Q228.2061,573.1875 229.4404,573.1875 Q230.1748,573.1875 230.8154,573.3594 Q231.4717,573.5156 232.0186,573.875 Z " fill="#000000"/><text fill="#E0E0E0" font-family="sans-serif" font-size="14" lengthAdjust="spacing" textLength="190.6475" x="249.7529" y="583.4995">FiveMegaBytesImageValidator</text><line style="stroke:#8A8A8A;stroke-width:0.5;" x1="111" x2="546.6533" y1="594" y2="594"/><rect fill="none" height="6" style="stroke:#C82930;stroke-width:1;" width="6" x="118" y="605.0757"/><text fill="#FFFFFF" font-family="sans-serif" font-size="14" lengthAdjust="spacing" textLength="286.7676" x="130" y="612.0752">String FIVE_MEGA_BYTES = 5 * 1024 * 1024</text><line style="stroke:#8A8A8A;stroke-width:0.5;" x1="111" x2="546.6533" y1="619.1514" y2="619.1514"/><ellipse cx="121" cy="633.2271" fill="#84BE84" rx="3" ry="3" style="stroke:#038048;stroke-width:1;"/><text fill="#FFFFFF" font-family="sans-serif" font-size="14" lengthAdjust="spacing" textLength="233.4609" x="130" y="637.2266">boolean isValid(HasImage hasImage)</text><rect fill="#F24D5C" height="6" style="stroke:#C82930;stroke-width:1;" width="6" x="118" y="647.3784"/><text fill="#FFFFFF" font-family="sans-serif" font-size="14" lengthAdjust="spacing" textLength="411.6533" x="130" y="654.3779">boolean hasImageSizeUpToFiveMegaBytes(HasImage hasImage)</text></g><!--class ImageMapper--><g class="entity" data-entity="ImageMapper" data-source-line="20" data-uid="ent0008" id="entity_ImageMapper"><rect fill="#2D2D2D" height="65.1514" rx="2.5" ry="2.5" style="stroke:#8A8A8A;stroke-width:0.5;" width="313.123" x="11.5" y="135"/><ellipse cx="120.6221" cy="151" fill="#B4A7E5" rx="11" ry="11" style="stroke:#181818;stroke-width:1;"/><path d="M121.5752,147.6406 L121.5752,154.2969 L123.2939,154.2969 Q123.9033,154.2969 124.1689,154.5313 Q124.4346,154.7656 124.4346,155.1563 Q124.4346,155.5313 124.1689,155.7656 Q123.9033,156 123.2939,156 L118.1533,156 Q117.5439,156 117.2783,155.7656 Q117.0127,155.5313 117.0127,155.1406 Q117.0127,154.7656 117.2783,154.5313 Q117.5439,154.2969 118.1533,154.2969 L119.8721,154.2969 L119.8721,147.6406 L118.1533,147.6406 Q117.5439,147.6406 117.2783,147.4063 Q117.0127,147.1719 117.0127,146.7813 Q117.0127,146.4063 117.2783,146.1719 Q117.5439,145.9375 118.1533,145.9375 L123.2939,145.9375 Q123.9033,145.9375 124.1689,146.1719 Q124.4346,146.4063 124.4346,146.7813 Q124.4346,147.1719 124.1689,147.4063 Q123.9033,147.6406 123.2939,147.6406 L121.5752,147.6406 Z " fill="#000000"/><text fill="#E0E0E0" font-family="sans-serif" font-size="14" font-style="italic" lengthAdjust="spacing" textLength="86.3789" x="141.1221" y="156.4995">ImageMapper</text><line style="stroke:#8A8A8A;stroke-width:0.5;" x1="12.5" x2="323.623" y1="167" y2="167"/><line style="stroke:#8A8A8A;stroke-width:0.5;" x1="12.5" x2="323.623" y1="175" y2="175"/><ellipse cx="22.5" cy="189.0757" fill="#84BE84" rx="3" ry="3" style="stroke:#038048;stroke-width:1;"/><text fill="#FFFFFF" font-family="sans-serif" font-size="14" lengthAdjust="spacing" textLength="287.123" x="31.5" y="193.0752">void map(HasImage source, HasImage target)</text></g><!--class ValidatedImageMapper--><g class="entity" data-entity="ValidatedImageMapper" data-source-line="24" data-uid="ent0010" id="entity_ValidatedImageMapper"><rect fill="#2D2D2D" height="116.6055" rx="2.5" ry="2.5" style="stroke:#8A8A8A;stroke-width:0.5;" width="322.4609" x="7" y="260"/><ellipse cx="91.6016" cy="276" fill="#ADD1B2" rx="11" ry="11" style="stroke:#181818;stroke-width:1;"/><path d="M94.3672,271.875 Q94.5234,271.6563 94.7109,271.5469 Q94.8984,271.4375 95.1172,271.4375 Q95.4922,271.4375 95.7266,271.7031 Q95.9609,271.9531 95.9609,272.5625 L95.9609,274.0156 Q95.9609,274.625 95.7266,274.8906 Q95.4922,275.1563 95.1172,275.1563 Q94.7734,275.1563 94.5703,274.9531 Q94.3672,274.7656 94.2578,274.25 Q94.2109,273.8906 94.0234,273.7031 Q93.6953,273.3281 93.0859,273.1094 Q92.4766,272.8906 91.8516,272.8906 Q91.0859,272.8906 90.4453,273.2188 Q89.8203,273.5469 89.3203,274.2969 Q88.8359,275.0469 88.8359,276.0781 L88.8359,277.1719 Q88.8359,278.4063 89.7266,279.2344 Q90.6172,280.0469 92.2109,280.0469 Q93.1484,280.0469 93.8047,279.7969 Q94.1953,279.6406 94.6172,279.2031 Q94.8828,278.9375 95.0234,278.8594 Q95.1797,278.7813 95.3828,278.7813 Q95.7109,278.7813 95.9609,279.0469 Q96.2266,279.2969 96.2266,279.6406 Q96.2266,279.9844 95.8828,280.3906 Q95.3828,280.9688 94.5859,281.2969 Q93.5078,281.75 92.2109,281.75 Q90.6953,281.75 89.4922,281.125 Q88.5078,280.625 87.8203,279.5625 Q87.1328,278.4844 87.1328,277.2031 L87.1328,276.0469 Q87.1328,274.7188 87.7422,273.5781 Q88.3672,272.4219 89.4609,271.8125 Q90.5547,271.1875 91.7891,271.1875 Q92.5234,271.1875 93.1641,271.3594 Q93.8203,271.5156 94.3672,271.875 Z " fill="#000000"/><text fill="#E0E0E0" font-family="sans-serif" font-size="14" lengthAdjust="spacing" textLength="144.7578" x="112.1016" y="281.4995">ValidatedImageMapper</text><line style="stroke:#8A8A8A;stroke-width:0.5;" x1="8" x2="328.4609" y1="292" y2="292"/><rect fill="none" height="6" style="stroke:#C82930;stroke-width:1;" width="6" x="15" y="303.0757"/><text fill="#FFFFFF" font-family="sans-serif" font-size="14" lengthAdjust="spacing" textLength="191.4404" x="27" y="310.0752">ImageValidator imageValidator</text><line style="stroke:#8A8A8A;stroke-width:0.5;" x1="8" x2="328.4609" y1="317.1514" y2="317.1514"/><ellipse cx="18" cy="331.2271" fill="#84BE84" rx="3" ry="3" style="stroke:#038048;stroke-width:1;"/><text fill="#FFFFFF" font-family="sans-serif" font-size="14" lengthAdjust="spacing" textLength="287.123" x="27" y="335.2266">void map(HasImage source, HasImage target)</text><rect fill="#F24D5C" height="6" style="stroke:#C82930;stroke-width:1;" width="6" x="15" y="345.3784"/><text fill="#FFFFFF" font-family="sans-serif" font-size="14" lengthAdjust="spacing" textLength="233.4609" x="27" y="352.3779">boolean isValid(HasImage hasImage)</text><rect fill="#F24D5C" height="6" style="stroke:#C82930;stroke-width:1;" width="6" x="15" y="362.5298"/><text fill="#FFFFFF" font-family="sans-serif" font-size="14" lengthAdjust="spacing" textLength="296.4609" x="27" y="369.5293">mapImage(HasImage source, HasImage target)</text></g><!--reverse link Validator to ImageValidator--><g class="link" data-entity-1="Validator" data-entity-2="ImageValidator" data-source-line="20" data-uid="lnk5" id="link_Validator_ImageValidator"><path d="M411.25,369.26 C411.25,394.59 411.25,411.49 411.25,436.8" fill="none" id="Validator-backto-ImageValidator" style="stroke:#B0C4DE;stroke-width:1;"/><polygon fill="none" points="411.25,351.26,405.25,369.26,417.25,369.26,411.25,351.26" style="stroke:#B0C4DE;stroke-width:1;"/></g><!--reverse link ImageValidator to FiveMegaBytesImageValidator--><g class="link" data-entity-1="ImageValidator" data-entity-2="FiveMegaBytesImageValidator" data-source-line="24" data-uid="lnk7" id="link_ImageValidator_FiveMegaBytesImageValidator"><path d="M329,520.08 C329,537.76 329,542 329,561.8" fill="none" id="ImageValidator-backto-FiveMegaBytesImageValidator" style="stroke:#B0C4DE;stroke-width:1;stroke-dasharray:7,7;"/><polygon fill="none" points="329,502.08,323,520.08,335,520.08,329,502.08" style="stroke:#B0C4DE;stroke-width:1;"/></g><!--reverse link Mapper to ImageMapper--><g class="link" data-entity-1="Mapper" data-entity-2="ImageMapper" data-source-line="21" data-uid="lnk9" id="link_Mapper_ImageMapper"><path d="M168,93.02 C168,111.39 168,116.29 168,134.71" fill="none" id="Mapper-backto-ImageMapper" style="stroke:#B0C4DE;stroke-width:1;"/><polygon fill="none" points="168,75.02,162,93.02,174,93.02,168,75.02" style="stroke:#B0C4DE;stroke-width:1;"/></g><!--reverse link ImageMapper to ValidatedImageMapper--><g class="link" data-entity-1="ImageMapper" data-entity-2="ValidatedImageMapper" data-source-line="25" data-uid="lnk11" id="link_ImageMapper_ValidatedImageMapper"><path d="M168,218.26 C168,235.7 168,239.67 168,259.92" fill="none" id="ImageMapper-backto-ValidatedImageMapper" style="stroke:#B0C4DE;stroke-width:1;stroke-dasharray:7,7;"/><polygon fill="none" points="168,200.26,162,218.26,174,218.26,168,200.26" style="stroke:#B0C4DE;stroke-width:1;"/></g><!--link ValidatedImageMapper to ImageValidator--><g class="link" data-entity-1="ValidatedImageMapper" data-entity-2="ImageValidator" data-source-line="32" data-uid="lnk12" id="link_ValidatedImageMapper_ImageValidator"><path codeLine="32" d="M264.25,377.31 C264.25,397.52 264.25,413.4 264.25,430.78" fill="none" id="ValidatedImageMapper-to-ImageValidator" style="stroke:#B0C4DE;stroke-width:1;"/><polygon fill="#B0C4DE" points="264.25,436.78,268.25,427.78,264.25,431.78,260.25,427.78,264.25,436.78" style="stroke:#B0C4DE;stroke-width:1;"/></g><!--SRC=[bL5DJyCm3BtdLnXn0S7GG1mu8NLVWiDkYBlNU5sqD8wIb84G_vsc3LieI8DQgXA_vsS_ns-LiUYm1gqCXJTBm2viMFWziC9oMpbkZ9ooPWUdr_CO6KFI6XiTdkWr55fLfYOJe6n_v39MuHplaiHaFBsTvH9-Wv9tobImHkqfGnPiGgfQT5-6bHgzFqeeGd1grGGwobnIQrt-f0rvy2u09iEztCnYH8IT99UoTqMCDfl9piSnn8SG9ygKkf44IxIMt9LjQdr8FjPOqJDg9J5m0eMAUrrZcU2-4DhTav4-wNG30bp02oi9DTgp1_GT7JmthgHBs2S2keh2UPocDvSQaiprLMqrnOVrtzhsVKQ3ILjsVXN_7wPNNJ5hGWFATrg7kaqwV15RqUx-Dvk_6XoDxWSkFW40]--></g></svg>