<svg xmlns="http://www.w3.org/2000/svg" contentStyleType="text/css" data-diagram-type="CLASS" height="374px"
     preserveAspectRatio="none" style="width:452px;height:374px;background:#1E1E1E;" version="1.1" viewBox="0 0 452 374"
     width="452px" zoomAndPan="magnify"><defs/><g><rect fill="#1E1E1E" height="374" style="stroke:none;stroke-width:1;" width="452" x="0" y="0"/><!--class Validator--><g class="entity" data-entity="Validator" data-source-line="17" data-uid="ent0002" id="entity_Validator"><rect fill="#2D2D2D" height="66.6211" rx="2.5" ry="2.5" style="stroke:#8A8A8A;stroke-width:0.5;" width="254.0127" x="99" y="10"/><ellipse cx="166.1162" cy="26" fill="#B4A7E5" rx="11" ry="11" style="stroke:#181818;stroke-width:1;"/><path d="M167.0693,22.6406 L167.0693,29.2969 L168.7881,29.2969 Q169.3975,29.2969 169.6631,29.5313 Q169.9287,29.7656 169.9287,30.1563 Q169.9287,30.5313 169.6631,30.7656 Q169.3975,31 168.7881,31 L163.6475,31 Q163.0381,31 162.7725,30.7656 Q162.5068,30.5313 162.5068,30.1406 Q162.5068,29.7656 162.7725,29.5313 Q163.0381,29.2969 163.6475,29.2969 L165.3662,29.2969 L165.3662,22.6406 L163.6475,22.6406 Q163.0381,22.6406 162.7725,22.4063 Q162.5068,22.1719 162.5068,21.7813 Q162.5068,21.4063 162.7725,21.1719 Q163.0381,20.9375 163.6475,20.9375 L168.7881,20.9375 Q169.3975,20.9375 169.6631,21.1719 Q169.9287,21.4063 169.9287,21.7813 Q169.9287,22.1719 169.6631,22.4063 Q169.3975,22.6406 168.7881,22.6406 L167.0693,22.6406 Z " fill="#000000"/><text fill="#E0E0E0" font-family="sans-serif" font-size="14" font-style="italic" lengthAdjust="spacing" textLength="55.2549" x="186.6162" y="31.7969">Validator</text><rect fill="#2D2D2D" height="17.9609" style="stroke:#8A8A8A;stroke-width:1;stroke-dasharray:2,2;" width="54.0254" x="301.9873" y="7"/><text fill="#000000" font-family="sans-serif" font-size="12" font-style="italic" lengthAdjust="spacing" textLength="52.0254" x="302.9873" y="20.9492">Argument</text><line style="stroke:#8A8A8A;stroke-width:0.5;" x1="100" x2="352.0127" y1="42" y2="42"/><line style="stroke:#8A8A8A;stroke-width:0.5;" x1="100" x2="352.0127" y1="50" y2="50"/><ellipse cx="110" cy="64.8105" fill="#84BE84" rx="3" ry="3" style="stroke:#038048;stroke-width:1;"/><text fill="#FFFFFF" font-family="sans-serif" font-size="14" lengthAdjust="spacing" textLength="228.0127" x="119" y="69.1074">boolean isValid(Argument argument)</text></g><!--class InstructionsValidator--><g class="entity" data-entity="InstructionsValidator" data-source-line="19" data-uid="ent0003" id="entity_InstructionsValidator"><rect fill="#2D2D2D" height="66.6211" rx="2.5" ry="2.5" style="stroke:#8A8A8A;stroke-width:0.5;" width="324.8125" x="63.5" y="137"/><ellipse cx="158.2358" cy="153" fill="#B4A7E5" rx="11" ry="11" style="stroke:#181818;stroke-width:1;"/><path d="M159.189,149.6406 L159.189,156.2969 L160.9077,156.2969 Q161.5171,156.2969 161.7827,156.5313 Q162.0483,156.7656 162.0483,157.1563 Q162.0483,157.5313 161.7827,157.7656 Q161.5171,158 160.9077,158 L155.7671,158 Q155.1577,158 154.8921,157.7656 Q154.6265,157.5313 154.6265,157.1406 Q154.6265,156.7656 154.8921,156.5313 Q155.1577,156.2969 155.7671,156.2969 L157.4858,156.2969 L157.4858,149.6406 L155.7671,149.6406 Q155.1577,149.6406 154.8921,149.4063 Q154.6265,149.1719 154.6265,148.7813 Q154.6265,148.4063 154.8921,148.1719 Q155.1577,147.9375 155.7671,147.9375 L160.9077,147.9375 Q161.5171,147.9375 161.7827,148.1719 Q162.0483,148.4063 162.0483,148.7813 Q162.0483,149.1719 161.7827,149.4063 Q161.5171,149.6406 160.9077,149.6406 L159.189,149.6406 Z " fill="#000000"/><text fill="#E0E0E0" font-family="sans-serif" font-size="14" font-style="italic" lengthAdjust="spacing" textLength="126.8408" x="178.7358" y="158.7969">InstructionsValidator</text><line style="stroke:#8A8A8A;stroke-width:0.5;" x1="64.5" x2="387.3125" y1="169" y2="169"/><line style="stroke:#8A8A8A;stroke-width:0.5;" x1="64.5" x2="387.3125" y1="177" y2="177"/><ellipse cx="74.5" cy="191.8105" fill="#84BE84" rx="3" ry="3" style="stroke:#038048;stroke-width:1;"/><text fill="#FFFFFF" font-family="sans-serif" font-size="14" lengthAdjust="spacing" textLength="298.8125" x="83.5" y="196.1074">boolean isValid(HasInstructions hasInstructions)</text></g><!--class NonBlankInstructionsValidator--><g class="entity" data-entity="NonBlankInstructionsValidator" data-source-line="23" data-uid="ent0005" id="entity_NonBlankInstructionsValidator"><rect fill="#2D2D2D" height="103.8633" rx="2.5" ry="2.5" style="stroke:#8A8A8A;stroke-width:0.5;" width="438.4326" x="7" y="264"/><ellipse cx="128.1943" cy="280" fill="#ADD1B2" rx="11" ry="11" style="stroke:#181818;stroke-width:1;"/><path d="M130.96,275.875 Q131.1162,275.6563 131.3037,275.5469 Q131.4912,275.4375 131.71,275.4375 Q132.085,275.4375 132.3193,275.7031 Q132.5537,275.9531 132.5537,276.5625 L132.5537,278.0156 Q132.5537,278.625 132.3193,278.8906 Q132.085,279.1563 131.71,279.1563 Q131.3662,279.1563 131.1631,278.9531 Q130.96,278.7656 130.8506,278.25 Q130.8037,277.8906 130.6162,277.7031 Q130.2881,277.3281 129.6787,277.1094 Q129.0693,276.8906 128.4443,276.8906 Q127.6787,276.8906 127.0381,277.2188 Q126.4131,277.5469 125.9131,278.2969 Q125.4287,279.0469 125.4287,280.0781 L125.4287,281.1719 Q125.4287,282.4063 126.3193,283.2344 Q127.21,284.0469 128.8037,284.0469 Q129.7412,284.0469 130.3975,283.7969 Q130.7881,283.6406 131.21,283.2031 Q131.4756,282.9375 131.6162,282.8594 Q131.7725,282.7813 131.9756,282.7813 Q132.3037,282.7813 132.5537,283.0469 Q132.8193,283.2969 132.8193,283.6406 Q132.8193,283.9844 132.4756,284.3906 Q131.9756,284.9688 131.1787,285.2969 Q130.1006,285.75 128.8037,285.75 Q127.2881,285.75 126.085,285.125 Q125.1006,284.625 124.4131,283.5625 Q123.7256,282.4844 123.7256,281.2031 L123.7256,280.0469 Q123.7256,278.7188 124.335,277.5781 Q124.96,276.4219 126.0537,275.8125 Q127.1475,275.1875 128.3818,275.1875 Q129.1162,275.1875 129.7568,275.3594 Q130.4131,275.5156 130.96,275.875 Z " fill="#000000"/><text fill="#E0E0E0" font-family="sans-serif" font-size="14" lengthAdjust="spacing" textLength="187.5439" x="148.6943" y="285.7969">NonBlankInstructionsValidator</text><line style="stroke:#8A8A8A;stroke-width:0.5;" x1="8" x2="444.4326" y1="296" y2="296"/><line style="stroke:#8A8A8A;stroke-width:0.5;" x1="8" x2="444.4326" y1="304" y2="304"/><ellipse cx="18" cy="318.8105" fill="#84BE84" rx="3" ry="3" style="stroke:#038048;stroke-width:1;"/><text fill="#FFFFFF" font-family="sans-serif" font-size="14" lengthAdjust="spacing" textLength="298.8125" x="27" y="323.1074">boolean isValid(HasInstructions hasInstructions)</text><rect fill="#F24D5C" height="6" style="stroke:#C82930;stroke-width:1;" width="6" x="15" y="334.4316"/><text fill="#FFFFFF" font-family="sans-serif" font-size="14" lengthAdjust="spacing" textLength="412.4326" x="27" y="341.7285">boolean hasNonBlankInstructions(HasInstructions hasInstructions)</text><rect fill="#F24D5C" height="6" style="stroke:#C82930;stroke-width:1;" width="6" x="15" y="353.0527"/><text fill="#FFFFFF" font-family="sans-serif" font-size="14" lengthAdjust="spacing" textLength="386.75" x="27" y="360.3496">boolean hasBlankInstructions(HasInstructions hasInstructions)</text></g><!--reverse link Validator to InstructionsValidator--><g class="link" data-entity-1="Validator" data-entity-2="InstructionsValidator" data-source-line="20" data-uid="lnk4" id="link_Validator_InstructionsValidator"><path d="M226,95.2 C226,113.57 226,118.25 226,136.64" fill="none" id="Validator-backto-InstructionsValidator" style="stroke:#B0C4DE;stroke-width:1;"/><polygon fill="none" points="226,77.2,220,95.2,232,95.2,226,77.2" style="stroke:#B0C4DE;stroke-width:1;"/></g><!--reverse link InstructionsValidator to NonBlankInstructionsValidator--><g class="link" data-entity-1="InstructionsValidator" data-entity-2="NonBlankInstructionsValidator" data-source-line="24" data-uid="lnk6" id="link_InstructionsValidator_NonBlankInstructionsValidator"><path d="M226,222.25 C226,239.96 226,244.05 226,263.91" fill="none" id="InstructionsValidator-backto-NonBlankInstructionsValidator" style="stroke:#B0C4DE;stroke-width:1;stroke-dasharray:7,7;"/><polygon fill="none" points="226,204.25,220,222.25,232,222.25,226,204.25" style="stroke:#B0C4DE;stroke-width:1;"/></g><!--SRC=[dL5BJyCm3BxdLnXn0I7GG1ouTY_10Kw8kzUuRTJKhf9K0w7zTvgjAc5ichHOYXH_ZtnnV6suHOSDMCCKlbe2SQ4IvKTWXNbTEkbOpyIAWylxHQo4eQd0pePt-WoPDIKtn07oVYENi3BdP3rOJ2UpntbguIlKiZPSGe7MKu8iXSEWMcvNWkKMlJz9o49mPjK5EibyfVxf-ZzjdmVV2c2wFvU7UQo8YDFaXkvJ5gll9hQBIIorKUh2S6uxJV21rcWCukxQhh5AcJYz0dE25_R1TNammdvaGJzhOkr_TTjC03Um4h6436R7ldf6drf0zVTy7MFiNlKcFBN8zU4RJTDQYb_hZqGwEq2KtOwo7ZuKv0oRCpmsFm00]--></g></svg>