<svg xmlns="http://www.w3.org/2000/svg" contentStyleType="text/css" data-diagram-type="CLASS" height="356px"
     preserveAspectRatio="none" style="width:430px;height:356px;background:#1E1E1E;" version="1.1" viewBox="0 0 430 356"
     width="430px" zoomAndPan="magnify"><defs/><g><rect fill="#1E1E1E" height="356" style="stroke:none;stroke-width:1;" width="430" x="0" y="0"/><!--class Validator--><g class="entity" data-entity="Validator" data-source-line="17" data-uid="ent0002" id="entity_Validator"><rect fill="#2D2D2D" height="66.6211" rx="2.5" ry="2.5" style="stroke:#8A8A8A;stroke-width:0.5;" width="254.0127" x="88.5" y="10"/><ellipse cx="155.6162" cy="26" fill="#B4A7E5" rx="11" ry="11" style="stroke:#181818;stroke-width:1;"/><path d="M156.5693,22.6406 L156.5693,29.2969 L158.2881,29.2969 Q158.8975,29.2969 159.1631,29.5313 Q159.4287,29.7656 159.4287,30.1563 Q159.4287,30.5313 159.1631,30.7656 Q158.8975,31 158.2881,31 L153.1475,31 Q152.5381,31 152.2725,30.7656 Q152.0068,30.5313 152.0068,30.1406 Q152.0068,29.7656 152.2725,29.5313 Q152.5381,29.2969 153.1475,29.2969 L154.8662,29.2969 L154.8662,22.6406 L153.1475,22.6406 Q152.5381,22.6406 152.2725,22.4063 Q152.0068,22.1719 152.0068,21.7813 Q152.0068,21.4063 152.2725,21.1719 Q152.5381,20.9375 153.1475,20.9375 L158.2881,20.9375 Q158.8975,20.9375 159.1631,21.1719 Q159.4287,21.4063 159.4287,21.7813 Q159.4287,22.1719 159.1631,22.4063 Q158.8975,22.6406 158.2881,22.6406 L156.5693,22.6406 Z " fill="#000000"/><text fill="#E0E0E0" font-family="sans-serif" font-size="14" font-style="italic" lengthAdjust="spacing" textLength="55.2549" x="176.1162" y="31.7969">Validator</text><rect fill="#2D2D2D" height="17.9609" style="stroke:#8A8A8A;stroke-width:1;stroke-dasharray:2,2;" width="54.0254" x="291.4873" y="7"/><text fill="#000000" font-family="sans-serif" font-size="12" font-style="italic" lengthAdjust="spacing" textLength="52.0254" x="292.4873" y="20.9492">Argument</text><line style="stroke:#8A8A8A;stroke-width:0.5;" x1="89.5" x2="341.5127" y1="42" y2="42"/><line style="stroke:#8A8A8A;stroke-width:0.5;" x1="89.5" x2="341.5127" y1="50" y2="50"/><ellipse cx="99.5" cy="64.8105" fill="#84BE84" rx="3" ry="3" style="stroke:#038048;stroke-width:1;"/><text fill="#FFFFFF" font-family="sans-serif" font-size="14" lengthAdjust="spacing" textLength="228.0127" x="108.5" y="69.1074">boolean isValid(Argument argument)</text></g><!--class LongVersionValidator--><g class="entity" data-entity="LongVersionValidator" data-source-line="19" data-uid="ent0003" id="entity_LongVersionValidator"><rect fill="#2D2D2D" height="66.6211" rx="2.5" ry="2.5" style="stroke:#8A8A8A;stroke-width:0.5;" width="338.8672" x="46" y="137"/><ellipse cx="144.2495" cy="153" fill="#B4A7E5" rx="11" ry="11" style="stroke:#181818;stroke-width:1;"/><path d="M145.2026,149.6406 L145.2026,156.2969 L146.9214,156.2969 Q147.5308,156.2969 147.7964,156.5313 Q148.062,156.7656 148.062,157.1563 Q148.062,157.5313 147.7964,157.7656 Q147.5308,158 146.9214,158 L141.7808,158 Q141.1714,158 140.9058,157.7656 Q140.6401,157.5313 140.6401,157.1406 Q140.6401,156.7656 140.9058,156.5313 Q141.1714,156.2969 141.7808,156.2969 L143.4995,156.2969 L143.4995,149.6406 L141.7808,149.6406 Q141.1714,149.6406 140.9058,149.4063 Q140.6401,149.1719 140.6401,148.7813 Q140.6401,148.4063 140.9058,148.1719 Q141.1714,147.9375 141.7808,147.9375 L146.9214,147.9375 Q147.5308,147.9375 147.7964,148.1719 Q148.062,148.4063 148.062,148.7813 Q148.062,149.1719 147.7964,149.4063 Q147.5308,149.6406 146.9214,149.6406 L145.2026,149.6406 Z " fill="#000000"/><text fill="#E0E0E0" font-family="sans-serif" font-size="14" font-style="italic" lengthAdjust="spacing" textLength="133.8682" x="164.7495" y="158.7969">LongVersionValidator</text><line style="stroke:#8A8A8A;stroke-width:0.5;" x1="47" x2="383.8672" y1="169" y2="169"/><line style="stroke:#8A8A8A;stroke-width:0.5;" x1="47" x2="383.8672" y1="177" y2="177"/><ellipse cx="57" cy="191.8105" fill="#84BE84" rx="3" ry="3" style="stroke:#038048;stroke-width:1;"/><text fill="#FFFFFF" font-family="sans-serif" font-size="14" lengthAdjust="spacing" textLength="312.8672" x="66" y="196.1074">boolean isValid(HasLongVersion hasLongVersion)</text></g><!--class PositiveLongVersionValidator--><g class="entity" data-entity="PositiveLongVersionValidator" data-source-line="23" data-uid="ent0005" id="entity_PositiveLongVersionValidator"><rect fill="#2D2D2D" height="85.2422" rx="2.5" ry="2.5" style="stroke:#8A8A8A;stroke-width:0.5;" width="416.6875" x="7" y="264"/><ellipse cx="119.6494" cy="280" fill="#ADD1B2" rx="11" ry="11" style="stroke:#181818;stroke-width:1;"/><path d="M122.415,275.875 Q122.5713,275.6563 122.7588,275.5469 Q122.9463,275.4375 123.165,275.4375 Q123.54,275.4375 123.7744,275.7031 Q124.0088,275.9531 124.0088,276.5625 L124.0088,278.0156 Q124.0088,278.625 123.7744,278.8906 Q123.54,279.1563 123.165,279.1563 Q122.8213,279.1563 122.6182,278.9531 Q122.415,278.7656 122.3057,278.25 Q122.2588,277.8906 122.0713,277.7031 Q121.7432,277.3281 121.1338,277.1094 Q120.5244,276.8906 119.8994,276.8906 Q119.1338,276.8906 118.4932,277.2188 Q117.8682,277.5469 117.3682,278.2969 Q116.8838,279.0469 116.8838,280.0781 L116.8838,281.1719 Q116.8838,282.4063 117.7744,283.2344 Q118.665,284.0469 120.2588,284.0469 Q121.1963,284.0469 121.8525,283.7969 Q122.2432,283.6406 122.665,283.2031 Q122.9307,282.9375 123.0713,282.8594 Q123.2275,282.7813 123.4307,282.7813 Q123.7588,282.7813 124.0088,283.0469 Q124.2744,283.2969 124.2744,283.6406 Q124.2744,283.9844 123.9307,284.3906 Q123.4307,284.9688 122.6338,285.2969 Q121.5557,285.75 120.2588,285.75 Q118.7432,285.75 117.54,285.125 Q116.5557,284.625 115.8682,283.5625 Q115.1807,282.4844 115.1807,281.2031 L115.1807,280.0469 Q115.1807,278.7188 115.79,277.5781 Q116.415,276.4219 117.5088,275.8125 Q118.6025,275.1875 119.8369,275.1875 Q120.5713,275.1875 121.2119,275.3594 Q121.8682,275.5156 122.415,275.875 Z " fill="#000000"/><text fill="#E0E0E0" font-family="sans-serif" font-size="14" lengthAdjust="spacing" textLength="182.8887" x="140.1494" y="285.7969">PositiveLongVersionValidator</text><line style="stroke:#8A8A8A;stroke-width:0.5;" x1="8" x2="422.6875" y1="296" y2="296"/><line style="stroke:#8A8A8A;stroke-width:0.5;" x1="8" x2="422.6875" y1="304" y2="304"/><ellipse cx="18" cy="318.8105" fill="#84BE84" rx="3" ry="3" style="stroke:#038048;stroke-width:1;"/><text fill="#FFFFFF" font-family="sans-serif" font-size="14" lengthAdjust="spacing" textLength="312.8672" x="27" y="323.1074">boolean isValid(HasLongVersion hasLongVersion)</text><rect fill="#F24D5C" height="6" style="stroke:#C82930;stroke-width:1;" width="6" x="15" y="334.4316"/><text fill="#FFFFFF" font-family="sans-serif" font-size="14" lengthAdjust="spacing" textLength="390.6875" x="27" y="341.7285">boolean hasPositiveVersion(HasLongVersion hasLongVersion)</text></g><!--reverse link Validator to LongVersionValidator--><g class="link" data-entity-1="Validator" data-entity-2="LongVersionValidator" data-source-line="20" data-uid="lnk4" id="link_Validator_LongVersionValidator"><path d="M215.5,95.2 C215.5,113.57 215.5,118.25 215.5,136.64" fill="none" id="Validator-backto-LongVersionValidator" style="stroke:#B0C4DE;stroke-width:1;"/><polygon fill="none" points="215.5,77.2,209.5,95.2,221.5,95.2,215.5,77.2" style="stroke:#B0C4DE;stroke-width:1;"/></g><!--reverse link LongVersionValidator to PositiveLongVersionValidator--><g class="link" data-entity-1="LongVersionValidator" data-entity-2="PositiveLongVersionValidator" data-source-line="24" data-uid="lnk6" id="link_LongVersionValidator_PositiveLongVersionValidator"><path d="M215.5,222.12 C215.5,240.13 215.5,244.51 215.5,263.75" fill="none" id="LongVersionValidator-backto-PositiveLongVersionValidator" style="stroke:#B0C4DE;stroke-width:1;stroke-dasharray:7,7;"/><polygon fill="none" points="215.5,204.12,209.5,222.12,221.5,222.12,215.5,204.12" style="stroke:#B0C4DE;stroke-width:1;"/></g><!--SRC=[dL5DIyGm4BtdLunuKKHPnOFNxXSU53p8tjDcsWwRPieaTHNnlzlKMkEwi6060fdttioRYT-IQxNe1Ymv36yj0akeMVa9o7MnhOGxPnPiMU3qUXKZOHWiTMV3Cxw6p5Bb6dG1Ylv2ILYP2E_64lFPudQPbl2rDhmZLq6fhSS4MRCBesezd0GhhFR-A24BGIZl0XvbFc8_klbBs-V1kmAOx-_bPXaZ8Ym6PSpUPJ7wR59sDOkXFfGw8LVOpY1ij2MZ0yjLspLMAOhRAtM1yC2ksg1uOZUHe5yrEkD_P8CbW0l8cIrg1-G7xEnU-wG2rB-Uvz73rqXFx2dG2nviHqrhCNwhFspddysZw78IzUYtYP5nrFmd]--></g></svg>