<svg xmlns="http://www.w3.org/2000/svg" contentStyleType="text/css" data-diagram-type="CLASS" height="334px"
     preserveAspectRatio="none" style="width:323px;height:334px;background:#1E1E1E;" version="1.1" viewBox="0 0 323 334"
     width="323px" zoomAndPan="magnify"><defs/><g><rect fill="#1E1E1E" height="334" style="stroke:none;stroke-width:1;" width="323" x="0" y="0"/><!--class LongIdValidator--><g class="entity" data-entity="LongIdValidator" data-source-line="17" data-uid="ent0002" id="entity_LongIdValidator"><rect fill="#2D2D2D" height="66.6211" rx="2.5" ry="2.5" style="stroke:#8A8A8A;stroke-width:0.5;" width="271.9434" x="25.5" y="115"/><ellipse cx="108.1841" cy="131" fill="#B4A7E5" rx="11" ry="11" style="stroke:#181818;stroke-width:1;"/><path d="M109.1372,127.6406 L109.1372,134.2969 L110.856,134.2969 Q111.4653,134.2969 111.731,134.5313 Q111.9966,134.7656 111.9966,135.1563 Q111.9966,135.5313 111.731,135.7656 Q111.4653,136 110.856,136 L105.7153,136 Q105.106,136 104.8403,135.7656 Q104.5747,135.5313 104.5747,135.1406 Q104.5747,134.7656 104.8403,134.5313 Q105.106,134.2969 105.7153,134.2969 L107.4341,134.2969 L107.4341,127.6406 L105.7153,127.6406 Q105.106,127.6406 104.8403,127.4063 Q104.5747,127.1719 104.5747,126.7813 Q104.5747,126.4063 104.8403,126.1719 Q105.106,125.9375 105.7153,125.9375 L110.856,125.9375 Q111.4653,125.9375 111.731,126.1719 Q111.9966,126.4063 111.9966,126.7813 Q111.9966,127.1719 111.731,127.4063 Q111.4653,127.6406 110.856,127.6406 L109.1372,127.6406 Z " fill="#000000"/><text fill="#E0E0E0" font-family="sans-serif" font-size="14" font-style="italic" lengthAdjust="spacing" textLength="98.0752" x="128.6841" y="136.7969">LongIdValidator</text><line style="stroke:#8A8A8A;stroke-width:0.5;" x1="26.5" x2="296.4434" y1="147" y2="147"/><line style="stroke:#8A8A8A;stroke-width:0.5;" x1="26.5" x2="296.4434" y1="155" y2="155"/><ellipse cx="36.5" cy="169.8105" fill="#84BE84" rx="3" ry="3" style="stroke:#038048;stroke-width:1;"/><text fill="#FFFFFF" font-family="sans-serif" font-size="14" lengthAdjust="spacing" textLength="245.9434" x="45.5" y="174.1074">boolean isValid(HasLongId hasLongId))</text></g><!--class Validator--><g class="entity" data-entity="Validator" data-source-line="18" data-uid="ent0003" id="entity_Validator"><rect fill="#2D2D2D" height="48" rx="2.5" ry="2.5" style="stroke:#8A8A8A;stroke-width:0.5;" width="87.2549" x="118" y="7"/><ellipse cx="133" cy="23" fill="#B4A7E5" rx="11" ry="11" style="stroke:#181818;stroke-width:1;"/><path d="M133.9531,19.6406 L133.9531,26.2969 L135.6719,26.2969 Q136.2813,26.2969 136.5469,26.5313 Q136.8125,26.7656 136.8125,27.1563 Q136.8125,27.5313 136.5469,27.7656 Q136.2813,28 135.6719,28 L130.5313,28 Q129.9219,28 129.6563,27.7656 Q129.3906,27.5313 129.3906,27.1406 Q129.3906,26.7656 129.6563,26.5313 Q129.9219,26.2969 130.5313,26.2969 L132.25,26.2969 L132.25,19.6406 L130.5313,19.6406 Q129.9219,19.6406 129.6563,19.4063 Q129.3906,19.1719 129.3906,18.7813 Q129.3906,18.4063 129.6563,18.1719 Q129.9219,17.9375 130.5313,17.9375 L135.6719,17.9375 Q136.2813,17.9375 136.5469,18.1719 Q136.8125,18.4063 136.8125,18.7813 Q136.8125,19.1719 136.5469,19.4063 Q136.2813,19.6406 135.6719,19.6406 L133.9531,19.6406 Z " fill="#000000"/><text fill="#E0E0E0" font-family="sans-serif" font-size="14" font-style="italic" lengthAdjust="spacing" textLength="55.2549" x="147" y="28.7969">Validator</text><line style="stroke:#8A8A8A;stroke-width:0.5;" x1="119" x2="204.2549" y1="39" y2="39"/><line style="stroke:#8A8A8A;stroke-width:0.5;" x1="119" x2="204.2549" y1="47" y2="47"/></g><!--class PositiveLongIdValidator--><g class="entity" data-entity="PositiveLongIdValidator" data-source-line="21" data-uid="ent0005" id="entity_PositiveLongIdValidator"><rect fill="#2D2D2D" height="85.2422" rx="2.5" ry="2.5" style="stroke:#8A8A8A;stroke-width:0.5;" width="309.3086" x="7" y="242"/><ellipse cx="83.8564" cy="258" fill="#ADD1B2" rx="11" ry="11" style="stroke:#181818;stroke-width:1;"/><path d="M86.6221,253.875 Q86.7783,253.6563 86.9658,253.5469 Q87.1533,253.4375 87.3721,253.4375 Q87.7471,253.4375 87.9814,253.7031 Q88.2158,253.9531 88.2158,254.5625 L88.2158,256.0156 Q88.2158,256.625 87.9814,256.8906 Q87.7471,257.1563 87.3721,257.1563 Q87.0283,257.1563 86.8252,256.9531 Q86.6221,256.7656 86.5127,256.25 Q86.4658,255.8906 86.2783,255.7031 Q85.9502,255.3281 85.3408,255.1094 Q84.7314,254.8906 84.1064,254.8906 Q83.3408,254.8906 82.7002,255.2188 Q82.0752,255.5469 81.5752,256.2969 Q81.0908,257.0469 81.0908,258.0781 L81.0908,259.1719 Q81.0908,260.4063 81.9814,261.2344 Q82.8721,262.0469 84.4658,262.0469 Q85.4033,262.0469 86.0596,261.7969 Q86.4502,261.6406 86.8721,261.2031 Q87.1377,260.9375 87.2783,260.8594 Q87.4346,260.7813 87.6377,260.7813 Q87.9658,260.7813 88.2158,261.0469 Q88.4814,261.2969 88.4814,261.6406 Q88.4814,261.9844 88.1377,262.3906 Q87.6377,262.9688 86.8408,263.2969 Q85.7627,263.75 84.4658,263.75 Q82.9502,263.75 81.7471,263.125 Q80.7627,262.625 80.0752,261.5625 Q79.3877,260.4844 79.3877,259.2031 L79.3877,258.0469 Q79.3877,256.7188 79.9971,255.5781 Q80.6221,254.4219 81.7158,253.8125 Q82.8096,253.1875 84.0439,253.1875 Q84.7783,253.1875 85.4189,253.3594 Q86.0752,253.5156 86.6221,253.875 Z " fill="#000000"/><text fill="#E0E0E0" font-family="sans-serif" font-size="14" lengthAdjust="spacing" textLength="147.0957" x="104.3564" y="263.7969">PositiveLongIdValidator</text><line style="stroke:#8A8A8A;stroke-width:0.5;" x1="8" x2="315.3086" y1="274" y2="274"/><line style="stroke:#8A8A8A;stroke-width:0.5;" x1="8" x2="315.3086" y1="282" y2="282"/><ellipse cx="18" cy="296.8105" fill="#84BE84" rx="3" ry="3" style="stroke:#038048;stroke-width:1;"/><text fill="#FFFFFF" font-family="sans-serif" font-size="14" lengthAdjust="spacing" textLength="241.2813" x="27" y="301.1074">boolean isValid(HasLongId hasLongId)</text><rect fill="#F24D5C" height="6" style="stroke:#C82930;stroke-width:1;" width="6" x="15" y="312.4316"/><text fill="#FFFFFF" font-family="sans-serif" font-size="14" lengthAdjust="spacing" textLength="283.3086" x="27" y="319.7285">boolean hasPositiveId(HasLongId hasLongId)</text></g><!--reverse link Validator to LongIdValidator--><g class="link" data-entity-1="Validator" data-entity-2="LongIdValidator" data-source-line="18" data-uid="lnk4" id="link_Validator_LongIdValidator"><path d="M161.5,73.06 C161.5,90.25 161.5,95.61 161.5,114.67" fill="none" id="Validator-backto-LongIdValidator" style="stroke:#B0C4DE;stroke-width:1;"/><polygon fill="none" points="161.5,55.06,155.5,73.06,167.5,73.06,161.5,55.06" style="stroke:#B0C4DE;stroke-width:1;"/></g><!--reverse link LongIdValidator to PositiveLongIdValidator--><g class="link" data-entity-1="LongIdValidator" data-entity-2="PositiveLongIdValidator" data-source-line="22" data-uid="lnk6" id="link_LongIdValidator_PositiveLongIdValidator"><path d="M161.5,200.12 C161.5,218.13 161.5,222.51 161.5,241.75" fill="none" id="LongIdValidator-backto-PositiveLongIdValidator" style="stroke:#B0C4DE;stroke-width:1;stroke-dasharray:7,7;"/><polygon fill="none" points="161.5,182.12,155.5,200.12,167.5,200.12,161.5,182.12" style="stroke:#B0C4DE;stroke-width:1;"/></g><!--SRC=[bP5DQyCm38Rl-HM2NLR6e1ixx9f-iS86EupTbLX9J1qhMCwwCVhVPwTfPrf6cGN6w7sarvPbess73bimsfB_wWZO-OOpEGe5bflQSM_Ld0qxkBfRnaW8HHNsnh_Hfy-DhcrBraCPDd89bJl7sx75R3f_MAGjf475MsrhgD089SgAhH-hLiDAjDAWo4KWzzxfelTqaNoXy7HrZfroy9q1p4xdSh-84HLsYjoOVSnZX6pITZcDaUsoJCSXLLWIFBEjr-eTZLRe0nI6ILO9_6QYAS0D5Co6q8AMGRj-GjaNGtCuJIQn-VwkhopQwmywDT1jPoX-bPnv_yTfG6-FQ10EXki_2dO_]--></g></svg>