<svg xmlns="http://www.w3.org/2000/svg" contentStyleType="text/css" data-diagram-type="SEQUENCE" height="1089.6667px"
     preserveAspectRatio="none" style="width:1428px;height:1089px;background:#0E1117;" version="1.1"
     viewBox="0 0 1428 1089" width="1428px" zoomAndPan="magnify"><title>Delete recipe by id - Sequence</title><defs/><g><rect fill="#0E1117" height="1089.6667" style="stroke:none;stroke-width:1.1667;" width="1428" x="0" y="0"/><text fill="#C9D1D9" font-family="sans-serif" font-size="16.3333" font-weight="bold" lengthAdjust="spacing" textLength="236.0119" x="597.6845" y="35.1253">Delete recipe by id - Sequence</text><rect fill="none" height="726.25" rx="7" ry="7" style="stroke:#30363D;stroke-width:1.75;" width="1409.2143" x="11.6667" y="244.7949"/><rect fill="none" height="551.4893" rx="7" ry="7" style="stroke:#30363D;stroke-width:1.75;" width="1385.8809" x="23.3333" y="355.4801"/><g><title>User</title><rect fill="#000000" fill-opacity="0.00000" height="845.929" width="9.3333" x="62.4167" y="144.9492"/><line style="stroke:#30363D;stroke-width:0.5833;stroke-dasharray:5.8333,5.8333;" x1="66.5" x2="66.5" y1="144.9492" y2="990.8783"/></g><g><title>Application</title><rect fill="#000000" fill-opacity="0.00000" height="845.929" width="9.3333" x="290.6726" y="144.9492"/><line style="stroke:#30363D;stroke-width:0.5833;stroke-dasharray:5.8333,5.8333;" x1="295.0539" x2="295.0539" y1="144.9492" y2="990.8783"/></g><g><title>RecipeRestControllerV2</title><rect fill="#000000" fill-opacity="0.00000" height="845.929" width="9.3333" x="483.5298" y="144.9492"/><line style="stroke:#30363D;stroke-width:0.5833;stroke-dasharray:5.8333,5.8333;" x1="488.0922" x2="488.0922" y1="144.9492" y2="990.8783"/></g><g><title>RecipeServiceV2</title><rect fill="#000000" fill-opacity="0.00000" height="845.929" width="9.3333" x="652.4424" y="144.9492"/><line style="stroke:#30363D;stroke-width:0.5833;stroke-dasharray:5.8333,5.8333;" x1="656.3007" x2="656.3007" y1="144.9492" y2="990.8783"/></g><g><title>RecipesDatabase</title><rect fill="#000000" fill-opacity="0.00000" height="845.929" width="9.3333" x="820.002" y="144.9492"/><line style="stroke:#30363D;stroke-width:0.5833;stroke-dasharray:5.8333,5.8333;" x1="824.3713" x2="824.3713" y1="144.9492" y2="990.8783"/></g><g><title>RecipeRestControllerV2LoggingAspect</title><rect fill="#000000" fill-opacity="0.00000" height="845.929" width="9.3333" x="1044.7694" y="144.9492"/><line style="stroke:#30363D;stroke-width:0.5833;stroke-dasharray:5.8333,5.8333;" x1="1048.9661" x2="1048.9661" y1="144.9492" y2="990.8783"/></g><g><title>GlobalExceptionsHandler</title><rect fill="#000000" fill-opacity="0.00000" height="845.929" width="9.3333" x="1297.2268" y="144.9492"/><line style="stroke:#30363D;stroke-width:0.5833;stroke-dasharray:5.8333,5.8333;" x1="1300.7393" x2="1300.7393" y1="144.9492" y2="990.8783"/></g><g class="participant participant-head" data-participant="User"><text fill="#C9D1D9" font-family="sans-serif" font-size="16.3333" lengthAdjust="spacing" textLength="34.485" x="46.3408" y="140.8499">User</text><ellipse cx="67.0833" cy="71.3079" fill="#0D1117" rx="18.6667" ry="18.6667" style="stroke:#58A6FF;stroke-width:0.5833;"/><path d="M67.0833,94.6413 C71.75,94.6413 75.25,94.6413 79.9167,89.9746 C89.25,89.9746 98.5833,99.3079 98.5833,108.6413 L98.5833,113.3079 C98.5833,117.9746 93.9167,122.6413 89.25,122.6413 L44.9167,122.6413 C40.25,122.6413 35.5833,117.9746 35.5833,113.3079 L35.5833,108.6413 C35.5833,99.3079 44.9167,89.9746 54.25,89.9746 C58.9167,94.6413 62.4167,94.6413 67.0833,94.6413" fill="#0D1117" style="stroke:#58A6FF;stroke-width:0.5833;"/></g><g class="participant participant-tail" data-participant="User"><text fill="#C9D1D9" font-family="sans-serif" font-size="16.3333" lengthAdjust="spacing" textLength="34.485" x="46.3408" y="1007.3369">User</text><ellipse cx="67.0833" cy="1030.6862" fill="#0D1117" rx="18.6667" ry="18.6667" style="stroke:#58A6FF;stroke-width:0.5833;"/><path d="M67.0833,1054.0195 C71.75,1054.0195 75.25,1054.0195 79.9167,1049.3529 C89.25,1049.3529 98.5833,1058.6862 98.5833,1068.0195 L98.5833,1072.6862 C98.5833,1077.3529 93.9167,1082.0195 89.25,1082.0195 L44.9167,1082.0195 C40.25,1082.0195 35.5833,1077.3529 35.5833,1072.6862 L35.5833,1068.0195 C35.5833,1058.6862 44.9167,1049.3529 54.25,1049.3529 C58.9167,1054.0195 62.4167,1054.0195 67.0833,1054.0195" fill="#0D1117" style="stroke:#58A6FF;stroke-width:0.5833;"/></g><g class="participant participant-head" data-participant="Application"><text fill="#C9D1D9" font-family="sans-serif" font-size="16.3333" lengthAdjust="spacing" textLength="79.9041" x="251.8872" y="140.8499">Application</text><path d="M271.4226,90.5579 L271.4226,118.5579 M271.4226,104.5579 L291.2559,104.5579" fill="none" style="stroke:#58A6FF;stroke-width:0.5833;"/><ellipse cx="305.2559" cy="104.5579" fill="#0D1117" rx="14" ry="14" style="stroke:#58A6FF;stroke-width:0.5833;"/></g><g class="participant participant-tail" data-participant="Application"><text fill="#C9D1D9" font-family="sans-serif" font-size="16.3333" lengthAdjust="spacing" textLength="79.9041" x="251.8872" y="1007.3369">Application</text><path d="M271.4226,1016.1029 L271.4226,1044.1029 M271.4226,1030.1029 L291.2559,1030.1029" fill="none" style="stroke:#58A6FF;stroke-width:0.5833;"/><ellipse cx="305.2559" cy="1030.1029" fill="#0D1117" rx="14" ry="14" style="stroke:#58A6FF;stroke-width:0.5833;"/></g><g class="participant participant-head" data-participant="RecipeRestControllerV2"><text fill="#C9D1D9" font-family="sans-serif" font-size="16.3333" lengthAdjust="spacing" textLength="175.2085" x="397.0922" y="140.8499">RecipeRestControllerV2</text><ellipse cx="488.1965" cy="104.5579" fill="#0D1117" rx="14" ry="14" style="stroke:#58A6FF;stroke-width:0.5833;"/><polygon fill="#58A6FF" points="483.5298,90.5579,490.5298,84.7246,488.1965,90.5579,490.5298,96.3913,483.5298,90.5579" style="stroke:#58A6FF;stroke-width:1.1667;"/></g><g class="participant participant-tail" data-participant="RecipeRestControllerV2"><text fill="#C9D1D9" font-family="sans-serif" font-size="16.3333" lengthAdjust="spacing" textLength="175.2085" x="397.0922" y="1007.3369">RecipeRestControllerV2</text><ellipse cx="488.1965" cy="1030.1029" fill="#0D1117" rx="14" ry="14" style="stroke:#58A6FF;stroke-width:0.5833;"/><polygon fill="#58A6FF" points="483.5298,1016.1029,490.5298,1010.2695,488.1965,1016.1029,490.5298,1021.9362,483.5298,1016.1029" style="stroke:#58A6FF;stroke-width:1.1667;"/></g><g class="participant participant-head" data-participant="RecipeServiceV2"><text fill="#C9D1D9" font-family="sans-serif" font-size="16.3333" lengthAdjust="spacing" textLength="125.2834" x="590.9674" y="140.8499">RecipeServiceV2</text><ellipse cx="657.109" cy="104.5579" fill="#0D1117" rx="14" ry="14" style="stroke:#58A6FF;stroke-width:0.5833;"/><polygon fill="#58A6FF" points="652.4424,90.5579,659.4424,84.7246,657.109,90.5579,659.4424,96.3913,652.4424,90.5579" style="stroke:#58A6FF;stroke-width:1.1667;"/></g><g class="participant participant-tail" data-participant="RecipeServiceV2"><text fill="#C9D1D9" font-family="sans-serif" font-size="16.3333" lengthAdjust="spacing" textLength="125.2834" x="590.9674" y="1007.3369">RecipeServiceV2</text><ellipse cx="657.109" cy="1030.1029" fill="#0D1117" rx="14" ry="14" style="stroke:#58A6FF;stroke-width:0.5833;"/><polygon fill="#58A6FF" points="652.4424,1016.1029,659.4424,1010.2695,657.109,1016.1029,659.4424,1021.9362,652.4424,1016.1029" style="stroke:#58A6FF;stroke-width:1.1667;"/></g><g class="participant participant-head" data-participant="RecipesDatabase"><text fill="#C9D1D9" font-family="sans-serif" font-size="16.3333" lengthAdjust="spacing" textLength="128.9281" x="756.7047" y="140.8499">RecipesDatabase</text><path d="M803.6687,81.2246 C803.6687,69.5579 824.6687,69.5579 824.6687,69.5579 C824.6687,69.5579 845.6687,69.5579 845.6687,81.2246 L845.6687,111.5579 C845.6687,123.2246 824.6687,123.2246 824.6687,123.2246 C824.6687,123.2246 803.6687,123.2246 803.6687,111.5579 L803.6687,81.2246" fill="#0D1117" style="stroke:#58A6FF;stroke-width:0.5833;"/><path d="M803.6687,81.2246 C803.6687,92.8913 824.6687,92.8913 824.6687,92.8913 C824.6687,92.8913 845.6687,92.8913 845.6687,81.2246" fill="none" style="stroke:#58A6FF;stroke-width:0.5833;"/></g><g class="participant participant-tail" data-participant="RecipesDatabase"><text fill="#C9D1D9" font-family="sans-serif" font-size="16.3333" lengthAdjust="spacing" textLength="128.9281" x="756.7047" y="1007.3369">RecipesDatabase</text><path d="M803.6687,1023.1029 C803.6687,1011.4362 824.6687,1011.4362 824.6687,1011.4362 C824.6687,1011.4362 845.6687,1011.4362 845.6687,1023.1029 L845.6687,1053.4362 C845.6687,1065.1029 824.6687,1065.1029 824.6687,1065.1029 C824.6687,1065.1029 803.6687,1065.1029 803.6687,1053.4362 L803.6687,1023.1029" fill="#0D1117" style="stroke:#58A6FF;stroke-width:0.5833;"/><path d="M803.6687,1023.1029 C803.6687,1034.7695 824.6687,1034.7695 824.6687,1034.7695 C824.6687,1034.7695 845.6687,1034.7695 845.6687,1023.1029" fill="none" style="stroke:#58A6FF;stroke-width:0.5833;"/></g><g class="participant participant-head" data-participant="RecipeRestControllerV2LoggingAspect"><text fill="#C9D1D9" font-family="sans-serif" font-size="16.3333" lengthAdjust="spacing" textLength="283.2733" x="904.2994" y="140.8499">RecipeRestControllerV2LoggingAspect</text><ellipse cx="1049.436" cy="104.5579" fill="#0D1117" rx="14" ry="14" style="stroke:#58A6FF;stroke-width:0.5833;"/><polygon fill="#58A6FF" points="1044.7694,90.5579,1051.7694,84.7246,1049.436,90.5579,1051.7694,96.3913,1044.7694,90.5579" style="stroke:#58A6FF;stroke-width:1.1667;"/></g><g class="participant participant-tail" data-participant="RecipeRestControllerV2LoggingAspect"><text fill="#C9D1D9" font-family="sans-serif" font-size="16.3333" lengthAdjust="spacing" textLength="283.2733" x="904.2994" y="1007.3369">RecipeRestControllerV2LoggingAspect</text><ellipse cx="1049.436" cy="1030.1029" fill="#0D1117" rx="14" ry="14" style="stroke:#58A6FF;stroke-width:0.5833;"/><polygon fill="#58A6FF" points="1044.7694,1016.1029,1051.7694,1010.2695,1049.436,1016.1029,1051.7694,1021.9362,1044.7694,1016.1029" style="stroke:#58A6FF;stroke-width:1.1667;"/></g><g class="participant participant-head" data-participant="GlobalExceptionsHandler"><text fill="#C9D1D9" font-family="sans-serif" font-size="16.3333" lengthAdjust="spacing" textLength="184.3083" x="1206.2393" y="140.8499">GlobalExceptionsHandler</text><ellipse cx="1301.8935" cy="104.5579" fill="#0D1117" rx="14" ry="14" style="stroke:#58A6FF;stroke-width:0.5833;"/><polygon fill="#58A6FF" points="1297.2268,90.5579,1304.2268,84.7246,1301.8935,90.5579,1304.2268,96.3913,1297.2268,90.5579" style="stroke:#58A6FF;stroke-width:1.1667;"/></g><g class="participant participant-tail" data-participant="GlobalExceptionsHandler"><text fill="#C9D1D9" font-family="sans-serif" font-size="16.3333" lengthAdjust="spacing" textLength="184.3083" x="1206.2393" y="1007.3369">GlobalExceptionsHandler</text><ellipse cx="1301.8935" cy="1030.1029" fill="#0D1117" rx="14" ry="14" style="stroke:#58A6FF;stroke-width:0.5833;"/><polygon fill="#58A6FF" points="1297.2268,1016.1029,1304.2268,1010.2695,1301.8935,1016.1029,1304.2268,1021.9362,1297.2268,1016.1029" style="stroke:#58A6FF;stroke-width:1.1667;"/></g><g class="message" data-participant-1="User" data-participant-2="Application"><polygon fill="#58A6FF" points="281.3393,179.1221,293.0059,183.7887,281.3393,188.4554,286.0059,183.7887" style="stroke:#58A6FF;stroke-width:1.1667;"/><line style="stroke:#58A6FF;stroke-width:1.1667;" x1="67.0833" x2="288.3393" y1="183.7887" y2="183.7887"/><text fill="#C9D1D9" font-family="sans-serif" font-size="15.1667" font-weight="bold" lengthAdjust="spacing" textLength="8.435" x="81.0833" y="177.6489">1</text><text fill="#C9D1D9" font-family="sans-serif" font-size="15.1667" lengthAdjust="spacing" textLength="187.1543" x="94.185" y="177.6489">DELETE /api/v2/recipes/{id}</text></g><path d="M301,205.9554 L301,223.4554 A7,7 0 0 0 308,230.4554 L442.1667,230.4554 A7,7 0 0 0 449.1667,223.4554 L449.1667,210.6221 L437.5,198.9554 L308,198.9554 A7,7 0 0 0 301,205.9554" fill="#1C2330" style="stroke:#E7E7E7;stroke-width:0.5833;"/><path d="M437.5,198.9554 L437.5,207.1221 A3.5,3.5 0 0 0 441,210.6221 L449.1667,210.6221 L437.5,198.9554" fill="#1C2330" style="stroke:#E7E7E7;stroke-width:0.5833;"/><text fill="#C9D1D9" font-family="sans-serif" font-size="15.1667" lengthAdjust="spacing" textLength="123.9401" x="308" y="221.1551">authenticates user</text><path d="M18.6667,244.7949 L81.866,244.7949 L81.866,255.6344 L70.1994,267.3011 L11.6667,267.3011 L11.6667,251.7949 A7,7 0 0 1 18.6667,244.7949" fill="#161B22" style="stroke:#30363D;stroke-width:1.75;"/><rect fill="none" height="726.25" rx="7" ry="7" style="stroke:#30363D;stroke-width:1.75;" width="1409.2143" x="11.6667" y="244.7949"/><text fill="#C9D1D9" font-family="sans-serif" font-size="15.1667" font-weight="bold" lengthAdjust="spacing" textLength="17.6994" x="29.1667" y="262.328">alt</text><text fill="#C9D1D9" font-family="sans-serif" font-size="12.8333" font-weight="bold" lengthAdjust="spacing" textLength="124.0785" x="99.366" y="260.9767">[User authenticated]</text><g class="message" data-participant-1="Application" data-participant-2="RecipeRestControllerV2"><polygon fill="#58A6FF" points="474.1965,289.8073,485.8631,294.474,474.1965,299.1406,478.8631,294.474" style="stroke:#58A6FF;stroke-width:1.1667;"/><line style="stroke:#58A6FF;stroke-width:1.1667;" x1="295.3393" x2="481.1965" y1="294.474" y2="294.474"/><text fill="#C9D1D9" font-family="sans-serif" font-size="15.1667" font-weight="bold" lengthAdjust="spacing" textLength="8.435" x="328.7197" y="288.3341">2</text><text fill="#C9D1D9" font-family="sans-serif" font-size="15.1667" lengthAdjust="spacing" textLength="112.9946" x="341.8214" y="288.3341">delegate request</text></g><path d="M493.5,316.6406 L493.5,334.1406 A7,7 0 0 0 500.5,341.1406 L586.8333,341.1406 A7,7 0 0 0 593.8333,334.1406 L593.8333,321.3073 L582.1667,309.6406 L500.5,309.6406 A7,7 0 0 0 493.5,316.6406" fill="#1C2330" style="stroke:#E7E7E7;stroke-width:0.5833;"/><path d="M582.1667,309.6406 L582.1667,317.8073 A3.5,3.5 0 0 0 585.6667,321.3073 L593.8333,321.3073 L582.1667,309.6406" fill="#1C2330" style="stroke:#E7E7E7;stroke-width:0.5833;"/><text fill="#C9D1D9" font-family="sans-serif" font-size="15.1667" lengthAdjust="spacing" textLength="75.8778" x="500.5" y="331.8403">validates id</text><path d="M30.3333,355.4801 L93.5327,355.4801 L93.5327,366.3197 L81.866,377.9863 L23.3333,377.9863 L23.3333,362.4801 A7,7 0 0 1 30.3333,355.4801" fill="#161B22" style="stroke:#30363D;stroke-width:1.75;"/><rect fill="none" height="551.4893" rx="7" ry="7" style="stroke:#30363D;stroke-width:1.75;" width="1385.8809" x="23.3333" y="355.4801"/><text fill="#C9D1D9" font-family="sans-serif" font-size="15.1667" font-weight="bold" lengthAdjust="spacing" textLength="17.6994" x="40.8333" y="373.0132">alt</text><text fill="#C9D1D9" font-family="sans-serif" font-size="12.8333" font-weight="bold" lengthAdjust="spacing" textLength="92.6845" x="111.0327" y="371.6619">[Validation OK]</text><path d="M1054.6667,390.8197 L1054.6667,408.3197 A7,7 0 0 0 1061.6667,415.3197 L1129.3333,415.3197 A7,7 0 0 0 1136.3333,408.3197 L1136.3333,395.4863 L1124.6667,383.8197 L1061.6667,383.8197 A7,7 0 0 0 1054.6667,390.8197" fill="#1C2330" style="stroke:#E7E7E7;stroke-width:0.5833;"/><path d="M1124.6667,383.8197 L1124.6667,391.9863 A3.5,3.5 0 0 0 1128.1667,395.4863 L1136.3333,395.4863 L1124.6667,383.8197" fill="#1C2330" style="stroke:#E7E7E7;stroke-width:0.5833;"/><text fill="#C9D1D9" font-family="sans-serif" font-size="15.1667" lengthAdjust="spacing" textLength="58.171" x="1061.6667" y="406.0194">log entry</text><g class="message" data-participant-1="RecipeRestControllerV2" data-participant-2="RecipeServiceV2"><polygon fill="#58A6FF" points="643.109,443.9987,654.7757,448.6654,643.109,453.332,647.7757,448.6654" style="stroke:#58A6FF;stroke-width:1.1667;"/><line style="stroke:#58A6FF;stroke-width:1.1667;" x1="488.1965" x2="650.109" y1="448.6654" y2="448.6654"/><text fill="#C9D1D9" font-family="sans-serif" font-size="15.1667" font-weight="bold" lengthAdjust="spacing" textLength="8.435" x="509.6046" y="442.5256">3</text><text fill="#C9D1D9" font-family="sans-serif" font-size="15.1667" lengthAdjust="spacing" textLength="112.9946" x="522.7063" y="442.5256">delegate request</text></g><g class="message" data-participant-1="RecipeServiceV2" data-participant-2="RecipesDatabase"><polygon fill="#58A6FF" points="810.6687,480.5049,822.3354,485.1715,810.6687,489.8382,815.3354,485.1715" style="stroke:#58A6FF;stroke-width:1.1667;"/><line style="stroke:#58A6FF;stroke-width:1.1667;" x1="657.109" x2="817.6687" y1="485.1715" y2="485.1715"/><text fill="#C9D1D9" font-family="sans-serif" font-size="15.1667" font-weight="bold" lengthAdjust="spacing" textLength="8.435" x="671.109" y="479.0317">4</text><text fill="#C9D1D9" font-family="sans-serif" font-size="15.1667" lengthAdjust="spacing" textLength="126.458" x="684.2107" y="479.0317">delete recipe by ID</text></g><path d="M829.5,507.3382 L829.5,524.8382 A7,7 0 0 0 836.5,531.8382 L940.3333,531.8382 A7,7 0 0 0 947.3333,524.8382 L947.3333,512.0049 L935.6667,500.3382 L836.5,500.3382 A7,7 0 0 0 829.5,507.3382" fill="#1C2330" style="stroke:#E7E7E7;stroke-width:0.5833;"/><path d="M935.6667,500.3382 L935.6667,508.5049 A3.5,3.5 0 0 0 939.1667,512.0049 L947.3333,512.0049 L935.6667,500.3382" fill="#1C2330" style="stroke:#E7E7E7;stroke-width:0.5833;"/><text fill="#C9D1D9" font-family="sans-serif" font-size="15.1667" lengthAdjust="spacing" textLength="94.4288" x="836.5" y="522.5379">deletes recipe</text><g class="message" data-participant-1="RecipeRestControllerV2" data-participant-2="Application"><polygon fill="#58A6FF" points="308.1726,560.5173,296.5059,565.1839,308.1726,569.8506,303.5059,565.1839" style="stroke:#58A6FF;stroke-width:1.1667;"/><line style="stroke:#58A6FF;stroke-width:1.1667;" x1="301.1726" x2="487.0298" y1="565.1839" y2="565.1839"/><text fill="#C9D1D9" font-family="sans-serif" font-size="15.1667" font-weight="bold" lengthAdjust="spacing" textLength="8.435" x="341.3833" y="559.0441">5</text><text fill="#C9D1D9" font-family="sans-serif" font-size="15.1667" lengthAdjust="spacing" textLength="87.6675" x="354.4849" y="559.0441">Http ok (200)</text></g><path d="M1054.6667,587.3506 L1054.6667,604.8506 A7,7 0 0 0 1061.6667,611.8506 L1158.5,611.8506 A7,7 0 0 0 1165.5,604.8506 L1165.5,592.0173 L1153.8333,580.3506 L1061.6667,580.3506 A7,7 0 0 0 1054.6667,587.3506" fill="#1C2330" style="stroke:#E7E7E7;stroke-width:0.5833;"/><path d="M1153.8333,580.3506 L1153.8333,588.5173 A3.5,3.5 0 0 0 1157.3333,592.0173 L1165.5,592.0173 L1153.8333,580.3506" fill="#1C2330" style="stroke:#E7E7E7;stroke-width:0.5833;"/><text fill="#C9D1D9" font-family="sans-serif" font-size="15.1667" lengthAdjust="spacing" textLength="86.8455" x="1061.6667" y="602.5503">log response</text><g class="message" data-participant-1="Application" data-participant-2="User"><polygon fill="#58A6FF" points="79.9167,640.5296,68.25,645.1963,79.9167,649.863,75.25,645.1963" style="stroke:#58A6FF;stroke-width:1.1667;"/><line style="stroke:#58A6FF;stroke-width:1.1667;" x1="72.9167" x2="294.1726" y1="645.1963" y2="645.1963"/><text fill="#C9D1D9" font-family="sans-serif" font-size="15.1667" font-weight="bold" lengthAdjust="spacing" textLength="8.435" x="130.8267" y="639.0565">6</text><text fill="#C9D1D9" font-family="sans-serif" font-size="15.1667" lengthAdjust="spacing" textLength="87.6675" x="143.9284" y="639.0565">Http ok (200)</text></g><line style="stroke:#30363D;stroke-width:1.1667;stroke-dasharray:2.3333,2.3333;" x1="23.3333" x2="1409.2143" y1="655.6963" y2="655.6963"/><text fill="#C9D1D9" font-family="sans-serif" font-size="12.8333" font-weight="bold" lengthAdjust="spacing" textLength="106.9528" x="29.1667" y="669.5448">[Validation failed]</text><g class="message" data-participant-1="RecipeRestControllerV2" data-participant-2="RecipeRestControllerV2LoggingAspect"><polygon fill="#58A6FF" points="1035.436,696.4385,1047.1027,701.1051,1035.436,705.7718,1040.1027,701.1051" style="stroke:#58A6FF;stroke-width:1.1667;"/><line style="stroke:#58A6FF;stroke-width:1.1667;" x1="488.1965" x2="1042.436" y1="701.1051" y2="701.1051"/><text fill="#C9D1D9" font-family="sans-serif" font-size="15.1667" font-weight="bold" lengthAdjust="spacing" textLength="8.435" x="709.1525" y="694.9653">7</text><text fill="#C9D1D9" font-family="sans-serif" font-size="15.1667" lengthAdjust="spacing" textLength="106.2259" x="722.2541" y="694.9653">throw exception</text></g><path d="M1054.6667,723.2718 L1054.6667,740.7718 A7,7 0 0 0 1061.6667,747.7718 L1128.1667,747.7718 A7,7 0 0 0 1135.1667,740.7718 L1135.1667,727.9385 L1123.5,716.2718 L1061.6667,716.2718 A7,7 0 0 0 1054.6667,723.2718" fill="#1C2330" style="stroke:#E7E7E7;stroke-width:0.5833;"/><path d="M1123.5,716.2718 L1123.5,724.4385 A3.5,3.5 0 0 0 1127,727.9385 L1135.1667,727.9385 L1123.5,716.2718" fill="#1C2330" style="stroke:#E7E7E7;stroke-width:0.5833;"/><text fill="#C9D1D9" font-family="sans-serif" font-size="15.1667" lengthAdjust="spacing" textLength="56.4751" x="1061.6667" y="738.4715">log error</text><g class="message" data-participant-1="RecipeRestControllerV2LoggingAspect" data-participant-2="GlobalExceptionsHandler"><polygon fill="#58A6FF" points="1287.8935,776.4508,1299.5601,781.1175,1287.8935,785.7842,1292.5601,781.1175" style="stroke:#58A6FF;stroke-width:1.1667;"/><line style="stroke:#58A6FF;stroke-width:1.1667;" x1="1049.436" x2="1294.8935" y1="781.1175" y2="781.1175"/><text fill="#C9D1D9" font-family="sans-serif" font-size="15.1667" font-weight="bold" lengthAdjust="spacing" textLength="8.435" x="1106.7329" y="774.9777">8</text><text fill="#C9D1D9" font-family="sans-serif" font-size="15.1667" lengthAdjust="spacing" textLength="124.7621" x="1119.8345" y="774.9777">re-throw exception</text></g><path d="M1306.6667,803.2842 L1306.6667,820.7842 A7,7 0 0 0 1313.6667,827.7842 L1380.1667,827.7842 A7,7 0 0 0 1387.1667,820.7842 L1387.1667,807.9508 L1375.5,796.2842 L1313.6667,796.2842 A7,7 0 0 0 1306.6667,803.2842" fill="#1C2330" style="stroke:#E7E7E7;stroke-width:0.5833;"/><path d="M1375.5,796.2842 L1375.5,804.4508 A3.5,3.5 0 0 0 1379,807.9508 L1387.1667,807.9508 L1375.5,796.2842" fill="#1C2330" style="stroke:#E7E7E7;stroke-width:0.5833;"/><text fill="#C9D1D9" font-family="sans-serif" font-size="15.1667" lengthAdjust="spacing" textLength="56.4751" x="1313.6667" y="818.4839">log error</text><g class="message" data-participant-1="RecipeRestControllerV2" data-participant-2="Application"><polygon fill="#58A6FF" points="308.1726,856.4632,296.5059,861.1299,308.1726,865.7965,303.5059,861.1299" style="stroke:#58A6FF;stroke-width:1.1667;"/><line style="stroke:#58A6FF;stroke-width:1.1667;" x1="301.1726" x2="487.0298" y1="861.1299" y2="861.1299"/><text fill="#C9D1D9" font-family="sans-serif" font-size="15.1667" font-weight="bold" lengthAdjust="spacing" textLength="8.435" x="309.3393" y="854.9901">9</text><text fill="#C9D1D9" font-family="sans-serif" font-size="15.1667" lengthAdjust="spacing" textLength="151.7555" x="322.4409" y="854.9901">Http bad request (400)</text></g><g class="message" data-participant-1="Application" data-participant-2="User"><polygon fill="#58A6FF" points="79.9167,892.9694,68.25,897.6361,79.9167,902.3027,75.25,897.6361" style="stroke:#58A6FF;stroke-width:1.1667;"/><line style="stroke:#58A6FF;stroke-width:1.1667;" x1="72.9167" x2="294.1726" y1="897.6361" y2="897.6361"/><text fill="#C9D1D9" font-family="sans-serif" font-size="15.1667" font-weight="bold" lengthAdjust="spacing" textLength="16.87" x="94.5652" y="891.4963">10</text><text fill="#C9D1D9" font-family="sans-serif" font-size="15.1667" lengthAdjust="spacing" textLength="151.7555" x="116.1018" y="891.4963">Http bad request (400)</text></g><line style="stroke:#30363D;stroke-width:1.1667;stroke-dasharray:2.3333,2.3333;" x1="11.6667" x2="1420.8809" y1="916.3027" y2="916.3027"/><text fill="#C9D1D9" font-family="sans-serif" font-size="12.8333" font-weight="bold" lengthAdjust="spacing" textLength="147.5959" x="17.5" y="930.1512">[User not authenticated]</text><g class="message" data-participant-1="Application" data-participant-2="User"><polygon fill="#58A6FF" points="79.9167,957.0449,68.25,961.7116,79.9167,966.3783,75.25,961.7116" style="stroke:#58A6FF;stroke-width:1.1667;"/><line style="stroke:#58A6FF;stroke-width:1.1667;" x1="72.9167" x2="294.1726" y1="961.7116" y2="961.7116"/><text fill="#C9D1D9" font-family="sans-serif" font-size="15.1667" font-weight="bold" lengthAdjust="spacing" textLength="16.87" x="102.9965" y="955.5718">11</text><text fill="#C9D1D9" font-family="sans-serif" font-size="15.1667" lengthAdjust="spacing" textLength="134.893" x="124.5331" y="955.5718">Http forbidden (403)</text></g><!--SRC=[fLN1Sjem4BtxAtQcb-IG0Pk6D3rq1Z0adTAqawIvozPYD0Z9bKGI9fD_hsICaOaDp1HkthTFx-skLeOPZX0ZHuEWC6KvGh86Hk427l3l2aMAGK1MHehLCa4L17h1H4uKMK92qaMcv4hGaUHImQVkE0p3Am-XvuJA5oOoc16kqOiKQQbK0XM4aHUWEOEmt_NFqQKEU0i0VgBM9CC1Pvc058MncW06IicNKiNbbq5_Ch4Vfso6KoPmA1L5LKPxtLw_5_lHVHTXFnn6aIDDZLIrv8fw4_hWFoxy0mpbQ_EXBj2IzUvRVdHjcKXXIipeEWxZQm-mxSsDPSgRpcg3jhZTmU-aQQZ9AEhrklie_zZnbVll8Jm7aqltz-952H_CseuVUK4jb_vun3WZAsu-Li3339q-ejPD7Mf0jPJTWuxiQKhomtnRq76wc1YI48s7-IhKSSBVH1bcRoWHvZ2d3soZ9Qxyy4VRwvEK9O91ddEM4iEa2DADJxWlTi8zQbCwvwYUehtm0wfdbgBzJaixPK1lxHtXcyeiisjYe7DCJOMzuJ8XVFoQOkuqwLiYA7SxoCc6Ys- -OFWAyNWwVXn3X-IiynnrDjjCTzuOVG-4TFkDPNC3ShQNPxVRt2uIzm4rh5n923T5RMenQYymr7AjX6O_bfNQdPgHOglQ-wTDaLoNqPhxJ3YZXHf6WoBH2NhQV7K7__fnCbsjj9QRomoi8xKk6DolHKPbhkfkcwiToGvQPLSZK6RNtfdlSKNGvELZhYwJJn1VR_AjCJd81Pn5tUxvmKDFAQ12dTk1tCdOcufYTfeEHViC-esS4SRBmJgb5SUqcRbz1m6tD-Q_VQ9zLzKHTVKyAxNbsbfAXHUdAModE5LLomGaX6v75yu- -wDme8FDIIXeKBIpW5hznvU5JpgJAc6Ked2KlVF0qlq3]--></g></svg>