<svg xmlns="http://www.w3.org/2000/svg" contentStyleType="text/css" data-diagram-type="SEQUENCE" height="981.1667px"
     preserveAspectRatio="none" style="width:1950px;height:981px;background:#0E1117;" version="1.1"
     viewBox="0 0 1950 981" width="1950.6667px" zoomAndPan="magnify"><title>Get recipes page - Sequence</title><defs/><g><rect fill="#0E1117" height="981.1667" style="stroke:none;stroke-width:1.1667;" width="1950.6667" x="0" y="0"/><text fill="#C9D1D9" font-family="sans-serif" font-size="16.3333" font-weight="bold" lengthAdjust="spacing" textLength="223.3073" x="865.2565" y="35.1253">Get recipes page - Sequence</text><rect fill="none" height="580.9954" rx="7" ry="7" style="stroke:#30363D;stroke-width:1.75;" width="1931.6536" x="11.6667" y="281.3011"/><g><title>User</title><rect fill="#000000" fill-opacity="0.00000" height="737.1807" width="9.3333" x="50.75" y="144.9492"/><line style="stroke:#30363D;stroke-width:0.5833;stroke-dasharray:5.8333,5.8333;" x1="54.8333" x2="54.8333" y1="144.9492" y2="882.1299"/></g><g><title>Application</title><rect fill="#000000" fill-opacity="0.00000" height="737.1807" width="9.3333" x="441.2996" y="144.9492"/><line style="stroke:#30363D;stroke-width:0.5833;stroke-dasharray:5.8333,5.8333;" x1="445.6809" x2="445.6809" y1="144.9492" y2="882.1299"/></g><g><title>RecipeRestControllerV2</title><rect fill="#000000" fill-opacity="0.00000" height="737.1807" width="9.3333" x="831.8493" y="144.9492"/><line style="stroke:#30363D;stroke-width:0.5833;stroke-dasharray:5.8333,5.8333;" x1="836.4117" x2="836.4117" y1="144.9492" y2="882.1299"/></g><g><title>RecipeServiceV2</title><rect fill="#000000" fill-opacity="0.00000" height="737.1807" width="9.3333" x="1014.583" y="144.9492"/><line style="stroke:#30363D;stroke-width:0.5833;stroke-dasharray:5.8333,5.8333;" x1="1018.4413" x2="1018.4413" y1="144.9492" y2="882.1299"/></g><g><title>RecipesDatabase</title><rect fill="#000000" fill-opacity="0.00000" height="737.1807" width="9.3333" x="1354.1081" y="144.9492"/><line style="stroke:#30363D;stroke-width:0.5833;stroke-dasharray:5.8333,5.8333;" x1="1358.4774" x2="1358.4774" y1="144.9492" y2="882.1299"/></g><g><title>RecipeRestControllerV2LoggingAspect</title><rect fill="#000000" fill-opacity="0.00000" height="737.1807" width="9.3333" x="1578.8754" y="144.9492"/><line style="stroke:#30363D;stroke-width:0.5833;stroke-dasharray:5.8333,5.8333;" x1="1583.0721" x2="1583.0721" y1="144.9492" y2="882.1299"/></g><g><title>GlobalExceptionsHandler</title><rect fill="#000000" fill-opacity="0.00000" height="737.1807" width="9.3333" x="1831.3328" y="144.9492"/><line style="stroke:#30363D;stroke-width:0.5833;stroke-dasharray:5.8333,5.8333;" x1="1834.8454" x2="1834.8454" y1="144.9492" y2="882.1299"/></g><g class="participant participant-head" data-participant="User"><text fill="#C9D1D9" font-family="sans-serif" font-size="16.3333" lengthAdjust="spacing" textLength="34.485" x="34.6742" y="140.8499">User</text><ellipse cx="55.4167" cy="71.3079" fill="#0D1117" rx="18.6667" ry="18.6667" style="stroke:#58A6FF;stroke-width:0.5833;"/><path d="M55.4167,94.6413 C60.0833,94.6413 63.5833,94.6413 68.25,89.9746 C77.5833,89.9746 86.9167,99.3079 86.9167,108.6413 L86.9167,113.3079 C86.9167,117.9746 82.25,122.6413 77.5833,122.6413 L33.25,122.6413 C28.5833,122.6413 23.9167,117.9746 23.9167,113.3079 L23.9167,108.6413 C23.9167,99.3079 33.25,89.9746 42.5833,89.9746 C47.25,94.6413 50.75,94.6413 55.4167,94.6413" fill="#0D1117" style="stroke:#58A6FF;stroke-width:0.5833;"/></g><g class="participant participant-tail" data-participant="User"><text fill="#C9D1D9" font-family="sans-serif" font-size="16.3333" lengthAdjust="spacing" textLength="34.485" x="34.6742" y="898.5885">User</text><ellipse cx="55.4167" cy="921.9378" fill="#0D1117" rx="18.6667" ry="18.6667" style="stroke:#58A6FF;stroke-width:0.5833;"/><path d="M55.4167,945.2712 C60.0833,945.2712 63.5833,945.2712 68.25,940.6045 C77.5833,940.6045 86.9167,949.9378 86.9167,959.2712 L86.9167,963.9378 C86.9167,968.6045 82.25,973.2712 77.5833,973.2712 L33.25,973.2712 C28.5833,973.2712 23.9167,968.6045 23.9167,963.9378 L23.9167,959.2712 C23.9167,949.9378 33.25,940.6045 42.5833,940.6045 C47.25,945.2712 50.75,945.2712 55.4167,945.2712" fill="#0D1117" style="stroke:#58A6FF;stroke-width:0.5833;"/></g><g class="participant participant-head" data-participant="Application"><text fill="#C9D1D9" font-family="sans-serif" font-size="16.3333" lengthAdjust="spacing" textLength="79.9041" x="402.5142" y="140.8499">Application</text><path d="M422.0496,90.5579 L422.0496,118.5579 M422.0496,104.5579 L441.883,104.5579" fill="none" style="stroke:#58A6FF;stroke-width:0.5833;"/><ellipse cx="455.883" cy="104.5579" fill="#0D1117" rx="14" ry="14" style="stroke:#58A6FF;stroke-width:0.5833;"/></g><g class="participant participant-tail" data-participant="Application"><text fill="#C9D1D9" font-family="sans-serif" font-size="16.3333" lengthAdjust="spacing" textLength="79.9041" x="402.5142" y="898.5885">Application</text><path d="M422.0496,907.3545 L422.0496,935.3545 M422.0496,921.3545 L441.883,921.3545" fill="none" style="stroke:#58A6FF;stroke-width:0.5833;"/><ellipse cx="455.883" cy="921.3545" fill="#0D1117" rx="14" ry="14" style="stroke:#58A6FF;stroke-width:0.5833;"/></g><g class="participant participant-head" data-participant="RecipeRestControllerV2"><text fill="#C9D1D9" font-family="sans-serif" font-size="16.3333" lengthAdjust="spacing" textLength="175.2085" x="745.4117" y="140.8499">RecipeRestControllerV2</text><ellipse cx="836.516" cy="104.5579" fill="#0D1117" rx="14" ry="14" style="stroke:#58A6FF;stroke-width:0.5833;"/><polygon fill="#58A6FF" points="831.8493,90.5579,838.8493,84.7246,836.516,90.5579,838.8493,96.3913,831.8493,90.5579" style="stroke:#58A6FF;stroke-width:1.1667;"/></g><g class="participant participant-tail" data-participant="RecipeRestControllerV2"><text fill="#C9D1D9" font-family="sans-serif" font-size="16.3333" lengthAdjust="spacing" textLength="175.2085" x="745.4117" y="898.5885">RecipeRestControllerV2</text><ellipse cx="836.516" cy="921.3545" fill="#0D1117" rx="14" ry="14" style="stroke:#58A6FF;stroke-width:0.5833;"/><polygon fill="#58A6FF" points="831.8493,907.3545,838.8493,901.5212,836.516,907.3545,838.8493,913.1878,831.8493,907.3545" style="stroke:#58A6FF;stroke-width:1.1667;"/></g><g class="participant participant-head" data-participant="RecipeServiceV2"><text fill="#C9D1D9" font-family="sans-serif" font-size="16.3333" lengthAdjust="spacing" textLength="125.2834" x="953.108" y="140.8499">RecipeServiceV2</text><ellipse cx="1019.2497" cy="104.5579" fill="#0D1117" rx="14" ry="14" style="stroke:#58A6FF;stroke-width:0.5833;"/><polygon fill="#58A6FF" points="1014.583,90.5579,1021.583,84.7246,1019.2497,90.5579,1021.583,96.3913,1014.583,90.5579" style="stroke:#58A6FF;stroke-width:1.1667;"/></g><g class="participant participant-tail" data-participant="RecipeServiceV2"><text fill="#C9D1D9" font-family="sans-serif" font-size="16.3333" lengthAdjust="spacing" textLength="125.2834" x="953.108" y="898.5885">RecipeServiceV2</text><ellipse cx="1019.2497" cy="921.3545" fill="#0D1117" rx="14" ry="14" style="stroke:#58A6FF;stroke-width:0.5833;"/><polygon fill="#58A6FF" points="1014.583,907.3545,1021.583,901.5212,1019.2497,907.3545,1021.583,913.1878,1014.583,907.3545" style="stroke:#58A6FF;stroke-width:1.1667;"/></g><g class="participant participant-head" data-participant="RecipesDatabase"><text fill="#C9D1D9" font-family="sans-serif" font-size="16.3333" lengthAdjust="spacing" textLength="128.9281" x="1290.8107" y="140.8499">RecipesDatabase</text><path d="M1337.7747,81.2246 C1337.7747,69.5579 1358.7747,69.5579 1358.7747,69.5579 C1358.7747,69.5579 1379.7747,69.5579 1379.7747,81.2246 L1379.7747,111.5579 C1379.7747,123.2246 1358.7747,123.2246 1358.7747,123.2246 C1358.7747,123.2246 1337.7747,123.2246 1337.7747,111.5579 L1337.7747,81.2246" fill="#0D1117" style="stroke:#58A6FF;stroke-width:0.5833;"/><path d="M1337.7747,81.2246 C1337.7747,92.8913 1358.7747,92.8913 1358.7747,92.8913 C1358.7747,92.8913 1379.7747,92.8913 1379.7747,81.2246" fill="none" style="stroke:#58A6FF;stroke-width:0.5833;"/></g><g class="participant participant-tail" data-participant="RecipesDatabase"><text fill="#C9D1D9" font-family="sans-serif" font-size="16.3333" lengthAdjust="spacing" textLength="128.9281" x="1290.8107" y="898.5885">RecipesDatabase</text><path d="M1337.7747,914.3545 C1337.7747,902.6878 1358.7747,902.6878 1358.7747,902.6878 C1358.7747,902.6878 1379.7747,902.6878 1379.7747,914.3545 L1379.7747,944.6878 C1379.7747,956.3545 1358.7747,956.3545 1358.7747,956.3545 C1358.7747,956.3545 1337.7747,956.3545 1337.7747,944.6878 L1337.7747,914.3545" fill="#0D1117" style="stroke:#58A6FF;stroke-width:0.5833;"/><path d="M1337.7747,914.3545 C1337.7747,926.0212 1358.7747,926.0212 1358.7747,926.0212 C1358.7747,926.0212 1379.7747,926.0212 1379.7747,914.3545" fill="none" style="stroke:#58A6FF;stroke-width:0.5833;"/></g><g class="participant participant-head" data-participant="RecipeRestControllerV2LoggingAspect"><text fill="#C9D1D9" font-family="sans-serif" font-size="16.3333" lengthAdjust="spacing" textLength="283.2733" x="1438.4054" y="140.8499">RecipeRestControllerV2LoggingAspect</text><ellipse cx="1583.5421" cy="104.5579" fill="#0D1117" rx="14" ry="14" style="stroke:#58A6FF;stroke-width:0.5833;"/><polygon fill="#58A6FF" points="1578.8754,90.5579,1585.8754,84.7246,1583.5421,90.5579,1585.8754,96.3913,1578.8754,90.5579" style="stroke:#58A6FF;stroke-width:1.1667;"/></g><g class="participant participant-tail" data-participant="RecipeRestControllerV2LoggingAspect"><text fill="#C9D1D9" font-family="sans-serif" font-size="16.3333" lengthAdjust="spacing" textLength="283.2733" x="1438.4054" y="898.5885">RecipeRestControllerV2LoggingAspect</text><ellipse cx="1583.5421" cy="921.3545" fill="#0D1117" rx="14" ry="14" style="stroke:#58A6FF;stroke-width:0.5833;"/><polygon fill="#58A6FF" points="1578.8754,907.3545,1585.8754,901.5212,1583.5421,907.3545,1585.8754,913.1878,1578.8754,907.3545" style="stroke:#58A6FF;stroke-width:1.1667;"/></g><g class="participant participant-head" data-participant="GlobalExceptionsHandler"><text fill="#C9D1D9" font-family="sans-serif" font-size="16.3333" lengthAdjust="spacing" textLength="184.3083" x="1740.3454" y="140.8499">GlobalExceptionsHandler</text><ellipse cx="1835.9995" cy="104.5579" fill="#0D1117" rx="14" ry="14" style="stroke:#58A6FF;stroke-width:0.5833;"/><polygon fill="#58A6FF" points="1831.3328,90.5579,1838.3328,84.7246,1835.9995,90.5579,1838.3328,96.3913,1831.3328,90.5579" style="stroke:#58A6FF;stroke-width:1.1667;"/></g><g class="participant participant-tail" data-participant="GlobalExceptionsHandler"><text fill="#C9D1D9" font-family="sans-serif" font-size="16.3333" lengthAdjust="spacing" textLength="184.3083" x="1740.3454" y="898.5885">GlobalExceptionsHandler</text><ellipse cx="1835.9995" cy="921.3545" fill="#0D1117" rx="14" ry="14" style="stroke:#58A6FF;stroke-width:0.5833;"/><polygon fill="#58A6FF" points="1831.3328,907.3545,1838.3328,901.5212,1835.9995,907.3545,1838.3328,913.1878,1831.3328,907.3545" style="stroke:#58A6FF;stroke-width:1.1667;"/></g><g class="message" data-participant-1="User" data-participant-2="Application"><polygon fill="#58A6FF" points="431.9663,179.1221,443.633,183.7887,431.9663,188.4554,436.633,183.7887" style="stroke:#58A6FF;stroke-width:1.1667;"/><line style="stroke:#58A6FF;stroke-width:1.1667;" x1="55.4167" x2="438.9663" y1="183.7887" y2="183.7887"/><text fill="#C9D1D9" font-family="sans-serif" font-size="15.1667" font-weight="bold" lengthAdjust="spacing" textLength="8.435" x="71.3014" y="177.6489">1</text><text fill="#C9D1D9" font-family="sans-serif" font-size="15.1667" lengthAdjust="spacing" textLength="345.6785" x="84.403" y="177.6489">GET /api/v2/recipes?pageNumber=0&amp;pageSize=10</text></g><g class="message" data-participant-1="Application" data-participant-2="RecipeRestControllerV2"><polygon fill="#58A6FF" points="822.516,215.6283,834.1826,220.2949,822.516,224.9616,827.1826,220.2949" style="stroke:#58A6FF;stroke-width:1.1667;"/><line style="stroke:#58A6FF;stroke-width:1.1667;" x1="445.9663" x2="829.516" y1="220.2949" y2="220.2949"/><text fill="#C9D1D9" font-family="sans-serif" font-size="15.1667" font-weight="bold" lengthAdjust="spacing" textLength="8.435" x="578.193" y="214.1551">2</text><text fill="#C9D1D9" font-family="sans-serif" font-size="15.1667" lengthAdjust="spacing" textLength="112.9946" x="591.2946" y="214.1551">delegate request</text></g><path d="M842.3333,242.4616 L842.3333,259.9616 A7,7 0 0 0 849.3333,266.9616 L1100.1667,266.9616 A7,7 0 0 0 1107.1667,259.9616 L1107.1667,247.1283 L1095.5,235.4616 L849.3333,235.4616 A7,7 0 0 0 842.3333,242.4616" fill="#1C2330" style="stroke:#E7E7E7;stroke-width:0.5833;"/><path d="M1095.5,235.4616 L1095.5,243.6283 A3.5,3.5 0 0 0 1099,247.1283 L1107.1667,247.1283 L1095.5,235.4616" fill="#1C2330" style="stroke:#E7E7E7;stroke-width:0.5833;"/><text fill="#C9D1D9" font-family="sans-serif" font-size="15.1667" lengthAdjust="spacing" textLength="241.1485" x="849.3333" y="257.6613">validate pageNumber and pageSize</text><path d="M18.6667,281.3011 L81.866,281.3011 L81.866,292.1406 L70.1994,303.8073 L11.6667,303.8073 L11.6667,288.3011 A7,7 0 0 1 18.6667,281.3011" fill="#161B22" style="stroke:#30363D;stroke-width:1.75;"/><rect fill="none" height="580.9954" rx="7" ry="7" style="stroke:#30363D;stroke-width:1.75;" width="1931.6536" x="11.6667" y="281.3011"/><text fill="#C9D1D9" font-family="sans-serif" font-size="15.1667" font-weight="bold" lengthAdjust="spacing" textLength="17.6994" x="29.1667" y="298.8341">alt</text><text fill="#C9D1D9" font-family="sans-serif" font-size="12.8333" font-weight="bold" lengthAdjust="spacing" textLength="219.6455" x="99.366" y="297.4829">[correct pageNumber and pageSize]</text><path d="M1589,316.6406 L1589,334.1406 A7,7 0 0 0 1596,341.1406 L1663.6667,341.1406 A7,7 0 0 0 1670.6667,334.1406 L1670.6667,321.3073 L1659,309.6406 L1596,309.6406 A7,7 0 0 0 1589,316.6406" fill="#1C2330" style="stroke:#E7E7E7;stroke-width:0.5833;"/><path d="M1659,309.6406 L1659,317.8073 A3.5,3.5 0 0 0 1662.5,321.3073 L1670.6667,321.3073 L1659,309.6406" fill="#1C2330" style="stroke:#E7E7E7;stroke-width:0.5833;"/><text fill="#C9D1D9" font-family="sans-serif" font-size="15.1667" lengthAdjust="spacing" textLength="58.171" x="1596" y="331.8403">log entry</text><g class="message" data-participant-1="RecipeRestControllerV2" data-participant-2="RecipeServiceV2"><polygon fill="#58A6FF" points="1005.2497,369.8197,1016.9163,374.4863,1005.2497,379.153,1009.9163,374.4863" style="stroke:#58A6FF;stroke-width:1.1667;"/><line style="stroke:#58A6FF;stroke-width:1.1667;" x1="836.516" x2="1012.2497" y1="374.4863" y2="374.4863"/><text fill="#C9D1D9" font-family="sans-serif" font-size="15.1667" font-weight="bold" lengthAdjust="spacing" textLength="8.435" x="864.8347" y="368.3465">3</text><text fill="#C9D1D9" font-family="sans-serif" font-size="15.1667" lengthAdjust="spacing" textLength="112.9946" x="877.9363" y="368.3465">delegate request</text></g><g class="message" data-participant-1="RecipeServiceV2" data-participant-2="RecipesDatabase"><polygon fill="#58A6FF" points="1344.7747,406.3258,1356.4414,410.9925,1344.7747,415.6592,1349.4414,410.9925" style="stroke:#58A6FF;stroke-width:1.1667;"/><line style="stroke:#58A6FF;stroke-width:1.1667;" x1="1019.2497" x2="1351.7747" y1="410.9925" y2="410.9925"/><text fill="#C9D1D9" font-family="sans-serif" font-size="15.1667" font-weight="bold" lengthAdjust="spacing" textLength="8.435" x="1033.2497" y="404.8527">4</text><text fill="#C9D1D9" font-family="sans-serif" font-size="15.1667" lengthAdjust="spacing" textLength="298.4234" x="1046.3513" y="404.8527">findDistinctRecipes(pageNumber, pageSize)</text></g><g class="message" data-participant-1="RecipesDatabase" data-participant-2="RecipeServiceV2"><polygon fill="#58A6FF" points="1032.083,442.832,1020.4163,447.4987,1032.083,452.1654,1027.4163,447.4987" style="stroke:#58A6FF;stroke-width:1.1667;"/><line style="stroke:#58A6FF;stroke-width:1.1667;" x1="1025.083" x2="1357.6081" y1="447.4987" y2="447.4987"/><text fill="#C9D1D9" font-family="sans-serif" font-size="15.1667" font-weight="bold" lengthAdjust="spacing" textLength="8.435" x="1111.6453" y="441.3589">5</text><text fill="#C9D1D9" font-family="sans-serif" font-size="15.1667" lengthAdjust="spacing" textLength="141.6321" x="1124.747" y="441.3589">List&lt;Recipe&gt; recipes</text></g><g class="message" data-participant-1="RecipeServiceV2" data-participant-2="RecipeRestControllerV2"><polygon fill="#58A6FF" points="849.3493,479.3382,837.6826,484.0049,849.3493,488.6715,844.6826,484.0049" style="stroke:#58A6FF;stroke-width:1.1667;"/><line style="stroke:#58A6FF;stroke-width:1.1667;" x1="842.3493" x2="1018.083" y1="484.0049" y2="484.0049"/><text fill="#C9D1D9" font-family="sans-serif" font-size="15.1667" font-weight="bold" lengthAdjust="spacing" textLength="8.435" x="850.516" y="477.8651">6</text><text fill="#C9D1D9" font-family="sans-serif" font-size="15.1667" lengthAdjust="spacing" textLength="141.6321" x="863.6176" y="477.8651">List&lt;Recipe&gt; recipes</text></g><g class="message" data-participant-1="RecipeRestControllerV2" data-participant-2="Application"><polygon fill="#58A6FF" points="458.7996,515.8444,447.133,520.5111,458.7996,525.1777,454.133,520.5111" style="stroke:#58A6FF;stroke-width:1.1667;"/><line style="stroke:#58A6FF;stroke-width:1.1667;" x1="451.7996" x2="835.3493" y1="520.5111" y2="520.5111"/><text fill="#C9D1D9" font-family="sans-serif" font-size="15.1667" font-weight="bold" lengthAdjust="spacing" textLength="8.435" x="459.9663" y="514.3713">7</text><text fill="#C9D1D9" font-family="sans-serif" font-size="15.1667" lengthAdjust="spacing" textLength="349.448" x="473.068" y="514.3713">Http ok (200) + List&lt;RecipeResponseBody&gt; recipes</text></g><path d="M1589,542.6777 L1589,560.1777 A7,7 0 0 0 1596,567.1777 L1692.8333,567.1777 A7,7 0 0 0 1699.8333,560.1777 L1699.8333,547.3444 L1688.1667,535.6777 L1596,535.6777 A7,7 0 0 0 1589,542.6777" fill="#1C2330" style="stroke:#E7E7E7;stroke-width:0.5833;"/><path d="M1688.1667,535.6777 L1688.1667,543.8444 A3.5,3.5 0 0 0 1691.6667,547.3444 L1699.8333,547.3444 L1688.1667,535.6777" fill="#1C2330" style="stroke:#E7E7E7;stroke-width:0.5833;"/><text fill="#C9D1D9" font-family="sans-serif" font-size="15.1667" lengthAdjust="spacing" textLength="86.8455" x="1596" y="557.8774">log response</text><g class="message" data-participant-1="Application" data-participant-2="User"><polygon fill="#58A6FF" points="68.25,595.8568,56.5833,600.5234,68.25,605.1901,63.5833,600.5234" style="stroke:#58A6FF;stroke-width:1.1667;"/><line style="stroke:#58A6FF;stroke-width:1.1667;" x1="61.25" x2="444.7996" y1="600.5234" y2="600.5234"/><text fill="#C9D1D9" font-family="sans-serif" font-size="15.1667" font-weight="bold" lengthAdjust="spacing" textLength="8.435" x="69.4167" y="594.3836">8</text><text fill="#C9D1D9" font-family="sans-serif" font-size="15.1667" lengthAdjust="spacing" textLength="349.448" x="82.5183" y="594.3836">Http ok (200) + List&lt;RecipeResponseBody&gt; recipes</text></g><line style="stroke:#30363D;stroke-width:1.1667;stroke-dasharray:2.3333,2.3333;" x1="11.6667" x2="1943.3203" y1="611.0234" y2="611.0234"/><text fill="#C9D1D9" font-family="sans-serif" font-size="12.8333" font-weight="bold" lengthAdjust="spacing" textLength="231.0501" x="17.5" y="624.8719">[incorrect pageNumber and pageSize]</text><g class="message" data-participant-1="RecipeRestControllerV2" data-participant-2="RecipeRestControllerV2LoggingAspect"><polygon fill="#58A6FF" points="1569.5421,651.7656,1581.2087,656.4323,1569.5421,661.099,1574.2087,656.4323" style="stroke:#58A6FF;stroke-width:1.1667;"/><line style="stroke:#58A6FF;stroke-width:1.1667;" x1="836.516" x2="1576.5421" y1="656.4323" y2="656.4323"/><text fill="#C9D1D9" font-family="sans-serif" font-size="15.1667" font-weight="bold" lengthAdjust="spacing" textLength="8.435" x="1150.3652" y="650.2925">9</text><text fill="#C9D1D9" font-family="sans-serif" font-size="15.1667" lengthAdjust="spacing" textLength="106.2259" x="1163.4669" y="650.2925">throw exception</text></g><path d="M1589,678.599 L1589,696.099 A7,7 0 0 0 1596,703.099 L1662.5,703.099 A7,7 0 0 0 1669.5,696.099 L1669.5,683.2656 L1657.8333,671.599 L1596,671.599 A7,7 0 0 0 1589,678.599" fill="#1C2330" style="stroke:#E7E7E7;stroke-width:0.5833;"/><path d="M1657.8333,671.599 L1657.8333,679.7656 A3.5,3.5 0 0 0 1661.3333,683.2656 L1669.5,683.2656 L1657.8333,671.599" fill="#1C2330" style="stroke:#E7E7E7;stroke-width:0.5833;"/><text fill="#C9D1D9" font-family="sans-serif" font-size="15.1667" lengthAdjust="spacing" textLength="56.4751" x="1596" y="693.7987">log error</text><g class="message" data-participant-1="RecipeRestControllerV2LoggingAspect" data-participant-2="GlobalExceptionsHandler"><polygon fill="#58A6FF" points="1821.9995,731.778,1833.6662,736.4447,1821.9995,741.1113,1826.6662,736.4447" style="stroke:#58A6FF;stroke-width:1.1667;"/><line style="stroke:#58A6FF;stroke-width:1.1667;" x1="1583.5421" x2="1828.9995" y1="736.4447" y2="736.4447"/><text fill="#C9D1D9" font-family="sans-serif" font-size="15.1667" font-weight="bold" lengthAdjust="spacing" textLength="16.87" x="1636.6214" y="730.3049">10</text><text fill="#C9D1D9" font-family="sans-serif" font-size="15.1667" lengthAdjust="spacing" textLength="124.7621" x="1658.158" y="730.3049">re-throw exception</text></g><path d="M1841,758.6113 L1841,776.1113 A7,7 0 0 0 1848,783.1113 L1914.5,783.1113 A7,7 0 0 0 1921.5,776.1113 L1921.5,763.278 L1909.8333,751.6113 L1848,751.6113 A7,7 0 0 0 1841,758.6113" fill="#1C2330" style="stroke:#E7E7E7;stroke-width:0.5833;"/><path d="M1909.8333,751.6113 L1909.8333,759.778 A3.5,3.5 0 0 0 1913.3333,763.278 L1921.5,763.278 L1909.8333,751.6113" fill="#1C2330" style="stroke:#E7E7E7;stroke-width:0.5833;"/><text fill="#C9D1D9" font-family="sans-serif" font-size="15.1667" lengthAdjust="spacing" textLength="56.4751" x="1848" y="773.811">log error</text><g class="message" data-participant-1="RecipeRestControllerV2" data-participant-2="Application"><polygon fill="#58A6FF" points="458.7996,811.7904,447.133,816.457,458.7996,821.1237,454.133,816.457" style="stroke:#58A6FF;stroke-width:1.1667;"/><line style="stroke:#58A6FF;stroke-width:1.1667;" x1="451.7996" x2="835.3493" y1="816.457" y2="816.457"/><text fill="#C9D1D9" font-family="sans-serif" font-size="15.1667" font-weight="bold" lengthAdjust="spacing" textLength="16.87" x="554.5951" y="810.3172">11</text><text fill="#C9D1D9" font-family="sans-serif" font-size="15.1667" lengthAdjust="spacing" textLength="151.7555" x="576.1317" y="810.3172">Http bad request (400)</text></g><g class="message" data-participant-1="Application" data-participant-2="User"><polygon fill="#58A6FF" points="68.25,848.2965,56.5833,852.9632,68.25,857.6299,63.5833,852.9632" style="stroke:#58A6FF;stroke-width:1.1667;"/><line style="stroke:#58A6FF;stroke-width:1.1667;" x1="61.25" x2="444.7996" y1="852.9632" y2="852.9632"/><text fill="#C9D1D9" font-family="sans-serif" font-size="15.1667" font-weight="bold" lengthAdjust="spacing" textLength="16.87" x="164.0454" y="846.8234">12</text><text fill="#C9D1D9" font-family="sans-serif" font-size="15.1667" lengthAdjust="spacing" textLength="151.7555" x="185.582" y="846.8234">Http bad request (400)</text></g><!--SRC=[fLLHJzim47xFhpXfqiIq8P9qb34DfhPfoqE79ihsxYRNO67ip7Q1Rjf_toKagLkI1h7cgRdlFd_VtVbYkHK8KxIWCUOP6iXOYd08S_orGXcZvx6LLN9rjq3jUUQMounfTWSB5j-cMgraCb92QNZZZuCWE74GveObwe7B59PC67GYHLgij4GDGUW4aen3qFVTSqof0_vu0D_G698t43oL4AEqf0bWeBLwA5KSVnhq9nDwEUDBd769GwKJr6Mqv_VwlSYDxhe8-i4m37FIs2gzbLnJFuMU-OyA_m13zTXyQ1veoVhhMhxEUp9HqfQOqMaKHASEeEhDb9YofhFQe2rkD_1BPHjgCWfxFNyNvHuxFicV7OJZO7ASFqwyAE7Shcdss0CQTUUEHuHBjXBsUGKSp33Nn_IwgKCDg9QoEz0HdQQLsCzNWRhf8cRPWXdSprUZkWc_CsqvtL0cxNvE5zX6o_Bommz3rsTHbWW6MIPup2nNqekVVC9LiHEkqDZIkK3zCzm9pr7VynZfVLBQAGEcijV1DrDfIcjYO3ACROsT2hLWOlmOOvPhCXTC9YBVGRbiE3nt1SDdc8wluOXb_EW-F2fNsTTybLqMc-lCVvl_cVFVU1RudfjAJCsoY3H1WIcpICkHhf6ndbJv7vxUM53Bzhnx9dYIvsqK0Cc7IWDrG5YW3KXARIi8wFUI0xVgHwSBbGBjHhqk65f4rhRhzZNvtH1iO7LctL_AN7APHDnOBcDRHWyslZxKfjuvb9lyHZ4pellozFgy-Zhj5zJGYGwIfh9ipzM5jHceMpW8VVyTl7S9AJcZmQGxdgotoL_RDLqo5YGxGrgC_Ilq87rxWThoWc7h6fKk2_Q6FiI0rPNzlm6cZxhUesexXoIsx0kYqtZOhQmz_ILgMkPcmPBgAi71HsfOLsEV9w1C_W40]--></g></svg>