<svg xmlns="http://www.w3.org/2000/svg" contentStyleType="text/css" data-diagram-type="SEQUENCE" height="981.1667px"
     preserveAspectRatio="none" style="width:1964px;height:981px;background:#0E1117;" version="1.1"
     viewBox="0 0 1964 981" width="1964.6667px" zoomAndPan="magnify"><title>Search recipes - Sequence</title><defs/><g><rect fill="#0E1117" height="981.1667" style="stroke:none;stroke-width:1.1667;" width="1964.6667" x="0" y="0"/><text fill="#C9D1D9" font-family="sans-serif" font-size="16.3333" font-weight="bold" lengthAdjust="spacing" textLength="207.8991" x="879.7256" y="35.1253">Search recipes - Sequence</text><rect fill="none" height="580.9954" rx="7" ry="7" style="stroke:#30363D;stroke-width:1.75;" width="1945.1837" x="11.6667" y="281.3011"/><g><title>User</title><rect fill="#000000" fill-opacity="0.00000" height="737.1807" width="9.3333" x="50.75" y="144.9492"/><line style="stroke:#30363D;stroke-width:0.5833;stroke-dasharray:5.8333,5.8333;" x1="54.8333" x2="54.8333" y1="144.9492" y2="882.1299"/></g><g><title>Application</title><rect fill="#000000" fill-opacity="0.00000" height="737.1807" width="9.3333" x="505.4025" y="144.9492"/><line style="stroke:#30363D;stroke-width:0.5833;stroke-dasharray:5.8333,5.8333;" x1="509.7838" x2="509.7838" y1="144.9492" y2="882.1299"/></g><g><title>RecipeRestControllerV2</title><rect fill="#000000" fill-opacity="0.00000" height="737.1807" width="9.3333" x="895.9521" y="144.9492"/><line style="stroke:#30363D;stroke-width:0.5833;stroke-dasharray:5.8333,5.8333;" x1="900.5146" x2="900.5146" y1="144.9492" y2="882.1299"/></g><g><title>RecipeServiceV2</title><rect fill="#000000" fill-opacity="0.00000" height="737.1807" width="9.3333" x="1078.6859" y="144.9492"/><line style="stroke:#30363D;stroke-width:0.5833;stroke-dasharray:5.8333,5.8333;" x1="1082.5442" x2="1082.5442" y1="144.9492" y2="882.1299"/></g><g><title>RecipesDatabase</title><rect fill="#000000" fill-opacity="0.00000" height="737.1807" width="9.3333" x="1367.6381" y="144.9492"/><line style="stroke:#30363D;stroke-width:0.5833;stroke-dasharray:5.8333,5.8333;" x1="1372.0074" x2="1372.0074" y1="144.9492" y2="882.1299"/></g><g><title>RecipeRestControllerV2LoggingAspect</title><rect fill="#000000" fill-opacity="0.00000" height="737.1807" width="9.3333" x="1592.4054" y="144.9492"/><line style="stroke:#30363D;stroke-width:0.5833;stroke-dasharray:5.8333,5.8333;" x1="1596.6021" x2="1596.6021" y1="144.9492" y2="882.1299"/></g><g><title>GlobalExceptionsHandler</title><rect fill="#000000" fill-opacity="0.00000" height="737.1807" width="9.3333" x="1844.8629" y="144.9492"/><line style="stroke:#30363D;stroke-width:0.5833;stroke-dasharray:5.8333,5.8333;" x1="1848.3754" x2="1848.3754" y1="144.9492" y2="882.1299"/></g><g class="participant participant-head" data-participant="User"><text fill="#C9D1D9" font-family="sans-serif" font-size="16.3333" lengthAdjust="spacing" textLength="34.485" x="34.6742" y="140.8499">User</text><ellipse cx="55.4167" cy="71.3079" fill="#0D1117" rx="18.6667" ry="18.6667" style="stroke:#58A6FF;stroke-width:0.5833;"/><path d="M55.4167,94.6413 C60.0833,94.6413 63.5833,94.6413 68.25,89.9746 C77.5833,89.9746 86.9167,99.3079 86.9167,108.6413 L86.9167,113.3079 C86.9167,117.9746 82.25,122.6413 77.5833,122.6413 L33.25,122.6413 C28.5833,122.6413 23.9167,117.9746 23.9167,113.3079 L23.9167,108.6413 C23.9167,99.3079 33.25,89.9746 42.5833,89.9746 C47.25,94.6413 50.75,94.6413 55.4167,94.6413" fill="#0D1117" style="stroke:#58A6FF;stroke-width:0.5833;"/></g><g class="participant participant-tail" data-participant="User"><text fill="#C9D1D9" font-family="sans-serif" font-size="16.3333" lengthAdjust="spacing" textLength="34.485" x="34.6742" y="898.5885">User</text><ellipse cx="55.4167" cy="921.9378" fill="#0D1117" rx="18.6667" ry="18.6667" style="stroke:#58A6FF;stroke-width:0.5833;"/><path d="M55.4167,945.2712 C60.0833,945.2712 63.5833,945.2712 68.25,940.6045 C77.5833,940.6045 86.9167,949.9378 86.9167,959.2712 L86.9167,963.9378 C86.9167,968.6045 82.25,973.2712 77.5833,973.2712 L33.25,973.2712 C28.5833,973.2712 23.9167,968.6045 23.9167,963.9378 L23.9167,959.2712 C23.9167,949.9378 33.25,940.6045 42.5833,940.6045 C47.25,945.2712 50.75,945.2712 55.4167,945.2712" fill="#0D1117" style="stroke:#58A6FF;stroke-width:0.5833;"/></g><g class="participant participant-head" data-participant="Application"><text fill="#C9D1D9" font-family="sans-serif" font-size="16.3333" lengthAdjust="spacing" textLength="79.9041" x="466.6171" y="140.8499">Application</text><path d="M486.1525,90.5579 L486.1525,118.5579 M486.1525,104.5579 L505.9858,104.5579" fill="none" style="stroke:#58A6FF;stroke-width:0.5833;"/><ellipse cx="519.9858" cy="104.5579" fill="#0D1117" rx="14" ry="14" style="stroke:#58A6FF;stroke-width:0.5833;"/></g><g class="participant participant-tail" data-participant="Application"><text fill="#C9D1D9" font-family="sans-serif" font-size="16.3333" lengthAdjust="spacing" textLength="79.9041" x="466.6171" y="898.5885">Application</text><path d="M486.1525,907.3545 L486.1525,935.3545 M486.1525,921.3545 L505.9858,921.3545" fill="none" style="stroke:#58A6FF;stroke-width:0.5833;"/><ellipse cx="519.9858" cy="921.3545" fill="#0D1117" rx="14" ry="14" style="stroke:#58A6FF;stroke-width:0.5833;"/></g><g class="participant participant-head" data-participant="RecipeRestControllerV2"><text fill="#C9D1D9" font-family="sans-serif" font-size="16.3333" lengthAdjust="spacing" textLength="175.2085" x="809.5146" y="140.8499">RecipeRestControllerV2</text><ellipse cx="900.6188" cy="104.5579" fill="#0D1117" rx="14" ry="14" style="stroke:#58A6FF;stroke-width:0.5833;"/><polygon fill="#58A6FF" points="895.9521,90.5579,902.9521,84.7246,900.6188,90.5579,902.9521,96.3913,895.9521,90.5579" style="stroke:#58A6FF;stroke-width:1.1667;"/></g><g class="participant participant-tail" data-participant="RecipeRestControllerV2"><text fill="#C9D1D9" font-family="sans-serif" font-size="16.3333" lengthAdjust="spacing" textLength="175.2085" x="809.5146" y="898.5885">RecipeRestControllerV2</text><ellipse cx="900.6188" cy="921.3545" fill="#0D1117" rx="14" ry="14" style="stroke:#58A6FF;stroke-width:0.5833;"/><polygon fill="#58A6FF" points="895.9521,907.3545,902.9521,901.5212,900.6188,907.3545,902.9521,913.1878,895.9521,907.3545" style="stroke:#58A6FF;stroke-width:1.1667;"/></g><g class="participant participant-head" data-participant="RecipeServiceV2"><text fill="#C9D1D9" font-family="sans-serif" font-size="16.3333" lengthAdjust="spacing" textLength="125.2834" x="1017.2109" y="140.8499">RecipeServiceV2</text><ellipse cx="1083.3525" cy="104.5579" fill="#0D1117" rx="14" ry="14" style="stroke:#58A6FF;stroke-width:0.5833;"/><polygon fill="#58A6FF" points="1078.6859,90.5579,1085.6859,84.7246,1083.3525,90.5579,1085.6859,96.3913,1078.6859,90.5579" style="stroke:#58A6FF;stroke-width:1.1667;"/></g><g class="participant participant-tail" data-participant="RecipeServiceV2"><text fill="#C9D1D9" font-family="sans-serif" font-size="16.3333" lengthAdjust="spacing" textLength="125.2834" x="1017.2109" y="898.5885">RecipeServiceV2</text><ellipse cx="1083.3525" cy="921.3545" fill="#0D1117" rx="14" ry="14" style="stroke:#58A6FF;stroke-width:0.5833;"/><polygon fill="#58A6FF" points="1078.6859,907.3545,1085.6859,901.5212,1083.3525,907.3545,1085.6859,913.1878,1078.6859,907.3545" style="stroke:#58A6FF;stroke-width:1.1667;"/></g><g class="participant participant-head" data-participant="RecipesDatabase"><text fill="#C9D1D9" font-family="sans-serif" font-size="16.3333" lengthAdjust="spacing" textLength="128.9281" x="1304.3407" y="140.8499">RecipesDatabase</text><path d="M1351.3048,81.2246 C1351.3048,69.5579 1372.3048,69.5579 1372.3048,69.5579 C1372.3048,69.5579 1393.3048,69.5579 1393.3048,81.2246 L1393.3048,111.5579 C1393.3048,123.2246 1372.3048,123.2246 1372.3048,123.2246 C1372.3048,123.2246 1351.3048,123.2246 1351.3048,111.5579 L1351.3048,81.2246" fill="#0D1117" style="stroke:#58A6FF;stroke-width:0.5833;"/><path d="M1351.3048,81.2246 C1351.3048,92.8913 1372.3048,92.8913 1372.3048,92.8913 C1372.3048,92.8913 1393.3048,92.8913 1393.3048,81.2246" fill="none" style="stroke:#58A6FF;stroke-width:0.5833;"/></g><g class="participant participant-tail" data-participant="RecipesDatabase"><text fill="#C9D1D9" font-family="sans-serif" font-size="16.3333" lengthAdjust="spacing" textLength="128.9281" x="1304.3407" y="898.5885">RecipesDatabase</text><path d="M1351.3048,914.3545 C1351.3048,902.6878 1372.3048,902.6878 1372.3048,902.6878 C1372.3048,902.6878 1393.3048,902.6878 1393.3048,914.3545 L1393.3048,944.6878 C1393.3048,956.3545 1372.3048,956.3545 1372.3048,956.3545 C1372.3048,956.3545 1351.3048,956.3545 1351.3048,944.6878 L1351.3048,914.3545" fill="#0D1117" style="stroke:#58A6FF;stroke-width:0.5833;"/><path d="M1351.3048,914.3545 C1351.3048,926.0212 1372.3048,926.0212 1372.3048,926.0212 C1372.3048,926.0212 1393.3048,926.0212 1393.3048,914.3545" fill="none" style="stroke:#58A6FF;stroke-width:0.5833;"/></g><g class="participant participant-head" data-participant="RecipeRestControllerV2LoggingAspect"><text fill="#C9D1D9" font-family="sans-serif" font-size="16.3333" lengthAdjust="spacing" textLength="283.2733" x="1451.9355" y="140.8499">RecipeRestControllerV2LoggingAspect</text><ellipse cx="1597.0721" cy="104.5579" fill="#0D1117" rx="14" ry="14" style="stroke:#58A6FF;stroke-width:0.5833;"/><polygon fill="#58A6FF" points="1592.4054,90.5579,1599.4054,84.7246,1597.0721,90.5579,1599.4054,96.3913,1592.4054,90.5579" style="stroke:#58A6FF;stroke-width:1.1667;"/></g><g class="participant participant-tail" data-participant="RecipeRestControllerV2LoggingAspect"><text fill="#C9D1D9" font-family="sans-serif" font-size="16.3333" lengthAdjust="spacing" textLength="283.2733" x="1451.9355" y="898.5885">RecipeRestControllerV2LoggingAspect</text><ellipse cx="1597.0721" cy="921.3545" fill="#0D1117" rx="14" ry="14" style="stroke:#58A6FF;stroke-width:0.5833;"/><polygon fill="#58A6FF" points="1592.4054,907.3545,1599.4054,901.5212,1597.0721,907.3545,1599.4054,913.1878,1592.4054,907.3545" style="stroke:#58A6FF;stroke-width:1.1667;"/></g><g class="participant participant-head" data-participant="GlobalExceptionsHandler"><text fill="#C9D1D9" font-family="sans-serif" font-size="16.3333" lengthAdjust="spacing" textLength="184.3083" x="1753.8754" y="140.8499">GlobalExceptionsHandler</text><ellipse cx="1849.5295" cy="104.5579" fill="#0D1117" rx="14" ry="14" style="stroke:#58A6FF;stroke-width:0.5833;"/><polygon fill="#58A6FF" points="1844.8629,90.5579,1851.8629,84.7246,1849.5295,90.5579,1851.8629,96.3913,1844.8629,90.5579" style="stroke:#58A6FF;stroke-width:1.1667;"/></g><g class="participant participant-tail" data-participant="GlobalExceptionsHandler"><text fill="#C9D1D9" font-family="sans-serif" font-size="16.3333" lengthAdjust="spacing" textLength="184.3083" x="1753.8754" y="898.5885">GlobalExceptionsHandler</text><ellipse cx="1849.5295" cy="921.3545" fill="#0D1117" rx="14" ry="14" style="stroke:#58A6FF;stroke-width:0.5833;"/><polygon fill="#58A6FF" points="1844.8629,907.3545,1851.8629,901.5212,1849.5295,907.3545,1851.8629,913.1878,1844.8629,907.3545" style="stroke:#58A6FF;stroke-width:1.1667;"/></g><g class="message" data-participant-1="User" data-participant-2="Application"><polygon fill="#58A6FF" points="496.0692,179.1221,507.7358,183.7887,496.0692,188.4554,500.7358,183.7887" style="stroke:#58A6FF;stroke-width:1.1667;"/><line style="stroke:#58A6FF;stroke-width:1.1667;" x1="55.4167" x2="503.0692" y1="183.7887" y2="183.7887"/><text fill="#C9D1D9" font-family="sans-serif" font-size="15.1667" font-weight="bold" lengthAdjust="spacing" textLength="8.435" x="69.4167" y="177.6489">1</text><text fill="#C9D1D9" font-family="sans-serif" font-size="15.1667" lengthAdjust="spacing" textLength="413.5509" x="82.5183" y="177.6489">GET /api/v2/recipes?text=abc&amp;pageNumber=0&amp;pageSize=10</text></g><g class="message" data-participant-1="Application" data-participant-2="RecipeRestControllerV2"><polygon fill="#58A6FF" points="886.6188,215.6283,898.2855,220.2949,886.6188,224.9616,891.2855,220.2949" style="stroke:#58A6FF;stroke-width:1.1667;"/><line style="stroke:#58A6FF;stroke-width:1.1667;" x1="510.0692" x2="893.6188" y1="220.2949" y2="220.2949"/><text fill="#C9D1D9" font-family="sans-serif" font-size="15.1667" font-weight="bold" lengthAdjust="spacing" textLength="8.435" x="642.2959" y="214.1551">2</text><text fill="#C9D1D9" font-family="sans-serif" font-size="15.1667" lengthAdjust="spacing" textLength="112.9946" x="655.3975" y="214.1551">delegate request</text></g><path d="M905.3333,242.4616 L905.3333,259.9616 A7,7 0 0 0 912.3333,266.9616 L1204,266.9616 A7,7 0 0 0 1211,259.9616 L1211,247.1283 L1199.3333,235.4616 L912.3333,235.4616 A7,7 0 0 0 905.3333,242.4616" fill="#1C2330" style="stroke:#E7E7E7;stroke-width:0.5833;"/><path d="M1199.3333,235.4616 L1199.3333,243.6283 A3.5,3.5 0 0 0 1202.8333,247.1283 L1211,247.1283 L1199.3333,235.4616" fill="#1C2330" style="stroke:#E7E7E7;stroke-width:0.5833;"/><text fill="#C9D1D9" font-family="sans-serif" font-size="15.1667" lengthAdjust="spacing" textLength="281.6053" x="912.3333" y="257.6613">validates text, pageNumber and pageSize</text><path d="M18.6667,281.3011 L81.866,281.3011 L81.866,292.1406 L70.1994,303.8073 L11.6667,303.8073 L11.6667,288.3011 A7,7 0 0 1 18.6667,281.3011" fill="#161B22" style="stroke:#30363D;stroke-width:1.75;"/><rect fill="none" height="580.9954" rx="7" ry="7" style="stroke:#30363D;stroke-width:1.75;" width="1945.1837" x="11.6667" y="281.3011"/><text fill="#C9D1D9" font-family="sans-serif" font-size="15.1667" font-weight="bold" lengthAdjust="spacing" textLength="17.6994" x="29.1667" y="298.8341">alt</text><text fill="#C9D1D9" font-family="sans-serif" font-size="12.8333" font-weight="bold" lengthAdjust="spacing" textLength="249.5983" x="99.366" y="297.4829">[correct text, pageNumber and pageSize]</text><path d="M1601.8333,316.6406 L1601.8333,334.1406 A7,7 0 0 0 1608.8333,341.1406 L1676.5,341.1406 A7,7 0 0 0 1683.5,334.1406 L1683.5,321.3073 L1671.8333,309.6406 L1608.8333,309.6406 A7,7 0 0 0 1601.8333,316.6406" fill="#1C2330" style="stroke:#E7E7E7;stroke-width:0.5833;"/><path d="M1671.8333,309.6406 L1671.8333,317.8073 A3.5,3.5 0 0 0 1675.3333,321.3073 L1683.5,321.3073 L1671.8333,309.6406" fill="#1C2330" style="stroke:#E7E7E7;stroke-width:0.5833;"/><text fill="#C9D1D9" font-family="sans-serif" font-size="15.1667" lengthAdjust="spacing" textLength="58.171" x="1608.8333" y="331.8403">log entry</text><g class="message" data-participant-1="RecipeRestControllerV2" data-participant-2="RecipeServiceV2"><polygon fill="#58A6FF" points="1069.3525,369.8197,1081.0192,374.4863,1069.3525,379.153,1074.0192,374.4863" style="stroke:#58A6FF;stroke-width:1.1667;"/><line style="stroke:#58A6FF;stroke-width:1.1667;" x1="900.6188" x2="1076.3525" y1="374.4863" y2="374.4863"/><text fill="#C9D1D9" font-family="sans-serif" font-size="15.1667" font-weight="bold" lengthAdjust="spacing" textLength="8.435" x="928.9375" y="368.3465">3</text><text fill="#C9D1D9" font-family="sans-serif" font-size="15.1667" lengthAdjust="spacing" textLength="112.9946" x="942.0392" y="368.3465">delegate request</text></g><g class="message" data-participant-1="RecipeServiceV2" data-participant-2="RecipesDatabase"><polygon fill="#58A6FF" points="1358.3048,406.3258,1369.9714,410.9925,1358.3048,415.6592,1362.9714,410.9925" style="stroke:#58A6FF;stroke-width:1.1667;"/><line style="stroke:#58A6FF;stroke-width:1.1667;" x1="1083.3525" x2="1365.3048" y1="410.9925" y2="410.9925"/><text fill="#C9D1D9" font-family="sans-serif" font-size="15.1667" font-weight="bold" lengthAdjust="spacing" textLength="8.435" x="1097.3525" y="404.8527">4</text><text fill="#C9D1D9" font-family="sans-serif" font-size="15.1667" lengthAdjust="spacing" textLength="247.8506" x="1110.4542" y="404.8527">search(text, pageNumber, pageSize)</text></g><g class="message" data-participant-1="RecipesDatabase" data-participant-2="RecipeServiceV2"><polygon fill="#58A6FF" points="1096.1859,442.832,1084.5192,447.4987,1096.1859,452.1654,1091.5192,447.4987" style="stroke:#58A6FF;stroke-width:1.1667;"/><line style="stroke:#58A6FF;stroke-width:1.1667;" x1="1089.1859" x2="1371.1381" y1="447.4987" y2="447.4987"/><text fill="#C9D1D9" font-family="sans-serif" font-size="15.1667" font-weight="bold" lengthAdjust="spacing" textLength="8.435" x="1150.4618" y="441.3589">5</text><text fill="#C9D1D9" font-family="sans-serif" font-size="15.1667" lengthAdjust="spacing" textLength="141.6321" x="1163.5634" y="441.3589">List&lt;Recipe&gt; recipes</text></g><g class="message" data-participant-1="RecipeServiceV2" data-participant-2="RecipeRestControllerV2"><polygon fill="#58A6FF" points="913.4521,479.3382,901.7855,484.0049,913.4521,488.6715,908.7855,484.0049" style="stroke:#58A6FF;stroke-width:1.1667;"/><line style="stroke:#58A6FF;stroke-width:1.1667;" x1="906.4521" x2="1082.1859" y1="484.0049" y2="484.0049"/><text fill="#C9D1D9" font-family="sans-serif" font-size="15.1667" font-weight="bold" lengthAdjust="spacing" textLength="8.435" x="914.6188" y="477.8651">6</text><text fill="#C9D1D9" font-family="sans-serif" font-size="15.1667" lengthAdjust="spacing" textLength="141.6321" x="927.7205" y="477.8651">List&lt;Recipe&gt; recipes</text></g><g class="message" data-participant-1="RecipeRestControllerV2" data-participant-2="Application"><polygon fill="#58A6FF" points="522.9025,515.8444,511.2358,520.5111,522.9025,525.1777,518.2358,520.5111" style="stroke:#58A6FF;stroke-width:1.1667;"/><line style="stroke:#58A6FF;stroke-width:1.1667;" x1="515.9025" x2="899.4521" y1="520.5111" y2="520.5111"/><text fill="#C9D1D9" font-family="sans-serif" font-size="15.1667" font-weight="bold" lengthAdjust="spacing" textLength="8.435" x="524.0692" y="514.3713">7</text><text fill="#C9D1D9" font-family="sans-serif" font-size="15.1667" lengthAdjust="spacing" textLength="349.448" x="537.1708" y="514.3713">Http ok (200) + List&lt;RecipeResponseBody&gt; recipes</text></g><path d="M1601.8333,542.6777 L1601.8333,560.1777 A7,7 0 0 0 1608.8333,567.1777 L1705.6667,567.1777 A7,7 0 0 0 1712.6667,560.1777 L1712.6667,547.3444 L1701,535.6777 L1608.8333,535.6777 A7,7 0 0 0 1601.8333,542.6777" fill="#1C2330" style="stroke:#E7E7E7;stroke-width:0.5833;"/><path d="M1701,535.6777 L1701,543.8444 A3.5,3.5 0 0 0 1704.5,547.3444 L1712.6667,547.3444 L1701,535.6777" fill="#1C2330" style="stroke:#E7E7E7;stroke-width:0.5833;"/><text fill="#C9D1D9" font-family="sans-serif" font-size="15.1667" lengthAdjust="spacing" textLength="86.8455" x="1608.8333" y="557.8774">log response</text><g class="message" data-participant-1="Application" data-participant-2="User"><polygon fill="#58A6FF" points="68.25,595.8568,56.5833,600.5234,68.25,605.1901,63.5833,600.5234" style="stroke:#58A6FF;stroke-width:1.1667;"/><line style="stroke:#58A6FF;stroke-width:1.1667;" x1="61.25" x2="508.9025" y1="600.5234" y2="600.5234"/><text fill="#C9D1D9" font-family="sans-serif" font-size="15.1667" font-weight="bold" lengthAdjust="spacing" textLength="8.435" x="101.4681" y="594.3836">8</text><text fill="#C9D1D9" font-family="sans-serif" font-size="15.1667" lengthAdjust="spacing" textLength="349.448" x="114.5697" y="594.3836">Http ok (200) + List&lt;RecipeResponseBody&gt; recipes</text></g><line style="stroke:#30363D;stroke-width:1.1667;stroke-dasharray:2.3333,2.3333;" x1="11.6667" x2="1956.8503" y1="611.0234" y2="611.0234"/><text fill="#C9D1D9" font-family="sans-serif" font-size="12.8333" font-weight="bold" lengthAdjust="spacing" textLength="261.0029" x="17.5" y="624.8719">[incorrect text, pageNumber and pageSize]</text><g class="message" data-participant-1="RecipeRestControllerV2" data-participant-2="RecipeRestControllerV2LoggingAspect"><polygon fill="#58A6FF" points="1583.0721,651.7656,1594.7388,656.4323,1583.0721,661.099,1587.7388,656.4323" style="stroke:#58A6FF;stroke-width:1.1667;"/><line style="stroke:#58A6FF;stroke-width:1.1667;" x1="900.6188" x2="1590.0721" y1="656.4323" y2="656.4323"/><text fill="#C9D1D9" font-family="sans-serif" font-size="15.1667" font-weight="bold" lengthAdjust="spacing" textLength="8.435" x="1189.1817" y="650.2925">9</text><text fill="#C9D1D9" font-family="sans-serif" font-size="15.1667" lengthAdjust="spacing" textLength="106.2259" x="1202.2833" y="650.2925">throw exception</text></g><path d="M1601.8333,678.599 L1601.8333,696.099 A7,7 0 0 0 1608.8333,703.099 L1675.3333,703.099 A7,7 0 0 0 1682.3333,696.099 L1682.3333,683.2656 L1670.6667,671.599 L1608.8333,671.599 A7,7 0 0 0 1601.8333,678.599" fill="#1C2330" style="stroke:#E7E7E7;stroke-width:0.5833;"/><path d="M1670.6667,671.599 L1670.6667,679.7656 A3.5,3.5 0 0 0 1674.1667,683.2656 L1682.3333,683.2656 L1670.6667,671.599" fill="#1C2330" style="stroke:#E7E7E7;stroke-width:0.5833;"/><text fill="#C9D1D9" font-family="sans-serif" font-size="15.1667" lengthAdjust="spacing" textLength="56.4751" x="1608.8333" y="693.7987">log error</text><g class="message" data-participant-1="RecipeRestControllerV2LoggingAspect" data-participant-2="GlobalExceptionsHandler"><polygon fill="#58A6FF" points="1835.5295,731.778,1847.1962,736.4447,1835.5295,741.1113,1840.1962,736.4447" style="stroke:#58A6FF;stroke-width:1.1667;"/><line style="stroke:#58A6FF;stroke-width:1.1667;" x1="1597.0721" x2="1842.5295" y1="736.4447" y2="736.4447"/><text fill="#C9D1D9" font-family="sans-serif" font-size="15.1667" font-weight="bold" lengthAdjust="spacing" textLength="16.87" x="1650.1514" y="730.3049">10</text><text fill="#C9D1D9" font-family="sans-serif" font-size="15.1667" lengthAdjust="spacing" textLength="124.7621" x="1671.6881" y="730.3049">re-throw exception</text></g><path d="M1855,758.6113 L1855,776.1113 A7,7 0 0 0 1862,783.1113 L1928.5,783.1113 A7,7 0 0 0 1935.5,776.1113 L1935.5,763.278 L1923.8333,751.6113 L1862,751.6113 A7,7 0 0 0 1855,758.6113" fill="#1C2330" style="stroke:#E7E7E7;stroke-width:0.5833;"/><path d="M1923.8333,751.6113 L1923.8333,759.778 A3.5,3.5 0 0 0 1927.3333,763.278 L1935.5,763.278 L1923.8333,751.6113" fill="#1C2330" style="stroke:#E7E7E7;stroke-width:0.5833;"/><text fill="#C9D1D9" font-family="sans-serif" font-size="15.1667" lengthAdjust="spacing" textLength="56.4751" x="1862" y="773.811">log error</text><g class="message" data-participant-1="RecipeRestControllerV2" data-participant-2="Application"><polygon fill="#58A6FF" points="522.9025,811.7904,511.2358,816.457,522.9025,821.1237,518.2358,816.457" style="stroke:#58A6FF;stroke-width:1.1667;"/><line style="stroke:#58A6FF;stroke-width:1.1667;" x1="515.9025" x2="899.4521" y1="816.457" y2="816.457"/><text fill="#C9D1D9" font-family="sans-serif" font-size="15.1667" font-weight="bold" lengthAdjust="spacing" textLength="16.87" x="618.6979" y="810.3172">11</text><text fill="#C9D1D9" font-family="sans-serif" font-size="15.1667" lengthAdjust="spacing" textLength="151.7555" x="640.2345" y="810.3172">Http bad request (400)</text></g><g class="message" data-participant-1="Application" data-participant-2="User"><polygon fill="#58A6FF" points="68.25,848.2965,56.5833,852.9632,68.25,857.6299,63.5833,852.9632" style="stroke:#58A6FF;stroke-width:1.1667;"/><line style="stroke:#58A6FF;stroke-width:1.1667;" x1="61.25" x2="508.9025" y1="852.9632" y2="852.9632"/><text fill="#C9D1D9" font-family="sans-serif" font-size="15.1667" font-weight="bold" lengthAdjust="spacing" textLength="16.87" x="196.0968" y="846.8234">12</text><text fill="#C9D1D9" font-family="sans-serif" font-size="15.1667" lengthAdjust="spacing" textLength="151.7555" x="217.6335" y="846.8234">Http bad request (400)</text></g><!--SRC=[fLLTJzim57tFhxZIf0aq44awofW6Kp_XeKCJPNjtajlKmjYPxLAwQVzzDo5DtP8qY3LFzJtt-DnFMsu5mXIPZkUWCUOP6ZYcWryBb35w7bjO9HSF4MhFC_TSPaop1uXOV9zgjP39G0cbuPq_2eBWp46OEKlKaiiKPamOT2o5MwoqH0r1w1YIZ4FGzTrxJAa3_dW0tz0Obc9Fy5H2ZDAI9e2UrcfPgZZzrEkEntGuuJESS8bzfHFKfRNZTxgTeMlTZIBe1lqmp4bZg_IMSqNzR7eH_x287w2ldkelpGqDNd_TaE_oYeoLj2LcS3uCXkSEO5sRAsBAwkvgWZP4ku7VA5kJaq7OwVYxAFVQqLd-xI2S2CQd-UVOYnHExOewZotHg0UtFOOuOmjXNsR0mVHpVKolwYfKWsf8kmCTq6rQYVryQr0xtP1P5Z63-_agL3lXTwOjf-5aqkxdT85Dj2nFF_mmD3vHcIBePPdWCRDSIIz-ZXDkYtLmYyQMaGlKFyCTynJr8u-HpfCodD9Wrk6ry4rKcjAQw9aCOrjXhuIAc1WznPZbcimraud8Tr0k6uulNS7m6Qv6Tt32Cdxo69wKM-ohnITxmQBuVKPBuwPOOHT-yMVAV-D5u7ik1r7MwoFs10Mcp28jI9edOpsfyZyydLjGisQ_HoOuPOKsQgxb23P2WCA1jHIgYB106v6KsnOeqEyrjszbbQG8bG9jJBqg61eKLpceYbeN_8PW0wiygwgJfobUbOFTW8wgQ0uTherZhOe9D_RBy_7b-ftQhwIc7YqaTVdORhDhQpDGzt0G-luXV709oJcZFgMHJrRRv6yjbouP2vATLYscu0rwa9vYuFBrlTRMAMs1s3czpe3hEVw__gMNNkzHjUr34XkM2D5fF6vNrkp-6ZKDtHEnP3r9SF2HojPMtfSEA9D_]--></g></svg>