<svg xmlns="http://www.w3.org/2000/svg" contentStyleType="text/css" data-diagram-type="SEQUENCE" height="1046.5px"
     preserveAspectRatio="none" style="width:1480px;height:1046px;background:#0E1117;" version="1.1"
     viewBox="0 0 1480 1046" width="1480.5px" zoomAndPan="magnify"><title>Update recipe - Sequence</title><defs/><g><rect fill="#0E1117" height="1046.5" style="stroke:none;stroke-width:1.1667;" width="1480.5" x="0" y="0"/><text fill="#C9D1D9" font-family="sans-serif" font-size="16.3333" font-weight="bold" lengthAdjust="spacing" textLength="199.6925" x="641.8378" y="35.1253">Update recipe - Sequence</text><rect fill="none" height="682.7438" rx="7" ry="7" style="stroke:#30363D;stroke-width:1.75;" width="1461.2016" x="11.6667" y="244.7949"/><rect fill="none" height="507.9831" rx="7" ry="7" style="stroke:#30363D;stroke-width:1.75;" width="1437.8682" x="23.3333" y="355.4801"/><g><title>User</title><rect fill="#000000" fill-opacity="0.00000" height="802.4229" width="9.3333" x="62.4167" y="144.9492"/><line style="stroke:#30363D;stroke-width:0.5833;stroke-dasharray:5.8333,5.8333;" x1="66.5" x2="66.5" y1="144.9492" y2="947.3721"/></g><g><title>Application</title><rect fill="#000000" fill-opacity="0.00000" height="802.4229" width="9.3333" x="364.4472" y="144.9492"/><line style="stroke:#30363D;stroke-width:0.5833;stroke-dasharray:5.8333,5.8333;" x1="368.8285" x2="368.8285" y1="144.9492" y2="947.3721"/></g><g><title>RecipeRestControllerV2</title><rect fill="#000000" fill-opacity="0.00000" height="802.4229" width="9.3333" x="557.3044" y="144.9492"/><line style="stroke:#30363D;stroke-width:0.5833;stroke-dasharray:5.8333,5.8333;" x1="561.8668" x2="561.8668" y1="144.9492" y2="947.3721"/></g><g><title>RecipeServiceV2</title><rect fill="#000000" fill-opacity="0.00000" height="802.4229" width="9.3333" x="726.217" y="144.9492"/><line style="stroke:#30363D;stroke-width:0.5833;stroke-dasharray:5.8333,5.8333;" x1="730.0753" x2="730.0753" y1="144.9492" y2="947.3721"/></g><g><title>RecipesDatabase</title><rect fill="#000000" fill-opacity="0.00000" height="802.4229" width="9.3333" x="871.9893" y="144.9492"/><line style="stroke:#30363D;stroke-width:0.5833;stroke-dasharray:5.8333,5.8333;" x1="876.3586" x2="876.3586" y1="144.9492" y2="947.3721"/></g><g><title>RecipeRestControllerV2LoggingAspect</title><rect fill="#000000" fill-opacity="0.00000" height="802.4229" width="9.3333" x="1096.7567" y="144.9492"/><line style="stroke:#30363D;stroke-width:0.5833;stroke-dasharray:5.8333,5.8333;" x1="1100.9534" x2="1100.9534" y1="144.9492" y2="947.3721"/></g><g><title>GlobalExceptionsHandler</title><rect fill="#000000" fill-opacity="0.00000" height="802.4229" width="9.3333" x="1349.2141" y="144.9492"/><line style="stroke:#30363D;stroke-width:0.5833;stroke-dasharray:5.8333,5.8333;" x1="1352.7266" x2="1352.7266" y1="144.9492" y2="947.3721"/></g><g class="participant participant-head" data-participant="User"><text fill="#C9D1D9" font-family="sans-serif" font-size="16.3333" lengthAdjust="spacing" textLength="34.485" x="46.3408" y="140.8499">User</text><ellipse cx="67.0833" cy="71.3079" fill="#0D1117" rx="18.6667" ry="18.6667" style="stroke:#58A6FF;stroke-width:0.5833;"/><path d="M67.0833,94.6413 C71.75,94.6413 75.25,94.6413 79.9167,89.9746 C89.25,89.9746 98.5833,99.3079 98.5833,108.6413 L98.5833,113.3079 C98.5833,117.9746 93.9167,122.6413 89.25,122.6413 L44.9167,122.6413 C40.25,122.6413 35.5833,117.9746 35.5833,113.3079 L35.5833,108.6413 C35.5833,99.3079 44.9167,89.9746 54.25,89.9746 C58.9167,94.6413 62.4167,94.6413 67.0833,94.6413" fill="#0D1117" style="stroke:#58A6FF;stroke-width:0.5833;"/></g><g class="participant participant-tail" data-participant="User"><text fill="#C9D1D9" font-family="sans-serif" font-size="16.3333" lengthAdjust="spacing" textLength="34.485" x="46.3408" y="963.8307">User</text><ellipse cx="67.0833" cy="987.18" fill="#0D1117" rx="18.6667" ry="18.6667" style="stroke:#58A6FF;stroke-width:0.5833;"/><path d="M67.0833,1010.5133 C71.75,1010.5133 75.25,1010.5133 79.9167,1005.8467 C89.25,1005.8467 98.5833,1015.18 98.5833,1024.5133 L98.5833,1029.18 C98.5833,1033.8467 93.9167,1038.5133 89.25,1038.5133 L44.9167,1038.5133 C40.25,1038.5133 35.5833,1033.8467 35.5833,1029.18 L35.5833,1024.5133 C35.5833,1015.18 44.9167,1005.8467 54.25,1005.8467 C58.9167,1010.5133 62.4167,1010.5133 67.0833,1010.5133" fill="#0D1117" style="stroke:#58A6FF;stroke-width:0.5833;"/></g><g class="participant participant-head" data-participant="Application"><text fill="#C9D1D9" font-family="sans-serif" font-size="16.3333" lengthAdjust="spacing" textLength="79.9041" x="325.6618" y="140.8499">Application</text><path d="M345.1972,90.5579 L345.1972,118.5579 M345.1972,104.5579 L365.0305,104.5579" fill="none" style="stroke:#58A6FF;stroke-width:0.5833;"/><ellipse cx="379.0305" cy="104.5579" fill="#0D1117" rx="14" ry="14" style="stroke:#58A6FF;stroke-width:0.5833;"/></g><g class="participant participant-tail" data-participant="Application"><text fill="#C9D1D9" font-family="sans-serif" font-size="16.3333" lengthAdjust="spacing" textLength="79.9041" x="325.6618" y="963.8307">Application</text><path d="M345.1972,972.5967 L345.1972,1000.5967 M345.1972,986.5967 L365.0305,986.5967" fill="none" style="stroke:#58A6FF;stroke-width:0.5833;"/><ellipse cx="379.0305" cy="986.5967" fill="#0D1117" rx="14" ry="14" style="stroke:#58A6FF;stroke-width:0.5833;"/></g><g class="participant participant-head" data-participant="RecipeRestControllerV2"><text fill="#C9D1D9" font-family="sans-serif" font-size="16.3333" lengthAdjust="spacing" textLength="175.2085" x="470.8668" y="140.8499">RecipeRestControllerV2</text><ellipse cx="561.971" cy="104.5579" fill="#0D1117" rx="14" ry="14" style="stroke:#58A6FF;stroke-width:0.5833;"/><polygon fill="#58A6FF" points="557.3044,90.5579,564.3044,84.7246,561.971,90.5579,564.3044,96.3913,557.3044,90.5579" style="stroke:#58A6FF;stroke-width:1.1667;"/></g><g class="participant participant-tail" data-participant="RecipeRestControllerV2"><text fill="#C9D1D9" font-family="sans-serif" font-size="16.3333" lengthAdjust="spacing" textLength="175.2085" x="470.8668" y="963.8307">RecipeRestControllerV2</text><ellipse cx="561.971" cy="986.5967" fill="#0D1117" rx="14" ry="14" style="stroke:#58A6FF;stroke-width:0.5833;"/><polygon fill="#58A6FF" points="557.3044,972.5967,564.3044,966.7633,561.971,972.5967,564.3044,978.43,557.3044,972.5967" style="stroke:#58A6FF;stroke-width:1.1667;"/></g><g class="participant participant-head" data-participant="RecipeServiceV2"><text fill="#C9D1D9" font-family="sans-serif" font-size="16.3333" lengthAdjust="spacing" textLength="125.2834" x="664.7419" y="140.8499">RecipeServiceV2</text><ellipse cx="730.8836" cy="104.5579" fill="#0D1117" rx="14" ry="14" style="stroke:#58A6FF;stroke-width:0.5833;"/><polygon fill="#58A6FF" points="726.217,90.5579,733.217,84.7246,730.8836,90.5579,733.217,96.3913,726.217,90.5579" style="stroke:#58A6FF;stroke-width:1.1667;"/></g><g class="participant participant-tail" data-participant="RecipeServiceV2"><text fill="#C9D1D9" font-family="sans-serif" font-size="16.3333" lengthAdjust="spacing" textLength="125.2834" x="664.7419" y="963.8307">RecipeServiceV2</text><ellipse cx="730.8836" cy="986.5967" fill="#0D1117" rx="14" ry="14" style="stroke:#58A6FF;stroke-width:0.5833;"/><polygon fill="#58A6FF" points="726.217,972.5967,733.217,966.7633,730.8836,972.5967,733.217,978.43,726.217,972.5967" style="stroke:#58A6FF;stroke-width:1.1667;"/></g><g class="participant participant-head" data-participant="RecipesDatabase"><text fill="#C9D1D9" font-family="sans-serif" font-size="16.3333" lengthAdjust="spacing" textLength="128.9281" x="808.692" y="140.8499">RecipesDatabase</text><path d="M855.656,81.2246 C855.656,69.5579 876.656,69.5579 876.656,69.5579 C876.656,69.5579 897.656,69.5579 897.656,81.2246 L897.656,111.5579 C897.656,123.2246 876.656,123.2246 876.656,123.2246 C876.656,123.2246 855.656,123.2246 855.656,111.5579 L855.656,81.2246" fill="#0D1117" style="stroke:#58A6FF;stroke-width:0.5833;"/><path d="M855.656,81.2246 C855.656,92.8913 876.656,92.8913 876.656,92.8913 C876.656,92.8913 897.656,92.8913 897.656,81.2246" fill="none" style="stroke:#58A6FF;stroke-width:0.5833;"/></g><g class="participant participant-tail" data-participant="RecipesDatabase"><text fill="#C9D1D9" font-family="sans-serif" font-size="16.3333" lengthAdjust="spacing" textLength="128.9281" x="808.692" y="963.8307">RecipesDatabase</text><path d="M855.656,979.5967 C855.656,967.93 876.656,967.93 876.656,967.93 C876.656,967.93 897.656,967.93 897.656,979.5967 L897.656,1009.93 C897.656,1021.5967 876.656,1021.5967 876.656,1021.5967 C876.656,1021.5967 855.656,1021.5967 855.656,1009.93 L855.656,979.5967" fill="#0D1117" style="stroke:#58A6FF;stroke-width:0.5833;"/><path d="M855.656,979.5967 C855.656,991.2633 876.656,991.2633 876.656,991.2633 C876.656,991.2633 897.656,991.2633 897.656,979.5967" fill="none" style="stroke:#58A6FF;stroke-width:0.5833;"/></g><g class="participant participant-head" data-participant="RecipeRestControllerV2LoggingAspect"><text fill="#C9D1D9" font-family="sans-serif" font-size="16.3333" lengthAdjust="spacing" textLength="283.2733" x="956.2867" y="140.8499">RecipeRestControllerV2LoggingAspect</text><ellipse cx="1101.4233" cy="104.5579" fill="#0D1117" rx="14" ry="14" style="stroke:#58A6FF;stroke-width:0.5833;"/><polygon fill="#58A6FF" points="1096.7567,90.5579,1103.7567,84.7246,1101.4233,90.5579,1103.7567,96.3913,1096.7567,90.5579" style="stroke:#58A6FF;stroke-width:1.1667;"/></g><g class="participant participant-tail" data-participant="RecipeRestControllerV2LoggingAspect"><text fill="#C9D1D9" font-family="sans-serif" font-size="16.3333" lengthAdjust="spacing" textLength="283.2733" x="956.2867" y="963.8307">RecipeRestControllerV2LoggingAspect</text><ellipse cx="1101.4233" cy="986.5967" fill="#0D1117" rx="14" ry="14" style="stroke:#58A6FF;stroke-width:0.5833;"/><polygon fill="#58A6FF" points="1096.7567,972.5967,1103.7567,966.7633,1101.4233,972.5967,1103.7567,978.43,1096.7567,972.5967" style="stroke:#58A6FF;stroke-width:1.1667;"/></g><g class="participant participant-head" data-participant="GlobalExceptionsHandler"><text fill="#C9D1D9" font-family="sans-serif" font-size="16.3333" lengthAdjust="spacing" textLength="184.3083" x="1258.2266" y="140.8499">GlobalExceptionsHandler</text><ellipse cx="1353.8808" cy="104.5579" fill="#0D1117" rx="14" ry="14" style="stroke:#58A6FF;stroke-width:0.5833;"/><polygon fill="#58A6FF" points="1349.2141,90.5579,1356.2141,84.7246,1353.8808,90.5579,1356.2141,96.3913,1349.2141,90.5579" style="stroke:#58A6FF;stroke-width:1.1667;"/></g><g class="participant participant-tail" data-participant="GlobalExceptionsHandler"><text fill="#C9D1D9" font-family="sans-serif" font-size="16.3333" lengthAdjust="spacing" textLength="184.3083" x="1258.2266" y="963.8307">GlobalExceptionsHandler</text><ellipse cx="1353.8808" cy="986.5967" fill="#0D1117" rx="14" ry="14" style="stroke:#58A6FF;stroke-width:0.5833;"/><polygon fill="#58A6FF" points="1349.2141,972.5967,1356.2141,966.7633,1353.8808,972.5967,1356.2141,978.43,1349.2141,972.5967" style="stroke:#58A6FF;stroke-width:1.1667;"/></g><g class="message" data-participant-1="User" data-participant-2="Application"><polygon fill="#58A6FF" points="355.1139,179.1221,366.7805,183.7887,355.1139,188.4554,359.7805,183.7887" style="stroke:#58A6FF;stroke-width:1.1667;"/><line style="stroke:#58A6FF;stroke-width:1.1667;" x1="67.0833" x2="362.1139" y1="183.7887" y2="183.7887"/><text fill="#C9D1D9" font-family="sans-serif" font-size="15.1667" font-weight="bold" lengthAdjust="spacing" textLength="8.435" x="81.0833" y="177.6489">1</text><text fill="#C9D1D9" font-family="sans-serif" font-size="15.1667" lengthAdjust="spacing" textLength="260.9289" x="94.185" y="177.6489">PUT /api/v2/recipes/{id} + requestBody</text></g><path d="M374.5,205.9554 L374.5,223.4554 A7,7 0 0 0 381.5,230.4554 L515.6667,230.4554 A7,7 0 0 0 522.6667,223.4554 L522.6667,210.6221 L511,198.9554 L381.5,198.9554 A7,7 0 0 0 374.5,205.9554" fill="#1C2330" style="stroke:#E7E7E7;stroke-width:0.5833;"/><path d="M511,198.9554 L511,207.1221 A3.5,3.5 0 0 0 514.5,210.6221 L522.6667,210.6221 L511,198.9554" fill="#1C2330" style="stroke:#E7E7E7;stroke-width:0.5833;"/><text fill="#C9D1D9" font-family="sans-serif" font-size="15.1667" lengthAdjust="spacing" textLength="123.9401" x="381.5" y="221.1551">authenticates user</text><path d="M18.6667,244.7949 L81.866,244.7949 L81.866,255.6344 L70.1994,267.3011 L11.6667,267.3011 L11.6667,251.7949 A7,7 0 0 1 18.6667,244.7949" fill="#161B22" style="stroke:#30363D;stroke-width:1.75;"/><rect fill="none" height="682.7438" rx="7" ry="7" style="stroke:#30363D;stroke-width:1.75;" width="1461.2016" x="11.6667" y="244.7949"/><text fill="#C9D1D9" font-family="sans-serif" font-size="15.1667" font-weight="bold" lengthAdjust="spacing" textLength="17.6994" x="29.1667" y="262.328">alt</text><text fill="#C9D1D9" font-family="sans-serif" font-size="12.8333" font-weight="bold" lengthAdjust="spacing" textLength="124.0785" x="99.366" y="260.9767">[User authenticated]</text><g class="message" data-participant-1="Application" data-participant-2="RecipeRestControllerV2"><polygon fill="#58A6FF" points="547.971,289.8073,559.6377,294.474,547.971,299.1406,552.6377,294.474" style="stroke:#58A6FF;stroke-width:1.1667;"/><line style="stroke:#58A6FF;stroke-width:1.1667;" x1="369.1139" x2="554.971" y1="294.474" y2="294.474"/><text fill="#C9D1D9" font-family="sans-serif" font-size="15.1667" font-weight="bold" lengthAdjust="spacing" textLength="8.435" x="402.4943" y="288.3341">2</text><text fill="#C9D1D9" font-family="sans-serif" font-size="15.1667" lengthAdjust="spacing" textLength="112.9946" x="415.5959" y="288.3341">delegate request</text></g><path d="M567,316.6406 L567,334.1406 A7,7 0 0 0 574,341.1406 L735,341.1406 A7,7 0 0 0 742,334.1406 L742,321.3073 L730.3333,309.6406 L574,309.6406 A7,7 0 0 0 567,316.6406" fill="#1C2330" style="stroke:#E7E7E7;stroke-width:0.5833;"/><path d="M730.3333,309.6406 L730.3333,317.8073 A3.5,3.5 0 0 0 733.8333,321.3073 L742,321.3073 L730.3333,309.6406" fill="#1C2330" style="stroke:#E7E7E7;stroke-width:0.5833;"/><text fill="#C9D1D9" font-family="sans-serif" font-size="15.1667" lengthAdjust="spacing" textLength="150.9261" x="574" y="331.8403">Validates request data</text><path d="M30.3333,355.4801 L93.5327,355.4801 L93.5327,366.3197 L81.866,377.9863 L23.3333,377.9863 L23.3333,362.4801 A7,7 0 0 1 30.3333,355.4801" fill="#161B22" style="stroke:#30363D;stroke-width:1.75;"/><rect fill="none" height="507.9831" rx="7" ry="7" style="stroke:#30363D;stroke-width:1.75;" width="1437.8682" x="23.3333" y="355.4801"/><text fill="#C9D1D9" font-family="sans-serif" font-size="15.1667" font-weight="bold" lengthAdjust="spacing" textLength="17.6994" x="40.8333" y="373.0132">alt</text><text fill="#C9D1D9" font-family="sans-serif" font-size="12.8333" font-weight="bold" lengthAdjust="spacing" textLength="92.6845" x="111.0327" y="371.6619">[Validation OK]</text><path d="M1107.1667,390.8197 L1107.1667,408.3197 A7,7 0 0 0 1114.1667,415.3197 L1181.8333,415.3197 A7,7 0 0 0 1188.8333,408.3197 L1188.8333,395.4863 L1177.1667,383.8197 L1114.1667,383.8197 A7,7 0 0 0 1107.1667,390.8197" fill="#1C2330" style="stroke:#E7E7E7;stroke-width:0.5833;"/><path d="M1177.1667,383.8197 L1177.1667,391.9863 A3.5,3.5 0 0 0 1180.6667,395.4863 L1188.8333,395.4863 L1177.1667,383.8197" fill="#1C2330" style="stroke:#E7E7E7;stroke-width:0.5833;"/><text fill="#C9D1D9" font-family="sans-serif" font-size="15.1667" lengthAdjust="spacing" textLength="58.171" x="1114.1667" y="406.0194">log entry</text><g class="message" data-participant-1="RecipeRestControllerV2" data-participant-2="RecipeServiceV2"><polygon fill="#58A6FF" points="716.8836,443.9987,728.5503,448.6654,716.8836,453.332,721.5503,448.6654" style="stroke:#58A6FF;stroke-width:1.1667;"/><line style="stroke:#58A6FF;stroke-width:1.1667;" x1="561.971" x2="723.8836" y1="448.6654" y2="448.6654"/><text fill="#C9D1D9" font-family="sans-serif" font-size="15.1667" font-weight="bold" lengthAdjust="spacing" textLength="8.435" x="583.3792" y="442.5256">3</text><text fill="#C9D1D9" font-family="sans-serif" font-size="15.1667" lengthAdjust="spacing" textLength="112.9946" x="596.4808" y="442.5256">delegate request</text></g><g class="message" data-participant-1="RecipeServiceV2" data-participant-2="RecipesDatabase"><polygon fill="#58A6FF" points="862.656,480.5049,874.3227,485.1715,862.656,489.8382,867.3227,485.1715" style="stroke:#58A6FF;stroke-width:1.1667;"/><line style="stroke:#58A6FF;stroke-width:1.1667;" x1="730.8836" x2="869.656" y1="485.1715" y2="485.1715"/><text fill="#C9D1D9" font-family="sans-serif" font-size="15.1667" font-weight="bold" lengthAdjust="spacing" textLength="8.435" x="751.2635" y="479.0317">4</text><text fill="#C9D1D9" font-family="sans-serif" font-size="15.1667" lengthAdjust="spacing" textLength="91.9109" x="764.3652" y="479.0317">update recipe</text></g><g class="message" data-participant-1="RecipeRestControllerV2" data-participant-2="Application"><polygon fill="#58A6FF" points="381.9472,517.0111,370.2805,521.6777,381.9472,526.3444,377.2805,521.6777" style="stroke:#58A6FF;stroke-width:1.1667;"/><line style="stroke:#58A6FF;stroke-width:1.1667;" x1="374.9472" x2="560.8044" y1="521.6777" y2="521.6777"/><text fill="#C9D1D9" font-family="sans-serif" font-size="15.1667" font-weight="bold" lengthAdjust="spacing" textLength="8.435" x="415.1579" y="515.5379">5</text><text fill="#C9D1D9" font-family="sans-serif" font-size="15.1667" lengthAdjust="spacing" textLength="87.6675" x="428.2595" y="515.5379">Http ok (200)</text></g><path d="M1107.1667,543.8444 L1107.1667,561.3444 A7,7 0 0 0 1114.1667,568.3444 L1211,568.3444 A7,7 0 0 0 1218,561.3444 L1218,548.5111 L1206.3333,536.8444 L1114.1667,536.8444 A7,7 0 0 0 1107.1667,543.8444" fill="#1C2330" style="stroke:#E7E7E7;stroke-width:0.5833;"/><path d="M1206.3333,536.8444 L1206.3333,545.0111 A3.5,3.5 0 0 0 1209.8333,548.5111 L1218,548.5111 L1206.3333,536.8444" fill="#1C2330" style="stroke:#E7E7E7;stroke-width:0.5833;"/><text fill="#C9D1D9" font-family="sans-serif" font-size="15.1667" lengthAdjust="spacing" textLength="86.8455" x="1114.1667" y="559.0441">log response</text><g class="message" data-participant-1="Application" data-participant-2="User"><polygon fill="#58A6FF" points="79.9167,597.0234,68.25,601.6901,79.9167,606.3568,75.25,601.6901" style="stroke:#58A6FF;stroke-width:1.1667;"/><line style="stroke:#58A6FF;stroke-width:1.1667;" x1="72.9167" x2="367.9472" y1="601.6901" y2="601.6901"/><text fill="#C9D1D9" font-family="sans-serif" font-size="15.1667" font-weight="bold" lengthAdjust="spacing" textLength="8.435" x="167.714" y="595.5503">6</text><text fill="#C9D1D9" font-family="sans-serif" font-size="15.1667" lengthAdjust="spacing" textLength="87.6675" x="180.8157" y="595.5503">Http ok (200)</text></g><line style="stroke:#30363D;stroke-width:1.1667;stroke-dasharray:2.3333,2.3333;" x1="23.3333" x2="1461.2016" y1="612.1901" y2="612.1901"/><text fill="#C9D1D9" font-family="sans-serif" font-size="12.8333" font-weight="bold" lengthAdjust="spacing" textLength="106.9528" x="29.1667" y="626.0386">[Validation failed]</text><g class="message" data-participant-1="RecipeRestControllerV2" data-participant-2="RecipeRestControllerV2LoggingAspect"><polygon fill="#58A6FF" points="1087.4233,652.9323,1099.09,657.599,1087.4233,662.2656,1092.09,657.599" style="stroke:#58A6FF;stroke-width:1.1667;"/><line style="stroke:#58A6FF;stroke-width:1.1667;" x1="561.971" x2="1094.4233" y1="657.599" y2="657.599"/><text fill="#C9D1D9" font-family="sans-serif" font-size="15.1667" font-weight="bold" lengthAdjust="spacing" textLength="8.435" x="772.0334" y="651.4591">7</text><text fill="#C9D1D9" font-family="sans-serif" font-size="15.1667" lengthAdjust="spacing" textLength="106.2259" x="785.1351" y="651.4591">throw exception</text></g><path d="M1107.1667,679.7656 L1107.1667,697.2656 A7,7 0 0 0 1114.1667,704.2656 L1180.6667,704.2656 A7,7 0 0 0 1187.6667,697.2656 L1187.6667,684.4323 L1176,672.7656 L1114.1667,672.7656 A7,7 0 0 0 1107.1667,679.7656" fill="#1C2330" style="stroke:#E7E7E7;stroke-width:0.5833;"/><path d="M1176,672.7656 L1176,680.9323 A3.5,3.5 0 0 0 1179.5,684.4323 L1187.6667,684.4323 L1176,672.7656" fill="#1C2330" style="stroke:#E7E7E7;stroke-width:0.5833;"/><text fill="#C9D1D9" font-family="sans-serif" font-size="15.1667" lengthAdjust="spacing" textLength="56.4751" x="1114.1667" y="694.9653">log error</text><g class="message" data-participant-1="RecipeRestControllerV2LoggingAspect" data-participant-2="GlobalExceptionsHandler"><polygon fill="#58A6FF" points="1339.8808,732.9447,1351.5474,737.6113,1339.8808,742.278,1344.5474,737.6113" style="stroke:#58A6FF;stroke-width:1.1667;"/><line style="stroke:#58A6FF;stroke-width:1.1667;" x1="1101.4233" x2="1346.8808" y1="737.6113" y2="737.6113"/><text fill="#C9D1D9" font-family="sans-serif" font-size="15.1667" font-weight="bold" lengthAdjust="spacing" textLength="8.435" x="1158.7202" y="731.4715">8</text><text fill="#C9D1D9" font-family="sans-serif" font-size="15.1667" lengthAdjust="spacing" textLength="124.7621" x="1171.8218" y="731.4715">re-throw exception</text></g><path d="M1359.1667,759.778 L1359.1667,777.278 A7,7 0 0 0 1366.1667,784.278 L1432.6667,784.278 A7,7 0 0 0 1439.6667,777.278 L1439.6667,764.4447 L1428,752.778 L1366.1667,752.778 A7,7 0 0 0 1359.1667,759.778" fill="#1C2330" style="stroke:#E7E7E7;stroke-width:0.5833;"/><path d="M1428,752.778 L1428,760.9447 A3.5,3.5 0 0 0 1431.5,764.4447 L1439.6667,764.4447 L1428,752.778" fill="#1C2330" style="stroke:#E7E7E7;stroke-width:0.5833;"/><text fill="#C9D1D9" font-family="sans-serif" font-size="15.1667" lengthAdjust="spacing" textLength="56.4751" x="1366.1667" y="774.9777">log error</text><g class="message" data-participant-1="RecipeRestControllerV2" data-participant-2="Application"><polygon fill="#58A6FF" points="381.9472,812.957,370.2805,817.6237,381.9472,822.2904,377.2805,817.6237" style="stroke:#58A6FF;stroke-width:1.1667;"/><line style="stroke:#58A6FF;stroke-width:1.1667;" x1="374.9472" x2="560.8044" y1="817.6237" y2="817.6237"/><text fill="#C9D1D9" font-family="sans-serif" font-size="15.1667" font-weight="bold" lengthAdjust="spacing" textLength="8.435" x="383.1139" y="811.4839">9</text><text fill="#C9D1D9" font-family="sans-serif" font-size="15.1667" lengthAdjust="spacing" textLength="151.7555" x="396.2155" y="811.4839">Http bad request (400)</text></g><g class="message" data-participant-1="Application" data-participant-2="User"><polygon fill="#58A6FF" points="79.9167,849.4632,68.25,854.1299,79.9167,858.7965,75.25,854.1299" style="stroke:#58A6FF;stroke-width:1.1667;"/><line style="stroke:#58A6FF;stroke-width:1.1667;" x1="72.9167" x2="367.9472" y1="854.1299" y2="854.1299"/><text fill="#C9D1D9" font-family="sans-serif" font-size="15.1667" font-weight="bold" lengthAdjust="spacing" textLength="16.87" x="131.4525" y="847.9901">10</text><text fill="#C9D1D9" font-family="sans-serif" font-size="15.1667" lengthAdjust="spacing" textLength="151.7555" x="152.9891" y="847.9901">Http bad request (400)</text></g><line style="stroke:#30363D;stroke-width:1.1667;stroke-dasharray:2.3333,2.3333;" x1="11.6667" x2="1472.8682" y1="872.7965" y2="872.7965"/><text fill="#C9D1D9" font-family="sans-serif" font-size="12.8333" font-weight="bold" lengthAdjust="spacing" textLength="147.5959" x="17.5" y="886.645">[User not authenticated]</text><g class="message" data-participant-1="Application" data-participant-2="User"><polygon fill="#58A6FF" points="79.9167,913.5387,68.25,918.2054,79.9167,922.8721,75.25,918.2054" style="stroke:#58A6FF;stroke-width:1.1667;"/><line style="stroke:#58A6FF;stroke-width:1.1667;" x1="72.9167" x2="367.9472" y1="918.2054" y2="918.2054"/><text fill="#C9D1D9" font-family="sans-serif" font-size="15.1667" font-weight="bold" lengthAdjust="spacing" textLength="16.87" x="139.8838" y="912.0656">11</text><text fill="#C9D1D9" font-family="sans-serif" font-size="15.1667" lengthAdjust="spacing" textLength="134.893" x="161.4204" y="912.0656">Http forbidden (403)</text></g><!--SRC=[fLLDJnin4BtlhnYf5r25aarAA3rKoWS1gRH51BXxrvEDXR6tjWD4YF_UyMQpSS9k4hN9RUVDcpUVTi99XFkSCuTWC1KvmWbCyCySLOfHnEPEg_bJWYQAxADGEJFi2HAMFcP6pnKVQgaDV6fVn75y5Y3iZ77z8bG6KoOj1fR2BTL6eO6u4nXuBY3kjSCujjG1Rn70JxIMPTYN8bEGedAa2Q1lZ7ufLPn-xVV6O_fuBQPuBHGEjE5eIckttUrrHw5rEuku5myw7K-QEcqsd2lgfUb3_gCYVu21VgqFwWqDNkzXodU-8MEjN8aPde_YqNa0MFNcafZokbXDq8Pir_1VsjNKPDZfTjlRg33inPd_Ro623CQd_X_OYn9Et886ZxsWrK_XU8nmokRIVQn0W1buVSmiwZfKWseeUm0TKZIZvMw-5MW_tOWvbZ2Bk_agr7x26sQSeDraoktc385DjCoN7-ujhKzIbWZwUIv5ofpGAagNUS9jSGrkqReoSudceRDbdg1v5YdITrwcKnhiAhqzVDSwo-XCz6sEgQkmbr8dJ5wyffXxJVQAAIxz3VAouUHxA1Y-mStz7RHOBbhFdTRoYDdMc-3ly9bk6ks0fRBnHQIqFt8YcpdGqoqAEdGpkYd-0rgO- -emwOeoRTWuxJ9i-9AQ-jI8bQF4R7bQ2nc5ywQCHjy79WKlr9JEu4iS5HHUMcdt4dx_E9XuezuKHUeCA3UpA1Zyhq5GbMRLygRyrYHhQELTpGLvpyDdvu3ucnsxSYu7_GX7dNRxkFB-rneOj3aDsbh6LekBGQWBYlIyXRsOCY7BAJcaclkqkHczRu2hJVZlF97UIxD7tQOVIMrOHw8qU7AOmcQAGrKrJ432UBKWHr_2KTZHmNedL3mgsbb0IV_-pGz9fzeaWdDKdh9x717TNm00]--></g></svg>