<?plantuml 1.2026.2?>
<svg xmlns="http://www.w3.org/2000/svg" contentStyleType="text/css" data-diagram-type="SEQUENCE" height="1320px"
     preserveAspectRatio="none" style="width:1850px;height:1320px;background:#0E1117;" version="1.1"
     viewBox="0 0 1850 1320" width="1850.6667px" zoomAndPan="magnify"><title>Create customer - Sequence</title><defs/><g><rect fill="#0E1117" height="1320" style="stroke:none;stroke-width:1.3333;" width="1850.6667" x="0" y="0"/><text fill="#C9D1D9" font-family="sans-serif" font-size="18.6667" font-weight="bold" lengthAdjust="spacing" textLength="252.0911" x="800.984" y="38.7669">Create customer - Sequence</text><rect fill="none" height="873.9701" rx="8" ry="8" style="stroke:#30363D;stroke-width:2;" width="1828.7259" x="13.3333" y="312.1087"/><rect fill="none" height="467.5534" rx="8" ry="8" style="stroke:#30363D;stroke-width:2;" width="1802.0592" x="26.6667" y="433.1471"/><g class="participant-lifeline" data-entity-uid="part1" data-qualified-name="User" id="part1-lifeline"><g><title>User</title><rect fill="#000000" fill-opacity="0.00000" height="1047.0085" width="10.6667" x="71.3333" y="161.737"/><line style="stroke:#30363D;stroke-width:0.6667;stroke-dasharray:6.6667,6.6667;" x1="76" x2="76" y1="161.737" y2="1208.7454"/></g></g><g class="participant-lifeline" data-entity-uid="part2" data-qualified-name="Application" id="part2-lifeline"><g><title>Application</title><rect fill="#000000" fill-opacity="0.00000" height="1047.0085" width="10.6667" x="485.8359" y="161.737"/><line style="stroke:#30363D;stroke-width:0.6667;stroke-dasharray:6.6667,6.6667;" x1="490.8431" x2="490.8431" y1="161.737" y2="1208.7454"/></g></g><g class="participant-lifeline" data-entity-uid="part3" data-qualified-name="CustomerRestControllerV1" id="part3-lifeline"><g><title>CustomerRestControllerV1</title><rect fill="#000000" fill-opacity="0.00000" height="1047.0085" width="10.6667" x="715.8841" y="161.737"/><line style="stroke:#30363D;stroke-width:0.6667;stroke-dasharray:6.6667,6.6667;" x1="720.3626" x2="720.3626" y1="161.737" y2="1208.7454"/></g></g><g class="participant-lifeline" data-entity-uid="part4" data-qualified-name="CustomerServiceV1" id="part4-lifeline"><g><title>CustomerServiceV1</title><rect fill="#000000" fill-opacity="0.00000" height="1047.0085" width="10.6667" x="931.7318" y="161.737"/><line style="stroke:#30363D;stroke-width:0.6667;stroke-dasharray:6.6667,6.6667;" x1="936.7389" x2="936.7389" y1="161.737" y2="1208.7454"/></g></g><g class="participant-lifeline" data-entity-uid="part5" data-qualified-name="CustomersDatabase" id="part5-lifeline"><g><title>CustomersDatabase</title><rect fill="#000000" fill-opacity="0.00000" height="1047.0085" width="10.6667" x="1121.1335" y="161.737"/><line style="stroke:#30363D;stroke-width:0.6667;stroke-dasharray:6.6667,6.6667;" x1="1125.3913" x2="1125.3913" y1="161.737" y2="1208.7454"/></g></g><g class="participant-lifeline" data-entity-uid="part6" data-qualified-name="CustomerRestControllerV1LoggingAspect" id="part6-lifeline"><g><title>CustomerRestControllerV1LoggingAspect</title><rect fill="#000000" fill-opacity="0.00000" height="1047.0085" width="10.6667" x="1400.8151" y="161.737"/><line style="stroke:#30363D;stroke-width:0.6667;stroke-dasharray:6.6667,6.6667;" x1="1404.8757" x2="1404.8757" y1="161.737" y2="1208.7454"/></g></g><g class="participant-lifeline" data-entity-uid="part7" data-qualified-name="GlobalExceptionsHandler" id="part7-lifeline"><g><title>GlobalExceptionsHandler</title><rect fill="#000000" fill-opacity="0.00000" height="1047.0085" width="10.6667" x="1700.7402" y="161.737"/><line style="stroke:#30363D;stroke-width:0.6667;stroke-dasharray:6.6667,6.6667;" x1="1704.7546" x2="1704.7546" y1="161.737" y2="1208.7454"/></g></g><g class="participant participant-head" data-entity-uid="part1" data-qualified-name="User" id="part1-head"><text fill="#C9D1D9" font-family="sans-serif" font-size="18.6667" lengthAdjust="spacing" textLength="39.4115" x="52.9609" y="157.6354">User</text><ellipse cx="76.6667" cy="79.5352" fill="#0D1117" rx="21.3333" ry="21.3333" style="stroke:#58A6FF;stroke-width:0.6667;"/><path d="M76.6667,106.2018 C82,106.2018 86,106.2018 91.3333,100.8685 C102,100.8685 112.6667,111.5352 112.6667,122.2018 L112.6667,127.5352 C112.6667,132.8685 107.3333,138.2018 102,138.2018 L51.3333,138.2018 C46,138.2018 40.6667,132.8685 40.6667,127.5352 L40.6667,122.2018 C40.6667,111.5352 51.3333,100.8685 62,100.8685 C67.3333,106.2018 71.3333,106.2018 76.6667,106.2018" fill="#0D1117" style="stroke:#58A6FF;stroke-width:0.6667;"/></g><g class="participant participant-tail" data-entity-uid="part1" data-qualified-name="User" id="part1-tail"><text fill="#C9D1D9" font-family="sans-serif" font-size="18.6667" lengthAdjust="spacing" textLength="39.4115" x="52.9609" y="1226.179">User</text><ellipse cx="76.6667" cy="1252.2806" fill="#0D1117" rx="21.3333" ry="21.3333" style="stroke:#58A6FF;stroke-width:0.6667;"/><path d="M76.6667,1278.9473 C82,1278.9473 86,1278.9473 91.3333,1273.6139 C102,1273.6139 112.6667,1284.2806 112.6667,1294.9473 L112.6667,1300.2806 C112.6667,1305.6139 107.3333,1310.9473 102,1310.9473 L51.3333,1310.9473 C46,1310.9473 40.6667,1305.6139 40.6667,1300.2806 L40.6667,1294.9473 C40.6667,1284.2806 51.3333,1273.6139 62,1273.6139 C67.3333,1278.9473 71.3333,1278.9473 76.6667,1278.9473" fill="#0D1117" style="stroke:#58A6FF;stroke-width:0.6667;"/></g><g class="participant participant-head" data-entity-uid="part2" data-qualified-name="Application" id="part2-head"><text fill="#C9D1D9" font-family="sans-serif" font-size="18.6667" lengthAdjust="spacing" textLength="91.319" x="441.5098" y="157.6354">Application</text><path d="M463.8359,101.5352 L463.8359,133.5352 M463.8359,117.5352 L486.5026,117.5352" fill="none" style="stroke:#58A6FF;stroke-width:0.6667;"/><ellipse cx="502.5026" cy="117.5352" fill="#0D1117" rx="16" ry="16" style="stroke:#58A6FF;stroke-width:0.6667;"/></g><g class="participant participant-tail" data-entity-uid="part2" data-qualified-name="Application" id="part2-tail"><text fill="#C9D1D9" font-family="sans-serif" font-size="18.6667" lengthAdjust="spacing" textLength="91.319" x="441.5098" y="1226.179">Application</text><path d="M463.8359,1235.6139 L463.8359,1267.6139 M463.8359,1251.6139 L486.5026,1251.6139" fill="none" style="stroke:#58A6FF;stroke-width:0.6667;"/><ellipse cx="502.5026" cy="1251.6139" fill="#0D1117" rx="16" ry="16" style="stroke:#58A6FF;stroke-width:0.6667;"/></g><g class="participant participant-head" data-entity-uid="part3" data-qualified-name="CustomerRestControllerV1" id="part3-head"><text fill="#C9D1D9" font-family="sans-serif" font-size="18.6667" lengthAdjust="spacing" textLength="223.043" x="605.696" y="157.6354">CustomerRestControllerV1</text><ellipse cx="721.2174" cy="117.5352" fill="#0D1117" rx="16" ry="16" style="stroke:#58A6FF;stroke-width:0.6667;"/><polygon fill="#58A6FF" points="715.8841,101.5352,723.8841,94.8685,721.2174,101.5352,723.8841,108.2018,715.8841,101.5352" style="stroke:#58A6FF;stroke-width:1.3333;"/></g><g class="participant participant-tail" data-entity-uid="part3" data-qualified-name="CustomerRestControllerV1" id="part3-tail"><text fill="#C9D1D9" font-family="sans-serif" font-size="18.6667" lengthAdjust="spacing" textLength="223.043" x="605.696" y="1226.179">CustomerRestControllerV1</text><ellipse cx="721.2174" cy="1251.6139" fill="#0D1117" rx="16" ry="16" style="stroke:#58A6FF;stroke-width:0.6667;"/><polygon fill="#58A6FF" points="715.8841,1235.6139,723.8841,1228.9473,721.2174,1235.6139,723.8841,1242.2806,715.8841,1235.6139" style="stroke:#58A6FF;stroke-width:1.3333;"/></g><g class="participant participant-head" data-entity-uid="part4" data-qualified-name="CustomerServiceV1" id="part4-head"><text fill="#C9D1D9" font-family="sans-serif" font-size="18.6667" lengthAdjust="spacing" textLength="165.9857" x="850.0723" y="157.6354">CustomerServiceV1</text><ellipse cx="937.0651" cy="117.5352" fill="#0D1117" rx="16" ry="16" style="stroke:#58A6FF;stroke-width:0.6667;"/><polygon fill="#58A6FF" points="931.7318,101.5352,939.7318,94.8685,937.0651,101.5352,939.7318,108.2018,931.7318,101.5352" style="stroke:#58A6FF;stroke-width:1.3333;"/></g><g class="participant participant-tail" data-entity-uid="part4" data-qualified-name="CustomerServiceV1" id="part4-tail"><text fill="#C9D1D9" font-family="sans-serif" font-size="18.6667" lengthAdjust="spacing" textLength="165.9857" x="850.0723" y="1226.179">CustomerServiceV1</text><ellipse cx="937.0651" cy="1251.6139" fill="#0D1117" rx="16" ry="16" style="stroke:#58A6FF;stroke-width:0.6667;"/><polygon fill="#58A6FF" points="931.7318,1235.6139,939.7318,1228.9473,937.0651,1235.6139,939.7318,1242.2806,931.7318,1235.6139" style="stroke:#58A6FF;stroke-width:1.3333;"/></g><g class="participant participant-head" data-entity-uid="part5" data-qualified-name="CustomersDatabase" id="part5-head"><text fill="#C9D1D9" font-family="sans-serif" font-size="18.6667" lengthAdjust="spacing" textLength="170.151" x="1037.3913" y="157.6354">CustomersDatabase</text><path d="M1102.4668,90.8685 C1102.4668,77.5352 1126.4668,77.5352 1126.4668,77.5352 C1126.4668,77.5352 1150.4668,77.5352 1150.4668,90.8685 L1150.4668,125.5352 C1150.4668,138.8685 1126.4668,138.8685 1126.4668,138.8685 C1126.4668,138.8685 1102.4668,138.8685 1102.4668,125.5352 L1102.4668,90.8685" fill="#0D1117" style="stroke:#58A6FF;stroke-width:0.6667;"/><path d="M1102.4668,90.8685 C1102.4668,104.2018 1126.4668,104.2018 1126.4668,104.2018 C1126.4668,104.2018 1150.4668,104.2018 1150.4668,90.8685" fill="none" style="stroke:#58A6FF;stroke-width:0.6667;"/></g><g class="participant participant-tail" data-entity-uid="part5" data-qualified-name="CustomersDatabase" id="part5-tail"><text fill="#C9D1D9" font-family="sans-serif" font-size="18.6667" lengthAdjust="spacing" textLength="170.151" x="1037.3913" y="1226.179">CustomersDatabase</text><path d="M1102.4668,1243.6139 C1102.4668,1230.2806 1126.4668,1230.2806 1126.4668,1230.2806 C1126.4668,1230.2806 1150.4668,1230.2806 1150.4668,1243.6139 L1150.4668,1278.2806 C1150.4668,1291.6139 1126.4668,1291.6139 1126.4668,1291.6139 C1126.4668,1291.6139 1102.4668,1291.6139 1102.4668,1278.2806 L1102.4668,1243.6139" fill="#0D1117" style="stroke:#58A6FF;stroke-width:0.6667;"/><path d="M1102.4668,1243.6139 C1102.4668,1256.9473 1126.4668,1256.9473 1126.4668,1256.9473 C1126.4668,1256.9473 1150.4668,1256.9473 1150.4668,1243.6139" fill="none" style="stroke:#58A6FF;stroke-width:0.6667;"/></g><g class="participant participant-head" data-entity-uid="part6" data-qualified-name="CustomerRestControllerV1LoggingAspect" id="part6-head"><text fill="#C9D1D9" font-family="sans-serif" font-size="18.6667" lengthAdjust="spacing" textLength="346.5456" x="1228.8757" y="157.6354">CustomerRestControllerV1LoggingAspect</text><ellipse cx="1406.1484" cy="117.5352" fill="#0D1117" rx="16" ry="16" style="stroke:#58A6FF;stroke-width:0.6667;"/><polygon fill="#58A6FF" points="1400.8151,101.5352,1408.8151,94.8685,1406.1484,101.5352,1408.8151,108.2018,1400.8151,101.5352" style="stroke:#58A6FF;stroke-width:1.3333;"/></g><g class="participant participant-tail" data-entity-uid="part6" data-qualified-name="CustomerRestControllerV1LoggingAspect" id="part6-tail"><text fill="#C9D1D9" font-family="sans-serif" font-size="18.6667" lengthAdjust="spacing" textLength="346.5456" x="1228.8757" y="1226.179">CustomerRestControllerV1LoggingAspect</text><ellipse cx="1406.1484" cy="1251.6139" fill="#0D1117" rx="16" ry="16" style="stroke:#58A6FF;stroke-width:0.6667;"/><polygon fill="#58A6FF" points="1400.8151,1235.6139,1408.8151,1228.9473,1406.1484,1235.6139,1408.8151,1242.2806,1400.8151,1235.6139" style="stroke:#58A6FF;stroke-width:1.3333;"/></g><g class="participant participant-head" data-entity-uid="part7" data-qualified-name="GlobalExceptionsHandler" id="part7-head"><text fill="#C9D1D9" font-family="sans-serif" font-size="18.6667" lengthAdjust="spacing" textLength="210.638" x="1596.7546" y="157.6354">GlobalExceptionsHandler</text><ellipse cx="1706.0736" cy="117.5352" fill="#0D1117" rx="16" ry="16" style="stroke:#58A6FF;stroke-width:0.6667;"/><polygon fill="#58A6FF" points="1700.7402,101.5352,1708.7402,94.8685,1706.0736,101.5352,1708.7402,108.2018,1700.7402,101.5352" style="stroke:#58A6FF;stroke-width:1.3333;"/></g><g class="participant participant-tail" data-entity-uid="part7" data-qualified-name="GlobalExceptionsHandler" id="part7-tail"><text fill="#C9D1D9" font-family="sans-serif" font-size="18.6667" lengthAdjust="spacing" textLength="210.638" x="1596.7546" y="1226.179">GlobalExceptionsHandler</text><ellipse cx="1706.0736" cy="1251.6139" fill="#0D1117" rx="16" ry="16" style="stroke:#58A6FF;stroke-width:0.6667;"/><polygon fill="#58A6FF" points="1700.7402,1235.6139,1708.7402,1228.9473,1706.0736,1235.6139,1708.7402,1242.2806,1700.7402,1235.6139" style="stroke:#58A6FF;stroke-width:1.3333;"/></g><g class="message" data-entity-1="part1" data-entity-2="part2" id="msg1"><polygon fill="#58A6FF" points="475.1693,198.972,488.5026,204.3053,475.1693,209.6387,480.5026,204.3053" style="stroke:#58A6FF;stroke-width:1.3333;"/><line style="stroke:#58A6FF;stroke-width:1.3333;" x1="76.6667" x2="483.1693" y1="204.3053" y2="204.3053"/><text fill="#C9D1D9" font-family="sans-serif" font-size="17.3333" font-weight="bold" lengthAdjust="spacing" textLength="9.64" x="92.6667" y="197.8301">1</text><text fill="#C9D1D9" font-family="sans-serif" font-size="17.3333" lengthAdjust="spacing" textLength="367.5293" x="107.64" y="197.8301">POST /api/v1/customers/register + requestBody</text></g><g class="message" data-entity-1="part2" data-entity-2="part3" id="msg2"><polygon fill="#58A6FF" points="705.2174,238.8737,718.5508,244.207,705.2174,249.5404,710.5508,244.207" style="stroke:#58A6FF;stroke-width:1.3333;"/><line style="stroke:#58A6FF;stroke-width:1.3333;" x1="491.1693" x2="713.2174" y1="244.207" y2="244.207"/><text fill="#C9D1D9" font-family="sans-serif" font-size="17.3333" font-weight="bold" lengthAdjust="spacing" textLength="9.64" x="534.1383" y="237.7318">2</text><text fill="#C9D1D9" font-family="sans-serif" font-size="17.3333" lengthAdjust="spacing" textLength="129.1367" x="549.1117" y="237.7318">delegate request</text></g><path d="M726.6667,269.5404 L726.6667,286.8737 A8,8 0 0 0 734.6667,294.8737 L918.6667,294.8737 A8,8 0 0 0 926.6667,286.8737 L926.6667,274.8737 L913.3333,261.5404 L734.6667,261.5404 A8,8 0 0 0 726.6667,269.5404" fill="#1C2330" style="stroke:#E7E7E7;stroke-width:0.6667;"/><path d="M913.3333,261.5404 L913.3333,270.8737 A4,4 0 0 0 917.3333,274.8737 L926.6667,274.8737 L913.3333,261.5404" fill="#1C2330" style="stroke:#E7E7E7;stroke-width:0.6667;"/><text fill="#C9D1D9" font-family="sans-serif" font-size="17.3333" lengthAdjust="spacing" textLength="172.487" x="734.6667" y="285.6335">Validates request data</text><path d="M21.3333,312.1087 L93.5612,312.1087 L93.5612,322.6771 L80.2279,336.0104 L13.3333,336.0104 L13.3333,320.1087 A8,8 0 0 1 21.3333,312.1087" fill="#161B22" style="stroke:#30363D;stroke-width:2;"/><rect fill="none" height="873.9701" rx="8" ry="8" style="stroke:#30363D;stroke-width:2;" width="1828.7259" x="13.3333" y="312.1087"/><text fill="#C9D1D9" font-family="sans-serif" font-size="17.3333" font-weight="bold" lengthAdjust="spacing" textLength="20.2279" x="33.3333" y="330.8685">alt</text><text fill="#C9D1D9" font-family="sans-serif" font-size="14.6667" font-weight="bold" lengthAdjust="spacing" textLength="105.9251" x="113.5612" y="329.5208">[Validation OK]</text><path d="M1412,350.6771 L1412,368.0104 A8,8 0 0 0 1420,376.0104 L1497.3333,376.0104 A8,8 0 0 0 1505.3333,368.0104 L1505.3333,356.0104 L1492,342.6771 L1420,342.6771 A8,8 0 0 0 1412,350.6771" fill="#1C2330" style="stroke:#E7E7E7;stroke-width:0.6667;"/><path d="M1492,342.6771 L1492,352.0104 A4,4 0 0 0 1496,356.0104 L1505.3333,356.0104 L1492,342.6771" fill="#1C2330" style="stroke:#E7E7E7;stroke-width:0.6667;"/><text fill="#C9D1D9" font-family="sans-serif" font-size="17.3333" lengthAdjust="spacing" textLength="66.4811" x="1420" y="366.7702">log entry</text><g class="message" data-entity-1="part3" data-entity-2="part4" id="msg3"><polygon fill="#58A6FF" points="921.0651,407.8138,934.3984,413.1471,921.0651,418.4805,926.3984,413.1471" style="stroke:#58A6FF;stroke-width:1.3333;"/><line style="stroke:#58A6FF;stroke-width:1.3333;" x1="721.2174" x2="929.0651" y1="413.1471" y2="413.1471"/><text fill="#C9D1D9" font-family="sans-serif" font-size="17.3333" font-weight="bold" lengthAdjust="spacing" textLength="9.64" x="757.0863" y="406.6719">3</text><text fill="#C9D1D9" font-family="sans-serif" font-size="17.3333" lengthAdjust="spacing" textLength="129.1367" x="772.0596" y="406.6719">delegate request</text></g><path d="M34.6667,433.1471 L106.8945,433.1471 L106.8945,443.7155 L93.5612,457.0488 L26.6667,457.0488 L26.6667,441.1471 A8,8 0 0 1 34.6667,433.1471" fill="#161B22" style="stroke:#30363D;stroke-width:2;"/><rect fill="none" height="467.5534" rx="8" ry="8" style="stroke:#30363D;stroke-width:2;" width="1802.0592" x="26.6667" y="433.1471"/><text fill="#C9D1D9" font-family="sans-serif" font-size="17.3333" font-weight="bold" lengthAdjust="spacing" textLength="20.2279" x="46.6667" y="451.9069">alt</text><text fill="#C9D1D9" font-family="sans-serif" font-size="14.6667" font-weight="bold" lengthAdjust="spacing" textLength="127.1302" x="126.8945" y="450.5592">[Customer is new]</text><g class="message" data-entity-1="part4" data-entity-2="part5" id="msg4"><polygon fill="#58A6FF" points="1110.4668,480.9505,1123.8001,486.2839,1110.4668,491.6172,1115.8001,486.2839" style="stroke:#58A6FF;stroke-width:1.3333;"/><line style="stroke:#58A6FF;stroke-width:1.3333;" x1="937.0651" x2="1118.4668" y1="486.2839" y2="486.2839"/><text fill="#C9D1D9" font-family="sans-serif" font-size="17.3333" font-weight="bold" lengthAdjust="spacing" textLength="9.64" x="967.9248" y="479.8086">4</text><text fill="#C9D1D9" font-family="sans-serif" font-size="17.3333" lengthAdjust="spacing" textLength="112.709" x="982.8981" y="479.8086">save customer</text></g><path d="M1412,511.6172 L1412,528.9505 A8,8 0 0 0 1420,536.9505 L1530.6667,536.9505 A8,8 0 0 0 1538.6667,528.9505 L1538.6667,516.9505 L1525.3333,503.6172 L1420,503.6172 A8,8 0 0 0 1412,511.6172" fill="#1C2330" style="stroke:#E7E7E7;stroke-width:0.6667;"/><path d="M1525.3333,503.6172 L1525.3333,512.9505 A4,4 0 0 0 1529.3333,516.9505 L1538.6667,516.9505 L1525.3333,503.6172" fill="#1C2330" style="stroke:#E7E7E7;stroke-width:0.6667;"/><text fill="#C9D1D9" font-family="sans-serif" font-size="17.3333" lengthAdjust="spacing" textLength="99.252" x="1420" y="527.7103">log response</text><g class="message" data-entity-1="part3" data-entity-2="part2" id="msg5"><polygon fill="#58A6FF" points="505.8359,568.7539,492.5026,574.0872,505.8359,579.4206,500.5026,574.0872" style="stroke:#58A6FF;stroke-width:1.3333;"/><line style="stroke:#58A6FF;stroke-width:1.3333;" x1="497.8359" x2="719.8841" y1="574.0872" y2="574.0872"/><text fill="#C9D1D9" font-family="sans-serif" font-size="17.3333" font-weight="bold" lengthAdjust="spacing" textLength="9.64" x="528.8571" y="567.612">5</text><text fill="#C9D1D9" font-family="sans-serif" font-size="17.3333" lengthAdjust="spacing" textLength="139.6992" x="543.8304" y="567.612">Http created (201)</text></g><g class="message" data-entity-1="part2" data-entity-2="part1" id="msg6"><polygon fill="#58A6FF" points="91.3333,608.6556,78,613.9889,91.3333,619.3223,86,613.9889" style="stroke:#58A6FF;stroke-width:1.3333;"/><line style="stroke:#58A6FF;stroke-width:1.3333;" x1="83.3333" x2="489.8359" y1="613.9889" y2="613.9889"/><text fill="#C9D1D9" font-family="sans-serif" font-size="17.3333" font-weight="bold" lengthAdjust="spacing" textLength="9.64" x="206.5817" y="607.5137">6</text><text fill="#C9D1D9" font-family="sans-serif" font-size="17.3333" lengthAdjust="spacing" textLength="139.6992" x="221.555" y="607.5137">Http created (201)</text></g><line style="stroke:#30363D;stroke-width:1.3333;stroke-dasharray:2.6667,2.6667;" x1="26.6667" x2="1828.7259" y1="625.9889" y2="625.9889"/><text fill="#C9D1D9" font-family="sans-serif" font-size="14.6667" font-weight="bold" lengthAdjust="spacing" textLength="123.8861" x="33.3333" y="640.7344">[Customer exists]</text><g class="message" data-entity-1="part3" data-entity-2="part6" id="msg7"><polygon fill="#58A6FF" points="1390.1484,669.1921,1403.4818,674.5254,1390.1484,679.8587,1395.4818,674.5254" style="stroke:#58A6FF;stroke-width:1.3333;"/><line style="stroke:#58A6FF;stroke-width:1.3333;" x1="721.2174" x2="1398.1484" y1="674.5254" y2="674.5254"/><text fill="#C9D1D9" font-family="sans-serif" font-size="17.3333" font-weight="bold" lengthAdjust="spacing" textLength="9.64" x="995.4958" y="668.0501">7</text><text fill="#C9D1D9" font-family="sans-serif" font-size="17.3333" lengthAdjust="spacing" textLength="121.401" x="1010.4691" y="668.0501">throw exception</text></g><path d="M1412,699.8587 L1412,717.1921 A8,8 0 0 0 1420,725.1921 L1496,725.1921 A8,8 0 0 0 1504,717.1921 L1504,705.1921 L1490.6667,691.8587 L1420,691.8587 A8,8 0 0 0 1412,699.8587" fill="#1C2330" style="stroke:#E7E7E7;stroke-width:0.6667;"/><path d="M1490.6667,691.8587 L1490.6667,701.1921 A4,4 0 0 0 1494.6667,705.1921 L1504,705.1921 L1490.6667,691.8587" fill="#1C2330" style="stroke:#E7E7E7;stroke-width:0.6667;"/><text fill="#C9D1D9" font-family="sans-serif" font-size="17.3333" lengthAdjust="spacing" textLength="64.543" x="1420" y="715.9518">log error</text><g class="message" data-entity-1="part6" data-entity-2="part7" id="msg8"><polygon fill="#58A6FF" points="1690.0736,756.9954,1703.4069,762.3288,1690.0736,767.6621,1695.4069,762.3288" style="stroke:#58A6FF;stroke-width:1.3333;"/><line style="stroke:#58A6FF;stroke-width:1.3333;" x1="1406.1484" x2="1698.0736" y1="762.3288" y2="762.3288"/><text fill="#C9D1D9" font-family="sans-serif" font-size="17.3333" font-weight="bold" lengthAdjust="spacing" textLength="9.64" x="1477.3317" y="755.8535">8</text><text fill="#C9D1D9" font-family="sans-serif" font-size="17.3333" lengthAdjust="spacing" textLength="142.5853" x="1492.305" y="755.8535">re-throw exception</text></g><path d="M1712,787.6621 L1712,804.9954 A8,8 0 0 0 1720,812.9954 L1796,812.9954 A8,8 0 0 0 1804,804.9954 L1804,792.9954 L1790.6667,779.6621 L1720,779.6621 A8,8 0 0 0 1712,787.6621" fill="#1C2330" style="stroke:#E7E7E7;stroke-width:0.6667;"/><path d="M1790.6667,779.6621 L1790.6667,788.9954 A4,4 0 0 0 1794.6667,792.9954 L1804,792.9954 L1790.6667,779.6621" fill="#1C2330" style="stroke:#E7E7E7;stroke-width:0.6667;"/><text fill="#C9D1D9" font-family="sans-serif" font-size="17.3333" lengthAdjust="spacing" textLength="64.543" x="1720" y="803.7552">log error</text><g class="message" data-entity-1="part3" data-entity-2="part2" id="msg9"><polygon fill="#58A6FF" points="505.8359,844.7988,492.5026,850.1322,505.8359,855.4655,500.5026,850.1322" style="stroke:#58A6FF;stroke-width:1.3333;"/><line style="stroke:#58A6FF;stroke-width:1.3333;" x1="497.8359" x2="719.8841" y1="850.1322" y2="850.1322"/><text fill="#C9D1D9" font-family="sans-serif" font-size="17.3333" font-weight="bold" lengthAdjust="spacing" textLength="9.64" x="511.9893" y="843.6569">9</text><text fill="#C9D1D9" font-family="sans-serif" font-size="17.3333" lengthAdjust="spacing" textLength="173.4349" x="526.9626" y="843.6569">Http bad request (400)</text></g><g class="message" data-entity-1="part2" data-entity-2="part1" id="msg10"><polygon fill="#58A6FF" points="91.3333,884.7005,78,890.0339,91.3333,895.3672,86,890.0339" style="stroke:#58A6FF;stroke-width:1.3333;"/><line style="stroke:#58A6FF;stroke-width:1.3333;" x1="83.3333" x2="489.8359" y1="890.0339" y2="890.0339"/><text fill="#C9D1D9" font-family="sans-serif" font-size="17.3333" font-weight="bold" lengthAdjust="spacing" textLength="19.2799" x="184.8939" y="883.5586">10</text><text fill="#C9D1D9" font-family="sans-serif" font-size="17.3333" lengthAdjust="spacing" textLength="173.4349" x="209.5072" y="883.5586">Http bad request (400)</text></g><line style="stroke:#30363D;stroke-width:1.3333;stroke-dasharray:2.6667,2.6667;" x1="13.3333" x2="1842.0592" y1="911.3672" y2="911.3672"/><text fill="#C9D1D9" font-family="sans-serif" font-size="14.6667" font-weight="bold" lengthAdjust="spacing" textLength="122.2318" x="20" y="926.1126">[Validation failed]</text><g class="message" data-entity-1="part3" data-entity-2="part6" id="msg11"><polygon fill="#58A6FF" points="1390.1484,954.5703,1403.4818,959.9036,1390.1484,965.237,1395.4818,959.9036" style="stroke:#58A6FF;stroke-width:1.3333;"/><line style="stroke:#58A6FF;stroke-width:1.3333;" x1="721.2174" x2="1398.1484" y1="959.9036" y2="959.9036"/><text fill="#C9D1D9" font-family="sans-serif" font-size="17.3333" font-weight="bold" lengthAdjust="spacing" textLength="19.2799" x="990.6758" y="953.4284">11</text><text fill="#C9D1D9" font-family="sans-serif" font-size="17.3333" lengthAdjust="spacing" textLength="121.401" x="1015.2891" y="953.4284">throw exception</text></g><path d="M1412,985.237 L1412,1002.5703 A8,8 0 0 0 1420,1010.5703 L1496,1010.5703 A8,8 0 0 0 1504,1002.5703 L1504,990.5703 L1490.6667,977.237 L1420,977.237 A8,8 0 0 0 1412,985.237" fill="#1C2330" style="stroke:#E7E7E7;stroke-width:0.6667;"/><path d="M1490.6667,977.237 L1490.6667,986.5703 A4,4 0 0 0 1494.6667,990.5703 L1504,990.5703 L1490.6667,977.237" fill="#1C2330" style="stroke:#E7E7E7;stroke-width:0.6667;"/><text fill="#C9D1D9" font-family="sans-serif" font-size="17.3333" lengthAdjust="spacing" textLength="64.543" x="1420" y="1001.3301">log error</text><g class="message" data-entity-1="part6" data-entity-2="part7" id="msg12"><polygon fill="#58A6FF" points="1690.0736,1042.3737,1703.4069,1047.707,1690.0736,1053.0404,1695.4069,1047.707" style="stroke:#58A6FF;stroke-width:1.3333;"/><line style="stroke:#58A6FF;stroke-width:1.3333;" x1="1406.1484" x2="1698.0736" y1="1047.707" y2="1047.707"/><text fill="#C9D1D9" font-family="sans-serif" font-size="17.3333" font-weight="bold" lengthAdjust="spacing" textLength="19.2799" x="1472.5117" y="1041.2318">12</text><text fill="#C9D1D9" font-family="sans-serif" font-size="17.3333" lengthAdjust="spacing" textLength="142.5853" x="1497.125" y="1041.2318">re-throw exception</text></g><path d="M1712,1073.0404 L1712,1090.3737 A8,8 0 0 0 1720,1098.3737 L1796,1098.3737 A8,8 0 0 0 1804,1090.3737 L1804,1078.3737 L1790.6667,1065.0404 L1720,1065.0404 A8,8 0 0 0 1712,1073.0404" fill="#1C2330" style="stroke:#E7E7E7;stroke-width:0.6667;"/><path d="M1790.6667,1065.0404 L1790.6667,1074.3737 A4,4 0 0 0 1794.6667,1078.3737 L1804,1078.3737 L1790.6667,1065.0404" fill="#1C2330" style="stroke:#E7E7E7;stroke-width:0.6667;"/><text fill="#C9D1D9" font-family="sans-serif" font-size="17.3333" lengthAdjust="spacing" textLength="64.543" x="1720" y="1089.1335">log error</text><g class="message" data-entity-1="part3" data-entity-2="part2" id="msg13"><polygon fill="#58A6FF" points="505.8359,1130.1771,492.5026,1135.5104,505.8359,1140.8438,500.5026,1135.5104" style="stroke:#58A6FF;stroke-width:1.3333;"/><line style="stroke:#58A6FF;stroke-width:1.3333;" x1="497.8359" x2="719.8841" y1="1135.5104" y2="1135.5104"/><text fill="#C9D1D9" font-family="sans-serif" font-size="17.3333" font-weight="bold" lengthAdjust="spacing" textLength="19.2799" x="507.1693" y="1129.0352">13</text><text fill="#C9D1D9" font-family="sans-serif" font-size="17.3333" lengthAdjust="spacing" textLength="173.4349" x="531.7826" y="1129.0352">Http bad request (400)</text></g><g class="message" data-entity-1="part2" data-entity-2="part1" id="msg14"><polygon fill="#58A6FF" points="91.3333,1170.0788,78,1175.4121,91.3333,1180.7454,86,1175.4121" style="stroke:#58A6FF;stroke-width:1.3333;"/><line style="stroke:#58A6FF;stroke-width:1.3333;" x1="83.3333" x2="489.8359" y1="1175.4121" y2="1175.4121"/><text fill="#C9D1D9" font-family="sans-serif" font-size="17.3333" font-weight="bold" lengthAdjust="spacing" textLength="19.2799" x="184.8939" y="1168.9368">14</text><text fill="#C9D1D9" font-family="sans-serif" font-size="17.3333" lengthAdjust="spacing" textLength="173.4349" x="209.5072" y="1168.9368">Http bad request (400)</text></g><?plantuml-src jLNVJzim47xFNt7INfWcrAGTPUnXKdzGaCO6MXdlRd9DBLmxirrAXVQ_xnoIuBP9so5GdjhxxhllxZlRbbk1CD38B4AyC5RDKSCnZF7F0cMCGS0MLid5V88w2CmzbndJR0uJ5j-dMYraCb12QVWGdaTHTEeXp8mbQibb2bCc37gHF2rMMbAbgEq5aen3r0tzEgRG0Ky1m0yqXgNO4poL4AEqf0cWfxLQ5YfEllIwen7zUSMdUCKbzfLEK1VHJjZfTeP-TBEBg1lrssr76bkbrv8hwkVGLl_3l7-0ldgiB-e23Lb__PPldIKZ9Ms16PmDe-6P1oYzkI2chAvM4xIXsnVuJsLhPZ9eTphX9ielUtxglWs4ry7en7rUF1_XsAvezTWI3UsS5npYb2s4tPw0X-axVKolwXogGJMCtOCEg9fMOZTV2TfFDsIMJPZ1tNmLQZ_X3TEMnpnZqkxcz85DjCoD7tuREZwJOaJGopB1OsQvaa7yt2SCYllW5nfRz2vGtqLRW37g1nuZHPAYfIfaoYRtibwfDANhecSoZ6s5lX1gmiJvOuoPqsOkcKo4kukSV3Z-vWk7ht1pFRw55ijuwo5gbVUPQMbCkQ7h0Zw1TaV2q1IJLU3d4bMJCk9DK63gxiWYFP3A_U3fp8AQxigyOuBJLD2KgU1cH2O8MyPS-UllT4K074QxDYgg8LGAT1tgLSxHACPhiNAihhUSnUahqS0DI5pc__iLNbWywifneZRiuULPgT9VtwH6az4Iu9QIkbxND-FIsWpY_A5BuAWTHXyhaeqro3UhDY7FGE6jD-0ZBPOvIC-XZTePFMX4NApy6umDwOdKUpMkPvBWXhD7f1gF3rFPJ76uhWOl9oofZjJHvp0yoC_w99H94EI-UYToohZ097XFLz_2qVTpytLElecB_-KWkVSF?></g></svg>