<?plantuml 1.2026.2?>
<svg xmlns="http://www.w3.org/2000/svg" contentStyleType="text/css" data-diagram-type="SEQUENCE" height="966px"
     preserveAspectRatio="none" style="width:1461px;height:966px;background:#0E1117;" version="1.1"
     viewBox="0 0 1461 966" width="1461.8333px" zoomAndPan="magnify"><title>Delete customer - Sequence</title><defs/><g><rect fill="#0E1117" height="966" style="stroke:none;stroke-width:1.1667;" width="1461.8333" x="0" y="0"/><text fill="#C9D1D9" font-family="sans-serif" font-size="16.3333" font-weight="bold" lengthAdjust="spacing" textLength="218.7614" x="623.1561" y="33.9211">Delete customer - Sequence</text><rect fill="none" height="611.0679" rx="7" ry="7" style="stroke:#30363D;stroke-width:1.75;" width="1442.9069" x="11.6667" y="238.1812"/><rect fill="none" height="409.1092" rx="7" ry="7" style="stroke:#30363D;stroke-width:1.75;" width="1419.5736" x="23.3333" y="379.0037"/><g class="participant-lifeline" data-entity-uid="part1" data-qualified-name="User" id="part1-lifeline"><g><title>User</title><rect fill="#000000" fill-opacity="0.00000" height="727.5625" width="9.3333" x="62.4167" y="141.5199"/><line style="stroke:#30363D;stroke-width:0.5833;stroke-dasharray:5.8333,5.8333;" x1="66.5" x2="66.5" y1="141.5199" y2="869.0824"/></g></g><g class="participant-lifeline" data-entity-uid="part2" data-qualified-name="Application" id="part2-lifeline"><g><title>Application</title><rect fill="#000000" fill-opacity="0.00000" height="727.5625" width="9.3333" x="285.585" y="141.5199"/><line style="stroke:#30363D;stroke-width:0.5833;stroke-dasharray:5.8333,5.8333;" x1="289.9662" x2="289.9662" y1="141.5199" y2="869.0824"/></g></g><g class="participant-lifeline" data-entity-uid="part3" data-qualified-name="CustomerRestControllerV1" id="part3-lifeline"><g><title>CustomerRestControllerV1</title><rect fill="#000000" fill-opacity="0.00000" height="727.5625" width="9.3333" x="469.1703" y="141.5199"/><line style="stroke:#30363D;stroke-width:0.5833;stroke-dasharray:5.8333,5.8333;" x1="473.089" x2="473.089" y1="141.5199" y2="869.0824"/></g></g><g class="participant-lifeline" data-entity-uid="part4" data-qualified-name="CustomerServiceV1" id="part4-lifeline"><g><title>CustomerServiceV1</title><rect fill="#000000" fill-opacity="0.00000" height="727.5625" width="9.3333" x="658.037" y="141.5199"/><line style="stroke:#30363D;stroke-width:0.5833;stroke-dasharray:5.8333,5.8333;" x1="662.4183" x2="662.4183" y1="141.5199" y2="869.0824"/></g></g><g class="participant-lifeline" data-entity-uid="part5" data-qualified-name="CustomersDatabase" id="part5-lifeline"><g><title>CustomersDatabase</title><rect fill="#000000" fill-opacity="0.00000" height="727.5625" width="9.3333" x="823.7635" y="141.5199"/><line style="stroke:#30363D;stroke-width:0.5833;stroke-dasharray:5.8333,5.8333;" x1="827.4891" x2="827.4891" y1="141.5199" y2="869.0824"/></g></g><g class="participant-lifeline" data-entity-uid="part6" data-qualified-name="CustomerRestControllerV1LoggingAspect" id="part6-lifeline"><g><title>CustomerRestControllerV1LoggingAspect</title><rect fill="#000000" fill-opacity="0.00000" height="727.5625" width="9.3333" x="1068.4849" y="141.5199"/><line style="stroke:#30363D;stroke-width:0.5833;stroke-dasharray:5.8333,5.8333;" x1="1072.0379" x2="1072.0379" y1="141.5199" y2="869.0824"/></g></g><g class="participant-lifeline" data-entity-uid="part7" data-qualified-name="GlobalExceptionsHandler" id="part7-lifeline"><g><title>GlobalExceptionsHandler</title><rect fill="#000000" fill-opacity="0.00000" height="727.5625" width="9.3333" x="1330.9194" y="141.5199"/><line style="stroke:#30363D;stroke-width:0.5833;stroke-dasharray:5.8333,5.8333;" x1="1334.432" x2="1334.432" y1="141.5199" y2="869.0824"/></g></g><g class="participant participant-head" data-entity-uid="part1" data-qualified-name="User" id="part1-head"><text fill="#C9D1D9" font-family="sans-serif" font-size="16.3333" lengthAdjust="spacing" textLength="34.485" x="46.3408" y="137.931">User</text><ellipse cx="67.0833" cy="69.5933" fill="#0D1117" rx="18.6667" ry="18.6667" style="stroke:#58A6FF;stroke-width:0.5833;"/><path d="M67.0833,92.9266 C71.75,92.9266 75.25,92.9266 79.9167,88.2599 C89.25,88.2599 98.5833,97.5933 98.5833,106.9266 L98.5833,111.5933 C98.5833,116.2599 93.9167,120.9266 89.25,120.9266 L44.9167,120.9266 C40.25,120.9266 35.5833,116.2599 35.5833,111.5933 L35.5833,106.9266 C35.5833,97.5933 44.9167,88.2599 54.25,88.2599 C58.9167,92.9266 62.4167,92.9266 67.0833,92.9266" fill="#0D1117" style="stroke:#58A6FF;stroke-width:0.5833;"/></g><g class="participant participant-tail" data-entity-uid="part1" data-qualified-name="User" id="part1-tail"><text fill="#C9D1D9" font-family="sans-serif" font-size="16.3333" lengthAdjust="spacing" textLength="34.485" x="46.3408" y="884.3368">User</text><ellipse cx="67.0833" cy="907.1756" fill="#0D1117" rx="18.6667" ry="18.6667" style="stroke:#58A6FF;stroke-width:0.5833;"/><path d="M67.0833,930.509 C71.75,930.509 75.25,930.509 79.9167,925.8423 C89.25,925.8423 98.5833,935.1756 98.5833,944.509 L98.5833,949.1756 C98.5833,953.8423 93.9167,958.509 89.25,958.509 L44.9167,958.509 C40.25,958.509 35.5833,953.8423 35.5833,949.1756 L35.5833,944.509 C35.5833,935.1756 44.9167,925.8423 54.25,925.8423 C58.9167,930.509 62.4167,930.509 67.0833,930.509" fill="#0D1117" style="stroke:#58A6FF;stroke-width:0.5833;"/></g><g class="participant participant-head" data-entity-uid="part2" data-qualified-name="Application" id="part2-head"><text fill="#C9D1D9" font-family="sans-serif" font-size="16.3333" lengthAdjust="spacing" textLength="79.9041" x="246.7996" y="137.931">Application</text><path d="M266.335,88.8433 L266.335,116.8433 M266.335,102.8433 L286.1683,102.8433" fill="none" style="stroke:#58A6FF;stroke-width:0.5833;"/><ellipse cx="300.1683" cy="102.8433" fill="#0D1117" rx="14" ry="14" style="stroke:#58A6FF;stroke-width:0.5833;"/></g><g class="participant participant-tail" data-entity-uid="part2" data-qualified-name="Application" id="part2-tail"><text fill="#C9D1D9" font-family="sans-serif" font-size="16.3333" lengthAdjust="spacing" textLength="79.9041" x="246.7996" y="884.3368">Application</text><path d="M266.335,892.5923 L266.335,920.5923 M266.335,906.5923 L286.1683,906.5923" fill="none" style="stroke:#58A6FF;stroke-width:0.5833;"/><ellipse cx="300.1683" cy="906.5923" fill="#0D1117" rx="14" ry="14" style="stroke:#58A6FF;stroke-width:0.5833;"/></g><g class="participant participant-head" data-entity-uid="part3" data-qualified-name="CustomerRestControllerV1" id="part3-head"><text fill="#C9D1D9" font-family="sans-serif" font-size="16.3333" lengthAdjust="spacing" textLength="195.1626" x="372.7557" y="137.931">CustomerRestControllerV1</text><ellipse cx="473.837" cy="102.8433" fill="#0D1117" rx="14" ry="14" style="stroke:#58A6FF;stroke-width:0.5833;"/><polygon fill="#58A6FF" points="469.1703,88.8433,476.1703,83.0099,473.837,88.8433,476.1703,94.6766,469.1703,88.8433" style="stroke:#58A6FF;stroke-width:1.1667;"/></g><g class="participant participant-tail" data-entity-uid="part3" data-qualified-name="CustomerRestControllerV1" id="part3-tail"><text fill="#C9D1D9" font-family="sans-serif" font-size="16.3333" lengthAdjust="spacing" textLength="195.1626" x="372.7557" y="884.3368">CustomerRestControllerV1</text><ellipse cx="473.837" cy="906.5923" fill="#0D1117" rx="14" ry="14" style="stroke:#58A6FF;stroke-width:0.5833;"/><polygon fill="#58A6FF" points="469.1703,892.5923,476.1703,886.759,473.837,892.5923,476.1703,898.4256,469.1703,892.5923" style="stroke:#58A6FF;stroke-width:1.1667;"/></g><g class="participant participant-head" data-entity-uid="part4" data-qualified-name="CustomerServiceV1" id="part4-head"><text fill="#C9D1D9" font-family="sans-serif" font-size="16.3333" lengthAdjust="spacing" textLength="145.2375" x="586.585" y="137.931">CustomerServiceV1</text><ellipse cx="662.7037" cy="102.8433" fill="#0D1117" rx="14" ry="14" style="stroke:#58A6FF;stroke-width:0.5833;"/><polygon fill="#58A6FF" points="658.037,88.8433,665.037,83.0099,662.7037,88.8433,665.037,94.6766,658.037,88.8433" style="stroke:#58A6FF;stroke-width:1.1667;"/></g><g class="participant participant-tail" data-entity-uid="part4" data-qualified-name="CustomerServiceV1" id="part4-tail"><text fill="#C9D1D9" font-family="sans-serif" font-size="16.3333" lengthAdjust="spacing" textLength="145.2375" x="586.585" y="884.3368">CustomerServiceV1</text><ellipse cx="662.7037" cy="906.5923" fill="#0D1117" rx="14" ry="14" style="stroke:#58A6FF;stroke-width:0.5833;"/><polygon fill="#58A6FF" points="658.037,892.5923,665.037,886.759,662.7037,892.5923,665.037,898.4256,658.037,892.5923" style="stroke:#58A6FF;stroke-width:1.1667;"/></g><g class="participant participant-head" data-entity-uid="part5" data-qualified-name="CustomersDatabase" id="part5-head"><text fill="#C9D1D9" font-family="sans-serif" font-size="16.3333" lengthAdjust="spacing" textLength="148.8822" x="750.4891" y="137.931">CustomersDatabase</text><path d="M807.4302,79.5099 C807.4302,67.8433 828.4302,67.8433 828.4302,67.8433 C828.4302,67.8433 849.4302,67.8433 849.4302,79.5099 L849.4302,109.8433 C849.4302,121.5099 828.4302,121.5099 828.4302,121.5099 C828.4302,121.5099 807.4302,121.5099 807.4302,109.8433 L807.4302,79.5099" fill="#0D1117" style="stroke:#58A6FF;stroke-width:0.5833;"/><path d="M807.4302,79.5099 C807.4302,91.1766 828.4302,91.1766 828.4302,91.1766 C828.4302,91.1766 849.4302,91.1766 849.4302,79.5099" fill="none" style="stroke:#58A6FF;stroke-width:0.5833;"/></g><g class="participant participant-tail" data-entity-uid="part5" data-qualified-name="CustomersDatabase" id="part5-tail"><text fill="#C9D1D9" font-family="sans-serif" font-size="16.3333" lengthAdjust="spacing" textLength="148.8822" x="750.4891" y="884.3368">CustomersDatabase</text><path d="M807.4302,899.5923 C807.4302,887.9256 828.4302,887.9256 828.4302,887.9256 C828.4302,887.9256 849.4302,887.9256 849.4302,899.5923 L849.4302,929.9256 C849.4302,941.5923 828.4302,941.5923 828.4302,941.5923 C828.4302,941.5923 807.4302,941.5923 807.4302,929.9256 L807.4302,899.5923" fill="#0D1117" style="stroke:#58A6FF;stroke-width:0.5833;"/><path d="M807.4302,899.5923 C807.4302,911.259 828.4302,911.259 828.4302,911.259 C828.4302,911.259 849.4302,911.259 849.4302,899.5923" fill="none" style="stroke:#58A6FF;stroke-width:0.5833;"/></g><g class="participant participant-head" data-entity-uid="part6" data-qualified-name="CustomerRestControllerV1LoggingAspect" id="part6-head"><text fill="#C9D1D9" font-family="sans-serif" font-size="16.3333" lengthAdjust="spacing" textLength="303.2274" x="918.0379" y="137.931">CustomerRestControllerV1LoggingAspect</text><ellipse cx="1073.1516" cy="102.8433" fill="#0D1117" rx="14" ry="14" style="stroke:#58A6FF;stroke-width:0.5833;"/><polygon fill="#58A6FF" points="1068.4849,88.8433,1075.4849,83.0099,1073.1516,88.8433,1075.4849,94.6766,1068.4849,88.8433" style="stroke:#58A6FF;stroke-width:1.1667;"/></g><g class="participant participant-tail" data-entity-uid="part6" data-qualified-name="CustomerRestControllerV1LoggingAspect" id="part6-tail"><text fill="#C9D1D9" font-family="sans-serif" font-size="16.3333" lengthAdjust="spacing" textLength="303.2274" x="918.0379" y="884.3368">CustomerRestControllerV1LoggingAspect</text><ellipse cx="1073.1516" cy="906.5923" fill="#0D1117" rx="14" ry="14" style="stroke:#58A6FF;stroke-width:0.5833;"/><polygon fill="#58A6FF" points="1068.4849,892.5923,1075.4849,886.759,1073.1516,892.5923,1075.4849,898.4256,1068.4849,892.5923" style="stroke:#58A6FF;stroke-width:1.1667;"/></g><g class="participant participant-head" data-entity-uid="part7" data-qualified-name="GlobalExceptionsHandler" id="part7-head"><text fill="#C9D1D9" font-family="sans-serif" font-size="16.3333" lengthAdjust="spacing" textLength="184.3083" x="1239.932" y="137.931">GlobalExceptionsHandler</text><ellipse cx="1335.5861" cy="102.8433" fill="#0D1117" rx="14" ry="14" style="stroke:#58A6FF;stroke-width:0.5833;"/><polygon fill="#58A6FF" points="1330.9194,88.8433,1337.9194,83.0099,1335.5861,88.8433,1337.9194,94.6766,1330.9194,88.8433" style="stroke:#58A6FF;stroke-width:1.1667;"/></g><g class="participant participant-tail" data-entity-uid="part7" data-qualified-name="GlobalExceptionsHandler" id="part7-tail"><text fill="#C9D1D9" font-family="sans-serif" font-size="16.3333" lengthAdjust="spacing" textLength="184.3083" x="1239.932" y="884.3368">GlobalExceptionsHandler</text><ellipse cx="1335.5861" cy="906.5923" fill="#0D1117" rx="14" ry="14" style="stroke:#58A6FF;stroke-width:0.5833;"/><polygon fill="#58A6FF" points="1330.9194,892.5923,1337.9194,886.759,1335.5861,892.5923,1337.9194,898.4256,1330.9194,892.5923" style="stroke:#58A6FF;stroke-width:1.1667;"/></g><g class="message" data-entity-1="part1" data-entity-2="part2" id="msg1"><polygon fill="#58A6FF" points="276.2516,174.1005,287.9183,178.7672,276.2516,183.4338,280.9183,178.7672" style="stroke:#58A6FF;stroke-width:1.1667;"/><line style="stroke:#58A6FF;stroke-width:1.1667;" x1="67.0833" x2="283.2516" y1="178.7672" y2="178.7672"/><text fill="#C9D1D9" font-family="sans-serif" font-size="15.1667" font-weight="bold" lengthAdjust="spacing" textLength="8.435" x="81.0833" y="173.1013">1</text><text fill="#C9D1D9" font-family="sans-serif" font-size="15.1667" lengthAdjust="spacing" textLength="182.0667" x="94.185" y="173.1013">DELETE /api/v1/customers</text></g><path d="M295.1667,200.9338 L295.1667,216.1005 A7,7 0 0 0 302.1667,223.1005 L436.3333,223.1005 A7,7 0 0 0 443.3333,216.1005 L443.3333,205.6005 L431.6667,193.9338 L302.1667,193.9338 A7,7 0 0 0 295.1667,200.9338" fill="#1C2330" style="stroke:#E7E7E7;stroke-width:0.5833;"/><path d="M431.6667,193.9338 L431.6667,202.1005 A3.5,3.5 0 0 0 435.1667,205.6005 L443.3333,205.6005 L431.6667,193.9338" fill="#1C2330" style="stroke:#E7E7E7;stroke-width:0.5833;"/><text fill="#C9D1D9" font-family="sans-serif" font-size="15.1667" lengthAdjust="spacing" textLength="123.9401" x="302.1667" y="215.0153">authenticates user</text><path d="M18.6667,238.1812 L81.866,238.1812 L81.866,247.4285 L70.1994,259.0951 L11.6667,259.0951 L11.6667,245.1812 A7,7 0 0 1 18.6667,238.1812" fill="#161B22" style="stroke:#30363D;stroke-width:1.75;"/><rect fill="none" height="611.0679" rx="7" ry="7" style="stroke:#30363D;stroke-width:1.75;" width="1442.9069" x="11.6667" y="238.1812"/><text fill="#C9D1D9" font-family="sans-serif" font-size="15.1667" font-weight="bold" lengthAdjust="spacing" textLength="17.6994" x="29.1667" y="254.5959">alt</text><text fill="#C9D1D9" font-family="sans-serif" font-size="12.8333" font-weight="bold" lengthAdjust="spacing" textLength="124.0785" x="99.366" y="253.4167">[User authenticated]</text><g class="message" data-entity-1="part2" data-entity-2="part3" id="msg2"><polygon fill="#58A6FF" points="459.837,280.0091,471.5037,284.6758,459.837,289.3424,464.5037,284.6758" style="stroke:#58A6FF;stroke-width:1.1667;"/><line style="stroke:#58A6FF;stroke-width:1.1667;" x1="290.2516" x2="466.837" y1="284.6758" y2="284.6758"/><text fill="#C9D1D9" font-family="sans-serif" font-size="15.1667" font-weight="bold" lengthAdjust="spacing" textLength="8.435" x="318.9962" y="279.0099">2</text><text fill="#C9D1D9" font-family="sans-serif" font-size="15.1667" lengthAdjust="spacing" textLength="112.9946" x="332.0978" y="279.0099">delegate request</text></g><path d="M1078,306.8424 L1078,322.0091 A7,7 0 0 0 1085,329.0091 L1152.6667,329.0091 A7,7 0 0 0 1159.6667,322.0091 L1159.6667,311.5091 L1148,299.8424 L1085,299.8424 A7,7 0 0 0 1078,306.8424" fill="#1C2330" style="stroke:#E7E7E7;stroke-width:0.5833;"/><path d="M1148,299.8424 L1148,308.0091 A3.5,3.5 0 0 0 1151.5,311.5091 L1159.6667,311.5091 L1148,299.8424" fill="#1C2330" style="stroke:#E7E7E7;stroke-width:0.5833;"/><text fill="#C9D1D9" font-family="sans-serif" font-size="15.1667" lengthAdjust="spacing" textLength="58.171" x="1085" y="320.9239">log entry</text><g class="message" data-entity-1="part3" data-entity-2="part4" id="msg3"><polygon fill="#58A6FF" points="648.7037,356.8371,660.3704,361.5037,648.7037,366.1704,653.3704,361.5037" style="stroke:#58A6FF;stroke-width:1.1667;"/><line style="stroke:#58A6FF;stroke-width:1.1667;" x1="473.837" x2="655.7037" y1="361.5037" y2="361.5037"/><text fill="#C9D1D9" font-family="sans-serif" font-size="15.1667" font-weight="bold" lengthAdjust="spacing" textLength="8.435" x="505.2222" y="355.8379">3</text><text fill="#C9D1D9" font-family="sans-serif" font-size="15.1667" lengthAdjust="spacing" textLength="112.9946" x="518.3239" y="355.8379">delegate request</text></g><path d="M30.3333,379.0037 L93.5327,379.0037 L93.5327,388.2511 L81.866,399.9177 L23.3333,399.9177 L23.3333,386.0037 A7,7 0 0 1 30.3333,379.0037" fill="#161B22" style="stroke:#30363D;stroke-width:1.75;"/><rect fill="none" height="409.1092" rx="7" ry="7" style="stroke:#30363D;stroke-width:1.75;" width="1419.5736" x="23.3333" y="379.0037"/><text fill="#C9D1D9" font-family="sans-serif" font-size="15.1667" font-weight="bold" lengthAdjust="spacing" textLength="17.6994" x="40.8333" y="395.4185">alt</text><text fill="#C9D1D9" font-family="sans-serif" font-size="12.8333" font-weight="bold" lengthAdjust="spacing" textLength="106.2698" x="111.0327" y="394.2393">[customer exists]</text><g class="message" data-entity-1="part4" data-entity-2="part5" id="msg4"><polygon fill="#58A6FF" points="814.4302,420.8317,826.0968,425.4984,814.4302,430.165,819.0968,425.4984" style="stroke:#58A6FF;stroke-width:1.1667;"/><line style="stroke:#58A6FF;stroke-width:1.1667;" x1="662.7037" x2="821.4302" y1="425.4984" y2="425.4984"/><text fill="#C9D1D9" font-family="sans-serif" font-size="15.1667" font-weight="bold" lengthAdjust="spacing" textLength="8.435" x="681.271" y="419.8325">4</text><text fill="#C9D1D9" font-family="sans-serif" font-size="15.1667" lengthAdjust="spacing" textLength="115.4903" x="694.3726" y="419.8325">deletes customer</text></g><path d="M1078,447.665 L1078,462.8317 A7,7 0 0 0 1085,469.8317 L1181.8333,469.8317 A7,7 0 0 0 1188.8333,462.8317 L1188.8333,452.3317 L1177.1667,440.665 L1085,440.665 A7,7 0 0 0 1078,447.665" fill="#1C2330" style="stroke:#E7E7E7;stroke-width:0.5833;"/><path d="M1177.1667,440.665 L1177.1667,448.8317 A3.5,3.5 0 0 0 1180.6667,452.3317 L1188.8333,452.3317 L1177.1667,440.665" fill="#1C2330" style="stroke:#E7E7E7;stroke-width:0.5833;"/><text fill="#C9D1D9" font-family="sans-serif" font-size="15.1667" lengthAdjust="spacing" textLength="86.8455" x="1085" y="461.7465">log response</text><g class="message" data-entity-1="part3" data-entity-2="part2" id="msg5"><polygon fill="#58A6FF" points="303.085,497.6597,291.4183,502.3263,303.085,506.993,298.4183,502.3263" style="stroke:#58A6FF;stroke-width:1.1667;"/><line style="stroke:#58A6FF;stroke-width:1.1667;" x1="296.085" x2="472.6703" y1="502.3263" y2="502.3263"/><text fill="#C9D1D9" font-family="sans-serif" font-size="15.1667" font-weight="bold" lengthAdjust="spacing" textLength="8.435" x="304.2516" y="496.6605">5</text><text fill="#C9D1D9" font-family="sans-serif" font-size="15.1667" lengthAdjust="spacing" textLength="142.4837" x="317.3533" y="496.6605">Http no content (204)</text></g><g class="message" data-entity-1="part2" data-entity-2="part1" id="msg6"><polygon fill="#58A6FF" points="79.9167,532.5736,68.25,537.2403,79.9167,541.907,75.25,537.2403" style="stroke:#58A6FF;stroke-width:1.1667;"/><line style="stroke:#58A6FF;stroke-width:1.1667;" x1="72.9167" x2="289.085" y1="537.2403" y2="537.2403"/><text fill="#C9D1D9" font-family="sans-serif" font-size="15.1667" font-weight="bold" lengthAdjust="spacing" textLength="8.435" x="100.8748" y="531.5745">6</text><text fill="#C9D1D9" font-family="sans-serif" font-size="15.1667" lengthAdjust="spacing" textLength="142.4837" x="113.9764" y="531.5745">Http no content (204)</text></g><line style="stroke:#30363D;stroke-width:1.1667;stroke-dasharray:2.3333,2.3333;" x1="23.3333" x2="1442.9069" y1="547.7403" y2="547.7403"/><text fill="#C9D1D9" font-family="sans-serif" font-size="12.8333" font-weight="bold" lengthAdjust="spacing" textLength="147.8152" x="29.1667" y="560.6426">[customer doesn't exist]</text><g class="message" data-entity-1="part4" data-entity-2="part6" id="msg7"><polygon fill="#58A6FF" points="1059.1516,585.5431,1070.8183,590.2097,1059.1516,594.8764,1063.8183,590.2097" style="stroke:#58A6FF;stroke-width:1.1667;"/><line style="stroke:#58A6FF;stroke-width:1.1667;" x1="662.7037" x2="1066.1516" y1="590.2097" y2="590.2097"/><text fill="#C9D1D9" font-family="sans-serif" font-size="15.1667" font-weight="bold" lengthAdjust="spacing" textLength="8.435" x="808.2639" y="584.5439">7</text><text fill="#C9D1D9" font-family="sans-serif" font-size="15.1667" lengthAdjust="spacing" textLength="106.2259" x="821.3655" y="584.5439">throw exception</text></g><path d="M1078,612.3764 L1078,627.5431 A7,7 0 0 0 1085,634.5431 L1151.5,634.5431 A7,7 0 0 0 1158.5,627.5431 L1158.5,617.0431 L1146.8333,605.3764 L1085,605.3764 A7,7 0 0 0 1078,612.3764" fill="#1C2330" style="stroke:#E7E7E7;stroke-width:0.5833;"/><path d="M1146.8333,605.3764 L1146.8333,613.5431 A3.5,3.5 0 0 0 1150.3333,617.0431 L1158.5,617.0431 L1146.8333,605.3764" fill="#1C2330" style="stroke:#E7E7E7;stroke-width:0.5833;"/><text fill="#C9D1D9" font-family="sans-serif" font-size="15.1667" lengthAdjust="spacing" textLength="56.4751" x="1085" y="626.4578">log error</text><g class="message" data-entity-1="part6" data-entity-2="part7" id="msg8"><polygon fill="#58A6FF" points="1321.5861,662.371,1333.2528,667.0377,1321.5861,671.7043,1326.2528,667.0377" style="stroke:#58A6FF;stroke-width:1.1667;"/><line style="stroke:#58A6FF;stroke-width:1.1667;" x1="1073.1516" x2="1328.5861" y1="667.0377" y2="667.0377"/><text fill="#C9D1D9" font-family="sans-serif" font-size="15.1667" font-weight="bold" lengthAdjust="spacing" textLength="8.435" x="1135.437" y="661.3718">8</text><text fill="#C9D1D9" font-family="sans-serif" font-size="15.1667" lengthAdjust="spacing" textLength="124.7621" x="1148.5386" y="661.3718">re-throw exception</text></g><path d="M1340.5,689.2043 L1340.5,704.371 A7,7 0 0 0 1347.5,711.371 L1414,711.371 A7,7 0 0 0 1421,704.371 L1421,693.871 L1409.3333,682.2043 L1347.5,682.2043 A7,7 0 0 0 1340.5,689.2043" fill="#1C2330" style="stroke:#E7E7E7;stroke-width:0.5833;"/><path d="M1409.3333,682.2043 L1409.3333,690.371 A3.5,3.5 0 0 0 1412.8333,693.871 L1421,693.871 L1409.3333,682.2043" fill="#1C2330" style="stroke:#E7E7E7;stroke-width:0.5833;"/><text fill="#C9D1D9" font-family="sans-serif" font-size="15.1667" lengthAdjust="spacing" textLength="56.4751" x="1347.5" y="703.2858">log error</text><g class="message" data-entity-1="part3" data-entity-2="part2" id="msg9"><polygon fill="#58A6FF" points="303.085,739.199,291.4183,743.8656,303.085,748.5323,298.4183,743.8656" style="stroke:#58A6FF;stroke-width:1.1667;"/><line style="stroke:#58A6FF;stroke-width:1.1667;" x1="296.085" x2="472.6703" y1="743.8656" y2="743.8656"/><text fill="#C9D1D9" font-family="sans-serif" font-size="15.1667" font-weight="bold" lengthAdjust="spacing" textLength="8.435" x="308.0433" y="738.1998">9</text><text fill="#C9D1D9" font-family="sans-serif" font-size="15.1667" lengthAdjust="spacing" textLength="134.9004" x="321.1449" y="738.1998">Http not found (404)</text></g><g class="message" data-entity-1="part2" data-entity-2="part1" id="msg10"><polygon fill="#58A6FF" points="79.9167,774.113,68.25,778.7796,79.9167,783.4463,75.25,778.7796" style="stroke:#58A6FF;stroke-width:1.1667;"/><line style="stroke:#58A6FF;stroke-width:1.1667;" x1="72.9167" x2="289.085" y1="778.7796" y2="778.7796"/><text fill="#C9D1D9" font-family="sans-serif" font-size="15.1667" font-weight="bold" lengthAdjust="spacing" textLength="16.87" x="100.449" y="773.1138">10</text><text fill="#C9D1D9" font-family="sans-serif" font-size="15.1667" lengthAdjust="spacing" textLength="134.9004" x="121.9856" y="773.1138">Http not found (404)</text></g><line style="stroke:#30363D;stroke-width:1.1667;stroke-dasharray:2.3333,2.3333;" x1="11.6667" x2="1454.5736" y1="797.4463" y2="797.4463"/><text fill="#C9D1D9" font-family="sans-serif" font-size="12.8333" font-weight="bold" lengthAdjust="spacing" textLength="147.5959" x="17.5" y="810.3486">[User not authenticated]</text><g class="message" data-entity-1="part2" data-entity-2="part1" id="msg11"><polygon fill="#58A6FF" points="79.9167,835.249,68.25,839.9157,79.9167,844.5824,75.25,839.9157" style="stroke:#58A6FF;stroke-width:1.1667;"/><line style="stroke:#58A6FF;stroke-width:1.1667;" x1="72.9167" x2="289.085" y1="839.9157" y2="839.9157"/><text fill="#C9D1D9" font-family="sans-serif" font-size="15.1667" font-weight="bold" lengthAdjust="spacing" textLength="16.87" x="100.4527" y="834.2498">11</text><text fill="#C9D1D9" font-family="sans-serif" font-size="15.1667" lengthAdjust="spacing" textLength="134.893" x="121.9893" y="834.2498">Http forbidden (403)</text></g><?plantuml-src hLLDRzim3BtxLn3OOUsXQ9oqwRh3W2HEsaCs36ktks8pZb1LyYIw7nZstqkvZgiaTXCCWs_Yu-FZeqIJ98MGe492I4j7vXujdC0D_YvHfnX5eYIZo_i5sYXoTr8NmefxM8ZqBhUcrDd4A6FXGsyQn_55W70haPb7gNDO2kKmY5HfgR6QAyNz890L4k9XBwpZQXtm9mBuYiw974TAvXfIrCIQ04RMciTQnVcdqN0suyEvNE9SQXmRcw6jeuFUO3X8mkXs5_4m7lVxdZGbOpUI6-hNq4x_ITK_mDWyjHVrWOwils7BjtuaCwEfnamkapYv303hsLmnKz5MgmlQqUqR_9kX5ayc_S6WjuqAoqul_BU523gOdVilY5SMtj0pNptnY8xlN11CS2bAHRiE19YnroViSzk4Mb0TjWVG2LUpHhtFjmRjfqi4YOLm-3vVWzfF-5rOagaiXARtEKDW5wtmziDFnyzdKLi4ew9GCXKaZOxIrpvXKk-37-YexbsX_HNl06xGFiWKEPBLBJKXjsvoB-lSv3clYv4hCAK6VQNCGgZfKug5r-QkXSwKtqLUFfny2ON3PqYcy-dj54v58KyVujFrHdEHvYi9LkOh0hFSIk8Lj-9juW_GGUbzYOIYog6DOCRF63QIMK1NFqoSyLxDXI_itw6ZAdrJoK5kC9KoER0C-rnnTDOCz3H3QHDIiVWUcvsFJzAHgyx32cyi0NKpr9hQsxOcQXZ-lK-Bhk1HuuwOjdOtHtbDL71byDU7xOAZVk_ikE7PcbmrtwwSAWdvp_LcKMRGwO_qQjLXJkrhbrRyysB2-dh_1_EGVuTshtERcIouuvqngSMJmrHsKnokgtEY14k_gk3exE21xgQWpgAeccc5z92zpplaN1gxa5c6sdCEZYFcUm40?></g></svg>