<?plantuml 1.2026.2?>
<svg xmlns="http://www.w3.org/2000/svg" contentStyleType="text/css" data-diagram-type="SEQUENCE" height="869.1667px"
     preserveAspectRatio="none" style="width:1608px;height:869px;background:#0E1117;" version="1.1"
     viewBox="0 0 1608 869" width="1608.8333px" zoomAndPan="magnify"><title>Get customer profile - Sequence</title><defs/><g><rect fill="#0E1117" height="869.1667" style="stroke:none;stroke-width:1.1667;" width="1608.8333" x="0" y="0"/><text fill="#C9D1D9" font-family="sans-serif" font-size="16.3333" font-weight="bold" lengthAdjust="spacing" textLength="251.4121" x="680.0878" y="33.9211">Get customer profile - Sequence</text><rect fill="none" height="444.0232" rx="7" ry="7" style="stroke:#30363D;stroke-width:1.75;" width="1589.421" x="11.6667" y="308.0091"/><g class="participant-lifeline" data-entity-uid="part1" data-qualified-name="User" id="part1-lifeline"><g><title>User</title><rect fill="#000000" fill-opacity="0.00000" height="630.3458" width="9.3333" x="50.75" y="141.5199"/><line style="stroke:#30363D;stroke-width:0.5833;stroke-dasharray:5.8333,5.8333;" x1="54.8333" x2="54.8333" y1="141.5199" y2="771.8656"/></g></g><g class="participant-lifeline" data-entity-uid="part2" data-qualified-name="Application" id="part2-lifeline"><g><title>Application</title><rect fill="#000000" fill-opacity="0.00000" height="630.3458" width="9.3333" x="373.4051" y="141.5199"/><line style="stroke:#30363D;stroke-width:0.5833;stroke-dasharray:5.8333,5.8333;" x1="377.7864" x2="377.7864" y1="141.5199" y2="771.8656"/></g></g><g class="participant-lifeline" data-entity-uid="part3" data-qualified-name="CustomerRestControllerV1" id="part3-lifeline"><g><title>CustomerRestControllerV1</title><rect fill="#000000" fill-opacity="0.00000" height="630.3458" width="9.3333" x="627.3511" y="141.5199"/><line style="stroke:#30363D;stroke-width:0.5833;stroke-dasharray:5.8333,5.8333;" x1="631.2698" x2="631.2698" y1="141.5199" y2="771.8656"/></g></g><g class="participant-lifeline" data-entity-uid="part4" data-qualified-name="CustomerServiceV1" id="part4-lifeline"><g><title>CustomerServiceV1</title><rect fill="#000000" fill-opacity="0.00000" height="630.3458" width="9.3333" x="816.2178" y="141.5199"/><line style="stroke:#30363D;stroke-width:0.5833;stroke-dasharray:5.8333,5.8333;" x1="820.599" x2="820.599" y1="141.5199" y2="771.8656"/></g></g><g class="participant-lifeline" data-entity-uid="part5" data-qualified-name="CustomersDatabase" id="part5-lifeline"><g><title>CustomersDatabase</title><rect fill="#000000" fill-opacity="0.00000" height="630.3458" width="9.3333" x="981.9443" y="141.5199"/><line style="stroke:#30363D;stroke-width:0.5833;stroke-dasharray:5.8333,5.8333;" x1="985.6698" x2="985.6698" y1="141.5199" y2="771.8656"/></g></g><g class="participant-lifeline" data-entity-uid="part6" data-qualified-name="CustomerRestControllerV1LoggingAspect" id="part6-lifeline"><g><title>CustomerRestControllerV1LoggingAspect</title><rect fill="#000000" fill-opacity="0.00000" height="630.3458" width="9.3333" x="1226.6657" y="141.5199"/><line style="stroke:#30363D;stroke-width:0.5833;stroke-dasharray:5.8333,5.8333;" x1="1230.2187" x2="1230.2187" y1="141.5199" y2="771.8656"/></g></g><g class="participant-lifeline" data-entity-uid="part7" data-qualified-name="GlobalExceptionsHandler" id="part7-lifeline"><g><title>GlobalExceptionsHandler</title><rect fill="#000000" fill-opacity="0.00000" height="630.3458" width="9.3333" x="1489.1002" y="141.5199"/><line style="stroke:#30363D;stroke-width:0.5833;stroke-dasharray:5.8333,5.8333;" x1="1492.6127" x2="1492.6127" y1="141.5199" y2="771.8656"/></g></g><g class="participant participant-head" data-entity-uid="part1" data-qualified-name="User" id="part1-head"><text fill="#C9D1D9" font-family="sans-serif" font-size="16.3333" lengthAdjust="spacing" textLength="34.485" x="34.6742" y="137.931">User</text><ellipse cx="55.4167" cy="69.5933" fill="#0D1117" rx="18.6667" ry="18.6667" style="stroke:#58A6FF;stroke-width:0.5833;"/><path d="M55.4167,92.9266 C60.0833,92.9266 63.5833,92.9266 68.25,88.2599 C77.5833,88.2599 86.9167,97.5933 86.9167,106.9266 L86.9167,111.5933 C86.9167,116.2599 82.25,120.9266 77.5833,120.9266 L33.25,120.9266 C28.5833,120.9266 23.9167,116.2599 23.9167,111.5933 L23.9167,106.9266 C23.9167,97.5933 33.25,88.2599 42.5833,88.2599 C47.25,92.9266 50.75,92.9266 55.4167,92.9266" fill="#0D1117" style="stroke:#58A6FF;stroke-width:0.5833;"/></g><g class="participant participant-tail" data-entity-uid="part1" data-qualified-name="User" id="part1-tail"><text fill="#C9D1D9" font-family="sans-serif" font-size="16.3333" lengthAdjust="spacing" textLength="34.485" x="34.6742" y="787.12">User</text><ellipse cx="55.4167" cy="809.9589" fill="#0D1117" rx="18.6667" ry="18.6667" style="stroke:#58A6FF;stroke-width:0.5833;"/><path d="M55.4167,833.2922 C60.0833,833.2922 63.5833,833.2922 68.25,828.6256 C77.5833,828.6256 86.9167,837.9589 86.9167,847.2922 L86.9167,851.9589 C86.9167,856.6256 82.25,861.2922 77.5833,861.2922 L33.25,861.2922 C28.5833,861.2922 23.9167,856.6256 23.9167,851.9589 L23.9167,847.2922 C23.9167,837.9589 33.25,828.6256 42.5833,828.6256 C47.25,833.2922 50.75,833.2922 55.4167,833.2922" fill="#0D1117" style="stroke:#58A6FF;stroke-width:0.5833;"/></g><g class="participant participant-head" data-entity-uid="part2" data-qualified-name="Application" id="part2-head"><text fill="#C9D1D9" font-family="sans-serif" font-size="16.3333" lengthAdjust="spacing" textLength="79.9041" x="334.6197" y="137.931">Application</text><path d="M354.1551,88.8433 L354.1551,116.8433 M354.1551,102.8433 L373.9884,102.8433" fill="none" style="stroke:#58A6FF;stroke-width:0.5833;"/><ellipse cx="387.9884" cy="102.8433" fill="#0D1117" rx="14" ry="14" style="stroke:#58A6FF;stroke-width:0.5833;"/></g><g class="participant participant-tail" data-entity-uid="part2" data-qualified-name="Application" id="part2-tail"><text fill="#C9D1D9" font-family="sans-serif" font-size="16.3333" lengthAdjust="spacing" textLength="79.9041" x="334.6197" y="787.12">Application</text><path d="M354.1551,795.3756 L354.1551,823.3756 M354.1551,809.3756 L373.9884,809.3756" fill="none" style="stroke:#58A6FF;stroke-width:0.5833;"/><ellipse cx="387.9884" cy="809.3756" fill="#0D1117" rx="14" ry="14" style="stroke:#58A6FF;stroke-width:0.5833;"/></g><g class="participant participant-head" data-entity-uid="part3" data-qualified-name="CustomerRestControllerV1" id="part3-head"><text fill="#C9D1D9" font-family="sans-serif" font-size="16.3333" lengthAdjust="spacing" textLength="195.1626" x="530.9364" y="137.931">CustomerRestControllerV1</text><ellipse cx="632.0177" cy="102.8433" fill="#0D1117" rx="14" ry="14" style="stroke:#58A6FF;stroke-width:0.5833;"/><polygon fill="#58A6FF" points="627.3511,88.8433,634.3511,83.0099,632.0177,88.8433,634.3511,94.6766,627.3511,88.8433" style="stroke:#58A6FF;stroke-width:1.1667;"/></g><g class="participant participant-tail" data-entity-uid="part3" data-qualified-name="CustomerRestControllerV1" id="part3-tail"><text fill="#C9D1D9" font-family="sans-serif" font-size="16.3333" lengthAdjust="spacing" textLength="195.1626" x="530.9364" y="787.12">CustomerRestControllerV1</text><ellipse cx="632.0177" cy="809.3756" fill="#0D1117" rx="14" ry="14" style="stroke:#58A6FF;stroke-width:0.5833;"/><polygon fill="#58A6FF" points="627.3511,795.3756,634.3511,789.5422,632.0177,795.3756,634.3511,801.2089,627.3511,795.3756" style="stroke:#58A6FF;stroke-width:1.1667;"/></g><g class="participant participant-head" data-entity-uid="part4" data-qualified-name="CustomerServiceV1" id="part4-head"><text fill="#C9D1D9" font-family="sans-serif" font-size="16.3333" lengthAdjust="spacing" textLength="145.2375" x="744.7657" y="137.931">CustomerServiceV1</text><ellipse cx="820.8844" cy="102.8433" fill="#0D1117" rx="14" ry="14" style="stroke:#58A6FF;stroke-width:0.5833;"/><polygon fill="#58A6FF" points="816.2178,88.8433,823.2178,83.0099,820.8844,88.8433,823.2178,94.6766,816.2178,88.8433" style="stroke:#58A6FF;stroke-width:1.1667;"/></g><g class="participant participant-tail" data-entity-uid="part4" data-qualified-name="CustomerServiceV1" id="part4-tail"><text fill="#C9D1D9" font-family="sans-serif" font-size="16.3333" lengthAdjust="spacing" textLength="145.2375" x="744.7657" y="787.12">CustomerServiceV1</text><ellipse cx="820.8844" cy="809.3756" fill="#0D1117" rx="14" ry="14" style="stroke:#58A6FF;stroke-width:0.5833;"/><polygon fill="#58A6FF" points="816.2178,795.3756,823.2178,789.5422,820.8844,795.3756,823.2178,801.2089,816.2178,795.3756" style="stroke:#58A6FF;stroke-width:1.1667;"/></g><g class="participant participant-head" data-entity-uid="part5" data-qualified-name="CustomersDatabase" id="part5-head"><text fill="#C9D1D9" font-family="sans-serif" font-size="16.3333" lengthAdjust="spacing" textLength="148.8822" x="908.6698" y="137.931">CustomersDatabase</text><path d="M965.6109,79.5099 C965.6109,67.8433 986.6109,67.8433 986.6109,67.8433 C986.6109,67.8433 1007.6109,67.8433 1007.6109,79.5099 L1007.6109,109.8433 C1007.6109,121.5099 986.6109,121.5099 986.6109,121.5099 C986.6109,121.5099 965.6109,121.5099 965.6109,109.8433 L965.6109,79.5099" fill="#0D1117" style="stroke:#58A6FF;stroke-width:0.5833;"/><path d="M965.6109,79.5099 C965.6109,91.1766 986.6109,91.1766 986.6109,91.1766 C986.6109,91.1766 1007.6109,91.1766 1007.6109,79.5099" fill="none" style="stroke:#58A6FF;stroke-width:0.5833;"/></g><g class="participant participant-tail" data-entity-uid="part5" data-qualified-name="CustomersDatabase" id="part5-tail"><text fill="#C9D1D9" font-family="sans-serif" font-size="16.3333" lengthAdjust="spacing" textLength="148.8822" x="908.6698" y="787.12">CustomersDatabase</text><path d="M965.6109,802.3756 C965.6109,790.7089 986.6109,790.7089 986.6109,790.7089 C986.6109,790.7089 1007.6109,790.7089 1007.6109,802.3756 L1007.6109,832.7089 C1007.6109,844.3756 986.6109,844.3756 986.6109,844.3756 C986.6109,844.3756 965.6109,844.3756 965.6109,832.7089 L965.6109,802.3756" fill="#0D1117" style="stroke:#58A6FF;stroke-width:0.5833;"/><path d="M965.6109,802.3756 C965.6109,814.0422 986.6109,814.0422 986.6109,814.0422 C986.6109,814.0422 1007.6109,814.0422 1007.6109,802.3756" fill="none" style="stroke:#58A6FF;stroke-width:0.5833;"/></g><g class="participant participant-head" data-entity-uid="part6" data-qualified-name="CustomerRestControllerV1LoggingAspect" id="part6-head"><text fill="#C9D1D9" font-family="sans-serif" font-size="16.3333" lengthAdjust="spacing" textLength="303.2274" x="1076.2187" y="137.931">CustomerRestControllerV1LoggingAspect</text><ellipse cx="1231.3324" cy="102.8433" fill="#0D1117" rx="14" ry="14" style="stroke:#58A6FF;stroke-width:0.5833;"/><polygon fill="#58A6FF" points="1226.6657,88.8433,1233.6657,83.0099,1231.3324,88.8433,1233.6657,94.6766,1226.6657,88.8433" style="stroke:#58A6FF;stroke-width:1.1667;"/></g><g class="participant participant-tail" data-entity-uid="part6" data-qualified-name="CustomerRestControllerV1LoggingAspect" id="part6-tail"><text fill="#C9D1D9" font-family="sans-serif" font-size="16.3333" lengthAdjust="spacing" textLength="303.2274" x="1076.2187" y="787.12">CustomerRestControllerV1LoggingAspect</text><ellipse cx="1231.3324" cy="809.3756" fill="#0D1117" rx="14" ry="14" style="stroke:#58A6FF;stroke-width:0.5833;"/><polygon fill="#58A6FF" points="1226.6657,795.3756,1233.6657,789.5422,1231.3324,795.3756,1233.6657,801.2089,1226.6657,795.3756" style="stroke:#58A6FF;stroke-width:1.1667;"/></g><g class="participant participant-head" data-entity-uid="part7" data-qualified-name="GlobalExceptionsHandler" id="part7-head"><text fill="#C9D1D9" font-family="sans-serif" font-size="16.3333" lengthAdjust="spacing" textLength="184.3083" x="1398.1127" y="137.931">GlobalExceptionsHandler</text><ellipse cx="1493.7668" cy="102.8433" fill="#0D1117" rx="14" ry="14" style="stroke:#58A6FF;stroke-width:0.5833;"/><polygon fill="#58A6FF" points="1489.1002,88.8433,1496.1002,83.0099,1493.7668,88.8433,1496.1002,94.6766,1489.1002,88.8433" style="stroke:#58A6FF;stroke-width:1.1667;"/></g><g class="participant participant-tail" data-entity-uid="part7" data-qualified-name="GlobalExceptionsHandler" id="part7-tail"><text fill="#C9D1D9" font-family="sans-serif" font-size="16.3333" lengthAdjust="spacing" textLength="184.3083" x="1398.1127" y="787.12">GlobalExceptionsHandler</text><ellipse cx="1493.7668" cy="809.3756" fill="#0D1117" rx="14" ry="14" style="stroke:#58A6FF;stroke-width:0.5833;"/><polygon fill="#58A6FF" points="1489.1002,795.3756,1496.1002,789.5422,1493.7668,795.3756,1496.1002,801.2089,1489.1002,795.3756" style="stroke:#58A6FF;stroke-width:1.1667;"/></g><g class="message" data-entity-1="part1" data-entity-2="part2" id="msg1"><polygon fill="#58A6FF" points="364.0718,174.1005,375.7384,178.7672,364.0718,183.4338,368.7384,178.7672" style="stroke:#58A6FF;stroke-width:1.1667;"/><line style="stroke:#58A6FF;stroke-width:1.1667;" x1="55.4167" x2="371.0718" y1="178.7672" y2="178.7672"/><text fill="#C9D1D9" font-family="sans-serif" font-size="15.1667" font-weight="bold" lengthAdjust="spacing" textLength="8.435" x="69.4167" y="173.1013">1</text><text fill="#C9D1D9" font-family="sans-serif" font-size="15.1667" lengthAdjust="spacing" textLength="281.5535" x="82.5183" y="173.1013">GET /api/v1/customers/profile/{username}</text></g><g class="message" data-entity-1="part2" data-entity-2="part3" id="msg2"><polygon fill="#58A6FF" points="618.0177,209.0145,629.6844,213.6812,618.0177,218.3478,622.6844,213.6812" style="stroke:#58A6FF;stroke-width:1.1667;"/><line style="stroke:#58A6FF;stroke-width:1.1667;" x1="378.0718" x2="625.0177" y1="213.6812" y2="213.6812"/><text fill="#C9D1D9" font-family="sans-serif" font-size="15.1667" font-weight="bold" lengthAdjust="spacing" textLength="8.435" x="441.9966" y="208.0153">2</text><text fill="#C9D1D9" font-family="sans-serif" font-size="15.1667" lengthAdjust="spacing" textLength="112.9946" x="455.0983" y="208.0153">delegate request</text></g><path d="M1236.6667,235.8478 L1236.6667,251.0145 A7,7 0 0 0 1243.6667,258.0145 L1311.3333,258.0145 A7,7 0 0 0 1318.3333,251.0145 L1318.3333,240.5145 L1306.6667,228.8478 L1243.6667,228.8478 A7,7 0 0 0 1236.6667,235.8478" fill="#1C2330" style="stroke:#E7E7E7;stroke-width:0.5833;"/><path d="M1306.6667,228.8478 L1306.6667,237.0145 A3.5,3.5 0 0 0 1310.1667,240.5145 L1318.3333,240.5145 L1306.6667,228.8478" fill="#1C2330" style="stroke:#E7E7E7;stroke-width:0.5833;"/><text fill="#C9D1D9" font-family="sans-serif" font-size="15.1667" lengthAdjust="spacing" textLength="58.171" x="1243.6667" y="249.9293">log entry</text><g class="message" data-entity-1="part3" data-entity-2="part4" id="msg3"><polygon fill="#58A6FF" points="806.8844,285.8424,818.5511,290.5091,806.8844,295.1758,811.5511,290.5091" style="stroke:#58A6FF;stroke-width:1.1667;"/><line style="stroke:#58A6FF;stroke-width:1.1667;" x1="632.0177" x2="813.8844" y1="290.5091" y2="290.5091"/><text fill="#C9D1D9" font-family="sans-serif" font-size="15.1667" font-weight="bold" lengthAdjust="spacing" textLength="8.435" x="663.403" y="284.8433">3</text><text fill="#C9D1D9" font-family="sans-serif" font-size="15.1667" lengthAdjust="spacing" textLength="112.9946" x="676.5046" y="284.8433">delegate request</text></g><path d="M18.6667,308.0091 L81.866,308.0091 L81.866,317.2564 L70.1994,328.9231 L11.6667,328.9231 L11.6667,315.0091 A7,7 0 0 1 18.6667,308.0091" fill="#161B22" style="stroke:#30363D;stroke-width:1.75;"/><rect fill="none" height="444.0232" rx="7" ry="7" style="stroke:#30363D;stroke-width:1.75;" width="1589.421" x="11.6667" y="308.0091"/><text fill="#C9D1D9" font-family="sans-serif" font-size="15.1667" font-weight="bold" lengthAdjust="spacing" textLength="17.6994" x="29.1667" y="324.4239">alt</text><text fill="#C9D1D9" font-family="sans-serif" font-size="12.8333" font-weight="bold" lengthAdjust="spacing" textLength="108.4003" x="99.366" y="323.2447">[Customer exists]</text><g class="message" data-entity-1="part4" data-entity-2="part5" id="msg4"><polygon fill="#58A6FF" points="972.6109,349.8371,984.2776,354.5037,972.6109,359.1704,977.2776,354.5037" style="stroke:#58A6FF;stroke-width:1.1667;"/><line style="stroke:#58A6FF;stroke-width:1.1667;" x1="820.8844" x2="979.6109" y1="354.5037" y2="354.5037"/><text fill="#C9D1D9" font-family="sans-serif" font-size="15.1667" font-weight="bold" lengthAdjust="spacing" textLength="8.435" x="838.6186" y="348.8379">4</text><text fill="#C9D1D9" font-family="sans-serif" font-size="15.1667" lengthAdjust="spacing" textLength="117.1566" x="851.7202" y="348.8379">retrieve customer</text></g><g class="message" data-entity-1="part5" data-entity-2="part4" id="msg5"><polygon fill="#58A6FF" points="833.7178,384.7511,822.0511,389.4177,833.7178,394.0844,829.0511,389.4177" style="stroke:#58A6FF;stroke-width:1.1667;"/><line style="stroke:#58A6FF;stroke-width:1.1667;" x1="826.7178" x2="985.4443" y1="389.4177" y2="389.4177"/><text fill="#C9D1D9" font-family="sans-serif" font-size="15.1667" font-weight="bold" lengthAdjust="spacing" textLength="8.435" x="840.3033" y="383.7519">5</text><text fill="#C9D1D9" font-family="sans-serif" font-size="15.1667" lengthAdjust="spacing" textLength="113.787" x="853.405" y="383.7519">returns customer</text></g><path d="M1236.6667,411.5844 L1236.6667,426.7511 A7,7 0 0 0 1243.6667,433.7511 L1340.5,433.7511 A7,7 0 0 0 1347.5,426.7511 L1347.5,416.2511 L1335.8333,404.5844 L1243.6667,404.5844 A7,7 0 0 0 1236.6667,411.5844" fill="#1C2330" style="stroke:#E7E7E7;stroke-width:0.5833;"/><path d="M1335.8333,404.5844 L1335.8333,412.7511 A3.5,3.5 0 0 0 1339.3333,416.2511 L1347.5,416.2511 L1335.8333,404.5844" fill="#1C2330" style="stroke:#E7E7E7;stroke-width:0.5833;"/><text fill="#C9D1D9" font-family="sans-serif" font-size="15.1667" lengthAdjust="spacing" textLength="86.8455" x="1243.6667" y="425.6659">log response</text><g class="message" data-entity-1="part3" data-entity-2="part2" id="msg6"><polygon fill="#58A6FF" points="390.9051,461.579,379.2384,466.2457,390.9051,470.9124,386.2384,466.2457" style="stroke:#58A6FF;stroke-width:1.1667;"/><line style="stroke:#58A6FF;stroke-width:1.1667;" x1="383.9051" x2="630.8511" y1="466.2457" y2="466.2457"/><text fill="#C9D1D9" font-family="sans-serif" font-size="15.1667" font-weight="bold" lengthAdjust="spacing" textLength="8.435" x="392.0718" y="460.5798">6</text><text fill="#C9D1D9" font-family="sans-serif" font-size="15.1667" lengthAdjust="spacing" textLength="212.8443" x="405.1734" y="460.5798">Http ok (200) + customer profile</text></g><g class="message" data-entity-1="part2" data-entity-2="part1" id="msg7"><polygon fill="#58A6FF" points="68.25,496.493,56.5833,501.1597,68.25,505.8263,63.5833,501.1597" style="stroke:#58A6FF;stroke-width:1.1667;"/><line style="stroke:#58A6FF;stroke-width:1.1667;" x1="61.25" x2="376.9051" y1="501.1597" y2="501.1597"/><text fill="#C9D1D9" font-family="sans-serif" font-size="15.1667" font-weight="bold" lengthAdjust="spacing" textLength="8.435" x="103.7712" y="495.4938">7</text><text fill="#C9D1D9" font-family="sans-serif" font-size="15.1667" lengthAdjust="spacing" textLength="212.8443" x="116.8729" y="495.4938">Http ok (200) + customer profile</text></g><line style="stroke:#30363D;stroke-width:1.1667;stroke-dasharray:2.3333,2.3333;" x1="11.6667" x2="1601.0876" y1="511.6597" y2="511.6597"/><text fill="#C9D1D9" font-family="sans-serif" font-size="12.8333" font-weight="bold" lengthAdjust="spacing" textLength="149.9457" x="17.5" y="524.5619">[Customer doesn't exist]</text><g class="message" data-entity-1="part3" data-entity-2="part6" id="msg8"><polygon fill="#58A6FF" points="1217.3324,549.4624,1228.999,554.1291,1217.3324,558.7957,1221.999,554.1291" style="stroke:#58A6FF;stroke-width:1.1667;"/><line style="stroke:#58A6FF;stroke-width:1.1667;" x1="632.0177" x2="1224.3324" y1="554.1291" y2="554.1291"/><text fill="#C9D1D9" font-family="sans-serif" font-size="15.1667" font-weight="bold" lengthAdjust="spacing" textLength="8.435" x="872.0113" y="548.4632">8</text><text fill="#C9D1D9" font-family="sans-serif" font-size="15.1667" lengthAdjust="spacing" textLength="106.2259" x="885.1129" y="548.4632">throw exception</text></g><path d="M1236.6667,576.2957 L1236.6667,591.4624 A7,7 0 0 0 1243.6667,598.4624 L1310.1667,598.4624 A7,7 0 0 0 1317.1667,591.4624 L1317.1667,580.9624 L1305.5,569.2957 L1243.6667,569.2957 A7,7 0 0 0 1236.6667,576.2957" fill="#1C2330" style="stroke:#E7E7E7;stroke-width:0.5833;"/><path d="M1305.5,569.2957 L1305.5,577.4624 A3.5,3.5 0 0 0 1309,580.9624 L1317.1667,580.9624 L1305.5,569.2957" fill="#1C2330" style="stroke:#E7E7E7;stroke-width:0.5833;"/><text fill="#C9D1D9" font-family="sans-serif" font-size="15.1667" lengthAdjust="spacing" textLength="56.4751" x="1243.6667" y="590.3772">log error</text><g class="message" data-entity-1="part6" data-entity-2="part7" id="msg9"><polygon fill="#58A6FF" points="1479.7668,626.2904,1491.4335,630.957,1479.7668,635.6237,1484.4335,630.957" style="stroke:#58A6FF;stroke-width:1.1667;"/><line style="stroke:#58A6FF;stroke-width:1.1667;" x1="1231.3324" x2="1486.7668" y1="630.957" y2="630.957"/><text fill="#C9D1D9" font-family="sans-serif" font-size="15.1667" font-weight="bold" lengthAdjust="spacing" textLength="8.435" x="1293.6177" y="625.2912">9</text><text fill="#C9D1D9" font-family="sans-serif" font-size="15.1667" lengthAdjust="spacing" textLength="124.7621" x="1306.7194" y="625.2912">re-throw exception</text></g><path d="M1499.1667,653.1237 L1499.1667,668.2904 A7,7 0 0 0 1506.1667,675.2904 L1572.6667,675.2904 A7,7 0 0 0 1579.6667,668.2904 L1579.6667,657.7904 L1568,646.1237 L1506.1667,646.1237 A7,7 0 0 0 1499.1667,653.1237" fill="#1C2330" style="stroke:#E7E7E7;stroke-width:0.5833;"/><path d="M1568,646.1237 L1568,654.2904 A3.5,3.5 0 0 0 1571.5,657.7904 L1579.6667,657.7904 L1568,646.1237" fill="#1C2330" style="stroke:#E7E7E7;stroke-width:0.5833;"/><text fill="#C9D1D9" font-family="sans-serif" font-size="15.1667" lengthAdjust="spacing" textLength="56.4751" x="1506.1667" y="667.2052">log error</text><g class="message" data-entity-1="part3" data-entity-2="part2" id="msg10"><polygon fill="#58A6FF" points="390.9051,703.1183,379.2384,707.785,390.9051,712.4517,386.2384,707.785" style="stroke:#58A6FF;stroke-width:1.1667;"/><line style="stroke:#58A6FF;stroke-width:1.1667;" x1="383.9051" x2="630.8511" y1="707.785" y2="707.785"/><text fill="#C9D1D9" font-family="sans-serif" font-size="15.1667" font-weight="bold" lengthAdjust="spacing" textLength="16.87" x="426.8263" y="702.1191">10</text><text fill="#C9D1D9" font-family="sans-serif" font-size="15.1667" lengthAdjust="spacing" textLength="134.9004" x="448.3629" y="702.1191">Http not found (404)</text></g><g class="message" data-entity-1="part2" data-entity-2="part1" id="msg11"><polygon fill="#58A6FF" points="68.25,738.0323,56.5833,742.699,68.25,747.3656,63.5833,742.699" style="stroke:#58A6FF;stroke-width:1.1667;"/><line style="stroke:#58A6FF;stroke-width:1.1667;" x1="61.25" x2="376.9051" y1="742.699" y2="742.699"/><text fill="#C9D1D9" font-family="sans-serif" font-size="15.1667" font-weight="bold" lengthAdjust="spacing" textLength="16.87" x="138.5257" y="737.0331">11</text><text fill="#C9D1D9" font-family="sans-serif" font-size="15.1667" lengthAdjust="spacing" textLength="134.9004" x="160.0623" y="737.0331">Http not found (404)</text></g><?plantuml-src fLLDRzim3BtxLn3OOIs68dRIfkiE0_BTGpOCQxUxOZEE44No9BfDKVI_Jt8SLqdi9DZWaytt7Xz9cI9E0c62175kIArGGwRLdDkFL_20VtAKCGO1oqd9V3L37GHcoMN6D5l1ZCNBLAjS9WCbb8OFuIYAebiFOHOiKSzSfZ1dmg0NAMYnqj9cZDfU8CauHDtGpsDA7_0Q07n3OrYAFS5J2J5Aifu0UbghvzB5pUTUTpos7wTyZbCkiQzqWhgCTi9EjpFqe_jLHDsetsuxqPYKtY5NqflGGVt3edw0lbhN9tM11jQRN_AZcyjOIIenWxjXDBpp0DlPJAnILfUh2TfGxJlykwAQdWpQdKwuZ_BJZcxTiuVmAXZVkCUB5orye1TxrDWp6dlslE0GvomNTDW13zDt_fX-gPjG3QgXxHvqOBDf9OxhRK6dvOQCs8mPFAvNeKuB_c2QUCmp9kcufWziacMk_V3BsDzdLhO8UbacUCo8And4cpfXKEw5dsYeh5sW_XqT01vGF_4ORIGfIwf2PblaITMfIbExBdecmvWgz4Ie6HEZTOoPysRkcKo4sqNEFbnzzOt35vYC7g75CjvwYbhRjMPQvLvhlUQM9DaAtmAVPbMQJ5d910McZ12q-vaC1O5Kxesd2m8rFwyUgoDK2dPdwPUWCPbdf6ffhGCcg482hhaXOpSCrB0zoMeKLb8ZQOvFMEt-7Vexii6HfUTQcbtslxT5eydiR777H5rtTeTzJvI1Mi95EmmluTF1FLR8xGswE3PdK0CKtYc6HA6H7sdJwvCspwsT5lRgifhbuVxFBgAz2FLHRxiiQxJXxoecV7NQNJFzF3yD8xL9OEuM4rnSXzUNfyQu3qUP_0K0?></g></svg>