<?plantuml 1.2026.2?>
<svg xmlns="http://www.w3.org/2000/svg" contentStyleType="text/css" data-diagram-type="SEQUENCE" height="1001px"
     preserveAspectRatio="none" style="width:1586px;height:1001px;background:#0E1117;" version="1.1"
     viewBox="0 0 1586 1001" width="1586.6667px" zoomAndPan="magnify"><title>Get customer details - Sequence</title><defs/><g><rect fill="#0E1117" height="1001" style="stroke:none;stroke-width:1.1667;" width="1586.6667" x="0" y="0"/><text fill="#C9D1D9" font-family="sans-serif" font-size="16.3333" font-weight="bold" lengthAdjust="spacing" textLength="253.2464" x="668.3781" y="33.9211">Get customer details - Sequence</text><rect fill="none" height="645.9819" rx="7" ry="7" style="stroke:#30363D;stroke-width:1.75;" width="1567.8359" x="11.6667" y="238.1812"/><rect fill="none" height="444.0232" rx="7" ry="7" style="stroke:#30363D;stroke-width:1.75;" width="1544.5026" x="23.3333" y="379.0037"/><g class="participant-lifeline" data-entity-uid="part1" data-qualified-name="User" id="part1-lifeline"><g><title>User</title><rect fill="#000000" fill-opacity="0.00000" height="762.4765" width="9.3333" x="62.4167" y="141.5199"/><line style="stroke:#30363D;stroke-width:0.5833;stroke-dasharray:5.8333,5.8333;" x1="66.5" x2="66.5" y1="141.5199" y2="903.9963"/></g></g><g class="participant-lifeline" data-entity-uid="part2" data-qualified-name="Application" id="part2-lifeline"><g><title>Application</title><rect fill="#000000" fill-opacity="0.00000" height="762.4765" width="9.3333" x="307.9647" y="141.5199"/><line style="stroke:#30363D;stroke-width:0.5833;stroke-dasharray:5.8333,5.8333;" x1="312.3459" x2="312.3459" y1="141.5199" y2="903.9963"/></g></g><g class="participant-lifeline" data-entity-uid="part3" data-qualified-name="CustomerRestControllerV1" id="part3-lifeline"><g><title>CustomerRestControllerV1</title><rect fill="#000000" fill-opacity="0.00000" height="762.4765" width="9.3333" x="553.5127" y="141.5199"/><line style="stroke:#30363D;stroke-width:0.5833;stroke-dasharray:5.8333,5.8333;" x1="557.4314" x2="557.4314" y1="141.5199" y2="903.9963"/></g></g><g class="participant-lifeline" data-entity-uid="part4" data-qualified-name="CustomerServiceV1" id="part4-lifeline"><g><title>CustomerServiceV1</title><rect fill="#000000" fill-opacity="0.00000" height="762.4765" width="9.3333" x="742.3794" y="141.5199"/><line style="stroke:#30363D;stroke-width:0.5833;stroke-dasharray:5.8333,5.8333;" x1="746.7607" x2="746.7607" y1="141.5199" y2="903.9963"/></g></g><g class="participant-lifeline" data-entity-uid="part5" data-qualified-name="CustomersDatabase" id="part5-lifeline"><g><title>CustomersDatabase</title><rect fill="#000000" fill-opacity="0.00000" height="762.4765" width="9.3333" x="948.6925" y="141.5199"/><line style="stroke:#30363D;stroke-width:0.5833;stroke-dasharray:5.8333,5.8333;" x1="952.4181" x2="952.4181" y1="141.5199" y2="903.9963"/></g></g><g class="participant-lifeline" data-entity-uid="part6" data-qualified-name="CustomerRestControllerV1LoggingAspect" id="part6-lifeline"><g><title>CustomerRestControllerV1LoggingAspect</title><rect fill="#000000" fill-opacity="0.00000" height="762.4765" width="9.3333" x="1193.414" y="141.5199"/><line style="stroke:#30363D;stroke-width:0.5833;stroke-dasharray:5.8333,5.8333;" x1="1196.967" x2="1196.967" y1="141.5199" y2="903.9963"/></g></g><g class="participant-lifeline" data-entity-uid="part7" data-qualified-name="GlobalExceptionsHandler" id="part7-lifeline"><g><title>GlobalExceptionsHandler</title><rect fill="#000000" fill-opacity="0.00000" height="762.4765" width="9.3333" x="1455.8485" y="141.5199"/><line style="stroke:#30363D;stroke-width:0.5833;stroke-dasharray:5.8333,5.8333;" x1="1459.361" x2="1459.361" y1="141.5199" y2="903.9963"/></g></g><g class="participant participant-head" data-entity-uid="part1" data-qualified-name="User" id="part1-head"><text fill="#C9D1D9" font-family="sans-serif" font-size="16.3333" lengthAdjust="spacing" textLength="34.485" x="46.3408" y="137.931">User</text><ellipse cx="67.0833" cy="69.5933" fill="#0D1117" rx="18.6667" ry="18.6667" style="stroke:#58A6FF;stroke-width:0.5833;"/><path d="M67.0833,92.9266 C71.75,92.9266 75.25,92.9266 79.9167,88.2599 C89.25,88.2599 98.5833,97.5933 98.5833,106.9266 L98.5833,111.5933 C98.5833,116.2599 93.9167,120.9266 89.25,120.9266 L44.9167,120.9266 C40.25,120.9266 35.5833,116.2599 35.5833,111.5933 L35.5833,106.9266 C35.5833,97.5933 44.9167,88.2599 54.25,88.2599 C58.9167,92.9266 62.4167,92.9266 67.0833,92.9266" fill="#0D1117" style="stroke:#58A6FF;stroke-width:0.5833;"/></g><g class="participant participant-tail" data-entity-uid="part1" data-qualified-name="User" id="part1-tail"><text fill="#C9D1D9" font-family="sans-serif" font-size="16.3333" lengthAdjust="spacing" textLength="34.485" x="46.3408" y="919.2507">User</text><ellipse cx="67.0833" cy="942.0896" fill="#0D1117" rx="18.6667" ry="18.6667" style="stroke:#58A6FF;stroke-width:0.5833;"/><path d="M67.0833,965.4229 C71.75,965.4229 75.25,965.4229 79.9167,960.7563 C89.25,960.7563 98.5833,970.0896 98.5833,979.4229 L98.5833,984.0896 C98.5833,988.7563 93.9167,993.4229 89.25,993.4229 L44.9167,993.4229 C40.25,993.4229 35.5833,988.7563 35.5833,984.0896 L35.5833,979.4229 C35.5833,970.0896 44.9167,960.7563 54.25,960.7563 C58.9167,965.4229 62.4167,965.4229 67.0833,965.4229" fill="#0D1117" style="stroke:#58A6FF;stroke-width:0.5833;"/></g><g class="participant participant-head" data-entity-uid="part2" data-qualified-name="Application" id="part2-head"><text fill="#C9D1D9" font-family="sans-serif" font-size="16.3333" lengthAdjust="spacing" textLength="79.9041" x="269.1793" y="137.931">Application</text><path d="M288.7147,88.8433 L288.7147,116.8433 M288.7147,102.8433 L308.548,102.8433" fill="none" style="stroke:#58A6FF;stroke-width:0.5833;"/><ellipse cx="322.548" cy="102.8433" fill="#0D1117" rx="14" ry="14" style="stroke:#58A6FF;stroke-width:0.5833;"/></g><g class="participant participant-tail" data-entity-uid="part2" data-qualified-name="Application" id="part2-tail"><text fill="#C9D1D9" font-family="sans-serif" font-size="16.3333" lengthAdjust="spacing" textLength="79.9041" x="269.1793" y="919.2507">Application</text><path d="M288.7147,927.5063 L288.7147,955.5063 M288.7147,941.5063 L308.548,941.5063" fill="none" style="stroke:#58A6FF;stroke-width:0.5833;"/><ellipse cx="322.548" cy="941.5063" fill="#0D1117" rx="14" ry="14" style="stroke:#58A6FF;stroke-width:0.5833;"/></g><g class="participant participant-head" data-entity-uid="part3" data-qualified-name="CustomerRestControllerV1" id="part3-head"><text fill="#C9D1D9" font-family="sans-serif" font-size="16.3333" lengthAdjust="spacing" textLength="195.1626" x="457.0981" y="137.931">CustomerRestControllerV1</text><ellipse cx="558.1794" cy="102.8433" fill="#0D1117" rx="14" ry="14" style="stroke:#58A6FF;stroke-width:0.5833;"/><polygon fill="#58A6FF" points="553.5127,88.8433,560.5127,83.0099,558.1794,88.8433,560.5127,94.6766,553.5127,88.8433" style="stroke:#58A6FF;stroke-width:1.1667;"/></g><g class="participant participant-tail" data-entity-uid="part3" data-qualified-name="CustomerRestControllerV1" id="part3-tail"><text fill="#C9D1D9" font-family="sans-serif" font-size="16.3333" lengthAdjust="spacing" textLength="195.1626" x="457.0981" y="919.2507">CustomerRestControllerV1</text><ellipse cx="558.1794" cy="941.5063" fill="#0D1117" rx="14" ry="14" style="stroke:#58A6FF;stroke-width:0.5833;"/><polygon fill="#58A6FF" points="553.5127,927.5063,560.5127,921.6729,558.1794,927.5063,560.5127,933.3396,553.5127,927.5063" style="stroke:#58A6FF;stroke-width:1.1667;"/></g><g class="participant participant-head" data-entity-uid="part4" data-qualified-name="CustomerServiceV1" id="part4-head"><text fill="#C9D1D9" font-family="sans-serif" font-size="16.3333" lengthAdjust="spacing" textLength="145.2375" x="670.9273" y="137.931">CustomerServiceV1</text><ellipse cx="747.0461" cy="102.8433" fill="#0D1117" rx="14" ry="14" style="stroke:#58A6FF;stroke-width:0.5833;"/><polygon fill="#58A6FF" points="742.3794,88.8433,749.3794,83.0099,747.0461,88.8433,749.3794,94.6766,742.3794,88.8433" style="stroke:#58A6FF;stroke-width:1.1667;"/></g><g class="participant participant-tail" data-entity-uid="part4" data-qualified-name="CustomerServiceV1" id="part4-tail"><text fill="#C9D1D9" font-family="sans-serif" font-size="16.3333" lengthAdjust="spacing" textLength="145.2375" x="670.9273" y="919.2507">CustomerServiceV1</text><ellipse cx="747.0461" cy="941.5063" fill="#0D1117" rx="14" ry="14" style="stroke:#58A6FF;stroke-width:0.5833;"/><polygon fill="#58A6FF" points="742.3794,927.5063,749.3794,921.6729,747.0461,927.5063,749.3794,933.3396,742.3794,927.5063" style="stroke:#58A6FF;stroke-width:1.1667;"/></g><g class="participant participant-head" data-entity-uid="part5" data-qualified-name="CustomersDatabase" id="part5-head"><text fill="#C9D1D9" font-family="sans-serif" font-size="16.3333" lengthAdjust="spacing" textLength="148.8822" x="875.4181" y="137.931">CustomersDatabase</text><path d="M932.3592,79.5099 C932.3592,67.8433 953.3592,67.8433 953.3592,67.8433 C953.3592,67.8433 974.3592,67.8433 974.3592,79.5099 L974.3592,109.8433 C974.3592,121.5099 953.3592,121.5099 953.3592,121.5099 C953.3592,121.5099 932.3592,121.5099 932.3592,109.8433 L932.3592,79.5099" fill="#0D1117" style="stroke:#58A6FF;stroke-width:0.5833;"/><path d="M932.3592,79.5099 C932.3592,91.1766 953.3592,91.1766 953.3592,91.1766 C953.3592,91.1766 974.3592,91.1766 974.3592,79.5099" fill="none" style="stroke:#58A6FF;stroke-width:0.5833;"/></g><g class="participant participant-tail" data-entity-uid="part5" data-qualified-name="CustomersDatabase" id="part5-tail"><text fill="#C9D1D9" font-family="sans-serif" font-size="16.3333" lengthAdjust="spacing" textLength="148.8822" x="875.4181" y="919.2507">CustomersDatabase</text><path d="M932.3592,934.5063 C932.3592,922.8396 953.3592,922.8396 953.3592,922.8396 C953.3592,922.8396 974.3592,922.8396 974.3592,934.5063 L974.3592,964.8396 C974.3592,976.5063 953.3592,976.5063 953.3592,976.5063 C953.3592,976.5063 932.3592,976.5063 932.3592,964.8396 L932.3592,934.5063" fill="#0D1117" style="stroke:#58A6FF;stroke-width:0.5833;"/><path d="M932.3592,934.5063 C932.3592,946.1729 953.3592,946.1729 953.3592,946.1729 C953.3592,946.1729 974.3592,946.1729 974.3592,934.5063" fill="none" style="stroke:#58A6FF;stroke-width:0.5833;"/></g><g class="participant participant-head" data-entity-uid="part6" data-qualified-name="CustomerRestControllerV1LoggingAspect" id="part6-head"><text fill="#C9D1D9" font-family="sans-serif" font-size="16.3333" lengthAdjust="spacing" textLength="303.2274" x="1042.967" y="137.931">CustomerRestControllerV1LoggingAspect</text><ellipse cx="1198.0806" cy="102.8433" fill="#0D1117" rx="14" ry="14" style="stroke:#58A6FF;stroke-width:0.5833;"/><polygon fill="#58A6FF" points="1193.414,88.8433,1200.414,83.0099,1198.0806,88.8433,1200.414,94.6766,1193.414,88.8433" style="stroke:#58A6FF;stroke-width:1.1667;"/></g><g class="participant participant-tail" data-entity-uid="part6" data-qualified-name="CustomerRestControllerV1LoggingAspect" id="part6-tail"><text fill="#C9D1D9" font-family="sans-serif" font-size="16.3333" lengthAdjust="spacing" textLength="303.2274" x="1042.967" y="919.2507">CustomerRestControllerV1LoggingAspect</text><ellipse cx="1198.0806" cy="941.5063" fill="#0D1117" rx="14" ry="14" style="stroke:#58A6FF;stroke-width:0.5833;"/><polygon fill="#58A6FF" points="1193.414,927.5063,1200.414,921.6729,1198.0806,927.5063,1200.414,933.3396,1193.414,927.5063" style="stroke:#58A6FF;stroke-width:1.1667;"/></g><g class="participant participant-head" data-entity-uid="part7" data-qualified-name="GlobalExceptionsHandler" id="part7-head"><text fill="#C9D1D9" font-family="sans-serif" font-size="16.3333" lengthAdjust="spacing" textLength="184.3083" x="1364.861" y="137.931">GlobalExceptionsHandler</text><ellipse cx="1460.5151" cy="102.8433" fill="#0D1117" rx="14" ry="14" style="stroke:#58A6FF;stroke-width:0.5833;"/><polygon fill="#58A6FF" points="1455.8485,88.8433,1462.8485,83.0099,1460.5151,88.8433,1462.8485,94.6766,1455.8485,88.8433" style="stroke:#58A6FF;stroke-width:1.1667;"/></g><g class="participant participant-tail" data-entity-uid="part7" data-qualified-name="GlobalExceptionsHandler" id="part7-tail"><text fill="#C9D1D9" font-family="sans-serif" font-size="16.3333" lengthAdjust="spacing" textLength="184.3083" x="1364.861" y="919.2507">GlobalExceptionsHandler</text><ellipse cx="1460.5151" cy="941.5063" fill="#0D1117" rx="14" ry="14" style="stroke:#58A6FF;stroke-width:0.5833;"/><polygon fill="#58A6FF" points="1455.8485,927.5063,1462.8485,921.6729,1460.5151,927.5063,1462.8485,933.3396,1455.8485,927.5063" style="stroke:#58A6FF;stroke-width:1.1667;"/></g><g class="message" data-entity-1="part1" data-entity-2="part2" id="msg1"><polygon fill="#58A6FF" points="298.6313,174.1005,310.298,178.7672,298.6313,183.4338,303.298,178.7672" style="stroke:#58A6FF;stroke-width:1.1667;"/><line style="stroke:#58A6FF;stroke-width:1.1667;" x1="67.0833" x2="305.6313" y1="178.7672" y2="178.7672"/><text fill="#C9D1D9" font-family="sans-serif" font-size="15.1667" font-weight="bold" lengthAdjust="spacing" textLength="8.435" x="82.1571" y="173.1013">1</text><text fill="#C9D1D9" font-family="sans-serif" font-size="15.1667" lengthAdjust="spacing" textLength="202.2987" x="95.2588" y="173.1013">GET /api/v1/customers/details</text></g><path d="M317.3333,200.9338 L317.3333,216.1005 A7,7 0 0 0 324.3333,223.1005 L458.5,223.1005 A7,7 0 0 0 465.5,216.1005 L465.5,205.6005 L453.8333,193.9338 L324.3333,193.9338 A7,7 0 0 0 317.3333,200.9338" fill="#1C2330" style="stroke:#E7E7E7;stroke-width:0.5833;"/><path d="M453.8333,193.9338 L453.8333,202.1005 A3.5,3.5 0 0 0 457.3333,205.6005 L465.5,205.6005 L453.8333,193.9338" fill="#1C2330" style="stroke:#E7E7E7;stroke-width:0.5833;"/><text fill="#C9D1D9" font-family="sans-serif" font-size="15.1667" lengthAdjust="spacing" textLength="123.9401" x="324.3333" y="215.0153">authenticates user</text><path d="M18.6667,238.1812 L81.866,238.1812 L81.866,247.4285 L70.1994,259.0951 L11.6667,259.0951 L11.6667,245.1812 A7,7 0 0 1 18.6667,238.1812" fill="#161B22" style="stroke:#30363D;stroke-width:1.75;"/><rect fill="none" height="645.9819" rx="7" ry="7" style="stroke:#30363D;stroke-width:1.75;" width="1567.8359" x="11.6667" y="238.1812"/><text fill="#C9D1D9" font-family="sans-serif" font-size="15.1667" font-weight="bold" lengthAdjust="spacing" textLength="17.6994" x="29.1667" y="254.5959">alt</text><text fill="#C9D1D9" font-family="sans-serif" font-size="12.8333" font-weight="bold" lengthAdjust="spacing" textLength="124.0785" x="99.366" y="253.4167">[User authenticated]</text><g class="message" data-entity-1="part2" data-entity-2="part3" id="msg2"><polygon fill="#58A6FF" points="544.1794,280.0091,555.846,284.6758,544.1794,289.3424,548.846,284.6758" style="stroke:#58A6FF;stroke-width:1.1667;"/><line style="stroke:#58A6FF;stroke-width:1.1667;" x1="312.6313" x2="551.1794" y1="284.6758" y2="284.6758"/><text fill="#C9D1D9" font-family="sans-serif" font-size="15.1667" font-weight="bold" lengthAdjust="spacing" textLength="8.435" x="372.3572" y="279.0099">2</text><text fill="#C9D1D9" font-family="sans-serif" font-size="15.1667" lengthAdjust="spacing" textLength="112.9946" x="385.4589" y="279.0099">delegate request</text></g><path d="M1202.8333,306.8424 L1202.8333,322.0091 A7,7 0 0 0 1209.8333,329.0091 L1277.5,329.0091 A7,7 0 0 0 1284.5,322.0091 L1284.5,311.5091 L1272.8333,299.8424 L1209.8333,299.8424 A7,7 0 0 0 1202.8333,306.8424" fill="#1C2330" style="stroke:#E7E7E7;stroke-width:0.5833;"/><path d="M1272.8333,299.8424 L1272.8333,308.0091 A3.5,3.5 0 0 0 1276.3333,311.5091 L1284.5,311.5091 L1272.8333,299.8424" fill="#1C2330" style="stroke:#E7E7E7;stroke-width:0.5833;"/><text fill="#C9D1D9" font-family="sans-serif" font-size="15.1667" lengthAdjust="spacing" textLength="58.171" x="1209.8333" y="320.9239">log entry</text><g class="message" data-entity-1="part3" data-entity-2="part4" id="msg3"><polygon fill="#58A6FF" points="733.0461,356.8371,744.7127,361.5037,733.0461,366.1704,737.7127,361.5037" style="stroke:#58A6FF;stroke-width:1.1667;"/><line style="stroke:#58A6FF;stroke-width:1.1667;" x1="558.1794" x2="740.0461" y1="361.5037" y2="361.5037"/><text fill="#C9D1D9" font-family="sans-serif" font-size="15.1667" font-weight="bold" lengthAdjust="spacing" textLength="8.435" x="589.5646" y="355.8379">3</text><text fill="#C9D1D9" font-family="sans-serif" font-size="15.1667" lengthAdjust="spacing" textLength="112.9946" x="602.6662" y="355.8379">delegate request</text></g><path d="M30.3333,379.0037 L93.5327,379.0037 L93.5327,388.2511 L81.866,399.9177 L23.3333,399.9177 L23.3333,386.0037 A7,7 0 0 1 30.3333,379.0037" fill="#161B22" style="stroke:#30363D;stroke-width:1.75;"/><rect fill="none" height="444.0232" rx="7" ry="7" style="stroke:#30363D;stroke-width:1.75;" width="1544.5026" x="23.3333" y="379.0037"/><text fill="#C9D1D9" font-family="sans-serif" font-size="15.1667" font-weight="bold" lengthAdjust="spacing" textLength="17.6994" x="40.8333" y="395.4185">alt</text><text fill="#C9D1D9" font-family="sans-serif" font-size="12.8333" font-weight="bold" lengthAdjust="spacing" textLength="106.2698" x="111.0327" y="394.2393">[customer exists]</text><g class="message" data-entity-1="part4" data-entity-2="part5" id="msg4"><polygon fill="#58A6FF" points="939.3592,420.8317,951.0259,425.4984,939.3592,430.165,944.0259,425.4984" style="stroke:#58A6FF;stroke-width:1.1667;"/><line style="stroke:#58A6FF;stroke-width:1.1667;" x1="747.0461" x2="946.3592" y1="425.4984" y2="425.4984"/><text fill="#C9D1D9" font-family="sans-serif" font-size="15.1667" font-weight="bold" lengthAdjust="spacing" textLength="8.435" x="761.0461" y="419.8325">4</text><text fill="#C9D1D9" font-family="sans-serif" font-size="15.1667" lengthAdjust="spacing" textLength="165.2115" x="774.1477" y="419.8325">retrieve customer details</text></g><g class="message" data-entity-1="part5" data-entity-2="part4" id="msg5"><polygon fill="#58A6FF" points="759.8794,455.7457,748.2127,460.4124,759.8794,465.079,755.2127,460.4124" style="stroke:#58A6FF;stroke-width:1.1667;"/><line style="stroke:#58A6FF;stroke-width:1.1667;" x1="752.8794" x2="952.1925" y1="460.4124" y2="460.4124"/><text fill="#C9D1D9" font-family="sans-serif" font-size="15.1667" font-weight="bold" lengthAdjust="spacing" textLength="8.435" x="786.7583" y="454.7465">5</text><text fill="#C9D1D9" font-family="sans-serif" font-size="15.1667" lengthAdjust="spacing" textLength="113.787" x="799.8599" y="454.7465">returns customer</text></g><path d="M1202.8333,482.579 L1202.8333,497.7457 A7,7 0 0 0 1209.8333,504.7457 L1306.6667,504.7457 A7,7 0 0 0 1313.6667,497.7457 L1313.6667,487.2457 L1302,475.579 L1209.8333,475.579 A7,7 0 0 0 1202.8333,482.579" fill="#1C2330" style="stroke:#E7E7E7;stroke-width:0.5833;"/><path d="M1302,475.579 L1302,483.7457 A3.5,3.5 0 0 0 1305.5,487.2457 L1313.6667,487.2457 L1302,475.579" fill="#1C2330" style="stroke:#E7E7E7;stroke-width:0.5833;"/><text fill="#C9D1D9" font-family="sans-serif" font-size="15.1667" lengthAdjust="spacing" textLength="86.8455" x="1209.8333" y="496.6605">log response</text><g class="message" data-entity-1="part3" data-entity-2="part2" id="msg6"><polygon fill="#58A6FF" points="325.4647,532.5736,313.798,537.2403,325.4647,541.907,320.798,537.2403" style="stroke:#58A6FF;stroke-width:1.1667;"/><line style="stroke:#58A6FF;stroke-width:1.1667;" x1="318.4647" x2="557.0127" y1="537.2403" y2="537.2403"/><text fill="#C9D1D9" font-family="sans-serif" font-size="15.1667" font-weight="bold" lengthAdjust="spacing" textLength="8.435" x="326.6313" y="531.5745">6</text><text fill="#C9D1D9" font-family="sans-serif" font-size="15.1667" lengthAdjust="spacing" textLength="204.4464" x="339.733" y="531.5745">Http ok (200) + response body</text></g><g class="message" data-entity-1="part2" data-entity-2="part1" id="msg7"><polygon fill="#58A6FF" points="79.9167,567.4876,68.25,572.1543,79.9167,576.821,75.25,572.1543" style="stroke:#58A6FF;stroke-width:1.1667;"/><line style="stroke:#58A6FF;stroke-width:1.1667;" x1="72.9167" x2="311.4647" y1="572.1543" y2="572.1543"/><text fill="#C9D1D9" font-family="sans-serif" font-size="15.1667" font-weight="bold" lengthAdjust="spacing" textLength="8.435" x="81.0833" y="566.4884">7</text><text fill="#C9D1D9" font-family="sans-serif" font-size="15.1667" lengthAdjust="spacing" textLength="204.4464" x="94.185" y="566.4884">Http ok (200) + response body</text></g><line style="stroke:#30363D;stroke-width:1.1667;stroke-dasharray:2.3333,2.3333;" x1="23.3333" x2="1567.8359" y1="582.6543" y2="582.6543"/><text fill="#C9D1D9" font-family="sans-serif" font-size="12.8333" font-weight="bold" lengthAdjust="spacing" textLength="147.8152" x="29.1667" y="595.5566">[customer doesn't exist]</text><g class="message" data-entity-1="part4" data-entity-2="part6" id="msg8"><polygon fill="#58A6FF" points="1184.0806,620.457,1195.7473,625.1237,1184.0806,629.7904,1188.7473,625.1237" style="stroke:#58A6FF;stroke-width:1.1667;"/><line style="stroke:#58A6FF;stroke-width:1.1667;" x1="747.0461" x2="1191.0806" y1="625.1237" y2="625.1237"/><text fill="#C9D1D9" font-family="sans-serif" font-size="15.1667" font-weight="bold" lengthAdjust="spacing" textLength="8.435" x="912.8996" y="619.4578">8</text><text fill="#C9D1D9" font-family="sans-serif" font-size="15.1667" lengthAdjust="spacing" textLength="106.2259" x="926.0012" y="619.4578">throw exception</text></g><path d="M1202.8333,647.2904 L1202.8333,662.457 A7,7 0 0 0 1209.8333,669.457 L1276.3333,669.457 A7,7 0 0 0 1283.3333,662.457 L1283.3333,651.957 L1271.6667,640.2904 L1209.8333,640.2904 A7,7 0 0 0 1202.8333,647.2904" fill="#1C2330" style="stroke:#E7E7E7;stroke-width:0.5833;"/><path d="M1271.6667,640.2904 L1271.6667,648.457 A3.5,3.5 0 0 0 1275.1667,651.957 L1283.3333,651.957 L1271.6667,640.2904" fill="#1C2330" style="stroke:#E7E7E7;stroke-width:0.5833;"/><text fill="#C9D1D9" font-family="sans-serif" font-size="15.1667" lengthAdjust="spacing" textLength="56.4751" x="1209.8333" y="661.3718">log error</text><g class="message" data-entity-1="part6" data-entity-2="part7" id="msg9"><polygon fill="#58A6FF" points="1446.5151,697.285,1458.1818,701.9517,1446.5151,706.6183,1451.1818,701.9517" style="stroke:#58A6FF;stroke-width:1.1667;"/><line style="stroke:#58A6FF;stroke-width:1.1667;" x1="1198.0806" x2="1453.5151" y1="701.9517" y2="701.9517"/><text fill="#C9D1D9" font-family="sans-serif" font-size="15.1667" font-weight="bold" lengthAdjust="spacing" textLength="8.435" x="1260.366" y="696.2858">9</text><text fill="#C9D1D9" font-family="sans-serif" font-size="15.1667" lengthAdjust="spacing" textLength="124.7621" x="1273.4677" y="696.2858">re-throw exception</text></g><path d="M1465.3333,724.1183 L1465.3333,739.285 A7,7 0 0 0 1472.3333,746.285 L1538.8333,746.285 A7,7 0 0 0 1545.8333,739.285 L1545.8333,728.785 L1534.1667,717.1183 L1472.3333,717.1183 A7,7 0 0 0 1465.3333,724.1183" fill="#1C2330" style="stroke:#E7E7E7;stroke-width:0.5833;"/><path d="M1534.1667,717.1183 L1534.1667,725.285 A3.5,3.5 0 0 0 1537.6667,728.785 L1545.8333,728.785 L1534.1667,717.1183" fill="#1C2330" style="stroke:#E7E7E7;stroke-width:0.5833;"/><text fill="#C9D1D9" font-family="sans-serif" font-size="15.1667" lengthAdjust="spacing" textLength="56.4751" x="1472.3333" y="738.1998">log error</text><g class="message" data-entity-1="part3" data-entity-2="part2" id="msg10"><polygon fill="#58A6FF" points="325.4647,774.113,313.798,778.7796,325.4647,783.4463,320.798,778.7796" style="stroke:#58A6FF;stroke-width:1.1667;"/><line style="stroke:#58A6FF;stroke-width:1.1667;" x1="318.4647" x2="557.0127" y1="778.7796" y2="778.7796"/><text fill="#C9D1D9" font-family="sans-serif" font-size="15.1667" font-weight="bold" lengthAdjust="spacing" textLength="16.87" x="348.7593" y="773.1138">10</text><text fill="#C9D1D9" font-family="sans-serif" font-size="15.1667" lengthAdjust="spacing" textLength="151.7555" x="370.2959" y="773.1138">Http bad request (400)</text></g><g class="message" data-entity-1="part2" data-entity-2="part1" id="msg11"><polygon fill="#58A6FF" points="79.9167,809.0269,68.25,813.6936,79.9167,818.3603,75.25,813.6936" style="stroke:#58A6FF;stroke-width:1.1667;"/><line style="stroke:#58A6FF;stroke-width:1.1667;" x1="72.9167" x2="311.4647" y1="813.6936" y2="813.6936"/><text fill="#C9D1D9" font-family="sans-serif" font-size="15.1667" font-weight="bold" lengthAdjust="spacing" textLength="16.87" x="103.2113" y="808.0278">11</text><text fill="#C9D1D9" font-family="sans-serif" font-size="15.1667" lengthAdjust="spacing" textLength="151.7555" x="124.7479" y="808.0278">Http bad request (400)</text></g><line style="stroke:#30363D;stroke-width:1.1667;stroke-dasharray:2.3333,2.3333;" x1="11.6667" x2="1579.5026" y1="832.3603" y2="832.3603"/><text fill="#C9D1D9" font-family="sans-serif" font-size="12.8333" font-weight="bold" lengthAdjust="spacing" textLength="147.5959" x="17.5" y="845.2625">[User not authenticated]</text><g class="message" data-entity-1="part2" data-entity-2="part1" id="msg12"><polygon fill="#58A6FF" points="79.9167,870.163,68.25,874.8297,79.9167,879.4963,75.25,874.8297" style="stroke:#58A6FF;stroke-width:1.1667;"/><line style="stroke:#58A6FF;stroke-width:1.1667;" x1="72.9167" x2="311.4647" y1="874.8297" y2="874.8297"/><text fill="#C9D1D9" font-family="sans-serif" font-size="15.1667" font-weight="bold" lengthAdjust="spacing" textLength="16.87" x="111.6425" y="869.1638">12</text><text fill="#C9D1D9" font-family="sans-serif" font-size="15.1667" lengthAdjust="spacing" textLength="134.893" x="133.1792" y="869.1638">Http forbidden (403)</text></g><?plantuml-src hLLDRzim3BtxLn3OOIs68d6ofkiE0_BTGpSCQxUxR36EK5No9BbjCFI_Zt8TLqdiEXW6typ7n_T8YNB2IOGbEaWBw_Gz6k3ec90Mpk06VnUeKemYLZYjYli4JHJPEw5oPjWz92ozoumk59zggGsywy_ZEBu847RDk7uKAeCLanQ3I9cMQgEeOZm80ZmN48_wOHrRwO0_4S1Nj9PbE9OYKv2YSgG9O6oCVgnKd7yQZnOB-dajLdWj54wquMYgwB0_70rdONJVHJoA9uE19qsTDZl9DVLBwC3_hFGFCD5FpKLze2NhERHyw-UoqCfLcEdbB9vT1e3jR9R4b3VLQeEsk7s5VzEkeIVJmN3OtqU5PUSN_jj310uMv_uBucKBRzo6pXzxH4jdBmZESCKAwGux460cNXypcwO9DQ1QsXv0frJDQFastnRKJJTZZYNCujjyDQgRy3ipJgGYPygzpHa2ssYPRp_yj7Hzagf5CCvpALBcX5PH-k8JfjLU-87MLTubcb_n0U06pOD8aIAyibI7xDPa9-krpZ9Q5sERO-fgz5BgXCdvKugvrsQlcEBIxo8l7yw-XCBXCopdjz1ZkUWznBtjMhEzQgz5Yiub696j7UZLNYRjkJMj5Fy3BHI-EH6JhcpJJf3JNOQTP5BHPeg8EKhCc2_iBwDrPVgkagDQGbHIPq0opARaQAqPwAadqoIaPF4UwmS0duHrjlmVLdXb2QZhoHArGMS4Fk31Kt90zPhLefAe2gDipLGp_7lB3DgSZWuUY6dgtEwfk78k1tq79uD-_nG-r5IGQBwf-VOEGtbakdBBPAINCUYPHglUkvSf73U4BljkJOyZ4LRNvpyq4-cvDPsTtCqamIttk1pusN4gsocErzKouOJnxQs0auyqhcD6svo4YaTHETSIInQwjqV8kj8c4PoZyfp3quZu_W80?></g></svg>