<?plantuml 1.2026.2?>
<svg xmlns="http://www.w3.org/2000/svg" contentStyleType="text/css" data-diagram-type="SEQUENCE" height="966px"
     preserveAspectRatio="none" style="width:1622px;height:966px;background:#0E1117;" version="1.1"
     viewBox="0 0 1622 966" width="1622.8333px" zoomAndPan="magnify"><title>Restore default image - Sequence</title><defs/><g><rect fill="#0E1117" height="966" style="stroke:none;stroke-width:1.1667;" width="1622.8333" x="0" y="0"/><text fill="#C9D1D9" font-family="sans-serif" font-size="16.3333" font-weight="bold" lengthAdjust="spacing" textLength="262.3143" x="681.525" y="33.9211">Restore default image - Sequence</text><rect fill="none" height="611.0679" rx="7" ry="7" style="stroke:#30363D;stroke-width:1.75;" width="1603.1977" x="11.6667" y="238.1812"/><rect fill="none" height="409.1092" rx="7" ry="7" style="stroke:#30363D;stroke-width:1.75;" width="1579.8643" x="23.3333" y="379.0037"/><g class="participant-lifeline" data-entity-uid="part1" data-qualified-name="User" id="part1-lifeline"><g><title>User</title><rect fill="#000000" fill-opacity="0.00000" height="727.5625" width="9.3333" x="62.4167" y="141.5199"/><line style="stroke:#30363D;stroke-width:0.5833;stroke-dasharray:5.8333,5.8333;" x1="66.5" x2="66.5" y1="141.5199" y2="869.0824"/></g></g><g class="participant-lifeline" data-entity-uid="part2" data-qualified-name="Application" id="part2-lifeline"><g><title>Application</title><rect fill="#000000" fill-opacity="0.00000" height="727.5625" width="9.3333" x="353.8572" y="141.5199"/><line style="stroke:#30363D;stroke-width:0.5833;stroke-dasharray:5.8333,5.8333;" x1="358.2384" x2="358.2384" y1="141.5199" y2="869.0824"/></g></g><g class="participant-lifeline" data-entity-uid="part3" data-qualified-name="CustomerRestControllerV1" id="part3-lifeline"><g><title>CustomerRestControllerV1</title><rect fill="#000000" fill-opacity="0.00000" height="727.5625" width="9.3333" x="537.4425" y="141.5199"/><line style="stroke:#30363D;stroke-width:0.5833;stroke-dasharray:5.8333,5.8333;" x1="541.3612" x2="541.3612" y1="141.5199" y2="869.0824"/></g></g><g class="participant-lifeline" data-entity-uid="part4" data-qualified-name="CustomerServiceV1" id="part4-lifeline"><g><title>CustomerServiceV1</title><rect fill="#000000" fill-opacity="0.00000" height="727.5625" width="9.3333" x="726.3092" y="141.5199"/><line style="stroke:#30363D;stroke-width:0.5833;stroke-dasharray:5.8333,5.8333;" x1="730.6905" x2="730.6905" y1="141.5199" y2="869.0824"/></g></g><g class="participant-lifeline" data-entity-uid="part5" data-qualified-name="CustomersDatabase" id="part5-lifeline"><g><title>CustomersDatabase</title><rect fill="#000000" fill-opacity="0.00000" height="727.5625" width="9.3333" x="984.0543" y="141.5199"/><line style="stroke:#30363D;stroke-width:0.5833;stroke-dasharray:5.8333,5.8333;" x1="987.7799" x2="987.7799" y1="141.5199" y2="869.0824"/></g></g><g class="participant-lifeline" data-entity-uid="part6" data-qualified-name="CustomerRestControllerV1LoggingAspect" id="part6-lifeline"><g><title>CustomerRestControllerV1LoggingAspect</title><rect fill="#000000" fill-opacity="0.00000" height="727.5625" width="9.3333" x="1228.7757" y="141.5199"/><line style="stroke:#30363D;stroke-width:0.5833;stroke-dasharray:5.8333,5.8333;" x1="1232.3287" x2="1232.3287" y1="141.5199" y2="869.0824"/></g></g><g class="participant-lifeline" data-entity-uid="part7" data-qualified-name="GlobalExceptionsHandler" id="part7-lifeline"><g><title>GlobalExceptionsHandler</title><rect fill="#000000" fill-opacity="0.00000" height="727.5625" width="9.3333" x="1491.2102" y="141.5199"/><line style="stroke:#30363D;stroke-width:0.5833;stroke-dasharray:5.8333,5.8333;" x1="1494.7227" x2="1494.7227" y1="141.5199" y2="869.0824"/></g></g><g class="participant participant-head" data-entity-uid="part1" data-qualified-name="User" id="part1-head"><text fill="#C9D1D9" font-family="sans-serif" font-size="16.3333" lengthAdjust="spacing" textLength="34.485" x="46.3408" y="137.931">User</text><ellipse cx="67.0833" cy="69.5933" fill="#0D1117" rx="18.6667" ry="18.6667" style="stroke:#58A6FF;stroke-width:0.5833;"/><path d="M67.0833,92.9266 C71.75,92.9266 75.25,92.9266 79.9167,88.2599 C89.25,88.2599 98.5833,97.5933 98.5833,106.9266 L98.5833,111.5933 C98.5833,116.2599 93.9167,120.9266 89.25,120.9266 L44.9167,120.9266 C40.25,120.9266 35.5833,116.2599 35.5833,111.5933 L35.5833,106.9266 C35.5833,97.5933 44.9167,88.2599 54.25,88.2599 C58.9167,92.9266 62.4167,92.9266 67.0833,92.9266" fill="#0D1117" style="stroke:#58A6FF;stroke-width:0.5833;"/></g><g class="participant participant-tail" data-entity-uid="part1" data-qualified-name="User" id="part1-tail"><text fill="#C9D1D9" font-family="sans-serif" font-size="16.3333" lengthAdjust="spacing" textLength="34.485" x="46.3408" y="884.3368">User</text><ellipse cx="67.0833" cy="907.1756" fill="#0D1117" rx="18.6667" ry="18.6667" style="stroke:#58A6FF;stroke-width:0.5833;"/><path d="M67.0833,930.509 C71.75,930.509 75.25,930.509 79.9167,925.8423 C89.25,925.8423 98.5833,935.1756 98.5833,944.509 L98.5833,949.1756 C98.5833,953.8423 93.9167,958.509 89.25,958.509 L44.9167,958.509 C40.25,958.509 35.5833,953.8423 35.5833,949.1756 L35.5833,944.509 C35.5833,935.1756 44.9167,925.8423 54.25,925.8423 C58.9167,930.509 62.4167,930.509 67.0833,930.509" fill="#0D1117" style="stroke:#58A6FF;stroke-width:0.5833;"/></g><g class="participant participant-head" data-entity-uid="part2" data-qualified-name="Application" id="part2-head"><text fill="#C9D1D9" font-family="sans-serif" font-size="16.3333" lengthAdjust="spacing" textLength="79.9041" x="315.0718" y="137.931">Application</text><path d="M334.6072,88.8433 L334.6072,116.8433 M334.6072,102.8433 L354.4405,102.8433" fill="none" style="stroke:#58A6FF;stroke-width:0.5833;"/><ellipse cx="368.4405" cy="102.8433" fill="#0D1117" rx="14" ry="14" style="stroke:#58A6FF;stroke-width:0.5833;"/></g><g class="participant participant-tail" data-entity-uid="part2" data-qualified-name="Application" id="part2-tail"><text fill="#C9D1D9" font-family="sans-serif" font-size="16.3333" lengthAdjust="spacing" textLength="79.9041" x="315.0718" y="884.3368">Application</text><path d="M334.6072,892.5923 L334.6072,920.5923 M334.6072,906.5923 L354.4405,906.5923" fill="none" style="stroke:#58A6FF;stroke-width:0.5833;"/><ellipse cx="368.4405" cy="906.5923" fill="#0D1117" rx="14" ry="14" style="stroke:#58A6FF;stroke-width:0.5833;"/></g><g class="participant participant-head" data-entity-uid="part3" data-qualified-name="CustomerRestControllerV1" id="part3-head"><text fill="#C9D1D9" font-family="sans-serif" font-size="16.3333" lengthAdjust="spacing" textLength="195.1626" x="441.0279" y="137.931">CustomerRestControllerV1</text><ellipse cx="542.1092" cy="102.8433" fill="#0D1117" rx="14" ry="14" style="stroke:#58A6FF;stroke-width:0.5833;"/><polygon fill="#58A6FF" points="537.4425,88.8433,544.4425,83.0099,542.1092,88.8433,544.4425,94.6766,537.4425,88.8433" style="stroke:#58A6FF;stroke-width:1.1667;"/></g><g class="participant participant-tail" data-entity-uid="part3" data-qualified-name="CustomerRestControllerV1" id="part3-tail"><text fill="#C9D1D9" font-family="sans-serif" font-size="16.3333" lengthAdjust="spacing" textLength="195.1626" x="441.0279" y="884.3368">CustomerRestControllerV1</text><ellipse cx="542.1092" cy="906.5923" fill="#0D1117" rx="14" ry="14" style="stroke:#58A6FF;stroke-width:0.5833;"/><polygon fill="#58A6FF" points="537.4425,892.5923,544.4425,886.759,542.1092,892.5923,544.4425,898.4256,537.4425,892.5923" style="stroke:#58A6FF;stroke-width:1.1667;"/></g><g class="participant participant-head" data-entity-uid="part4" data-qualified-name="CustomerServiceV1" id="part4-head"><text fill="#C9D1D9" font-family="sans-serif" font-size="16.3333" lengthAdjust="spacing" textLength="145.2375" x="654.8572" y="137.931">CustomerServiceV1</text><ellipse cx="730.9759" cy="102.8433" fill="#0D1117" rx="14" ry="14" style="stroke:#58A6FF;stroke-width:0.5833;"/><polygon fill="#58A6FF" points="726.3092,88.8433,733.3092,83.0099,730.9759,88.8433,733.3092,94.6766,726.3092,88.8433" style="stroke:#58A6FF;stroke-width:1.1667;"/></g><g class="participant participant-tail" data-entity-uid="part4" data-qualified-name="CustomerServiceV1" id="part4-tail"><text fill="#C9D1D9" font-family="sans-serif" font-size="16.3333" lengthAdjust="spacing" textLength="145.2375" x="654.8572" y="884.3368">CustomerServiceV1</text><ellipse cx="730.9759" cy="906.5923" fill="#0D1117" rx="14" ry="14" style="stroke:#58A6FF;stroke-width:0.5833;"/><polygon fill="#58A6FF" points="726.3092,892.5923,733.3092,886.759,730.9759,892.5923,733.3092,898.4256,726.3092,892.5923" style="stroke:#58A6FF;stroke-width:1.1667;"/></g><g class="participant participant-head" data-entity-uid="part5" data-qualified-name="CustomersDatabase" id="part5-head"><text fill="#C9D1D9" font-family="sans-serif" font-size="16.3333" lengthAdjust="spacing" textLength="148.8822" x="910.7799" y="137.931">CustomersDatabase</text><path d="M967.7209,79.5099 C967.7209,67.8433 988.7209,67.8433 988.7209,67.8433 C988.7209,67.8433 1009.7209,67.8433 1009.7209,79.5099 L1009.7209,109.8433 C1009.7209,121.5099 988.7209,121.5099 988.7209,121.5099 C988.7209,121.5099 967.7209,121.5099 967.7209,109.8433 L967.7209,79.5099" fill="#0D1117" style="stroke:#58A6FF;stroke-width:0.5833;"/><path d="M967.7209,79.5099 C967.7209,91.1766 988.7209,91.1766 988.7209,91.1766 C988.7209,91.1766 1009.7209,91.1766 1009.7209,79.5099" fill="none" style="stroke:#58A6FF;stroke-width:0.5833;"/></g><g class="participant participant-tail" data-entity-uid="part5" data-qualified-name="CustomersDatabase" id="part5-tail"><text fill="#C9D1D9" font-family="sans-serif" font-size="16.3333" lengthAdjust="spacing" textLength="148.8822" x="910.7799" y="884.3368">CustomersDatabase</text><path d="M967.7209,899.5923 C967.7209,887.9256 988.7209,887.9256 988.7209,887.9256 C988.7209,887.9256 1009.7209,887.9256 1009.7209,899.5923 L1009.7209,929.9256 C1009.7209,941.5923 988.7209,941.5923 988.7209,941.5923 C988.7209,941.5923 967.7209,941.5923 967.7209,929.9256 L967.7209,899.5923" fill="#0D1117" style="stroke:#58A6FF;stroke-width:0.5833;"/><path d="M967.7209,899.5923 C967.7209,911.259 988.7209,911.259 988.7209,911.259 C988.7209,911.259 1009.7209,911.259 1009.7209,899.5923" fill="none" style="stroke:#58A6FF;stroke-width:0.5833;"/></g><g class="participant participant-head" data-entity-uid="part6" data-qualified-name="CustomerRestControllerV1LoggingAspect" id="part6-head"><text fill="#C9D1D9" font-family="sans-serif" font-size="16.3333" lengthAdjust="spacing" textLength="303.2274" x="1078.3287" y="137.931">CustomerRestControllerV1LoggingAspect</text><ellipse cx="1233.4424" cy="102.8433" fill="#0D1117" rx="14" ry="14" style="stroke:#58A6FF;stroke-width:0.5833;"/><polygon fill="#58A6FF" points="1228.7757,88.8433,1235.7757,83.0099,1233.4424,88.8433,1235.7757,94.6766,1228.7757,88.8433" style="stroke:#58A6FF;stroke-width:1.1667;"/></g><g class="participant participant-tail" data-entity-uid="part6" data-qualified-name="CustomerRestControllerV1LoggingAspect" id="part6-tail"><text fill="#C9D1D9" font-family="sans-serif" font-size="16.3333" lengthAdjust="spacing" textLength="303.2274" x="1078.3287" y="884.3368">CustomerRestControllerV1LoggingAspect</text><ellipse cx="1233.4424" cy="906.5923" fill="#0D1117" rx="14" ry="14" style="stroke:#58A6FF;stroke-width:0.5833;"/><polygon fill="#58A6FF" points="1228.7757,892.5923,1235.7757,886.759,1233.4424,892.5923,1235.7757,898.4256,1228.7757,892.5923" style="stroke:#58A6FF;stroke-width:1.1667;"/></g><g class="participant participant-head" data-entity-uid="part7" data-qualified-name="GlobalExceptionsHandler" id="part7-head"><text fill="#C9D1D9" font-family="sans-serif" font-size="16.3333" lengthAdjust="spacing" textLength="184.3083" x="1400.2227" y="137.931">GlobalExceptionsHandler</text><ellipse cx="1495.8769" cy="102.8433" fill="#0D1117" rx="14" ry="14" style="stroke:#58A6FF;stroke-width:0.5833;"/><polygon fill="#58A6FF" points="1491.2102,88.8433,1498.2102,83.0099,1495.8769,88.8433,1498.2102,94.6766,1491.2102,88.8433" style="stroke:#58A6FF;stroke-width:1.1667;"/></g><g class="participant participant-tail" data-entity-uid="part7" data-qualified-name="GlobalExceptionsHandler" id="part7-tail"><text fill="#C9D1D9" font-family="sans-serif" font-size="16.3333" lengthAdjust="spacing" textLength="184.3083" x="1400.2227" y="884.3368">GlobalExceptionsHandler</text><ellipse cx="1495.8769" cy="906.5923" fill="#0D1117" rx="14" ry="14" style="stroke:#58A6FF;stroke-width:0.5833;"/><polygon fill="#58A6FF" points="1491.2102,892.5923,1498.2102,886.759,1495.8769,892.5923,1498.2102,898.4256,1491.2102,892.5923" style="stroke:#58A6FF;stroke-width:1.1667;"/></g><g class="message" data-entity-1="part1" data-entity-2="part2" id="msg1"><polygon fill="#58A6FF" points="344.5238,174.1005,356.1905,178.7672,344.5238,183.4338,349.1905,178.7672" style="stroke:#58A6FF;stroke-width:1.1667;"/><line style="stroke:#58A6FF;stroke-width:1.1667;" x1="67.0833" x2="351.5238" y1="178.7672" y2="178.7672"/><text fill="#C9D1D9" font-family="sans-serif" font-size="15.1667" font-weight="bold" lengthAdjust="spacing" textLength="8.435" x="81.0833" y="173.1013">1</text><text fill="#C9D1D9" font-family="sans-serif" font-size="15.1667" lengthAdjust="spacing" textLength="250.3389" x="94.185" y="173.1013">PUT /api/v1/customers/image/restore</text></g><path d="M364,200.9338 L364,216.1005 A7,7 0 0 0 371,223.1005 L505.1667,223.1005 A7,7 0 0 0 512.1667,216.1005 L512.1667,205.6005 L500.5,193.9338 L371,193.9338 A7,7 0 0 0 364,200.9338" fill="#1C2330" style="stroke:#E7E7E7;stroke-width:0.5833;"/><path d="M500.5,193.9338 L500.5,202.1005 A3.5,3.5 0 0 0 504,205.6005 L512.1667,205.6005 L500.5,193.9338" fill="#1C2330" style="stroke:#E7E7E7;stroke-width:0.5833;"/><text fill="#C9D1D9" font-family="sans-serif" font-size="15.1667" lengthAdjust="spacing" textLength="123.9401" x="371" y="215.0153">authenticates user</text><path d="M18.6667,238.1812 L81.866,238.1812 L81.866,247.4285 L70.1994,259.0951 L11.6667,259.0951 L11.6667,245.1812 A7,7 0 0 1 18.6667,238.1812" fill="#161B22" style="stroke:#30363D;stroke-width:1.75;"/><rect fill="none" height="611.0679" rx="7" ry="7" style="stroke:#30363D;stroke-width:1.75;" width="1603.1977" x="11.6667" y="238.1812"/><text fill="#C9D1D9" font-family="sans-serif" font-size="15.1667" font-weight="bold" lengthAdjust="spacing" textLength="17.6994" x="29.1667" y="254.5959">alt</text><text fill="#C9D1D9" font-family="sans-serif" font-size="12.8333" font-weight="bold" lengthAdjust="spacing" textLength="124.0785" x="99.366" y="253.4167">[User authenticated]</text><g class="message" data-entity-1="part2" data-entity-2="part3" id="msg2"><polygon fill="#58A6FF" points="528.1092,280.0091,539.7759,284.6758,528.1092,289.3424,532.7759,284.6758" style="stroke:#58A6FF;stroke-width:1.1667;"/><line style="stroke:#58A6FF;stroke-width:1.1667;" x1="358.5238" x2="535.1092" y1="284.6758" y2="284.6758"/><text fill="#C9D1D9" font-family="sans-serif" font-size="15.1667" font-weight="bold" lengthAdjust="spacing" textLength="8.435" x="387.2684" y="279.0099">2</text><text fill="#C9D1D9" font-family="sans-serif" font-size="15.1667" lengthAdjust="spacing" textLength="112.9946" x="400.37" y="279.0099">delegate request</text></g><path d="M1239,306.8424 L1239,322.0091 A7,7 0 0 0 1246,329.0091 L1313.6667,329.0091 A7,7 0 0 0 1320.6667,322.0091 L1320.6667,311.5091 L1309,299.8424 L1246,299.8424 A7,7 0 0 0 1239,306.8424" fill="#1C2330" style="stroke:#E7E7E7;stroke-width:0.5833;"/><path d="M1309,299.8424 L1309,308.0091 A3.5,3.5 0 0 0 1312.5,311.5091 L1320.6667,311.5091 L1309,299.8424" fill="#1C2330" style="stroke:#E7E7E7;stroke-width:0.5833;"/><text fill="#C9D1D9" font-family="sans-serif" font-size="15.1667" lengthAdjust="spacing" textLength="58.171" x="1246" y="320.9239">log entry</text><g class="message" data-entity-1="part3" data-entity-2="part4" id="msg3"><polygon fill="#58A6FF" points="716.9759,356.8371,728.6426,361.5037,716.9759,366.1704,721.6426,361.5037" style="stroke:#58A6FF;stroke-width:1.1667;"/><line style="stroke:#58A6FF;stroke-width:1.1667;" x1="542.1092" x2="723.9759" y1="361.5037" y2="361.5037"/><text fill="#C9D1D9" font-family="sans-serif" font-size="15.1667" font-weight="bold" lengthAdjust="spacing" textLength="8.435" x="573.4944" y="355.8379">3</text><text fill="#C9D1D9" font-family="sans-serif" font-size="15.1667" lengthAdjust="spacing" textLength="112.9946" x="586.5961" y="355.8379">delegate request</text></g><path d="M30.3333,379.0037 L93.5327,379.0037 L93.5327,388.2511 L81.866,399.9177 L23.3333,399.9177 L23.3333,386.0037 A7,7 0 0 1 30.3333,379.0037" fill="#161B22" style="stroke:#30363D;stroke-width:1.75;"/><rect fill="none" height="409.1092" rx="7" ry="7" style="stroke:#30363D;stroke-width:1.75;" width="1579.8643" x="23.3333" y="379.0037"/><text fill="#C9D1D9" font-family="sans-serif" font-size="15.1667" font-weight="bold" lengthAdjust="spacing" textLength="17.6994" x="40.8333" y="395.4185">alt</text><text fill="#C9D1D9" font-family="sans-serif" font-size="12.8333" font-weight="bold" lengthAdjust="spacing" textLength="106.2698" x="111.0327" y="394.2393">[customer exists]</text><g class="message" data-entity-1="part4" data-entity-2="part5" id="msg4"><polygon fill="#58A6FF" points="974.7209,420.8317,986.3876,425.4984,974.7209,430.165,979.3876,425.4984" style="stroke:#58A6FF;stroke-width:1.1667;"/><line style="stroke:#58A6FF;stroke-width:1.1667;" x1="730.9759" x2="981.7209" y1="425.4984" y2="425.4984"/><text fill="#C9D1D9" font-family="sans-serif" font-size="15.1667" font-weight="bold" lengthAdjust="spacing" textLength="8.435" x="744.9759" y="419.8325">4</text><text fill="#C9D1D9" font-family="sans-serif" font-size="15.1667" lengthAdjust="spacing" textLength="216.6434" x="758.0776" y="419.8325">restores default customer image</text></g><path d="M1239,447.665 L1239,462.8317 A7,7 0 0 0 1246,469.8317 L1342.8333,469.8317 A7,7 0 0 0 1349.8333,462.8317 L1349.8333,452.3317 L1338.1667,440.665 L1246,440.665 A7,7 0 0 0 1239,447.665" fill="#1C2330" style="stroke:#E7E7E7;stroke-width:0.5833;"/><path d="M1338.1667,440.665 L1338.1667,448.8317 A3.5,3.5 0 0 0 1341.6667,452.3317 L1349.8333,452.3317 L1338.1667,440.665" fill="#1C2330" style="stroke:#E7E7E7;stroke-width:0.5833;"/><text fill="#C9D1D9" font-family="sans-serif" font-size="15.1667" lengthAdjust="spacing" textLength="86.8455" x="1246" y="461.7465">log response</text><g class="message" data-entity-1="part3" data-entity-2="part2" id="msg5"><polygon fill="#58A6FF" points="371.3572,497.6597,359.6905,502.3263,371.3572,506.993,366.6905,502.3263" style="stroke:#58A6FF;stroke-width:1.1667;"/><line style="stroke:#58A6FF;stroke-width:1.1667;" x1="364.3572" x2="540.9425" y1="502.3263" y2="502.3263"/><text fill="#C9D1D9" font-family="sans-serif" font-size="15.1667" font-weight="bold" lengthAdjust="spacing" textLength="8.435" x="372.5238" y="496.6605">5</text><text fill="#C9D1D9" font-family="sans-serif" font-size="15.1667" lengthAdjust="spacing" textLength="142.4837" x="385.6255" y="496.6605">Http no content (204)</text></g><g class="message" data-entity-1="part2" data-entity-2="part1" id="msg6"><polygon fill="#58A6FF" points="79.9167,532.5736,68.25,537.2403,79.9167,541.907,75.25,537.2403" style="stroke:#58A6FF;stroke-width:1.1667;"/><line style="stroke:#58A6FF;stroke-width:1.1667;" x1="72.9167" x2="357.3572" y1="537.2403" y2="537.2403"/><text fill="#C9D1D9" font-family="sans-serif" font-size="15.1667" font-weight="bold" lengthAdjust="spacing" textLength="8.435" x="135.0109" y="531.5745">6</text><text fill="#C9D1D9" font-family="sans-serif" font-size="15.1667" lengthAdjust="spacing" textLength="142.4837" x="148.1125" y="531.5745">Http no content (204)</text></g><line style="stroke:#30363D;stroke-width:1.1667;stroke-dasharray:2.3333,2.3333;" x1="23.3333" x2="1603.1977" y1="547.7403" y2="547.7403"/><text fill="#C9D1D9" font-family="sans-serif" font-size="12.8333" font-weight="bold" lengthAdjust="spacing" textLength="147.8152" x="29.1667" y="560.6426">[customer doesn't exist]</text><g class="message" data-entity-1="part4" data-entity-2="part6" id="msg7"><polygon fill="#58A6FF" points="1219.4424,585.5431,1231.109,590.2097,1219.4424,594.8764,1224.109,590.2097" style="stroke:#58A6FF;stroke-width:1.1667;"/><line style="stroke:#58A6FF;stroke-width:1.1667;" x1="730.9759" x2="1226.4424" y1="590.2097" y2="590.2097"/><text fill="#C9D1D9" font-family="sans-serif" font-size="15.1667" font-weight="bold" lengthAdjust="spacing" textLength="8.435" x="922.5454" y="584.5439">7</text><text fill="#C9D1D9" font-family="sans-serif" font-size="15.1667" lengthAdjust="spacing" textLength="106.2259" x="935.647" y="584.5439">throw exception</text></g><path d="M1239,612.3764 L1239,627.5431 A7,7 0 0 0 1246,634.5431 L1312.5,634.5431 A7,7 0 0 0 1319.5,627.5431 L1319.5,617.0431 L1307.8333,605.3764 L1246,605.3764 A7,7 0 0 0 1239,612.3764" fill="#1C2330" style="stroke:#E7E7E7;stroke-width:0.5833;"/><path d="M1307.8333,605.3764 L1307.8333,613.5431 A3.5,3.5 0 0 0 1311.3333,617.0431 L1319.5,617.0431 L1307.8333,605.3764" fill="#1C2330" style="stroke:#E7E7E7;stroke-width:0.5833;"/><text fill="#C9D1D9" font-family="sans-serif" font-size="15.1667" lengthAdjust="spacing" textLength="56.4751" x="1246" y="626.4578">log error</text><g class="message" data-entity-1="part6" data-entity-2="part7" id="msg8"><polygon fill="#58A6FF" points="1481.8769,662.371,1493.5435,667.0377,1481.8769,671.7043,1486.5435,667.0377" style="stroke:#58A6FF;stroke-width:1.1667;"/><line style="stroke:#58A6FF;stroke-width:1.1667;" x1="1233.4424" x2="1488.8769" y1="667.0377" y2="667.0377"/><text fill="#C9D1D9" font-family="sans-serif" font-size="15.1667" font-weight="bold" lengthAdjust="spacing" textLength="8.435" x="1295.7277" y="661.3718">8</text><text fill="#C9D1D9" font-family="sans-serif" font-size="15.1667" lengthAdjust="spacing" textLength="124.7621" x="1308.8294" y="661.3718">re-throw exception</text></g><path d="M1501.5,689.2043 L1501.5,704.371 A7,7 0 0 0 1508.5,711.371 L1575,711.371 A7,7 0 0 0 1582,704.371 L1582,693.871 L1570.3333,682.2043 L1508.5,682.2043 A7,7 0 0 0 1501.5,689.2043" fill="#1C2330" style="stroke:#E7E7E7;stroke-width:0.5833;"/><path d="M1570.3333,682.2043 L1570.3333,690.371 A3.5,3.5 0 0 0 1573.8333,693.871 L1582,693.871 L1570.3333,682.2043" fill="#1C2330" style="stroke:#E7E7E7;stroke-width:0.5833;"/><text fill="#C9D1D9" font-family="sans-serif" font-size="15.1667" lengthAdjust="spacing" textLength="56.4751" x="1508.5" y="703.2858">log error</text><g class="message" data-entity-1="part3" data-entity-2="part2" id="msg9"><polygon fill="#58A6FF" points="371.3572,739.199,359.6905,743.8656,371.3572,748.5323,366.6905,743.8656" style="stroke:#58A6FF;stroke-width:1.1667;"/><line style="stroke:#58A6FF;stroke-width:1.1667;" x1="364.3572" x2="540.9425" y1="743.8656" y2="743.8656"/><text fill="#C9D1D9" font-family="sans-serif" font-size="15.1667" font-weight="bold" lengthAdjust="spacing" textLength="8.435" x="376.3155" y="738.1998">9</text><text fill="#C9D1D9" font-family="sans-serif" font-size="15.1667" lengthAdjust="spacing" textLength="134.9004" x="389.4172" y="738.1998">Http not found (404)</text></g><g class="message" data-entity-1="part2" data-entity-2="part1" id="msg10"><polygon fill="#58A6FF" points="79.9167,774.113,68.25,778.7796,79.9167,783.4463,75.25,778.7796" style="stroke:#58A6FF;stroke-width:1.1667;"/><line style="stroke:#58A6FF;stroke-width:1.1667;" x1="72.9167" x2="357.3572" y1="778.7796" y2="778.7796"/><text fill="#C9D1D9" font-family="sans-serif" font-size="15.1667" font-weight="bold" lengthAdjust="spacing" textLength="16.87" x="134.5851" y="773.1138">10</text><text fill="#C9D1D9" font-family="sans-serif" font-size="15.1667" lengthAdjust="spacing" textLength="134.9004" x="156.1217" y="773.1138">Http not found (404)</text></g><line style="stroke:#30363D;stroke-width:1.1667;stroke-dasharray:2.3333,2.3333;" x1="11.6667" x2="1614.8643" y1="797.4463" y2="797.4463"/><text fill="#C9D1D9" font-family="sans-serif" font-size="12.8333" font-weight="bold" lengthAdjust="spacing" textLength="147.5959" x="17.5" y="810.3486">[User not authenticated]</text><g class="message" data-entity-1="part2" data-entity-2="part1" id="msg11"><polygon fill="#58A6FF" points="79.9167,835.249,68.25,839.9157,79.9167,844.5824,75.25,839.9157" style="stroke:#58A6FF;stroke-width:1.1667;"/><line style="stroke:#58A6FF;stroke-width:1.1667;" x1="72.9167" x2="357.3572" y1="839.9157" y2="839.9157"/><text fill="#C9D1D9" font-family="sans-serif" font-size="15.1667" font-weight="bold" lengthAdjust="spacing" textLength="16.87" x="134.5888" y="834.2498">11</text><text fill="#C9D1D9" font-family="sans-serif" font-size="15.1667" lengthAdjust="spacing" textLength="134.893" x="156.1254" y="834.2498">Http forbidden (403)</text></g><?plantuml-src hLLDRzim3BtxLn3OOUsXI9oqwRh3W7mqxQ4RYhNTNR4OHwWYUPBS3mpxxwKKnrKIkmc6mJVpyV4zKgASS1BX9rgd3GB7EIkb0x5aES89tE7l4bM6IS9AfrMvdA594lieLC4CMyACPO-vqQNYOosrWK_TopHDpoE4NJ2kduNAOSwanIWIqZ9j51f8Ur605mBIGJUkOoiTy2S1-8xMahoX5Bc239KZJG13O_HpfUBiot0mdTBF6p776w5mf0r7KqNxtVwWFucZsoxIGJhgzJnfHctPIAwfLw4T_vFW7s2aNvgB-a1Brj_OyhqVp5GhLs765vDqSX41rhEv8gQYgLORjCNjE_o7TWqz6VVw_UusAYvxUUw_BKJaO7hcloWUMdZdNka0icUqUXaVZydgAEvs8CACl3vcNficr81gQNi47LCre-N7V6lGVhe9Ssp6B7xCLwFs4zuouqGc2gRSnvmni8sM-VR3WwNhCwjQ1CEYa29ZJcYLP2kVC2vfEIpH-2LHUPTeVgKxW3iqJo93Yl3AKXsoQvDxMMzqdjEw6De2CrUZhwIUCNdvac7XjTbhfhZqkyZBXvDliN3u2hSFzz1XXUWyfPriBQ4Jjbh7h7PTekXqWX7vme6UR-NJjblGOl4_q4BfMvGmsekXMXpaTADX8vcqj5aZOeuIS-OB-ojfNKZVL79GOuXAwXn8XdaD7Aqr8ptrV9g411RlSTqlm1TXdGt_umhlB15rFL-YhXfiwzUaPWm3g0d_tJQH5tG8S4TRa_lDoLuxLr1by0UBkWT7lUxfSSspDSWmxhQSa8Jqfhtxungj-knMdJkiSVlikWKzQqHO7Vp_q3oaXzBixTnc9WbkkO5XtYU7gModE5nNwqGTpFqIWwFJWmUwcuAA9qcOQK1woDxR7dFEjPa9pb5vplvnGdnl?></g></svg>