<?plantuml 1.2026.2?>
<svg xmlns="http://www.w3.org/2000/svg" contentStyleType="text/css" data-diagram-type="SEQUENCE" height="590.3333px"
     preserveAspectRatio="none" style="width:1709px;height:590px;background:#0E1117;" version="1.1"
     viewBox="0 0 1709 590" width="1709.1667px" zoomAndPan="magnify"><title>Search customers - Sequence</title><defs/><g><rect fill="#0E1117" height="590.3333" style="stroke:none;stroke-width:1.1667;" width="1709.1667" x="0" y="0"/><text fill="#C9D1D9" font-family="sans-serif" font-size="16.3333" font-weight="bold" lengthAdjust="spacing" textLength="233.3003" x="740.2104" y="33.9211">Search customers - Sequence</text><g class="participant-lifeline" data-entity-uid="part1" data-qualified-name="User" id="part1-lifeline"><g><title>User</title><rect fill="#000000" fill-opacity="0.00000" height="351.5592" width="9.3333" x="33.25" y="141.5199"/><line style="stroke:#30363D;stroke-width:0.5833;stroke-dasharray:5.8333,5.8333;" x1="37.3333" x2="37.3333" y1="141.5199" y2="493.079"/></g></g><g class="participant-lifeline" data-entity-uid="part2" data-qualified-name="Application" id="part2-lifeline"><g><title>Application</title><rect fill="#000000" fill-opacity="0.00000" height="351.5592" width="9.3333" x="381.6322" y="141.5199"/><line style="stroke:#30363D;stroke-width:0.5833;stroke-dasharray:5.8333,5.8333;" x1="386.0134" x2="386.0134" y1="141.5199" y2="493.079"/></g></g><g class="participant-lifeline" data-entity-uid="part3" data-qualified-name="CustomerRestControllerV1" id="part3-lifeline"><g><title>CustomerRestControllerV1</title><rect fill="#000000" fill-opacity="0.00000" height="351.5592" width="9.3333" x="684.4847" y="141.5199"/><line style="stroke:#30363D;stroke-width:0.5833;stroke-dasharray:5.8333,5.8333;" x1="688.4034" x2="688.4034" y1="141.5199" y2="493.079"/></g></g><g class="participant-lifeline" data-entity-uid="part4" data-qualified-name="CustomerServiceV1" id="part4-lifeline"><g><title>CustomerServiceV1</title><rect fill="#000000" fill-opacity="0.00000" height="351.5592" width="9.3333" x="873.3514" y="141.5199"/><line style="stroke:#30363D;stroke-width:0.5833;stroke-dasharray:5.8333,5.8333;" x1="877.7327" x2="877.7327" y1="141.5199" y2="493.079"/></g></g><g class="participant-lifeline" data-entity-uid="part5" data-qualified-name="CustomersDatabase" id="part5-lifeline"><g><title>CustomersDatabase</title><rect fill="#000000" fill-opacity="0.00000" height="351.5592" width="9.3333" x="1101.5777" y="141.5199"/><line style="stroke:#30363D;stroke-width:0.5833;stroke-dasharray:5.8333,5.8333;" x1="1105.3033" x2="1105.3033" y1="141.5199" y2="493.079"/></g></g><g class="participant-lifeline" data-entity-uid="part6" data-qualified-name="CustomerRestControllerV1LoggingAspect" id="part6-lifeline"><g><title>CustomerRestControllerV1LoggingAspect</title><rect fill="#000000" fill-opacity="0.00000" height="351.5592" width="9.3333" x="1346.2992" y="141.5199"/><line style="stroke:#30363D;stroke-width:0.5833;stroke-dasharray:5.8333,5.8333;" x1="1349.8521" x2="1349.8521" y1="141.5199" y2="493.079"/></g></g><g class="participant-lifeline" data-entity-uid="part7" data-qualified-name="GlobalExceptionsHandler" id="part7-lifeline"><g><title>GlobalExceptionsHandler</title><rect fill="#000000" fill-opacity="0.00000" height="351.5592" width="9.3333" x="1608.7336" y="141.5199"/><line style="stroke:#30363D;stroke-width:0.5833;stroke-dasharray:5.8333,5.8333;" x1="1612.2462" x2="1612.2462" y1="141.5199" y2="493.079"/></g></g><g class="participant participant-head" data-entity-uid="part1" data-qualified-name="User" id="part1-head"><text fill="#C9D1D9" font-family="sans-serif" font-size="16.3333" lengthAdjust="spacing" textLength="34.485" x="17.1742" y="137.931">User</text><ellipse cx="37.9167" cy="69.5933" fill="#0D1117" rx="18.6667" ry="18.6667" style="stroke:#58A6FF;stroke-width:0.5833;"/><path d="M37.9167,92.9266 C42.5833,92.9266 46.0833,92.9266 50.75,88.2599 C60.0833,88.2599 69.4167,97.5933 69.4167,106.9266 L69.4167,111.5933 C69.4167,116.2599 64.75,120.9266 60.0833,120.9266 L15.75,120.9266 C11.0833,120.9266 6.4167,116.2599 6.4167,111.5933 L6.4167,106.9266 C6.4167,97.5933 15.75,88.2599 25.0833,88.2599 C29.75,92.9266 33.25,92.9266 37.9167,92.9266" fill="#0D1117" style="stroke:#58A6FF;stroke-width:0.5833;"/></g><g class="participant participant-tail" data-entity-uid="part1" data-qualified-name="User" id="part1-tail"><text fill="#C9D1D9" font-family="sans-serif" font-size="16.3333" lengthAdjust="spacing" textLength="34.485" x="17.1742" y="508.3334">User</text><ellipse cx="37.9167" cy="531.1723" fill="#0D1117" rx="18.6667" ry="18.6667" style="stroke:#58A6FF;stroke-width:0.5833;"/><path d="M37.9167,554.5056 C42.5833,554.5056 46.0833,554.5056 50.75,549.8389 C60.0833,549.8389 69.4167,559.1723 69.4167,568.5056 L69.4167,573.1723 C69.4167,577.8389 64.75,582.5056 60.0833,582.5056 L15.75,582.5056 C11.0833,582.5056 6.4167,577.8389 6.4167,573.1723 L6.4167,568.5056 C6.4167,559.1723 15.75,549.8389 25.0833,549.8389 C29.75,554.5056 33.25,554.5056 37.9167,554.5056" fill="#0D1117" style="stroke:#58A6FF;stroke-width:0.5833;"/></g><g class="participant participant-head" data-entity-uid="part2" data-qualified-name="Application" id="part2-head"><text fill="#C9D1D9" font-family="sans-serif" font-size="16.3333" lengthAdjust="spacing" textLength="79.9041" x="342.8468" y="137.931">Application</text><path d="M362.3822,88.8433 L362.3822,116.8433 M362.3822,102.8433 L382.2155,102.8433" fill="none" style="stroke:#58A6FF;stroke-width:0.5833;"/><ellipse cx="396.2155" cy="102.8433" fill="#0D1117" rx="14" ry="14" style="stroke:#58A6FF;stroke-width:0.5833;"/></g><g class="participant participant-tail" data-entity-uid="part2" data-qualified-name="Application" id="part2-tail"><text fill="#C9D1D9" font-family="sans-serif" font-size="16.3333" lengthAdjust="spacing" textLength="79.9041" x="342.8468" y="508.3334">Application</text><path d="M362.3822,516.5889 L362.3822,544.5889 M362.3822,530.5889 L382.2155,530.5889" fill="none" style="stroke:#58A6FF;stroke-width:0.5833;"/><ellipse cx="396.2155" cy="530.5889" fill="#0D1117" rx="14" ry="14" style="stroke:#58A6FF;stroke-width:0.5833;"/></g><g class="participant participant-head" data-entity-uid="part3" data-qualified-name="CustomerRestControllerV1" id="part3-head"><text fill="#C9D1D9" font-family="sans-serif" font-size="16.3333" lengthAdjust="spacing" textLength="195.1626" x="588.0701" y="137.931">CustomerRestControllerV1</text><ellipse cx="689.1514" cy="102.8433" fill="#0D1117" rx="14" ry="14" style="stroke:#58A6FF;stroke-width:0.5833;"/><polygon fill="#58A6FF" points="684.4847,88.8433,691.4847,83.0099,689.1514,88.8433,691.4847,94.6766,684.4847,88.8433" style="stroke:#58A6FF;stroke-width:1.1667;"/></g><g class="participant participant-tail" data-entity-uid="part3" data-qualified-name="CustomerRestControllerV1" id="part3-tail"><text fill="#C9D1D9" font-family="sans-serif" font-size="16.3333" lengthAdjust="spacing" textLength="195.1626" x="588.0701" y="508.3334">CustomerRestControllerV1</text><ellipse cx="689.1514" cy="530.5889" fill="#0D1117" rx="14" ry="14" style="stroke:#58A6FF;stroke-width:0.5833;"/><polygon fill="#58A6FF" points="684.4847,516.5889,691.4847,510.7556,689.1514,516.5889,691.4847,522.4223,684.4847,516.5889" style="stroke:#58A6FF;stroke-width:1.1667;"/></g><g class="participant participant-head" data-entity-uid="part4" data-qualified-name="CustomerServiceV1" id="part4-head"><text fill="#C9D1D9" font-family="sans-serif" font-size="16.3333" lengthAdjust="spacing" textLength="145.2375" x="801.8993" y="137.931">CustomerServiceV1</text><ellipse cx="878.0181" cy="102.8433" fill="#0D1117" rx="14" ry="14" style="stroke:#58A6FF;stroke-width:0.5833;"/><polygon fill="#58A6FF" points="873.3514,88.8433,880.3514,83.0099,878.0181,88.8433,880.3514,94.6766,873.3514,88.8433" style="stroke:#58A6FF;stroke-width:1.1667;"/></g><g class="participant participant-tail" data-entity-uid="part4" data-qualified-name="CustomerServiceV1" id="part4-tail"><text fill="#C9D1D9" font-family="sans-serif" font-size="16.3333" lengthAdjust="spacing" textLength="145.2375" x="801.8993" y="508.3334">CustomerServiceV1</text><ellipse cx="878.0181" cy="530.5889" fill="#0D1117" rx="14" ry="14" style="stroke:#58A6FF;stroke-width:0.5833;"/><polygon fill="#58A6FF" points="873.3514,516.5889,880.3514,510.7556,878.0181,516.5889,880.3514,522.4223,873.3514,516.5889" style="stroke:#58A6FF;stroke-width:1.1667;"/></g><g class="participant participant-head" data-entity-uid="part5" data-qualified-name="CustomersDatabase" id="part5-head"><text fill="#C9D1D9" font-family="sans-serif" font-size="16.3333" lengthAdjust="spacing" textLength="148.8822" x="1028.3033" y="137.931">CustomersDatabase</text><path d="M1085.2444,79.5099 C1085.2444,67.8433 1106.2444,67.8433 1106.2444,67.8433 C1106.2444,67.8433 1127.2444,67.8433 1127.2444,79.5099 L1127.2444,109.8433 C1127.2444,121.5099 1106.2444,121.5099 1106.2444,121.5099 C1106.2444,121.5099 1085.2444,121.5099 1085.2444,109.8433 L1085.2444,79.5099" fill="#0D1117" style="stroke:#58A6FF;stroke-width:0.5833;"/><path d="M1085.2444,79.5099 C1085.2444,91.1766 1106.2444,91.1766 1106.2444,91.1766 C1106.2444,91.1766 1127.2444,91.1766 1127.2444,79.5099" fill="none" style="stroke:#58A6FF;stroke-width:0.5833;"/></g><g class="participant participant-tail" data-entity-uid="part5" data-qualified-name="CustomersDatabase" id="part5-tail"><text fill="#C9D1D9" font-family="sans-serif" font-size="16.3333" lengthAdjust="spacing" textLength="148.8822" x="1028.3033" y="508.3334">CustomersDatabase</text><path d="M1085.2444,523.5889 C1085.2444,511.9223 1106.2444,511.9223 1106.2444,511.9223 C1106.2444,511.9223 1127.2444,511.9223 1127.2444,523.5889 L1127.2444,553.9223 C1127.2444,565.5889 1106.2444,565.5889 1106.2444,565.5889 C1106.2444,565.5889 1085.2444,565.5889 1085.2444,553.9223 L1085.2444,523.5889" fill="#0D1117" style="stroke:#58A6FF;stroke-width:0.5833;"/><path d="M1085.2444,523.5889 C1085.2444,535.2556 1106.2444,535.2556 1106.2444,535.2556 C1106.2444,535.2556 1127.2444,535.2556 1127.2444,523.5889" fill="none" style="stroke:#58A6FF;stroke-width:0.5833;"/></g><g class="participant participant-head" data-entity-uid="part6" data-qualified-name="CustomerRestControllerV1LoggingAspect" id="part6-head"><text fill="#C9D1D9" font-family="sans-serif" font-size="16.3333" lengthAdjust="spacing" textLength="303.2274" x="1195.8521" y="137.931">CustomerRestControllerV1LoggingAspect</text><ellipse cx="1350.9658" cy="102.8433" fill="#0D1117" rx="14" ry="14" style="stroke:#58A6FF;stroke-width:0.5833;"/><polygon fill="#58A6FF" points="1346.2992,88.8433,1353.2992,83.0099,1350.9658,88.8433,1353.2992,94.6766,1346.2992,88.8433" style="stroke:#58A6FF;stroke-width:1.1667;"/></g><g class="participant participant-tail" data-entity-uid="part6" data-qualified-name="CustomerRestControllerV1LoggingAspect" id="part6-tail"><text fill="#C9D1D9" font-family="sans-serif" font-size="16.3333" lengthAdjust="spacing" textLength="303.2274" x="1195.8521" y="508.3334">CustomerRestControllerV1LoggingAspect</text><ellipse cx="1350.9658" cy="530.5889" fill="#0D1117" rx="14" ry="14" style="stroke:#58A6FF;stroke-width:0.5833;"/><polygon fill="#58A6FF" points="1346.2992,516.5889,1353.2992,510.7556,1350.9658,516.5889,1353.2992,522.4223,1346.2992,516.5889" style="stroke:#58A6FF;stroke-width:1.1667;"/></g><g class="participant participant-head" data-entity-uid="part7" data-qualified-name="GlobalExceptionsHandler" id="part7-head"><text fill="#C9D1D9" font-family="sans-serif" font-size="16.3333" lengthAdjust="spacing" textLength="184.3083" x="1517.7462" y="137.931">GlobalExceptionsHandler</text><ellipse cx="1613.4003" cy="102.8433" fill="#0D1117" rx="14" ry="14" style="stroke:#58A6FF;stroke-width:0.5833;"/><polygon fill="#58A6FF" points="1608.7336,88.8433,1615.7336,83.0099,1613.4003,88.8433,1615.7336,94.6766,1608.7336,88.8433" style="stroke:#58A6FF;stroke-width:1.1667;"/></g><g class="participant participant-tail" data-entity-uid="part7" data-qualified-name="GlobalExceptionsHandler" id="part7-tail"><text fill="#C9D1D9" font-family="sans-serif" font-size="16.3333" lengthAdjust="spacing" textLength="184.3083" x="1517.7462" y="508.3334">GlobalExceptionsHandler</text><ellipse cx="1613.4003" cy="530.5889" fill="#0D1117" rx="14" ry="14" style="stroke:#58A6FF;stroke-width:0.5833;"/><polygon fill="#58A6FF" points="1608.7336,516.5889,1615.7336,510.7556,1613.4003,516.5889,1615.7336,522.4223,1608.7336,516.5889" style="stroke:#58A6FF;stroke-width:1.1667;"/></g><g class="message" data-entity-1="part1" data-entity-2="part2" id="msg1"><polygon fill="#58A6FF" points="372.2988,174.1005,383.9655,178.7672,372.2988,183.4338,376.9655,178.7672" style="stroke:#58A6FF;stroke-width:1.1667;"/><line style="stroke:#58A6FF;stroke-width:1.1667;" x1="37.9167" x2="379.2988" y1="178.7672" y2="178.7672"/><text fill="#C9D1D9" font-family="sans-serif" font-size="15.1667" font-weight="bold" lengthAdjust="spacing" textLength="8.435" x="51.9167" y="173.1013">1</text><text fill="#C9D1D9" font-family="sans-serif" font-size="15.1667" lengthAdjust="spacing" textLength="307.2805" x="65.0183" y="173.1013">GET /api/v1/customers/search?query={query}</text></g><g class="message" data-entity-1="part2" data-entity-2="part3" id="msg2"><polygon fill="#58A6FF" points="675.1514,209.0145,686.818,213.6812,675.1514,218.3478,679.818,213.6812" style="stroke:#58A6FF;stroke-width:1.1667;"/><line style="stroke:#58A6FF;stroke-width:1.1667;" x1="386.2988" x2="682.1514" y1="213.6812" y2="213.6812"/><text fill="#C9D1D9" font-family="sans-serif" font-size="15.1667" font-weight="bold" lengthAdjust="spacing" textLength="8.435" x="474.677" y="208.0153">2</text><text fill="#C9D1D9" font-family="sans-serif" font-size="15.1667" lengthAdjust="spacing" textLength="112.9946" x="487.7786" y="208.0153">delegate request</text></g><path d="M1355.6667,235.8478 L1355.6667,251.0145 A7,7 0 0 0 1362.6667,258.0145 L1430.3333,258.0145 A7,7 0 0 0 1437.3333,251.0145 L1437.3333,240.5145 L1425.6667,228.8478 L1362.6667,228.8478 A7,7 0 0 0 1355.6667,235.8478" fill="#1C2330" style="stroke:#E7E7E7;stroke-width:0.5833;"/><path d="M1425.6667,228.8478 L1425.6667,237.0145 A3.5,3.5 0 0 0 1429.1667,240.5145 L1437.3333,240.5145 L1425.6667,228.8478" fill="#1C2330" style="stroke:#E7E7E7;stroke-width:0.5833;"/><text fill="#C9D1D9" font-family="sans-serif" font-size="15.1667" lengthAdjust="spacing" textLength="58.171" x="1362.6667" y="249.9293">log entry</text><g class="message" data-entity-1="part3" data-entity-2="part4" id="msg3"><polygon fill="#58A6FF" points="864.0181,285.8424,875.6847,290.5091,864.0181,295.1758,868.6847,290.5091" style="stroke:#58A6FF;stroke-width:1.1667;"/><line style="stroke:#58A6FF;stroke-width:1.1667;" x1="689.1514" x2="871.0181" y1="290.5091" y2="290.5091"/><text fill="#C9D1D9" font-family="sans-serif" font-size="15.1667" font-weight="bold" lengthAdjust="spacing" textLength="8.435" x="720.5366" y="284.8433">3</text><text fill="#C9D1D9" font-family="sans-serif" font-size="15.1667" lengthAdjust="spacing" textLength="112.9946" x="733.6382" y="284.8433">delegate request</text></g><g class="message" data-entity-1="part4" data-entity-2="part5" id="msg4"><polygon fill="#58A6FF" points="1092.2444,320.7564,1103.9111,325.4231,1092.2444,330.0898,1096.9111,325.4231" style="stroke:#58A6FF;stroke-width:1.1667;"/><line style="stroke:#58A6FF;stroke-width:1.1667;" x1="878.0181" x2="1099.2444" y1="325.4231" y2="325.4231"/><text fill="#C9D1D9" font-family="sans-serif" font-size="15.1667" font-weight="bold" lengthAdjust="spacing" textLength="8.435" x="892.0181" y="319.7572">4</text><text fill="#C9D1D9" font-family="sans-serif" font-size="15.1667" lengthAdjust="spacing" textLength="187.1247" x="905.1197" y="319.7572">retrieve customers by query</text></g><g class="message" data-entity-1="part5" data-entity-2="part4" id="msg5"><polygon fill="#58A6FF" points="890.8514,355.6704,879.1847,360.3371,890.8514,365.0037,886.1847,360.3371" style="stroke:#58A6FF;stroke-width:1.1667;"/><line style="stroke:#58A6FF;stroke-width:1.1667;" x1="883.8514" x2="1105.0777" y1="360.3371" y2="360.3371"/><text fill="#C9D1D9" font-family="sans-serif" font-size="15.1667" font-weight="bold" lengthAdjust="spacing" textLength="8.435" x="924.8952" y="354.6712">5</text><text fill="#C9D1D9" font-family="sans-serif" font-size="15.1667" lengthAdjust="spacing" textLength="121.3704" x="937.9969" y="354.6712">returns customers</text></g><path d="M1355.6667,382.5037 L1355.6667,397.6704 A7,7 0 0 0 1362.6667,404.6704 L1459.5,404.6704 A7,7 0 0 0 1466.5,397.6704 L1466.5,387.1704 L1454.8333,375.5037 L1362.6667,375.5037 A7,7 0 0 0 1355.6667,382.5037" fill="#1C2330" style="stroke:#E7E7E7;stroke-width:0.5833;"/><path d="M1454.8333,375.5037 L1454.8333,383.6704 A3.5,3.5 0 0 0 1458.3333,387.1704 L1466.5,387.1704 L1454.8333,375.5037" fill="#1C2330" style="stroke:#E7E7E7;stroke-width:0.5833;"/><text fill="#C9D1D9" font-family="sans-serif" font-size="15.1667" lengthAdjust="spacing" textLength="86.8455" x="1362.6667" y="396.5852">log response</text><g class="message" data-entity-1="part3" data-entity-2="part2" id="msg6"><polygon fill="#58A6FF" points="399.1322,432.4984,387.4655,437.165,399.1322,441.8317,394.4655,437.165" style="stroke:#58A6FF;stroke-width:1.1667;"/><line style="stroke:#58A6FF;stroke-width:1.1667;" x1="392.1322" x2="687.9847" y1="437.165" y2="437.165"/><text fill="#C9D1D9" font-family="sans-serif" font-size="15.1667" font-weight="bold" lengthAdjust="spacing" textLength="8.435" x="400.2988" y="431.4992">6</text><text fill="#C9D1D9" font-family="sans-serif" font-size="15.1667" lengthAdjust="spacing" textLength="261.7509" x="413.4005" y="431.4992">Http ok (200) + Customer profiles page</text></g><g class="message" data-entity-1="part2" data-entity-2="part1" id="msg7"><polygon fill="#58A6FF" points="50.75,467.4124,39.0833,472.079,50.75,476.7457,46.0833,472.079" style="stroke:#58A6FF;stroke-width:1.1667;"/><line style="stroke:#58A6FF;stroke-width:1.1667;" x1="43.75" x2="385.1322" y1="472.079" y2="472.079"/><text fill="#C9D1D9" font-family="sans-serif" font-size="15.1667" font-weight="bold" lengthAdjust="spacing" textLength="8.435" x="76.3663" y="466.4132">7</text><text fill="#C9D1D9" font-family="sans-serif" font-size="15.1667" lengthAdjust="spacing" textLength="258.3813" x="89.4679" y="466.4132">Http ok (200) + customer profiles page</text></g><?plantuml-src fLNVRzem47xFNt7INZPD5GHKkaxQ9dxtWKtJwFPkd2DO6DixEr1KzN-lauRKXGGcJNb0vBxxxhxlx8iJJYBCaH5V0S-iqnia2rV-rTyC5SSeOfdJAjiiaAB8heKoZDW65eolKzAPIePQQe9txN4SnpS1mgvOedT2fR1aqc8GATAu9eK4SIS894P0t6k7TMpP1pn60D_HMfPYNufK0KVbV4y0VIAzAxku_jJlJIR-vKmiSIOK3ZGbI6Mqs-xskgCmUgmYxiM3JYSdvKxJc-IA-YLqedzKw0SOw8VwedcW8Uifb7oVpsIYbIinmzjHFBeD08VPJ3sJgQlL16rG-mh_eLsD9yDEjzi-HeLbnpVvSuG854okyoU85nREtTwVFRP3wmzT41pXacNIdJeGO0PvVupsTHEgGJNO7a27lXffUPxl0BfCDsAEBPZ5ytmLwZBXJqPES66OSkSvGs0JBSljXz_MNvz5QH7qZP62CoUqYlYBJXYM2-4NMbTgbqX_uXF076ahEFf8KaggGlOWyYBhJAUfNnTzQv2x2ZsLUi7a-86ZoNkpTqmbCjz5UVjmzJLi73x3T7mFBMP4QnktgdtMiiM2--Rl0ks_F1O_Jr6Ow7cQslAa2KfCcKEW_3fP5qLAv_z4kdAWb_-coFD8dOBVMhIF6ei5ZLIcrdLm2WeoAyzz9g4ZWLiCjljY3uK5qIc-eRmdoKZPLux_C83G6Zz7FEl1sw7UEMT0h-5zfzt-01-hSc18BuL42yP_5eu7MXoGqsHUc_mC?></g></svg>