<?plantuml 1.2026.2?>
<svg xmlns="http://www.w3.org/2000/svg" contentStyleType="text/css" data-diagram-type="SEQUENCE" height="966px"
     preserveAspectRatio="none" style="width:1673px;height:966px;background:#0E1117;" version="1.1"
     viewBox="0 0 1673 966" width="1673px" zoomAndPan="magnify"><title>Update customer password - Sequence</title><defs/><g><rect fill="#0E1117" height="966" style="stroke:none;stroke-width:1.1667;" width="1673" x="0" y="0"/><text fill="#C9D1D9" font-family="sans-serif" font-size="16.3333" font-weight="bold" lengthAdjust="spacing" textLength="305.8752" x="684.8422" y="33.9211">Update customer password - Sequence</text><rect fill="none" height="611.0679" rx="7" ry="7" style="stroke:#30363D;stroke-width:1.75;" width="1653.3928" x="11.6667" y="238.1812"/><rect fill="none" height="409.1092" rx="7" ry="7" style="stroke:#30363D;stroke-width:1.75;" width="1630.0595" x="23.3333" y="379.0037"/><g class="participant-lifeline" data-entity-uid="part1" data-qualified-name="User" id="part1-lifeline"><g><title>User</title><rect fill="#000000" fill-opacity="0.00000" height="727.5625" width="9.3333" x="62.4167" y="141.5199"/><line style="stroke:#30363D;stroke-width:0.5833;stroke-dasharray:5.8333,5.8333;" x1="66.5" x2="66.5" y1="141.5199" y2="869.0824"/></g></g><g class="participant-lifeline" data-entity-uid="part2" data-qualified-name="Application" id="part2-lifeline"><g><title>Application</title><rect fill="#000000" fill-opacity="0.00000" height="727.5625" width="9.3333" x="431.0161" y="141.5199"/><line style="stroke:#30363D;stroke-width:0.5833;stroke-dasharray:5.8333,5.8333;" x1="435.3974" x2="435.3974" y1="141.5199" y2="869.0824"/></g></g><g class="participant-lifeline" data-entity-uid="part3" data-qualified-name="CustomerRestControllerV1" id="part3-lifeline"><g><title>CustomerRestControllerV1</title><rect fill="#000000" fill-opacity="0.00000" height="727.5625" width="9.3333" x="614.6015" y="141.5199"/><line style="stroke:#30363D;stroke-width:0.5833;stroke-dasharray:5.8333,5.8333;" x1="618.5202" x2="618.5202" y1="141.5199" y2="869.0824"/></g></g><g class="participant-lifeline" data-entity-uid="part4" data-qualified-name="CustomerServiceV1" id="part4-lifeline"><g><title>CustomerServiceV1</title><rect fill="#000000" fill-opacity="0.00000" height="727.5625" width="9.3333" x="803.4682" y="141.5199"/><line style="stroke:#30363D;stroke-width:0.5833;stroke-dasharray:5.8333,5.8333;" x1="807.8494" x2="807.8494" y1="141.5199" y2="869.0824"/></g></g><g class="participant-lifeline" data-entity-uid="part5" data-qualified-name="CustomersDatabase" id="part5-lifeline"><g><title>CustomersDatabase</title><rect fill="#000000" fill-opacity="0.00000" height="727.5625" width="9.3333" x="1034.2494" y="141.5199"/><line style="stroke:#30363D;stroke-width:0.5833;stroke-dasharray:5.8333,5.8333;" x1="1037.975" x2="1037.975" y1="141.5199" y2="869.0824"/></g></g><g class="participant-lifeline" data-entity-uid="part6" data-qualified-name="CustomerRestControllerV1LoggingAspect" id="part6-lifeline"><g><title>CustomerRestControllerV1LoggingAspect</title><rect fill="#000000" fill-opacity="0.00000" height="727.5625" width="9.3333" x="1278.9709" y="141.5199"/><line style="stroke:#30363D;stroke-width:0.5833;stroke-dasharray:5.8333,5.8333;" x1="1282.5238" x2="1282.5238" y1="141.5199" y2="869.0824"/></g></g><g class="participant-lifeline" data-entity-uid="part7" data-qualified-name="GlobalExceptionsHandler" id="part7-lifeline"><g><title>GlobalExceptionsHandler</title><rect fill="#000000" fill-opacity="0.00000" height="727.5625" width="9.3333" x="1541.4054" y="141.5199"/><line style="stroke:#30363D;stroke-width:0.5833;stroke-dasharray:5.8333,5.8333;" x1="1544.9179" x2="1544.9179" y1="141.5199" y2="869.0824"/></g></g><g class="participant participant-head" data-entity-uid="part1" data-qualified-name="User" id="part1-head"><text fill="#C9D1D9" font-family="sans-serif" font-size="16.3333" lengthAdjust="spacing" textLength="34.485" x="46.3408" y="137.931">User</text><ellipse cx="67.0833" cy="69.5933" fill="#0D1117" rx="18.6667" ry="18.6667" style="stroke:#58A6FF;stroke-width:0.5833;"/><path d="M67.0833,92.9266 C71.75,92.9266 75.25,92.9266 79.9167,88.2599 C89.25,88.2599 98.5833,97.5933 98.5833,106.9266 L98.5833,111.5933 C98.5833,116.2599 93.9167,120.9266 89.25,120.9266 L44.9167,120.9266 C40.25,120.9266 35.5833,116.2599 35.5833,111.5933 L35.5833,106.9266 C35.5833,97.5933 44.9167,88.2599 54.25,88.2599 C58.9167,92.9266 62.4167,92.9266 67.0833,92.9266" fill="#0D1117" style="stroke:#58A6FF;stroke-width:0.5833;"/></g><g class="participant participant-tail" data-entity-uid="part1" data-qualified-name="User" id="part1-tail"><text fill="#C9D1D9" font-family="sans-serif" font-size="16.3333" lengthAdjust="spacing" textLength="34.485" x="46.3408" y="884.3368">User</text><ellipse cx="67.0833" cy="907.1756" fill="#0D1117" rx="18.6667" ry="18.6667" style="stroke:#58A6FF;stroke-width:0.5833;"/><path d="M67.0833,930.509 C71.75,930.509 75.25,930.509 79.9167,925.8423 C89.25,925.8423 98.5833,935.1756 98.5833,944.509 L98.5833,949.1756 C98.5833,953.8423 93.9167,958.509 89.25,958.509 L44.9167,958.509 C40.25,958.509 35.5833,953.8423 35.5833,949.1756 L35.5833,944.509 C35.5833,935.1756 44.9167,925.8423 54.25,925.8423 C58.9167,930.509 62.4167,930.509 67.0833,930.509" fill="#0D1117" style="stroke:#58A6FF;stroke-width:0.5833;"/></g><g class="participant participant-head" data-entity-uid="part2" data-qualified-name="Application" id="part2-head"><text fill="#C9D1D9" font-family="sans-serif" font-size="16.3333" lengthAdjust="spacing" textLength="79.9041" x="392.2307" y="137.931">Application</text><path d="M411.7661,88.8433 L411.7661,116.8433 M411.7661,102.8433 L431.5994,102.8433" fill="none" style="stroke:#58A6FF;stroke-width:0.5833;"/><ellipse cx="445.5994" cy="102.8433" fill="#0D1117" rx="14" ry="14" style="stroke:#58A6FF;stroke-width:0.5833;"/></g><g class="participant participant-tail" data-entity-uid="part2" data-qualified-name="Application" id="part2-tail"><text fill="#C9D1D9" font-family="sans-serif" font-size="16.3333" lengthAdjust="spacing" textLength="79.9041" x="392.2307" y="884.3368">Application</text><path d="M411.7661,892.5923 L411.7661,920.5923 M411.7661,906.5923 L431.5994,906.5923" fill="none" style="stroke:#58A6FF;stroke-width:0.5833;"/><ellipse cx="445.5994" cy="906.5923" fill="#0D1117" rx="14" ry="14" style="stroke:#58A6FF;stroke-width:0.5833;"/></g><g class="participant participant-head" data-entity-uid="part3" data-qualified-name="CustomerRestControllerV1" id="part3-head"><text fill="#C9D1D9" font-family="sans-serif" font-size="16.3333" lengthAdjust="spacing" textLength="195.1626" x="518.1868" y="137.931">CustomerRestControllerV1</text><ellipse cx="619.2681" cy="102.8433" fill="#0D1117" rx="14" ry="14" style="stroke:#58A6FF;stroke-width:0.5833;"/><polygon fill="#58A6FF" points="614.6015,88.8433,621.6015,83.0099,619.2681,88.8433,621.6015,94.6766,614.6015,88.8433" style="stroke:#58A6FF;stroke-width:1.1667;"/></g><g class="participant participant-tail" data-entity-uid="part3" data-qualified-name="CustomerRestControllerV1" id="part3-tail"><text fill="#C9D1D9" font-family="sans-serif" font-size="16.3333" lengthAdjust="spacing" textLength="195.1626" x="518.1868" y="884.3368">CustomerRestControllerV1</text><ellipse cx="619.2681" cy="906.5923" fill="#0D1117" rx="14" ry="14" style="stroke:#58A6FF;stroke-width:0.5833;"/><polygon fill="#58A6FF" points="614.6015,892.5923,621.6015,886.759,619.2681,892.5923,621.6015,898.4256,614.6015,892.5923" style="stroke:#58A6FF;stroke-width:1.1667;"/></g><g class="participant participant-head" data-entity-uid="part4" data-qualified-name="CustomerServiceV1" id="part4-head"><text fill="#C9D1D9" font-family="sans-serif" font-size="16.3333" lengthAdjust="spacing" textLength="145.2375" x="732.0161" y="137.931">CustomerServiceV1</text><ellipse cx="808.1348" cy="102.8433" fill="#0D1117" rx="14" ry="14" style="stroke:#58A6FF;stroke-width:0.5833;"/><polygon fill="#58A6FF" points="803.4682,88.8433,810.4682,83.0099,808.1348,88.8433,810.4682,94.6766,803.4682,88.8433" style="stroke:#58A6FF;stroke-width:1.1667;"/></g><g class="participant participant-tail" data-entity-uid="part4" data-qualified-name="CustomerServiceV1" id="part4-tail"><text fill="#C9D1D9" font-family="sans-serif" font-size="16.3333" lengthAdjust="spacing" textLength="145.2375" x="732.0161" y="884.3368">CustomerServiceV1</text><ellipse cx="808.1348" cy="906.5923" fill="#0D1117" rx="14" ry="14" style="stroke:#58A6FF;stroke-width:0.5833;"/><polygon fill="#58A6FF" points="803.4682,892.5923,810.4682,886.759,808.1348,892.5923,810.4682,898.4256,803.4682,892.5923" style="stroke:#58A6FF;stroke-width:1.1667;"/></g><g class="participant participant-head" data-entity-uid="part5" data-qualified-name="CustomersDatabase" id="part5-head"><text fill="#C9D1D9" font-family="sans-serif" font-size="16.3333" lengthAdjust="spacing" textLength="148.8822" x="960.975" y="137.931">CustomersDatabase</text><path d="M1017.9161,79.5099 C1017.9161,67.8433 1038.9161,67.8433 1038.9161,67.8433 C1038.9161,67.8433 1059.9161,67.8433 1059.9161,79.5099 L1059.9161,109.8433 C1059.9161,121.5099 1038.9161,121.5099 1038.9161,121.5099 C1038.9161,121.5099 1017.9161,121.5099 1017.9161,109.8433 L1017.9161,79.5099" fill="#0D1117" style="stroke:#58A6FF;stroke-width:0.5833;"/><path d="M1017.9161,79.5099 C1017.9161,91.1766 1038.9161,91.1766 1038.9161,91.1766 C1038.9161,91.1766 1059.9161,91.1766 1059.9161,79.5099" fill="none" style="stroke:#58A6FF;stroke-width:0.5833;"/></g><g class="participant participant-tail" data-entity-uid="part5" data-qualified-name="CustomersDatabase" id="part5-tail"><text fill="#C9D1D9" font-family="sans-serif" font-size="16.3333" lengthAdjust="spacing" textLength="148.8822" x="960.975" y="884.3368">CustomersDatabase</text><path d="M1017.9161,899.5923 C1017.9161,887.9256 1038.9161,887.9256 1038.9161,887.9256 C1038.9161,887.9256 1059.9161,887.9256 1059.9161,899.5923 L1059.9161,929.9256 C1059.9161,941.5923 1038.9161,941.5923 1038.9161,941.5923 C1038.9161,941.5923 1017.9161,941.5923 1017.9161,929.9256 L1017.9161,899.5923" fill="#0D1117" style="stroke:#58A6FF;stroke-width:0.5833;"/><path d="M1017.9161,899.5923 C1017.9161,911.259 1038.9161,911.259 1038.9161,911.259 C1038.9161,911.259 1059.9161,911.259 1059.9161,899.5923" fill="none" style="stroke:#58A6FF;stroke-width:0.5833;"/></g><g class="participant participant-head" data-entity-uid="part6" data-qualified-name="CustomerRestControllerV1LoggingAspect" id="part6-head"><text fill="#C9D1D9" font-family="sans-serif" font-size="16.3333" lengthAdjust="spacing" textLength="303.2274" x="1128.5238" y="137.931">CustomerRestControllerV1LoggingAspect</text><ellipse cx="1283.6375" cy="102.8433" fill="#0D1117" rx="14" ry="14" style="stroke:#58A6FF;stroke-width:0.5833;"/><polygon fill="#58A6FF" points="1278.9709,88.8433,1285.9709,83.0099,1283.6375,88.8433,1285.9709,94.6766,1278.9709,88.8433" style="stroke:#58A6FF;stroke-width:1.1667;"/></g><g class="participant participant-tail" data-entity-uid="part6" data-qualified-name="CustomerRestControllerV1LoggingAspect" id="part6-tail"><text fill="#C9D1D9" font-family="sans-serif" font-size="16.3333" lengthAdjust="spacing" textLength="303.2274" x="1128.5238" y="884.3368">CustomerRestControllerV1LoggingAspect</text><ellipse cx="1283.6375" cy="906.5923" fill="#0D1117" rx="14" ry="14" style="stroke:#58A6FF;stroke-width:0.5833;"/><polygon fill="#58A6FF" points="1278.9709,892.5923,1285.9709,886.759,1283.6375,892.5923,1285.9709,898.4256,1278.9709,892.5923" style="stroke:#58A6FF;stroke-width:1.1667;"/></g><g class="participant participant-head" data-entity-uid="part7" data-qualified-name="GlobalExceptionsHandler" id="part7-head"><text fill="#C9D1D9" font-family="sans-serif" font-size="16.3333" lengthAdjust="spacing" textLength="184.3083" x="1450.4179" y="137.931">GlobalExceptionsHandler</text><ellipse cx="1546.072" cy="102.8433" fill="#0D1117" rx="14" ry="14" style="stroke:#58A6FF;stroke-width:0.5833;"/><polygon fill="#58A6FF" points="1541.4054,88.8433,1548.4054,83.0099,1546.072,88.8433,1548.4054,94.6766,1541.4054,88.8433" style="stroke:#58A6FF;stroke-width:1.1667;"/></g><g class="participant participant-tail" data-entity-uid="part7" data-qualified-name="GlobalExceptionsHandler" id="part7-tail"><text fill="#C9D1D9" font-family="sans-serif" font-size="16.3333" lengthAdjust="spacing" textLength="184.3083" x="1450.4179" y="884.3368">GlobalExceptionsHandler</text><ellipse cx="1546.072" cy="906.5923" fill="#0D1117" rx="14" ry="14" style="stroke:#58A6FF;stroke-width:0.5833;"/><polygon fill="#58A6FF" points="1541.4054,892.5923,1548.4054,886.759,1546.072,892.5923,1548.4054,898.4256,1541.4054,892.5923" style="stroke:#58A6FF;stroke-width:1.1667;"/></g><g class="message" data-entity-1="part1" data-entity-2="part2" id="msg1"><polygon fill="#58A6FF" points="421.6828,174.1005,433.3494,178.7672,421.6828,183.4338,426.3494,178.7672" style="stroke:#58A6FF;stroke-width:1.1667;"/><line style="stroke:#58A6FF;stroke-width:1.1667;" x1="67.0833" x2="428.6828" y1="178.7672" y2="178.7672"/><text fill="#C9D1D9" font-family="sans-serif" font-size="15.1667" font-weight="bold" lengthAdjust="spacing" textLength="8.435" x="81.0833" y="173.1013">1</text><text fill="#C9D1D9" font-family="sans-serif" font-size="15.1667" lengthAdjust="spacing" textLength="327.4978" x="94.185" y="173.1013">PUT /api/v1/customers/password + request body</text></g><path d="M441,200.9338 L441,216.1005 A7,7 0 0 0 448,223.1005 L582.1667,223.1005 A7,7 0 0 0 589.1667,216.1005 L589.1667,205.6005 L577.5,193.9338 L448,193.9338 A7,7 0 0 0 441,200.9338" fill="#1C2330" style="stroke:#E7E7E7;stroke-width:0.5833;"/><path d="M577.5,193.9338 L577.5,202.1005 A3.5,3.5 0 0 0 581,205.6005 L589.1667,205.6005 L577.5,193.9338" fill="#1C2330" style="stroke:#E7E7E7;stroke-width:0.5833;"/><text fill="#C9D1D9" font-family="sans-serif" font-size="15.1667" lengthAdjust="spacing" textLength="123.9401" x="448" y="215.0153">authenticates user</text><path d="M18.6667,238.1812 L81.866,238.1812 L81.866,247.4285 L70.1994,259.0951 L11.6667,259.0951 L11.6667,245.1812 A7,7 0 0 1 18.6667,238.1812" fill="#161B22" style="stroke:#30363D;stroke-width:1.75;"/><rect fill="none" height="611.0679" rx="7" ry="7" style="stroke:#30363D;stroke-width:1.75;" width="1653.3928" x="11.6667" y="238.1812"/><text fill="#C9D1D9" font-family="sans-serif" font-size="15.1667" font-weight="bold" lengthAdjust="spacing" textLength="17.6994" x="29.1667" y="254.5959">alt</text><text fill="#C9D1D9" font-family="sans-serif" font-size="12.8333" font-weight="bold" lengthAdjust="spacing" textLength="124.0785" x="99.366" y="253.4167">[User authenticated]</text><g class="message" data-entity-1="part2" data-entity-2="part3" id="msg2"><polygon fill="#58A6FF" points="605.2681,280.0091,616.9348,284.6758,605.2681,289.3424,609.9348,284.6758" style="stroke:#58A6FF;stroke-width:1.1667;"/><line style="stroke:#58A6FF;stroke-width:1.1667;" x1="435.6828" x2="612.2681" y1="284.6758" y2="284.6758"/><text fill="#C9D1D9" font-family="sans-serif" font-size="15.1667" font-weight="bold" lengthAdjust="spacing" textLength="8.435" x="464.4273" y="279.0099">2</text><text fill="#C9D1D9" font-family="sans-serif" font-size="15.1667" lengthAdjust="spacing" textLength="112.9946" x="477.529" y="279.0099">delegate request</text></g><path d="M1289.1667,306.8424 L1289.1667,322.0091 A7,7 0 0 0 1296.1667,329.0091 L1363.8333,329.0091 A7,7 0 0 0 1370.8333,322.0091 L1370.8333,311.5091 L1359.1667,299.8424 L1296.1667,299.8424 A7,7 0 0 0 1289.1667,306.8424" fill="#1C2330" style="stroke:#E7E7E7;stroke-width:0.5833;"/><path d="M1359.1667,299.8424 L1359.1667,308.0091 A3.5,3.5 0 0 0 1362.6667,311.5091 L1370.8333,311.5091 L1359.1667,299.8424" fill="#1C2330" style="stroke:#E7E7E7;stroke-width:0.5833;"/><text fill="#C9D1D9" font-family="sans-serif" font-size="15.1667" lengthAdjust="spacing" textLength="58.171" x="1296.1667" y="320.9239">log entry</text><g class="message" data-entity-1="part3" data-entity-2="part4" id="msg3"><polygon fill="#58A6FF" points="794.1348,356.8371,805.8015,361.5037,794.1348,366.1704,798.8015,361.5037" style="stroke:#58A6FF;stroke-width:1.1667;"/><line style="stroke:#58A6FF;stroke-width:1.1667;" x1="619.2681" x2="801.1348" y1="361.5037" y2="361.5037"/><text fill="#C9D1D9" font-family="sans-serif" font-size="15.1667" font-weight="bold" lengthAdjust="spacing" textLength="8.435" x="650.6534" y="355.8379">3</text><text fill="#C9D1D9" font-family="sans-serif" font-size="15.1667" lengthAdjust="spacing" textLength="112.9946" x="663.755" y="355.8379">delegate request</text></g><path d="M30.3333,379.0037 L93.5327,379.0037 L93.5327,388.2511 L81.866,399.9177 L23.3333,399.9177 L23.3333,386.0037 A7,7 0 0 1 30.3333,379.0037" fill="#161B22" style="stroke:#30363D;stroke-width:1.75;"/><rect fill="none" height="409.1092" rx="7" ry="7" style="stroke:#30363D;stroke-width:1.75;" width="1630.0595" x="23.3333" y="379.0037"/><text fill="#C9D1D9" font-family="sans-serif" font-size="15.1667" font-weight="bold" lengthAdjust="spacing" textLength="17.6994" x="40.8333" y="395.4185">alt</text><text fill="#C9D1D9" font-family="sans-serif" font-size="12.8333" font-weight="bold" lengthAdjust="spacing" textLength="106.2698" x="111.0327" y="394.2393">[customer exists]</text><g class="message" data-entity-1="part4" data-entity-2="part5" id="msg4"><polygon fill="#58A6FF" points="1024.9161,420.8317,1036.5828,425.4984,1024.9161,430.165,1029.5828,425.4984" style="stroke:#58A6FF;stroke-width:1.1667;"/><line style="stroke:#58A6FF;stroke-width:1.1667;" x1="808.1348" x2="1031.9161" y1="425.4984" y2="425.4984"/><text fill="#C9D1D9" font-family="sans-serif" font-size="15.1667" font-weight="bold" lengthAdjust="spacing" textLength="8.435" x="822.1348" y="419.8325">4</text><text fill="#C9D1D9" font-family="sans-serif" font-size="15.1667" lengthAdjust="spacing" textLength="189.6796" x="835.2365" y="419.8325">updates customer password</text></g><path d="M1289.1667,447.665 L1289.1667,462.8317 A7,7 0 0 0 1296.1667,469.8317 L1393,469.8317 A7,7 0 0 0 1400,462.8317 L1400,452.3317 L1388.3333,440.665 L1296.1667,440.665 A7,7 0 0 0 1289.1667,447.665" fill="#1C2330" style="stroke:#E7E7E7;stroke-width:0.5833;"/><path d="M1388.3333,440.665 L1388.3333,448.8317 A3.5,3.5 0 0 0 1391.8333,452.3317 L1400,452.3317 L1388.3333,440.665" fill="#1C2330" style="stroke:#E7E7E7;stroke-width:0.5833;"/><text fill="#C9D1D9" font-family="sans-serif" font-size="15.1667" lengthAdjust="spacing" textLength="86.8455" x="1296.1667" y="461.7465">log response</text><g class="message" data-entity-1="part3" data-entity-2="part2" id="msg5"><polygon fill="#58A6FF" points="448.5161,497.6597,436.8494,502.3263,448.5161,506.993,443.8494,502.3263" style="stroke:#58A6FF;stroke-width:1.1667;"/><line style="stroke:#58A6FF;stroke-width:1.1667;" x1="441.5161" x2="618.1015" y1="502.3263" y2="502.3263"/><text fill="#C9D1D9" font-family="sans-serif" font-size="15.1667" font-weight="bold" lengthAdjust="spacing" textLength="8.435" x="449.6828" y="496.6605">5</text><text fill="#C9D1D9" font-family="sans-serif" font-size="15.1667" lengthAdjust="spacing" textLength="142.4837" x="462.7844" y="496.6605">Http no content (204)</text></g><g class="message" data-entity-1="part2" data-entity-2="part1" id="msg6"><polygon fill="#58A6FF" points="79.9167,532.5736,68.25,537.2403,79.9167,541.907,75.25,537.2403" style="stroke:#58A6FF;stroke-width:1.1667;"/><line style="stroke:#58A6FF;stroke-width:1.1667;" x1="72.9167" x2="434.5161" y1="537.2403" y2="537.2403"/><text fill="#C9D1D9" font-family="sans-serif" font-size="15.1667" font-weight="bold" lengthAdjust="spacing" textLength="8.435" x="173.5904" y="531.5745">6</text><text fill="#C9D1D9" font-family="sans-serif" font-size="15.1667" lengthAdjust="spacing" textLength="142.4837" x="186.692" y="531.5745">Http no content (204)</text></g><line style="stroke:#30363D;stroke-width:1.1667;stroke-dasharray:2.3333,2.3333;" x1="23.3333" x2="1653.3928" y1="547.7403" y2="547.7403"/><text fill="#C9D1D9" font-family="sans-serif" font-size="12.8333" font-weight="bold" lengthAdjust="spacing" textLength="147.8152" x="29.1667" y="560.6426">[customer doesn't exist]</text><g class="message" data-entity-1="part4" data-entity-2="part6" id="msg7"><polygon fill="#58A6FF" points="1269.6375,585.5431,1281.3042,590.2097,1269.6375,594.8764,1274.3042,590.2097" style="stroke:#58A6FF;stroke-width:1.1667;"/><line style="stroke:#58A6FF;stroke-width:1.1667;" x1="808.1348" x2="1276.6375" y1="590.2097" y2="590.2097"/><text fill="#C9D1D9" font-family="sans-serif" font-size="15.1667" font-weight="bold" lengthAdjust="spacing" textLength="8.435" x="986.2224" y="584.5439">7</text><text fill="#C9D1D9" font-family="sans-serif" font-size="15.1667" lengthAdjust="spacing" textLength="106.2259" x="999.3241" y="584.5439">throw exception</text></g><path d="M1289.1667,612.3764 L1289.1667,627.5431 A7,7 0 0 0 1296.1667,634.5431 L1362.6667,634.5431 A7,7 0 0 0 1369.6667,627.5431 L1369.6667,617.0431 L1358,605.3764 L1296.1667,605.3764 A7,7 0 0 0 1289.1667,612.3764" fill="#1C2330" style="stroke:#E7E7E7;stroke-width:0.5833;"/><path d="M1358,605.3764 L1358,613.5431 A3.5,3.5 0 0 0 1361.5,617.0431 L1369.6667,617.0431 L1358,605.3764" fill="#1C2330" style="stroke:#E7E7E7;stroke-width:0.5833;"/><text fill="#C9D1D9" font-family="sans-serif" font-size="15.1667" lengthAdjust="spacing" textLength="56.4751" x="1296.1667" y="626.4578">log error</text><g class="message" data-entity-1="part6" data-entity-2="part7" id="msg8"><polygon fill="#58A6FF" points="1532.072,662.371,1543.7387,667.0377,1532.072,671.7043,1536.7387,667.0377" style="stroke:#58A6FF;stroke-width:1.1667;"/><line style="stroke:#58A6FF;stroke-width:1.1667;" x1="1283.6375" x2="1539.072" y1="667.0377" y2="667.0377"/><text fill="#C9D1D9" font-family="sans-serif" font-size="15.1667" font-weight="bold" lengthAdjust="spacing" textLength="8.435" x="1345.9229" y="661.3718">8</text><text fill="#C9D1D9" font-family="sans-serif" font-size="15.1667" lengthAdjust="spacing" textLength="124.7621" x="1359.0245" y="661.3718">re-throw exception</text></g><path d="M1551.6667,689.2043 L1551.6667,704.371 A7,7 0 0 0 1558.6667,711.371 L1625.1667,711.371 A7,7 0 0 0 1632.1667,704.371 L1632.1667,693.871 L1620.5,682.2043 L1558.6667,682.2043 A7,7 0 0 0 1551.6667,689.2043" fill="#1C2330" style="stroke:#E7E7E7;stroke-width:0.5833;"/><path d="M1620.5,682.2043 L1620.5,690.371 A3.5,3.5 0 0 0 1624,693.871 L1632.1667,693.871 L1620.5,682.2043" fill="#1C2330" style="stroke:#E7E7E7;stroke-width:0.5833;"/><text fill="#C9D1D9" font-family="sans-serif" font-size="15.1667" lengthAdjust="spacing" textLength="56.4751" x="1558.6667" y="703.2858">log error</text><g class="message" data-entity-1="part3" data-entity-2="part2" id="msg9"><polygon fill="#58A6FF" points="448.5161,739.199,436.8494,743.8656,448.5161,748.5323,443.8494,743.8656" style="stroke:#58A6FF;stroke-width:1.1667;"/><line style="stroke:#58A6FF;stroke-width:1.1667;" x1="441.5161" x2="618.1015" y1="743.8656" y2="743.8656"/><text fill="#C9D1D9" font-family="sans-serif" font-size="15.1667" font-weight="bold" lengthAdjust="spacing" textLength="8.435" x="453.4744" y="738.1998">9</text><text fill="#C9D1D9" font-family="sans-serif" font-size="15.1667" lengthAdjust="spacing" textLength="134.9004" x="466.5761" y="738.1998">Http not found (404)</text></g><g class="message" data-entity-1="part2" data-entity-2="part1" id="msg10"><polygon fill="#58A6FF" points="79.9167,774.113,68.25,778.7796,79.9167,783.4463,75.25,778.7796" style="stroke:#58A6FF;stroke-width:1.1667;"/><line style="stroke:#58A6FF;stroke-width:1.1667;" x1="72.9167" x2="434.5161" y1="778.7796" y2="778.7796"/><text fill="#C9D1D9" font-family="sans-serif" font-size="15.1667" font-weight="bold" lengthAdjust="spacing" textLength="16.87" x="173.1646" y="773.1138">10</text><text fill="#C9D1D9" font-family="sans-serif" font-size="15.1667" lengthAdjust="spacing" textLength="134.9004" x="194.7012" y="773.1138">Http not found (404)</text></g><line style="stroke:#30363D;stroke-width:1.1667;stroke-dasharray:2.3333,2.3333;" x1="11.6667" x2="1665.0595" y1="797.4463" y2="797.4463"/><text fill="#C9D1D9" font-family="sans-serif" font-size="12.8333" font-weight="bold" lengthAdjust="spacing" textLength="147.5959" x="17.5" y="810.3486">[User not authenticated]</text><g class="message" data-entity-1="part2" data-entity-2="part1" id="msg11"><polygon fill="#58A6FF" points="79.9167,835.249,68.25,839.9157,79.9167,844.5824,75.25,839.9157" style="stroke:#58A6FF;stroke-width:1.1667;"/><line style="stroke:#58A6FF;stroke-width:1.1667;" x1="72.9167" x2="434.5161" y1="839.9157" y2="839.9157"/><text fill="#C9D1D9" font-family="sans-serif" font-size="15.1667" font-weight="bold" lengthAdjust="spacing" textLength="16.87" x="173.1683" y="834.2498">11</text><text fill="#C9D1D9" font-family="sans-serif" font-size="15.1667" lengthAdjust="spacing" textLength="134.893" x="194.7049" y="834.2498">Http forbidden (403)</text></g><?plantuml-src hLLDRzim3BtxLn3OOIs68d7IfkiE0_BHj8TkADPsTzbY7A6gv4boqs3OVn_bEAwIs4am3BwPZu_laHBbX9C8Jpbd3Y4jhDClQ21drYwquN063_YhG9LY5B72QLMy96YYo3uBbJF3NY1XwNDcTA7uM4jju4FtEexZom1XvuphXL0Pp9Yq64JAj5GRHINZNX3WkO1uq0ths4e7_8u0lg6rBCEX59c259KZJG13O_IYKd7nUJYOJkdddPZXdL0u8ZjegcY_sn_q9s5qsqKyY4UzdYTDdJORoJNrAhJZVrBw1nZfj-QYFj2IzIUq_EXdCzNALPZnrIIUN0M0zMnkY2blgjK6RN7x3l-kNKDFnhr-lxkD2ijUN_fl2n4uc5xuBuYNBNnmIpg3R86M3byGdE2C5TBjTY30ZBm-PfPD4sf0jRGzW8wfcj5oFzyQT9XkmXnBcCNzV3NgCE4zCqwa8cVAxUSCWMsqpBSVdYnTdwHg4GppN8gKEQ5LbAvymhXQ33_GkigxHFCptW4ye7aLALA4LvRga5sRFCXwfxECriNGvfYw6dqZTSBazLkAkTTcRvdYqkyYBn_EleR2uGlSFpr2X-MYynftrdlDTkh5zWcCln7MGQBvCb9qJi68REv0pxQOQE_DQSNu7sYXyCsAc7HbspQ2dEusR2IJgZQJHCnHOkRtRYMbJDzKSbIBY4hg34Y6MPOShJK3FVMaceIKBDvZ_IBWcx3Ebl_32kyi0NKzQQ8kofV5xZujDTM_6pPeSpe8kAEgoVVcJ6-Towao-CD5VOEJNlVyjERP6c4vwBQSCWdfNNkto3LQzT6jUdPSomxPTNDwseYmElp_eNb8ZwKvsBdDJ1BSSWk9rE3PSIhRAOxNrJfH1pE_oE3a_EY1xgQWub5KphH4UiZ1UnvophH91EUeF6V_D2A-lm00?></g></svg>