<?plantuml 1.2026.2?>
<svg xmlns="http://www.w3.org/2000/svg" contentStyleType="text/css" data-diagram-type="SEQUENCE" height="966px"
     preserveAspectRatio="none" style="width:1647px;height:966px;background:#0E1117;" version="1.1"
     viewBox="0 0 1647 966" width="1647.3333px" zoomAndPan="magnify"><title>Update customer image - Sequence</title><defs/><g><rect fill="#0E1117" height="966" style="stroke:none;stroke-width:1.1667;" width="1647.3333" x="0" y="0"/><text fill="#C9D1D9" font-family="sans-serif" font-size="16.3333" font-weight="bold" lengthAdjust="spacing" textLength="276.8372" x="686.7087" y="33.9211">Update customer image - Sequence</text><rect fill="none" height="611.0679" rx="7" ry="7" style="stroke:#30363D;stroke-width:1.75;" width="1628.0879" x="11.6667" y="238.1812"/><rect fill="none" height="409.1092" rx="7" ry="7" style="stroke:#30363D;stroke-width:1.75;" width="1604.7546" x="23.3333" y="379.0037"/><g class="participant-lifeline" data-entity-uid="part1" data-qualified-name="User" id="part1-lifeline"><g><title>User</title><rect fill="#000000" fill-opacity="0.00000" height="727.5625" width="9.3333" x="62.4167" y="141.5199"/><line style="stroke:#30363D;stroke-width:0.5833;stroke-dasharray:5.8333,5.8333;" x1="66.5" x2="66.5" y1="141.5199" y2="869.0824"/></g></g><g class="participant-lifeline" data-entity-uid="part2" data-qualified-name="Application" id="part2-lifeline"><g><title>Application</title><rect fill="#000000" fill-opacity="0.00000" height="727.5625" width="9.3333" x="429.3128" y="141.5199"/><line style="stroke:#30363D;stroke-width:0.5833;stroke-dasharray:5.8333,5.8333;" x1="433.6941" x2="433.6941" y1="141.5199" y2="869.0824"/></g></g><g class="participant-lifeline" data-entity-uid="part3" data-qualified-name="CustomerRestControllerV1" id="part3-lifeline"><g><title>CustomerRestControllerV1</title><rect fill="#000000" fill-opacity="0.00000" height="727.5625" width="9.3333" x="612.8982" y="141.5199"/><line style="stroke:#30363D;stroke-width:0.5833;stroke-dasharray:5.8333,5.8333;" x1="616.8169" x2="616.8169" y1="141.5199" y2="869.0824"/></g></g><g class="participant-lifeline" data-entity-uid="part4" data-qualified-name="CustomerServiceV1" id="part4-lifeline"><g><title>CustomerServiceV1</title><rect fill="#000000" fill-opacity="0.00000" height="727.5625" width="9.3333" x="801.7649" y="141.5199"/><line style="stroke:#30363D;stroke-width:0.5833;stroke-dasharray:5.8333,5.8333;" x1="806.1462" x2="806.1462" y1="141.5199" y2="869.0824"/></g></g><g class="participant-lifeline" data-entity-uid="part5" data-qualified-name="CustomersDatabase" id="part5-lifeline"><g><title>CustomersDatabase</title><rect fill="#000000" fill-opacity="0.00000" height="727.5625" width="9.3333" x="1008.9445" y="141.5199"/><line style="stroke:#30363D;stroke-width:0.5833;stroke-dasharray:5.8333,5.8333;" x1="1012.6701" x2="1012.6701" y1="141.5199" y2="869.0824"/></g></g><g class="participant-lifeline" data-entity-uid="part6" data-qualified-name="CustomerRestControllerV1LoggingAspect" id="part6-lifeline"><g><title>CustomerRestControllerV1LoggingAspect</title><rect fill="#000000" fill-opacity="0.00000" height="727.5625" width="9.3333" x="1253.6659" y="141.5199"/><line style="stroke:#30363D;stroke-width:0.5833;stroke-dasharray:5.8333,5.8333;" x1="1257.2189" x2="1257.2189" y1="141.5199" y2="869.0824"/></g></g><g class="participant-lifeline" data-entity-uid="part7" data-qualified-name="GlobalExceptionsHandler" id="part7-lifeline"><g><title>GlobalExceptionsHandler</title><rect fill="#000000" fill-opacity="0.00000" height="727.5625" width="9.3333" x="1516.1004" y="141.5199"/><line style="stroke:#30363D;stroke-width:0.5833;stroke-dasharray:5.8333,5.8333;" x1="1519.613" x2="1519.613" y1="141.5199" y2="869.0824"/></g></g><g class="participant participant-head" data-entity-uid="part1" data-qualified-name="User" id="part1-head"><text fill="#C9D1D9" font-family="sans-serif" font-size="16.3333" lengthAdjust="spacing" textLength="34.485" x="46.3408" y="137.931">User</text><ellipse cx="67.0833" cy="69.5933" fill="#0D1117" rx="18.6667" ry="18.6667" style="stroke:#58A6FF;stroke-width:0.5833;"/><path d="M67.0833,92.9266 C71.75,92.9266 75.25,92.9266 79.9167,88.2599 C89.25,88.2599 98.5833,97.5933 98.5833,106.9266 L98.5833,111.5933 C98.5833,116.2599 93.9167,120.9266 89.25,120.9266 L44.9167,120.9266 C40.25,120.9266 35.5833,116.2599 35.5833,111.5933 L35.5833,106.9266 C35.5833,97.5933 44.9167,88.2599 54.25,88.2599 C58.9167,92.9266 62.4167,92.9266 67.0833,92.9266" fill="#0D1117" style="stroke:#58A6FF;stroke-width:0.5833;"/></g><g class="participant participant-tail" data-entity-uid="part1" data-qualified-name="User" id="part1-tail"><text fill="#C9D1D9" font-family="sans-serif" font-size="16.3333" lengthAdjust="spacing" textLength="34.485" x="46.3408" y="884.3368">User</text><ellipse cx="67.0833" cy="907.1756" fill="#0D1117" rx="18.6667" ry="18.6667" style="stroke:#58A6FF;stroke-width:0.5833;"/><path d="M67.0833,930.509 C71.75,930.509 75.25,930.509 79.9167,925.8423 C89.25,925.8423 98.5833,935.1756 98.5833,944.509 L98.5833,949.1756 C98.5833,953.8423 93.9167,958.509 89.25,958.509 L44.9167,958.509 C40.25,958.509 35.5833,953.8423 35.5833,949.1756 L35.5833,944.509 C35.5833,935.1756 44.9167,925.8423 54.25,925.8423 C58.9167,930.509 62.4167,930.509 67.0833,930.509" fill="#0D1117" style="stroke:#58A6FF;stroke-width:0.5833;"/></g><g class="participant participant-head" data-entity-uid="part2" data-qualified-name="Application" id="part2-head"><text fill="#C9D1D9" font-family="sans-serif" font-size="16.3333" lengthAdjust="spacing" textLength="79.9041" x="390.5274" y="137.931">Application</text><path d="M410.0628,88.8433 L410.0628,116.8433 M410.0628,102.8433 L429.8962,102.8433" fill="none" style="stroke:#58A6FF;stroke-width:0.5833;"/><ellipse cx="443.8962" cy="102.8433" fill="#0D1117" rx="14" ry="14" style="stroke:#58A6FF;stroke-width:0.5833;"/></g><g class="participant participant-tail" data-entity-uid="part2" data-qualified-name="Application" id="part2-tail"><text fill="#C9D1D9" font-family="sans-serif" font-size="16.3333" lengthAdjust="spacing" textLength="79.9041" x="390.5274" y="884.3368">Application</text><path d="M410.0628,892.5923 L410.0628,920.5923 M410.0628,906.5923 L429.8962,906.5923" fill="none" style="stroke:#58A6FF;stroke-width:0.5833;"/><ellipse cx="443.8962" cy="906.5923" fill="#0D1117" rx="14" ry="14" style="stroke:#58A6FF;stroke-width:0.5833;"/></g><g class="participant participant-head" data-entity-uid="part3" data-qualified-name="CustomerRestControllerV1" id="part3-head"><text fill="#C9D1D9" font-family="sans-serif" font-size="16.3333" lengthAdjust="spacing" textLength="195.1626" x="516.4836" y="137.931">CustomerRestControllerV1</text><ellipse cx="617.5649" cy="102.8433" fill="#0D1117" rx="14" ry="14" style="stroke:#58A6FF;stroke-width:0.5833;"/><polygon fill="#58A6FF" points="612.8982,88.8433,619.8982,83.0099,617.5649,88.8433,619.8982,94.6766,612.8982,88.8433" style="stroke:#58A6FF;stroke-width:1.1667;"/></g><g class="participant participant-tail" data-entity-uid="part3" data-qualified-name="CustomerRestControllerV1" id="part3-tail"><text fill="#C9D1D9" font-family="sans-serif" font-size="16.3333" lengthAdjust="spacing" textLength="195.1626" x="516.4836" y="884.3368">CustomerRestControllerV1</text><ellipse cx="617.5649" cy="906.5923" fill="#0D1117" rx="14" ry="14" style="stroke:#58A6FF;stroke-width:0.5833;"/><polygon fill="#58A6FF" points="612.8982,892.5923,619.8982,886.759,617.5649,892.5923,619.8982,898.4256,612.8982,892.5923" style="stroke:#58A6FF;stroke-width:1.1667;"/></g><g class="participant participant-head" data-entity-uid="part4" data-qualified-name="CustomerServiceV1" id="part4-head"><text fill="#C9D1D9" font-family="sans-serif" font-size="16.3333" lengthAdjust="spacing" textLength="145.2375" x="730.3128" y="137.931">CustomerServiceV1</text><ellipse cx="806.4316" cy="102.8433" fill="#0D1117" rx="14" ry="14" style="stroke:#58A6FF;stroke-width:0.5833;"/><polygon fill="#58A6FF" points="801.7649,88.8433,808.7649,83.0099,806.4316,88.8433,808.7649,94.6766,801.7649,88.8433" style="stroke:#58A6FF;stroke-width:1.1667;"/></g><g class="participant participant-tail" data-entity-uid="part4" data-qualified-name="CustomerServiceV1" id="part4-tail"><text fill="#C9D1D9" font-family="sans-serif" font-size="16.3333" lengthAdjust="spacing" textLength="145.2375" x="730.3128" y="884.3368">CustomerServiceV1</text><ellipse cx="806.4316" cy="906.5923" fill="#0D1117" rx="14" ry="14" style="stroke:#58A6FF;stroke-width:0.5833;"/><polygon fill="#58A6FF" points="801.7649,892.5923,808.7649,886.759,806.4316,892.5923,808.7649,898.4256,801.7649,892.5923" style="stroke:#58A6FF;stroke-width:1.1667;"/></g><g class="participant participant-head" data-entity-uid="part5" data-qualified-name="CustomersDatabase" id="part5-head"><text fill="#C9D1D9" font-family="sans-serif" font-size="16.3333" lengthAdjust="spacing" textLength="148.8822" x="935.6701" y="137.931">CustomersDatabase</text><path d="M992.6112,79.5099 C992.6112,67.8433 1013.6112,67.8433 1013.6112,67.8433 C1013.6112,67.8433 1034.6112,67.8433 1034.6112,79.5099 L1034.6112,109.8433 C1034.6112,121.5099 1013.6112,121.5099 1013.6112,121.5099 C1013.6112,121.5099 992.6112,121.5099 992.6112,109.8433 L992.6112,79.5099" fill="#0D1117" style="stroke:#58A6FF;stroke-width:0.5833;"/><path d="M992.6112,79.5099 C992.6112,91.1766 1013.6112,91.1766 1013.6112,91.1766 C1013.6112,91.1766 1034.6112,91.1766 1034.6112,79.5099" fill="none" style="stroke:#58A6FF;stroke-width:0.5833;"/></g><g class="participant participant-tail" data-entity-uid="part5" data-qualified-name="CustomersDatabase" id="part5-tail"><text fill="#C9D1D9" font-family="sans-serif" font-size="16.3333" lengthAdjust="spacing" textLength="148.8822" x="935.6701" y="884.3368">CustomersDatabase</text><path d="M992.6112,899.5923 C992.6112,887.9256 1013.6112,887.9256 1013.6112,887.9256 C1013.6112,887.9256 1034.6112,887.9256 1034.6112,899.5923 L1034.6112,929.9256 C1034.6112,941.5923 1013.6112,941.5923 1013.6112,941.5923 C1013.6112,941.5923 992.6112,941.5923 992.6112,929.9256 L992.6112,899.5923" fill="#0D1117" style="stroke:#58A6FF;stroke-width:0.5833;"/><path d="M992.6112,899.5923 C992.6112,911.259 1013.6112,911.259 1013.6112,911.259 C1013.6112,911.259 1034.6112,911.259 1034.6112,899.5923" fill="none" style="stroke:#58A6FF;stroke-width:0.5833;"/></g><g class="participant participant-head" data-entity-uid="part6" data-qualified-name="CustomerRestControllerV1LoggingAspect" id="part6-head"><text fill="#C9D1D9" font-family="sans-serif" font-size="16.3333" lengthAdjust="spacing" textLength="303.2274" x="1103.2189" y="137.931">CustomerRestControllerV1LoggingAspect</text><ellipse cx="1258.3326" cy="102.8433" fill="#0D1117" rx="14" ry="14" style="stroke:#58A6FF;stroke-width:0.5833;"/><polygon fill="#58A6FF" points="1253.6659,88.8433,1260.6659,83.0099,1258.3326,88.8433,1260.6659,94.6766,1253.6659,88.8433" style="stroke:#58A6FF;stroke-width:1.1667;"/></g><g class="participant participant-tail" data-entity-uid="part6" data-qualified-name="CustomerRestControllerV1LoggingAspect" id="part6-tail"><text fill="#C9D1D9" font-family="sans-serif" font-size="16.3333" lengthAdjust="spacing" textLength="303.2274" x="1103.2189" y="884.3368">CustomerRestControllerV1LoggingAspect</text><ellipse cx="1258.3326" cy="906.5923" fill="#0D1117" rx="14" ry="14" style="stroke:#58A6FF;stroke-width:0.5833;"/><polygon fill="#58A6FF" points="1253.6659,892.5923,1260.6659,886.759,1258.3326,892.5923,1260.6659,898.4256,1253.6659,892.5923" style="stroke:#58A6FF;stroke-width:1.1667;"/></g><g class="participant participant-head" data-entity-uid="part7" data-qualified-name="GlobalExceptionsHandler" id="part7-head"><text fill="#C9D1D9" font-family="sans-serif" font-size="16.3333" lengthAdjust="spacing" textLength="184.3083" x="1425.113" y="137.931">GlobalExceptionsHandler</text><ellipse cx="1520.7671" cy="102.8433" fill="#0D1117" rx="14" ry="14" style="stroke:#58A6FF;stroke-width:0.5833;"/><polygon fill="#58A6FF" points="1516.1004,88.8433,1523.1004,83.0099,1520.7671,88.8433,1523.1004,94.6766,1516.1004,88.8433" style="stroke:#58A6FF;stroke-width:1.1667;"/></g><g class="participant participant-tail" data-entity-uid="part7" data-qualified-name="GlobalExceptionsHandler" id="part7-tail"><text fill="#C9D1D9" font-family="sans-serif" font-size="16.3333" lengthAdjust="spacing" textLength="184.3083" x="1425.113" y="884.3368">GlobalExceptionsHandler</text><ellipse cx="1520.7671" cy="906.5923" fill="#0D1117" rx="14" ry="14" style="stroke:#58A6FF;stroke-width:0.5833;"/><polygon fill="#58A6FF" points="1516.1004,892.5923,1523.1004,886.759,1520.7671,892.5923,1523.1004,898.4256,1516.1004,892.5923" style="stroke:#58A6FF;stroke-width:1.1667;"/></g><g class="message" data-entity-1="part1" data-entity-2="part2" id="msg1"><polygon fill="#58A6FF" points="419.9795,174.1005,431.6462,178.7672,419.9795,183.4338,424.6462,178.7672" style="stroke:#58A6FF;stroke-width:1.1667;"/><line style="stroke:#58A6FF;stroke-width:1.1667;" x1="67.0833" x2="426.9795" y1="178.7672" y2="178.7672"/><text fill="#C9D1D9" font-family="sans-serif" font-size="15.1667" font-weight="bold" lengthAdjust="spacing" textLength="8.435" x="81.0833" y="173.1013">1</text><text fill="#C9D1D9" font-family="sans-serif" font-size="15.1667" lengthAdjust="spacing" textLength="325.7945" x="94.185" y="173.1013">PUT /api/v1/customers/image + image form data</text></g><path d="M438.6667,200.9338 L438.6667,216.1005 A7,7 0 0 0 445.6667,223.1005 L579.8333,223.1005 A7,7 0 0 0 586.8333,216.1005 L586.8333,205.6005 L575.1667,193.9338 L445.6667,193.9338 A7,7 0 0 0 438.6667,200.9338" fill="#1C2330" style="stroke:#E7E7E7;stroke-width:0.5833;"/><path d="M575.1667,193.9338 L575.1667,202.1005 A3.5,3.5 0 0 0 578.6667,205.6005 L586.8333,205.6005 L575.1667,193.9338" fill="#1C2330" style="stroke:#E7E7E7;stroke-width:0.5833;"/><text fill="#C9D1D9" font-family="sans-serif" font-size="15.1667" lengthAdjust="spacing" textLength="123.9401" x="445.6667" y="215.0153">authenticates user</text><path d="M18.6667,238.1812 L81.866,238.1812 L81.866,247.4285 L70.1994,259.0951 L11.6667,259.0951 L11.6667,245.1812 A7,7 0 0 1 18.6667,238.1812" fill="#161B22" style="stroke:#30363D;stroke-width:1.75;"/><rect fill="none" height="611.0679" rx="7" ry="7" style="stroke:#30363D;stroke-width:1.75;" width="1628.0879" x="11.6667" y="238.1812"/><text fill="#C9D1D9" font-family="sans-serif" font-size="15.1667" font-weight="bold" lengthAdjust="spacing" textLength="17.6994" x="29.1667" y="254.5959">alt</text><text fill="#C9D1D9" font-family="sans-serif" font-size="12.8333" font-weight="bold" lengthAdjust="spacing" textLength="124.0785" x="99.366" y="253.4167">[User authenticated]</text><g class="message" data-entity-1="part2" data-entity-2="part3" id="msg2"><polygon fill="#58A6FF" points="603.5649,280.0091,615.2315,284.6758,603.5649,289.3424,608.2315,284.6758" style="stroke:#58A6FF;stroke-width:1.1667;"/><line style="stroke:#58A6FF;stroke-width:1.1667;" x1="433.9795" x2="610.5649" y1="284.6758" y2="284.6758"/><text fill="#C9D1D9" font-family="sans-serif" font-size="15.1667" font-weight="bold" lengthAdjust="spacing" textLength="8.435" x="462.724" y="279.0099">2</text><text fill="#C9D1D9" font-family="sans-serif" font-size="15.1667" lengthAdjust="spacing" textLength="112.9946" x="475.8257" y="279.0099">delegate request</text></g><path d="M1263.5,306.8424 L1263.5,322.0091 A7,7 0 0 0 1270.5,329.0091 L1338.1667,329.0091 A7,7 0 0 0 1345.1667,322.0091 L1345.1667,311.5091 L1333.5,299.8424 L1270.5,299.8424 A7,7 0 0 0 1263.5,306.8424" fill="#1C2330" style="stroke:#E7E7E7;stroke-width:0.5833;"/><path d="M1333.5,299.8424 L1333.5,308.0091 A3.5,3.5 0 0 0 1337,311.5091 L1345.1667,311.5091 L1333.5,299.8424" fill="#1C2330" style="stroke:#E7E7E7;stroke-width:0.5833;"/><text fill="#C9D1D9" font-family="sans-serif" font-size="15.1667" lengthAdjust="spacing" textLength="58.171" x="1270.5" y="320.9239">log entry</text><g class="message" data-entity-1="part3" data-entity-2="part4" id="msg3"><polygon fill="#58A6FF" points="792.4316,356.8371,804.0982,361.5037,792.4316,366.1704,797.0982,361.5037" style="stroke:#58A6FF;stroke-width:1.1667;"/><line style="stroke:#58A6FF;stroke-width:1.1667;" x1="617.5649" x2="799.4316" y1="361.5037" y2="361.5037"/><text fill="#C9D1D9" font-family="sans-serif" font-size="15.1667" font-weight="bold" lengthAdjust="spacing" textLength="8.435" x="648.9501" y="355.8379">3</text><text fill="#C9D1D9" font-family="sans-serif" font-size="15.1667" lengthAdjust="spacing" textLength="112.9946" x="662.0517" y="355.8379">delegate request</text></g><path d="M30.3333,379.0037 L93.5327,379.0037 L93.5327,388.2511 L81.866,399.9177 L23.3333,399.9177 L23.3333,386.0037 A7,7 0 0 1 30.3333,379.0037" fill="#161B22" style="stroke:#30363D;stroke-width:1.75;"/><rect fill="none" height="409.1092" rx="7" ry="7" style="stroke:#30363D;stroke-width:1.75;" width="1604.7546" x="23.3333" y="379.0037"/><text fill="#C9D1D9" font-family="sans-serif" font-size="15.1667" font-weight="bold" lengthAdjust="spacing" textLength="17.6994" x="40.8333" y="395.4185">alt</text><text fill="#C9D1D9" font-family="sans-serif" font-size="12.8333" font-weight="bold" lengthAdjust="spacing" textLength="106.2698" x="111.0327" y="394.2393">[customer exists]</text><g class="message" data-entity-1="part4" data-entity-2="part5" id="msg4"><polygon fill="#58A6FF" points="999.6112,420.8317,1011.2778,425.4984,999.6112,430.165,1004.2778,425.4984" style="stroke:#58A6FF;stroke-width:1.1667;"/><line style="stroke:#58A6FF;stroke-width:1.1667;" x1="806.4316" x2="1006.6112" y1="425.4984" y2="425.4984"/><text fill="#C9D1D9" font-family="sans-serif" font-size="15.1667" font-weight="bold" lengthAdjust="spacing" textLength="8.435" x="820.4316" y="419.8325">4</text><text fill="#C9D1D9" font-family="sans-serif" font-size="15.1667" lengthAdjust="spacing" textLength="166.078" x="833.5332" y="419.8325">updates customer image</text></g><path d="M1263.5,447.665 L1263.5,462.8317 A7,7 0 0 0 1270.5,469.8317 L1367.3333,469.8317 A7,7 0 0 0 1374.3333,462.8317 L1374.3333,452.3317 L1362.6667,440.665 L1270.5,440.665 A7,7 0 0 0 1263.5,447.665" fill="#1C2330" style="stroke:#E7E7E7;stroke-width:0.5833;"/><path d="M1362.6667,440.665 L1362.6667,448.8317 A3.5,3.5 0 0 0 1366.1667,452.3317 L1374.3333,452.3317 L1362.6667,440.665" fill="#1C2330" style="stroke:#E7E7E7;stroke-width:0.5833;"/><text fill="#C9D1D9" font-family="sans-serif" font-size="15.1667" lengthAdjust="spacing" textLength="86.8455" x="1270.5" y="461.7465">log response</text><g class="message" data-entity-1="part3" data-entity-2="part2" id="msg5"><polygon fill="#58A6FF" points="446.8128,497.6597,435.1462,502.3263,446.8128,506.993,442.1462,502.3263" style="stroke:#58A6FF;stroke-width:1.1667;"/><line style="stroke:#58A6FF;stroke-width:1.1667;" x1="439.8128" x2="616.3982" y1="502.3263" y2="502.3263"/><text fill="#C9D1D9" font-family="sans-serif" font-size="15.1667" font-weight="bold" lengthAdjust="spacing" textLength="8.435" x="447.9795" y="496.6605">5</text><text fill="#C9D1D9" font-family="sans-serif" font-size="15.1667" lengthAdjust="spacing" textLength="142.4837" x="461.0811" y="496.6605">Http no content (204)</text></g><g class="message" data-entity-1="part2" data-entity-2="part1" id="msg6"><polygon fill="#58A6FF" points="79.9167,532.5736,68.25,537.2403,79.9167,541.907,75.25,537.2403" style="stroke:#58A6FF;stroke-width:1.1667;"/><line style="stroke:#58A6FF;stroke-width:1.1667;" x1="72.9167" x2="432.8128" y1="537.2403" y2="537.2403"/><text fill="#C9D1D9" font-family="sans-serif" font-size="15.1667" font-weight="bold" lengthAdjust="spacing" textLength="8.435" x="172.7387" y="531.5745">6</text><text fill="#C9D1D9" font-family="sans-serif" font-size="15.1667" lengthAdjust="spacing" textLength="142.4837" x="185.8404" y="531.5745">Http no content (204)</text></g><line style="stroke:#30363D;stroke-width:1.1667;stroke-dasharray:2.3333,2.3333;" x1="23.3333" x2="1628.0879" y1="547.7403" y2="547.7403"/><text fill="#C9D1D9" font-family="sans-serif" font-size="12.8333" font-weight="bold" lengthAdjust="spacing" textLength="147.8152" x="29.1667" y="560.6426">[customer doesn't exist]</text><g class="message" data-entity-1="part4" data-entity-2="part6" id="msg7"><polygon fill="#58A6FF" points="1244.3326,585.5431,1255.9993,590.2097,1244.3326,594.8764,1248.9993,590.2097" style="stroke:#58A6FF;stroke-width:1.1667;"/><line style="stroke:#58A6FF;stroke-width:1.1667;" x1="806.4316" x2="1251.3326" y1="590.2097" y2="590.2097"/><text fill="#C9D1D9" font-family="sans-serif" font-size="15.1667" font-weight="bold" lengthAdjust="spacing" textLength="8.435" x="972.7183" y="584.5439">7</text><text fill="#C9D1D9" font-family="sans-serif" font-size="15.1667" lengthAdjust="spacing" textLength="106.2259" x="985.8199" y="584.5439">throw exception</text></g><path d="M1263.5,612.3764 L1263.5,627.5431 A7,7 0 0 0 1270.5,634.5431 L1337,634.5431 A7,7 0 0 0 1344,627.5431 L1344,617.0431 L1332.3333,605.3764 L1270.5,605.3764 A7,7 0 0 0 1263.5,612.3764" fill="#1C2330" style="stroke:#E7E7E7;stroke-width:0.5833;"/><path d="M1332.3333,605.3764 L1332.3333,613.5431 A3.5,3.5 0 0 0 1335.8333,617.0431 L1344,617.0431 L1332.3333,605.3764" fill="#1C2330" style="stroke:#E7E7E7;stroke-width:0.5833;"/><text fill="#C9D1D9" font-family="sans-serif" font-size="15.1667" lengthAdjust="spacing" textLength="56.4751" x="1270.5" y="626.4578">log error</text><g class="message" data-entity-1="part6" data-entity-2="part7" id="msg8"><polygon fill="#58A6FF" points="1506.7671,662.371,1518.4338,667.0377,1506.7671,671.7043,1511.4338,667.0377" style="stroke:#58A6FF;stroke-width:1.1667;"/><line style="stroke:#58A6FF;stroke-width:1.1667;" x1="1258.3326" x2="1513.7671" y1="667.0377" y2="667.0377"/><text fill="#C9D1D9" font-family="sans-serif" font-size="15.1667" font-weight="bold" lengthAdjust="spacing" textLength="8.435" x="1320.618" y="661.3718">8</text><text fill="#C9D1D9" font-family="sans-serif" font-size="15.1667" lengthAdjust="spacing" textLength="124.7621" x="1333.7196" y="661.3718">re-throw exception</text></g><path d="M1526,689.2043 L1526,704.371 A7,7 0 0 0 1533,711.371 L1599.5,711.371 A7,7 0 0 0 1606.5,704.371 L1606.5,693.871 L1594.8333,682.2043 L1533,682.2043 A7,7 0 0 0 1526,689.2043" fill="#1C2330" style="stroke:#E7E7E7;stroke-width:0.5833;"/><path d="M1594.8333,682.2043 L1594.8333,690.371 A3.5,3.5 0 0 0 1598.3333,693.871 L1606.5,693.871 L1594.8333,682.2043" fill="#1C2330" style="stroke:#E7E7E7;stroke-width:0.5833;"/><text fill="#C9D1D9" font-family="sans-serif" font-size="15.1667" lengthAdjust="spacing" textLength="56.4751" x="1533" y="703.2858">log error</text><g class="message" data-entity-1="part3" data-entity-2="part2" id="msg9"><polygon fill="#58A6FF" points="446.8128,739.199,435.1462,743.8656,446.8128,748.5323,442.1462,743.8656" style="stroke:#58A6FF;stroke-width:1.1667;"/><line style="stroke:#58A6FF;stroke-width:1.1667;" x1="439.8128" x2="616.3982" y1="743.8656" y2="743.8656"/><text fill="#C9D1D9" font-family="sans-serif" font-size="15.1667" font-weight="bold" lengthAdjust="spacing" textLength="8.435" x="451.7712" y="738.1998">9</text><text fill="#C9D1D9" font-family="sans-serif" font-size="15.1667" lengthAdjust="spacing" textLength="134.9004" x="464.8728" y="738.1998">Http not found (404)</text></g><g class="message" data-entity-1="part2" data-entity-2="part1" id="msg10"><polygon fill="#58A6FF" points="79.9167,774.113,68.25,778.7796,79.9167,783.4463,75.25,778.7796" style="stroke:#58A6FF;stroke-width:1.1667;"/><line style="stroke:#58A6FF;stroke-width:1.1667;" x1="72.9167" x2="432.8128" y1="778.7796" y2="778.7796"/><text fill="#C9D1D9" font-family="sans-serif" font-size="15.1667" font-weight="bold" lengthAdjust="spacing" textLength="16.87" x="172.3129" y="773.1138">10</text><text fill="#C9D1D9" font-family="sans-serif" font-size="15.1667" lengthAdjust="spacing" textLength="134.9004" x="193.8495" y="773.1138">Http not found (404)</text></g><line style="stroke:#30363D;stroke-width:1.1667;stroke-dasharray:2.3333,2.3333;" x1="11.6667" x2="1639.7546" y1="797.4463" y2="797.4463"/><text fill="#C9D1D9" font-family="sans-serif" font-size="12.8333" font-weight="bold" lengthAdjust="spacing" textLength="147.5959" x="17.5" y="810.3486">[User not authenticated]</text><g class="message" data-entity-1="part2" data-entity-2="part1" id="msg11"><polygon fill="#58A6FF" points="79.9167,835.249,68.25,839.9157,79.9167,844.5824,75.25,839.9157" style="stroke:#58A6FF;stroke-width:1.1667;"/><line style="stroke:#58A6FF;stroke-width:1.1667;" x1="72.9167" x2="432.8128" y1="839.9157" y2="839.9157"/><text fill="#C9D1D9" font-family="sans-serif" font-size="15.1667" font-weight="bold" lengthAdjust="spacing" textLength="16.87" x="172.3166" y="834.2498">11</text><text fill="#C9D1D9" font-family="sans-serif" font-size="15.1667" lengthAdjust="spacing" textLength="134.893" x="193.8532" y="834.2498">Http forbidden (403)</text></g><?plantuml-src hLLDRzim3BtxLn3OOIs68d7IfkiE0_BHj8TkADPsTyLY7A6Av4boFp3iluzI75T9x2OO1j_CnyVtI8bomac4Xu8pXv2Lrkab6X1BbYESm1t-Ab5bc2IiT5gLoncQ9B6FGXNCi2NCMFQO6rqgFjPI6_ZGlKpJz3n2s0NZ-bce7EPCMemY8ItJHb6zj1S5U24W7NJZEhRI0RyJW6zeBSaRIf4ho50vqWGmD4O_LohEFWy7qodzl15pl14AHzfmD5Mqt-qF-fCukkqY7QIZNi-JPawRZUIQUXNQyJy9_W56-gMvg0-qPFs9BT_xmKorSXLcV3599nSHO3sRAs8gccgrGLlSli6_QzVGat6lt-zke-Aob-V-sq943gPd_elYeOLtxfKE87j6IoSl2avmpahfTZiGOKPU7pElJHDgGBMqFOAEgPhHyds-DMW_tOGvDcCMt-UhKVi9Rvbn8XC5K-vzpXZOHijy--71qlMPLIs2OL58aJ4dj4gobKyOLrlX1rfNUPTeVgOxW3iqJo93Yl3AKXsoQvDxMMzqdjEw6De2CrUZhwIUCNdvac7XjTbhfhZqkyZBXvEliN3u0hSFzz1XXUWyfPtrKhETrLRxL6stkJQqQqXMekYSWX7vme6URp7HtblGYl4_q4BfcvKmwKBRDeASxZPi99EgDfD4p55YxfUkyPVJkf2-gUIW5X6Lr3cG3FCQE5fhHdhgIJK92IpUO_qSu8kmpeR_SOKtbeYwdZHHb-5PiLllIitpxsuDse9E0Uv8QZAzET1hvmgg3FvaKTFWgDSzFQvvjkONfjoM4vAG7hKtVroZLH_Tgc67zMkVNRUWTuq8gvF_7vg7z5AQlPtRp2J1BLUGI0sU7AQodU9mNQqJTNIZQOl1qUd10zrDGSMJ9Cmq83raxoMFEMcfp0Jdg3nd_pWXlhy0?></g></svg>