<?plantuml 1.2026.2?>
<svg xmlns="http://www.w3.org/2000/svg" contentStyleType="text/css" data-diagram-type="SEQUENCE" height="1104px"
     preserveAspectRatio="none" style="width:1813px;height:1104px;background:#0E1117;" version="1.1"
     viewBox="0 0 1813 1104" width="1813.3333px" zoomAndPan="magnify"><title>Update customer details - Sequence</title><defs/><g><rect fill="#0E1117" height="1104" style="stroke:none;stroke-width:1.3333;" width="1813.3333" x="0" y="0"/><text fill="#C9D1D9" font-family="sans-serif" font-size="18.6667" font-weight="bold" lengthAdjust="spacing" textLength="321.5716" x="747.4632" y="38.7669">Update customer details - Sequence</text><rect fill="none" height="698.3633" rx="8" ry="8" style="stroke:#30363D;stroke-width:2;" width="1791.1647" x="13.3333" y="272.207"/><rect fill="none" height="467.5534" rx="8" ry="8" style="stroke:#30363D;stroke-width:2;" width="1764.498" x="26.6667" y="433.1471"/><g class="participant-lifeline" data-entity-uid="part1" data-qualified-name="User" id="part1-lifeline"><g><title>User</title><rect fill="#000000" fill-opacity="0.00000" height="831.5" width="10.6667" x="71.3333" y="161.737"/><line style="stroke:#30363D;stroke-width:0.6667;stroke-dasharray:6.6667,6.6667;" x1="76" x2="76" y1="161.737" y2="993.237"/></g></g><g class="participant-lifeline" data-entity-uid="part2" data-qualified-name="Application" id="part2-lifeline"><g><title>Application</title><rect fill="#000000" fill-opacity="0.00000" height="831.5" width="10.6667" x="468.5111" y="161.737"/><line style="stroke:#30363D;stroke-width:0.6667;stroke-dasharray:6.6667,6.6667;" x1="473.5182" x2="473.5182" y1="161.737" y2="993.237"/></g></g><g class="participant-lifeline" data-entity-uid="part3" data-qualified-name="CustomerRestControllerV1" id="part3-lifeline"><g><title>CustomerRestControllerV1</title><rect fill="#000000" fill-opacity="0.00000" height="831.5" width="10.6667" x="678.3229" y="161.737"/><line style="stroke:#30363D;stroke-width:0.6667;stroke-dasharray:6.6667,6.6667;" x1="682.8014" x2="682.8014" y1="161.737" y2="993.237"/></g></g><g class="participant-lifeline" data-entity-uid="part4" data-qualified-name="CustomerServiceV1" id="part4-lifeline"><g><title>CustomerServiceV1</title><rect fill="#000000" fill-opacity="0.00000" height="831.5" width="10.6667" x="894.1706" y="161.737"/><line style="stroke:#30363D;stroke-width:0.6667;stroke-dasharray:6.6667,6.6667;" x1="899.1777" x2="899.1777" y1="161.737" y2="993.237"/></g></g><g class="participant-lifeline" data-entity-uid="part5" data-qualified-name="CustomersDatabase" id="part5-lifeline"><g><title>CustomersDatabase</title><rect fill="#000000" fill-opacity="0.00000" height="831.5" width="10.6667" x="1083.5723" y="161.737"/><line style="stroke:#30363D;stroke-width:0.6667;stroke-dasharray:6.6667,6.6667;" x1="1087.8301" x2="1087.8301" y1="161.737" y2="993.237"/></g></g><g class="participant-lifeline" data-entity-uid="part6" data-qualified-name="CustomerRestControllerV1LoggingAspect" id="part6-lifeline"><g><title>CustomerRestControllerV1LoggingAspect</title><rect fill="#000000" fill-opacity="0.00000" height="831.5" width="10.6667" x="1363.2539" y="161.737"/><line style="stroke:#30363D;stroke-width:0.6667;stroke-dasharray:6.6667,6.6667;" x1="1367.3145" x2="1367.3145" y1="161.737" y2="993.237"/></g></g><g class="participant-lifeline" data-entity-uid="part7" data-qualified-name="GlobalExceptionsHandler" id="part7-lifeline"><g><title>GlobalExceptionsHandler</title><rect fill="#000000" fill-opacity="0.00000" height="831.5" width="10.6667" x="1663.179" y="161.737"/><line style="stroke:#30363D;stroke-width:0.6667;stroke-dasharray:6.6667,6.6667;" x1="1667.1934" x2="1667.1934" y1="161.737" y2="993.237"/></g></g><g class="participant participant-head" data-entity-uid="part1" data-qualified-name="User" id="part1-head"><text fill="#C9D1D9" font-family="sans-serif" font-size="18.6667" lengthAdjust="spacing" textLength="39.4115" x="52.9609" y="157.6354">User</text><ellipse cx="76.6667" cy="79.5352" fill="#0D1117" rx="21.3333" ry="21.3333" style="stroke:#58A6FF;stroke-width:0.6667;"/><path d="M76.6667,106.2018 C82,106.2018 86,106.2018 91.3333,100.8685 C102,100.8685 112.6667,111.5352 112.6667,122.2018 L112.6667,127.5352 C112.6667,132.8685 107.3333,138.2018 102,138.2018 L51.3333,138.2018 C46,138.2018 40.6667,132.8685 40.6667,127.5352 L40.6667,122.2018 C40.6667,111.5352 51.3333,100.8685 62,100.8685 C67.3333,106.2018 71.3333,106.2018 76.6667,106.2018" fill="#0D1117" style="stroke:#58A6FF;stroke-width:0.6667;"/></g><g class="participant participant-tail" data-entity-uid="part1" data-qualified-name="User" id="part1-tail"><text fill="#C9D1D9" font-family="sans-serif" font-size="18.6667" lengthAdjust="spacing" textLength="39.4115" x="52.9609" y="1010.6706">User</text><ellipse cx="76.6667" cy="1036.7721" fill="#0D1117" rx="21.3333" ry="21.3333" style="stroke:#58A6FF;stroke-width:0.6667;"/><path d="M76.6667,1063.4388 C82,1063.4388 86,1063.4388 91.3333,1058.1055 C102,1058.1055 112.6667,1068.7721 112.6667,1079.4388 L112.6667,1084.7721 C112.6667,1090.1055 107.3333,1095.4388 102,1095.4388 L51.3333,1095.4388 C46,1095.4388 40.6667,1090.1055 40.6667,1084.7721 L40.6667,1079.4388 C40.6667,1068.7721 51.3333,1058.1055 62,1058.1055 C67.3333,1063.4388 71.3333,1063.4388 76.6667,1063.4388" fill="#0D1117" style="stroke:#58A6FF;stroke-width:0.6667;"/></g><g class="participant participant-head" data-entity-uid="part2" data-qualified-name="Application" id="part2-head"><text fill="#C9D1D9" font-family="sans-serif" font-size="18.6667" lengthAdjust="spacing" textLength="91.319" x="424.1849" y="157.6354">Application</text><path d="M446.5111,101.5352 L446.5111,133.5352 M446.5111,117.5352 L469.1777,117.5352" fill="none" style="stroke:#58A6FF;stroke-width:0.6667;"/><ellipse cx="485.1777" cy="117.5352" fill="#0D1117" rx="16" ry="16" style="stroke:#58A6FF;stroke-width:0.6667;"/></g><g class="participant participant-tail" data-entity-uid="part2" data-qualified-name="Application" id="part2-tail"><text fill="#C9D1D9" font-family="sans-serif" font-size="18.6667" lengthAdjust="spacing" textLength="91.319" x="424.1849" y="1010.6706">Application</text><path d="M446.5111,1020.1055 L446.5111,1052.1055 M446.5111,1036.1055 L469.1777,1036.1055" fill="none" style="stroke:#58A6FF;stroke-width:0.6667;"/><ellipse cx="485.1777" cy="1036.1055" fill="#0D1117" rx="16" ry="16" style="stroke:#58A6FF;stroke-width:0.6667;"/></g><g class="participant participant-head" data-entity-uid="part3" data-qualified-name="CustomerRestControllerV1" id="part3-head"><text fill="#C9D1D9" font-family="sans-serif" font-size="18.6667" lengthAdjust="spacing" textLength="223.043" x="568.1348" y="157.6354">CustomerRestControllerV1</text><ellipse cx="683.6563" cy="117.5352" fill="#0D1117" rx="16" ry="16" style="stroke:#58A6FF;stroke-width:0.6667;"/><polygon fill="#58A6FF" points="678.3229,101.5352,686.3229,94.8685,683.6563,101.5352,686.3229,108.2018,678.3229,101.5352" style="stroke:#58A6FF;stroke-width:1.3333;"/></g><g class="participant participant-tail" data-entity-uid="part3" data-qualified-name="CustomerRestControllerV1" id="part3-tail"><text fill="#C9D1D9" font-family="sans-serif" font-size="18.6667" lengthAdjust="spacing" textLength="223.043" x="568.1348" y="1010.6706">CustomerRestControllerV1</text><ellipse cx="683.6563" cy="1036.1055" fill="#0D1117" rx="16" ry="16" style="stroke:#58A6FF;stroke-width:0.6667;"/><polygon fill="#58A6FF" points="678.3229,1020.1055,686.3229,1013.4388,683.6563,1020.1055,686.3229,1026.7721,678.3229,1020.1055" style="stroke:#58A6FF;stroke-width:1.3333;"/></g><g class="participant participant-head" data-entity-uid="part4" data-qualified-name="CustomerServiceV1" id="part4-head"><text fill="#C9D1D9" font-family="sans-serif" font-size="18.6667" lengthAdjust="spacing" textLength="165.9857" x="812.5111" y="157.6354">CustomerServiceV1</text><ellipse cx="899.5039" cy="117.5352" fill="#0D1117" rx="16" ry="16" style="stroke:#58A6FF;stroke-width:0.6667;"/><polygon fill="#58A6FF" points="894.1706,101.5352,902.1706,94.8685,899.5039,101.5352,902.1706,108.2018,894.1706,101.5352" style="stroke:#58A6FF;stroke-width:1.3333;"/></g><g class="participant participant-tail" data-entity-uid="part4" data-qualified-name="CustomerServiceV1" id="part4-tail"><text fill="#C9D1D9" font-family="sans-serif" font-size="18.6667" lengthAdjust="spacing" textLength="165.9857" x="812.5111" y="1010.6706">CustomerServiceV1</text><ellipse cx="899.5039" cy="1036.1055" fill="#0D1117" rx="16" ry="16" style="stroke:#58A6FF;stroke-width:0.6667;"/><polygon fill="#58A6FF" points="894.1706,1020.1055,902.1706,1013.4388,899.5039,1020.1055,902.1706,1026.7721,894.1706,1020.1055" style="stroke:#58A6FF;stroke-width:1.3333;"/></g><g class="participant participant-head" data-entity-uid="part5" data-qualified-name="CustomersDatabase" id="part5-head"><text fill="#C9D1D9" font-family="sans-serif" font-size="18.6667" lengthAdjust="spacing" textLength="170.151" x="999.8301" y="157.6354">CustomersDatabase</text><path d="M1064.9056,90.8685 C1064.9056,77.5352 1088.9056,77.5352 1088.9056,77.5352 C1088.9056,77.5352 1112.9056,77.5352 1112.9056,90.8685 L1112.9056,125.5352 C1112.9056,138.8685 1088.9056,138.8685 1088.9056,138.8685 C1088.9056,138.8685 1064.9056,138.8685 1064.9056,125.5352 L1064.9056,90.8685" fill="#0D1117" style="stroke:#58A6FF;stroke-width:0.6667;"/><path d="M1064.9056,90.8685 C1064.9056,104.2018 1088.9056,104.2018 1088.9056,104.2018 C1088.9056,104.2018 1112.9056,104.2018 1112.9056,90.8685" fill="none" style="stroke:#58A6FF;stroke-width:0.6667;"/></g><g class="participant participant-tail" data-entity-uid="part5" data-qualified-name="CustomersDatabase" id="part5-tail"><text fill="#C9D1D9" font-family="sans-serif" font-size="18.6667" lengthAdjust="spacing" textLength="170.151" x="999.8301" y="1010.6706">CustomersDatabase</text><path d="M1064.9056,1028.1055 C1064.9056,1014.7721 1088.9056,1014.7721 1088.9056,1014.7721 C1088.9056,1014.7721 1112.9056,1014.7721 1112.9056,1028.1055 L1112.9056,1062.7721 C1112.9056,1076.1055 1088.9056,1076.1055 1088.9056,1076.1055 C1088.9056,1076.1055 1064.9056,1076.1055 1064.9056,1062.7721 L1064.9056,1028.1055" fill="#0D1117" style="stroke:#58A6FF;stroke-width:0.6667;"/><path d="M1064.9056,1028.1055 C1064.9056,1041.4388 1088.9056,1041.4388 1088.9056,1041.4388 C1088.9056,1041.4388 1112.9056,1041.4388 1112.9056,1028.1055" fill="none" style="stroke:#58A6FF;stroke-width:0.6667;"/></g><g class="participant participant-head" data-entity-uid="part6" data-qualified-name="CustomerRestControllerV1LoggingAspect" id="part6-head"><text fill="#C9D1D9" font-family="sans-serif" font-size="18.6667" lengthAdjust="spacing" textLength="346.5456" x="1191.3145" y="157.6354">CustomerRestControllerV1LoggingAspect</text><ellipse cx="1368.5872" cy="117.5352" fill="#0D1117" rx="16" ry="16" style="stroke:#58A6FF;stroke-width:0.6667;"/><polygon fill="#58A6FF" points="1363.2539,101.5352,1371.2539,94.8685,1368.5872,101.5352,1371.2539,108.2018,1363.2539,101.5352" style="stroke:#58A6FF;stroke-width:1.3333;"/></g><g class="participant participant-tail" data-entity-uid="part6" data-qualified-name="CustomerRestControllerV1LoggingAspect" id="part6-tail"><text fill="#C9D1D9" font-family="sans-serif" font-size="18.6667" lengthAdjust="spacing" textLength="346.5456" x="1191.3145" y="1010.6706">CustomerRestControllerV1LoggingAspect</text><ellipse cx="1368.5872" cy="1036.1055" fill="#0D1117" rx="16" ry="16" style="stroke:#58A6FF;stroke-width:0.6667;"/><polygon fill="#58A6FF" points="1363.2539,1020.1055,1371.2539,1013.4388,1368.5872,1020.1055,1371.2539,1026.7721,1363.2539,1020.1055" style="stroke:#58A6FF;stroke-width:1.3333;"/></g><g class="participant participant-head" data-entity-uid="part7" data-qualified-name="GlobalExceptionsHandler" id="part7-head"><text fill="#C9D1D9" font-family="sans-serif" font-size="18.6667" lengthAdjust="spacing" textLength="210.638" x="1559.1934" y="157.6354">GlobalExceptionsHandler</text><ellipse cx="1668.5124" cy="117.5352" fill="#0D1117" rx="16" ry="16" style="stroke:#58A6FF;stroke-width:0.6667;"/><polygon fill="#58A6FF" points="1663.179,101.5352,1671.179,94.8685,1668.5124,101.5352,1671.179,108.2018,1663.179,101.5352" style="stroke:#58A6FF;stroke-width:1.3333;"/></g><g class="participant participant-tail" data-entity-uid="part7" data-qualified-name="GlobalExceptionsHandler" id="part7-tail"><text fill="#C9D1D9" font-family="sans-serif" font-size="18.6667" lengthAdjust="spacing" textLength="210.638" x="1559.1934" y="1010.6706">GlobalExceptionsHandler</text><ellipse cx="1668.5124" cy="1036.1055" fill="#0D1117" rx="16" ry="16" style="stroke:#58A6FF;stroke-width:0.6667;"/><polygon fill="#58A6FF" points="1663.179,1020.1055,1671.179,1013.4388,1668.5124,1020.1055,1671.179,1026.7721,1663.179,1020.1055" style="stroke:#58A6FF;stroke-width:1.3333;"/></g><g class="message" data-entity-1="part1" data-entity-2="part2" id="msg1"><polygon fill="#58A6FF" points="457.8444,198.972,471.1777,204.3053,457.8444,209.6387,463.1777,204.3053" style="stroke:#58A6FF;stroke-width:1.3333;"/><line style="stroke:#58A6FF;stroke-width:1.3333;" x1="76.6667" x2="465.8444" y1="204.3053" y2="204.3053"/><text fill="#C9D1D9" font-family="sans-serif" font-size="17.3333" font-weight="bold" lengthAdjust="spacing" textLength="9.64" x="92.6667" y="197.8301">1</text><text fill="#C9D1D9" font-family="sans-serif" font-size="17.3333" lengthAdjust="spacing" textLength="350.2044" x="107.64" y="197.8301">PUT /api/v1/customers/details + request body</text></g><path d="M480,229.6387 L480,246.972 A8,8 0 0 0 488,254.972 L641.3333,254.972 A8,8 0 0 0 649.3333,246.972 L649.3333,234.972 L636,221.6387 L488,221.6387 A8,8 0 0 0 480,229.6387" fill="#1C2330" style="stroke:#E7E7E7;stroke-width:0.6667;"/><path d="M636,221.6387 L636,230.972 A4,4 0 0 0 640,234.972 L649.3333,234.972 L636,221.6387" fill="#1C2330" style="stroke:#E7E7E7;stroke-width:0.6667;"/><text fill="#C9D1D9" font-family="sans-serif" font-size="17.3333" lengthAdjust="spacing" textLength="141.6458" x="488" y="245.7318">authenticates user</text><path d="M21.3333,272.207 L93.5612,272.207 L93.5612,282.7754 L80.2279,296.1087 L13.3333,296.1087 L13.3333,280.207 A8,8 0 0 1 21.3333,272.207" fill="#161B22" style="stroke:#30363D;stroke-width:2;"/><rect fill="none" height="698.3633" rx="8" ry="8" style="stroke:#30363D;stroke-width:2;" width="1791.1647" x="13.3333" y="272.207"/><text fill="#C9D1D9" font-family="sans-serif" font-size="17.3333" font-weight="bold" lengthAdjust="spacing" textLength="20.2279" x="33.3333" y="290.9668">alt</text><text fill="#C9D1D9" font-family="sans-serif" font-size="14.6667" font-weight="bold" lengthAdjust="spacing" textLength="141.804" x="113.5612" y="289.6191">[User authenticated]</text><g class="message" data-entity-1="part2" data-entity-2="part3" id="msg2"><polygon fill="#58A6FF" points="667.6563,320.0104,680.9896,325.3438,667.6563,330.6771,672.9896,325.3438" style="stroke:#58A6FF;stroke-width:1.3333;"/><line style="stroke:#58A6FF;stroke-width:1.3333;" x1="473.8444" x2="675.6563" y1="325.3438" y2="325.3438"/><text fill="#C9D1D9" font-family="sans-serif" font-size="17.3333" font-weight="bold" lengthAdjust="spacing" textLength="9.64" x="506.6953" y="318.8685">2</text><text fill="#C9D1D9" font-family="sans-serif" font-size="17.3333" lengthAdjust="spacing" textLength="129.1367" x="521.6686" y="318.8685">delegate request</text></g><path d="M1374.6667,350.6771 L1374.6667,368.0104 A8,8 0 0 0 1382.6667,376.0104 L1460,376.0104 A8,8 0 0 0 1468,368.0104 L1468,356.0104 L1454.6667,342.6771 L1382.6667,342.6771 A8,8 0 0 0 1374.6667,350.6771" fill="#1C2330" style="stroke:#E7E7E7;stroke-width:0.6667;"/><path d="M1454.6667,342.6771 L1454.6667,352.0104 A4,4 0 0 0 1458.6667,356.0104 L1468,356.0104 L1454.6667,342.6771" fill="#1C2330" style="stroke:#E7E7E7;stroke-width:0.6667;"/><text fill="#C9D1D9" font-family="sans-serif" font-size="17.3333" lengthAdjust="spacing" textLength="66.4811" x="1382.6667" y="366.7702">log entry</text><g class="message" data-entity-1="part3" data-entity-2="part4" id="msg3"><polygon fill="#58A6FF" points="883.5039,407.8138,896.8372,413.1471,883.5039,418.4805,888.8372,413.1471" style="stroke:#58A6FF;stroke-width:1.3333;"/><line style="stroke:#58A6FF;stroke-width:1.3333;" x1="683.6563" x2="891.5039" y1="413.1471" y2="413.1471"/><text fill="#C9D1D9" font-family="sans-serif" font-size="17.3333" font-weight="bold" lengthAdjust="spacing" textLength="9.64" x="719.5251" y="406.6719">3</text><text fill="#C9D1D9" font-family="sans-serif" font-size="17.3333" lengthAdjust="spacing" textLength="129.1367" x="734.4984" y="406.6719">delegate request</text></g><path d="M34.6667,433.1471 L106.8945,433.1471 L106.8945,443.7155 L93.5612,457.0488 L26.6667,457.0488 L26.6667,441.1471 A8,8 0 0 1 34.6667,433.1471" fill="#161B22" style="stroke:#30363D;stroke-width:2;"/><rect fill="none" height="467.5534" rx="8" ry="8" style="stroke:#30363D;stroke-width:2;" width="1764.498" x="26.6667" y="433.1471"/><text fill="#C9D1D9" font-family="sans-serif" font-size="17.3333" font-weight="bold" lengthAdjust="spacing" textLength="20.2279" x="46.6667" y="451.9069">alt</text><text fill="#C9D1D9" font-family="sans-serif" font-size="14.6667" font-weight="bold" lengthAdjust="spacing" textLength="121.4512" x="126.8945" y="450.5592">[customer exists]</text><g class="message" data-entity-1="part4" data-entity-2="part5" id="msg4"><polygon fill="#58A6FF" points="1072.9056,480.9505,1086.2389,486.2839,1072.9056,491.6172,1078.2389,486.2839" style="stroke:#58A6FF;stroke-width:1.3333;"/><line style="stroke:#58A6FF;stroke-width:1.3333;" x1="899.5039" x2="1080.9056" y1="486.2839" y2="486.2839"/><text fill="#C9D1D9" font-family="sans-serif" font-size="17.3333" font-weight="bold" lengthAdjust="spacing" textLength="9.64" x="917.8291" y="479.8086">4</text><text fill="#C9D1D9" font-family="sans-serif" font-size="17.3333" lengthAdjust="spacing" textLength="137.778" x="932.8024" y="479.8086">updates customer</text></g><path d="M1374.6667,511.6172 L1374.6667,528.9505 A8,8 0 0 0 1382.6667,536.9505 L1493.3333,536.9505 A8,8 0 0 0 1501.3333,528.9505 L1501.3333,516.9505 L1488,503.6172 L1382.6667,503.6172 A8,8 0 0 0 1374.6667,511.6172" fill="#1C2330" style="stroke:#E7E7E7;stroke-width:0.6667;"/><path d="M1488,503.6172 L1488,512.9505 A4,4 0 0 0 1492,516.9505 L1501.3333,516.9505 L1488,503.6172" fill="#1C2330" style="stroke:#E7E7E7;stroke-width:0.6667;"/><text fill="#C9D1D9" font-family="sans-serif" font-size="17.3333" lengthAdjust="spacing" textLength="99.252" x="1382.6667" y="527.7103">log response</text><g class="message" data-entity-1="part3" data-entity-2="part2" id="msg5"><polygon fill="#58A6FF" points="488.5111,568.7539,475.1777,574.0872,488.5111,579.4206,483.1777,574.0872" style="stroke:#58A6FF;stroke-width:1.3333;"/><line style="stroke:#58A6FF;stroke-width:1.3333;" x1="480.5111" x2="682.3229" y1="574.0872" y2="574.0872"/><text fill="#C9D1D9" font-family="sans-serif" font-size="17.3333" font-weight="bold" lengthAdjust="spacing" textLength="9.64" x="489.8444" y="567.612">5</text><text fill="#C9D1D9" font-family="sans-serif" font-size="17.3333" lengthAdjust="spacing" textLength="162.8385" x="504.8177" y="567.612">Http no content (204)</text></g><g class="message" data-entity-1="part2" data-entity-2="part1" id="msg6"><polygon fill="#58A6FF" points="91.3333,608.6556,78,613.9889,91.3333,619.3223,86,613.9889" style="stroke:#58A6FF;stroke-width:1.3333;"/><line style="stroke:#58A6FF;stroke-width:1.3333;" x1="83.3333" x2="472.5111" y1="613.9889" y2="613.9889"/><text fill="#C9D1D9" font-family="sans-serif" font-size="17.3333" font-weight="bold" lengthAdjust="spacing" textLength="9.64" x="186.3496" y="607.5137">6</text><text fill="#C9D1D9" font-family="sans-serif" font-size="17.3333" lengthAdjust="spacing" textLength="162.8385" x="201.3229" y="607.5137">Http no content (204)</text></g><line style="stroke:#30363D;stroke-width:1.3333;stroke-dasharray:2.6667,2.6667;" x1="26.6667" x2="1791.1647" y1="625.9889" y2="625.9889"/><text fill="#C9D1D9" font-family="sans-serif" font-size="14.6667" font-weight="bold" lengthAdjust="spacing" textLength="168.9316" x="33.3333" y="640.7344">[customer doesn't exist]</text><g class="message" data-entity-1="part4" data-entity-2="part6" id="msg7"><polygon fill="#58A6FF" points="1352.5872,669.1921,1365.9206,674.5254,1352.5872,679.8587,1357.9206,674.5254" style="stroke:#58A6FF;stroke-width:1.3333;"/><line style="stroke:#58A6FF;stroke-width:1.3333;" x1="899.5039" x2="1360.5872" y1="674.5254" y2="674.5254"/><text fill="#C9D1D9" font-family="sans-serif" font-size="17.3333" font-weight="bold" lengthAdjust="spacing" textLength="9.64" x="1065.8584" y="668.0501">7</text><text fill="#C9D1D9" font-family="sans-serif" font-size="17.3333" lengthAdjust="spacing" textLength="121.401" x="1080.8317" y="668.0501">throw exception</text></g><path d="M1374.6667,699.8587 L1374.6667,717.1921 A8,8 0 0 0 1382.6667,725.1921 L1458.6667,725.1921 A8,8 0 0 0 1466.6667,717.1921 L1466.6667,705.1921 L1453.3333,691.8587 L1382.6667,691.8587 A8,8 0 0 0 1374.6667,699.8587" fill="#1C2330" style="stroke:#E7E7E7;stroke-width:0.6667;"/><path d="M1453.3333,691.8587 L1453.3333,701.1921 A4,4 0 0 0 1457.3333,705.1921 L1466.6667,705.1921 L1453.3333,691.8587" fill="#1C2330" style="stroke:#E7E7E7;stroke-width:0.6667;"/><text fill="#C9D1D9" font-family="sans-serif" font-size="17.3333" lengthAdjust="spacing" textLength="64.543" x="1382.6667" y="715.9518">log error</text><g class="message" data-entity-1="part6" data-entity-2="part7" id="msg8"><polygon fill="#58A6FF" points="1652.5124,756.9954,1665.8457,762.3288,1652.5124,767.6621,1657.8457,762.3288" style="stroke:#58A6FF;stroke-width:1.3333;"/><line style="stroke:#58A6FF;stroke-width:1.3333;" x1="1368.5872" x2="1660.5124" y1="762.3288" y2="762.3288"/><text fill="#C9D1D9" font-family="sans-serif" font-size="17.3333" font-weight="bold" lengthAdjust="spacing" textLength="9.64" x="1439.7705" y="755.8535">8</text><text fill="#C9D1D9" font-family="sans-serif" font-size="17.3333" lengthAdjust="spacing" textLength="142.5853" x="1454.7438" y="755.8535">re-throw exception</text></g><path d="M1674.6667,787.6621 L1674.6667,804.9954 A8,8 0 0 0 1682.6667,812.9954 L1758.6667,812.9954 A8,8 0 0 0 1766.6667,804.9954 L1766.6667,792.9954 L1753.3333,779.6621 L1682.6667,779.6621 A8,8 0 0 0 1674.6667,787.6621" fill="#1C2330" style="stroke:#E7E7E7;stroke-width:0.6667;"/><path d="M1753.3333,779.6621 L1753.3333,788.9954 A4,4 0 0 0 1757.3333,792.9954 L1766.6667,792.9954 L1753.3333,779.6621" fill="#1C2330" style="stroke:#E7E7E7;stroke-width:0.6667;"/><text fill="#C9D1D9" font-family="sans-serif" font-size="17.3333" lengthAdjust="spacing" textLength="64.543" x="1682.6667" y="803.7552">log error</text><g class="message" data-entity-1="part3" data-entity-2="part2" id="msg9"><polygon fill="#58A6FF" points="488.5111,844.7988,475.1777,850.1322,488.5111,855.4655,483.1777,850.1322" style="stroke:#58A6FF;stroke-width:1.3333;"/><line style="stroke:#58A6FF;stroke-width:1.3333;" x1="480.5111" x2="682.3229" y1="850.1322" y2="850.1322"/><text fill="#C9D1D9" font-family="sans-serif" font-size="17.3333" font-weight="bold" lengthAdjust="spacing" textLength="9.64" x="494.1777" y="843.6569">9</text><text fill="#C9D1D9" font-family="sans-serif" font-size="17.3333" lengthAdjust="spacing" textLength="154.1719" x="509.151" y="843.6569">Http not found (404)</text></g><g class="message" data-entity-1="part2" data-entity-2="part1" id="msg10"><polygon fill="#58A6FF" points="91.3333,884.7005,78,890.0339,91.3333,895.3672,86,890.0339" style="stroke:#58A6FF;stroke-width:1.3333;"/><line style="stroke:#58A6FF;stroke-width:1.3333;" x1="83.3333" x2="472.5111" y1="890.0339" y2="890.0339"/><text fill="#C9D1D9" font-family="sans-serif" font-size="17.3333" font-weight="bold" lengthAdjust="spacing" textLength="19.2799" x="185.863" y="883.5586">10</text><text fill="#C9D1D9" font-family="sans-serif" font-size="17.3333" lengthAdjust="spacing" textLength="154.1719" x="210.4762" y="883.5586">Http not found (404)</text></g><line style="stroke:#30363D;stroke-width:1.3333;stroke-dasharray:2.6667,2.6667;" x1="13.3333" x2="1804.498" y1="911.3672" y2="911.3672"/><text fill="#C9D1D9" font-family="sans-serif" font-size="14.6667" font-weight="bold" lengthAdjust="spacing" textLength="168.681" x="20" y="926.1126">[User not authenticated]</text><g class="message" data-entity-1="part2" data-entity-2="part1" id="msg11"><polygon fill="#58A6FF" points="91.3333,954.5703,78,959.9036,91.3333,965.237,86,959.9036" style="stroke:#58A6FF;stroke-width:1.3333;"/><line style="stroke:#58A6FF;stroke-width:1.3333;" x1="83.3333" x2="472.5111" y1="959.9036" y2="959.9036"/><text fill="#C9D1D9" font-family="sans-serif" font-size="17.3333" font-weight="bold" lengthAdjust="spacing" textLength="19.2799" x="185.8672" y="953.4284">11</text><text fill="#C9D1D9" font-family="sans-serif" font-size="17.3333" lengthAdjust="spacing" textLength="154.1634" x="210.4805" y="953.4284">Http forbidden (403)</text></g><?plantuml-src hLLDRzim3BtxLn3OOIs6877IfkiE0_BHj8TkADPsTzbY7A6Av4boss3OVn_bEgwIs4am3BwPZu_laHBbX9C8Zpbd3Y4jhDDBDC3HCI4jTE0UVnMeKemYLZYjYcM29ehiar0vCsm92KkVCgCBnITQQWCVUbTn75y42BjWNBy8bS6SIOj1f4nBjL5KCUu70PuBY8Uzi8wjTC3l2E0RMiio74cHAKXHET84C396lrGgpZ-FXhCP_RmLSxmL2iVQS3HLTD0R30VJCBhj8Xx6utxVawPEcutaclejjED_Mle76ElNvg8-q9Br9xJyu4SpqyfLcCdbD9vU1e3rRAw9AM-grGPjSViE_wvTGqyc_S6WjuqAorvT-6yB4JYOdVilY9Sjl7ShEeBi1IsTlI0unJahfDljG80PUttCh9ecr81gQNi0dL0re-L-lZNeCDsKEPOmY_lvQjHXmZjcd4X5pfJRpna2ssYPRpyyMhe-ITKY6EMv52bpGgieVVC9asel_43hAkyIpSzu1t2FvbcaI15UMQf3Tcto8EkjpZ9Q5oERO-fgzBNK2PDNhodcNfkzOOfBlukyVEXy3ON35xXxV80koqNtEUwkrvhjhlVQ9p3-GbW7YUQhID4n1IEoXGCztoAYjRUW3UD_e8N2zofYqfLTsmXokjgmaKoYsZmICKU9cT-wbPGoVLF9KHqYAgap81bcLNAqrWpqr8Dg4bAoU8_rUu2lmZfR_WyhlBC4rFMWYReetnLR4zKC_-xJeCrf_BWZfidkvYXldCkfClWZHUs2atxlxBJcsPfSET-sd389wJKBdaoDLdrqRwqwhbE7xBe5FMX4M1tv_z0yf2VI7EpSPYO9RhbxH6gmSvpATehZTRLErC7ShoyuEJjweBifg7WKbJCjaHvoy7g7d7Dj4i4vAiyvE8s8xoy0?></g></svg>